<svg xmlns="http://www.w3.org/2000/svg" xmlns:xlink="http://www.w3.org/1999/xlink" width="227.242" height="280.671" viewBox="0 0 227.242 280.671">
  <defs>
    <linearGradient id="linear-gradient" x1="-20.545" y1="-6.849" x2="-21.784" y2="-6.849" gradientUnits="objectBoundingBox">
      <stop offset="0" stop-color="#563427"/>
      <stop offset="0.035" stop-color="#66493d"/>
      <stop offset="0.109" stop-color="#857068"/>
      <stop offset="0.184" stop-color="#9e918c"/>
      <stop offset="0.259" stop-color="#b2aaa7"/>
      <stop offset="0.335" stop-color="#c0bcbb"/>
      <stop offset="0.412" stop-color="#c9c7c7"/>
      <stop offset="0.491" stop-color="#cccbcb"/>
      <stop offset="0.562" stop-color="#c8c6c6"/>
      <stop offset="0.643" stop-color="#bebab8"/>
      <stop offset="0.727" stop-color="#aea5a2"/>
      <stop offset="0.815" stop-color="#978882"/>
      <stop offset="0.906" stop-color="#7a6259"/>
      <stop offset="0.997" stop-color="#573528"/>
      <stop offset="1" stop-color="#563427"/>
    </linearGradient>
    <linearGradient id="linear-gradient-2" x1="-20.974" y1="-7.297" x2="-22.059" y2="-6.592" xlink:href="#linear-gradient"/>
    <linearGradient id="linear-gradient-3" x1="1.255" y1="3.056" x2="1.255" y2="2.056" gradientUnits="objectBoundingBox">
      <stop offset="0" stop-color="#4e4d4d"/>
      <stop offset="0.568" stop-color="#2d2d2d"/>
      <stop offset="1" stop-color="#191a1a"/>
    </linearGradient>
  </defs>
  <g id="그룹_3452" data-name="그룹 3452" transform="translate(-1288.987 -372.092)">
    <g id="그룹_2458" data-name="그룹 2458" transform="translate(1413.83 372.091)">
      <path id="패스_3377" data-name="패스 3377" d="M1640.844,408.931a1.124,1.124,0,0,0-.162,1.579,40.605,40.605,0,0,1,8.836,30.628c-.048.394-.06.513-.067.553-.023.169-.05.348-.078.545-.157,1.043,5.469,4.678,5.862,4.758a1.125,1.125,0,0,0,1.328-.876q.193-.929.37-2.015t.293-2.03a47.455,47.455,0,0,0-1.583-19.113,49.725,49.725,0,0,0-9.066-17.25,1.121,1.121,0,0,0-1.578-.169C1643.646,406.632,1642.227,407.8,1640.844,408.931Z" transform="translate(-1557.154 -385.653)" fill="#aa8a66"/>
      <path id="패스_3378" data-name="패스 3378" d="M1505.476,428.98a1.125,1.125,0,0,0,1.08,1.169l6.832-3.216c.017-.2.037-.379.055-.548l.068-.553a40.566,40.566,0,0,1,14.579-26.562l0,0a.739.739,0,0,0,.086-.08q.223-.181.568-.455c.222-.174.449-.35.683-.527a1.121,1.121,0,0,0,.221-1.572c-1.076-1.429-2.261-3.022-3.221-4.285a1.123,1.123,0,0,0-1.573-.214,49.742,49.742,0,0,0-12.938,14.573,47.451,47.451,0,0,0-6.12,18.176q-.115.939-.2,2.04C1505.542,427.667,1505.5,428.348,1505.476,428.98Z" transform="translate(-1502.03 -380.187)" fill="#aa8a66"/>
      <path id="패스_3379" data-name="패스 3379" d="M1554.387,425.733l-1.85-.225v0c-.05-.006-.1-.007-.151-.009a6.485,6.485,0,0,0-6.7,5.685l-5.824,47.864a1.127,1.127,0,0,0,.982,1.253l7.329-2.693a1.127,1.127,0,0,0,1.254-.982l6.039-49.628a1.127,1.127,0,0,0-.982-1.254C1554.449,425.738,1554.42,425.734,1554.387,425.733Z" transform="translate(-1516.072 -393.902)" fill="#945c3f"/>
      <path id="패스_3380" data-name="패스 3380" d="M1591.254,482.4a1.126,1.126,0,0,0,1.253-.982l5.878-48.31a2.474,2.474,0,0,0-2.149-2.748v0l-36.6-4.439c-.03-.006-.061-.012-.091-.016a1.127,1.127,0,0,0-1.254.982l-6.038,49.628a1.127,1.127,0,0,0,.982,1.254Z" transform="translate(-1521.132 -394.071)" fill="#a56a43"/>
      <path id="패스_3381" data-name="패스 3381" d="M1539.841,513.183h0a4.621,4.621,0,0,1,.571-1.73,4.7,4.7,0,0,1,1.185-1.387l.005,0h0l0,0,0,0a4.669,4.669,0,0,1,3.45-.964l4.6.56,36.8,4.477a1.126,1.126,0,0,1,.981,1.253l-.606,4.981a3.234,3.234,0,0,1-3.592,2.811l-39.312-4.783h0a4.668,4.668,0,0,1-3.114-1.751l-.008-.01v0A4.656,4.656,0,0,1,1539.841,513.183Z" transform="translate(-1516.053 -428.039)" fill="#945c3f"/>
      <path id="패스_3382" data-name="패스 3382" d="M1543.365,516.844a3.012,3.012,0,0,0,1.927,1.043l39.307,4.783a1.547,1.547,0,0,0,1.713-1.34l.538-4.423-40.834-4.968a2.99,2.99,0,0,0-2.2.616l-.072.056a3.156,3.156,0,0,0-.7.835,2.981,2.981,0,0,0,.249,3.311Z" transform="translate(-1517.217 -429.204)" fill="#f0ebeb" fill-rule="evenodd"/>
      <path id="패스_3383" data-name="패스 3383" d="M1612.764,431.864l-8.922-1.084-1.158,9.511a1.405,1.405,0,0,0,.164.854,1.44,1.44,0,0,0,1.077.732,1.412,1.412,0,0,0,.786-.131l.068-.033h0l0,0,2.419-1.32,1.97,1.806a.786.786,0,0,0,.06.059h0a1.423,1.423,0,0,0,.79.366,1.442,1.442,0,0,0,.666-.08,1.435,1.435,0,0,0,.92-1.164l1.158-9.513Z" transform="translate(-1541.732 -396.063)" fill="#ef5350"/>
      <path id="패스_3384" data-name="패스 3384" d="M1575.393,462.757l7.253-5.239a2.117,2.117,0,0,1,1.51-.394,2.145,2.145,0,0,1,1.485.881,2.114,2.114,0,0,1,.385,1.507h0l-2.391,19.657a2.106,2.106,0,0,1-.743,1.377,2.182,2.182,0,0,1-1.654.5,2.107,2.107,0,0,1-1.3-.668.685.685,0,0,1-.072-.078l0,0,0,0,0,0-5.788-6.828-4.138-.5v0a2.183,2.183,0,0,1-1.374-.726,1.062,1.062,0,0,1-.083-.093l0,0h0l0,0a2.181,2.181,0,0,1-.449-1.607l.776-6.374a2.182,2.182,0,0,1,.726-1.374,1.037,1.037,0,0,1,.094-.083l0,0h0l0,0a2.18,2.18,0,0,1,1.607-.449l4.146.5Z" transform="translate(-1527.579 -406.817)" fill="#fff"/>
      <path id="패스_3385" data-name="패스 3385" d="M1575.392,466.3l.033-.024-1.31,10.765-.03-.035-4.138-.5v0a2.182,2.182,0,0,1-1.374-.726,1.061,1.061,0,0,1-.083-.093l0,0h0l0,0a2.183,2.183,0,0,1-.449-1.607l.776-6.374a2.187,2.187,0,0,1,.726-1.374,1.156,1.156,0,0,1,.094-.083l0,0h0l0,0a2.185,2.185,0,0,1,1.607-.449l4.146.5Z" transform="translate(-1527.579 -410.359)" fill="#fff"/>
      <path id="패스_3386" data-name="패스 3386" d="M1608.419,464.689a1.125,1.125,0,1,0-1.772,1.388,9.883,9.883,0,0,1-1.685,13.85,1.125,1.125,0,0,0,1.387,1.772,12.13,12.13,0,0,0,2.07-17.01Z" transform="translate(-1542.49 -409.737)" fill="#fff"/>
      <path id="패스_3387" data-name="패스 3387" d="M1602.866,469.458a1.126,1.126,0,0,0-1.772,1.388,5.286,5.286,0,0,1-.9,7.416,1.126,1.126,0,1,0,1.388,1.772,7.541,7.541,0,0,0,1.287-10.576Z" transform="translate(-1540.541 -411.685)" fill="#fff"/>
      <path id="패스_3388" data-name="패스 3388" d="M1603.186,395.731a5.925,5.925,0,0,1-.458.4l0,0h0a5.841,5.841,0,0,1-7.727-.462.961.961,0,0,1-.072-.069h0a38.814,38.814,0,0,0-48.485-5.9,5.847,5.847,0,0,1-7.7-1.35c-.114-.146-.232-.315-.352-.505a5.852,5.852,0,0,1-.811-4.1,5.779,5.779,0,0,1,2.128-3.594c.14-.11.307-.226.5-.346a50.483,50.483,0,0,1,63.153,7.684,5.633,5.633,0,0,1,.4.455,5.861,5.861,0,0,1-.559,7.784Z" transform="translate(-1515.105 -372.091)" fill="#704343"/>
      <path id="패스_3389" data-name="패스 3389" d="M1505.9,476.535a1.126,1.126,0,0,0,1.254-.981l2.655-21.82a1.126,1.126,0,0,0-.982-1.253l-2.707-.329a4.032,4.032,0,0,0-4.489,3.515l-1.953,16.053a4.033,4.033,0,0,0,3.515,4.489l2.707.329Z" transform="translate(-1499.652 -404.781)" fill="#ba9090"/>
      <path id="패스_3390" data-name="패스 3390" d="M1656.04,470.192a1.126,1.126,0,0,0-1.254.981l-2.655,21.82a1.126,1.126,0,0,0,.981,1.254l2.7.329a4.032,4.032,0,0,0,4.489-3.515l1.953-16.053a4.031,4.031,0,0,0-3.515-4.489l-2.7-.329Z" transform="translate(-1561.93 -412.158)" fill="#ba9090"/>
      <path id="패스_3391" data-name="패스 3391" d="M1523.384,450.753l-3.135,25.766a3.2,3.2,0,0,1-3.565,2.791v0l-3.155-.384v0a5.67,5.67,0,0,1-4.943-6.312l2.539-20.866a5.668,5.668,0,0,1,6.312-4.942l3.155.384a3.21,3.21,0,0,1,2.791,3.562Z" transform="translate(-1503.284 -402.592)" fill="#704343"/>
      <path id="패스_3392" data-name="패스 3392" d="M1635.316,490.349l3.135-25.767a3.211,3.211,0,0,1,3.565-2.792l3.155.384a5.669,5.669,0,0,1,4.942,6.312l-2.539,20.865a5.668,5.668,0,0,1-6.312,4.943v0l-3.155-.384v0a3.2,3.2,0,0,1-2.792-3.562Z" transform="translate(-1555.055 -408.72)" fill="#704343"/>
    </g>
    <g id="그룹_2463" data-name="그룹 2463" transform="translate(1289.541 425.936)">
      <g id="그룹_2462" data-name="그룹 2462">
        <path id="패스_3393" data-name="패스 3393" d="M1368.052,565.347c-2.665.421-5.059-.71-5.477-3.349L1349.1,476.724a4.224,4.224,0,0,1,3.745-5.1l53.4-8.435c2.666-.421,5.492.933,5.908,3.572l13.47,85.273c.417,2.639-1.51,4.453-4.174,4.874Z" transform="translate(-1313.842 -463.116)" fill="url(#linear-gradient)"/>
        <path id="패스_3394" data-name="패스 3394" d="M1368.792,564.936c-2.62.414-4.974-.7-5.386-3.311l-13.3-84.183a4.16,4.16,0,0,1,3.677-5.03l52.51-8.295c2.621-.414,5.4.925,5.813,3.53l13.3,84.182c.412,2.607-1.484,4.4-4.1,4.81Z" transform="translate(-1314.252 -463.495)" fill="url(#linear-gradient-2)"/>
        <path id="패스_3395" data-name="패스 3395" d="M1369.757,564.594a4.644,4.644,0,0,1-5.313-3.863l-12.925-81.818a4.646,4.646,0,0,1,3.864-5.311l51.486-8.133a4.643,4.643,0,0,1,5.312,3.862l12.925,81.818a4.644,4.644,0,0,1-3.862,5.312Z" transform="translate(-1314.833 -464.054)" fill="#6c554f"/>
        <path id="패스_3396" data-name="패스 3396" d="M1421.132,556.522l-51.485,8.133a4.856,4.856,0,0,1-5.549-4.033L1351.174,478.8a4.856,4.856,0,0,1,4.035-5.547l51.485-8.133a4.85,4.85,0,0,1,5.547,4.033l12.925,81.818A4.854,4.854,0,0,1,1421.132,556.522Zm-65.859-82.859a4.444,4.444,0,0,0-3.693,5.077l12.925,81.818a4.443,4.443,0,0,0,5.078,3.692l51.486-8.133a4.444,4.444,0,0,0,3.692-5.077l-12.925-81.818a4.44,4.44,0,0,0-5.076-3.692Z" transform="translate(-1314.691 -463.911)" fill="#fffcef"/>
        <rect id="사각형_1367" data-name="사각형 1367" width="52.639" height="77.683" transform="matrix(0.988, -0.156, 0.156, 0.988, 41.421, 16.719)" fill="#fff" stroke="#fffcef" stroke-miterlimit="10" stroke-width="1"/>
        <rect id="사각형_1368" data-name="사각형 1368" width="9.17" height="1.146" rx="0.573" transform="matrix(0.988, -0.156, 0.156, 0.988, 62.786, 8.801)" fill="url(#linear-gradient-3)"/>
        <g id="그룹_2459" data-name="그룹 2459" transform="translate(78.555 91.293)">
          <path id="패스_3397" data-name="패스 3397" d="M1424.167,618.084l.023.144a1.459,1.459,0,1,1-.93.147l-.023-.144a1.6,1.6,0,1,0,.931-.147Z" transform="translate(-1422.338 -617.708)" fill="#fff"/>
          <rect id="사각형_1369" data-name="사각형 1369" width="0.157" height="1.913" transform="matrix(0.988, -0.156, 0.156, 0.988, 1.217, 0.024)" fill="#fff"/>
        </g>
        <path id="패스_3398" data-name="패스 3398" d="M1343.205,566.675s-22.684-5.636-41.553,2.76l-12.112-76.673c18.869-8.394,41.586-2.548,41.586-2.548Z" transform="translate(-1289.541 -473.375)" fill="#fff" stroke="#fffcef" stroke-miterlimit="10" stroke-width="1"/>
        <g id="그룹_2460" data-name="그룹 2460" transform="translate(45.69 16.225)">
          <rect id="사각형_1370" data-name="사각형 1370" width="6.987" height="1.156" transform="matrix(0.988, -0.156, 0.156, 0.988, 5.113, 39.431)" fill="#cccbcb"/>
          <rect id="사각형_1371" data-name="사각형 1371" width="45.292" height="1.157" transform="matrix(0.988, -0.156, 0.156, 0.988, 0, 7.067)" fill="#cccbcb"/>
          <rect id="사각형_1372" data-name="사각형 1372" width="45.292" height="1.157" transform="matrix(0.988, -0.156, 0.156, 0.988, 0.511, 10.303)" fill="#cccbcb"/>
          <rect id="사각형_1373" data-name="사각형 1373" width="45.292" height="1.156" transform="matrix(0.988, -0.156, 0.156, 0.988, 1.023, 13.54)" fill="#cccbcb"/>
          <rect id="사각형_1374" data-name="사각형 1374" width="45.292" height="1.157" transform="matrix(0.988, -0.156, 0.156, 0.988, 1.534, 16.776)" fill="#cccbcb"/>
          <rect id="사각형_1375" data-name="사각형 1375" width="23.176" height="1.157" transform="matrix(0.988, -0.156, 0.156, 0.988, 2.045, 20.012)" fill="#cccbcb"/>
          <rect id="사각형_1376" data-name="사각형 1376" width="45.292" height="1.156" transform="matrix(0.988, -0.156, 0.156, 0.988, 3.068, 26.486)" fill="#cccbcb"/>
          <rect id="사각형_1377" data-name="사각형 1377" width="45.292" height="1.157" transform="matrix(0.988, -0.156, 0.156, 0.988, 3.579, 29.722)" fill="#cccbcb"/>
          <rect id="사각형_1378" data-name="사각형 1378" width="45.292" height="1.155" transform="matrix(0.988, -0.156, 0.156, 0.988, 4.09, 32.959)" fill="#cccbcb"/>
          <rect id="사각형_1379" data-name="사각형 1379" width="45.292" height="1.156" transform="matrix(0.988, -0.156, 0.156, 0.988, 4.601, 36.195)" fill="#cccbcb"/>
          <rect id="사각형_1380" data-name="사각형 1380" width="45.292" height="1.156" transform="matrix(0.988, -0.156, 0.156, 0.988, 6.135, 45.904)" fill="#cccbcb"/>
          <rect id="사각형_1381" data-name="사각형 1381" width="45.292" height="1.157" transform="matrix(0.988, -0.156, 0.156, 0.988, 6.646, 49.14)" fill="#cccbcb"/>
          <rect id="사각형_1382" data-name="사각형 1382" width="45.292" height="1.156" transform="matrix(0.988, -0.156, 0.156, 0.988, 7.158, 52.377)" fill="#cccbcb"/>
          <rect id="사각형_1383" data-name="사각형 1383" width="45.292" height="1.157" transform="matrix(0.988, -0.156, 0.156, 0.988, 7.669, 55.613)" fill="#cccbcb"/>
          <rect id="사각형_1384" data-name="사각형 1384" width="45.292" height="1.157" transform="matrix(0.988, -0.156, 0.156, 0.988, 8.18, 58.849)" fill="#cccbcb"/>
          <rect id="사각형_1385" data-name="사각형 1385" width="45.292" height="1.157" transform="matrix(0.988, -0.156, 0.156, 0.988, 8.691, 62.085)" fill="#cccbcb"/>
          <rect id="사각형_1386" data-name="사각형 1386" width="45.292" height="1.156" transform="matrix(0.988, -0.156, 0.156, 0.988, 9.203, 65.322)" fill="#cccbcb"/>
          <rect id="사각형_1387" data-name="사각형 1387" width="35.318" height="1.155" transform="matrix(0.988, -0.156, 0.156, 0.988, 9.714, 68.559)" fill="#cccbcb"/>
        </g>
        <g id="그룹_2461" data-name="그룹 2461" transform="translate(4.557 22.352)">
          <path id="패스_3399" data-name="패스 3399" d="M1332.423,503.691c-19.574-4.646-34.548,2.067-34.7,2.137l-.481-1.052c.152-.07,15.49-6.946,35.446-2.212Z" transform="translate(-1297.244 -500.902)" fill="#cccbcb"/>
          <path id="패스_3400" data-name="패스 3400" d="M1333.338,509.482c-19.572-4.643-34.548,2.069-34.7,2.138l-.482-1.051c.153-.069,15.49-6.946,35.446-2.212Z" transform="translate(-1297.618 -503.268)" fill="#cccbcb"/>
          <path id="패스_3401" data-name="패스 3401" d="M1334.253,515.275c-19.573-4.644-34.548,2.069-34.7,2.137l-.481-1.05c.152-.07,15.49-6.948,35.446-2.212Z" transform="translate(-1297.992 -505.634)" fill="#cccbcb"/>
          <path id="패스_3402" data-name="패스 3402" d="M1337,532.654c-19.573-4.645-34.548,2.069-34.7,2.138l-.482-1.052c.153-.069,15.49-6.946,35.446-2.211Z" transform="translate(-1299.113 -512.733)" fill="#cccbcb"/>
          <path id="패스_3403" data-name="패스 3403" d="M1337.913,538.446c-19.573-4.644-34.548,2.069-34.7,2.138l-.481-1.051c.153-.07,15.49-6.946,35.446-2.211Z" transform="translate(-1299.487 -515.099)" fill="#cccbcb"/>
          <path id="패스_3404" data-name="패스 3404" d="M1338.828,544.24c-19.573-4.644-34.548,2.068-34.7,2.137l-.481-1.052c.152-.069,15.49-6.946,35.446-2.21Z" transform="translate(-1299.861 -517.465)" fill="#cccbcb"/>
          <path id="패스_3405" data-name="패스 3405" d="M1339.743,550.032c-19.573-4.644-34.548,2.069-34.7,2.138l-.482-1.052c.153-.07,15.49-6.946,35.446-2.211Z" transform="translate(-1300.234 -519.831)" fill="#cccbcb"/>
          <path id="패스_3406" data-name="패스 3406" d="M1342.488,567.411c-19.573-4.645-34.548,2.069-34.7,2.137l-.482-1.051c.152-.07,15.49-6.947,35.446-2.211Z" transform="translate(-1301.356 -526.929)" fill="#cccbcb"/>
          <path id="패스_3407" data-name="패스 3407" d="M1343.4,573.2c-19.572-4.644-34.548,2.069-34.7,2.138l-.481-1.051c.152-.07,15.49-6.946,35.446-2.212Z" transform="translate(-1301.729 -529.295)" fill="#cccbcb"/>
          <path id="패스_3408" data-name="패스 3408" d="M1344.319,579c-19.573-4.644-34.548,2.069-34.7,2.137l-.481-1.051c.152-.07,15.489-6.947,35.446-2.211Z" transform="translate(-1302.103 -531.662)" fill="#cccbcb"/>
          <path id="패스_3409" data-name="패스 3409" d="M1345.234,584.789c-19.573-4.644-34.548,2.069-34.7,2.137l-.481-1.05c.152-.07,15.49-6.948,35.446-2.212Z" transform="translate(-1302.477 -534.028)" fill="#cccbcb"/>
          <path id="패스_3410" data-name="패스 3410" d="M1346.149,590.582c-19.573-4.644-34.548,2.069-34.7,2.137l-.482-1.051c.153-.069,15.49-6.946,35.446-2.211Z" transform="translate(-1302.851 -536.394)" fill="#cccbcb"/>
          <path id="패스_3411" data-name="패스 3411" d="M1347.064,596.374c-19.573-4.644-34.548,2.069-34.7,2.139l-.481-1.052c.152-.07,15.49-6.946,35.446-2.212Z" transform="translate(-1303.225 -538.76)" fill="#cccbcb"/>
          <path id="패스_3412" data-name="패스 3412" d="M1347.979,602.168c-19.573-4.645-34.548,2.068-34.7,2.137l-.481-1.052c.153-.07,15.49-6.946,35.446-2.211Z" transform="translate(-1303.598 -541.126)" fill="#cccbcb"/>
          <path id="패스_3413" data-name="패스 3413" d="M1319.029,518.346a55.018,55.018,0,0,0-19.039,3.836l.481,1.051a53.722,53.722,0,0,1,18.74-3.742Z" transform="translate(-1298.366 -508.027)" fill="#cccbcb"/>
          <path id="패스_3414" data-name="패스 3414" d="M1311.7,556.156a40.79,40.79,0,0,0-6.22,2.03l.482,1.051a38.836,38.836,0,0,1,5.819-1.915A1.175,1.175,0,0,1,1311.7,556.156Z" transform="translate(-1300.608 -523.471)" fill="#cccbcb"/>
          <path id="패스_3415" data-name="패스 3415" d="M1335.287,605.174a56.183,56.183,0,0,0-21.571,3.873l.482,1.051a54.983,54.983,0,0,1,21.272-3.769Z" transform="translate(-1303.972 -543.492)" fill="#cccbcb"/>
        </g>
      </g>
    </g>
    <path id="패스_3416" data-name="패스 3416" d="M1531.1,575.76l71.027-4.3a6.931,6.931,0,0,1,7.317,6.481l2.787,46.011a6.931,6.931,0,0,1-6.481,7.317l-71.028,4.3a6.932,6.932,0,0,1-7.316-6.481l-2.787-46.012a6.931,6.931,0,0,1,6.481-7.316Zm50.661,26.156-23.135,17.652a2.383,2.383,0,0,1-3.824-1.75l-1.962-32.382a2.383,2.383,0,0,1,3.585-2.2l25.1,14.73a2.382,2.382,0,0,1,.239,3.949Zm-34.668,23.23a2.188,2.188,0,1,1-2.052,2.316,2.188,2.188,0,0,1,2.052-2.316Zm-11.107,2.072,8.582-.52a2.749,2.749,0,0,0,.1,1.582l-8.581.519-.1-1.581Zm13.8-.836,53.7-3.253.1,1.582-53.7,3.253a2.726,2.726,0,0,0-.1-1.581Z" transform="translate(-96.014 -81.428)" fill="#785840" fill-rule="evenodd"/>
    <g id="그룹_2464" data-name="그룹 2464" transform="translate(1342.828 555.318)">
      <path id="패스_3417" data-name="패스 3417" d="M1397.163,750.287l-1.585-.236a1.4,1.4,0,0,1-1.177-1.588l.235-1.584,9.258-62.265.235-1.584a1.4,1.4,0,0,1,1.588-1.177l1.585.236,32.073,4.768a12.266,12.266,0,0,1,8.065,4.851c.178.241.348.487.509.741.227-.2.462-.382.7-.561a12.273,12.273,0,0,1,9.128-2.294l5.989.891a.659.659,0,0,1,.554.747l-.688,4.631a.658.658,0,0,1-.747.554l-5.989-.89a6.329,6.329,0,0,0-7.164,5.308l-.326,2.195-6.594,44.35a1.4,1.4,0,0,0,1.178,1.588l29.333,4.361a40.972,40.972,0,0,0-2.3,7.942l-24.232-3.6c-3.668-.545-5.8-.877-7.248-3.957a.838.838,0,0,0-1.385-.2c-2.085,2.341-4.023,2.27-7.878,1.7l-33.125-4.925Zm82.5-7.8,6.257-42.082a.561.561,0,0,0-.47-.636l-5-.743a.659.659,0,0,1-.553-.747l.689-4.631a.659.659,0,0,1,.747-.554l8.515,1.266,1.585.235a1.4,1.4,0,0,1,1.176,1.588l-.235,1.584-5.613,37.749a42.239,42.239,0,0,0-7.1,6.97Zm-36.19-40.342.326-2.195a6.328,6.328,0,0,0-5.308-7.163l-28.554-4.245a.562.562,0,0,0-.636.471l-7.888,53.056a.561.561,0,0,0,.471.635l33.407,4.967a1.4,1.4,0,0,0,1.588-1.177l6.595-44.35ZM1408.42,732.8l22.9,3.405a.652.652,0,0,1,.576.715l-.26,1.75a.653.653,0,0,1-.759.516l-22.9-3.406a.652.652,0,0,1-.576-.715l.26-1.75a.651.651,0,0,1,.759-.516Zm1.137-7.647,22.9,3.406a.651.651,0,0,1,.576.714l-.26,1.751a.652.652,0,0,1-.759.516l-22.9-3.406a.652.652,0,0,1-.576-.715l.26-1.75a.652.652,0,0,1,.759-.516Zm1.137-7.647,22.9,3.406a.652.652,0,0,1,.576.715l-.26,1.751a.653.653,0,0,1-.759.516l-22.9-3.405a.652.652,0,0,1-.576-.714l.26-1.751a.652.652,0,0,1,.759-.516Zm1.137-7.647,22.9,3.405a.651.651,0,0,1,.576.715l-.26,1.751a.652.652,0,0,1-.759.515l-22.9-3.405a.651.651,0,0,1-.575-.714l.26-1.75a.651.651,0,0,1,.758-.516Zm1.137-7.648,22.9,3.406a.652.652,0,0,1,.576.715l-.26,1.75a.652.652,0,0,1-.76.516l-22.9-3.405a.651.651,0,0,1-.576-.715l.26-1.75a.652.652,0,0,1,.759-.516Zm1.56-7.584,22.9,3.405a.651.651,0,0,1,.576.715l-.26,1.751a.652.652,0,0,1-.759.515l-22.9-3.406a.652.652,0,0,1-.576-.714l.26-1.751a.651.651,0,0,1,.759-.516Zm36.177,44.461,22.9,3.406a.652.652,0,0,1,.576.715l-.26,1.75a.652.652,0,0,1-.759.516l-22.9-3.405a.652.652,0,0,1-.576-.714l.26-1.75a.652.652,0,0,1,.759-.516Zm1.137-7.647,22.9,3.406a.652.652,0,0,1,.576.715l-.26,1.75a.652.652,0,0,1-.759.516l-22.9-3.405a.653.653,0,0,1-.576-.715l.26-1.751a.652.652,0,0,1,.759-.516Zm1.137-7.647,22.9,3.406a.652.652,0,0,1,.576.715l-.26,1.751a.652.652,0,0,1-.759.516l-22.9-3.406a.652.652,0,0,1-.576-.714l.26-1.751a.652.652,0,0,1,.759-.516Zm1.138-7.647,22.9,3.406a.651.651,0,0,1,.576.715l-.26,1.75a.652.652,0,0,1-.759.516l-22.9-3.406a.652.652,0,0,1-.576-.714l.26-1.751a.652.652,0,0,1,.76-.516Z" transform="translate(-1385.653 -681.837)" fill="#f9eabd" fill-rule="evenodd"/>
      <path id="패스_3418" data-name="패스 3418" d="M1391.95,683.709l1.591.237a.82.82,0,0,1,.689.929l-9.681,65.108c-.277,1.867-.053,2.453,1.911,2.745l39.695,5.9a7.742,7.742,0,0,0,5.509-.952.409.409,0,0,1,.564.084,7.746,7.746,0,0,0,4.994,2.514l27.433,4.079a29.384,29.384,0,0,0-.144,5.6l-30.643-4.556a2.431,2.431,0,0,1-1.814-2.079l-.052-.542c-.012-.13.222-2.179-.477-2.239-.686-.146-1.058,1.884-1.107,2l-.207.5a2.431,2.431,0,0,1-2.34,1.462l-44.1-6.558c-3.5-.521-4.462-3.977-4.06-6.676l9.774-65.737a2.178,2.178,0,0,1,2.468-1.829Zm92.076,50.255,5.2-34.965a.82.82,0,0,1,.929-.689l1.591.237a2.178,2.178,0,0,1,1.829,2.468l-4.484,30.159a46.668,46.668,0,0,0-5.063,2.79Z" transform="translate(-1379.623 -682.592)" fill="#603f38" fill-rule="evenodd"/>
      <path id="패스_3419" data-name="패스 3419" d="M1516.783,693.551l8.985,1.336a1.434,1.434,0,0,1,1.2,1.626l-2.319,15.6a1.408,1.408,0,0,1-1.106,1.187,1.275,1.275,0,0,1-1.5-.608l-2.168-5.3a.572.572,0,0,0-.969-.15l-3.762,4.5a1.276,1.276,0,0,1-1.611.13,1.41,1.41,0,0,1-.706-1.454l2.329-15.661a1.434,1.434,0,0,1,1.626-1.206Z" transform="translate(-1434.025 -686.616)" fill="#603f38" fill-rule="evenodd"/>
      <path id="패스_3420" data-name="패스 3420" d="M1529.453,811.157l2.417-5.758c-3.363-5.7,1.029-45.092,52.84-41.635L1572.8,779.547a5.477,5.477,0,0,1-2.292,2.1l-9.772,3.724,8.645-.376s-9.495,14.023-16.3,16.724-17.744,5.078-17.744,5.078l-2.254,5.016c-.28.625-.427.916-1.081.825l-2.006-.279c-.8-.111-.823-.537-.542-1.206Zm5.466-8.452c4.72-14.005,20.282-31.28,39.7-34.746-26.839,10.48-36.991,32.605-37.012,32.667l-2.693,2.079Z" transform="translate(-1440.756 -715.213)" fill="#ffe385" fill-rule="evenodd"/>
    </g>
  </g>
</svg>
