<svg xmlns="http://www.w3.org/2000/svg" width="134.957" height="85.5" viewBox="0 0 134.957 85.5">
  <g id="그룹_2649" data-name="그룹 2649" transform="translate(-927.719 -694)">
    <path id="패스_3373" data-name="패스 3373" d="M944.6,764.792h-1.551a1.357,1.357,0,0,1-1.354-1.354v-64.07a1.356,1.356,0,0,1,1.354-1.353H976a11.881,11.881,0,0,1,8.417,3.5q.307.309.594.637c.19-.219.388-.431.592-.637a11.881,11.881,0,0,1,8.418-3.5h5.864a.638.638,0,0,1,.637.637v4.535a.638.638,0,0,1-.637.637h-5.864a6.129,6.129,0,0,0-6.106,6.106V755.5a1.356,1.356,0,0,0,1.354,1.353h28.721a39.71,39.71,0,0,0-1.067,7.935H993.2c-3.592,0-5.686-.013-7.508-2.759a.811.811,0,0,0-1.355,0c-1.664,2.54-3.531,2.748-7.3,2.755Zm77.926-19.222V704.365a.543.543,0,0,0-.541-.541h-4.892a.638.638,0,0,1-.637-.637v-4.535a.638.638,0,0,1,.637-.637h9.89a1.355,1.355,0,0,1,1.353,1.353v38.514a40.9,40.9,0,0,0-5.809,7.688ZM982.11,712.078v-2.148A6.129,6.129,0,0,0,976,703.824H948.045a.544.544,0,0,0-.541.541v51.95a.543.543,0,0,0,.541.541h32.711a1.357,1.357,0,0,0,1.354-1.353V712.078Zm-29.218,34.357h22.427a.631.631,0,0,1,.654.6v1.714a.632.632,0,0,1-.654.6H952.892a.631.631,0,0,1-.653-.6v-1.714a.631.631,0,0,1,.653-.6Zm0-7.488h22.427a.631.631,0,0,1,.654.6v1.714a.632.632,0,0,1-.654.6H952.892a.631.631,0,0,1-.653-.6v-1.714a.631.631,0,0,1,.653-.6Zm0-7.488h22.427a.631.631,0,0,1,.654.6v1.714a.632.632,0,0,1-.654.6H952.892a.631.631,0,0,1-.653-.6v-1.714a.631.631,0,0,1,.653-.6Zm0-7.488h22.427a.631.631,0,0,1,.654.6v1.714a.632.632,0,0,1-.654.6H952.892a.632.632,0,0,1-.653-.6v-1.714a.631.631,0,0,1,.653-.6Zm0-7.488h22.427a.631.631,0,0,1,.654.6V718.8a.632.632,0,0,1-.654.6H952.892a.631.631,0,0,1-.653-.6v-1.714a.631.631,0,0,1,.653-.6Zm.414-7.488h22.426a.631.631,0,0,1,.654.6v1.714a.631.631,0,0,1-.654.6H953.306a.632.632,0,0,1-.654-.6V709.6a.631.631,0,0,1,.654-.6Zm40.991,37.44h22.427a.631.631,0,0,1,.654.6v1.714a.632.632,0,0,1-.654.6H994.3a.631.631,0,0,1-.654-.6v-1.714a.631.631,0,0,1,.654-.6Zm0-7.488h22.427a.631.631,0,0,1,.654.6v1.714a.632.632,0,0,1-.654.6H994.3a.631.631,0,0,1-.654-.6v-1.714a.631.631,0,0,1,.654-.6Zm0-7.488h22.427a.631.631,0,0,1,.654.6v1.714a.632.632,0,0,1-.654.6H994.3a.631.631,0,0,1-.654-.6v-1.714a.631.631,0,0,1,.654-.6Zm0-7.488h22.427a.631.631,0,0,1,.654.6v1.714a.632.632,0,0,1-.654.6H994.3a.632.632,0,0,1-.654-.6v-1.714a.631.631,0,0,1,.654-.6Z" transform="translate(-5.968 -1.715)" fill="#f9eabd" fill-rule="evenodd"/>
    <path id="패스_3374" data-name="패스 3374" d="M929.823,701.78h1.558a.8.8,0,0,1,.792.792v63.752c0,1.828.3,2.358,2.222,2.358h38.867a7.5,7.5,0,0,0,5.143-1.7.4.4,0,0,1,.552,0,7.5,7.5,0,0,0,5.142,1.7h26.862a28.47,28.47,0,0,0,.66,5.387h-30a2.354,2.354,0,0,1-2.033-1.733l-.127-.512c-.03-.122-.1-2.119-.775-2.077-.678-.042-.746,1.955-.776,2.077l-.127.512a2.354,2.354,0,0,1-2.033,1.733H932.56c-3.428,0-4.841-3.174-4.841-5.816V703.884a2.11,2.11,0,0,1,2.1-2.1Zm95.365,35.028V702.572a.793.793,0,0,1,.792-.792h1.558a2.109,2.109,0,0,1,2.1,2.1v29.531a45.176,45.176,0,0,0-4.453,3.393Z" transform="translate(0 -3.323)" fill="#603f38" fill-rule="evenodd"/>
    <path id="패스_3375" data-name="패스 3375" d="M1049.574,694h8.8a1.389,1.389,0,0,1,1.386,1.386v15.276a1.365,1.365,0,0,1-.89,1.294,1.234,1.234,0,0,1-1.527-.369l-2.833-4.771a.555.555,0,0,0-.95-.006l-2.963,4.848a1.233,1.233,0,0,1-1.524.354,1.363,1.363,0,0,1-.884-1.292V695.386a1.389,1.389,0,0,1,1.387-1.386Z" transform="translate(-51.45)" fill="#603f38" fill-rule="evenodd"/>
    <path id="패스_3376" data-name="패스 3376" d="M1082.458,801.643l1.5-5.86c-4.033-4.985-5.437-43.344,44.69-47.412l-9.166,16.817a5.3,5.3,0,0,1-1.9,2.34l-8.83,4.96,8.228-1.591s-7.1,14.786-13.229,18.342-16.275,7.392-16.275,7.392l-1.445,5.127c-.18.639-.278.938-.919.944l-1.962.019c-.778.007-.865-.4-.692-1.078Zm4.033-8.876c2.526-14.089,14.974-32.854,33.087-38.942-24.219,13.863-30.793,36.5-30.8,36.566l-2.284,2.375Z" transform="translate(-65.968 -23.221)" fill="#ffe385" fill-rule="evenodd"/>
  </g>
</svg>
