<svg xmlns="http://www.w3.org/2000/svg" viewBox="0 0 173.36 122.24"><defs><style>.cls-1{fill:#fffaf5;}.cls-2{fill:#785840;}</style></defs><title>Asset 1</title><g id="Layer_2" data-name="Layer 2"><g id="Layer_1-2" data-name="Layer 1"><path class="cls-1" d="M40.57,102.54A4.47,4.47,0,1,0,45,107,4.46,4.46,0,0,0,40.57,102.54Z"/><path class="cls-1" d="M17.7,105.39v3.23H35.24A5.77,5.77,0,0,1,35,107a5.7,5.7,0,0,1,.24-1.61Z"/><path class="cls-1" d="M59.75,92.86a4.77,4.77,0,0,0,5-.26L114,59.51a4.85,4.85,0,0,0,0-8.07L64.75,18.35a4.86,4.86,0,0,0-7.57,4V88.57A4.75,4.75,0,0,0,59.75,92.86Z"/><path class="cls-1" d="M46.15,107a5.77,5.77,0,0,1-.24,1.62H155.66v-3.23H45.91A5.7,5.7,0,0,1,46.15,107Z"/><path class="cls-2" d="M159.26,0H14.1A14.13,14.13,0,0,0,0,14.1v94a14.14,14.14,0,0,0,14.1,14.1H159.26a14.14,14.14,0,0,0,14.1-14.1v-94A14.13,14.13,0,0,0,159.26,0Zm-3.6,108.62H45.91a5.77,5.77,0,0,0,.24-1.62,5.7,5.7,0,0,0-.24-1.61H155.66Zm-138-3.23H35.24A5.7,5.7,0,0,0,35,107a5.77,5.77,0,0,0,.24,1.62H17.7Zm98.49-49.91a4.72,4.72,0,0,1-2.16,4L64.75,92.6a4.85,4.85,0,0,1-7.57-4V22.39a4.86,4.86,0,0,1,7.57-4L114,51.44A4.74,4.74,0,0,1,116.19,55.48ZM45,107a4.47,4.47,0,1,1-4.47-4.46A4.47,4.47,0,0,1,45,107Z"/></g></g></svg>