<svg xmlns="http://www.w3.org/2000/svg" width="128.153" height="120.256" viewBox="0 0 128.153 120.256">
  <g id="그룹_2648" data-name="그룹 2648" transform="translate(-30.25 -44.03)">
    <path id="패스_3355" data-name="패스 3355" d="M368.44,116.756a1.455,1.455,0,0,0,.039,2.053,52.527,52.527,0,0,1,16.131,37.949c0,.513,0,.667,0,.721,0,.22-.009.454-.015.712-.039,1.365,7.754,5.153,8.27,5.194a1.456,1.456,0,0,0,1.569-1.332q.1-1.224.16-2.646t.059-2.652a61.374,61.374,0,0,0-5.019-24.295A64.327,64.327,0,0,0,375.3,111.725a1.449,1.449,0,0,0-2.053.03C371.679,113.365,370.039,115.088,368.44,116.756Z" transform="translate(-237.586 -47.325)" fill="#aa8a66"/>
    <path id="패스_3356" data-name="패스 3356" d="M34.945,162.05a1.456,1.456,0,0,0,1.569,1.332l8.27-5.2c-.009-.258-.012-.492-.015-.712v-.721a52.479,52.479,0,0,1,14.571-36.385l0,0a.918.918,0,0,0,.1-.116c.172-.178.392-.4.659-.673s.522-.519.795-.783a1.45,1.45,0,0,0,.039-2.053c-1.6-1.667-3.376-3.527-4.806-5a1.452,1.452,0,0,0-2.053-.03,64.326,64.326,0,0,0-14.336,20.735,61.385,61.385,0,0,0-5.019,24.295q0,1.224.059,2.652C34.824,160.354,34.877,161.235,34.945,162.05Z" transform="translate(-3.144 -47.32)" fill="#aa8a66"/>
    <path id="패스_3357" data-name="패스 3357" d="M153.006,190.566h-2.412v-.006c-.065,0-.131.006-.2.012a8.39,8.39,0,0,0-7.718,8.347V261.29a1.457,1.457,0,0,0,1.456,1.457l8.991-4.6a1.457,1.457,0,0,0,1.456-1.456v-64.67a1.457,1.457,0,0,0-1.456-1.456Z" transform="translate(-79.079 -103.064)" fill="#945c3f"/>
    <path id="패스_3358" data-name="패스 3358" d="M223.994,258.11a1.457,1.457,0,0,0,1.456-1.457V193.7a3.2,3.2,0,0,0-3.189-3.192v.006l-47.7.018c-.039,0-.08-.006-.119-.006a1.457,1.457,0,0,0-1.456,1.456v64.67a1.457,1.457,0,0,0,1.456,1.457Z" transform="translate(-100.398 -103.029)" fill="#a56a43"/>
    <path id="패스_3359" data-name="패스 3359" d="M142.68,414.64h0a5.984,5.984,0,0,1,.463-2.311,6.078,6.078,0,0,1,1.305-1.967l.006-.006h0l0,0,0,0a6.043,6.043,0,0,1,4.28-1.777h53.94a1.457,1.457,0,0,1,1.456,1.456v6.49a4.183,4.183,0,0,1-4.174,4.171H148.737a6.039,6.039,0,0,1-4.272-1.762l-.012-.012v-.006A6.026,6.026,0,0,1,142.68,414.64Z" transform="translate(-79.079 -256.411)" fill="#945c3f"/>
    <path id="패스_3360" data-name="패스 3360" d="M151.27,422.653a3.893,3.893,0,0,0,2.637,1.038h51.22a2,2,0,0,0,1.99-1.987V415.94H153.907a3.864,3.864,0,0,0-2.735,1.136l-.083.083a4.071,4.071,0,0,0-.762,1.181,3.854,3.854,0,0,0,.837,4.212Z" transform="translate(-84.249 -261.588)" fill="#f0ebeb" fill-rule="evenodd"/>
    <path id="패스_3361" data-name="패스 3361" d="M293.635,190.53l-11.625,0v12.393a1.823,1.823,0,0,0,.344,1.071,1.866,1.866,0,0,0,1.5.771,1.827,1.827,0,0,0,.988-.291l.083-.053h0l0,0,2.9-2.073,2.812,2.011a.939.939,0,0,0,.086.065h0a1.844,1.844,0,0,0,2.913-1.5v-12.4Z" transform="translate(-177.079 -103.043)" fill="#ef5350"/>
    <path id="패스_3362" data-name="패스 3362" d="M211.8,269.542l8.5-7.861a2.735,2.735,0,0,1,1.878-.742,2.775,2.775,0,0,1,2.044.9,2.736,2.736,0,0,1,.73,1.875h.006v25.615a2.727,2.727,0,0,1-.739,1.884,2.83,2.83,0,0,1-2.047.9,2.727,2.727,0,0,1-1.774-.656.97.97,0,0,1-.1-.089l0,0,0,0,0,0-8.5-7.864H206.4v.006a2.824,2.824,0,0,1-1.878-.718,1.361,1.361,0,0,1-.122-.107l0,0h0l0,0a2.825,2.825,0,0,1-.828-1.993v-8.306a2.824,2.824,0,0,1,.718-1.878,1.367,1.367,0,0,1,.107-.122l0,0h0l0,0a2.825,2.825,0,0,1,1.993-.828h5.4Z" transform="translate(-121.907 -152.567)" fill="#fff"/>
    <path id="패스_3363" data-name="패스 3363" d="M211.8,289.856l.039-.036v14.028l-.044-.042H206.4v.006a2.824,2.824,0,0,1-1.878-.718,1.361,1.361,0,0,1-.122-.107l0,0h0l0,0a2.825,2.825,0,0,1-.828-1.993v-8.306a2.824,2.824,0,0,1,.718-1.878,1.367,1.367,0,0,1,.107-.122l0,0h0l0,0a2.825,2.825,0,0,1,1.993-.828Z" transform="translate(-121.907 -172.88)" fill="#fff"/>
    <path id="패스_3364" data-name="패스 3364" d="M303.306,275.107a1.456,1.456,0,0,0-2.059,2.059,12.783,12.783,0,0,1,0,18.047,1.456,1.456,0,0,0,2.059,2.059,15.691,15.691,0,0,0,0-22.165Z" transform="translate(-190.309 -162.231)" fill="#fff"/>
    <path id="패스_3365" data-name="패스 3365" d="M289.186,289.217a1.456,1.456,0,1,0-2.059,2.059,6.839,6.839,0,0,1,0,9.664A1.456,1.456,0,1,0,289.186,303a9.754,9.754,0,0,0,0-13.782Z" transform="translate(-180.378 -172.155)" fill="#fff"/>
    <path id="패스_3366" data-name="패스 3366" d="M184.351,69.208a7.722,7.722,0,0,1-.525.587l-.006.006h-.006a7.556,7.556,0,0,1-9.994.614c-.036-.024-.071-.05-.1-.077h0a50.207,50.207,0,0,0-63.181-.006,7.563,7.563,0,0,1-10.1-.531,7.948,7.948,0,0,1-.531-.593,7.571,7.571,0,0,1-1.682-5.135,7.479,7.479,0,0,1,2.171-4.948c.163-.163.359-.338.584-.522a65.3,65.3,0,0,1,82.293,0,7.293,7.293,0,0,1,.584.522,7.581,7.581,0,0,1,.5,10.083Z" transform="translate(-47.801)" fill="#704343"/>
    <path id="패스_3367" data-name="패스 3367" d="M38.992,305.966a1.457,1.457,0,0,0,1.456-1.456V276.076a1.457,1.457,0,0,0-1.456-1.456H35.465a5.216,5.216,0,0,0-5.215,5.215v20.919a5.216,5.216,0,0,0,5.215,5.215h3.527Z" transform="translate(0 -162.189)" fill="#ba9090"/>
    <path id="패스_3368" data-name="패스 3368" d="M429.356,274.613a1.457,1.457,0,0,0-1.456,1.456V304.5a1.457,1.457,0,0,0,1.456,1.456h3.524a5.216,5.216,0,0,0,5.215-5.215V279.825a5.216,5.216,0,0,0-5.215-5.215h-3.524Z" transform="translate(-279.693 -162.182)" fill="#ba9090"/>
    <path id="패스_3369" data-name="패스 3369" d="M70.285,261.048v33.576a4.142,4.142,0,0,1-4.141,4.141v-.006H62.033v.006a7.333,7.333,0,0,1-7.333-7.333v-27.19a7.333,7.333,0,0,1,7.333-7.333h4.111a4.152,4.152,0,0,1,4.141,4.138Z" transform="translate(-17.197 -149.732)" fill="#704343"/>
    <path id="패스_3370" data-name="패스 3370" d="M385.29,294.617V261.041a4.152,4.152,0,0,1,4.141-4.141h4.111a7.333,7.333,0,0,1,7.333,7.333v27.19a7.333,7.333,0,0,1-7.333,7.333v-.006h-4.111v.006a4.142,4.142,0,0,1-4.141-4.138Z" transform="translate(-249.722 -149.725)" fill="#704343"/>
  </g>
</svg>
