<svg xmlns="http://www.w3.org/2000/svg" viewBox="0 0 108.62 202.54"><defs><style>.cls-1{fill:none;stroke:#ddd590;stroke-miterlimit:10;}.cls-2{fill:#ddd590;}</style></defs><title>Asset 4</title><g id="Layer_2" data-name="Layer 2"><g id="Layer_1-2" data-name="Layer 1"><path class="cls-1" d="M.86,202.39S33.33,98.93,86.68,20.33"/><path class="cls-2" d="M17.26,156.86s22.42-28,39.2-31.66-19,23-39.2,31.66Z"/><path class="cls-2" d="M7.83,181.58s21.33-28.83,38-33.15-18,23.74-37.95,33.15Z"/><path class="cls-2" d="M71,45.07S86.83-3.77,98.33.23,81.15,34.92,71,45.07Z"/><path class="cls-2" d="M62.91,59.1s24.42-26.26,41.42-28.69S83.74,52,62.91,59.1Z"/><path class="cls-2" d="M61,62.59c.13.64,10.85-31.61,5.1-47.11S54.89,31.2,61,62.59Z"/><path class="cls-2" d="M50.44,82.88S74.86,56.62,91.86,54.19,71.27,75.76,50.44,82.88Z"/><path class="cls-2" d="M48.51,86.36c.13.64,10.85-31.61,5.1-47.11S42.41,55,48.51,86.36Z"/><path class="cls-2" d="M38.16,108.47s24-26.63,41-29.32-20.26,21.88-41,29.32Z"/><path class="cls-2" d="M36.29,112c.13.64,10.36-31.77,4.37-47.18S29.71,80.69,36.29,112Z"/><path class="cls-2" d="M27.84,131.86s23.41-27.16,40.31-30.24S48.39,124,27.84,131.86Z"/><path class="cls-2" d="M26,135.41c.15.64,9.65-32,3.32-47.27S18.77,104.27,26,135.41Z"/><path class="cls-2" d="M15.59,160.47c.17.63,8.49-32.32,1.62-47.36S7.2,129.61,15.59,160.47Z"/><path class="cls-2" d="M6.5,186c.2.63,7.24-32.62-.2-47.38S-3.07,155.53,6.5,186Z"/></g></g></svg>