<svg xmlns="http://www.w3.org/2000/svg" viewBox="0 0 108.62 202.54"><defs><style>.cls-1{fill:none;stroke:#c6af8d;stroke-miterlimit:10;}.cls-2{fill:#c6af8d;}</style></defs><title>Asset 3</title><g id="Layer_2" data-name="Layer 2"><g id="Layer_1-2" data-name="Layer 1"><path class="cls-1" d="M107.76,202.39S75.29,98.93,21.94,20.33"/><path class="cls-2" d="M91.37,156.86s-22.42-28-39.2-31.66S71.12,148.22,91.37,156.86Z"/><path class="cls-2" d="M37.63,45.07S21.79-3.77,10.29.23,27.47,34.92,37.63,45.07Z"/><path class="cls-2" d="M45.71,59.1S21.29,32.84,4.29,30.41,24.88,52,45.71,59.1Z"/><path class="cls-2" d="M47.64,62.59c-.13.64-10.85-31.61-5.1-47.11S53.74,31.2,47.64,62.59Z"/><path class="cls-2" d="M58.18,82.88S33.76,56.62,16.76,54.19,37.35,75.76,58.18,82.88Z"/><path class="cls-2" d="M60.11,86.36C60,87,49.26,54.75,55,39.25S66.21,55,60.11,86.36Z"/><path class="cls-2" d="M70.46,108.47s-24-26.63-41-29.32S49.75,101,70.46,108.47Z"/><path class="cls-2" d="M72.33,112C72.19,112.62,62,80.21,68,64.8S78.91,80.69,72.33,112Z"/><path class="cls-2" d="M80.78,131.86S57.37,104.7,40.47,101.62,60.23,124,80.78,131.86Z"/><path class="cls-2" d="M82.58,135.41c-.15.64-9.65-32-3.32-47.27S89.85,104.27,82.58,135.41Z"/><path class="cls-2" d="M93,160.48c-.17.63-8.49-32.32-1.62-47.36S101.42,129.62,93,160.48Z"/><path class="cls-2" d="M100.8,181.58s-21.33-28.83-37.95-33.15S80.9,172.17,100.8,181.58Z"/><path class="cls-2" d="M102.12,186c-.2.63-7.24-32.62.2-47.38S111.69,155.53,102.12,186Z"/></g></g></svg>