<?xml version="1.0" encoding="UTF-8"?>
<svg id="Layer_2" data-name="Layer 2" xmlns="http://www.w3.org/2000/svg" viewBox="0 0 810 506.51">
  <defs>
    <style>
      .cls-1 {
        fill: #cbc4bd;
      }

      .cls-1, .cls-2, .cls-3, .cls-4, .cls-5, .cls-6, .cls-7, .cls-8, .cls-9, .cls-10, .cls-11, .cls-12, .cls-13, .cls-14, .cls-15, .cls-16, .cls-17, .cls-18 {
        stroke-width: 0px;
      }

      .cls-2 {
        fill: #000;
      }

      .cls-19, .cls-20, .cls-21, .cls-22, .cls-23 {
        fill: none;
        stroke-miterlimit: 10;
      }

      .cls-19, .cls-21 {
        stroke: #d1c6bf;
      }

      .cls-3 {
        fill: #6b382e;
      }

      .cls-4 {
        fill: #3b2722;
      }

      .cls-5 {
        fill: #fff4ee;
      }

      .cls-6 {
        fill: #ca8d3e;
      }

      .cls-7 {
        fill: #934d3f;
      }

      .cls-20 {
        stroke: #000;
      }

      .cls-8 {
        fill: #fef0e7;
      }

      .cls-9 {
        fill: #3f1c0c;
      }

      .cls-10 {
        fill: #ba5249;
      }

      .cls-11 {
        fill: #795840;
      }

      .cls-21 {
        stroke-width: 3px;
      }

      .cls-12 {
        fill: #f8b75b;
      }

      .cls-13 {
        fill: #d1c6bf;
      }

      .cls-14 {
        fill: #c69754;
      }

      .cls-15 {
        fill: #fff;
      }

      .cls-16 {
        fill: #775435;
      }

      .cls-17 {
        fill: #b7a98b;
      }

      .cls-18 {
        fill: #e8dad1;
      }

      .cls-22 {
        stroke: #f4e7d7;
      }

      .cls-22, .cls-23 {
        stroke-width: .5px;
      }

      .cls-23 {
        stroke: #e5d7ce;
      }
    </style>
  </defs>
  <g id="Layer_1-2" data-name="Layer 1">
    <line class="cls-22" x1="18.94" y1="158.23" x2="32.89" y2="215.79"/>
    <path class="cls-7" d="M591.78,77c-8.26.75-271.81,63.37-271.81,63.37h-31.65S24.77,77.76,16.51,77c-8.26-.75-16.51-3.38-16.51,3.5s11.01,381.92,12.39,391.98,2.75,11.96,10.36,12.71c7.61.75,250.44,10.77,250.44,10.77,0,0,13.76,6.37,30.97,6.37s30.97-6.37,30.97-6.37c0,0,242.83-10.02,250.44-10.77,7.61-.75,8.99-2.65,10.36-12.71,1.38-10.06,12.39-385.11,12.39-391.98s-8.26-4.25-16.51-3.5Z"/>
    <path class="cls-3" d="M319.98,140.38h-31.65s-5.32-1.26-14.45-3.43v359.32c2.97,1.25,15.31,6.07,30.28,6.07,17.2,0,30.97-6.37,30.97-6.37V136.78c-9.54,2.26-15.14,3.59-15.14,3.59Z"/>
    <path class="cls-13" d="M304.15,146.31s-22.71-36.56-105.97-48.77c-83.26-12.21-138.31-17.72-157.58-25.98l-24.08,20.64,9.63,380.27,278,17.46V146.31Z"/>
    <path class="cls-18" d="M198.18,97.54c-83.26-12.21-138.31-17.72-157.58-25.98l8.26,388.1s41.29,8.95,103.91,9.63c62.62.69,131.43-4.13,151.39,20.64V146.31s-22.71-36.56-105.97-48.77Z"/>
    <path class="cls-13" d="M304.15,146.31s22.71-36.56,105.97-48.77c83.26-12.21,138.31-17.72,157.58-25.98l24.08,20.64-9.63,380.27-278,17.46V146.31Z"/>
    <path class="cls-18" d="M410.12,97.54c83.26-12.21,138.31-17.72,157.58-25.98l-8.26,388.1s-41.29,8.95-103.91,9.63c-62.62.69-131.43-4.13-151.39,20.64V146.31s22.71-36.56,105.97-48.77Z"/>
    <polyline class="cls-23" points="21.92 88.03 31.5 469.78 302.82 490.39"/>
    <polyline class="cls-23" points="29.33 81.68 39.74 467.72 297.96 485.65"/>
    <line class="cls-23" x1="33.41" y1="78.19" x2="44.58" y2="468.06"/>
    <polyline class="cls-23" points="585.53 87.34 575.94 469.75 304.15 490.39"/>
    <polyline class="cls-23" points="578.11 80.98 567.68 467.68 309.02 485.64"/>
    <line class="cls-23" x1="574.03" y1="77.48" x2="562.84" y2="468.02"/>
    <path class="cls-13" d="M74.47,117.13v140.17s129.53,2.31,207.14,37.27l-1.59-140.21s-99.91-31.63-205.55-37.23Z"/>
    <path class="cls-21" d="M76.49,282.14s132.74,7.66,205.11,34.66"/>
    <path class="cls-21" d="M76.49,306.64s132.74,7.66,205.11,34.66"/>
    <path class="cls-21" d="M76.49,331.13s132.74,7.66,205.11,34.66"/>
    <path class="cls-21" d="M76.49,355.63s132.74,7.66,205.11,34.66"/>
    <path class="cls-21" d="M76.49,380.13s132.74,7.66,205.11,34.66"/>
    <path class="cls-8" d="M304.15,146.31s17.26-51.83,47.81-81.81C405.96,11.52,468.75,0,468.75,0l-9.35,454.93s-105.19,1.36-155.25,35.01V146.31Z"/>
    <path class="cls-18" d="M306.68,163.02s14.34-43.05,39.72-67.96c44.86-44.01,97.01-53.58,97.01-53.58l-7.77,377.91s-113.19,18.36-128.96,45.36V163.02Z"/>
    <path class="cls-5" d="M788.58,301.61s-6.17,6.19-9.14,16.89l-8.1,1.47,7.16,2.82c-.38,2.26-.63,4.65-.63,7.21,0,3.48.42,6.68,1.09,9.59h-19.18l20.12,3.44c3.11,9.76,8.68,15.36,8.68,15.36h-190.4v-56.78h190.4Z"/>
    <path class="cls-17" d="M794.48,355.29h-167.39c-10.09,0-18.29-11.34-18.29-25.29s8.21-25.29,18.29-25.29h167.39c1.71,0,3.1-1.39,3.1-3.1s-1.39-3.1-3.1-3.1h-384.4c-13.51,0-24.5,14.13-24.5,31.5s10.99,31.5,24.5,31.5h384.4c1.71,0,3.1-1.39,3.1-3.1s-1.39-3.1-3.1-3.1Z"/>
    <circle class="cls-9" cx="567.69" cy="330" r="14.18"/>
    <rect class="cls-9" x="447.92" y="321.14" width="95.08" height="5.65"/>
    <rect class="cls-9" x="447.92" y="333.22" width="95.08" height="5.65"/>
    <rect class="cls-16" x="392.2" y="440.85" width="349.86" height="65.66"/>
    <rect class="cls-14" x="415.84" y="440.85" width="26.27" height="65.66"/>
    <rect class="cls-14" x="692.15" y="440.85" width="26.27" height="65.66"/>
    <rect class="cls-14" x="469.68" y="464.75" width="194.89" height="17.86"/>
    <path class="cls-5" d="M354.29,364.61s7.05,7.1,11.07,19.46h21.94l-20.46,5.4c.77,3.57,1.25,7.48,1.25,11.71,0,6.37-1.1,12.01-2.65,16.86h11.01l-11.98,2.8c-4.09,10.77-10.17,16.9-10.17,16.9h265.63v-73.14h-265.63Z"/>
    <path class="cls-12" d="M779.34,361.5h-432.64c-1.71,0-3.1,1.39-3.1,3.1s1.39,3.1,3.1,3.1h236c13.48,0,24.45,15.01,24.45,33.46s-10.97,33.46-24.45,33.46h-236c-1.71,0-3.1,1.39-3.1,3.1s1.39,3.1,3.1,3.1h432.64c16.91,0,30.66-17.8,30.66-39.67s-13.76-39.67-30.66-39.67Z"/>
    <rect class="cls-10" x="635.95" y="382.67" width="146.56" height="35.2"/>
    <path class="cls-10" d="M516.73,455.51c0-44.13,12.96-48.33,12.96-48.33h-32.43s-12.96,4.2-12.96,48.33l15.76-7,16.67,7Z"/>
    <line class="cls-19" x1="462.59" y1="407.18" x2="558.9" y2="407.18"/>
    <g>
      <g>
        <g>
          <g>
            <path class="cls-11" d="M677.14,130.73c10.95,17.5,17.34,38.63,17.34,61.38,0,32.31-12.89,61.34-33.4,81.38-4.18-6.37-7.73-13.12-10.55-20.13-.38-.87-.68-1.77-1.01-2.66l-.49-1.33c-.17-.44-.33-.89-.47-1.34l-.87-2.7-.22-.67-.19-.68-.38-1.36c-.54-1.81-.94-3.66-1.38-5.48-.2-.92-.37-1.85-.55-2.77-.2-.92-.34-1.85-.48-2.78-.32-1.85-.53-3.71-.75-5.57l-.24-2.8c-.08-.93-.11-1.87-.17-2.8-.17-3.73-.13-7.46.12-11.17.25-3.7.72-7.39,1.39-11,.35-1.81.74-3.6,1.2-5.36.23-.88.48-1.75.74-2.61.13-.43.27-.85.41-1.27.07-.21.14-.41.21-.61l.11-.29c.04-.09.08-.2.1-.24l-3.74-1.31c.17-1.4,4.22-31.64,33.28-55.84Z"/>
            <path class="cls-1" d="M593.59,82.64c34.75,0,65.4,19.07,83.54,48.09-29.07,24.2-33.11,54.44-33.28,55.84l-3.76-1.31c-.06.19-.09.31-.13.44l-.11.39c-.07.26-.13.51-.19.77-.13.5-.23,1-.34,1.5-.22,1-.4,1.99-.57,2.98-.34,1.98-.59,3.96-.81,5.93-.39,3.95-.54,7.91-.47,11.85.08,3.94.38,7.87.9,11.76.14.97.26,1.94.43,2.91l.51,2.89c.4,1.92.78,3.83,1.28,5.72.24.95.47,1.89.75,2.83.27.93.54,1.87.82,2.8.62,1.85,1.19,3.7,1.91,5.51l.51,1.36.25.68.28.67,1.13,2.68c.18.45.39.89.59,1.32l.62,1.31c.42.87.8,1.76,1.26,2.61,3.48,6.86,7.64,13.33,12.35,19.32-17.87,17.46-41.53,28.09-67.47,28.09s-49.52-10.59-67.38-28h0c4.74-6.02,8.92-12.51,12.42-19.4.46-.85.84-1.74,1.26-2.61l.62-1.31c.21-.44.42-.88.6-1.32l1.13-2.68.28-.67.26-.68.51-1.36c.71-1.81,1.29-3.67,1.9-5.51.28-.93.55-1.87.82-2.8.28-.93.51-1.88.75-2.83.5-1.89.88-3.8,1.28-5.72l.51-2.89c.17-.96.28-1.94.43-2.91.51-3.89.82-7.81.9-11.76.08-3.94-.08-7.9-.47-11.85-.21-1.98-.47-3.95-.8-5.93-.17-.99-.36-1.98-.57-2.98-.11-.5-.22-1-.34-1.5-.06-.25-.13-.51-.2-.77l-.11-.39c-.04-.14-.07-.26-.13-.44l-3.91,1.36s-3.53-31.11-33.29-55.89c18.14-29.02,48.79-48.09,83.54-48.09Z"/>
            <path class="cls-2" d="M661.07,273.49s.04.06.06.09c-.02-.03-.04-.05-.07-.08,0,0,0,0,0,0Z"/>
            <path class="cls-2" d="M643.85,186.57l3.74,1.31s-.06.15-.1.24l-.11.29c-.07.2-.14.4-.21.61-.14.42-.27.84-.41,1.27-.26.86-.51,1.73-.74,2.61-.46,1.76-.85,3.56-1.2,5.36-.68,3.62-1.14,7.3-1.39,11-.25,3.71-.28,7.44-.12,11.17.06.93.09,1.87.17,2.8l.24,2.8c.22,1.86.43,3.72.75,5.57.14.93.29,1.86.48,2.78.19.92.36,1.85.55,2.77.44,1.83.84,3.67,1.38,5.48l.38,1.36.19.68.22.67.87,2.7c.14.45.3.9.47,1.34l.49,1.33c.34.89.63,1.79,1.01,2.66,2.82,7,6.37,13.75,10.55,20.13,0,0,0,0,0,0-4.71-5.99-8.87-12.46-12.35-19.32-.46-.85-.84-1.74-1.26-2.61l-.62-1.31c-.21-.44-.41-.88-.59-1.32l-1.13-2.68-.28-.67-.25-.68-.51-1.36c-.71-1.81-1.29-3.67-1.91-5.51-.28-.93-.54-1.87-.82-2.8-.28-.93-.51-1.88-.75-2.83-.5-1.89-.88-3.8-1.28-5.72l-.51-2.89c-.17-.96-.28-1.94-.43-2.91-.52-3.89-.82-7.81-.9-11.76-.08-3.94.08-7.9.47-11.85.21-1.98.47-3.95.81-5.93.17-.99.36-1.98.57-2.98.11-.5.22-1,.34-1.5.06-.25.13-.51.19-.77l.11-.39c.04-.14.07-.26.13-.44l3.76,1.31Z"/>
            <path class="cls-2" d="M547.48,186.09c.07.26.14.51.2.77.12.5.23,1,.34,1.5.22,1,.4,1.99.57,2.98.34,1.98.59,3.96.8,5.93.39,3.95.55,7.91.47,11.85-.08,3.94-.38,7.87-.9,11.76-.14.97-.26,1.94-.43,2.91l-.51,2.89c-.4,1.92-.78,3.83-1.28,5.72-.23.95-.46,1.89-.75,2.83-.27.93-.54,1.87-.82,2.8-.62,1.85-1.19,3.7-1.9,5.51l-.51,1.36-.26.68-.28.67-1.13,2.68c-.18.45-.39.89-.6,1.32l-.62,1.31c-.42.87-.8,1.76-1.26,2.61-3.5,6.89-7.68,13.39-12.42,19.4,4.2-6.4,7.77-13.18,10.61-20.22.38-.87.68-1.77,1.01-2.66l.49-1.33c.16-.44.33-.89.47-1.34l.87-2.7.22-.67.19-.68.38-1.36c.54-1.81.94-3.66,1.38-5.48.19-.92.37-1.85.55-2.77.2-.92.34-1.85.48-2.78.32-1.85.53-3.71.75-5.57l.24-2.8c.08-.93.11-1.87.16-2.8.17-3.73.14-7.46-.12-11.17-.25-3.7-.71-7.39-1.39-11-.35-1.81-.74-3.6-1.21-5.36-.23-.88-.48-1.75-.74-2.61-.13-.43-.26-.85-.41-1.27-.07-.21-.14-.41-.21-.61l-.11-.29c-.03-.09-.07-.2-.09-.24l3.59-1.26,3.91-1.36c.06.19.09.31.13.44l.11.39Z"/>
            <path class="cls-11" d="M543.91,209.26c.25,3.71.29,7.44.12,11.17-.05.93-.09,1.87-.16,2.8l-.24,2.8c-.22,1.86-.43,3.72-.75,5.57-.14.93-.29,1.86-.48,2.78-.19.92-.36,1.85-.55,2.77-.44,1.83-.84,3.67-1.38,5.48l-.38,1.36-.19.68-.22.67-.87,2.7c-.14.45-.3.9-.47,1.34l-.49,1.33c-.34.89-.63,1.79-1.01,2.66-2.83,7.04-6.41,13.81-10.61,20.22h0c-20.57-20.04-33.5-49.11-33.5-81.47,0-22.75,6.39-43.88,17.34-61.38,29.76,24.78,33.29,55.89,33.29,55.89l-3.59,1.26s.06.15.09.24l.11.29c.07.2.14.4.21.61.14.42.27.84.41,1.27.26.86.51,1.73.74,2.61.46,1.76.85,3.56,1.21,5.36.68,3.62,1.14,7.3,1.39,11Z"/>
          </g>
          <g>
            <path class="cls-20" d="M543.34,186.62s-3.53-31.11-33.29-55.89"/>
            <path class="cls-20" d="M643.84,186.62s0-.02,0-.05"/>
          </g>
        </g>
        <g>
          <g>
            <path class="cls-2" d="M517.48,197.79c1.25,1.42,2.41,2.75,3.63,3.9,1.21,1.15,2.46,2.13,3.8,2.78.67.33,1.36.59,2.07.79.72.2,1.48.29,2.27.37,1.6.11,3.32-.06,5.24-.22l.15.31c-1.33,1.44-3.12,2.42-5.15,2.86-1.02.2-2.09.25-3.16.11-1.07-.15-2.11-.49-3.07-.98-1.92-.98-3.41-2.53-4.44-4.23-.51-.86-.92-1.76-1.21-2.69-.28-.94-.48-1.89-.47-2.88l.32-.11Z"/>
            <path class="cls-2" d="M505.17,210.14c1.25,1.42,2.41,2.75,3.63,3.9,1.21,1.15,2.46,2.13,3.8,2.78.67.33,1.36.59,2.07.79.72.2,1.48.29,2.27.37,1.6.11,3.32-.06,5.24-.22l.15.31c-1.33,1.44-3.12,2.42-5.15,2.86-1.02.2-2.09.25-3.16.11-1.07-.15-2.11-.49-3.07-.98-1.92-.98-3.41-2.53-4.44-4.23-.51-.86-.92-1.76-1.21-2.69-.28-.94-.48-1.89-.47-2.88l.32-.11Z"/>
            <path class="cls-2" d="M497.68,187.63c1.25,1.42,2.41,2.75,3.63,3.9,1.21,1.15,2.46,2.13,3.8,2.78.67.33,1.36.59,2.07.79.72.2,1.48.29,2.27.37,1.6.11,3.32-.06,5.24-.22l.15.31c-1.33,1.44-3.12,2.42-5.15,2.86-1.02.2-2.09.25-3.16.11-1.07-.15-2.11-.49-3.07-.98-1.92-.98-3.41-2.53-4.44-4.23-.51-.86-.92-1.76-1.21-2.69-.28-.94-.48-1.89-.47-2.88l.32-.11Z"/>
          </g>
          <g>
            <path class="cls-2" d="M670.04,197.9c0,1-.19,1.95-.47,2.88-.29.93-.7,1.83-1.21,2.69-1.03,1.7-2.51,3.25-4.44,4.23-.95.49-2,.83-3.07.98-1.07.14-2.14.09-3.16-.11-2.03-.44-3.82-1.42-5.15-2.86l.15-.31c1.93.17,3.65.33,5.24.22.79-.08,1.55-.17,2.27-.37.72-.2,1.41-.46,2.07-.79,1.34-.65,2.59-1.63,3.8-2.78,1.22-1.15,2.38-2.48,3.63-3.9l.32.11Z"/>
            <path class="cls-2" d="M682.35,210.25c0,1-.19,1.95-.47,2.88-.29.93-.7,1.83-1.21,2.69-1.03,1.7-2.51,3.25-4.44,4.23-.95.49-2,.83-3.07.98-1.07.14-2.14.09-3.16-.11-2.03-.44-3.82-1.42-5.15-2.86l.15-.31c1.93.17,3.65.33,5.24.22.79-.08,1.55-.17,2.27-.37.72-.2,1.41-.46,2.07-.79,1.34-.65,2.59-1.63,3.8-2.78,1.22-1.15,2.38-2.48,3.63-3.9l.32.11Z"/>
            <path class="cls-2" d="M689.83,187.74c0,1-.19,1.95-.47,2.88-.29.93-.7,1.83-1.21,2.69-1.03,1.7-2.51,3.25-4.44,4.23-.95.49-2,.83-3.07.98-1.07.14-2.14.09-3.16-.11-2.03-.44-3.82-1.42-5.15-2.86l.15-.31c1.93.17,3.65.33,5.24.22.79-.08,1.55-.17,2.27-.37.72-.2,1.41-.46,2.07-.79,1.34-.65,2.59-1.63,3.8-2.78,1.22-1.15,2.38-2.48,3.63-3.9l.32.11Z"/>
          </g>
          <g>
            <path class="cls-2" d="M563.49,244.21c2.19.97,4.31,1.84,6.42,2.49,2.11.65,4.22,1.1,6.3,1.16.26.02.52.01.78.01.26,0,.52,0,.78-.02.26-.03.52-.01.77-.05l.77-.09c1.03-.14,2.05-.38,3.07-.69,2.04-.65,4.04-1.66,6.18-2.82l.24.24c-1.17,2.17-2.99,3.99-5.23,5.27-1.12.63-2.35,1.09-3.63,1.41-1.28.29-2.6.39-3.9.34-2.61-.11-5.11-.92-7.29-2.13-1.09-.61-2.11-1.33-3.04-2.13-.92-.82-1.78-1.7-2.46-2.75l.23-.26Z"/>
            <g>
              <path class="cls-2" d="M580.64,215.45c2.19.97,4.31,1.84,6.42,2.49,2.11.65,4.22,1.1,6.3,1.16.26.02.52.01.78.01.26,0,.52,0,.78-.02.26-.03.52-.01.77-.05l.77-.09c1.03-.14,2.05-.38,3.07-.69,2.04-.65,4.04-1.66,6.18-2.82l.24.24c-1.17,2.17-2.99,3.99-5.23,5.27-1.12.63-2.35,1.09-3.63,1.41-1.28.29-2.6.39-3.9.34-2.61-.11-5.11-.92-7.29-2.13-1.09-.61-2.11-1.33-3.04-2.13-.92-.82-1.78-1.7-2.46-2.75l.23-.26Z"/>
              <path class="cls-2" d="M550.83,215.45c2.19.97,4.31,1.84,6.42,2.49,2.11.65,4.22,1.1,6.3,1.16.26.02.52.01.78.01.26,0,.52,0,.78-.02.26-.03.52-.01.77-.05l.77-.09c1.03-.14,2.05-.38,3.07-.69,2.04-.65,4.04-1.66,6.18-2.82l.24.24c-1.17,2.17-2.99,3.99-5.23,5.27-1.12.63-2.35,1.09-3.63,1.41-1.28.29-2.6.39-3.9.34-2.61-.11-5.11-.92-7.29-2.13-1.09-.61-2.11-1.33-3.04-2.13-.92-.82-1.78-1.7-2.46-2.75l.23-.26Z"/>
              <path class="cls-2" d="M598.06,244.21c2.19.97,4.31,1.84,6.42,2.49,2.11.65,4.22,1.1,6.3,1.16.26.02.52.01.78.01.26,0,.52,0,.78-.02.26-.03.52-.01.77-.05l.77-.09c1.03-.14,2.05-.38,3.07-.69,2.04-.65,4.04-1.66,6.18-2.82l.24.24c-1.17,2.17-2.99,3.99-5.23,5.27-1.12.63-2.35,1.09-3.63,1.41-1.28.29-2.6.39-3.9.34-2.61-.11-5.11-.92-7.29-2.13-1.09-.61-2.11-1.33-3.04-2.13-.92-.82-1.78-1.7-2.46-2.75l.23-.26Z"/>
              <path class="cls-2" d="M610.72,215.45c2.19.97,4.31,1.84,6.42,2.49,2.11.65,4.22,1.1,6.3,1.16.26.02.52.01.78.01.26,0,.52,0,.78-.02.26-.03.52-.01.77-.05l.77-.09c1.03-.14,2.05-.38,3.07-.69,2.04-.65,4.04-1.66,6.18-2.82l.24.24c-1.17,2.17-2.99,3.99-5.23,5.27-1.12.63-2.35,1.09-3.63,1.41-1.28.29-2.6.39-3.9.34-2.61-.11-5.11-.92-7.29-2.13-1.09-.61-2.11-1.33-3.04-2.13-.92-.82-1.78-1.7-2.46-2.75l.23-.26Z"/>
            </g>
          </g>
        </g>
        <g>
          <path class="cls-6" d="M573.69,286.16c-2.4,0-4.36,1.96-4.36,4.36,0-2.4-1.96-4.36-4.36-4.36h0c-2.4,0-4.36,1.96-4.36,4.36,0-2.4-1.96-4.36-4.36-4.36h0c-2.4,0-4.36,1.96-4.36,4.36v11.08c0,2.4,1.96,4.36,4.36,4.36h0c2.4,0,4.36-1.96,4.36-4.36,0,2.4,1.96,4.36,4.36,4.36h0c2.4,0,4.36-1.96,4.36-4.36,0,2.4,1.96,4.36,4.36,4.36s4.36-1.96,4.36-4.36v-11.08c0-2.4-1.96-4.36-4.36-4.36Z"/>
          <path class="cls-6" d="M630.95,286.16h0c-2.4,0-4.36,1.96-4.36,4.36,0-2.4-1.96-4.36-4.36-4.36h0c-2.4,0-4.36,1.96-4.36,4.36,0-2.4-1.96-4.36-4.36-4.36s-4.36,1.96-4.36,4.36v11.08c0,2.4,1.96,4.36,4.36,4.36s4.36-1.96,4.36-4.36c0,2.4,1.96,4.36,4.36,4.36h0c2.4,0,4.36-1.96,4.36-4.36,0,2.4,1.96,4.36,4.36,4.36h0c2.4,0,4.36-1.96,4.36-4.36v-11.08c0-2.4-1.96-4.36-4.36-4.36Z"/>
        </g>
      </g>
      <g>
        <path class="cls-1" d="M655.4,88.91c-24.66-23.46-60.99-22.87-61.62-22.86-.63-.01-36.96-.6-61.62,22.86l24.72,36.34,36.72,20.24v.2s.18-.1.18-.1l.18.1v-.2s36.72-20.24,36.72-20.24l24.72-36.34Z"/>
        <g>
          <path class="cls-6" d="M602.49,172.64c-.05-.05-.1-.1-.15-.16-.11-.14-.35-.43-.69-.81-2.94-3.32-5.78-4.41-8.29-4.36-2.51-.05-5.35,1.04-8.29,4.36-.34.37-.58.67-.69.81-.04.06-.09.11-.15.16-.84.73-8.12,8.03,8.16,29.6.49.64,1.46.64,1.94,0,16.27-21.56,9-28.87,8.16-29.6Z"/>
          <g>
            <path class="cls-4" d="M583.98,120.37s-6.26-27.76-53.24-32.64c0,0-19.68-2.13-38.59-19.98,0,0-4.46,19.51,27.36,33.62,0,0,38.99-17,64.47,19Z"/>
            <path class="cls-4" d="M602.9,120.37s6.25-27.76,53.23-32.65c0,0,19.68-2.14,38.59-19.99,0,0,4.47,19.51-27.36,33.63,0,0-39-17-64.47,19Z"/>
          </g>
          <g>
            <path class="cls-2" d="M691.45,142.33c0,25.86-21.04,46.91-46.9,46.91-25.86,0-46.91-21.04-46.91-46.9,0-25.86,21.04-46.91,46.9-46.91,25.86,0,46.91,21.04,46.91,46.9ZM644.55,182.37c22.08,0,40.04-17.96,40.04-40.04,0-22.08-17.97-40.04-40.05-40.04s-40.04,17.97-40.04,40.05c0,22.08,17.97,40.04,40.05,40.04Z"/>
            <path class="cls-15" d="M684.58,142.33c0,22.08-17.96,40.04-40.04,40.04-22.08,0-40.04-17.96-40.05-40.04,0-22.08,17.96-40.05,40.04-40.05s40.04,17.96,40.05,40.04ZM635.64,153.77c8,0,14.49-6.49,14.49-14.49s-6.49-14.49-14.49-14.49-14.49,6.49-14.49,14.49c0,8,6.49,14.49,14.49,14.49Z"/>
            <path class="cls-2" d="M650.13,139.28c0,8-6.49,14.49-14.49,14.49s-14.49-6.49-14.49-14.49c0-8,6.49-14.49,14.49-14.49s14.49,6.49,14.49,14.49ZM636.88,135.57c0-3.05-2.47-5.52-5.52-5.52s-5.52,2.47-5.52,5.52c0,3.05,2.47,5.52,5.52,5.52s5.52-2.47,5.52-5.52Z"/>
            <path class="cls-15" d="M631.36,130.05c3.05,0,5.52,2.47,5.52,5.52s-2.47,5.52-5.52,5.52-5.52-2.47-5.52-5.52c0-3.05,2.47-5.52,5.52-5.52Z"/>
          </g>
          <path class="cls-11" d="M595.46,123.31c7.71-20.57,27.57-35.8,51.55-38.2,1.92-.19,2.6-2.47,1.07-3.57-13.98-9.94-33.3-17.12-54.64-17.12-21.34,0-40.65,7.18-54.64,17.13-1.53,1.09-.85,3.37,1.07,3.57,23.98,2.39,43.84,17.62,51.56,38.19.67,1.79,3.36,1.79,4.03,0Z"/>
          <g>
            <g>
              <path class="cls-2" d="M589.25,142.33c0,25.86-21.04,46.91-46.9,46.91-25.86,0-46.91-21.04-46.91-46.9,0-25.86,21.04-46.91,46.9-46.91,25.86,0,46.91,21.04,46.91,46.9ZM542.34,182.38c22.08,0,40.04-17.96,40.04-40.04,0-22.08-17.97-40.04-40.05-40.04-22.08,0-40.04,17.97-40.04,40.05,0,22.08,17.96,40.04,40.04,40.04Z"/>
              <path class="cls-15" d="M582.38,142.33c0,22.08-17.96,40.04-40.04,40.04-22.08,0-40.04-17.96-40.04-40.04,0-22.08,17.96-40.04,40.04-40.05,22.08,0,40.04,17.96,40.05,40.04Z"/>
            </g>
            <circle class="cls-2" cx="550.99" cy="139.28" r="14.49"/>
            <circle class="cls-15" cx="555.27" cy="135.57" r="5.52"/>
          </g>
        </g>
      </g>
    </g>
  </g>
</svg>