<?xml version="1.0" encoding="UTF-8"?>
<svg xmlns="http://www.w3.org/2000/svg" viewBox="0 0 1088 576">
  <defs>
    <style>
      .cls-1 {
        fill: #b79985;
      }

      .cls-1, .cls-2, .cls-3, .cls-4, .cls-5 {
        stroke-width: 0px;
      }

      .cls-2 {
        fill: #ba5249;
        mix-blend-mode: multiply;
        opacity: .2;
      }

      .cls-6 {
        isolation: isolate;
      }

      .cls-3 {
        fill: #fff3d9;
      }

      .cls-4 {
        fill: #af6338;
      }

      .cls-5 {
        fill: #fff;
      }

      .cls-7 {
        fill: none;
        stroke: #f4e7d7;
        stroke-miterlimit: 10;
        stroke-width: .5px;
      }
    </style>
  </defs>
  <g class="cls-6">
    <g id="Layer_2" data-name="Layer 2">
      <g id="Layer_1-2" data-name="Layer 1">
        <g>
          <ellipse class="cls-2" cx="526.38" cy="541.24" rx="526.38" ry="34.76"/>
          <path class="cls-1" d="M951.38,322.3c-60.18-36.95-18.35-125.06-79.19-192.25-75.22-83.08-186.75-6.1-260.51-17.67-110.6-17.34-139.21-118.43-282.18-57.2-87.49,37.47-71.94,116-123.26,167.34-51.31,51.34-99.08,6.79-155.08,106.2-67.65,120.08,8.69,204.26,8.69,204.26h942.21c61.24-88.11,9.5-173.73-50.68-210.68Z"/>
          <path class="cls-4" d="M53.41,532.98h365.98s16.82-47.1-27.48-66.6c0,0,3.93-6.83-.56-12.11s-11.22,2.64-11.22,2.64c0,0,3.93-41.04-27.48-53.25-31.41-12.21-68.42,15.24-68.42,15.24,0,0,3.93-12.01,0-15.24-3.93-3.23-16.82,3.14-16.82,3.14,0,0-8.41-50.71-53.28-55.99-44.87-5.28-54.96,25.34-54.96,25.34,0,0-6.73-1.06-11.22,0-4.49,1.06-.56,13.01-.56,13.01,0,0-41.5-8.16-57.76,12.38-16.26,20.54,2.52,54.32,2.52,54.32,0,0-10.92-3.7-14.29,0s5.6,10.53,5.6,10.53c0,0-61.32,13.23-30.04,66.6Z"/>
          <polyline class="cls-7" points="227.41 390.39 227.41 532.98 324.55 447.9"/>
          <polyline class="cls-7" points="374.7 502.8 227.41 532.98 130.27 434.29"/>
          <line class="cls-7" x1="87.51" y1="502.8" x2="227.41" y2="532.98"/>
          <path class="cls-4" d="M648.84,532.98h365.98s16.82-47.1-27.48-66.6c0,0,3.93-6.83-.56-12.11-4.49-5.28-11.22,2.64-11.22,2.64,0,0,3.93-41.04-27.48-53.25-31.41-12.21-68.42,15.24-68.42,15.24,0,0,3.93-12.01,0-15.24-3.93-3.23-16.82,3.14-16.82,3.14,0,0-8.41-50.71-53.28-55.99-44.87-5.28-54.96,25.34-54.96,25.34,0,0-6.73-1.06-11.22,0-4.49,1.06-.56,13.01-.56,13.01,0,0-41.5-8.16-57.76,12.38-16.26,20.54,2.53,54.32,2.53,54.32,0,0-10.92-3.7-14.29,0s5.6,10.53,5.6,10.53c0,0-61.32,13.23-30.04,66.6Z"/>
          <polyline class="cls-7" points="822.83 390.39 822.83 532.98 919.97 447.9"/>
          <polyline class="cls-7" points="970.12 502.8 822.83 532.98 725.7 434.29"/>
          <line class="cls-7" x1="682.93" y1="502.8" x2="822.83" y2="532.98"/>
          <ellipse class="cls-4" cx="726.54" cy="284.33" rx="6.79" ry="3.31"/>
          <ellipse class="cls-4" cx="921.74" cy="334.36" rx="4.29" ry="2.1"/>
          <ellipse class="cls-3" cx="408.27" cy="70.73" rx="10.47" ry="5.11"/>
          <ellipse class="cls-3" cx="598.01" cy="144.01" rx="10.29" ry="5.02"/>
          <ellipse class="cls-3" cx="796.31" cy="123.7" rx="4.7" ry="2.3"/>
          <ellipse class="cls-3" cx="948.48" cy="362.13" rx="7.1" ry="3.47"/>
          <polygon class="cls-5" points="61.77 421.98 66.89 424.78 61.77 427.58 58.97 432.7 56.17 427.58 51.05 424.78 56.17 421.98 58.97 416.86 61.77 421.98"/>
          <polygon class="cls-5" points="127.8 196.46 132.92 199.26 127.8 202.06 125 207.18 122.2 202.06 117.08 199.26 122.2 196.46 125 191.35 127.8 196.46"/>
          <polygon class="cls-5" points="415.38 185.16 420.49 187.96 415.38 190.76 412.58 195.88 409.78 190.76 404.66 187.96 409.78 185.16 412.58 180.04 415.38 185.16"/>
          <polygon class="cls-5" points="517.41 104.1 522.53 106.9 517.41 109.7 514.61 114.82 511.81 109.7 506.69 106.9 511.81 104.1 514.61 98.98 517.41 104.1"/>
          <polygon class="cls-5" points="907.01 352.52 912.13 355.32 907.01 358.12 904.21 363.24 901.41 358.12 896.29 355.32 901.41 352.52 904.21 347.4 907.01 352.52"/>
          <polygon class="cls-5" points="1003.09 403.04 1008.21 405.84 1003.09 408.64 1000.3 413.76 997.5 408.64 992.38 405.84 997.5 403.04 1000.3 397.92 1003.09 403.04"/>
          <polygon class="cls-5" points="360.51 40.81 365.63 43.61 360.51 46.41 357.71 51.53 354.91 46.41 349.79 43.61 354.91 40.81 357.71 35.69 360.51 40.81"/>
          <polygon class="cls-5" points="35.75 475.29 44.97 480.32 35.75 485.36 30.71 494.58 25.67 485.36 16.46 480.32 25.67 475.29 30.71 466.07 35.75 475.29"/>
          <polygon class="cls-5" points="427.56 116.12 436.78 121.16 427.56 126.2 422.52 135.41 417.48 126.2 408.27 121.16 417.48 116.12 422.52 106.9 427.56 116.12"/>
          <polygon class="cls-5" points="939.27 407.57 948.48 412.61 939.27 417.65 934.23 426.87 929.19 417.65 919.97 412.61 929.19 407.57 934.23 398.36 939.27 407.57"/>
          <polygon class="cls-5" points="156.16 116.12 165.37 121.16 156.16 126.2 151.12 135.41 146.08 126.2 136.87 121.16 146.08 116.12 151.12 106.9 156.16 116.12"/>
          <polygon class="cls-5" points="698.71 33.74 707.93 38.78 698.71 43.82 693.67 53.03 688.63 43.82 679.42 38.78 688.63 33.74 693.67 24.53 698.71 33.74"/>
          <polygon class="cls-5" points="42.82 171.58 52.03 176.62 42.82 181.66 37.78 190.87 32.74 181.66 23.53 176.62 32.74 171.58 37.78 162.37 42.82 171.58"/>
          <polygon class="cls-5" points="979.51 111.44 988.73 116.48 979.51 121.52 974.47 130.73 969.43 121.52 960.22 116.48 969.43 111.44 974.47 102.23 979.51 111.44"/>
          <polygon class="cls-5" points="1024.24 210.56 1029.38 213.37 1024.24 216.19 1021.42 221.34 1018.61 216.19 1013.46 213.37 1018.61 210.56 1021.42 205.41 1024.24 210.56"/>
          <polygon class="cls-5" points="1083.34 328.13 1088 330.68 1083.34 333.22 1080.8 337.88 1078.25 333.22 1073.59 330.68 1078.25 328.13 1080.8 323.47 1083.34 328.13"/>
          <polygon class="cls-5" points="675.6 60.16 680.21 62.68 675.6 65.2 673.08 69.81 670.56 65.2 665.95 62.68 670.56 60.16 673.08 55.55 675.6 60.16"/>
          <polygon class="cls-5" points="880.66 215.59 889.88 220.63 880.66 225.67 875.62 234.88 870.59 225.67 861.37 220.63 870.59 215.59 875.62 206.37 880.66 215.59"/>
          <ellipse class="cls-3" cx="80.51" cy="401.38" rx="4.7" ry="2.3"/>
          <ellipse class="cls-4" cx="247.68" cy="198.81" rx="4.7" ry="2.3"/>
          <ellipse class="cls-3" cx="978.87" cy="177.12" rx="5.11" ry="10.47" transform="translate(769.67 1149.64) rotate(-88.12)"/>
          <ellipse class="cls-3" cx="1080.8" cy="248.49" rx="3.45" ry="7.07" transform="translate(796.92 1320.53) rotate(-88.12)"/>
          <ellipse class="cls-3" cx="493.16" cy="5.89" rx="5.88" ry="12.05" transform="translate(471.06 498.6) rotate(-88.12)"/>
          <ellipse class="cls-4" cx="1021.23" cy="154.65" rx="7.77" ry="3.8"/>
          <ellipse class="cls-4" cx="87.63" cy="148.88" rx="6.79" ry="3.31"/>
        </g>
      </g>
    </g>
  </g>
</svg>