<svg xmlns="http://www.w3.org/2000/svg" width="26" height="27.897" viewBox="0 0 26 27.897">
  <path id="패스_10092" data-name="패스 10092" d="M23.96,19.417c-1.685-1.441-3.4-2.315-5.06-.875l-.994.87c-.727.631-2.079,3.582-7.307-2.432S8.482,10.038,9.21,9.412l1-.871c1.656-1.442,1.031-3.258-.163-5.128L9.326,2.281C8.126.416,6.819-.809,5.159.631l-.9.784A8.421,8.421,0,0,0,.98,6.988c-.6,3.961,1.29,8.5,5.618,13.472S15.151,27.94,19.16,27.9a8.444,8.444,0,0,0,5.972-2.473l.9-.785c1.656-1.439.627-2.9-1.059-4.349Z" transform="translate(-0.872 0)" fill="#3b2722"/>
</svg>
