<svg xmlns="http://www.w3.org/2000/svg" xmlns:xlink="http://www.w3.org/1999/xlink" width="102.151" height="90.34" viewBox="0 0 102.151 90.34">
  <defs>
    <linearGradient id="linear-gradient" x1="0.5" x2="0.5" y2="1" gradientUnits="objectBoundingBox">
      <stop offset="0" stop-color="#43766c"/>
      <stop offset="1" stop-color="#86a789"/>
    </linearGradient>
  </defs>
  <path id="패스_3207" data-name="패스 3207" d="M45.011,83.191C37.269,65.159,23.384,55.681,13.547,42.537,8.473,35.759,6.814,30.274,6.4,25.873a11.962,11.962,0,0,0,.221,6.113S3.97,27.821,4.6,23.6a11.386,11.386,0,0,1,.971-3.047A8.164,8.164,0,0,1,3.3,21.29l3.411-2.835.051.1C25.727,50.394,40.7,63.238,40.7,63.238,7.611,20.976,0,.033,0,.033,4.136-.309,5.352,2.106,5.352,2.106c3.428,7.978,5.8,12.539,5.8,12.539,12.905-4.309,17.92,2.393,17.92,2.393L25.1,18.35c10.2.22,18.055,12.925,18.055,12.925C38.665,30.368,32.8,31.6,32.8,31.6S58.443,35.48,53.749,64.859C50.79,83.384,48.719,91.83,45.011,83.191Z" transform="translate(74.99) rotate(60)" fill="url(#linear-gradient)"/>
</svg>
