<svg xmlns="http://www.w3.org/2000/svg" width="203.955" height="105.067" viewBox="0 0 203.955 105.067">
  <g id="그룹_2012" data-name="그룹 2012" transform="translate(0)">
    <path id="패스_3104" data-name="패스 3104" d="M666.34,589.832c-1.282,0-1.866-1.05-1.866-2.449,0-1.283.583-2.332,1.866-2.332h22.507V571.408c0-1.516,1.283-2.1,2.565-2.1,1.4,0,2.682.583,2.682,2.1v13.644h21.34c1.283,0,1.866,1.049,1.866,2.332,0,1.4-.583,2.449-1.866,2.449Zm25.188,10.5c14.11,0,20.291,9.912,20.291,21.573s-6.18,21.573-20.291,21.573-20.29-9.912-20.29-21.573S677.418,600.328,691.528,600.328Zm0,4.781c-11.078,0-15.276,7.93-15.276,16.793s4.2,16.792,15.276,16.792S706.8,630.763,706.8,621.9,702.607,605.108,691.528,605.108Zm37.9,2.216H717.533c-1.282,0-1.866-1.049-1.866-2.449,0-1.282.583-2.332,1.866-2.332h11.895V571.874c0-1.516,1.282-2.1,2.682-2.1,1.282,0,2.565.583,2.565,2.1v88.392c0,1.517-1.283,2.1-2.565,2.1-1.4,0-2.682-.583-2.682-2.1v-30.2H718.116c-1.282,0-1.866-1.049-1.866-2.449,0-1.283.583-2.333,1.866-2.333h11.312Zm19.591-36.616c0-1.516,1.282-2.1,2.565-2.1,1.4,0,2.682.583,2.682,2.1v94.456c0,1.516-1.283,2.1-2.682,2.1-1.283,0-2.565-.583-2.565-2.1Z" transform="translate(-664.474 -568.609)"/>
    <path id="패스_3105" data-name="패스 3105" d="M902.957,676.173c-5.364,0-7.114-1.632-7.114-6.88V648.885c0-5.247,1.749-6.88,7.114-6.88h8.4v-15.86H883.132c-1.166,0-1.749-1.049-1.749-2.332s.583-2.332,1.749-2.332h93.057c1.166,0,1.749,1.049,1.749,2.332s-.583,2.332-1.749,2.332H947.969v15.86h8.4c5.364,0,7.114,1.632,7.114,6.88v20.407c0,5.248-1.75,6.88-7.114,6.88ZM896.193,592.1c0-12.361,11.778-18.541,33.468-18.541s33.467,6.18,33.467,18.541-11.778,18.542-33.467,18.542S896.193,604.456,896.193,592.1Zm4.9,77.547c0,1.4.583,1.865,1.982,1.865h53.175c1.4,0,1.983-.466,1.983-1.865V648.536c0-1.4-.583-1.866-1.983-1.866H903.073c-1.4,0-1.982.467-1.982,1.866Zm.35-77.547c0,9.1,9.445,13.994,28.221,13.994s28.22-4.9,28.22-13.994-9.446-13.994-28.22-13.994S901.441,583,901.441,592.1Zm15.043,49.91h26.355v-15.86H916.483Z" transform="translate(-773.983 -571.106)"/>
  </g>
</svg>
