<svg id="그룹_2074" data-name="그룹 2074" xmlns="http://www.w3.org/2000/svg" xmlns:xlink="http://www.w3.org/1999/xlink" width="460" height="147.233" viewBox="0 0 460 147.233">
  <defs>
    <radialGradient id="radial-gradient" cx="0.5" cy="0.5" r="1.373" gradientTransform="translate(0.367) scale(0.267 1)" gradientUnits="objectBoundingBox">
      <stop offset="0.005" stop-color="#f2ffe9"/>
      <stop offset="0.5" stop-color="#86a789"/>
      <stop offset="1" stop-color="#43766c"/>
    </radialGradient>
    <radialGradient id="radial-gradient-2" cx="0.5" cy="0.5" r="1.989" gradientTransform="translate(0.41) scale(0.181 1)" gradientUnits="objectBoundingBox">
      <stop offset="0.005" stop-color="#fff5e0"/>
      <stop offset="0.5" stop-color="#f1e4c3"/>
      <stop offset="1" stop-color="#edc181"/>
    </radialGradient>
    <radialGradient id="radial-gradient-3" cx="0.5" cy="0.5" r="3.537" gradientTransform="translate(0.45) scale(0.1 1)" gradientUnits="objectBoundingBox">
      <stop offset="0" stop-color="#aea48b"/>
      <stop offset="0.516" stop-color="#99926d"/>
      <stop offset="1" stop-color="#76453b"/>
    </radialGradient>
  </defs>
  <g id="그룹_2012" data-name="그룹 2012" transform="translate(248.684 16.841)">
    <path id="패스_3104" data-name="패스 3104" d="M666.407,590.6c-1.329,0-1.933-1.088-1.933-2.537,0-1.329.6-2.416,1.933-2.416h23.319V571.509c0-1.571,1.329-2.175,2.658-2.175,1.45,0,2.779.6,2.779,2.175v14.136h22.11c1.329,0,1.933,1.087,1.933,2.416,0,1.45-.6,2.537-1.933,2.537Zm26.1,10.874c14.62,0,21.023,10.269,21.023,22.352s-6.4,22.351-21.023,22.351-21.023-10.269-21.023-22.351S677.885,601.472,692.5,601.472Zm0,4.953c-11.478,0-15.827,8.216-15.827,17.4s4.349,17.4,15.827,17.4,15.828-8.215,15.828-17.4S703.983,606.425,692.5,606.425Zm39.267,2.3H719.448c-1.329,0-1.933-1.087-1.933-2.537,0-1.329.6-2.416,1.933-2.416h12.324V571.992c0-1.571,1.328-2.175,2.779-2.175,1.329,0,2.658.6,2.658,2.175v91.582c0,1.571-1.329,2.175-2.658,2.175-1.45,0-2.779-.6-2.779-2.175V632.281h-11.72c-1.329,0-1.933-1.087-1.933-2.537,0-1.329.6-2.417,1.933-2.417h11.72Zm20.3-37.937c0-1.571,1.329-2.175,2.658-2.175,1.45,0,2.779.6,2.779,2.175v97.865c0,1.571-1.329,2.175-2.779,2.175-1.329,0-2.658-.6-2.658-2.175Z" transform="translate(-664.474 -568.609)"/>
    <path id="패스_3105" data-name="패스 3105" d="M903.735,679.877c-5.558,0-7.37-1.691-7.37-7.129V651.6c0-5.437,1.812-7.128,7.37-7.128h8.7V628.044H883.2c-1.208,0-1.812-1.087-1.812-2.416s.6-2.416,1.812-2.416h96.416c1.208,0,1.812,1.087,1.812,2.416s-.6,2.416-1.812,2.416H950.372v16.432h8.7c5.558,0,7.37,1.691,7.37,7.128v21.144c0,5.437-1.813,7.129-7.37,7.129Zm-7.008-87.112c0-12.807,12.2-19.211,34.676-19.211s34.675,6.4,34.675,19.211-12.2,19.211-34.675,19.211S896.728,605.571,896.728,592.765ZM901.8,673.11c0,1.45.6,1.933,2.054,1.933H958.95c1.45,0,2.054-.483,2.054-1.933V651.242c0-1.45-.6-1.933-2.054-1.933H903.856c-1.45,0-2.054.483-2.054,1.933Zm.362-80.346c0,9.424,9.786,14.5,29.239,14.5s29.238-5.075,29.238-14.5-9.787-14.5-29.238-14.5S902.164,583.341,902.164,592.765Zm15.586,51.711h27.306V628.044H917.75Z" transform="translate(-770.107 -571.017)"/>
  </g>
  <g id="그룹_2020" data-name="그룹 2020" transform="translate(0)">
    <path id="패스_3106" data-name="패스 3106" d="M386.735,704.435a.946.946,0,0,1-.127-.134c-.094-.122-.293-.369-.585-.687-2.5-2.82-4.914-3.744-7.044-3.7-2.13-.044-4.546.881-7.044,3.7-.291.319-.491.566-.585.687a.955.955,0,0,1-.127.134c-.716.623-6.9,6.827,6.93,25.15a1.036,1.036,0,0,0,1.651,0C393.632,711.262,387.451,705.058,386.735,704.435Z" transform="translate(-265.77 -613.365)" fill="#cb8d3f"/>
    <g id="그룹_2014" data-name="그룹 2014" transform="translate(30 25.472)">
      <g id="그룹_2013" data-name="그룹 2013">
        <path id="패스_3107" data-name="패스 3107" d="M305.745,620.71a39.856,39.856,0,1,1-39.859-39.85A39.9,39.9,0,0,1,305.745,620.71Zm-39.853,34.026a34.022,34.022,0,1,0-34.027-34.021A34.061,34.061,0,0,0,265.892,654.737Z" transform="translate(-226.033 -580.86)"/>
        <path id="패스_3108" data-name="패스 3108" d="M305.449,626.25a34.024,34.024,0,1,1-34.027-34.02A34.06,34.06,0,0,1,305.449,626.25Z" transform="translate(-231.57 -586.397)" fill="#fff"/>
      </g>
    </g>
    <circle id="타원_146" data-name="타원 146" cx="12.313" cy="12.313" r="12.313" transform="translate(64.894 50.412)"/>
    <circle id="타원_147" data-name="타원 147" cx="4.691" cy="4.691" r="4.691" transform="matrix(0.383, -0.924, 0.924, 0.383, 74.712, 62.118)" fill="#fff"/>
    <g id="그룹_2015" data-name="그룹 2015" transform="translate(27.028 1.938)">
      <path id="패스_3109" data-name="패스 3109" d="M298.449,579.719s-5.315-23.589-45.236-27.734c0,0-16.72-1.813-32.793-16.977,0,0-3.792,16.575,23.25,28.57C243.671,563.579,276.8,549.133,298.449,579.719Z" transform="translate(-220.239 -534.997)" fill="#3b2722"/>
      <path id="패스_3110" data-name="패스 3110" d="M404.022,579.706s5.312-23.589,45.231-27.739c0,0,16.72-1.816,32.791-16.982,0,0,3.794,16.575-23.246,28.573C458.8,563.558,425.664,549.117,404.022,579.706Z" transform="translate(-309.74 -534.985)" fill="#3b2722"/>
    </g>
    <g id="그룹_2018" data-name="그룹 2018" transform="translate(116.84 25.466)">
      <g id="그룹_2017" data-name="그룹 2017">
        <g id="그룹_2016" data-name="그룹 2016">
          <path id="패스_3111" data-name="패스 3111" d="M475.017,620.7a39.854,39.854,0,1,1-39.856-39.85A39.9,39.9,0,0,1,475.017,620.7Zm-39.85,34.027a34.022,34.022,0,1,0-34.026-34.021A34.061,34.061,0,0,0,435.167,654.726Z" transform="translate(-395.308 -580.849)"/>
          <path id="패스_3112" data-name="패스 3112" d="M474.721,626.236A34.022,34.022,0,1,1,440.7,592.218,34.06,34.06,0,0,1,474.721,626.236Zm-41.585,9.723a12.314,12.314,0,1,0-12.315-12.313A12.316,12.316,0,0,0,433.136,635.959Z" transform="translate(-400.845 -586.386)" fill="#fff"/>
          <path id="패스_3113" data-name="패스 3113" d="M458.874,641.787a12.314,12.314,0,1,1-12.315-12.312A12.316,12.316,0,0,1,458.874,641.787Zm-15.949,1.548a4.692,4.692,0,1,0-4.692-4.692A4.694,4.694,0,0,0,442.926,643.335Z" transform="translate(-414.271 -604.529)"/>
          <path id="패스_3114" data-name="패스 3114" d="M451.4,642.893a4.692,4.692,0,1,1-4.692-4.692A4.694,4.694,0,0,1,451.4,642.893Z" transform="translate(-418.055 -608.779)" fill="#fff"/>
        </g>
      </g>
    </g>
    <path id="패스_3115" data-name="패스 3115" d="M348.166,580.365a48.942,48.942,0,0,1,40.9-32.457,1.693,1.693,0,0,0,.847-3.029c-11.095-8.446-26.422-13.672-43.354-13.67s-32.259,5.229-43.352,13.676a1.693,1.693,0,0,0,.848,3.029,48.944,48.944,0,0,1,40.909,32.451A1.692,1.692,0,0,0,348.166,580.365Z" transform="translate(-233.293 -531.208)" fill="#785840"/>
    <g id="그룹_2019" data-name="그룹 2019" transform="translate(0 96.733)">
      <path id="패스_3116" data-name="패스 3116" d="M392.482,719.878a2.277,2.277,0,0,0-.983-.074c-5.389,1.857-30.2,3.615-91.791,48.2a1.076,1.076,0,0,0-.085.131,1.1,1.1,0,0,0-.085-.131c-61.593-44.58-86.4-46.339-91.791-48.2a2.278,2.278,0,0,0-.983.074s-.738.485-.7.87l1.234,11.214a2.262,2.262,0,0,0,1.816,1.973c8.125,1.593,45.254,10.447,89.116,35.558a2.668,2.668,0,0,1,2.779,0c43.862-25.112,80.99-33.965,89.116-35.558a2.262,2.262,0,0,0,1.816-1.973l1.234-11.214C393.22,720.363,392.482,719.878,392.482,719.878Z" transform="translate(-186.309 -719.768)" fill="url(#radial-gradient)"/>
      <path id="패스_3117" data-name="패스 3117" d="M392.594,743.96c-45.617,4.619-90.383,29.413-102.785,36.746l-.015.011-.015-.011c-12.4-7.334-57.168-32.128-102.785-36.746a1.012,1.012,0,0,0-1.086,1.228l3.008,13.537a1.012,1.012,0,0,0,1.01.792c5.288-.105,36.171.363,99.5,21.953a1.593,1.593,0,0,1,.737,0c63.329-21.59,94.213-22.058,99.5-21.953a1.012,1.012,0,0,0,1.01-.792l3.008-13.537A1.012,1.012,0,0,0,392.594,743.96Z" transform="translate(-176.48 -731.547)" fill="url(#radial-gradient-2)"/>
      <path id="패스_3118" data-name="패스 3118" d="M393.285,774.44c-35.885-4.356-96.264,15.746-112.328,21.409a.111.111,0,0,1-.177,0c-16.064-5.663-76.443-25.765-112.328-21.409a1.014,1.014,0,0,0-.86,1.274l3.46,12.542a1.01,1.01,0,0,0,1.05.74c6.08-.463,45.383-2.826,108.485,7.593a.712.712,0,0,1,.563,0c62.534-10.325,101.825-8.1,108.485-7.593a1.01,1.01,0,0,0,1.05-.74l3.46-12.542A1.013,1.013,0,0,0,393.285,774.44Z" transform="translate(-167.554 -746.095)" fill="url(#radial-gradient-3)"/>
    </g>
  </g>
</svg>
