<svg xmlns="http://www.w3.org/2000/svg" xmlns:xlink="http://www.w3.org/1999/xlink" width="171.944" height="166.434" viewBox="0 0 171.944 166.434">
  <defs>
    <radialGradient id="radial-gradient" cx="0.5" cy="0.5" r="1.373" gradientTransform="translate(0.367) scale(0.267 1)" gradientUnits="objectBoundingBox">
      <stop offset="0.005" stop-color="#f2ffe9"/>
      <stop offset="0.5" stop-color="#86a789"/>
      <stop offset="1" stop-color="#43766c"/>
    </radialGradient>
    <radialGradient id="radial-gradient-2" cx="0.5" cy="0.5" r="1.989" gradientTransform="translate(0.41) scale(0.181 1)" gradientUnits="objectBoundingBox">
      <stop offset="0.005" stop-color="#fff5e0"/>
      <stop offset="0.5" stop-color="#f1e4c3"/>
      <stop offset="1" stop-color="#edc181"/>
    </radialGradient>
    <radialGradient id="radial-gradient-3" cx="0.5" cy="0.5" r="3.537" gradientTransform="translate(0.45) scale(0.1 1)" gradientUnits="objectBoundingBox">
      <stop offset="0" stop-color="#a5a48b"/>
      <stop offset="0.516" stop-color="#99926d"/>
      <stop offset="1" stop-color="#76453b"/>
    </radialGradient>
  </defs>
  <g id="그룹_2098" data-name="그룹 2098" transform="translate(-2324.944 -505.288)">
    <g id="그룹_2078" data-name="그룹 2078" transform="translate(2324.944 633.407)">
      <path id="패스_3209" data-name="패스 3209" d="M2496.9,766.206a1.727,1.727,0,0,0-.746-.056c-4.089,1.409-22.911,2.743-69.642,36.567a.891.891,0,0,0-.064.1.773.773,0,0,0-.064-.1c-46.731-33.823-65.553-35.157-69.642-36.567a1.728,1.728,0,0,0-.747.056s-.56.368-.528.661l.937,8.508a1.716,1.716,0,0,0,1.377,1.5c6.165,1.209,34.334,7.926,67.612,26.978a2.027,2.027,0,0,1,2.108,0c33.278-19.052,61.447-25.769,67.613-26.978a1.716,1.716,0,0,0,1.377-1.5l.936-8.508C2497.456,766.574,2496.9,766.206,2496.9,766.206Z" transform="translate(-2340.472 -766.123)" fill="url(#radial-gradient)"/>
      <path id="패스_3210" data-name="패스 3210" d="M2496.3,785.293c-34.61,3.5-68.574,22.316-77.983,27.879l-.012.009-.012-.009c-9.41-5.564-43.374-24.375-77.983-27.879a.768.768,0,0,0-.824.931l2.282,10.271a.768.768,0,0,0,.766.6c4.012-.08,27.444.275,75.492,16.656a1.222,1.222,0,0,1,.559,0c48.048-16.381,71.48-16.736,75.491-16.656a.767.767,0,0,0,.766-.6l2.282-10.271A.768.768,0,0,0,2496.3,785.293Z" transform="translate(-2332.333 -775.875)" fill="url(#radial-gradient-2)"/>
      <path id="패스_3211" data-name="패스 3211" d="M2496.207,809.425c-27.226-3.305-73.036,11.947-85.224,16.243a.322.322,0,0,0-.067.033.33.33,0,0,0-.067-.033c-12.188-4.3-58-19.548-85.224-16.243a.769.769,0,0,0-.653.967l2.625,9.515a.766.766,0,0,0,.8.561c4.613-.351,34.433-2.144,82.309,5.761a.538.538,0,0,1,.427,0c47.445-7.833,77.255-6.145,82.309-5.761a.767.767,0,0,0,.8-.561l2.625-9.515A.769.769,0,0,0,2496.207,809.425Z" transform="translate(-2324.944 -787.919)" fill="url(#radial-gradient-3)"/>
    </g>
    <g id="그룹_2089" data-name="그룹 2089" transform="translate(2345.881 517.03)">
      <g id="그룹_2082" data-name="그룹 2082">
        <g id="그룹_2081" data-name="그룹 2081">
          <g id="그룹_2079" data-name="그룹 2079">
            <path id="패스_3212" data-name="패스 3212" d="M2586.961,592.31a74.517,74.517,0,0,1,11.177,39.57,73.157,73.157,0,0,1-21.535,52.461,74.787,74.787,0,0,1-6.8-12.974c-.246-.56-.436-1.144-.652-1.712l-.317-.861c-.106-.285-.212-.571-.3-.863l-.56-1.739-.142-.436-.124-.438-.243-.881c-.347-1.166-.606-2.354-.89-3.534-.126-.593-.239-1.188-.356-1.783s-.219-1.191-.314-1.788c-.208-1.193-.339-2.4-.482-3.593l-.16-1.8c-.051-.6-.068-1.2-.106-1.806a63.852,63.852,0,0,1,.075-7.2,60.655,60.655,0,0,1,.9-7.1c.228-1.164.48-2.319.777-3.456.15-.567.307-1.129.478-1.682.087-.274.173-.551.263-.816.044-.137.091-.266.137-.394l.069-.188c.022-.059.049-.128.062-.155l-2.412-.841v0C2565.619,627.375,2568.236,607.9,2586.961,592.31Z" transform="translate(-2468.07 -561.308)" fill="#785840"/>
            <path id="패스_3213" data-name="패스 3213" d="M2444.182,529.194c22.4,0,42.162,12.292,53.858,31-18.725,15.587-21.343,35.065-21.458,36l-2.423-.845c-.038.119-.06.2-.084.285l-.069.254c-.044.166-.086.332-.124.491-.082.328-.153.648-.224.969-.137.641-.257,1.279-.369,1.919-.217,1.274-.381,2.549-.518,3.823a65.03,65.03,0,0,0-.3,7.642,66.313,66.313,0,0,0,.578,7.578c.093.626.166,1.255.274,1.876l.328,1.863c.256,1.237.5,2.472.825,3.688.15.611.3,1.219.484,1.821s.345,1.208.526,1.808c.4,1.193.77,2.388,1.228,3.554l.33.878.166.44.182.432.728,1.728c.117.287.25.571.383.852l.4.847c.27.562.515,1.135.814,1.684a75.425,75.425,0,0,0,7.963,12.452,61.294,61.294,0,0,1-86.936.053,75.474,75.474,0,0,0,8-12.505c.3-.549.544-1.122.814-1.684l.4-.847c.133-.281.268-.564.382-.852l.728-1.728.181-.432.166-.44.33-.878c.458-1.166.83-2.361,1.228-3.554.184-.6.352-1.2.527-1.808s.334-1.21.485-1.821c.323-1.217.569-2.452.825-3.688l.328-1.863c.108-.621.184-1.25.274-1.876a66.647,66.647,0,0,0,.578-7.578,64.979,64.979,0,0,0-.3-7.642c-.135-1.274-.3-2.549-.518-3.823-.113-.64-.232-1.277-.369-1.919-.071-.321-.141-.642-.223-.969-.038-.159-.08-.325-.124-.491l-.069-.254c-.024-.086-.046-.166-.082-.285l-2.518.878c-.031-.263-2.4-20.163-21.462-36.029C2402.022,541.486,2421.777,529.194,2444.182,529.194Z" transform="translate(-2379.148 -529.194)" fill="#ccc5be"/>
            <path id="패스_3214" data-name="패스 3214" d="M2588.527,779.674l.038.057c-.013-.018-.029-.035-.042-.053C2588.525,779.676,2588.527,779.676,2588.527,779.674Z" transform="translate(-2479.993 -656.641)"/>
            <path id="패스_3215" data-name="패스 3215" d="M2561.662,664.72l2.412.841c-.013.027-.04.1-.062.155l-.069.188c-.046.128-.093.257-.137.394-.091.266-.177.542-.263.816-.17.553-.328,1.115-.478,1.682-.3,1.137-.549,2.292-.776,3.456a60.6,60.6,0,0,0-.9,7.1,63.91,63.91,0,0,0-.075,7.2c.038.6.056,1.2.106,1.806l.16,1.8c.144,1.2.274,2.4.482,3.593.095.6.186,1.2.314,1.788s.23,1.19.356,1.783c.283,1.179.542,2.367.89,3.534l.244.881.124.438.141.436.56,1.739c.088.292.194.577.3.863l.317.861c.217.568.407,1.152.652,1.712a74.771,74.771,0,0,0,6.8,12.974s0,0,0,0a75.42,75.42,0,0,1-7.963-12.452c-.3-.549-.545-1.122-.814-1.684l-.4-.847c-.132-.281-.265-.564-.382-.852l-.728-1.728-.182-.432-.165-.44-.33-.878c-.458-1.166-.83-2.361-1.228-3.554-.181-.6-.352-1.2-.527-1.808s-.334-1.21-.484-1.821c-.323-1.217-.569-2.452-.825-3.688l-.327-1.863c-.109-.621-.182-1.25-.274-1.876a66.425,66.425,0,0,1-.578-7.578,65.135,65.135,0,0,1,.3-7.642c.137-1.274.3-2.549.518-3.823.113-.64.232-1.277.369-1.919.071-.321.141-.642.223-.969.038-.159.08-.325.124-.491l.069-.254c.024-.086.046-.166.084-.285l2.422.845Z" transform="translate(-2464.228 -597.72)"/>
            <path id="패스_3216" data-name="패스 3216" d="M2426.481,671.615a64.924,64.924,0,0,1,.3,7.642,66.536,66.536,0,0,1-.577,7.578c-.091.626-.166,1.255-.274,1.876l-.328,1.863c-.256,1.237-.5,2.472-.825,3.688-.15.611-.3,1.219-.485,1.821s-.343,1.208-.526,1.808c-.4,1.193-.77,2.388-1.228,3.554l-.33.878-.166.44-.181.432-.728,1.728c-.115.287-.25.571-.383.852l-.4.847c-.27.562-.516,1.135-.814,1.684a75.505,75.505,0,0,1-8.005,12.505,74.893,74.893,0,0,0,6.839-13.032c.246-.56.436-1.144.653-1.712l.316-.861c.107-.285.213-.571.3-.863l.562-1.739.139-.436.124-.438.246-.881c.345-1.166.6-2.354.887-3.534.126-.593.239-1.188.358-1.783s.217-1.191.312-1.788c.208-1.193.338-2.4.482-3.593l.16-1.8c.051-.6.068-1.2.106-1.806a63.623,63.623,0,0,0-.075-7.2,61.125,61.125,0,0,0-.9-7.1c-.228-1.164-.482-2.319-.779-3.456-.151-.567-.307-1.129-.478-1.682-.086-.274-.17-.551-.263-.816-.044-.137-.091-.266-.137-.394l-.068-.188c-.022-.059-.049-.128-.06-.155l2.317-.807v0l2.518-.878c.035.119.057.2.082.285l.069.254c.044.166.086.332.124.491.082.328.153.648.224.969.137.641.257,1.279.369,1.919C2426.18,669.066,2426.346,670.34,2426.481,671.615Z" transform="translate(-2389.938 -597.72)"/>
            <path id="패스_3217" data-name="패스 3217" d="M2400.574,642.935a63.566,63.566,0,0,1,.075,7.2c-.038.6-.055,1.2-.106,1.806l-.16,1.8c-.144,1.2-.274,2.4-.482,3.593-.095.6-.186,1.2-.312,1.788s-.232,1.19-.359,1.783c-.283,1.179-.542,2.367-.887,3.534l-.246.881-.124.438-.139.436-.562,1.739c-.088.292-.195.577-.3.863l-.316.861c-.217.568-.407,1.152-.653,1.712a74.876,74.876,0,0,1-6.839,13.032,73.158,73.158,0,0,1-21.594-52.519,74.511,74.511,0,0,1,11.178-39.57c19.059,15.866,21.431,35.766,21.461,36.029v0l-2.316.807c.011.027.038.1.06.155l.068.188c.047.128.094.257.137.394.093.266.177.542.263.816.171.553.327,1.115.478,1.682.3,1.137.551,2.292.779,3.456A61.072,61.072,0,0,1,2400.574,642.935Z" transform="translate(-2367.569 -561.308)" fill="#785840"/>
          </g>
          <g id="그룹_2080" data-name="그룹 2080" transform="translate(11.178 31.002)">
            <path id="패스_3218" data-name="패스 3218" d="M2411.788,628.339c-.031-.263-2.4-20.163-21.462-36.029" transform="translate(-2390.326 -592.31)" fill="none" stroke="#000" stroke-miterlimit="10" stroke-width="1"/>
            <path id="패스_3219" data-name="패스 3219" d="M2565.924,665.631a.332.332,0,0,0,0-.033" transform="translate(-2479.672 -629.6)" fill="none" stroke="#000" stroke-miterlimit="10" stroke-width="1"/>
          </g>
        </g>
      </g>
      <g id="그룹_2087" data-name="그룹 2087" transform="translate(2.997 67.68)">
        <g id="그룹_2083" data-name="그룹 2083">
          <path id="패스_3220" data-name="패스 3220" d="M2399.854,680.321c.809.918,1.554,1.776,2.342,2.517a10.022,10.022,0,0,0,2.45,1.794,7.535,7.535,0,0,0,1.337.509,8.5,8.5,0,0,0,1.463.239,22.9,22.9,0,0,0,3.381-.144l.1.2a6.138,6.138,0,0,1-7.337,1.28,7.221,7.221,0,0,1-2.859-2.729,8.082,8.082,0,0,1-.779-1.734,6.224,6.224,0,0,1-.306-1.859Z" transform="translate(-2386.886 -673.769)"/>
          <path id="패스_3221" data-name="패스 3221" d="M2383.7,696.526c.808.918,1.554,1.775,2.342,2.517a10.022,10.022,0,0,0,2.45,1.794,7.479,7.479,0,0,0,1.337.509,8.472,8.472,0,0,0,1.463.239,22.943,22.943,0,0,0,3.381-.144l.1.2a6.137,6.137,0,0,1-7.337,1.28,7.222,7.222,0,0,1-2.859-2.729,8.13,8.13,0,0,1-.779-1.734,6.231,6.231,0,0,1-.306-1.86Z" transform="translate(-2378.666 -682.015)"/>
          <path id="패스_3222" data-name="패스 3222" d="M2373.879,666.983c.809.918,1.554,1.775,2.342,2.517a10.019,10.019,0,0,0,2.45,1.795,7.512,7.512,0,0,0,1.337.509,8.456,8.456,0,0,0,1.463.239,22.957,22.957,0,0,0,3.381-.144l.1.2a6.138,6.138,0,0,1-7.337,1.28,7.224,7.224,0,0,1-2.859-2.729,8.144,8.144,0,0,1-.779-1.735,6.213,6.213,0,0,1-.305-1.859Z" transform="translate(-2373.67 -666.983)"/>
        </g>
        <g id="그룹_2084" data-name="그룹 2084" transform="translate(100.037)">
          <path id="패스_3223" data-name="패스 3223" d="M2588.613,680.393a6.216,6.216,0,0,1-.306,1.859,8.115,8.115,0,0,1-.778,1.734,7.22,7.22,0,0,1-2.86,2.729,6.186,6.186,0,0,1-7.336-1.28l.1-.2a22.9,22.9,0,0,0,3.381.144,8.513,8.513,0,0,0,1.463-.239,7.518,7.518,0,0,0,1.337-.509,10.036,10.036,0,0,0,2.45-1.794c.788-.742,1.533-1.6,2.342-2.517Z" transform="translate(-2577.333 -673.769)"/>
          <path id="패스_3224" data-name="패스 3224" d="M2604.769,696.6a6.216,6.216,0,0,1-.306,1.86,8.094,8.094,0,0,1-.779,1.734,7.221,7.221,0,0,1-2.859,2.729,6.187,6.187,0,0,1-7.337-1.28l.1-.2a22.938,22.938,0,0,0,3.381.144,8.475,8.475,0,0,0,1.464-.239,7.5,7.5,0,0,0,1.336-.509,10.028,10.028,0,0,0,2.45-1.794c.788-.742,1.534-1.6,2.342-2.517Z" transform="translate(-2585.553 -682.015)"/>
          <path id="패스_3225" data-name="패스 3225" d="M2614.589,667.054a6.206,6.206,0,0,1-.306,1.859,8.106,8.106,0,0,1-.778,1.735,7.225,7.225,0,0,1-2.86,2.729,6.186,6.186,0,0,1-7.336-1.28l.1-.2a22.956,22.956,0,0,0,3.38.144,8.468,8.468,0,0,0,1.464-.239,7.512,7.512,0,0,0,1.337-.509,10.047,10.047,0,0,0,2.45-1.795c.788-.742,1.533-1.6,2.342-2.517Z" transform="translate(-2590.55 -666.983)"/>
        </g>
        <g id="그룹_2086" data-name="그룹 2086" transform="translate(34.321 17.937)">
          <path id="패스_3226" data-name="패스 3226" d="M2460.3,741.252a37.125,37.125,0,0,0,4.142,1.6,15.6,15.6,0,0,0,4.06.751c.168.01.335.009.5.008a4.586,4.586,0,0,0,.5-.013c.166-.016.334-.008.5-.03l.5-.056a13.373,13.373,0,0,0,1.98-.442,23.871,23.871,0,0,0,3.986-1.815l.157.156a8.762,8.762,0,0,1-3.371,3.4,9.429,9.429,0,0,1-2.338.907,9.584,9.584,0,0,1-2.514.217,10.7,10.7,0,0,1-4.7-1.373,11.846,11.846,0,0,1-1.961-1.375,8.863,8.863,0,0,1-1.586-1.771Z" transform="translate(-2451.995 -722.709)"/>
          <g id="그룹_2085" data-name="그룹 2085">
            <path id="패스_3227" data-name="패스 3227" d="M2482.817,703.5a37.144,37.144,0,0,0,4.142,1.6,15.574,15.574,0,0,0,4.06.75c.168.011.335.009.5.009a4.58,4.58,0,0,0,.5-.013c.166-.016.334-.008.5-.03l.5-.056a13.455,13.455,0,0,0,1.98-.442,23.819,23.819,0,0,0,3.985-1.815l.157.156a8.765,8.765,0,0,1-3.371,3.4,9.453,9.453,0,0,1-2.338.907,9.581,9.581,0,0,1-2.514.217,10.7,10.7,0,0,1-4.7-1.373,11.855,11.855,0,0,1-1.962-1.375,8.865,8.865,0,0,1-1.585-1.771Z" transform="translate(-2463.451 -703.5)"/>
            <path id="패스_3228" data-name="패스 3228" d="M2443.691,703.5a37.217,37.217,0,0,0,4.142,1.6,15.577,15.577,0,0,0,4.06.75c.168.011.335.009.5.009a4.591,4.591,0,0,0,.5-.013c.166-.016.334-.008.5-.03l.5-.056a13.462,13.462,0,0,0,1.98-.442,23.819,23.819,0,0,0,3.985-1.815l.157.156a8.761,8.761,0,0,1-3.371,3.4,9.446,9.446,0,0,1-2.338.907,9.581,9.581,0,0,1-2.514.217,10.7,10.7,0,0,1-4.7-1.373,11.872,11.872,0,0,1-1.961-1.375,8.85,8.85,0,0,1-1.585-1.771Z" transform="translate(-2443.543 -703.5)"/>
            <path id="패스_3229" data-name="패스 3229" d="M2505.679,741.252a37.169,37.169,0,0,0,4.142,1.6,15.592,15.592,0,0,0,4.06.751c.168.01.335.009.5.008a4.589,4.589,0,0,0,.5-.013c.166-.016.334-.008.5-.03l.5-.056a13.393,13.393,0,0,0,1.98-.442,23.849,23.849,0,0,0,3.986-1.815l.157.156a8.759,8.759,0,0,1-3.37,3.4,9.434,9.434,0,0,1-2.338.907,9.584,9.584,0,0,1-2.514.217,10.7,10.7,0,0,1-4.7-1.373,11.846,11.846,0,0,1-1.961-1.375,8.848,8.848,0,0,1-1.586-1.771Z" transform="translate(-2475.083 -722.709)"/>
            <path id="패스_3230" data-name="패스 3230" d="M2522.292,703.5a37.125,37.125,0,0,0,4.142,1.6,15.572,15.572,0,0,0,4.06.75c.168.011.335.009.5.009a4.589,4.589,0,0,0,.5-.013c.166-.016.334-.008.5-.03l.5-.056a13.428,13.428,0,0,0,1.98-.442,23.834,23.834,0,0,0,3.986-1.815l.157.156a8.771,8.771,0,0,1-3.371,3.4,9.451,9.451,0,0,1-2.339.907,9.581,9.581,0,0,1-2.514.217,10.7,10.7,0,0,1-4.7-1.373,11.851,11.851,0,0,1-1.961-1.375,8.857,8.857,0,0,1-1.585-1.771Z" transform="translate(-2483.536 -703.5)"/>
          </g>
        </g>
      </g>
      <g id="그룹_2088" data-name="그룹 2088" transform="translate(38.142 131.204)">
        <path id="패스_3231" data-name="패스 3231" d="M2459.283,796.309a2.812,2.812,0,1,1-5.625,0h0a2.813,2.813,0,1,1-5.625,0h0a2.82,2.82,0,0,0-2.812,2.813v7.141a2.82,2.82,0,0,0,2.812,2.812h0a2.813,2.813,0,0,1,5.625,0h0a2.812,2.812,0,0,1,5.625,0,2.82,2.82,0,0,0,2.813-2.812v-7.141A2.82,2.82,0,0,0,2459.283,796.309Z" transform="translate(-2445.221 -796.309)" fill="#cb8d3f"/>
        <path id="패스_3232" data-name="패스 3232" d="M2534.43,796.309h0a2.812,2.812,0,1,1-5.625,0h0a2.813,2.813,0,1,1-5.625,0,2.821,2.821,0,0,0-2.813,2.813v7.141a6.289,6.289,0,0,1,8.438,2.812h0a2.812,2.812,0,0,1,5.625,0h0a2.82,2.82,0,0,0,2.813-2.812v-7.141A2.821,2.821,0,0,0,2534.43,796.309Z" transform="translate(-2483.457 -796.309)" fill="#cb8d3f"/>
      </g>
    </g>
    <g id="그룹_2097" data-name="그룹 2097" transform="translate(2345.381 505.288)">
      <path id="패스_3233" data-name="패스 3233" d="M2498.792,522.159c-15.9-15.121-39.319-14.742-39.723-14.734s-23.827-.387-39.723,14.734l15.937,23.426,23.669,13.049v.129l.117-.065.118.065v-.129l23.669-13.049Z" transform="translate(-2393.414 -506.374)" fill="#ccc5be"/>
      <g id="그룹_2096" data-name="그룹 2096" transform="translate(0 0)">
        <path id="패스_3234" data-name="패스 3234" d="M2497.895,643.754a.689.689,0,0,1-.1-.1c-.072-.092-.223-.28-.444-.521-1.895-2.139-3.728-2.841-5.344-2.808-1.615-.033-3.449.669-5.344,2.808-.221.242-.372.429-.444.521a.73.73,0,0,1-.1.1c-.543.472-5.233,5.179,5.257,19.081a.786.786,0,0,0,1.253,0C2503.127,648.933,2498.438,644.226,2497.895,643.754Z" transform="translate(-2426.624 -573.995)" fill="#cb8d3f"/>
        <g id="그룹_2090" data-name="그룹 2090" transform="translate(0 2.134)">
          <path id="패스_3235" data-name="패스 3235" d="M2425.891,543.573s-4.033-17.9-34.321-21.042c0,0-12.686-1.376-24.88-12.88,0,0-2.877,12.575,17.64,21.676C2384.33,531.328,2409.467,520.367,2425.891,543.573Z" transform="translate(-2366.552 -509.643)" fill="#3b2722"/>
          <path id="패스_3236" data-name="패스 3236" d="M2512.182,543.563s4.031-17.9,34.318-21.047c0,0,12.685-1.377,24.878-12.883,0,0,2.879,12.575-17.636,21.678C2553.741,531.311,2528.6,520.355,2512.182,543.563Z" transform="translate(-2440.65 -509.633)" fill="#3b2722"/>
        </g>
        <g id="그룹_2092" data-name="그룹 2092" transform="translate(68.14 19.985)">
          <g id="그룹_2091" data-name="그룹 2091">
            <path id="패스_3237" data-name="패스 3237" d="M2565.753,576.21a30.238,30.238,0,1,1-30.239-30.235A30.271,30.271,0,0,1,2565.753,576.21Zm-30.234,25.816a25.813,25.813,0,1,0-25.816-25.812A25.842,25.842,0,0,0,2535.519,602.026Z" transform="translate(-2505.277 -545.975)"/>
            <path id="패스_3238" data-name="패스 3238" d="M2565.911,580.794a25.813,25.813,0,1,1-25.813-25.81A25.842,25.842,0,0,1,2565.911,580.794Zm-31.551,7.377a9.342,9.342,0,1,0-9.343-9.341A9.344,9.344,0,0,0,2534.36,588.17Z" transform="translate(-2509.861 -550.559)" fill="#fff"/>
            <path id="패스_3239" data-name="패스 3239" d="M2554.818,593.848a9.342,9.342,0,1,1-9.344-9.341A9.344,9.344,0,0,1,2554.818,593.848Zm-12.1,1.175a3.56,3.56,0,1,0-3.56-3.56A3.562,3.562,0,0,0,2542.717,595.023Z" transform="translate(-2520.977 -565.581)"/>
            <path id="패스_3240" data-name="패스 3240" d="M2549.411,594.981a3.56,3.56,0,1,1-3.56-3.56A3.562,3.562,0,0,1,2549.411,594.981Z" transform="translate(-2524.11 -569.098)" fill="#fff"/>
          </g>
        </g>
        <path id="패스_3241" data-name="패스 3241" d="M2464.02,543.247c4.971-13.26,17.775-23.081,33.233-24.625a1.266,1.266,0,0,0,.688-2.3,61.716,61.716,0,0,0-70.444,0,1.266,1.266,0,0,0,.689,2.3c15.458,1.541,28.263,11.361,33.236,24.62A1.408,1.408,0,0,0,2464.02,543.247Z" transform="translate(-2397.285 -505.288)" fill="#785840"/>
        <g id="그룹_2095" data-name="그룹 2095" transform="translate(2.255 19.989)">
          <g id="그룹_2094" data-name="그룹 2094">
            <g id="그룹_2093" data-name="그룹 2093">
              <path id="패스_3242" data-name="패스 3242" d="M2431.621,576.219a30.239,30.239,0,1,1-30.241-30.235A30.275,30.275,0,0,1,2431.621,576.219Zm-30.237,25.816a25.813,25.813,0,1,0-25.816-25.812A25.842,25.842,0,0,0,2401.384,602.035Z" transform="translate(-2371.143 -545.984)"/>
              <path id="패스_3243" data-name="패스 3243" d="M2431.779,580.8a25.814,25.814,0,1,1-25.816-25.812A25.842,25.842,0,0,1,2431.779,580.8Z" transform="translate(-2375.727 -550.568)" fill="#fff"/>
            </g>
          </g>
          <circle id="타원_148" data-name="타원 148" cx="9.342" cy="9.342" r="9.342" transform="translate(26.474 18.922)"/>
          <circle id="타원_149" data-name="타원 149" cx="3.559" cy="3.559" r="3.559" transform="translate(33.923 27.804) rotate(-67.496)" fill="#fff"/>
        </g>
      </g>
    </g>
  </g>
</svg>
