<?xml version="1.0" encoding="utf-8"?>
<!-- Generator: Adobe Illustrator 22.1.0, SVG Export Plug-In . SVG Version: 6.00 Build 0)  -->
<svg version="1.1" id="Layer_1" xmlns="http://www.w3.org/2000/svg" xmlns:xlink="http://www.w3.org/1999/xlink" x="0px" y="0px"
	 viewBox="0 0 458 458" style="enable-background:new 0 0 458 458;" xml:space="preserve">
<style type="text/css">
	.st0{fill:#62CCB0;}
	.st1{fill:#4DB594;}
	.st2{fill:#328469;}
	.st3{fill:#FFD3C0;}
	.st4{fill:#4C4C4C;}
	.st5{fill:#FFDDCC;}
	.st6{fill:#FF958D;}
	.st7{fill:#D66765;}
	.st8{fill:#932F2F;}
	.st9{fill:#F2BD68;}
	.st10{fill:#AF803C;}
	.st11{fill:#5B3E18;}
	.st12{fill:#FFFFFF;}
</style>
<g>
	<g>
		<g>
			<g>
				<path class="st0" d="M126.3,297.4c-29.4-12.9-62.9-12.9-92.3,0C21.1,303,12.1,315,10.3,328.9L0,408.9h160.2l-10.3-80
					C148.1,315,139.1,303,126.3,297.4z"/>
				<path class="st1" d="M18.6,309.3c-4.4,5.6-7.3,12.3-8.3,19.6L0,408.9h160.2l-3.5-27.4c-11.4,4.3-23.8,6.6-36.7,6.6
					C71.1,388.1,30.1,354.6,18.6,309.3L18.6,309.3z"/>
				<g>
					<path class="st2" d="M43,408.9l4.4-32.5c0.4-2.7-1.6-5.3-4.3-5.6c-2.7-0.4-5.3,1.6-5.6,4.3l-4.6,33.8H43z"/>
					<path class="st2" d="M117.2,408.9h10.1l-4.6-33.8c-0.4-2.7-2.9-4.7-5.6-4.3c-2.7,0.4-4.7,2.9-4.3,5.6L117.2,408.9z"/>
				</g>
			</g>
			<path class="st3" d="M80.1,321.9c-9,0-16.2-7.3-16.2-16.2v-54h32.5v54C96.4,314.6,89.1,321.9,80.1,321.9z"/>
		</g>
		<g>
			<path class="st4" d="M124.9,249.9c1.6-6.1,3.3-16.6-0.7-27.7c-9.5-26.3-45.4-39.8-58.7-30.2c-7,5-9.1,17.7-10.8,17.1
				c-1.4-0.4,1-8.5-1-9.6c-2.7-1.4-12.6,9.6-17.1,21.7c-3.9,10.4-3.4,20.8-1.7,29.3c4.5,11.9,11.1,17.3,14.9,19.7
				C68.3,282.3,99.6,275.1,124.9,249.9L124.9,249.9z"/>
			<path class="st5" d="M40.5,249.9c-6-0.8-12.8,3.3-12.8,10.6c0,5.9,4.6,10.7,10.4,10.7c0.4,0,0.9,0,1.3-0.1
				c4.6,18.8,21.1,32.6,40.8,32.6s36.2-13.9,40.8-32.6c0.4,0.1,0.8,0.1,1.3,0.1c5.7,0,10.4-4.8,10.4-10.7c0-5.7-4.4-10.4-9.9-10.7
				h-5.8c-5.8,0-10.8-4.1-11.8-9.8l-2.2-12l-15.3,9C73.3,245.3,57,249.8,40.5,249.9z"/>
		</g>
	</g>
	<g>
		<g>
			<g>
				<path class="st6" d="M424,297.4c-29.4-12.9-62.9-12.9-92.3,0c-12.9,5.6-21.9,17.6-23.6,31.5l-10.3,80H458l-10.3-80
					C445.9,315,436.9,303,424,297.4z"/>
				<path class="st7" d="M316.4,309.3c-4.4,5.6-7.3,12.3-8.3,19.6l-10.3,80H458l-3.5-27.4c-11.4,4.3-23.8,6.6-36.7,6.6
					C368.9,388.1,327.8,354.6,316.4,309.3L316.4,309.3z"/>
				<g>
					<path class="st8" d="M340.8,408.9l4.4-32.5c0.4-2.7-1.6-5.3-4.3-5.6c-2.7-0.4-5.3,1.6-5.6,4.3l-4.6,33.8H340.8z"/>
					<path class="st8" d="M415,408.9h10.1l-4.6-33.8c-0.4-2.7-2.9-4.7-5.6-4.3c-2.7,0.4-4.7,2.9-4.3,5.6L415,408.9z"/>
				</g>
			</g>
			<path class="st3" d="M377.9,321.9c-9,0-16.2-7.3-16.2-16.2v-54h32.5v54C394.1,314.6,386.9,321.9,377.9,321.9L377.9,321.9z"/>
		</g>
		<g>
			<path class="st4" d="M422.6,249.9c1.6-6.1,3.3-16.6-0.7-27.7c-9.5-26.3-45.4-39.8-58.7-30.2c-7,5-9.1,17.7-10.8,17.1
				c-1.4-0.4,1-8.5-1-9.6c-2.7-1.4-12.6,9.6-17.1,21.7c-3.9,10.4-3.4,20.8-1.7,29.3c4.5,11.9,11.1,17.3,14.9,19.7
				C366.1,282.3,397.3,275.1,422.6,249.9L422.6,249.9z"/>
			<path class="st5" d="M417.5,249.9c6-0.8,12.8,3.3,12.8,10.6c0,5.9-4.6,10.7-10.4,10.7c-0.4,0-0.9,0-1.3-0.1
				c-4.6,18.8-21.1,32.6-40.8,32.6c-19.7,0-36.2-13.9-40.8-32.6c-0.4,0.1-0.8,0.1-1.3,0.1c-5.7,0-10.4-4.8-10.4-10.7
				c0-5.7,4.4-10.4,9.9-10.7l39.6,0.1c11.2,0,20.3-9,20.3-20.1L417.5,249.9z"/>
		</g>
	</g>
	<g>
		<g>
			<g>
				<path class="st9" d="M286.9,329.5c-36.9-16-78.8-16-115.8,0c-12.9,5.6-21.9,17.6-23.8,31.5L134.7,458h188.5l-12.6-96.9
					C308.8,347.1,299.8,335.1,286.9,329.5L286.9,329.5z"/>
				<path class="st10" d="M156.4,340.6c-4.8,5.7-8,12.8-9,20.5L134.7,458h188.5l-3.8-29c-15.8,8.7-33.9,13.7-53.3,13.7
					C208.1,442.8,160.4,397.7,156.4,340.6L156.4,340.6z"/>
				<g>
					<path class="st11" d="M179.5,458l5.2-38.1c0.4-2.7-1.5-5.3-4.3-5.6c-2.7-0.4-5.3,1.5-5.6,4.3l-5.4,39.5L179.5,458z"/>
					<path class="st11" d="M278.5,458h10.1l-5.4-39.5c-0.4-2.7-2.9-4.6-5.6-4.3c-2.7,0.4-4.7,2.9-4.3,5.6L278.5,458z"/>
				</g>
			</g>
			<path class="st3" d="M229,356.5c-10.6,0-19.1-8.6-19.1-19.1v-62.8h38.2v62.8C248.1,348,239.6,356.5,229,356.5z"/>
		</g>
		<g>
			<path class="st4" d="M281.7,271c1.9-7.1,3.9-19.4-0.9-32.3c-11.2-30.7-53.4-46.5-69-35.3c-8.2,5.9-10.7,20.6-12.7,20
				c-1.6-0.5,1.2-10-1.2-11.2c-3.1-1.6-14.8,11.2-20.1,25.3c-4.6,12.1-4.1,24.3-2,34.2c5.3,13.8,13.1,20.2,17.5,23
				C215.1,308.7,251.9,300.4,281.7,271L281.7,271z"/>
			<path class="st5" d="M182.3,270.9c-7.1-0.9-15,3.9-15,12.4c0,6.9,5.5,12.5,12.2,12.5c0.5,0,1,0,1.5-0.1
				c5.4,21.9,24.8,38.1,48,38.1s42.6-16.2,48-38.1c0.5,0.1,1,0.1,1.5,0.1c6.7,0,12.2-5.6,12.2-12.5c0-6.7-5.2-12.1-11.6-12.4h-12.6
				c-3.3,0-6-2.7-6-6V255c0-6.6-5.4-12-12-12H208c-6.6,0-12,5.4-12,12v10c0,3.3-2.7,6-6,6L182.3,270.9z"/>
			<path class="st4" d="M226.8,251.5c4.5-6.4,8.3-8.5,8.3-8.5l-11.8-5.3c-5.5,0-5.3,9.7-5.3,15.3c0,5.5,4.5,10,10,10h3.3
				C231.3,263,222.3,257.9,226.8,251.5z"/>
		</g>
	</g>
	<g>
		<path class="st0" d="M169,46.8h120v78.8h-44.3l-15.4,35.4l-15.5-35.4H169V46.8z"/>
		<path class="st1" d="M169,46.8h11v78.8h-11V46.8z"/>
		<path class="st12" d="M259,91h-60c-2.8,0-5-2.2-5-5s2.2-5,5-5h60c2.8,0,5,2.2,5,5S261.8,91,259,91z"/>
	</g>
	<g>
		<path class="st6" d="M338,0h120v78.8h-44.3l-15.4,35.4l-15.5-35.4H338V0z"/>
		<path class="st7" d="M338,0h11v78.8h-11V0z"/>
		<path class="st12" d="M428,44.2h-60c-2.8,0-5-2.2-5-5s2.2-5,5-5h60c2.8,0,5,2.2,5,5S430.8,44.2,428,44.2z"/>
	</g>
	<g>
		<path class="st6" d="M0,0h120v78.8H75.7l-15.4,35.4L44.8,78.8H0V0z"/>
		<path class="st7" d="M0,0h11v78.8H0V0z"/>
		<path class="st12" d="M90,44.2H30c-2.8,0-5-2.2-5-5s2.2-5,5-5h60c2.8,0,5,2.2,5,5S92.8,44.2,90,44.2z"/>
	</g>
</g>
</svg>
