<?xml version="1.0" encoding="utf-8"?>
<!-- Generator: Adobe Illustrator 22.1.0, SVG Export Plug-In . SVG Version: 6.00 Build 0)  -->
<svg version="1.1" id="Layer_1" xmlns="http://www.w3.org/2000/svg" xmlns:xlink="http://www.w3.org/1999/xlink" x="0px" y="0px"
	 viewBox="0 0 468 468" style="enable-background:new 0 0 468 468;" xml:space="preserve">
<style type="text/css">
	.st0{fill:#FFEAE6;}
	.st1{fill:#FFC1B3;}
	.st2{fill:#FFBF80;}
	.st3{fill:#FF9999;}
	.st4{fill:#8773DD;}
	.st5{fill:#FFFFFF;}
	.st6{fill:#E6FFFD;}
	.st7{fill:none;}
	.st8{fill:#FF8A8A;}
	.st9{fill:#DD6B6B;}
</style>
<g>
	<g>
		<path id="XMLID_28_" class="st0" d="M309.1,468v-23.3h20.4c30.9,0,56-24.7,56-55.2v-66.6h22c11.6,0,18.8-14.3,12.6-24.7
			c-6.3-10.9-14.4-26.1-21.6-41.9c-7.2-14.8-13.1-40.9-13.1-58.1c-4-47.7-18.9-92.4-52.9-127.7C299.1,36,252,20.7,203.3,20.4
			c-62-0.4-124.8,31.9-153.5,102.7c-22.6,55.8-17.3,119.2,13.9,170.7c0.2,0.4,0.5,0.8,0.7,1.1c15,24.5,23.1,52.7,23,81.4L87,468"/>
		<path class="st1" d="M229.2,423.5c26.6,12.2,53.3,19.7,79.9,21.2l0.1,12.7C309.2,457.4,272.7,457.5,229.2,423.5z"/>
	</g>
	<g>
		<path class="st2" d="M120.3,288.5c3.8-6.6,9.8-11.6,17-14l9.2-3c15.6-5.1,24.4-21.8,19.9-37.7c8.7,15.9,26.3,26.7,46.7,26.7
			c20,0,37.4-10.5,46.2-26c9.6,5.8,21.2,9.2,33.6,9.2c33.4,0,60.6-24.4,60.6-54.5c0-14.5-6.3-27.7-16.7-37.5
			c-5.3-5-10-10.8-13.5-17.2l-1.1-1.9c-2.9-5.3-4.9-11.1-6.1-17c-4.3-20.3-26.5-35.7-53.1-35.7c-8.8,0-17,1.7-24.4,4.6
			c-9.1-13.5-27-22.7-47.5-22.7c-23.7,0-43.7,12.1-51,29c-1.9-0.2-3.8-0.3-5.7-0.3c-29.8,0-53.9,24.4-53.9,54.5
			c0,7.6,1.5,14.8,4.3,21.4c-5.3,7.3-8.5,16.4-8.5,26.2c0,19.4,12.3,35.8,29.3,41.5l-24.7,33.3"/>
		<path class="st3" d="M105.4,234.1c-11.5-7.8-19.1-21.2-19.1-36.4c0-9.8,3.2-18.9,8.5-26.2c-2.8-6.6-4.3-13.8-4.3-21.4
			c0-30.1,24.1-54.5,53.9-54.5c1.9,0,3.8,0.1,5.7,0.3c7.3-16.9,27.3-29,51-29c8.4,0,16.4,1.6,23.5,4.3c-9.2-5.8-20.8-9.3-33.5-9.3
			c-23.7,0-43.7,12.1-51,29c-1.9-0.2-3.8-0.3-5.7-0.3c-29.8,0-53.9,24.4-53.9,54.5c0,7.6,1.5,14.8,4.3,21.4
			c-5.3,7.3-8.5,16.4-8.5,26.2C76.3,212,88.5,228.3,105.4,234.1z"/>
		<g>
			<path class="st4" d="M262.7,161.5c0-4.7-0.6-9.2-1.8-13.4l11.7-6.8l-13.2-22.9l-11.7,6.8c-6.3-6.4-14.3-11.1-23.3-13.4V98.2
				h-26.4v13.5c-8.9,2.4-16.9,7.1-23.3,13.4l-11.7-6.8l-13.2,22.9l11.7,6.8c-1.2,4.3-1.8,8.8-1.8,13.4s0.6,9.2,1.8,13.4l-11.7,6.8
				l13.2,22.9l11.7-6.8c6.3,6.4,14.3,11.1,23.3,13.4v13.5h26.4v-13.5c8.9-2.4,16.9-7.1,23.3-13.4l11.7,6.8l13.2-22.9l-11.7-6.8
				C262.1,170.7,262.7,166.2,262.7,161.5z"/>
			<ellipse class="st5" cx="211.3" cy="161.5" rx="24.6" ry="24.6"/>
			<path class="st6" d="M196.6,161.5c0-11.9,8.4-21.8,19.6-24.1c-1.6-0.3-3.3-0.5-5-0.5c-13.6,0-24.6,11-24.6,24.6
				s11,24.6,24.6,24.6c1.7,0,3.4-0.2,5-0.5C205.1,183.4,196.6,173.4,196.6,161.5z"/>
			<ellipse class="st7" cx="211.3" cy="161.5" rx="24.6" ry="24.6"/>
		</g>
	</g>
	<path class="st8" d="M427.3,28.5C419.6,11.2,400.7-2.7,381,0.7c-15,2.6-22.8,15.3-34.1,24c-12-8.8-22.1-22.2-37.6-24.3
		c-19.5-2.7-38.8,11.1-46.4,28.1c-23.5,52.4,50.6,106.1,84,135C380.5,134.4,450.8,80.9,427.3,28.5z"/>
	<path class="st9" d="M275.8,24.5c4.5-10.1,13.2-19.1,23.5-24.1c-15.8,2.1-30.2,14-36.5,28.1c-23.5,52.4,50.6,106.1,84,135
		c2.7-2.4,5.7-4.9,8.8-7.6C320.7,126.3,253.3,74.8,275.8,24.5L275.8,24.5z"/>
</g>
</svg>
