<svg id="Layer_2" data-name="Layer 2" xmlns="http://www.w3.org/2000/svg" width="23.945" height="23.945" viewBox="0 0 23.945 23.945">
  <circle id="타원_167" data-name="타원 167" cx="0.798" cy="0.798" r="0.798" transform="translate(14.319 18.358)" fill="#fbf1de"/>
  <circle id="타원_168" data-name="타원 168" cx="0.798" cy="0.798" r="0.798" transform="translate(11.222 18.358)" fill="#fbf1de"/>
  <circle id="타원_169" data-name="타원 169" cx="0.798" cy="0.798" r="0.798" transform="translate(8.03 18.358)" fill="#fbf1de"/>
  <path id="패스_3289" data-name="패스 3289" d="M23.021,28.578H2.924A1.924,1.924,0,0,1,1,26.654,7.662,7.662,0,0,1,8.654,19h8.636a7.662,7.662,0,0,1,7.654,7.654,1.924,1.924,0,0,1-1.924,1.924ZM8.654,20.6A6.066,6.066,0,0,0,2.6,26.654a.327.327,0,0,0,.327.327h20.1a.327.327,0,0,0,.327-.327A6.066,6.066,0,0,0,17.291,20.6Z" transform="translate(-1 -4.633)" fill="#fbf1de"/>
  <path id="패스_3290" data-name="패스 3290" d="M14.385,13.771a6.385,6.385,0,1,1,6.385-6.385A6.385,6.385,0,0,1,14.385,13.771Zm0-11.174a4.789,4.789,0,1,0,4.789,4.789A4.789,4.789,0,0,0,14.385,2.6Z" transform="translate(-2.413 -1)" fill="#fbf1de"/>
</svg>
