<svg id="tap_754613" xmlns="http://www.w3.org/2000/svg" width="25.324" height="25.324" viewBox="0 0 25.324 25.324">
  <g id="그룹_2188" data-name="그룹 2188" transform="translate(3.167 4.221)">
    <g id="그룹_2187" data-name="그룹 2187">
      <path id="패스_3312" data-name="패스 3312" d="M69.618,78.236,63.887,76.6V71.432a3.165,3.165,0,1,0-6.329,0v9.113l-.928-.928a3.165,3.165,0,1,0-4.476,4.476l5.276,5.276H69.536l1.7-8.483A2.336,2.336,0,0,0,69.618,78.236Zm-1.813,9.023H58.3L53.646,82.6a1.055,1.055,0,1,1,1.493-1.492l4.531,4.53V71.431a1.054,1.054,0,1,1,2.108,0v6.761L69.2,80.312Z" transform="translate(-51.228 -68.266)" fill="#fbf1de"/>
    </g>
  </g>
  <g id="그룹_2190" data-name="그룹 2190">
    <g id="그룹_2189" data-name="그룹 2189">
      <path id="패스_3313" data-name="패스 3313" d="M20.048,0H5.276a5.276,5.276,0,1,0,0,10.552h2.11V8.441H5.276a3.165,3.165,0,0,1,0-6.331H20.048a3.165,3.165,0,0,1,0,6.331h-2.11v2.11h2.11A5.276,5.276,0,1,0,20.048,0Z" fill="#fbf1de"/>
    </g>
  </g>
</svg>
