<svg xmlns="http://www.w3.org/2000/svg" width="24.871" height="24.881" viewBox="0 0 24.871 24.881">
  <path id="communication_1545854" d="M21.947,22.152a6.557,6.557,0,0,0,3.025-5.878,7.145,7.145,0,0,0-1.106-4.013,6.5,6.5,0,0,0-2.458-2.175,10.937,10.937,0,0,0,.066-1.211,9.135,9.135,0,0,0-.862-4.043,7.52,7.52,0,0,0-2.386-2.813A12.664,12.664,0,0,0,10.789,0,12.664,12.664,0,0,0,3.35,2.019,7.52,7.52,0,0,0,.964,4.832,9.135,9.135,0,0,0,.1,8.875a7.959,7.959,0,0,0,3.828,7.24,8.368,8.368,0,0,1-.756,1.827l-.93,1.488H4.018A6.566,6.566,0,0,0,7.7,18.2a6.281,6.281,0,0,0,2.7,3.876,10.6,10.6,0,0,0,5.825,1.481,14.972,14.972,0,0,0,1.828-.1,5.258,5.258,0,0,0,3.608,1.414h0l1.834.01-1.026-1.514A5.761,5.761,0,0,1,21.947,22.152ZM5.64,17.146a12.28,12.28,0,0,0,.367-1.31l.165-.744-.684-.337A6.04,6.04,0,0,1,2.045,8.875c0-6.032,5.478-6.932,8.744-6.932s8.744.9,8.744,6.932c0,6.014-5.478,6.912-8.744,6.912A15.407,15.407,0,0,1,8.223,15.6l-.541-.092-.358.416A4.439,4.439,0,0,1,5.64,17.146ZM20.383,20.8l-.684.337.165.744c.049.22.1.426.158.62a3.218,3.218,0,0,1-.875-.716l-.358-.416-.541.092a12.042,12.042,0,0,1-2.02.151,8.7,8.7,0,0,1-4.756-1.161A4.349,4.349,0,0,1,9.579,17.7c.381.021.783.031,1.209.031a12.7,12.7,0,0,0,7.437-2.007,7.5,7.5,0,0,0,2.387-2.806,7.78,7.78,0,0,0,.351-.84,4.682,4.682,0,0,1,2.066,4.2A4.651,4.651,0,0,1,20.383,20.8ZM9.769,6.557H7.826a2.916,2.916,0,0,1,5.813-.34,3.184,3.184,0,0,1-1.1,2.614c-.132.132-.252.247-.359.349-.466.445-.466.462-.466.677v.631H9.769V9.857a2.642,2.642,0,0,1,1.068-2.083c.1-.1.209-.2.322-.313.524-.527.571-.817.548-1.031a.957.957,0,0,0-.845-.837.977.977,0,0,0-.769.245A.956.956,0,0,0,9.769,6.557Zm0,5.344h1.943v1.943H9.769Z" transform="translate(-0.102)" fill="#fbf1de"/>
</svg>
