<svg id="badge_6532671" xmlns="http://www.w3.org/2000/svg" width="23.754" height="25.093" viewBox="0 0 23.754 25.093">
  <path id="패스_3291" data-name="패스 3291" d="M153.172,103.961l-.725-.944a2.07,2.07,0,0,0-1.653-.814h0a2.07,2.07,0,0,0-1.653.817l-.72.94a2.086,2.086,0,0,0-3.028,2.141l0,.017.6,3.775a2.094,2.094,0,0,0,2.063,1.784h5.471a2.094,2.094,0,0,0,2.063-1.784l.6-3.771,0-.017a2.086,2.086,0,0,0-3.021-2.144Zm1.081,1.864-.6,3.767,0,.017a.125.125,0,0,1-.123.107h-5.471a.125.125,0,0,1-.123-.107l0-.017-.6-3.772a.107.107,0,0,1,.065-.119.109.109,0,0,1,.141.015l.419.363a.98.98,0,0,0,1.42-.145l1.319-1.722a.119.119,0,0,1,.1-.049h0a.119.119,0,0,1,.1.048l1.324,1.723a.98.98,0,0,0,1.42.143l.412-.357a.109.109,0,0,1,.141-.015A.107.107,0,0,1,154.253,105.825Z" transform="translate(-138.915 -97.194)" fill="#fbf1de"/>
  <path id="패스_3292" data-name="패스 3292" d="M37.074,19.131l0-.006-2.942-4.768a.98.98,0,0,0-.826-.465h-.009a.98.98,0,0,0-.825.451,8.221,8.221,0,0,1-15.13-4.308,8.2,8.2,0,0,1,16.392,0c0,.013,0,.026,0,.039v.044a.98.98,0,0,0,.971.989h.009a.98.98,0,0,0,.98-.971v-.03c0-.024,0-.048,0-.072a10.157,10.157,0,0,0-20.313,0,9.881,9.881,0,0,0,1.234,4.791L14,19.131a2.3,2.3,0,0,0-.081,2.257,2.327,2.327,0,0,0,1.909,1.262l1.511.114.811,1.257a2.332,2.332,0,0,0,1.972,1.071h.033a2.332,2.332,0,0,0,1.974-1.124l2.4-3.946q.5.049,1.011.049t1.011-.049l2.4,3.946a2.332,2.332,0,0,0,1.974,1.124h.033a2.333,2.333,0,0,0,1.972-1.071l.811-1.257,1.511-.114a2.327,2.327,0,0,0,1.909-1.262A2.3,2.3,0,0,0,37.074,19.131ZM20.451,22.951a.392.392,0,0,1-.657.008l-1.075-1.667a.98.98,0,0,0-.75-.446l-2-.151a.37.37,0,0,1-.313-.2.341.341,0,0,1,.013-.343l2.169-3.569a10.2,10.2,0,0,0,4.641,3.028Zm14.96-2.459a.37.37,0,0,1-.313.2l-2,.151a.98.98,0,0,0-.75.446l-1.075,1.667a.392.392,0,0,1-.657-.008l-2.029-3.339a10.1,10.1,0,0,0,4.622-3L35.4,20.151a.34.34,0,0,1,.011.34Z" transform="translate(-13.658 0)" fill="#fbf1de"/>
</svg>
