<svg id="Calendar" xmlns="http://www.w3.org/2000/svg" width="24.271" height="24.271" viewBox="0 0 24.271 24.271">
  <path id="패스_3293" data-name="패스 3293" d="M396.948,3.792a.948.948,0,0,0,.948-.948V.948a.948.948,0,1,0-1.9,0v1.9A.948.948,0,0,0,396.948,3.792Z" transform="translate(-377.228)" fill="#fbf1de"/>
  <path id="패스_3294" data-name="패스 3294" d="M19.53,120H4.74A4.746,4.746,0,0,0,0,124.74v9.1a4.746,4.746,0,0,0,4.74,4.74H19.53a4.746,4.746,0,0,0,4.74-4.74v-9.1A4.746,4.746,0,0,0,19.53,120Zm2.844,13.842a2.847,2.847,0,0,1-2.844,2.844H4.74A2.847,2.847,0,0,1,1.9,133.842v-9.1A2.847,2.847,0,0,1,4.74,121.9H19.53a2.847,2.847,0,0,1,2.844,2.844Z" transform="translate(0 -114.312)" fill="#fbf1de"/>
  <path id="패스_3295" data-name="패스 3295" d="M236.948,3.792a.948.948,0,0,0,.948-.948V.948a.948.948,0,1,0-1.9,0v1.9A.948.948,0,0,0,236.948,3.792Z" transform="translate(-224.813)" fill="#fbf1de"/>
  <path id="패스_3296" data-name="패스 3296" d="M76.948,3.792a.948.948,0,0,0,.948-.948V.948a.948.948,0,1,0-1.9,0v1.9A.948.948,0,0,0,76.948,3.792Z" transform="translate(-72.397)" fill="#fbf1de"/>
  <path id="패스_3297" data-name="패스 3297" d="M148.82,206.417l-2.469-.878-2.469.878a.948.948,0,0,1-1.265-.919l.072-2.619-1.6-2.077a.948.948,0,0,1,.483-1.487l2.513-.741,1.481-2.161a.948.948,0,0,1,1.564,0l1.481,2.161,2.513.741a.948.948,0,0,1,.483,1.487l-1.6,2.077.072,2.619a.948.948,0,0,1-1.265.919Zm-2.469-2.832c.281,0,.328.076,1.8.582l-.043-1.573a.948.948,0,0,1,.2-.6l.96-1.247-1.51-.445a.948.948,0,0,1-.514-.373l-.89-1.3-.89,1.3a.948.948,0,0,1-.514.373l-1.51.445.96,1.247a.948.948,0,0,1,.2.6l-.043,1.573C146.018,203.662,146.072,203.585,146.352,203.585Z" transform="translate(-134.216 -186.709)" fill="#fbf1de"/>
</svg>
