<?xml version="1.0" encoding="UTF-8"?>
<svg id="Layer_1" data-name="Layer 1" xmlns="http://www.w3.org/2000/svg" version="1.1" viewBox="0 0 27.5 23.7">
  <defs>
    <style>
      .cls-1 {
        opacity: .7;
      }

      .cls-2 {
        fill: #776f6e;
        stroke-width: 0px;
      }
    </style>
  </defs>
  <g id="Layer_2" data-name="Layer 2" class="cls-1">
    <g id="Layer_1-2" data-name="Layer 1-2">
      <path class="cls-2" d="M19.8,6.1c0,3.4-2.7,6.1-6.1,6.1s-6.1-2.7-6.1-6.1S10.4,0,13.7,0h0c3.4,0,6.1,2.7,6.1,6.1Z"/>
      <path class="cls-2" d="M19.7,12.8h-1.9c-2.3,2.1-5.8,2.1-8.2,0h-1.9c-2.6,0-7.8,3.4-7.8,5.7v.9c.1,2.5,2.2,4.4,4.7,4.3h18.2c2.5,0,4.6-1.8,4.7-4.3v-.9c0-2.4-5.2-5.7-7.8-5.7Z"/>
    </g>
  </g>
</svg>