<svg xmlns="http://www.w3.org/2000/svg" xmlns:xlink="http://www.w3.org/1999/xlink" width="160.034" height="50.537" viewBox="0 0 160.034 50.537">
  <defs>
    <radialGradient id="radial-gradient" cx="0.5" cy="0.5" r="1.373" gradientTransform="translate(0.367) scale(0.267 1)" gradientUnits="objectBoundingBox">
      <stop offset="0" stop-color="#f1f5e1"/>
      <stop offset="0.5" stop-color="#799877"/>
      <stop offset="1" stop-color="#386459"/>
    </radialGradient>
    <radialGradient id="radial-gradient-2" cx="0.5" cy="0.5" r="1.989" gradientTransform="translate(0.41) scale(0.181 1)" gradientUnits="objectBoundingBox">
      <stop offset="0.005" stop-color="#fff3d9"/>
      <stop offset="0.5" stop-color="#f1ddb4"/>
      <stop offset="1" stop-color="#edb36b"/>
    </radialGradient>
    <radialGradient id="radial-gradient-3" cx="0.5" cy="0.5" r="3.537" gradientTransform="translate(0.45) scale(0.1 1)" gradientUnits="objectBoundingBox">
      <stop offset="0" stop-color="#a19478"/>
      <stop offset="0.516" stop-color="#8b7f59"/>
      <stop offset="1" stop-color="#63352d"/>
    </radialGradient>
  </defs>
  <g id="그룹_582" data-name="그룹 582" transform="translate(285.405 16.276)">
    <g id="그룹_573" data-name="그룹 573" transform="translate(-197.904 -9.69)">
      <path id="패스_970" data-name="패스 970" d="M-149.5,1.45c-.456,0-.664-.373-.664-.871,0-.456.208-.829.664-.829h8V-5.1c0-.539.456-.747.912-.747.5,0,.954.208.954.747V-.25h7.589c.456,0,.664.373.664.829,0,.5-.208.871-.664.871Zm8.957,3.733c5.018,0,7.216,3.525,7.216,7.672s-2.2,7.672-7.216,7.672-7.215-3.525-7.215-7.672S-145.561,5.183-140.543,5.183Zm0,1.7c-3.94,0-5.432,2.82-5.432,5.972s1.493,5.972,5.432,5.972,5.433-2.82,5.433-5.972S-136.6,6.883-140.543,6.883Zm13.478.788h-4.23c-.456,0-.663-.373-.663-.871,0-.456.207-.829.663-.829h4.23V-4.936c0-.539.456-.746.954-.746.456,0,.912.207.912.746V26.5c0,.539-.456.747-.912.747-.5,0-.954-.208-.954-.747V15.758h-4.022c-.456,0-.664-.373-.664-.871,0-.456.208-.829.664-.829h4.022ZM-120.1-5.351c0-.539.456-.746.912-.746.5,0,.954.207.954.746V28.241c0,.539-.456.747-.954.747-.456,0-.912-.208-.912-.747Z" transform="translate(150.164 6.097)" fill="#040506"/>
      <path id="패스_971" data-name="패스 971" d="M-83.459,31.743c-1.907,0-2.53-.58-2.53-2.447V22.039c0-1.866.622-2.446,2.53-2.446h2.986v-5.64H-90.509c-.415,0-.622-.373-.622-.829s.208-.829.622-.829h33.093c.415,0,.622.373.622.829s-.208.829-.622.829H-67.451v5.64h2.986c1.907,0,2.53.58,2.53,2.446V29.3c0,1.867-.622,2.447-2.53,2.447Zm-2.4-29.9c0-4.4,4.188-6.594,11.9-6.594s11.9,2.2,11.9,6.594-4.188,6.594-11.9,6.594S-85.864,6.238-85.864,1.843Zm1.742,27.578c0,.5.207.663.7.663h18.911c.5,0,.7-.166.7-.663V21.914c0-.5-.207-.664-.7-.664H-83.417c-.5,0-.7.166-.7.664ZM-84,1.843c0,3.235,3.359,4.977,10.036,4.977s10.036-1.742,10.036-4.977-3.359-4.976-10.036-4.976S-84-1.392-84,1.843Zm5.35,17.75h9.372v-5.64h-9.372Z" transform="translate(129.325 5.622)" fill="#040506"/>
    </g>
    <g id="그룹_581" data-name="그룹 581" transform="translate(-285.405 -16.276)">
      <path id="패스_972" data-name="패스 972" d="M-224.509,31.191a.328.328,0,0,1-.043-.047c-.032-.041-.1-.126-.2-.236a3.147,3.147,0,0,0-2.418-1.27,3.147,3.147,0,0,0-2.418,1.27c-.1.109-.168.194-.2.236a.329.329,0,0,1-.043.047c-.246.214-2.367,2.343,2.378,8.632a.356.356,0,0,0,.567,0C-222.141,33.534-224.263,31.4-224.509,31.191Z" transform="translate(266.029 0.068)" fill="#c3792c"/>
      <g id="그룹_575" data-name="그룹 575" transform="translate(10.297 8.743)">
        <g id="그룹_574" data-name="그룹 574" transform="translate(0 0)">
          <path id="패스_973" data-name="패스 973" d="M-242.129,10.915A13.7,13.7,0,0,1-255.808,24.6a13.7,13.7,0,0,1-13.681-13.68,13.7,13.7,0,0,1,13.68-13.68A13.7,13.7,0,0,1-242.129,10.915Zm-13.679,11.68A11.691,11.691,0,0,0-244.13,10.917,11.692,11.692,0,0,0-255.809-.761a11.691,11.691,0,0,0-11.678,11.678A11.693,11.693,0,0,0-255.808,22.595Z" transform="translate(269.489 2.763)" fill="#040506"/>
          <path id="패스_974" data-name="패스 974" d="M-243.038,12.009a11.691,11.691,0,0,1-11.677,11.678,11.693,11.693,0,0,1-11.68-11.678A11.691,11.691,0,0,1-254.717.331,11.692,11.692,0,0,1-243.038,12.009Z" transform="translate(268.397 1.671)" fill="#fff"/>
        </g>
      </g>
      <circle id="타원_44" data-name="타원 44" cx="4.226" cy="4.226" r="4.226" transform="translate(22.274 17.304)" fill="#040506"/>
      <circle id="타원_45" data-name="타원 45" cx="1.61" cy="1.61" r="1.61" transform="translate(26.138 18.84)" fill="#fff"/>
      <g id="그룹_576" data-name="그룹 576" transform="translate(9.277 0.665)">
        <path id="패스_975" data-name="패스 975" d="M-244.22.1s-1.825-8.1-15.527-9.519A21.46,21.46,0,0,1-271-15.242s-1.3,5.69,7.98,9.807C-263.023-5.435-251.651-10.394-244.22.1Z" transform="translate(271.066 15.246)" fill="#2d1d1a"/>
        <path id="패스_976" data-name="패스 976" d="M-221.048.1s1.823-8.1,15.525-9.521a21.465,21.465,0,0,0,11.255-5.829s1.3,5.689-7.979,9.807C-202.247-5.441-213.619-10.4-221.048.1Z" transform="translate(253.409 15.248)" fill="#2d1d1a"/>
      </g>
      <g id="그룹_579" data-name="그룹 579" transform="translate(40.104 8.741)">
        <g id="그룹_578" data-name="그룹 578" transform="translate(0 0)">
          <g id="그룹_577" data-name="그룹 577">
            <path id="패스_977" data-name="패스 977" d="M-196.06,10.912a13.7,13.7,0,0,1-13.678,13.681,13.7,13.7,0,0,1-13.681-13.68,13.7,13.7,0,0,1,13.68-13.68A13.693,13.693,0,0,1-196.06,10.912Zm-13.678,11.679a11.691,11.691,0,0,0,11.676-11.679A11.69,11.69,0,0,0-209.74-.764a11.691,11.691,0,0,0-11.677,11.678A11.692,11.692,0,0,0-209.739,22.591Z" transform="translate(223.42 2.766)" fill="#040506"/>
            <path id="패스_978" data-name="패스 978" d="M-196.97,12a11.691,11.691,0,0,1-11.676,11.679,11.692,11.692,0,0,1-11.679-11.677A11.691,11.691,0,0,1-208.648.328,11.69,11.69,0,0,1-196.97,12Zm-14.274,3.337a4.227,4.227,0,0,0,4.226-4.227,4.226,4.226,0,0,0-4.227-4.226,4.226,4.226,0,0,0-4.226,4.227A4.226,4.226,0,0,0-211.244,15.342Z" transform="translate(222.327 1.674)" fill="#fff"/>
            <path id="패스_979" data-name="패스 979" d="M-204.369,14.694a4.227,4.227,0,0,1-4.226,4.227,4.226,4.226,0,0,1-4.227-4.226,4.226,4.226,0,0,1,4.226-4.227A4.226,4.226,0,0,1-204.369,14.694Zm-5.474.531a1.611,1.611,0,0,0,1.61-1.61,1.61,1.61,0,0,0-1.61-1.61,1.61,1.61,0,0,0-1.61,1.61A1.611,1.611,0,0,0-209.843,15.225Z" transform="translate(219.679 -1.906)" fill="#040506"/>
            <path id="패스_980" data-name="패스 980" d="M-207.486,14.453a1.611,1.611,0,0,1-1.61,1.61,1.611,1.611,0,0,1-1.61-1.61,1.61,1.61,0,0,1,1.61-1.61A1.61,1.61,0,0,1-207.486,14.453Z" transform="translate(218.932 -2.744)" fill="#fff"/>
          </g>
        </g>
      </g>
      <path id="패스_981" data-name="패스 981" d="M-233.007.6a16.8,16.8,0,0,1,14.04-11.141.581.581,0,0,0,.291-1.04,24.669,24.669,0,0,0-14.881-4.692,24.67,24.67,0,0,0-14.88,4.694.581.581,0,0,0,.291,1.04A16.8,16.8,0,0,1-234.1.6.58.58,0,0,0-233.007.6Z" transform="translate(272.436 16.276)" fill="#674631"/>
      <g id="그룹_580" data-name="그룹 580" transform="translate(0 33.203)">
        <path id="패스_982" data-name="패스 982" d="M-210.937,35.079a.777.777,0,0,0-.338-.025c-1.85.637-10.365,1.241-31.506,16.543a.355.355,0,0,0-.029.045.354.354,0,0,0-.029-.045c-21.141-15.3-29.657-15.905-31.506-16.543a.777.777,0,0,0-.338.025s-.253.167-.239.3l.424,3.849a.776.776,0,0,0,.623.677c2.789.547,15.533,3.586,30.588,12.205a.343.343,0,0,0,.477-.134.343.343,0,0,0,.477.134c15.055-8.619,27.8-11.658,30.588-12.205a.776.776,0,0,0,.623-.677l.424-3.849C-210.684,35.246-210.937,35.079-210.937,35.079Z" transform="translate(281.705 -35.042)" fill="url(#radial-gradient)"/>
        <path id="패스_983" data-name="패스 983" d="M-209.464,41.626c-15.657,1.586-31.023,10.1-35.28,12.613l-.005,0-.005,0c-4.257-2.517-19.623-11.027-35.28-12.613a.348.348,0,0,0-.373.422l1.033,4.646a.346.346,0,0,0,.346.272c1.815-.036,12.416.125,34.153,7.536a.138.138,0,0,0,.126-.015.138.138,0,0,0,.126.015c21.737-7.411,32.338-7.571,34.153-7.536a.346.346,0,0,0,.346-.272l1.033-4.646A.348.348,0,0,0-209.464,41.626Z" transform="translate(283.644 -37.365)" fill="url(#radial-gradient-2)"/>
        <path id="패스_984" data-name="패스 984" d="M-207.924,49.965c-12.318-1.5-33.042,5.4-38.556,7.348a.134.134,0,0,0-.03.016.134.134,0,0,0-.03-.016c-5.514-1.944-26.238-8.843-38.556-7.348a.347.347,0,0,0-.3.437l1.188,4.3a.347.347,0,0,0,.36.254c2.087-.159,15.577-.97,37.236,2.606a.129.129,0,0,0,.1-.02.128.128,0,0,0,.1.02c21.465-3.544,34.951-2.78,37.237-2.606a.347.347,0,0,0,.36-.254l1.188-4.3A.348.348,0,0,0-207.924,49.965Z" transform="translate(285.405 -40.235)" fill="url(#radial-gradient-3)"/>
      </g>
    </g>
  </g>
</svg>
