<?xml version="1.0" encoding="UTF-8"?>
<svg id="Layer_1" data-name="Layer 1" xmlns="http://www.w3.org/2000/svg" version="1.1" viewBox="0 0 21 25.9">
  <defs>
    <style>
      .cls-1 {
        fill: #776f6e;
        opacity: .7;
        stroke-width: 0px;
      }
    </style>
  </defs>
  <path class="cls-1" d="M19.6,10.4s0,0,0,0H6.2v-3.3c0-1.2.6-2.3,1.6-3,1.9-1.4,4.6-1,6,.9.5.7.8,1.6.8,2.5h3.3C18,3.3,14.5,0,10.3,0c-1.3,0-2.6.4-3.8,1-2.2,1.2-3.6,3.5-3.6,6.1v3.3h-1.5C.7,10.3,0,11,0,11.7c0,0,0,0,0,0v11.8c0,.2,0,.4,0,.6.3,1,1.2,1.7,2.2,1.7h16.4c1.1,0,2-.7,2.2-1.7,0-.2,0-.4,0-.6v-.4h0v-11.4c0-.8-.6-1.4-1.4-1.4ZM8.9,15.6s0,0,0-.1c0-.1.2-.2.3-.3.8-.6,2-.4,2.6.4.2.3.4.7.4,1.1,0,.6-.3,1.2-.9,1.6v1.8h-1.9v-1.8c-.9-.6-1.2-1.7-.6-2.6Z"/>
</svg>