<svg xmlns="http://www.w3.org/2000/svg" viewBox="0 0 913.44 488.83"><defs><style>.cls-1{fill:#b99d7e;}.cls-2{fill:#ccad8b;}.cls-3{fill:#a07a58;}.cls-4{fill:#705336;}.cls-5{fill:#d5d5d5;}.cls-6{fill:#493726;}.cls-7{fill:#f2e7d3;}.cls-8{fill:#af624a;}.cls-9{fill:#f4a37f;}.cls-10{fill:#dd744b;}.cls-11{fill:#7f2b11;}.cls-12{fill:#7a424a;}.cls-13{fill:#e2a6b4;}.cls-14{fill:#af6e7b;}.cls-15{fill:#6d2e3d;}.cls-16{fill:#604021;}.cls-17{fill:#ad8a60;}.cls-18{fill:#8e683f;}.cls-19{fill:#331f0f;}.cls-20{fill:#e06b15;}.cls-21{fill:#663304;}.cls-22,.cls-31{fill:#faeada;}.cls-23{fill:#8e5c25;}.cls-24{fill:#faf2f0;}.cls-25{fill:#034147;}.cls-26{fill:#7c3840;}.cls-27{fill:#a57173;}.cls-28{fill:#9e3032;}.cls-29{fill:#b58552;}.cls-30{fill:#ddb17c;}.cls-31,.cls-35{opacity:0.6;}.cls-32{fill:#555919;}.cls-33{fill:#e8b19a;}.cls-34{fill:#ffe5d7;}.cls-35{fill:#e8cab1;}.cls-36{fill:#3b2722;}.cls-37{fill:#795840;}.cls-38{fill:#cbc4bd;}.cls-39{fill:#1d1d1b;}.cls-40{fill:#ca8d3e;}.cls-41{fill:#fff;}</style></defs><title>Asset 1</title><g id="Layer_2" data-name="Layer 2"><g id="Layer_1-2" data-name="Layer 1"><polygon class="cls-1" points="367.9 363.41 531.69 346.24 493.56 325.86 358.78 344.64 367.9 363.41"/><polygon class="cls-1" points="2.32 329.57 142.57 355.94 190.03 321.9 2.32 329.57"/><path class="cls-2" d="M163.37,298.9v0a2.49,2.49,0,0,0,2.37,2.46q55.55,2.55,111.15,2.65-55.59-.1-111.15-2.66A2.51,2.51,0,0,1,163.37,298.9Zm183.43,4.3q-9.51.26-19,.43Q337.3,303.45,346.8,303.2Zm50.91-1.82q-13.92.64-27.84,1.12,13.92-.48,27.84-1.11a2.49,2.49,0,0,0,2.37-2.46v0A2.51,2.51,0,0,1,397.71,301.38Zm-37.21,1.43-10.77.32Zm8.26-.26,1.11-.05-4.69.16Zm-3.58.11-4.68.15ZM321.06,152a6,6,0,0,0-3.1,4.45,5.91,5.91,0,0,0,11.71,0,5.9,5.9,0,0,0-5.52-5.11c.22.84.44,1.69.65,2.54a2.78,2.78,0,1,1-3.06.77C321.52,153.72,321.29,152.84,321.06,152Zm-85.57,1.88c.21-.85.43-1.7.65-2.54a5.91,5.91,0,0,0-5.52,5.11,5.91,5.91,0,0,0,11.71,0,6,6,0,0,0-3.1-4.45c-.23.88-.46,1.76-.68,2.65a2.74,2.74,0,0,1,.69,1.8,2.77,2.77,0,1,1-3.75-2.57Zm163.8,143.69V137.15h-79.2c1.35,4.36,2.65,8.83,3.85,13.35a5.9,5.9,0,1,1-3.06.77c-1.27-4.78-2.66-9.51-4.09-14.12H243.5c-1.43,4.61-2.82,9.35-4.09,14.12a5.93,5.93,0,1,1-3.06-.77c1.2-4.52,2.51-9,3.85-13.35h-76V297.53a2.46,2.46,0,0,0,1.58.69q115.92,5.36,232,0A2.46,2.46,0,0,0,399.29,297.53Zm-2-161.17-40.67-11.83v11.83h40.67Zm-190.48,0V124.53l-41.1,11.83h41.1Z"/><path class="cls-3" d="M388.14,132.9V117.43l-30.38,6.65Zm-64,25a1.57,1.57,0,0,1-1.9-1.16c-.17-.73-.36-1.45-.54-2.17a2.74,2.74,0,0,0-.69,1.8,2.77,2.77,0,1,0,3.75-2.57c.19.73.37,1.47.55,2.2A1.58,1.58,0,0,1,324.18,157.94ZM385,116.64l3.15-.79H313.29c.08.26.16.53.25.79Zm-75-.79H250.31l-.24.79h60.16C310.14,116.37,310.06,116.11,310,115.85ZM175.21,132.92l30.46-8.86-30.46-6.72Zm222.5,165.3q-115.92,5.36-232,0a2.46,2.46,0,0,1-1.58-.69v1.37a2.44,2.44,0,0,0,.38,1.3,2.5,2.5,0,0,0,2,1.18q57.63,2.65,115.32,2.67t115.07-2.67a2.5,2.5,0,0,0,2-1.18,2.53,2.53,0,0,0,.38-1.3v-1.37A2.46,2.46,0,0,1,397.71,298.22ZM206.77,123.74l-28.41-7.1h68.39c.09-.26.17-.53.25-.79H175.11l.1,0Zm28.72,30.1a2.78,2.78,0,1,0,3.06.77c-.18.72-.37,1.44-.54,2.17a1.58,1.58,0,0,1-3.07-.74Z"/><path class="cls-4" d="M314.1,128.65c-1.17-3.58-2.5-7.69-3.87-12H250.07c-1.38,4.33-2.72,8.45-3.89,12l-.49,1.51c-.65,2-1.3,4.08-1.95,6.16h72.81q-1-3.13-1.95-6.17Zm-135.74-12,28.41,7.1v12.62h33.67q1.13-3.63,2.25-7.13l.49-1.52c1.08-3.32,2.31-7.1,3.57-11.07ZM175.11,133l.1,0V117.34l-.1,0Zm138.43-16.31c1.26,4,2.48,7.72,3.56,11l.5,1.54q1.13,3.51,2.25,7.14h36.73V123.74l28.41-7.1Zm10.4,33.86.21.8a5.9,5.9,0,0,1,5.52,5.11c0-.13,0-.26,0-.39,0,.13,0,.26,0,.39A5.91,5.91,0,0,0,323.94,150.5Zm-6,5.91c0-.12,0-.24,0-.36v0C317.91,156.15,317.9,156.28,317.9,156.41Zm0-.36c0,.12,0,.24,0,.36a6,6,0,0,1,3.1-4.45l-.18-.69A6,6,0,0,0,317.92,156.05Zm-78.51-4.78-.18.69a6,6,0,0,1,3.1,4.45c0-.12,0-.24,0-.36A5.93,5.93,0,0,0,239.41,151.27Zm3,4.78c0,.12,0,.24,0,.36,0-.13,0-.26,0-.39Zm-11.81.36c0-.13,0-.26,0-.39,0,.13,0,.26,0,.39a5.91,5.91,0,0,1,5.52-5.11l.21-.8A5.91,5.91,0,0,0,230.56,156.41Z"/><path class="cls-5" d="M324.43,303.67l-5,.08Zm-5,.08-8.28.12ZM388.14,132.9l-30.38-8.82,30.38-6.65v-1.58l-31.56,7.89v.79l40.67,11.83h-77.4l.24.79h79.2V298.9a2.53,2.53,0,0,1-.38,1.3,2.5,2.5,0,0,1-2,1.18q-36.23,1.67-72.49,2.29,22.17-.37,44.33-1.12,14.48-.51,28.95-1.17a2.51,2.51,0,0,0,2.37-2.48V136.36Zm-77,171c-4.91.05-9.83.11-14.74.13Q303.79,304,311.17,303.87Zm-29.32.18q-57.68,0-115.32-2.67a2.5,2.5,0,0,1-2-1.18,2.44,2.44,0,0,1-.38-1.3V137.15h76l.24-.79H165.67l41.1-11.83v-.79l-31.56-7.87-.1,0v1.46l.1,0,30.46,6.72-30.46,8.86-.1,0-11.74,3.41V298.9a2.51,2.51,0,0,0,2.37,2.48q58,2.67,116.1,2.67h0q7.11,0,14.22,0Q289,304.06,281.85,304.05Zm34.7-167.69H243.74l-.24.79h73.29Zm7.27,26a5.92,5.92,0,0,0,5.91-5.92c0-.13,0-.26,0-.39,0,.13,0,.26,0,.39a5.91,5.91,0,0,1-11.71,0c0-.13,0-.26,0-.39,0,.13,0,.26,0,.39A5.92,5.92,0,0,0,323.82,162.33Zm-93.2-5.92c0-.13,0-.26,0-.39,0,.13,0,.26,0,.39a5.92,5.92,0,1,0,11.83,0c0-.13,0-.26,0-.39,0,.13,0,.26,0,.39a5.91,5.91,0,0,1-11.71,0Z"/><path class="cls-6" d="M325.35,156c-.18-.73-.36-1.47-.55-2.2s-.43-1.7-.65-2.54l-.21-.8c-1.2-4.52-2.5-9-3.85-13.35l-.24-.79q-1.12-3.63-2.25-7.14l-.5-1.54c-1.08-3.32-2.3-7.08-3.56-11-.09-.26-.17-.53-.25-.79-3.5-11-7.21-23.47-8.87-32.24-.07-.36-.15-.73-.22-1.1,3.41,10.4,9,23.28,13.44,33.34h3.45c-5.43-12.25-12.88-29.32-15.72-40.5-.35-1.24-.67-2.5-1-3.8-4.21-14.79-13.71-24.35-24.22-24.35h0c-10.51,0-20,9.56-24.23,24.4q-.45,1.84-1,3.78c-2.83,11.15-10.28,28.22-15.71,40.47h3.45c4.45-10,10-22.91,13.42-33.28-.07.36-.13.71-.2,1.07-1.66,8.75-5.37,21.18-8.87,32.21-.08.26-.16.53-.25.79-1.26,4-2.49,7.75-3.57,11.07l-.49,1.52q-1.12,3.5-2.25,7.13l-.24.79c-1.34,4.36-2.65,8.83-3.85,13.35l-.21.8c-.22.84-.44,1.69-.65,2.54l-.55,2.2a1.58,1.58,0,1,0,3.07.74c.17-.73.36-1.45.54-2.17.22-.89.45-1.77.68-2.65l.18-.69c1.27-4.77,2.66-9.51,4.09-14.12l.24-.79c.65-2.08,1.3-4.14,1.95-6.16l.49-1.51c1.17-3.6,2.51-7.72,3.89-12l.24-.79c3.44-10.87,7-23,8.65-31.6.27-1.3.52-2.59.75-3.85,2.75-13,11.14-22.15,20.43-22.15h0c9.28,0,17.68,9.11,20.41,22.11q.36,2,.75,3.87C303,92.88,306.55,105,310,115.85c.08.26.16.52.25.79,1.37,4.32,2.7,8.43,3.87,12l.5,1.54q1,3,1.95,6.17l.24.79c1.43,4.61,2.82,9.34,4.09,14.12l.18.69c.23.88.46,1.76.68,2.65.18.72.37,1.44.54,2.17a1.58,1.58,0,0,0,3.07-.74ZM280.16,55.09h0c-8.68,0-16.63,6.56-21,16.7,3-10,10.21-21.43,21-21.43h0c10.79,0,18,11.42,21,21.41C296.78,61.65,288.83,55.09,280.16,55.09Z"/><path class="cls-7" d="M3.58,279.69l-1.86-.08c0,.35,0,.7,0,1.05.05,4.29.11,8.64.18,13s.14,8.76.2,13.12c.05,2.81.09,5.62.12,8.39s0,5.53.07,8.25c0,1,0,2.06,0,3.08,26.85,2.34,52.87,5,78.41,7.72a9.09,9.09,0,0,0,0-1.17c-.13-3.2-.21-6.69-.25-10.34s0-7.55,0-11.42c0-3.48,0-7,.07-10.36,0-4.13.06-8.13.06-11.8,0-1,0-2.06,0-3.14q-9.5-.94-18.94-1.85C57,287,52.81,289.51,50,291c0-1.55,0-2.33,0-3a25.23,25.23,0,0,0,0-2.58c0-.86-.06-1.63-.08-2.37l-2-.18C32.2,281.65,18,280.59,6.33,279.83,5.44,279.77,4.5,279.73,3.58,279.69Zm106.54,37.24c0,3.09,0,6.1,0,8.9,0,4.7.06,8.77.19,11.55,31.19,3.32,61.87,6.53,92.72,9.08,1.09.09,2.23.32,3.29.43a13.62,13.62,0,0,0,2.7.07c0-.13,0-.26,0-.39a16.26,16.26,0,0,0,3.2-1.75c1.17-.77,2.41-1.7,3.64-2.69,4.58-3.68,9.69-8,14.85-12.49-.08-2.21-.16-4.44-.25-6.67q-.15-3.81-.31-7.64-.17-4.05-.35-8.1-.24-5.25-.49-10.5c-.07-1.29-.12-2.58-.19-3.87-.08-1.5-.16-3-.23-4.49-4.63,2.51-9.16,4.94-13.24,7.05-1.22.63-2.42,1.28-3.57,1.8a11.15,11.15,0,0,1-3.24,1c0-.26,0-.52,0-.77l-2.7-.17-3.28-.21q-11.9-.81-23.77-1.77l-.18.18c-.68.72-1.33,1.46-2.05,2.23s-1.43,1.61-2,2.32-1.26,1.41-2.06,2.2c-.55.55-1.26,1.2-2,1.84s-1.48,1.25-2.11,1.7-1.28,1-2,1.42a13,13,0,0,1-2.2,1.21c-1.19-2.64-2.45-5.38-3.79-8.26-1-2.14-2.07-4.38-3.18-6.68-15.79-1.41-31.54-2.94-47.21-4.5,0,1.28,0,2.55,0,3.77,0,3.31,0,7.2,0,11.31S110.14,312.66,110.12,316.93ZM62.43,228.4a37.35,37.35,0,0,0,5.22-1.09l-.1,0-5.39,1.18Zm182,12.23h0l1,0a7.57,7.57,0,0,1,1,0,3.21,3.21,0,0,1,.36.08,4.53,4.53,0,0,1,.87.24,3.32,3.32,0,0,1,.47.2,5,5,0,0,1,1.12.86,1.19,1.19,0,0,1,.32.54,1.37,1.37,0,0,1,.07.29c0,.29,0,.6,0,1a6.36,6.36,0,0,1-.1,1.32,6.26,6.26,0,0,0-.1,1.32c.11,1.84.19,3.63.27,5.4.15,3.81.24,7.48.28,11.06,0,2.89,0,5.73,0,8.54l4.5-2.36c5-2.59,9.16-4.92,11.54-6.17,0-.79,0-1.5,0-2.45,0-1.86,0-3.75-.05-5.5s0-3.33-.06-4.58c0-1.92-.06-3.72-.09-5.78s-.05-4.37-.06-7.32c0-.82,0-1.53,0-2.31,0-.35-4.41-1.71-5.45-1.77-17.12-1-33.18-2.17-48.54-3.36l-5.71-.45c0,.78.1,1.56.16,2.32,0,.09,0,.17,0,.26.06.76.12,1.51.19,2.23s.15,1.59.23,2.34l.09.82C224.78,239.13,240.82,240.64,244.42,240.63Zm-21,7c-5.69,0-27-1.9-48.24-3.81l-.24,0-15.89-1.43c.82.85,1.6,1.69,2.3,2.47.92,1,1.74,2,2.49,3s1.57,2.06,2.28,3.09c.95,1.4,1.83,2.84,2.75,4.43q.54.93,1.11,2l.11.19c1.15,2.06,2.16,3.9,3.1,5.64.61,1.15,1.19,2.25,1.76,3.35l.9,1.75c.52,1,1,2,1.41,3s.86,1.92,1.3,2.85,1,2,1.49,3,1,1.93,1.4,2.84c.16.34.31.65.46,1,.71,1.53,1.38,3,2,4.39.76,1.7,1.47,3.32,2.19,4.9a9.92,9.92,0,0,0-1,.45c5.74.4,11.36.79,16.8,1.14,1.71.12,3,.19,4.2.23,1,0,1.93.05,3.05.05v-.67a5.74,5.74,0,0,0,2.55-.19,13.88,13.88,0,0,0,2.94-1c3.1-1.51,6.5-3.37,10.37-5.5l3.49-1.91q-.23-4.31-.47-8.59-.33-5.92-.69-11.77c-.13-2.19-.26-4.38-.4-6.55a3,3,0,0,0-.44-1.26,2.88,2.88,0,0,1-.44-1.26h0a2.84,2.84,0,0,1,.16-1,1.19,1.19,0,0,0,0-.89c-.06-.13-.13-.31-.2-.5-.14-.39-.31-.86-.51-1.34h0a3.27,3.27,0,0,0-1.11-1.62l-.46-.23-.46-.18Zm26.5,36.6c0,3,0,6,0,9.1q0,3.47.06,7.07c0,2.15.09,4.33.17,6.57,0,1.61.12,3.24.2,4.91a5.8,5.8,0,0,1,0,.59c4.93-4.36,9.18-8.1,12.07-10.48.63-.52,1.19-1,1.68-1.36s.92-.71,1.27-.95c.05-.73.1-1.38.09-2.37,0-1.2,0-2.05-.05-2.83s-.06-1.49-.06-2.4c0-1.19,0-2.25,0-3.24s0-1.89,0-2.79-.06-2-.1-3.06-.09-2.1-.1-3c0-1.37,0-2.89.05-4.58s.08-3.54.08-5.59a7.58,7.58,0,0,0-.05-.9c-.34.14-.77.33-1.27.57l-1.68.82c-2.92,1.47-7.21,3.78-12.2,6.5,0,.77,0,1.54,0,2.31C250,280.79,249.93,282.49,249.92,284.18ZM.81,261.08c0,2.11.07,4.16.09,6.16s0,3.94,0,5.83c0,1.3,0,2.42,0,3.47l2.66.18,2.74.18c12.3.81,27.15,1.91,43.46,3.17,0-.58-.09-1.17-.18-1.77-.13-1-.41-2.74-.72-4.47-.2-1.14-.41-2.24-.61-3.13-.1-.46-.2-.88-.28-1.18-.21-.74-.44-1.46-.69-2.17s-.54-1.42-.85-2.13c2.72-1.57,4.55-2.63,6.27-3.69s3.33-2.12,5.6-3.66l.48-.33,4.19-3c1.8-1.26,3.72-2.58,5.39-3.57.71-.43,1.57-.94,2.51-1.48l2.79-1.61.79-.44c.35-.2.7-.4,1.06-.59,2-1.12,4-2.21,5.7-3.08,3.14-1.59,7.28-4,11.65-6.31l.21-.12c-3.64-.3-7.41-.69-11.23-1.12l-8.68-1c-10.41-1.23-20.76-2.4-29.42-2.34.58-.42,2.76-.79,5.22-1.24a36.91,36.91,0,0,0,6.9-1.72,9.3,9.3,0,0,1,1-.35L8.12,240.19c-1.88.41-3,.76-4.09,1.1s-2.18.67-4,1.07C.44,247.51.76,258.47.81,261.08ZM78.65,273.4c-3.77,2.46-8.16,5.26-12.46,8l14.35,1.13c-.05-3-.12-6.15-.2-9.32,0-.29,0-.57,0-.86l-1.16.77Zm31.65,11.44c14.88,1.18,30,2.36,44.66,3.47l-1-2c-.83-1.66-1.67-3.35-2.47-5-.45-.9-.94-1.86-1.44-2.84L149,276.44c-.87-1.69-1.73-3.39-2.47-4.95-1.05-2.25-2.24-4.84-3.38-7.41l-.58-1.29c-1.28-2.9-2.46-5.68-3.31-7.86l-.07-.19c-.25-.65-.47-1.22-.66-1.73l-.12-.32c-.43-1.12-.73-2-1-2.65a29.89,29.89,0,0,1-.81-2.89c-.23-.94-.52-2.21-.8-3.43s-.55-2.36-.72-3.07c0-.11-.06-.24-.1-.37-3.49-.26-6.14-.42-7.6-.44-1.22,0-2.52-.09-3.83-.18l-1.18,1.26c-.74.77-1.57,1.61-2.47,2.48s-1.64,1.55-2.52,2.34-1.8,1.57-2.74,2.33-1.84,1.44-2.8,2.15l-.41.31c0,.12,0,.25,0,.37s0,.4,0,.63c0,.38,0,.79,0,1.21s0,1,0,1.59c-.16,2.33-.29,4.78-.41,7.28-.19,3.92-.35,8-.45,12,0,.62,0,1.23,0,1.85C110.38,278.66,110.33,281.8,110.3,284.84Z"/><path class="cls-8" d="M61.65,284.16q9.43.91,18.94,1.85c0-.18,0-.36,0-.55,0-1,0-2,0-3l-14.35-1.13c-1,.64-2,1.27-3,1.88L62,284Zm19.08,50.08c-25.54-2.71-51.56-5.38-78.41-7.72v3.05c27.56,2.42,54.18,5.16,80.27,7.92a6.62,6.62,0,0,1-1.93-1.86,5.29,5.29,0,0,1,0-1.08ZM203,346.46c-30.85-2.55-61.53-5.76-92.72-9.08,0,.09,0,.2,0,.29a3.07,3.07,0,0,0,1.82,2.57,7.78,7.78,0,0,0,1.34.53c30.11,3.2,59.75,6.28,89.54,8.77,1.09.09,2.18.35,3.23.49a5.28,5.28,0,0,0,2.78-.26v.06a21.47,21.47,0,0,0,3.23-1.58,30,30,0,0,0,3.68-2.56c3.4-2.74,7.07-5.88,10.82-9.18l0,0a14.09,14.09,0,0,0,3.22-3.71,5.42,5.42,0,0,0,.77-2.83c0-.12,0-.24,0-.36-5.16,4.47-10.27,8.81-14.85,12.49-1.23,1-2.47,1.92-3.64,2.69a16.26,16.26,0,0,1-3.2,1.75c0,.13,0,.26,0,.39a13.62,13.62,0,0,1-2.7-.07C205.24,346.78,204.1,346.55,203,346.46Zm12.61-51c4.08-2.11,8.61-4.54,13.24-7.05-.05-.91-.1-1.81-.14-2.72s-.1-2-.16-2.94l-3.49,1.91c-3.87,2.13-7.27,4-10.37,5.5a13.88,13.88,0,0,1-2.94,1,5.74,5.74,0,0,1-2.55.19v.67c-1.12,0-2.07,0-3.05-.05-1.22,0-2.49-.11-4.2-.23-5.44-.35-11.06-.74-16.8-1.14-.48.25-1,.55-1.52.89a25.9,25.9,0,0,0-2.5,1.88l-.07.06a25.11,25.11,0,0,0-2,1.95q11.88.94,23.77,1.77l3.28.21,2.7.17c0,.25,0,.51,0,.77a11.15,11.15,0,0,0,3.24-1C213.2,296.7,214.4,296.05,215.62,295.42Zm49.49-29,.95-.52c0-1.26,0-2.13,0-2.92-2.38,1.25-6.56,3.58-11.54,6.17l-4.5,2.36c0,1,0,2,0,3,0,.78,0,1.55,0,2.32,5-2.72,9.28-5,12.2-6.5l1.68-.82c.5-.24.93-.43,1.27-.57,0-.27,0-.55,0-1S265.11,266.92,265.11,266.4Zm-15.22,48.38a9.5,9.5,0,0,1-.4,1.13c5.15-4.7,9.62-8.72,12.68-11.21.64-.52,1.22-1,1.73-1.35a14.63,14.63,0,0,1,1.34-.91c0-1.29,0-2.09.09-2.81-.35.24-.77.56-1.27.95s-1.05.84-1.68,1.36c-2.89,2.38-7.14,6.12-12.07,10.48A10.51,10.51,0,0,1,249.89,314.78ZM.91,279.57l.81,0,1.86.08c.92,0,1.86.08,2.75.14,11.69.76,25.87,1.82,41.58,3.05l2,.18v0c0-.46,0-.92,0-1.36s0-1.07-.08-1.6c-16.31-1.26-31.16-2.36-43.46-3.17l-2.74-.18L1,276.54C.94,277.59.92,278.57.91,279.57Zm109.36,8.27V289c15.67,1.56,31.42,3.09,47.21,4.5-.33-.67-.64-1.32-1-2a3.54,3.54,0,0,1-.16-.34c-.45-.9-.91-1.85-1.39-2.81-14.71-1.11-29.78-2.29-44.66-3.47C110.29,285.85,110.28,286.86,110.27,287.84Z"/><path class="cls-9" d="M231.12,247.6a53,53,0,0,1-5.57,2c.2.48.37.95.51,1.34.07.19.14.37.2.5a1.19,1.19,0,0,1,0,.89,39.54,39.54,0,0,0,5.89-2.16c2.15-.92,4.43-1.92,6.62-2.68,1.25-.42,3.37-1.25,5.45-2.12s4.19-1.81,5.42-2.47a1.37,1.37,0,0,0-.07-.29,1.19,1.19,0,0,0-.32-.54,5,5,0,0,0-1.12-.86c-1.21.52-3.29,1.3-5.35,2s-4.14,1.48-5.37,1.91C235.26,245.92,233.12,246.8,231.12,247.6ZM84,269.8l-.14.1c1,.29,2,.59,3.06.79,2.36.47,4.77,1.31,7,1.42,3,.14,5.6.55,8.29.87a68.62,68.62,0,0,0,8.3.66c.1-4.06.26-8.11.45-12,.12-2.5.25-4.95.41-7.28,0-.54,0-1.07,0-1.59s0-.83,0-1.21c0-.23,0-.42,0-.63s0-.25,0-.37l-1.33,1-1.86,1.31c-1.74,1.21-3.62,2.5-5.72,4l-2.27,1.61-5.39,3.84c-1.76,1.24-3.57,2.5-5.74,4-.89.6-1.63,1.12-2.3,1.58Zm58-20c-.89,0-1.82,0-2.61.07.36,1.13.87,2.54,1.79,4.78s2.22,5.05,3.62,8c.89,0,1.91,0,2.88,0s2.09.07,3.16.11,2.23.12,3.26.17a40.51,40.51,0,0,0,4.13,0c1.18-.08,2.25-.11,3-.13s1.7.08,2.8.08,2.39.13,3.62.24a20.2,20.2,0,0,0,3.27.05c-.94-1.84-2-3.74-3.11-5.8-1.34-2.4-2.64-4.6-4-6.73-1-.16-2.2-.3-3.22-.39s-2.31-.14-3.36-.15-2.08,0-2.65,0-1.62-.13-2.74-.13-2.54-.16-3.91-.19c-.94,0-2-.08-3,0S142.87,249.78,142,249.77Zm-59.11-5c-2,1.06-4.3,2.4-6.55,3.7A12.68,12.68,0,0,1,79,249.75L82,252c1.13.85,2.33,1.75,3.32,2.53,1.15.91,2.19,1.57,3.1,2.2a12.19,12.19,0,0,1,2.33,1.94,9.9,9.9,0,0,0,2.23,1.74c1.84-1.28,3.68-2.51,5.63-3.86,3.05-2.13,5.82-3.93,8.31-5.62-.59-.61-1.26-1.23-1.83-1.9a15.79,15.79,0,0,0-1.89-1.81c-.74-.64-1.57-1.36-2.46-2.29-.73-.75-1.62-1.59-2.48-2.43s-1.69-1.67-2.3-2.39a10,10,0,0,0-1.86-1.59C90,240.7,86,243.09,82.87,244.76Zm99.3-40.64c-2.86.61-5.13,1.19-7.25,1.77,0,.2.11.5.19.84s.18.73.26,1.08.26,1,.42,1.55.34,1.13.5,1.73a27.14,27.14,0,0,0,.92,2.77c.37,1,.8,2,1.25,3.15a37.06,37.06,0,0,0,1.74,3.64,35.69,35.69,0,0,0,2.05,3.41c.95,1.34,2.11,3.17,3.34,5.11s2.53,4,3.75,5.86a24.1,24.1,0,0,0,1.86,2.35c.68.78,1.36,1.53,1.82,2.13.66.86,1.19,1.55,1.76,2.22,1.41-.14,2.79-.26,3.93-.39a13.82,13.82,0,0,0,1.56-.31c-.46-.78-.88-1.58-1.36-2.5-.34-.65-.75-1.4-1.18-2.2s-.85-1.62-1.23-2.43c-.94-2-2-4.3-3-6.47s-2-4.18-2.69-5.6a32,32,0,0,1-1.49-3.41c-.43-1.16-.8-2.32-1.12-3.47s-.57-2.2-.79-3.22-.41-2-.56-2.91c-.11-.64-.21-1.24-.3-1.81s-.17-1.09-.25-1.57-.12-.73-.18-1.08-.12-.65-.17-.87C184.61,203.68,183.31,203.88,182.17,204.12ZM69.38,213.36c1.55.16,3,.38,4,.55l.91.15.78.13c1.09.19,2.13.41,3.33.69.1-1.14.25-2.25.41-3.35s.32-2.21.41-3.35c.08-1,.15-1.83.22-2.7s.11-1.74.15-2.72c0-1.27.11-2.64.14-4s0-2.74-.08-4a41.69,41.69,0,0,1,.17-5.13,22.93,22.93,0,0,0-.26-5.93c-.15-.73-.29-1.36-.42-1.91s-.25-1-.36-1.42c-1.23-.3-2.55-.55-4.14-.87a21.22,21.22,0,0,0-3.3-.45c0,.43.16.94.26,1.53a11.25,11.25,0,0,1,.19,1.92c0,1.73,0,3.73,0,5.64s-.12,3.71-.24,5.07-.2,2.7-.29,4-.17,2.55-.33,3.81c-.13,1-.24,1.91-.35,2.83s-.22,1.83-.34,2.78c-.14,1.12-.31,2.18-.46,3.28S69.46,212.13,69.38,213.36Zm58.12,13.32a11.53,11.53,0,0,0-.29,1.35,2.17,2.17,0,0,0,.85.69,2,2,0,0,0,1.14-.1,13.74,13.74,0,0,1,.47-1.49c.22-.52.45-1.13.68-1.77a8.34,8.34,0,0,0-1.21-.43,4.27,4.27,0,0,0-1.11-.17C127.84,225.5,127.65,226.2,127.5,226.68Zm4.16,1.12a9.93,9.93,0,0,0-.53,1.33,2.52,2.52,0,0,0,.72.58,1,1,0,0,0,.87-.35,4.26,4.26,0,0,1,.4-1.39c.28-.56.68-1.25,1-2a3.06,3.06,0,0,0-.79-.09l-.84-.08C132.23,226.57,131.92,227.26,131.66,227.8Zm4.26,1.2a13.13,13.13,0,0,0-.71,1.47c.3-.21.61-.44.78-.38s.41.63.46,1.14c.23-.33.48-.69.79-1.19s.79-1.38,1.23-2.22a1.91,1.91,0,0,0-.92-.68c-.19,0-.35-.14-.54-.19C136.64,227.7,136.26,228.42,135.92,229Z"/><path class="cls-10" d="M71.77,188.14c0-1.91.06-3.91,0-5.64a11.25,11.25,0,0,0-.19-1.92c-.1-.59-.22-1.1-.26-1.53a5.32,5.32,0,0,0-2.42.39,13.72,13.72,0,0,0-1.8,1.09,12.77,12.77,0,0,1-1.75,1.06c-.06.45-.15,1-.26,1.55s-.26,1.24-.41,2c-.4,1.81-.94,3.91-1.49,5.95s-1.14,4-1.61,5.55-.92,3.13-1.34,4.67-.81,3-1.17,4.51c-.29,1.15-.56,2.27-.83,3.36l-.75,3.17c-.28,1.21-.58,2.27-.82,3.35s.38,2,.3,3.31a8.61,8.61,0,0,1,2.34-3.76,6.71,6.71,0,0,1,3.71-1.89l.33,0a29.21,29.21,0,0,1,6,.07c.08-1.23.22-2.36.38-3.45s.32-2.16.46-3.28c.12-.95.23-1.86.34-2.78s.22-1.85.35-2.83c.16-1.26.25-2.52.33-3.81s.16-2.62.29-4S71.73,190,71.77,188.14ZM136.26,237c-.42.18-.77.44-1.09.6.37.91.7,1.84,1,2.58s.75,1.91,1.16,3.11.81,2.45,1.11,3.44.55,2,.91,3.09c.79-.08,1.72-.07,2.61-.07s1.92.07,2.89,0,2,0,3,0c1.37,0,2.79.2,3.91.19s2.15.14,2.74.13,1.61,0,2.65,0,2.32.06,3.36.15,2.25.23,3.22.39a75.49,75.49,0,0,0-4.61-6.32,69.88,69.88,0,0,0-5.29-5.77c-.43-.42-.86-.82-1.28-1.22l1.91.46.85.78c.38.35.74.71,1.11,1.07.92.89,1.8,1.78,2.65,2.66l15.89,1.43.24,0c21.23,1.91,42.55,3.81,48.24,3.81l.09,0,.46.18.46.23a3.27,3.27,0,0,1,1.11,1.62h0a53,53,0,0,0,5.57-2c2-.8,4.14-1.68,6.31-2.46,1.23-.43,3.32-1.17,5.37-1.91s4.14-1.52,5.35-2a3.32,3.32,0,0,0-.47-.2,4.53,4.53,0,0,0-.87-.24,3.21,3.21,0,0,0-.36-.08,7.57,7.57,0,0,0-1,0l-1,0h0c-3.6,0-19.64-1.5-37.65-3.22.07.57.14,1.12.22,1.64,0,.16,0,.33.07.48a12,12,0,0,1-1.83.46c-.16-.94-.32-2-.49-3-.12-.76-.22-1.56-.33-2.38s-.2-1.66-.31-2.51c-.27-2.08-.48-4.24-.68-6.36s-.38-4.19-.59-6.12a32.3,32.3,0,0,1-.18-3.89c0-1.26,0-2.47,0-3.61s-.08-2.2-.12-3.22-.08-2-.16-2.87c0-.63-.09-1.23-.12-1.79s-.06-1.08-.1-1.56-.06-.74-.09-1.1a5.56,5.56,0,0,0-.12-.94c-.92.19-2,.41-3.13.63s-2.73.53-4.24.8-3.11.57-4.74.85c-1.22.22-2.56.41-3.88.61,0,.22.11.53.17.87s.13.73.18,1.08.16,1,.25,1.57.19,1.17.3,1.81c.15.91.33,1.88.56,2.91s.48,2.1.79,3.22.69,2.31,1.12,3.47a32,32,0,0,0,1.49,3.41c.71,1.42,1.67,3.44,2.69,5.6s2.08,4.48,3,6.47c.38.81.81,1.64,1.23,2.43s.84,1.55,1.18,2.2c.48.92.9,1.72,1.36,2.5a13.82,13.82,0,0,1-1.56.31c-1.14.13-2.52.25-3.93.39s-2.89.3-4.23.51a21.75,21.75,0,0,1-4.44.09c-1.72-.09-3.51-.27-5.21-.44-2.52-.26-5.7-.95-9-1.55s-6.69-1.45-9.69-2c-2.1-.41-4.14-.8-6.19-1.28s-3.94-.84-5.74-1.16c-1.37-.24-2.83-.53-4.21-.82a34.13,34.13,0,0,0-3.88-.63c-1.07-.1-2-.17-3-.23-.07.23-.15.45-.23.72h-.13a3.06,3.06,0,0,1-.29.21,11.49,11.49,0,0,0-1.11,1A5.84,5.84,0,0,1,136.26,237ZM90,233.45q-3.19-.57-6.18-1.21A98.94,98.94,0,0,1,71.91,229l-1.07-.4c-1.12-.42-2.18-.86-3.19-1.32a37.35,37.35,0,0,1-5.22,1.09l-.27,0a48.27,48.27,0,0,0-5.26,1.14,9.3,9.3,0,0,0-1,.35,36.91,36.91,0,0,1-6.9,1.72c-2.46.45-4.64.82-5.22,1.24,8.66-.06,19,1.11,29.42,2.34l8.68,1c3.82.43,7.59.82,11.23,1.12,1.17-.62,2.35-1.23,3.53-1.83l1.83-.91c-2.61-.26-5.33-.63-8.12-1.11Zm51.2,21.17c-.92-2.24-1.43-3.65-1.79-4.78-.78.08-1.49.11-1.92.2.23.69.53,1.53,1,2.65l.12.32c.19.51.41,1.08.66,1.73l.07.19c.85,2.18,2,5,3.31,7.86a14.42,14.42,0,0,1,2.21-.14C143.38,259.67,142.05,256.8,141.16,254.62Zm6.5,8c-1,0-2,0-2.88,0,1.41,3,2.9,6.06,4.14,8.66.73,1.54,1.58,3.18,2.43,4.81s1.69,3.25,2.42,4.74,1.61,3.23,2.41,4.83,1.58,3.16,2.3,4.65c1.5,3.08,3,6,4.35,8.86s2.67,5.49,3.82,8c.69-.46,1.34-1,2-1.42s1.38-1.07,2.11-1.7,1.43-1.29,2-1.84c.8-.79,1.43-1.48,2.06-2.2s1.25-1.45,2-2.32,1.37-1.51,2.05-2.23l.18-.18a25.11,25.11,0,0,1,2-1.95l.07-.06a25.9,25.9,0,0,1,2.5-1.88c-.77-1.61-1.47-3.27-2.2-5s-1.49-3.62-2.38-5.64c-.44-1-.88-2-1.34-3l-1.41-3.13c-.45-1-.88-2-1.32-3s-.91-2-1.43-3.07c-.87-1.79-1.75-3.57-2.7-5.41a20.2,20.2,0,0,1-3.27-.05c-1.23-.11-2.51-.24-3.62-.24s-2.11-.09-2.8-.08-1.78.05-3,.13a40.51,40.51,0,0,1-4.13,0c-1-.05-2.2-.13-3.26-.17S148.62,262.67,147.66,262.66Zm20.09-5.28c1.15,2.06,2.17,4,3.11,5.8,1-.07,1.76-.1,2.33-.13-.94-1.74-1.95-3.58-3.1-5.64l-.11-.19q-.57-1-1.11-2c-.92-1.59-1.8-3-2.75-4.43a12.73,12.73,0,0,1-2.41-.19C165.11,252.78,166.41,255,167.75,257.38Zm58.37-4.11h0a2.88,2.88,0,0,0,.44,1.26,3,3,0,0,1,.44,1.26c.14,2.17.27,4.36.4,6.55q.36,5.85.69,11.77.24,4.29.47,8.59c.06,1,.11,2,.16,2.94s.09,1.81.14,2.72c.07,1.5.15,3,.23,4.49.07,1.29.12,2.58.19,3.87q.25,5.25.49,10.5.18,4,.35,8.1.16,3.82.31,7.64c.09,2.23.17,4.46.25,6.67,0,.12,0,.24,0,.36a5.42,5.42,0,0,1-.77,2.83,39.56,39.56,0,0,0,5.88-4.39c1.95-1.7,3.85-3.47,5.91-5.26,1.21-1.05,2.76-2.75,4.47-4.49s3-3.24,3.7-3.91a10.51,10.51,0,0,0,.42-2.36,5.8,5.8,0,0,0,0-.59c-.08-1.67-.15-3.3-.2-4.91-.08-2.24-.13-4.42-.17-6.57q-.06-3.6-.06-7.07c0-3.08,0-6.1,0-9.1,0-1.69,0-3.39.05-5.08,0-.77,0-1.54,0-2.31s0-1.54,0-2.32c0-1,0-2,0-3,0-2.81,0-5.65,0-8.54,0-3.58-.13-7.25-.28-11.06-.08-1.77-.16-3.56-.27-5.4a6.26,6.26,0,0,1,.1-1.32,6.36,6.36,0,0,0,.1-1.32c0-.37,0-.68,0-1-1.23.66-3.35,1.6-5.42,2.47s-4.2,1.7-5.45,2.12c-2.19.76-4.47,1.76-6.62,2.68a39.54,39.54,0,0,1-5.89,2.16A2.84,2.84,0,0,0,226.12,253.27ZM82.87,244.76c3.13-1.67,7.12-4.06,11.19-6.27-.62-.44-1.12-.78-1.15-1-4.37,2.34-8.51,4.72-11.65,6.31-1.7.87-3.71,2-5.7,3.08-.36.19-.71.39-1.06.59.08.28.88.61,1.82,1C78.57,247.16,80.88,245.82,82.87,244.76Zm15.7,11.76c-1.95,1.35-3.79,2.58-5.63,3.86a6,6,0,0,1,2,1.84l5.39-3.84,2.27-1.61c2.1-1.47,4-2.76,5.72-4a6.6,6.6,0,0,0-1.4-1.9C104.39,252.59,101.62,254.39,98.57,256.52Zm6.48-7.52c.57.67,1.24,1.29,1.83,1.9,2.49-1.69,4.83-3.2,7-4.74,1-.73,2-1.45,3-2.16s1.87-1.41,2.76-2.07,1.88-1.48,2.73-2.14c0-.42-.11-.85-.14-1.24s-.09-.87-.15-1.37-.15-1-.21-1.61,0-1,0-1.59c0-.26,0-.54,0-.8a33,33,0,0,1-9.09,1.77c-1.23.09-2.53.15-3.88.17-2.45,0-5.08-.05-7.86-.26-2.33,1.13-4.71,2.38-7,3.63a10,10,0,0,1,1.86,1.59c.61.72,1.44,1.55,2.3,2.39s1.75,1.68,2.48,2.43c.89.93,1.72,1.65,2.46,2.29A15.79,15.79,0,0,1,105.05,249Zm19.29-10.18-.75.84c1.31.09,2.61.16,3.83.18,1.46,0,4.11.18,7.6.44-.17-.63-.42-1.41-.7-2.21a.69.69,0,0,1,0-.13c-.09-.23-.17-.45-.25-.68a1.8,1.8,0,0,0-.07.31l-.4-.54c-.12-.19-.26-.4-.41-.68l-.21-.45c-.08-.16-.16-.33-.25-.5a4,4,0,0,0-.38-.64,1.58,1.58,0,0,0-.44-.45,1.13,1.13,0,0,0-.69-.21c-.24,0-.52,0-.95,0l-.3,0-.52,0a5.64,5.64,0,0,1-.76-.08c-.41-.08-.68-.53-.92-1l-.15-.28-1.39-.07a.67.67,0,0,1-.06.12l-.14-.12h0c-.09.29-.18.59-.26.88s-.22.74-.32,1.11-.22.77-.33,1.15c0,0,0,.06,0,.09-.11.4-.21.79-.31,1.16,0,.1,0,.19-.07.29s-.11.45-.15.66S124.38,238.57,124.34,238.82ZM54.17,263.09c-2.09,1.32-4.07,2.67-6.84,4.26.25.71.48,1.43.69,2.17.08.3.18.72.28,1.18.2.89.41,2,.61,3.13.31,1.73.59,3.49.72,4.47.09.6.14,1.19.18,1.77s.06,1.06.08,1.6,0,.9,0,1.36v0c0,.74,0,1.51.08,2.37A25.23,25.23,0,0,1,50,288c3.07-1.68,7.48-4.37,12.19-7.38s9.77-6.21,14.13-8.92c2.28-1.42,4-2.48,5.57-3.58s3.19-2.21,5.26-3.7,3.91-2.77,5.76-4.05a9.9,9.9,0,0,1-2.23-1.74,12.19,12.19,0,0,0-2.33-1.94c-.91-.63-1.95-1.29-3.1-2.2-1-.78-2.19-1.68-3.32-2.53l-3-2.22a12.68,12.68,0,0,0-2.66-1.29c-2.25,1.3-4.37,2.6-6,3.58s-3.48,2.28-5.2,3.45-3.27,2.32-4.57,3.2C58.1,260.37,56.25,261.76,54.17,263.09Zm83.07-33c-.31.5-.56.86-.79,1.19,0,.51.06,1,.26,1.13.18-.25.37-.53.55-.81s.28-.39.41-.6.37-.59.58-.95c.42-.11.84-.21,1.28-.3.78-.14,1.54-.3,2.38-.53s1.78-.55,2.7-.88,1.81-.62,2.74-.86a30.23,30.23,0,0,0,3.33-1.16,22.89,22.89,0,0,1,3.45-1.13c1.84-.41,3.59-.72,5.38-1a31.32,31.32,0,0,0,1.78,2.84c.84,1.16,2.05,2.73,3.32,4.33-2.27.07-4.37.31-6.61.35-1.57,0-3.09,0-4.61-.11a35.64,35.64,0,0,0-4.37-.05c-1.09.06-2.24.07-3.38.07a26.54,26.54,0,0,0-3.2.16c-.91.1-1.84.19-2.72.31s-1.77.25-2.62.41c-.06.07-.14.07-.23.2l0,0a1.93,1.93,0,0,0-.13.31,24.43,24.43,0,0,1,2.84-.08l2.92.07a21.71,21.71,0,0,1,3.67.54,38.74,38.74,0,0,0,3.93.7,48.22,48.22,0,0,1,5.43,1.06c1.92.43,3.93.93,5.8,1.16,2.69.32,5.5.69,8.26,1s5.41.56,7.79.66c1.62.07,3.25.14,4.79.16-.72-.73-1.46-1.49-2-2.17-1.44-1.66-3-3.56-4.47-5.36s-2.84-3.52-3.9-4.82a34.75,34.75,0,0,1-2.25-3.21c-.76-1.21-1.49-2.47-2-3.53s-1-2-1.42-2.95-.77-1.8-1.05-2.61c-.2-.56-.39-1.11-.57-1.63s-.34-1-.48-1.47l-.27-.91c-.07-.27-.13-.5-.17-.68a35.72,35.72,0,0,0-4.52,1.42c-2.1.85-3.5,1.4-4.73,2a21.58,21.58,0,0,0-3.62,2.23,9.26,9.26,0,0,0-1.84,1.79,9.25,9.25,0,0,1-1.84,1.82c-.72.54-1.57,1.23-2.47,1.9a19.48,19.48,0,0,1-2.79,1.81,4.26,4.26,0,0,1-1,.36,2.21,2.21,0,0,1,.23.36c.05.08.1.17.16.25.18.3.36.55.62.6-.08.28-.15.52-.24.77l.41-.3c.84-.58,1.71-1.17,2.55-1.73s1.68-1.1,2.45-1.57a11.27,11.27,0,0,0,2.16-1.8,10.34,10.34,0,0,1,2.19-1.77,29.89,29.89,0,0,1,3.9-2c.17.44.36.9.54,1.37.26.67.6,1.4,1,2.18A42.72,42.72,0,0,0,152.2,220a10.4,10.4,0,0,0-2.68,1.77,10.84,10.84,0,0,1-2.61,1.81,25.24,25.24,0,0,0-2.47,1.28c-.84.47-1.65,1-2.53,1.35a11.64,11.64,0,0,1-1.77.56c-.19.34-.39.69-.6,1l-.39.67a2.69,2.69,0,0,1-.68-.68C138,228.66,137.59,229.45,137.24,230ZM83.85,269.9c-1,.72-2.08,1.44-3.53,2.4,0,.29,0,.57,0,.86.08,3.17.15,6.33.2,9.32,0,1,0,2,0,3,0,.19,0,.37,0,.55,0,1.08,0,2.14,0,3.14,0,3.67,0,7.67-.06,11.8,0,3.4,0,6.88-.07,10.36,0,3.87,0,7.73,0,11.42s.12,7.14.25,10.34a9.09,9.09,0,0,1,0,1.17l0,.31a16.4,16.4,0,0,0,6.4,3.07c2.55.68,5.19,1.26,7.32,1.62a70.25,70.25,0,0,0,9.42,1.09,62,62,0,0,0,8.29-.09,3.07,3.07,0,0,1-1.82-2.57c0-.09,0-.2,0-.29-.13-2.78-.18-6.85-.19-11.55,0-2.8,0-5.81,0-8.9,0-4.27,0-8.69.08-12.89s0-8,0-11.31c0-1.22,0-2.49,0-3.77v-1.12c0-1,0-2,0-3,0-3,.08-6.18.16-9.35,0-.62,0-1.23,0-1.85a68.62,68.62,0,0,1-8.3-.66c-2.69-.32-5.26-.73-8.29-.87-2.23-.11-4.64-.95-7-1.42C85.87,270.49,84.85,270.19,83.85,269.9Zm38.42-40.09c.39.22.71.41,1,.59a11.19,11.19,0,0,1,1.26.93,3.59,3.59,0,0,0,.3-.74c.06-.23.12-.47.22-.78s.18-.5.28-.75a4.64,4.64,0,0,0,.26-.82c.08-.39.18-.76.25-1.16a26.16,26.16,0,0,0-2.79-2.74c-2.09-1.74-4.63-3.76-7.45-5.93s-6-4.41-9.41-6.6c-1.86-1.2-3.59-2.35-5.46-3.44-.28-1-.58-2.09-.81-3.12-.29-1.35-.75-3.25-1.32-5.31,2.15,1.62,4.26,3.27,6.23,4.73,3.6,2.67,6.62,5.06,9.65,7.52s5.65,4.72,8.45,7.12a24.48,24.48,0,0,1,3,3.13c.5.62.9,1.18,1.23,1.68-.08.33-.17.66-.25,1l-.43,1.66a1.14,1.14,0,0,0,0,.65c.29.06.51.34.76.62a11.53,11.53,0,0,1,.29-1.35c.15-.48.34-1.18.53-1.92a4.27,4.27,0,0,1,1.11.17,8.34,8.34,0,0,1,1.21.43c-.23.64-.46,1.25-.68,1.77a13.74,13.74,0,0,0-.47,1.49,2,2,0,0,1-1.14.1,2.17,2.17,0,0,1-.85-.69c-.08.45-.14.88-.23,1.18s-.22.71-.34,1.07a2,2,0,0,0,.79.74,1.49,1.49,0,0,0,1-.19,1.78,1.78,0,0,1,1.18-.19c.12,0,.37.43.64.82s.52.79.66.83c.4.11.71-.14,1-.4s.6-.5.93-.37.25.45.28.83,0,.78.16.91.36-.09.63-.29.55-.41.69-.33.28.67.27,1.18c.28-.56.58-1.13.83-1.56a10.82,10.82,0,0,1,.68-1c0-.51-.14-1-.46-1.14s-.48.17-.78.38a13.13,13.13,0,0,1,.71-1.47c.34-.58.72-1.3,1.09-2.05.19.05.35.14.54.19a1.91,1.91,0,0,1,.92.68c.44-.83.89-1.72,1.28-2.48s.57-1.16.76-1.61a2.27,2.27,0,0,0-1-.74,3.29,3.29,0,0,0-.73-.07c-.25,0-.54,0-.8,0s-.72.07-1,.07a3.48,3.48,0,0,1-.82,0,3.17,3.17,0,0,1-.55-.28,2.89,2.89,0,0,0-1-.27l-.75,0H133a3.5,3.5,0,0,1-1.53-.43,5.29,5.29,0,0,0-1.41-.56,5,5,0,0,0-1.15-.1,1.75,1.75,0,0,0-1.15.68c.09-.37.15-.7.23-1.05a3.21,3.21,0,0,1,.74-.5,3.29,3.29,0,0,1,.39-.17,2.17,2.17,0,0,1,.35-.07,26.94,26.94,0,0,0-2-3.77,31.46,31.46,0,0,0-4.08-5.2,98.29,98.29,0,0,0-8.61-7.68c-3.09-2.46-6.53-5-10.66-7.86-2.26-1.59-5.16-3.68-8-5.7s-5.74-4-7.91-5.3c-1.29-.79-2.32-1.4-3.22-1.91a10.58,10.58,0,0,0,.77,1.42,12.8,12.8,0,0,1,1,2.06,55.78,55.78,0,0,1,1.93,7.07c.53,2.41.93,4.65,1.22,6,.22,1.17.4,2.45.51,3.73s.17,2.56.18,3.74v2.64c0,.86,0,1.7-.06,2.59-.05,1-.12,2-.2,3s-.18,1.94-.28,3c2.08.64,4.06,1.26,5.18,1.58,1.88.55,4.2,1.28,6.51,2,1.24.4,2.48.81,3.64,1.21l2.71.94,1.33.48c2.64.95,4.9,1.8,6.87,2.62A60.52,60.52,0,0,1,122.27,229.81Zm8.86-.68a9.93,9.93,0,0,1,.53-1.33c.26-.54.57-1.23.88-2l.84.08a3.06,3.06,0,0,1,.79.09c-.37.71-.77,1.4-1,2a4.26,4.26,0,0,0-.4,1.39,1,1,0,0,1-.87.35A2.52,2.52,0,0,1,131.13,229.13Zm-14.84-3.84c-2.37-1.24-5.07-2.56-8.29-3.93-1.77-.76-3.89-1.61-6.09-2.41a27,27,0,0,0,.15-2.7,17.56,17.56,0,0,0-.22-2.36c2,.93,4,1.9,5.81,2.87,3.26,1.76,6,3.56,8.59,5.27a10.43,10.43,0,0,1,0,1.58C116.24,224.23,116.28,224.77,116.29,225.29Z"/><path class="cls-11" d="M226.71,336.54l0,0a45.42,45.42,0,0,0,7.06-5.12c2.18-1.87,4.17-3.78,6-5.38,1-.88,2.72-2.6,4.41-4.26a57.84,57.84,0,0,1,4.24-3.94,7.59,7.59,0,0,0,1.06-1.9,9.5,9.5,0,0,0,.4-1.13c-.69.67-2,2.18-3.7,3.91s-3.26,3.44-4.47,4.49c-2.06,1.79-4,3.56-5.91,5.26a39.56,39.56,0,0,1-5.88,4.39A14.09,14.09,0,0,1,226.71,336.54Zm-146-2a5.29,5.29,0,0,0,0,1.08,6.62,6.62,0,0,0,1.93,1.86A18.91,18.91,0,0,0,87,339.58a45.09,45.09,0,0,0,8,1.8,84.78,84.78,0,0,0,11.47.66,38.36,38.36,0,0,0,8.84-.84,13.29,13.29,0,0,1-1.86-.43,7.78,7.78,0,0,1-1.34-.53,62,62,0,0,1-8.29.09,70.25,70.25,0,0,1-9.42-1.09c-2.13-.36-4.77-.94-7.32-1.62A16.4,16.4,0,0,1,80.7,334.55Zm83-83.9a12.73,12.73,0,0,0,2.41.19c-.71-1-1.45-2.05-2.28-3.09s-1.57-1.93-2.49-3c-.7-.78-1.48-1.62-2.3-2.47s-1.73-1.77-2.65-2.66c-.37-.36-.73-.72-1.11-1.07l-.85-.78-1.91-.46c.42.4.85.8,1.28,1.22a69.88,69.88,0,0,1,5.29,5.77A75.49,75.49,0,0,1,163.71,250.65Zm-18.93,12a14.42,14.42,0,0,0-2.21.14l.58,1.29c1.14,2.57,2.33,5.16,3.38,7.41.74,1.56,1.6,3.26,2.47,4.95l1.06,2.05c.5,1,1,1.94,1.44,2.84.8,1.64,1.64,3.33,2.47,5l1,2c.48,1,.94,1.91,1.39,2.81a3.54,3.54,0,0,0,.16.34c.33.68.64,1.33,1,2,1.11,2.3,2.18,4.54,3.18,6.68,1.34,2.88,2.6,5.62,3.79,8.26a13,13,0,0,0,2.2-1.21c-1.15-2.5-2.44-5.17-3.82-8s-2.85-5.78-4.35-8.86c-.72-1.49-1.5-3-2.3-4.65s-1.62-3.22-2.41-4.83-1.58-3.11-2.42-4.74-1.7-3.27-2.43-4.81C147.68,268.71,146.19,265.62,144.78,262.65Zm28.41.4c-.57,0-1.37.06-2.33.13.95,1.84,1.83,3.62,2.7,5.41.52,1.07,1,2.08,1.43,3.07s.87,2,1.32,3l1.41,3.13c.46,1,.9,2,1.34,3,.89,2,1.65,3.88,2.38,5.64s1.43,3.42,2.2,5c.53-.34,1-.64,1.52-.89a9.92,9.92,0,0,1,1-.45c-.72-1.58-1.43-3.2-2.19-4.9-.63-1.39-1.3-2.86-2-4.39-.15-.33-.3-.64-.46-1-.43-.91-.91-1.86-1.4-2.84s-1-2-1.49-3-.86-1.88-1.3-2.85-.89-2-1.41-3l-.9-1.75C174.38,265.3,173.8,264.2,173.19,263.05ZM46.48,265.22c.31.71.59,1.41.85,2.13,2.77-1.59,4.75-2.94,6.84-4.26s3.93-2.72,6.41-4.4c1.3-.88,2.85-2,4.57-3.2s3.48-2.4,5.2-3.45,3.72-2.28,6-3.58c-.94-.38-1.74-.71-1.82-1l-.79.44-2.79,1.61c-.94.54-1.8,1-2.51,1.48-1.67,1-3.59,2.31-5.39,3.57l-4.19,3-.48.33c-2.27,1.54-3.88,2.6-5.6,3.66S49.2,263.65,46.48,265.22ZM50,288c0,.7-.05,1.48,0,3,2.8-1.53,7-4,11.64-6.88L62,284l1.21-.75c1-.61,2-1.24,3-1.88,4.3-2.69,8.69-5.49,12.46-8l.51-.33,1.16-.77c1.45-1,2.51-1.68,3.53-2.4l.14-.1,2.87-2c.67-.46,1.41-1,2.3-1.58,2.17-1.49,4-2.75,5.74-4a6,6,0,0,0-2-1.84c-1.85,1.28-3.73,2.57-5.76,4.05s-3.65,2.6-5.26,3.7-3.29,2.16-5.57,3.58c-4.36,2.71-9.42,5.91-14.13,8.92S53.1,286.33,50,288Zm64.65-39.94c.94-.76,1.86-1.55,2.74-2.33s1.73-1.58,2.52-2.34,1.73-1.71,2.47-2.48l1.18-1.26.75-.84c0-.25.09-.53.16-.82s.1-.44.15-.66,0-.19.07-.29c.1-.37.2-.76.31-1.16,0,0,0-.06,0-.09.11-.38.21-.76.33-1.15s.21-.74.32-1.11.17-.59.26-.88h0l.14.12a.67.67,0,0,0,.06-.12l1.39.07.15.28c.24.46.51.91.92,1a5.64,5.64,0,0,0,.76.08l.52,0,.3,0c.43,0,.71,0,.95,0a1.13,1.13,0,0,1,.69.21,1.58,1.58,0,0,1,.44.45,4,4,0,0,1,.38.64c.09.17.17.34.25.5l.21.45c.15.28.29.49.41.68l.4.54a1.8,1.8,0,0,1,.07-.31c.08.23.16.45.25.68a.69.69,0,0,0,0,.13c.28.8.53,1.58.7,2.21,0,.13.07.26.1.37.17.71.44,1.86.72,3.07s.57,2.49.8,3.43a29.89,29.89,0,0,0,.81,2.89c.43-.09,1.14-.12,1.92-.2-.36-1.13-.57-2-.91-3.09s-.7-2.24-1.11-3.44-.83-2.34-1.16-3.11-.65-1.67-1-2.58c.32-.16.67-.42,1.09-.6a5.84,5.84,0,0,0,1.19-.93,11.49,11.49,0,0,1,1.11-1,3.06,3.06,0,0,0,.29-.21H139c.08-.27.16-.49.23-.72,1,.06,1.94.13,3,.23a34.13,34.13,0,0,1,3.88.63c1.38.29,2.84.58,4.21.82,1.8.32,3.69.68,5.74,1.16s4.09.87,6.19,1.28c3,.59,6.42,1.45,9.69,2s6.45,1.29,9,1.55c1.7.17,3.49.35,5.21.44a21.75,21.75,0,0,0,4.44-.09c1.34-.21,2.82-.37,4.23-.51-.57-.67-1.1-1.36-1.76-2.22-.46-.6-1.14-1.35-1.82-2.13a24.1,24.1,0,0,1-1.86-2.35c-1.22-1.84-2.52-3.91-3.75-5.86s-2.39-3.77-3.34-5.11a35.69,35.69,0,0,1-2.05-3.41,37.06,37.06,0,0,1-1.74-3.64c-.45-1.11-.88-2.16-1.25-3.15a27.14,27.14,0,0,1-.92-2.77c-.16-.6-.33-1.18-.5-1.73s-.31-1.06-.42-1.55-.17-.73-.26-1.08-.15-.64-.19-.84c-2.13.58-4.1,1.15-6.36,1.74-1.78.47-3.47.85-5.07,1.26,0,.18.1.41.17.68l.27.91q.21.69.48,1.47c.18.52.37,1.07.57,1.63q.42,1.21,1.05,2.61c.41.93.89,1.91,1.42,2.95s1.27,2.32,2,3.53a34.75,34.75,0,0,0,2.25,3.21c1.06,1.3,2.43,3,3.9,4.82s3,3.7,4.47,5.36c.58.68,1.32,1.44,2,2.17-1.54,0-3.17-.09-4.79-.16-2.38-.1-5-.35-7.79-.66s-5.57-.69-8.26-1c-1.87-.23-3.88-.73-5.8-1.16a48.22,48.22,0,0,0-5.43-1.06,38.74,38.74,0,0,1-3.93-.7,21.71,21.71,0,0,0-3.67-.54l-2.92-.07a24.43,24.43,0,0,0-2.84.08,1.93,1.93,0,0,1,.13-.31l0,0c.09-.13.17-.13.23-.2.85-.16,1.74-.28,2.62-.41s1.81-.21,2.72-.31a26.54,26.54,0,0,1,3.2-.16c1.14,0,2.29,0,3.38-.07a35.64,35.64,0,0,1,4.37.05c1.52.11,3,.14,4.61.11,2.24,0,4.34-.28,6.61-.35-1.27-1.6-2.48-3.17-3.32-4.33a31.32,31.32,0,0,1-1.78-2.84c-1.79.31-3.54.62-5.38,1a22.89,22.89,0,0,0-3.45,1.13,30.23,30.23,0,0,1-3.33,1.16c-.93.24-1.82.54-2.74.86s-1.81.63-2.7.88-1.6.39-2.38.53c-.44.09-.86.19-1.28.3-.21.36-.42.69-.58.95s-.27.4-.41.6-.37.56-.55.81c-.2-.1-.22-.62-.26-1.13a10.82,10.82,0,0,0-.68,1c-.25.43-.55,1-.83,1.56,0-.51,0-1-.27-1.18s-.42.13-.69.33-.53.39-.63.29-.13-.52-.16-.91-.08-.75-.28-.83-.61.11-.93.37-.62.51-1,.4c-.14,0-.4-.44-.66-.83s-.52-.79-.64-.82a1.78,1.78,0,0,0-1.18.19,1.49,1.49,0,0,1-1,.19,2,2,0,0,1-.79-.74c.12-.36.25-.75.34-1.07s.15-.73.23-1.18c-.25-.28-.47-.56-.76-.62a1.14,1.14,0,0,1,0-.65l.43-1.66c.08-.32.17-.65.25-1-.33-.5-.73-1.06-1.23-1.68a24.48,24.48,0,0,0-3-3.13c-2.8-2.4-5.41-4.66-8.45-7.12s-6-4.85-9.65-7.52c-2-1.46-4.08-3.11-6.23-4.73.57,2.06,1,4,1.32,5.31.23,1,.53,2.08.81,3.12,1.87,1.09,3.6,2.24,5.46,3.44,3.39,2.19,6.58,4.43,9.41,6.6s5.36,4.19,7.45,5.93a26.16,26.16,0,0,1,2.79,2.74c-.07.4-.17.77-.25,1.16a4.64,4.64,0,0,1-.26.82c-.1.25-.2.49-.28.75s-.16.55-.22.78a3.59,3.59,0,0,1-.3.74,11.19,11.19,0,0,0-1.26-.93c-.28-.18-.6-.37-1-.59a60.52,60.52,0,0,0-6.11-2.89c-2-.82-4.23-1.67-6.87-2.62l-1.33-.48-2.71-.94c-1.16-.4-2.4-.81-3.64-1.21-2.31-.75-4.63-1.48-6.51-2-1.12-.32-3.1-.94-5.18-1.58.1-1.05.19-2,.28-3s.15-1.94.2-3c0-.89,0-1.73.06-2.59v-2.64c0-1.18-.07-2.46-.18-3.74s-.29-2.56-.51-3.73c-.29-1.4-.69-3.64-1.22-6a55.78,55.78,0,0,0-1.93-7.07,12.8,12.8,0,0,0-1-2.06,10.58,10.58,0,0,1-.77-1.42,24.46,24.46,0,0,0-2.46-1.23,21.41,21.41,0,0,0-3.58-1.18c.11.41.23.87.36,1.42s.27,1.18.42,1.91a22.93,22.93,0,0,1,.26,5.93,41.69,41.69,0,0,0-.17,5.13c.1,1.25.1,2.62.08,4s-.1,2.74-.14,4c0,1-.09,1.85-.15,2.72s-.14,1.73-.22,2.7c-.09,1.14-.25,2.25-.41,3.35s-.31,2.21-.41,3.35c-1.2-.28-2.24-.5-3.33-.69l-.78-.13-.91-.15c-1.06-.17-2.48-.39-4-.55a29.21,29.21,0,0,0-6-.07,15.78,15.78,0,0,0-2,.66,7.82,7.82,0,0,0-1.66.91A8.6,8.6,0,0,0,58.4,216a6.58,6.58,0,0,0-.64.86,3.91,3.91,0,0,0-.39.84,1.85,1.85,0,0,0,.08,1.46,10.57,10.57,0,0,0,.89,1.32,8.7,8.7,0,0,0,.6.76c.22.24.45.47.67.69l.21.19.23.21a25.29,25.29,0,0,0,7.5,4.93l.1,0c1,.46,2.07.9,3.19,1.32l1.07.4a98.94,98.94,0,0,0,11.87,3.21q3,.64,6.18,1.21l.4.07c2.79.48,5.51.85,8.12,1.11l-1.83.91c-1.18.6-2.36,1.21-3.53,1.83l-.21.12c0,.22.53.56,1.15,1,2.3-1.25,4.68-2.5,7-3.63,2.78.21,5.41.3,7.86.26,1.35,0,2.65-.08,3.88-.17a33,33,0,0,0,9.09-1.77c0,.26,0,.54,0,.8,0,.57,0,1.13,0,1.59s.14,1.12.21,1.61.13,1,.15,1.37.09.82.14,1.24c-.85.66-1.71,1.37-2.73,2.14s-1.77,1.36-2.76,2.07-2,1.43-3,2.16c-2.2,1.54-4.54,3.05-7,4.74a6.6,6.6,0,0,1,1.4,1.9l1.86-1.31,1.33-1,.41-.31C112.84,249.51,113.77,248.8,114.68,248.07Zm89.57-48c-.62.16-1.41.35-2.33.55a5.56,5.56,0,0,1,.12.94c0,.36.05.75.09,1.1s.07,1,.1,1.56.07,1.16.12,1.79c.08.88.12,1.84.16,2.87s.07,2.09.12,3.22,0,2.35,0,3.61a32.3,32.3,0,0,0,.18,3.89c.21,1.93.4,4,.59,6.12s.41,4.28.68,6.36c.11.85.21,1.69.31,2.51s.21,1.62.33,2.38c.17,1.08.33,2.1.49,3a12,12,0,0,0,1.83-.46c0-.15-.05-.32-.07-.48-.08-.52-.15-1.07-.22-1.64l-.09-.82c-.08-.75-.16-1.53-.23-2.34s-.13-1.47-.19-2.23c0-.09,0-.17,0-.26-.06-.76-.11-1.54-.16-2.32-.09-1.37-.17-2.75-.25-4.15-.11-2.18-.21-4.36-.3-6.42-.05-1.38-.1-2.69-.14-3.93s-.07-2.4-.1-3.5-.06-2.09-.1-3-.08-1.84-.13-2.66c0-.59-.08-1.15-.13-1.67s-.1-1-.17-1.5-.14-.85-.24-1.33ZM152.2,220a42.72,42.72,0,0,1,4.44-1.48c-.38-.78-.72-1.51-1-2.18-.18-.47-.37-.93-.54-1.37a29.89,29.89,0,0,0-3.9,2,10.34,10.34,0,0,0-2.19,1.77,11.27,11.27,0,0,1-2.16,1.8c-.77.47-1.61,1-2.45,1.57s-1.71,1.15-2.55,1.73l-.41.3c.09-.25.16-.49.24-.77-.26,0-.44-.3-.62-.6-.06-.08-.11-.17-.16-.25a2.21,2.21,0,0,0-.23-.36,1.27,1.27,0,0,0-.68-.58,2.26,2.26,0,0,0-.76-.06c-.28,0-.58.05-.88.09l-1.09.2a2.84,2.84,0,0,1-.76.06,2.12,2.12,0,0,1-.55-.27,3,3,0,0,0-1.1-.3,4.79,4.79,0,0,0-.68,0c-.26,0-.56,0-.9.05a2.76,2.76,0,0,1-1.56-.53,4.28,4.28,0,0,0-1.43-.68,2.91,2.91,0,0,0-.88,0,2.17,2.17,0,0,0-.35.07,3.29,3.29,0,0,0-.39.17,3.21,3.21,0,0,0-.74.5c-.08.35-.14.68-.23,1.05a1.75,1.75,0,0,1,1.15-.68,5,5,0,0,1,1.15.1,5.29,5.29,0,0,1,1.41.56,3.5,3.5,0,0,0,1.53.43h.91l.75,0a2.89,2.89,0,0,1,1,.27,3.17,3.17,0,0,0,.55.28,3.48,3.48,0,0,0,.82,0c.31,0,.69-.06,1-.07s.55,0,.8,0a3.29,3.29,0,0,1,.73.07,2.27,2.27,0,0,1,1,.74c-.19.45-.44,1-.76,1.61s-.84,1.65-1.28,2.48a2.69,2.69,0,0,0,.68.68l.39-.67c.21-.35.41-.7.6-1a11.64,11.64,0,0,0,1.77-.56c.88-.4,1.69-.88,2.53-1.35a25.24,25.24,0,0,1,2.47-1.28,10.84,10.84,0,0,0,2.61-1.81A10.4,10.4,0,0,1,152.2,220Zm-50.36-6.13a17.56,17.56,0,0,1,.22,2.36,27,27,0,0,1-.15,2.7c2.2.8,4.32,1.65,6.09,2.41,3.22,1.37,5.92,2.69,8.29,3.93,0-.52-.05-1.06,0-1.68a10.43,10.43,0,0,0,0-1.58c-2.54-1.71-5.33-3.51-8.59-5.27C105.87,215.79,103.86,214.82,101.84,213.89Z"/><path class="cls-5" d="M463.56,337.16c0,2.88-.09,5.64-.18,8.16a5.62,5.62,0,0,0,0,.92c18.55-2.13,37.45-4.24,57-6.08,0-.81,0-1.62,0-2.44q0-3.21.06-6.5t.08-6.62c.05-3.44.1-6.91.15-10.35s.09-6.89.13-10.27c0-.28,0-.55,0-.83l-1.35.07-2,.1c-8.48.61-18.77,1.44-30.16,2.4l-1.52.15c0,.59,0,1.19-.06,1.87,0,1,0,1.49,0,2s0,1.16,0,2.39c-2-1.21-5.09-3.18-8.45-5.43l-13.76,1.46c0,.85,0,1.68,0,2.47,0,2.9,0,6.06,0,9.32,0,2.68,0,5.42,0,8.17C463.59,331.21,463.59,334.25,463.56,337.16Zm13.14-74.41.15,0-3.87-.92-.07,0A26.23,26.23,0,0,0,476.7,262.75Zm-147.4,4.53-.45-.2c0,.84.13.29.12.9,2,.95,4.89,2.44,8.29,4.19l3.47,1.78a1,1,0,0,1,.23-.43,4.06,4.06,0,0,1,.81-.68,2.84,2.84,0,0,1,.35-.16,4,4,0,0,1,.63-.19l.26-.06c.17,0,.47,0,.76,0s.55,0,.75,0h0c2.61,0,14.26-1.18,27.35-2.54,0-.21,0-.42.07-.64.06-.59.11-1.21.16-1.85s.1-1.16.14-1.76c0-.07,0-.14,0-.21,0-.59.08-1.21.12-1.82l-4.15.35c-11.16.94-22.82,1.85-35.26,2.65-.76.05-1.43.12-2.1.18s-1.36.13-2.12.17C328.87,267,329.08,267.15,329.3,267.28ZM462.56,269c-2.78.34-5.52.65-8.16.88l.16.09c3.17,1.85,6.18,3.73,8.46,5,1.23.68,2.7,1.54,4.14,2.42l.77.47.58.35,2,1.26,1.83,1.17c1.21.78,2.6,1.82,3.91,2.82,1.15.88,2.21,1.71,3.05,2.34l.34.26c1.65,1.22,2.82,2.05,4.07,2.88s2.58,1.68,4.56,2.92c-.23.56-.43,1.11-.62,1.68s-.35,1.13-.5,1.71c-.06.24-.13.57-.2.94-.14.69-.3,1.56-.45,2.46-.22,1.37-.42,2.75-.52,3.53-.06.47-.1.93-.13,1.4,11.85-1,22.63-1.87,31.58-2.51l2-.14,1.93-.14c0-.82,0-1.71,0-2.74,0-1.49,0-3,0-4.6s0-3.19.06-4.86c0-2.06.09-4.17.14-6.19s.09-3.93.1-5.59c0-.47,0-1,0-1.51s0-1,0-1.41c-.79.05-4.15-1.45-5.52-1.77l-35.42-8.36c.26.09.51.18.71.27a25,25,0,0,0,5,1.36,15.42,15.42,0,0,1,3.79,1c-6.29,0-13.81.88-21.37,1.85ZM367.9,354.59a11.78,11.78,0,0,0,2.32,1.38v.31a8.63,8.63,0,0,0,2-.06c.77-.09,1.6-.26,2.39-.33,22.41-2,44.7-4.55,67.36-7.17.09-2.2.13-5.4.14-9.11,0-2.21,0-4.58,0-7,0-3.37,0-6.86-.07-10.16s0-6.32,0-8.93v-3c-11.39,1.22-22.83,2.43-34.3,3.54-.81,1.82-1.58,3.59-2.31,5.28-1,2.27-1.89,4.43-2.76,6.51a9.46,9.46,0,0,1-1.59-1c-.5-.36-1-.75-1.44-1.11s-1-.85-1.53-1.35-1-1-1.44-1.44c-.58-.63-1-1.17-1.49-1.74s-.92-1.14-1.5-1.83-1-1.19-1.48-1.76l-.13-.15q-8.64.76-17.27,1.4l-2.39.17-1.9.13a.34.34,0,0,1,0,.1h0s0-.05,0-.08A6.16,6.16,0,0,1,368,317c0,.44,0,.88,0,1.27v6.27c0,2,0,4,0,5.95v3.7c0,1.24,0,2.49,0,3.74v7.67q0,1.51,0,3.12V352C367.94,353,367.92,353.76,367.9,354.59Zm95.79-56.53c-.06,2.51-.11,5-.15,7.36l10.43-.9c-3.12-2.12-6.31-4.32-9.06-6.27l-.36-.26-.85-.6C463.7,297.61,463.69,297.84,463.69,298.06ZM409.48,310c10.69-.87,21.63-1.8,32.44-2.73,0-2.4-.06-4.88-.11-7.38l0-1.46c-.08-3.2-.19-6.4-.33-9.49-.09-2-.18-3.9-.3-5.74,0-.43,0-.85,0-1.25s0-.66,0-1,0-.33,0-.49,0-.21,0-.3l-.31-.24c-.69-.56-1.37-1.12-2-1.7s-1.35-1.22-2-1.84-1.26-1.24-1.83-1.84-1.26-1.35-1.8-2c-.31-.35-.59-.68-.85-1-1,.07-1.89.13-2.78.14-1.06,0-3,.14-5.53.35,0,.1,0,.2-.07.29-.12.56-.32,1.47-.52,2.42s-.42,2-.58,2.7-.33,1.44-.59,2.28c-.17.55-.39,1.22-.7,2.1,0,.08-.05.16-.08.25-.15.41-.3.85-.48,1.36l-.06.15c-.61,1.72-1.47,3.92-2.4,6.2l-.42,1c-.83,2-1.69,4.07-2.46,5.85-.53,1.23-1.16,2.57-1.79,3.9l-.77,1.62c-.37.77-.72,1.53-1,2.24-.59,1.29-1.2,2.63-1.8,3.93C410,309,409.72,309.49,409.48,310Zm-51.8-29.1a1,1,0,0,0,0,.7,2.58,2.58,0,0,1,.11.76l.23.11c2.92,1.39,5.57,2.59,7.93,3.63a20.92,20.92,0,0,0,2.06.75c0,.47,0,.92,0,1.57,0,2.31.06,4.31.12,6.26s.12,3.86.15,6c0,1.38,0,2.74,0,4.18s0,3,0,4.67c0,.86,0,1.77,0,2.68,0,.17,0,.34,0,.51l.2.05a7.08,7.08,0,0,0,1,.16,1.62,1.62,0,0,0,.57,0c.85,0,1.57,0,2.3,0,.89,0,1.81-.09,3.05-.18,4-.28,8-.59,12.21-.9a6.62,6.62,0,0,0-.69-.36c.52-1.24,1-2.52,1.59-3.86.46-1.1.94-2.26,1.46-3.47.11-.25.22-.5.33-.77.31-.71.66-1.47,1-2.24s.73-1.56,1.08-2.35.63-1.48.95-2.25.65-1.55,1-2.35c.22-.46.44-.92.65-1.38.42-.87.84-1.74,1.29-2.64.68-1.38,1.41-2.82,2.25-4.45a1.09,1.09,0,0,1,.08-.15c.27-.54.54-1.05.8-1.54.67-1.25,1.31-2.39,2-3.49.51-.82,1.06-1.62,1.65-2.45s1.15-1.52,1.82-2.33c.51-.62,1.08-1.28,1.67-1.95L395,274.86l-.17,0c-15.43,1.51-30.91,3-35.05,3l-.07,0-.32.14a1.83,1.83,0,0,0-.34.18,2.66,2.66,0,0,0-.81,1.27v0c-.14.37-.26.75-.37,1S357.72,280.81,357.68,280.91Z"/><path class="cls-12" d="M463.51,308.2l13.76-1.46-.22-.14-.88-.59-2.2-1.49-10.43.9c0,.8,0,1.58,0,2.35Zm-55.86,5.87c11.47-1.11,22.91-2.32,34.3-3.54,0-.3,0-.59,0-.88,0-.78,0-1.58,0-2.37-10.81.93-21.75,1.86-32.44,2.73l-1,2.22-.12.27C408.11,313,407.89,313.55,407.65,314.07Zm54.4,34.74c19-2.18,38.3-4.34,58.32-6.25v-2.4c-19.51,1.84-38.41,3.95-57,6.08,0,.08,0,.17,0,.25a4.36,4.36,0,0,1,0,.85A5.14,5.14,0,0,1,462.05,348.81Zm-107.58-6.19a2.62,2.62,0,0,0,0,.28,4.62,4.62,0,0,0,.55,2.23,11.11,11.11,0,0,0,2.35,2.93l-.05,0c2.73,2.6,5.4,5.08,7.87,7.25a22.2,22.2,0,0,0,2.67,2,15.28,15.28,0,0,0,2.35,1.25v0a3.61,3.61,0,0,0,2,.2c.76-.11,1.56-.32,2.35-.39,21.64-2,43.17-4.39,65.05-6.91a5.61,5.61,0,0,0,1-.43,2.4,2.4,0,0,0,1.33-2,1.77,1.77,0,0,1,0-.23c-22.66,2.62-44.95,5.16-67.36,7.17-.79.07-1.62.24-2.39.33a8.63,8.63,0,0,1-2,.06V356a11.78,11.78,0,0,1-2.32-1.38c0-.83,0-1.63.05-2.55v-3.28q0-1.61,0-3.12V338c0-1.25,0-2.5,0-3.74v-3.7c0-1.94,0-3.92,0-5.95v-6.27c0-.39,0-.83,0-1.27a6.16,6.16,0,0,0,2.41.2s0,.05,0,.08h0a.34.34,0,0,0,0-.1l1.9-.13,2.39-.17q8.64-.63,17.27-1.4c-.46-.52-.93-1-1.47-1.53l-.06-.05a16.21,16.21,0,0,0-1.81-1.48c-.38-.27-.75-.5-1.1-.7-4.17.31-8.25.62-12.21.9-1.24.09-2.16.15-3.05.18-.73,0-1.45,0-2.3,0a1.62,1.62,0,0,1-.57,0,7.08,7.08,0,0,1-1-.16l-.2-.05c0-.17,0-.34,0-.51,0-.91,0-1.82,0-2.68,0-1.7,0-3.22,0-4.67s0-2.8,0-4.18c0-2.12-.09-4-.15-6s-.11-3.95-.12-6.26c0-.65,0-1.1,0-1.57a20.92,20.92,0,0,1-2.06-.75c-2.36-1-5-2.24-7.93-3.63l-.23-.11h0a2.46,2.46,0,0,1-.32,1,2.56,2.56,0,0,0-.32,1c-.1,1.71-.2,3.44-.29,5.16q-.25,4.62-.5,9.29-.18,3.39-.34,6.78l-.12,2.32c0,.71-.06,1.43-.1,2.14-.05,1.18-.11,2.36-.17,3.54,0,1-.09,2-.13,3.06q-.19,4.14-.36,8.27c-.09,2.14-.17,4.27-.26,6.39s-.15,4-.22,6C354.59,339.11,354.52,340.87,354.47,342.62Zm165-39.4,1.35-.07.58,0c0-.79,0-1.56,0-2.39l-1.93.14-2,.14c-9,.64-19.73,1.51-31.58,2.51q0,.62-.06,1.26c0,.34,0,.71,0,1.07v0l1.52-.15c11.39-1,21.68-1.79,30.16-2.4Zm-190-10.49V294c0,.32-.1,26.19-.1,27.21a11.31,11.31,0,0,1,1,.72c.38.3.8.65,1.26,1.06,2.23,2,5.47,5.14,9.21,8.85a9.43,9.43,0,0,1-.29-.9,9.06,9.06,0,0,1-.3-1.86,3.53,3.53,0,0,1,0-.46c.06-1.32.1-2.6.14-3.88.06-1.76.1-3.49.12-5.18,0-1.9,0-3.75,0-5.58,0-2.43,0-4.81,0-7.17,0-1.34,0-2.68,0-4,0-.61,0-1.21,0-1.82s0-1.22,0-1.83c0-.78,0-1.57,0-2.35,0-2.22,0-4.46,0-6.74,0-2.82.09-5.72.2-8.72.06-1.4.12-2.81.2-4.27a5.85,5.85,0,0,0-.08-1,5.86,5.86,0,0,1-.07-1c0-.29,0-.54,0-.77a1.74,1.74,0,0,1,.05-.22l-3.47-1.78c-3.4-1.75-6.31-3.24-8.29-4.19,0,.61,0,1.17,0,1.82,0,2.33-.2,21.53-.2,22.52Z"/><path class="cls-13" d="M340.68,274.17c.9.53,2.43,1.27,3.94,1.95s3.05,1.34,4,1.68c1.59.59,3.25,1.39,4.81,2.11a25.54,25.54,0,0,0,4.28,1.7,1,1,0,0,1,0-.7c0-.1.09-.24.14-.39s.23-.68.37-1a37.93,37.93,0,0,1-4-1.57c-1.46-.63-3-1.33-4.59-1.94l-3.9-1.51c-1.49-.58-3-1.2-3.89-1.61a4.06,4.06,0,0,0-.81.68,1,1,0,0,0-.23.43A1.74,1.74,0,0,0,340.68,274.17ZM442,281l-1-.76c0,.09,0,.2,0,.3s0,.31,0,.49Zm-41.85,4.65c-.84,1.62-1.58,3.12-2.27,4.57a13.76,13.76,0,0,0,2.38,0c.9-.08,1.83-.19,2.63-.19s1.54-.07,2-.06,1.29,0,2.15.1a27.21,27.21,0,0,0,3,0c.74,0,1.59-.1,2.37-.13s1.59-.08,2.29-.09,1.45,0,2.09,0c1-2.35,2-4.62,2.63-6.33s1-2.88,1.3-3.77a16.53,16.53,0,0,0-1.89-.05c-.65,0-1.39.05-2.1,0s-1.47,0-2.15,0c-1,0-2,.16-2.84.16s-1.57.1-2,.09-1.17,0-1.93,0-1.68.05-2.44.12-1.63.18-2.34.3C402.1,282,401.16,283.73,400.19,285.62ZM445.74,279c-.42.54-.9,1-1.33,1.5,1.81,1.34,3.82,2.76,6,4.43,1.41,1.07,2.74,2.05,4.09,3.05a7.49,7.49,0,0,0,1.61-1.37,9,9,0,0,1,1.7-1.53c.66-.49,1.41-1,2.25-1.74s1.59-1.33,2.42-2l2.16-1.75a9.15,9.15,0,0,1,1.93-1c-1.64-1-3.31-2.08-4.76-2.92-2.27-1.31-5.17-3.2-8.13-4.94a7.21,7.21,0,0,0-1.35,1.25c-.44.56-1,1.22-1.67,1.88s-1.27,1.33-1.8,1.92-1.25,1.3-1.79,1.81A12.73,12.73,0,0,0,445.74,279Zm-68.19-8.25c-.35.72-.66,1.35-1,2a9.61,9.61,0,0,0,1.13.24c.83.11,1.84.2,2.86.31.42-.53.8-1.08,1.28-1.75.34-.48.83-1.07,1.32-1.68A20.1,20.1,0,0,0,384.5,268c.89-1.45,1.83-3.08,2.73-4.61s1.73-3,2.42-4a29.56,29.56,0,0,0,1.49-2.68,31.45,31.45,0,0,0,1.27-2.88c.33-.87.64-1.7.91-2.48a22.78,22.78,0,0,0,.66-2.19c.12-.47.25-.93.36-1.36s.23-.84.31-1.22.13-.59.19-.86.11-.5.14-.66c-1.54-.46-3.19-.91-5.27-1.39-.83-.19-1.77-.35-2.73-.51,0,.18-.08.42-.13.7s-.09.57-.13.85-.11.79-.18,1.24-.13.92-.21,1.42c-.11.71-.25,1.48-.41,2.29s-.35,1.67-.58,2.55-.49,1.82-.81,2.73a26,26,0,0,1-1.08,2.69c-.52,1.12-1.22,2.72-1.95,4.42l-2.2,5.1c-.28.64-.59,1.3-.9,1.92S377.8,270.23,377.55,270.75Zm87.52-18.66c.85-.22,1.59-.38,2.36-.53l.63-.12.67-.12c.77-.13,1.8-.3,2.92-.43-.06-1-.16-1.86-.27-2.72s-.24-1.71-.34-2.59-.17-1.47-.25-2.19-.16-1.46-.25-2.23c-.11-1-.18-2-.24-3s-.12-2.06-.21-3.16-.14-2.49-.18-4,0-3.08,0-4.45A8.93,8.93,0,0,1,470,225c.07-.46.16-.87.19-1.2a13.59,13.59,0,0,0-2.4.36c-1.16.24-2.12.44-3,.68-.08.32-.16.69-.26,1.12s-.2.93-.31,1.51a19.58,19.58,0,0,0-.18,4.67,35,35,0,0,1,.12,4.05c-.07,1-.08,2.07-.06,3.15s.07,2.16.1,3.16c0,.78.07,1.46.11,2.15s.1,1.36.16,2.12.18,1.78.3,2.65S465,251.19,465.07,252.09Z"/><path class="cls-14" d="M354.15,277.9a37.93,37.93,0,0,0,4,1.57v0a2.66,2.66,0,0,1,.81-1.27,1.83,1.83,0,0,1,.34-.18l.32-.14.07,0c4.14,0,19.62-1.49,35.05-3a15,15,0,0,0-1.83-.63c-1.38.27-2.67.5-3.76.66-1.28.19-2.67.35-3.94.42a16.16,16.16,0,0,1-3.27-.07c-.87-.15-1.91-.24-2.91-.32l-2.16-.14-.51,0c-.28,0-.64-.08-1-.14l-.86-.15-.53-.09-.48-.15-1-.33-1.28-.48c.12-.55.22-1.19.32-1.89,0-.12,0-.26.05-.38.05-.41.11-.85.16-1.3-13.09,1.36-24.74,2.56-27.35,2.54h0c-.2,0-.47,0-.75,0s-.59,0-.76,0l-.26.06a4,4,0,0,0-.63.19,2.84,2.84,0,0,0-.35.16c.88.41,2.4,1,3.89,1.61l3.9,1.51C351.14,276.57,352.69,277.27,354.15,277.9Zm-13.47-3a5.86,5.86,0,0,0,.07,1c.82.47,2.29,1.28,3.78,2a42.42,42.42,0,0,0,3.92,1.85c1.59.58,3.22,1.31,4.76,2a29.78,29.78,0,0,0,4.25,1.53,2.46,2.46,0,0,0,.32-1h0a2.58,2.58,0,0,0-.11-.76,25.54,25.54,0,0,1-4.28-1.7c-1.56-.72-3.22-1.52-4.81-2.11-.91-.34-2.45-1-4-1.68s-3-1.42-3.94-1.95C340.67,274.4,340.7,274.65,340.68,274.94Zm87.37-7.7-.38,0c.44.16.9.33,1.37.53s1.35.52,2.16.8c-.07-.29-.15-.6-.23-.91s-.15-.58-.23-.87-.13-.46-.19-.7h0l-.1.1a.36.36,0,0,1,0-.09l-1,.05c0,.08-.07.15-.11.22-.17.37-.37.72-.67.79Zm40.82.91c7.56-1,15.08-1.89,21.37-1.85a15.42,15.42,0,0,0-3.79-1,25,25,0,0,1-5-1.36c-.2-.09-.45-.18-.71-.27a33.33,33.33,0,0,0-3.88-.92l-.15,0a26.23,26.23,0,0,1-3.79-.85c-.73.36-1.51.71-2.32,1-.26.11-.51.22-.78.32a67.33,67.33,0,0,1-8.62,2.53c-1.46.34-2.94.66-4.49,1l-.29.06c-2,.38-4,.65-5.92.86l1.35.72,2.56,1.45c2.64-.23,5.38-.54,8.16-.88Zm-21.06,29.77a45,45,0,0,1-6,.52l0,1.46c.05,2.5.09,5,.11,7.38,0,.79,0,1.59,0,2.37,0,.29,0,.58,0,.88v3c0,2.61,0,5.68,0,8.93s.05,6.79.07,10.16a47,47,0,0,0,5.91-.32c1.87-.23,3.66-.43,5.77-.66,1.56-.18,3.34-1.13,5-1.48s3.4-1.48,4.83-2c0-2.75,0-5.49,0-8.17,0-3.26,0-6.42,0-9.32,0-.79,0-1.62,0-2.47v-.43c0-.77,0-1.55,0-2.35,0-2.36.09-4.85.15-7.36,0-.22,0-.45,0-.67-1.05-.76-1.82-1.33-2.56-1.9-.73.23-1.47.46-2.22.62a33.38,33.38,0,0,1-5.09,1.12C451.63,297.34,449.76,297.67,447.81,297.92Zm-28.9-18.3a16.53,16.53,0,0,1,1.89.05c.26-.89.42-1.56.66-2.44s.52-1.77.82-2.71.6-1.85.84-2.46.47-1.31.74-2c-.24-.13-.49-.33-.8-.48a3.8,3.8,0,0,1-.86-.73,8,8,0,0,0-.81-.77,1.73,1.73,0,0,1-.21-.17h-.09c-.55,0-1.12.08-1.72.15l-.52.07c-.86.13-1.84.32-2.85.55l-.9.22-2.24.53-1.61.41-.93,1a56,56,0,0,0-3.85,4.55c-1.25,1.67-2.33,3.3-3.35,5,.71-.12,1.6-.23,2.34-.3s1.68-.11,2.44-.12,1.51,0,1.93,0,1.17-.1,2-.09,1.84-.13,2.84-.16c.68,0,1.45-.06,2.15,0S418.26,279.62,418.91,279.62Zm.59,3.82c-.65,1.71-1.61,4-2.63,6.33a9.79,9.79,0,0,1,1.61.11c.93-2.28,1.79-4.48,2.4-6.2l.06-.15c.18-.51.33-.95.48-1.36,0-.09.05-.17.08-.25.31-.88.53-1.55.7-2.1-.32-.06-.83-.09-1.4-.15C420.54,280.56,420.17,281.67,419.5,283.44Zm-19.31,2.18c1-1.89,1.91-3.63,2.93-5.32a8.68,8.68,0,0,1-1.75.16c-.69,1.1-1.33,2.24-2,3.49-.26.49-.53,1-.8,1.54a1.09,1.09,0,0,0-.08.15c-.84,1.63-1.57,3.07-2.25,4.45.41,0,1,0,1.68.1C398.61,288.74,399.35,287.24,400.19,285.62Zm-9.95,22.87c-.53,1.39-1,2.69-1.6,4a16.21,16.21,0,0,1,1.81,1.48l.06.05c.54.51,1,1,1.47,1.53l.13.15c.49.57,1,1.15,1.48,1.76s1,1.27,1.5,1.83.91,1.11,1.49,1.74c.4.43.92.94,1.44,1.44s1.07,1,1.53,1.35.94.75,1.44,1.11c.83-2,1.77-4.07,2.77-6.3s2.07-4.56,3.16-7c.52-1.17,1.09-2.4,1.67-3.66s1.18-2.54,1.75-3.81,1.15-2.46,1.76-3.74,1.23-2.58,1.77-3.8c.9-2.05,2-4.48,3-6.83-.64,0-1.39,0-2.09,0s-1.52.06-2.29.09-1.63.09-2.37.13a27.21,27.21,0,0,1-3,0c-.86-.06-1.64-.08-2.15-.1s-1.24.06-2,.06-1.73.11-2.63.19a13.76,13.76,0,0,1-2.38,0c-.68,1.46-1.32,2.85-1.95,4.27-.38.84-.72,1.64-1,2.42l-1,2.34c-.35.84-.7,1.66-1,2.47l-1,2.36C391.32,305.64,390.77,307.11,390.24,308.49Zm71.61-32.83c1.45.84,3.12,1.89,4.76,2.92.68-.3,1.26-.56,1.32-.78l-.77-.47c-1.44-.88-2.91-1.74-4.14-2.42-2.28-1.26-5.29-3.14-8.46-5,0,.18-.39.45-.84.8C456.68,272.46,459.58,274.35,461.85,275.66ZM454.54,288c1.34,1,2.7,2,4.18,3.19s2.65,2.06,3.82,2.92,2.39,1.71,4,2.83c3.17,2.13,6.84,4.66,10.26,7s6.63,4.5,8.86,5.83c0-.55,0-1,0-2,0-.68,0-1.28.06-1.87v0c0-.36,0-.73,0-1.07s0-.85.06-1.26.07-.93.13-1.4c.1-.78.3-2.16.52-3.53.15-.9.31-1.77.45-2.46.07-.37.14-.7.2-.94.15-.58.32-1.15.5-1.71-2-1.25-3.46-2.31-5-3.36s-2.85-2.15-4.66-3.47c-.94-.7-2.07-1.6-3.32-2.52s-2.52-1.9-3.77-2.73-2.7-1.79-4.34-2.82a9.15,9.15,0,0,0-1.93,1l-2.16,1.75c-.83.67-1.7,1.39-2.42,2s-1.59,1.25-2.25,1.74a9,9,0,0,0-1.7,1.53A7.49,7.49,0,0,1,454.54,288Zm-21.29-17.22c0,.31-.08.65-.11,1,.62.52,1.24,1.08,2,1.68s1.29,1.08,2,1.64,1.41,1.13,2.17,1.71c1.6,1.21,3.3,2.4,5.11,3.73.43-.48.91-1,1.33-1.5a12.73,12.73,0,0,1,1.37-1.42c.54-.51,1.15-1.08,1.79-1.81s1.17-1.26,1.8-1.92,1.23-1.32,1.67-1.88a7.21,7.21,0,0,1,1.35-1.25c-1.67-1-3.41-2-5.11-2.88a56.58,56.58,0,0,1-5.69.22c-1,0-1.92-.07-2.82-.14a22,22,0,0,1-6.6-1.4c0,.21,0,.43,0,.64,0,.45,0,.89,0,1.25s-.1.88-.15,1.27S433.26,270.43,433.25,270.76Zm17.2,14.17c-2.22-1.67-4.23-3.09-6-4.43a5.4,5.4,0,0,0-1,1.5l4.16,3.14,1.64,1.26c1.41,1.1,2.65,2.06,3.92,3a4.5,4.5,0,0,1,1.43-1.45C453.19,287,451.86,286,450.45,284.93Zm-63.6-41.13c0-.28.1-.52.13-.7-1-.15-1.93-.3-2.82-.47l-3.45-.67a3.52,3.52,0,0,0,0,.58c0,.21,0,.44,0,.72s-.05.8-.07,1.26-.06,1-.11,1.48c-.07.74-.13,1.54-.2,2.38s-.15,1.73-.25,2.63-.18,1.88-.3,2.84a18,18,0,0,1-.56,2.89c-.35,1.29-.8,2.87-1.28,4.52s-1,3.39-1.41,5c-.18.66-.36,1.32-.54,2s-.36,1.26-.52,1.84c-.22.8-.44,1.55-.66,2.26a3,3,0,0,0,.76.15c.27,0,.66.15,1,.25.33-.62.64-1.25,1-2,.25-.52.55-1.11.85-1.74s.62-1.28.9-1.92l2.2-5.1c.73-1.7,1.43-3.3,1.95-4.42a26,26,0,0,0,1.08-2.69c.32-.91.58-1.83.81-2.73s.42-1.74.58-2.55.3-1.58.41-2.29c.08-.5.15-1,.21-1.42s.13-.86.18-1.24S386.81,244.07,386.85,243.8Zm93.42,11.76a4.09,4.09,0,0,0,.58-2.86c-.17-.85-.39-1.69-.6-2.64s-.35-1.64-.54-2.5-.39-1.75-.6-2.65c-.27-1.16-.55-2.35-.85-3.56s-.63-2.45-1-3.69-.76-2.77-1.16-4.38-.8-3.26-1.09-4.68l-.3-1.54c-.08-.47-.15-.88-.19-1.22a10.4,10.4,0,0,1-1.27-.85,10.77,10.77,0,0,0-1.3-.86,3.61,3.61,0,0,0-1.76-.3c0,.33-.12.74-.19,1.2a8.93,8.93,0,0,0-.14,1.52c0,1.37,0,2.94,0,4.45s.09,2.92.18,4,.14,2.14.21,3.16.13,2,.24,3c.09.77.17,1.5.25,2.23s.16,1.44.25,2.19.23,1.72.34,2.59.21,1.75.27,2.72a18,18,0,0,1,4.41.15,3.81,3.81,0,0,1,1.83.84c.35.26.68.56,1,.85v-.31a3,3,0,0,1,.5.31,1.83,1.83,0,0,1,.65.86l0,.07a4.34,4.34,0,0,1,0,1.88c0,.14,0,.27-.07.42A2.33,2.33,0,0,0,480.27,255.56Zm-48.89,8.93a3,3,0,0,0,.21.58,7.36,7.36,0,0,1,.93-.74c.2-.15.43-.29.7-.46a41.59,41.59,0,0,1,4.44-2.28c1.44-.65,3.07-1.32,5-2.07l1-.38,2-.74,2.65-1c1.67-.59,3.36-1.16,4.73-1.59l3.76-1.25c1.51-.51,3.1-1,4.23-1.35,1.77-.51,3-.88,4.11-1.16-.06-.9-.18-1.77-.29-2.64s-.23-1.74-.3-2.65-.11-1.44-.16-2.12-.08-1.37-.11-2.15c0-1-.08-2.08-.1-3.16s0-2.16.06-3.15a35,35,0,0,0-.12-4.05,19.58,19.58,0,0,1,.18-4.67c.11-.58.22-1.08.31-1.51s.18-.8.26-1.12a14.24,14.24,0,0,0-2.6.93,16.16,16.16,0,0,0-1.78,1c-.66.4-1.41.89-2.35,1.51-1.57,1-3.65,2.58-5.75,4.17s-4.2,3.25-5.84,4.5c-3,2.29-5.5,4.26-7.75,6.2a76.06,76.06,0,0,0-6.25,6.06,24.29,24.29,0,0,0-3,4.11,21.33,21.33,0,0,0-1.47,3,1,1,0,0,1,.24,0,1.55,1.55,0,0,1,.29.14,2.17,2.17,0,0,1,.54.39c.05.27.1.54.16.83s.13.61.23,1c.05.22.11.46.17.69.24-.4.53-.84.89-1.34a19,19,0,0,1,2.19-2.46c2-1.9,3.93-3.68,6.14-5.62s4.4-3.83,7-5.93c1.44-1.16,3-2.46,4.53-3.73-.41,1.62-.75,3.12-1,4.19-.17.81-.38,1.63-.59,2.46-1.35.86-2.62,1.76-4,2.71-2.46,1.72-4.79,3.49-6.84,5.2s-3.9,3.31-5.41,4.68a21.53,21.53,0,0,0-2,2.16c.06.32.13.61.18.92a5,5,0,0,0,.19.65,8.72,8.72,0,0,1,1.75-1.81c1.44-1.11,3-2.38,4.85-3.74a71.81,71.81,0,0,1,6.24-4.16c1.29-.76,2.75-1.53,4.22-2.26a13.22,13.22,0,0,0-.16,1.86c0,.72,0,1.42.1,2.13-1.59.63-3.13,1.31-4.41,1.9-2.35,1.08-4.3,2.12-6,3.1s-3.19,1.94-4.57,2.84A7.69,7.69,0,0,0,431.38,264.49Zm-7.55-.1c.22.17.43.33.52.25a1.7,1.7,0,0,0,.31-.7c.1-.29.21-.57.38-.62s.42,0,.59.2a.78.78,0,0,0,.64.27,1.9,1.9,0,0,0,.52-.45,2.44,2.44,0,0,1,.51-.48,1.35,1.35,0,0,1,.89.07,1.34,1.34,0,0,0,.83.08,1.62,1.62,0,0,0,.62-.55c.18-.22.34-.44.55-.48a1.06,1.06,0,0,0,0-.52c-.08-.36-.19-.82-.31-1.31a1.36,1.36,0,0,0-.81-.27,3.36,3.36,0,0,0-.81.14,5.67,5.67,0,0,0-.88.34,4.3,4.3,0,0,1-.94.3l-.64.08-.61.06a2.28,2.28,0,0,0-.58.07l-.43.14a5.51,5.51,0,0,1-.62.22c-.23.06-.43.15-.61.21s-.26.13-.4.17-.26.11-.4.15a1.54,1.54,0,0,0-.66.54,2.06,2.06,0,0,1-.5.54l-.28-.54c-.15-.28-.3-.55-.43-.81A8.62,8.62,0,0,1,419,261c-.64-.31-1.23-.69-1.84-1.06a16.92,16.92,0,0,0-1.79-1,8.12,8.12,0,0,1-1.9-1.42,7.12,7.12,0,0,0-1.95-1.4,27.23,27.23,0,0,0-3.22-1.17c.28-.62.52-1.19.71-1.72.13-.38.27-.74.39-1.08a20.89,20.89,0,0,1,2.83,1.59,7.68,7.68,0,0,1,1.6,1.4,8.32,8.32,0,0,0,1.57,1.42c.56.37,1.17.8,1.78,1.24s1.24.91,1.85,1.36l.3.24c-.07-.2-.12-.39-.18-.61.19,0,.32-.24.45-.47l.12-.21c.05-.09.1-.19.16-.28a3,3,0,0,1-.72-.28,14.54,14.54,0,0,1-2-1.42c-.66-.53-1.27-1.08-1.8-1.51a7.17,7.17,0,0,1-1.33-1.43,7.27,7.27,0,0,0-1.34-1.42,16.16,16.16,0,0,0-2.63-1.75c-.89-.46-1.91-.89-3.43-1.56a24.43,24.43,0,0,0-3.29-1.12c-1.16-.33-2.39-.63-3.68-1-1.65-.46-3.08-.92-4.62-1.37,0,.16-.08.4-.14.66s-.13.57-.19.86-.19.79-.31,1.22-.24.89-.36,1.36a22.78,22.78,0,0,1-.66,2.19c-.27.78-.58,1.61-.91,2.48a31.45,31.45,0,0,1-1.27,2.88,29.56,29.56,0,0,1-1.49,2.68c-.69,1.06-1.53,2.5-2.42,4s-1.84,3.16-2.73,4.61a20.1,20.1,0,0,1-1.35,1.86c1.16.14,2.35.26,3.49.47a16.54,16.54,0,0,0,3.09.2c1.12,0,2.31-.07,3.48-.13,1.73-.07,3.66-.27,5.66-.52s4.05-.54,6-.79a41.32,41.32,0,0,0,4.21-.92,31.15,31.15,0,0,1,3.95-.83,28.69,28.69,0,0,0,2.86-.55,15.16,15.16,0,0,1,2.66-.44l2.13-.05a17.73,17.73,0,0,1,2.06.07,1.58,1.58,0,0,0-.1-.24l0,0c-.07-.1-.12-.1-.17-.15-.61-.13-1.26-.22-1.9-.32s-1.31-.17-2-.25a18.68,18.68,0,0,0-2.33-.13c-.83,0-1.67,0-2.46-.05a22.51,22.51,0,0,0-3.17,0c-1.11.08-2.21.11-3.35.09-1.63,0-3.16-.23-4.81-.28.93-1.26,1.81-2.5,2.42-3.42a24.62,24.62,0,0,0,1.29-2.24c1.3.25,2.58.49,3.92.82a15.89,15.89,0,0,1,2.5.88A18.15,18.15,0,0,0,415,262c.67.19,1.32.43,2,.68s1.31.5,2,.69a15.87,15.87,0,0,0,1.72.42c.33.07.63.15.94.24.15.28.3.54.42.74s.2.32.3.48.27.44.4.64c.14-.08.15-.49.19-.89s.09-.82.33-.9S423.61,264.22,423.83,264.39Z"/><path class="cls-15" d="M340.21,328.57a3.53,3.53,0,0,0,0,.46,9.06,9.06,0,0,0,.3,1.86,9.43,9.43,0,0,0,.29.9,6.25,6.25,0,0,0,.78,1.5c.64.52,1.85,1.79,3.08,3.1s2.47,2.66,3.2,3.36c1.3,1.26,2.75,2.77,4.34,4.25a33.07,33.07,0,0,0,5.11,4l.05,0a11.11,11.11,0,0,1-2.35-2.93,4.62,4.62,0,0,1-.55-2.23,2.62,2.62,0,0,1,0-.28c0-1.75.12-3.51.18-5.27.07-2,.15-4,.22-6s.17-4.25.26-6.39q.17-4.12.36-8.27c0-1,.09-2,.13-3.06.06-1.18.12-2.36.17-3.54,0-.71.07-1.43.1-2.14l.12-2.32q.17-3.39.34-6.78.24-4.67.5-9.29c.09-1.72.19-3.45.29-5.16a2.56,2.56,0,0,1,.32-1,29.78,29.78,0,0,1-4.25-1.53c-1.54-.65-3.17-1.38-4.76-2a42.42,42.42,0,0,1-3.92-1.85c-1.49-.77-3-1.58-3.78-2a5.85,5.85,0,0,1,.08,1c-.08,1.46-.14,2.87-.2,4.27-.11,3-.18,5.9-.2,8.72,0,2.28,0,4.52,0,6.74,0,.78,0,1.57,0,2.35,0,.61,0,1.22,0,1.83s0,1.21,0,1.82c0,1.33,0,2.67,0,4,0,2.36,0,4.74,0,7.17,0,1.83,0,3.68,0,5.58,0,1.69-.06,3.42-.12,5.18C340.31,326,340.27,327.25,340.21,328.57Zm99.41,22.83a7.57,7.57,0,0,1-1.28.14,23.36,23.36,0,0,0,6.35.86,58.65,58.65,0,0,0,8.34-.52,30.91,30.91,0,0,0,5.79-1.43,13.21,13.21,0,0,0,3.23-1.64,5.14,5.14,0,0,0,1.41-1.47,4.36,4.36,0,0,0,0-.85c0-.08,0-.17,0-.25a5.62,5.62,0,0,1,0-.92c.09-2.52.15-5.28.18-8.16s0-6,0-9c-1.43.49-3.15,1.61-4.83,2s-3.45,1.3-5,1.48c-2.11.23-3.9.43-5.77.66a47,47,0,0,1-5.91.32c0,2.44,0,4.81,0,7,0,3.71-.05,6.91-.14,9.11a1.77,1.77,0,0,0,0,.23,2.4,2.4,0,0,1-1.33,2A5.61,5.61,0,0,1,439.62,351.4Zm-35.86-32.8c-1,2.23-1.94,4.33-2.77,6.3a9.46,9.46,0,0,0,1.59,1c.87-2.08,1.78-4.24,2.76-6.51.73-1.69,1.5-3.46,2.31-5.28.24-.52.46-1,.7-1.57l.12-.27,1-2.22c.24-.52.47-1,.72-1.57.6-1.3,1.21-2.64,1.8-3.93.32-.71.67-1.47,1-2.24l.77-1.62c.63-1.33,1.26-2.67,1.79-3.9.77-1.78,1.63-3.82,2.46-5.85l.42-1a9.79,9.79,0,0,0-1.61-.11c-1,2.35-2.1,4.78-3,6.83-.54,1.22-1.15,2.51-1.77,3.8s-1.23,2.56-1.76,3.74-1.16,2.55-1.75,3.81-1.15,2.49-1.67,3.66C405.83,314,404.76,316.38,403.76,318.6Zm-15.32-11.06c-.55,1.34-1.07,2.62-1.59,3.86a6.62,6.62,0,0,1,.69.36c.35.2.72.43,1.1.7.56-1.28,1.07-2.58,1.6-4s1.08-2.85,1.73-4.44l1-2.36c.33-.81.68-1.63,1-2.47l1-2.34c.32-.78.66-1.58,1-2.42.63-1.42,1.27-2.81,1.95-4.27-.69-.06-1.27-.08-1.68-.1-.45.9-.87,1.77-1.29,2.64-.21.46-.43.92-.65,1.38-.37.8-.7,1.58-1,2.35s-.62,1.52-.95,2.25-.72,1.58-1.08,2.35-.71,1.53-1,2.24c-.11.27-.22.52-.33.77C389.38,305.28,388.9,306.44,388.44,307.54Zm94.26-17.42c1.51,1.05,3,2.11,5,3.36.19-.57.39-1.12.62-1.68-2-1.24-3.31-2.08-4.56-2.92s-2.42-1.66-4.07-2.88l-.34-.26c-.84-.63-1.9-1.46-3.05-2.34-1.31-1-2.7-2-3.91-2.82l-1.83-1.17-2-1.26-.58-.35c-.06.22-.64.48-1.32.78,1.64,1,3.17,2.05,4.34,2.82s2.52,1.8,3.77,2.73,2.38,1.82,3.32,2.52C479.85,288,481.19,289.07,482.7,290.12ZM371.63,271.54c-.1.7-.2,1.34-.32,1.89l1.28.48,1,.33.48.15.53.09.86.15c.34.06.7.12,1,.14l.51,0,2.16.14c1,.08,2,.17,2.91.32a16.16,16.16,0,0,0,3.27.07c1.27-.07,2.66-.23,3.94-.42,1.09-.16,2.38-.39,3.76-.66a15,15,0,0,1,1.83.63l.17,0,11.55-1.13c-.59.67-1.16,1.33-1.67,1.95-.67.81-1.27,1.58-1.82,2.33s-1.14,1.63-1.65,2.45a8.68,8.68,0,0,0,1.75-.16c1-1.68,2.1-3.31,3.35-5a56,56,0,0,1,3.85-4.55l.93-1,1.61-.41,2.24-.53.9-.22c1-.23,2-.42,2.85-.55l.52-.07c.6-.07,1.17-.13,1.72-.15h.09a1.73,1.73,0,0,0,.21.17,8,8,0,0,1,.81.77,3.8,3.8,0,0,0,.86.73c.31.15.56.35.8.48-.27.72-.51,1.45-.74,2s-.55,1.51-.84,2.46-.6,1.93-.82,2.71-.4,1.55-.66,2.44c.57.06,1.08.09,1.4.15.26-.84.41-1.44.59-2.28s.38-1.74.58-2.7.4-1.86.52-2.42c0-.09.05-.19.07-.29,2.53-.21,4.47-.33,5.53-.35.89,0,1.82-.07,2.78-.14.26.31.54.64.85,1,.54.61,1.15,1.27,1.8,2s1.19,1.22,1.83,1.84,1.31,1.24,2,1.84,1.34,1.14,2,1.7l.31.24,1,.76-.93,0c0,.3,0,.63,0,1s0,.82,0,1.25c.12,1.84.21,3.77.3,5.74.14,3.09.25,6.29.33,9.49a45,45,0,0,0,6-.52c1.95-.25,3.82-.58,6-.69a33.38,33.38,0,0,0,5.09-1.12c.75-.16,1.49-.39,2.22-.62.74.57,1.51,1.14,2.56,1.9l.85.6.36.26c2.75,1.95,5.94,4.15,9.06,6.27l2.2,1.49.88.59.22.14c3.36,2.25,6.42,4.22,8.45,5.43,0-1.23,0-1.84,0-2.39-2.23-1.33-5.44-3.45-8.86-5.83s-7.09-4.9-10.26-7c-1.66-1.12-2.89-2-4-2.83s-2.31-1.74-3.82-2.92-2.84-2.18-4.18-3.19a4.5,4.5,0,0,0-1.43,1.45c-1.27-1-2.51-1.93-3.92-3l-1.64-1.26L443.39,282a5.4,5.4,0,0,1,1-1.5c-1.81-1.33-3.51-2.52-5.11-3.73-.76-.58-1.45-1.15-2.17-1.71s-1.36-1.11-2-1.64-1.36-1.16-2-1.68c0-.33.08-.67.11-1s.05-.68.1-1.08.11-.81.15-1.27,0-.8,0-1.25c0-.21,0-.43,0-.64a22,22,0,0,0,6.6,1.4c.9.07,1.84.12,2.82.14a56.58,56.58,0,0,0,5.69-.22c1.7.9,3.44,1.89,5.11,2.88.45-.35.81-.62.84-.8l-.16-.09-2.56-1.45-1.35-.72c1.91-.21,3.88-.48,5.92-.86l.29-.06c1.55-.3,3-.62,4.49-1a67.33,67.33,0,0,0,8.62-2.53c.27-.1.52-.21.78-.32.81-.32,1.59-.67,2.32-1l.07,0a18.13,18.13,0,0,0,5.46-3.9l.15-.15.16-.15c.16-.17.33-.35.48-.54a5.24,5.24,0,0,0,.44-.61,9.52,9.52,0,0,0,.6-.95,2.33,2.33,0,0,1-.27.4c0-.15.05-.28.07-.42a4.34,4.34,0,0,0,0-1.88l0-.07a4.56,4.56,0,0,0-.41-.6l-.24-.26a3,3,0,0,0-.5-.31v.31c-.32-.29-.65-.59-1-.85a3.81,3.81,0,0,0-1.83-.84,18,18,0,0,0-4.41-.15c-1.12.13-2.15.3-2.92.43l-.67.12-.63.12c-.77.15-1.51.31-2.36.53-1.07.28-2.34.65-4.11,1.16-1.13.32-2.72.84-4.23,1.35L453,255.85c-1.37.43-3.06,1-4.73,1.59l-2.65,1-2,.74-1,.38c-1.92.75-3.55,1.42-5,2.07a41.59,41.59,0,0,0-4.44,2.28c-.27.17-.5.31-.7.46a7.36,7.36,0,0,0-.93.74,3,3,0,0,1-.21-.58,7.69,7.69,0,0,1,1.62-1.35c1.38-.9,2.85-1.86,4.57-2.84s3.68-2,6-3.1c1.28-.59,2.82-1.27,4.41-1.9-.06-.71-.1-1.41-.1-2.13a13.22,13.22,0,0,1,.16-1.86c-1.47.73-2.93,1.5-4.22,2.26a71.81,71.81,0,0,0-6.24,4.16c-1.85,1.36-3.41,2.63-4.85,3.74a8.72,8.72,0,0,0-1.75,1.81,5,5,0,0,1-.19-.65c-.05-.31-.12-.6-.18-.92a21.53,21.53,0,0,1,2-2.16c1.51-1.37,3.36-3,5.41-4.68s4.38-3.48,6.84-5.2c1.34-.95,2.61-1.85,4-2.71.21-.83.42-1.65.59-2.46.21-1.07.55-2.57,1-4.19-1.56,1.27-3.09,2.57-4.53,3.73-2.61,2.1-4.8,4-7,5.93s-4.1,3.72-6.14,5.62a19,19,0,0,0-2.19,2.46c-.36.5-.65.94-.89,1.34-.06-.23-.12-.47-.17-.69-.1-.39-.17-.71-.23-1s-.11-.56-.16-.83a2.17,2.17,0,0,0-.54-.39,1.55,1.55,0,0,0-.29-.14,1,1,0,0,0-.24,0,2.05,2.05,0,0,0-.65,0,3.06,3.06,0,0,0-1,.54,1.84,1.84,0,0,1-1.12.42,5.52,5.52,0,0,0-.66,0l-.5,0a2.08,2.08,0,0,0-.8.23,1.16,1.16,0,0,1-.39.21,1.68,1.68,0,0,1-.56,0l-.79-.16c-.22,0-.44-.06-.64-.07a1.56,1.56,0,0,0-.55.05.94.94,0,0,0-.5.45c-.06.09-.11.19-.16.28l-.12.21c-.13.23-.26.43-.45.47.06.22.11.41.18.61l-.3-.24c-.61-.45-1.24-.93-1.85-1.36s-1.22-.87-1.78-1.24a8.32,8.32,0,0,1-1.57-1.42,7.68,7.68,0,0,0-1.6-1.4,20.89,20.89,0,0,0-2.83-1.59c-.12.34-.26.7-.39,1.08-.19.53-.43,1.1-.71,1.72a27.23,27.23,0,0,1,3.22,1.17,7.12,7.12,0,0,1,1.95,1.4,8.12,8.12,0,0,0,1.9,1.42,16.92,16.92,0,0,1,1.79,1c.61.37,1.2.75,1.84,1.06a8.62,8.62,0,0,0,1.29.45c.13.26.28.53.43.81l.28.54a2.06,2.06,0,0,0,.5-.54,1.54,1.54,0,0,1,.66-.54c.14,0,.26-.11.4-.15s.26-.12.4-.17.38-.15.61-.21a5.51,5.51,0,0,0,.62-.22l.43-.14a2.28,2.28,0,0,1,.58-.07l.61-.06.64-.08a4.3,4.3,0,0,0,.94-.3,5.67,5.67,0,0,1,.88-.34,3.36,3.36,0,0,1,.81-.14,1.36,1.36,0,0,1,.81.27c.12.49.23,1,.31,1.31a1.06,1.06,0,0,1,0,.52c-.21,0-.37.26-.55.48a1.62,1.62,0,0,1-.62.55,1.34,1.34,0,0,1-.83-.08,1.35,1.35,0,0,0-.89-.07,2.44,2.44,0,0,0-.51.48,1.9,1.9,0,0,1-.52.45.78.78,0,0,1-.64-.27c-.17-.16-.33-.29-.59-.2s-.28.33-.38.62a1.7,1.7,0,0,1-.31.7c-.09.08-.3-.08-.52-.25s-.45-.35-.57-.3-.3.5-.33.9-.05.81-.19.89c-.13-.2-.27-.42-.4-.64s-.2-.31-.3-.48-.27-.46-.42-.74c-.31-.09-.61-.17-.94-.24a15.87,15.87,0,0,1-1.72-.42c-.65-.19-1.29-.43-2-.69s-1.32-.49-2-.68a18.15,18.15,0,0,1-2.42-.92,15.89,15.89,0,0,0-2.5-.88c-1.34-.33-2.62-.57-3.92-.82a24.62,24.62,0,0,1-1.29,2.24c-.61.92-1.49,2.16-2.42,3.42,1.65.05,3.18.24,4.81.28,1.14,0,2.24,0,3.35-.09a22.51,22.51,0,0,1,3.17,0c.79,0,1.63.06,2.46.05a18.68,18.68,0,0,1,2.33.13c.66.08,1.33.15,2,.25s1.29.19,1.9.32c.05.05.1.05.17.15l0,0a1.58,1.58,0,0,1,.1.24,17.73,17.73,0,0,0-2.06-.07l-2.13.05a15.16,15.16,0,0,0-2.66.44,28.69,28.69,0,0,1-2.86.55,31.15,31.15,0,0,0-3.95.83,41.32,41.32,0,0,1-4.21.92c-1.95.25-4,.54-6,.79s-3.93.45-5.66.52c-1.17.06-2.36.12-3.48.13a16.54,16.54,0,0,1-3.09-.2c-1.14-.21-2.33-.33-3.49-.47-.49.61-1,1.2-1.32,1.68-.48.67-.86,1.22-1.28,1.75-1-.11-2-.2-2.86-.31a9.61,9.61,0,0,1-1.13-.24c-.38-.1-.77-.2-1-.25a3,3,0,0,1-.76-.15c.22-.71.44-1.46.66-2.26.16-.58.34-1.2.52-1.84s.36-1.3.54-2c.45-1.61.94-3.34,1.41-5s.93-3.23,1.28-4.52a18,18,0,0,0,.56-2.89c.12-1,.19-1.92.3-2.84s.18-1.78.25-2.63.13-1.64.2-2.38c0-.52.08-1,.11-1.48s0-.88.07-1.26,0-.51,0-.72a3.52,3.52,0,0,1,0-.58l-3.07-.63c-.84-.18-1.61-.35-2.28-.51s-1.24-.3-1.69-.43c0,.21-.12.57-.2,1s-.14.77-.17,1-.09.76-.13,1.18-.06.85-.09,1.32q-.06,1-.09,2.1c0,.74-.05,1.54-.08,2.38s-.05,1.79-.07,2.77-.06,2-.1,3.1c-.07,1.62-.14,3.34-.22,5.06,0,1.1-.12,2.2-.18,3.28,0,.61-.07,1.23-.12,1.82,0,.07,0,.14,0,.21,0,.6-.09,1.19-.14,1.76s-.1,1.26-.16,1.85c0,.22-.05.43-.07.64,0,.45-.11.89-.16,1.3C371.66,271.28,371.65,271.42,371.63,271.54Zm56-4.28.38,0,.55-.06c.3-.07.5-.42.67-.79,0-.07.07-.14.11-.22l1-.05a.36.36,0,0,0,0,.09l.1-.1h0c.06.24.12.47.19.7s.16.59.23.87.16.62.23.91c-.81-.28-1.57-.56-2.16-.8S428.11,267.42,427.67,267.26Z"/><polygon class="cls-1" points="139.27 413.09 255.54 464.67 372.24 410.48 316.18 393.23 139.27 413.09"/><path class="cls-16" d="M241.19,248.81l2,.46c-3.83-6.59-7.16-12.25-9.75-16.58l-.9-.19c1.23,2.37,2.68,5.14,4.33,8.26C238.21,243.23,239.64,245.93,241.19,248.81Zm33,77.28c0,3.94,3.09,6.26,6.88,5.15,3.36-1.25,15.82-5.38,30.56-9.71,3.43-1,6.93-1.93,10-2.92a9.87,9.87,0,0,0,5.57-6.05l-4-7.56a7.9,7.9,0,0,0-2.05.14h0l-40.05,11.75A10.18,10.18,0,0,0,274.2,326.09Zm-34.83-76.21-.27.07c0,.09,0,.18,0,.28.07,1.79.16,4.36.25,7.57.26,9.59.55,25,.7,43.31l9.34,2.52,63.36-18.32-11.33-21.44-62.06-14ZM142.1,274.63l40.51,10.95L200.84,281l1.29-.33L220.39,276h.05a6.07,6.07,0,0,1,4.06.16,5.86,5.86,0,0,1,3.22,6.05,10.19,10.19,0,0,1-5.19,8c-3.46,1.54-7.08,2-11.05,3.18l0,0,26.67,7.21c.19-24.61.64-43.31,1-50.35a2.44,2.44,0,0,0,0-.27Z"/><path class="cls-17" d="M167.32,216.16l127.87,28.13a1,1,0,0,1,.35.15c2.31-3.26,8.48-11.37,17.34-21.37a259.06,259.06,0,0,1,19.84-20.45h0L200,178.47Zm-28,59.19V413.09l110.14,38.39v0c-.33-7.92-1.09-35.82-1.07-73.52,0-35.42.63-63.79,1-72.85a.36.36,0,0,1-.15,0Z"/><path class="cls-18" d="M359.77,372.17a1.14,1.14,0,0,1-.25.06l1.35.25.17,0a1,1,0,0,0,.57-.2c-.05,0-.09,0-.14,0a1,1,0,0,1-.86-.52l-.35-.67A1,1,0,0,1,359.77,372.17Zm-109.28,5.77c0,33.11-.75,63-1.08,73.54l103-41.26V370.91l6.41,1.19a1,1,0,0,1-.32-.34l-1-1.88-5.1-.93v-8.71l-24.88-47.08a10.25,10.25,0,0,1-6.36,6.33l-40.05,11.75h0c-3.79,1.11-6.88-1.21-6.88-5.15a10.18,10.18,0,0,1,6.88-9.2l40.05-11.75h.05a6.33,6.33,0,0,1,1.93-.25l-9.65-18.27-63.85,18.46-.17,0C249.83,314.2,250.47,343.62,250.49,377.94Zm-1.08,73.52v0h0ZM295.53,245l66.72,125.8,31.1-43.93L332.72,202.62h0a272.71,272.71,0,0,1-17.91,22.17c-8.11,9.18-16.1,17-19.4,20A1.49,1.49,0,0,1,295.53,245Z"/><path class="cls-19" d="M233.47,232.69c2.59,4.33,5.92,10,9.75,16.58l57.34,12.92.88,1.68,11.33,21.44.69,1.3,9.65,18.27.07.12,4,7.56.31.6,24.88,47.08V369l5.1.93,1,1.88a1.06,1.06,0,0,0,.86.52.73.73,0,0,0,.2,0,1.14,1.14,0,0,0,.25-.06,1,1,0,0,0,.49-1L293.82,245.88a.65.65,0,0,1,0-.13,1,1,0,0,0-.79,0ZM220.39,276l-18.26,4.63,6.54,12,2.46-.63c3.42-.91,7-1.64,10-2.53a9.45,9.45,0,0,0,5.56-6.22c.78-2.55-.06-5.18-1.71-6.32a6.07,6.07,0,0,0-4.55-.89h0Zm-52.34-57.69,23.15,42.34,48-12.21a.91.91,0,0,1,.33,0l1.67.37c-1.55-2.88-3-5.58-4.29-8.05-1.65-3.12-3.1-5.89-4.33-8.26l-.65-.15Zm81.33,86.78c-.41,9.06-1,37.43-1,72.85,0,37.7.74,65.6,1.07,73.52v0c.33-10.53,1.09-40.43,1.08-73.54,0-34.32-.66-63.74-1.05-72.85,0-.25,0-.49,0-.71h0C249.4,304.61,249.39,304.85,249.38,305.09Zm-10.33-54.86c-.31,7-.76,25.74-1,50.35l1.27.34.7.19c-.15-18.27-.44-33.72-.7-43.31-.09-3.21-.18-5.78-.25-7.57,0-.1,0-.19,0-.28h0A2.44,2.44,0,0,1,239.05,250.23Zm75.76-25.44a272.71,272.71,0,0,0,17.91-22.17h0a259.06,259.06,0,0,0-19.84,20.45c-8.86,10-15,18.11-17.34,21.37l-.21.29.08.1C298.71,241.74,306.7,234,314.81,224.79Z"/><path class="cls-5" d="M138.56,274.6a.71.71,0,0,0,.53.7l.18.05,110,29.72a.36.36,0,0,0,.15,0c0-.24,0-.48,0-.7h0c0,.22,0,.46,0,.71l.17,0,63.85-18.46-.69-1.3-63.36,18.32-9.34-2.52-.7-.19-1.27-.34-26.67-7.21,0,0c4-1.14,7.59-1.64,11.05-3.18a10.19,10.19,0,0,0,5.19-8,5.86,5.86,0,0,0-3.22-6.05,6.07,6.07,0,0,0-4.06-.16h-.05a6.07,6.07,0,0,1,4.55.89c1.65,1.14,2.49,3.77,1.71,6.32a9.45,9.45,0,0,1-5.56,6.22c-3,.89-6.54,1.62-10,2.53l-2.46.63-6.54-12-1.29.33,6.12,11.2-24.35-6.58L142.1,274.63l97-24.67h0l.27-.07h0l62.06,14-.88-1.68-57.34-12.92-2-.46-1.67-.37a.91.91,0,0,0-.33,0l-48,12.21-23.15-42.34,63.87,14,.65.15.9.19L293,245.78a1,1,0,0,1,.79,0,.65.65,0,0,0,0,.13l66.44,125.27.35.67a1,1,0,0,0,.86.52s.09,0,.14,0a1.09,1.09,0,0,0,.31-.08,1,1,0,0,0,.4-1.31l-.07-.14L295.53,245a1.49,1.49,0,0,0-.12-.14l-.08-.1.21-.29a1,1,0,0,0-.35-.15L167.32,216.16l-.51-.11a1,1,0,0,0-.43,1.89l23.53,43L139.1,273.91A.71.71,0,0,0,138.56,274.6Zm182.57,30.54a7.9,7.9,0,0,1,2.05-.14l-.07-.12a6.33,6.33,0,0,0-1.93.25Zm-9.49,16.39c-14.74,4.33-27.2,8.46-30.56,9.71h0l40.05-11.75a10.25,10.25,0,0,0,6.36-6.33l-.31-.6a9.87,9.87,0,0,1-5.57,6.05C318.57,319.6,315.07,320.49,311.64,321.53Z"/><polygon class="cls-1" points="674.86 488.83 913.44 415.17 747.23 331.94 488.18 409.68 674.86 488.83"/><path class="cls-20" d="M492.86,402.57c-.15,0-7.25,1.94-7.25,1.94l7.83,3.26Z"/><path class="cls-21" d="M488.18,409.68l177.56,68.37c3.28,1.26,5.93,1.33,5.93.15v-.33c0-1.18-2.65-3.17-5.93-4.43L488.18,405.07c-3.28-1.26-3.68-.22-3.68,1v.33C484.5,407.55,484.9,408.42,488.18,409.68Z"/><polygon class="cls-22" points="667.63 473.41 489.4 405.54 489.4 369.49 667.63 437.36 667.63 473.41"/><path d="M659.54,441.62a.33.33,0,0,0,.12-.63L506.11,381.87a.32.32,0,0,0-.42.18.33.33,0,0,0,.19.42l153.55,59.12A.23.23,0,0,0,659.54,441.62Z"/><path d="M653.73,452.48a.32.32,0,0,0,.3-.21.31.31,0,0,0-.18-.41L500.3,392.73a.33.33,0,0,0-.42.18.33.33,0,0,0,.19.42l153.55,59.13Z"/><path d="M657.15,447.19a.32.32,0,0,0,.3-.21.32.32,0,0,0-.19-.41l-63.19-24.34a.33.33,0,0,0-.42.19.33.33,0,0,0,.19.42L657,447.17Z"/><path d="M569.69,413.52a.32.32,0,0,0,.3-.21.32.32,0,0,0-.18-.42l-63.19-24.33a.33.33,0,0,0-.42.18.33.33,0,0,0,.19.42l63.19,24.33Z"/><path d="M582.62,435.26a.33.33,0,0,0,.3-.2.32.32,0,0,0-.18-.42l-76.12-29.31a.32.32,0,0,0-.42.18.33.33,0,0,0,.19.42l76.12,29.31Z"/><path d="M639.71,452.32a.32.32,0,0,0,.3-.21.31.31,0,0,0-.18-.41l-63.19-24.34a.33.33,0,0,0-.42.19.32.32,0,0,0,.19.41L639.6,452.3Z"/><path d="M675.16,470.89a.31.31,0,0,0,.3-.2.33.33,0,0,0-.18-.42l-63.2-24.33a.31.31,0,0,0-.41.18.32.32,0,0,0,.18.42L675,470.87A.25.25,0,0,0,675.16,470.89Z"/><path class="cls-23" d="M670.35,435.94l209.86-65.26c.59-.19,2.06-.64,2.3-1.11.71-1.33-1.27-4.38-2.69-4.9L698.17,298.51a11.81,11.81,0,0,0-7.75.53L485.74,362.93a3.84,3.84,0,0,0-2,1.71,2,2,0,0,0,1.05,3l182.87,66S670.05,434.7,670.35,435.94Z"/><path class="cls-21" d="M670.35,479.15l209.71-66.76a4.43,4.43,0,0,0,2.72-4.08V369.46c0-1.77-1.22-2.82-2.72-2.34L670.35,433.88a4.42,4.42,0,0,0-2.72,4.07V476.8C667.63,478.58,668.85,479.63,670.35,479.15Z"/><path d="M662.78,431.44l.09,0L877,364.13a.33.33,0,0,0,.21-.41.32.32,0,0,0-.4-.21l-214.13,67.3a.32.32,0,0,0,.1.63Z"/><path class="cls-24" d="M686.48,468.48a.32.32,0,0,1-.13-.26,4.31,4.31,0,0,0-1.53-3.57,3.26,3.26,0,0,0-3-.38.33.33,0,0,1-.42-.31V441.82a.31.31,0,0,1,.23-.3c2.6-.83,4.72-4,4.72-7.11a.32.32,0,0,1,.22-.31l184.2-58.63a.33.33,0,0,1,.29,0,.35.35,0,0,1,.13.26,4.32,4.32,0,0,0,1.53,3.58,3.26,3.26,0,0,0,3,.38.33.33,0,0,1,.42.31v22.14a.32.32,0,0,1-.23.3c-2.6.83-4.72,4-4.72,7.11a.33.33,0,0,1-.22.31l-184.2,58.63-.1,0A.34.34,0,0,1,686.48,468.48Zm189-66.53V380.46a3.79,3.79,0,0,1-3.15-.59,4.76,4.76,0,0,1-1.78-3.66L687,434.65c-.1,3.18-2.26,6.41-4.94,7.4v21.49a3.79,3.79,0,0,1,3.15.59,4.76,4.76,0,0,1,1.78,3.66l183.57-58.44C870.65,406.17,872.81,402.93,875.49,402Z"/><path class="cls-24" d="M702.08,443.1h.1l153.37-48.2a.32.32,0,1,0-.19-.61L702,442.47a.32.32,0,0,0,.1.63Z"/><path class="cls-24" d="M730,441.07h.1l100.8-31.68a.32.32,0,0,0,.21-.4.31.31,0,0,0-.4-.21l-100.8,31.67a.34.34,0,0,0-.22.41A.33.33,0,0,0,730,441.07Z"/><path class="cls-21" d="M488.18,369l177.56,68.37c3.28,1.26,5.93,1.33,5.93.14v-.32c0-1.19-2.65-3.17-5.93-4.43L488.18,364.41c-3.28-1.26-4.49-.27-4.49.91v.33C483.69,366.83,484.9,367.76,488.18,369Z"/><path class="cls-25" d="M528,379.35c-.17,0-8.33,3-8.33,3l9,2.24Z"/><path class="cls-26" d="M522.63,387.29l204.54,44.84c3.78.83,6.83.52,6.83-.69v-.34c0-1.2-3.07-2.86-6.85-3.68L522.61,382.57c-3.78-.82-4.23.3-4.22,1.51v.34C518.39,385.62,518.85,386.46,522.63,387.29Z"/><polygon class="cls-22" points="729.33 428.01 524.02 382.88 523.85 346.02 729.15 390.25 729.33 428.01"/><path d="M719.87,395.74a.31.31,0,0,0,.31-.25.32.32,0,0,0-.24-.39L528.13,353.05a.32.32,0,0,0-.38.25.32.32,0,0,0,.24.38L719.8,395.73Z"/><path d="M713.24,407.67a.32.32,0,0,0,.07-.64L536.43,368.25a.33.33,0,0,0-.39.25.32.32,0,0,0,.25.38l176.88,38.78Z"/><path d="M717.14,401.78a.31.31,0,0,0,.31-.25.32.32,0,0,0-.24-.39l-72.8-16a.33.33,0,0,0-.38.25.32.32,0,0,0,.25.38l72.79,16Z"/><path d="M616.4,379.69a.32.32,0,0,0,.07-.63l-72.8-16a.32.32,0,0,0-.38.24.32.32,0,0,0,.25.39l72.79,16Z"/><path d="M631.37,400.1a.32.32,0,0,0,.32-.25.32.32,0,0,0-.25-.38l-87.69-19.23a.33.33,0,0,0-.38.25.32.32,0,0,0,.25.38L631.3,400.1Z"/><path d="M697.12,409.49a.33.33,0,0,0,.31-.26.32.32,0,0,0-.24-.38l-72.8-16a.31.31,0,0,0-.38.25.32.32,0,0,0,.24.38l72.8,16Z"/><path d="M738,423.47a.33.33,0,0,0,.32-.25.33.33,0,0,0-.25-.38l-72.79-16a.32.32,0,1,0-.14.63l72.79,16Z"/><path class="cls-27" d="M732.27,388.41l97.14-67.18c.57-.31,2-1.08,2.24-1.6.68-1.52-1.26-4.23-2.65-4.46L628.15,284c-3.36-.4-6.1,1.35-7.56,2.15l-101,53.67a5.23,5.23,0,0,0-2.32,2,1.84,1.84,0,0,0,1.21,2.91L729.13,386.4S731.92,387.19,732.27,388.41Z"/><path class="cls-26" d="M732.48,432.6l97-68.68a5.83,5.83,0,0,0,2.63-4.73l-.19-39.73c0-1.81-1.2-2.64-2.66-1.83l-97,68.68a5.33,5.33,0,0,0-3.11,4.55l.19,39.73A2.1,2.1,0,0,0,732.48,432.6Z"/><path d="M723.54,384.88a.3.3,0,0,0,.18-.06l102.61-69.64a.32.32,0,0,0,.08-.45.31.31,0,0,0-.44-.09L723.36,384.29a.32.32,0,0,0-.08.45A.31.31,0,0,0,723.54,384.88Z"/><path class="cls-26" d="M522.43,345.71,727,390.55c3.78.83,6.84.52,6.83-.69v-.33c0-1.21-3.07-2.87-6.85-3.69L522.41,341c-3.77-.83-5.16.36-5.15,1.56v.34C517.27,344.11,518.66,344.88,522.43,345.71Z"/><polygon class="cls-27" points="723.9 426.82 729.32 428.32 729.15 390.86 723.9 389.7 723.9 426.82"/><path class="cls-28" d="M512,330.21c-.13,0-6.52,1.74-6.52,1.74l7,2.94Z"/><path class="cls-29" d="M507.81,336.6l121.1,44c3,1.13,5.34,1.19,5.34.13v-.3c0-1.06-2.39-2.84-5.34-4l-121.1-44c-2.95-1.14-3.3-.2-3.3.86v.3C504.51,334.68,504.86,335.47,507.81,336.6Z"/><polygon class="cls-22" points="630.62 376.44 508.91 332.88 508.91 291.35 630.62 334.91 630.62 376.44"/><path d="M623.34,338.77a.32.32,0,0,0,.11-.62L524,302.45a.33.33,0,0,0-.42.19.32.32,0,0,0,.2.41l99.5,35.7Z"/><path d="M618.11,357.65a.33.33,0,0,0,.31-.22.32.32,0,0,0-.2-.41l-99.5-35.7a.32.32,0,0,0-.22.61L618,357.63Z"/><path d="M651.14,377.32a.32.32,0,0,0,.11-.62L551.74,341a.32.32,0,0,0-.41.2.33.33,0,0,0,.19.41L651,377.3A.2.2,0,0,0,651.14,377.32Z"/><path d="M587.53,333.07a.32.32,0,0,0,.11-.62l-77.39-27.77a.32.32,0,0,0-.22.61l77.39,27.76A.22.22,0,0,0,587.53,333.07Z"/><path d="M559.89,329.15a.33.33,0,0,0,.31-.21.32.32,0,0,0-.2-.41l-47.34-17a.33.33,0,0,0-.42.19.33.33,0,0,0,.2.42l47.35,17A.18.18,0,0,0,559.89,329.15Z"/><path d="M628.71,353a.32.32,0,0,0,.11-.62l-41.18-14.77a.32.32,0,0,0-.22.6L628.6,353Z"/><path class="cls-30" d="M633.06,333.63l234.62-60.86c.53-.16,1.85-.57,2.07-1,.63-1.2-1.14-3.95-2.42-4.41L714.52,234.5a10.61,10.61,0,0,0-7,.47L505.62,285.44A3.47,3.47,0,0,0,503.8,287a1.83,1.83,0,0,0,.94,2.69l125.88,41.85S632.79,332.52,633.06,333.63Z"/><path class="cls-29" d="M633.06,381.61,867.55,319.4a4,4,0,0,0,2.44-3.67V271.68c0-1.59-1.09-2.54-2.44-2.11L633.06,331.78a4,4,0,0,0-2.44,3.66V379.5C630.62,381.09,631.71,382,633.06,381.61Z"/><path d="M626.25,329.62h.08l238.46-62.69a.32.32,0,0,0,.22-.4.31.31,0,0,0-.39-.22L626.17,329a.33.33,0,0,0-.23.4A.33.33,0,0,0,626.25,329.62Z"/><path class="cls-29" d="M507.81,290.92l121.1,44c3,1.13,5.34,1.19,5.34.13v-.3c0-1.06-2.39-2.84-5.34-4l-121.1-44c-2.95-1.14-4-.25-4,.82v.29C503.78,289,504.86,289.79,507.81,290.92Z"/><path class="cls-24" d="M825.18,327.2a.31.31,0,0,1-.13-.25v-43a.33.33,0,0,1,.24-.31l19.62-5.2a.31.31,0,0,1,.28.05.33.33,0,0,1,.13.26v43a.33.33,0,0,1-.24.32l-19.62,5.2h-.09A.26.26,0,0,1,825.18,327.2Zm19.49-48-19,5v42.34l19-5Z"/><path class="cls-31" d="M655.27,369.92l10.43-2.48a4.22,4.22,0,0,1,3.42-4v-30c-2.92.69-5.77-1.28-5.77-4l-8.43,2a6.7,6.7,0,0,1-5.42,6.3V366C652.41,365.26,655.27,367.22,655.27,369.92Z"/><path class="cls-24" d="M816.36,328.44a.32.32,0,0,0,.32-.32V288.26a.33.33,0,0,0-.65,0v39.86A.32.32,0,0,0,816.36,328.44Z"/><path class="cls-24" d="M808,324a.32.32,0,0,0,.32-.32v-29a.33.33,0,0,0-.65,0v29A.32.32,0,0,0,808,324Z"/><path class="cls-32" d="M518.64,278.05c-.17,0-8.33,3-8.33,3l9,2.24Z"/><path class="cls-33" d="M513.29,286l225.23,17.72c4.19.37,7.59-.32,7.58-1.53v-.33c0-1.21-3.41-2.49-7.6-2.85L513.27,281.27c-3.78-.82-4.23.3-4.22,1.51v.33C509.05,284.32,509.51,285.16,513.29,286Z"/><polygon class="cls-22" points="740.91 299.32 514.68 281.58 514.5 235.84 740.72 252.72 740.91 299.32"/><path d="M730.42,259.34a.32.32,0,0,0,0-.64l-211.7-15.83a.32.32,0,0,0-.34.3.31.31,0,0,0,.29.34l211.7,15.83Z"/><path d="M723.06,272.09a.32.32,0,0,0,.32-.3.33.33,0,0,0-.3-.35L519.36,257.5a.34.34,0,0,0-.35.3.33.33,0,0,0,.3.35L723,272.08Z"/><path d="M727.39,265.72a.33.33,0,0,0,.32-.3.33.33,0,0,0-.3-.35l-90.12-6.13a.32.32,0,0,0-.34.3.32.32,0,0,0,.3.34l90.11,6.14Z"/><path d="M602.25,258.59a.32.32,0,0,0,0-.64l-68-5a.32.32,0,1,0,0,.64l68,5Z"/><path d="M662.15,280a.33.33,0,0,0,.32-.3.32.32,0,0,0-.3-.34l-138-10.21a.32.32,0,1,0-.05.64l138,10.21Z"/><path d="M725,291.71a.32.32,0,0,0,.32-.3.31.31,0,0,0-.29-.34l-90.12-6.14a.33.33,0,0,0,0,.65L725,291.71Z"/><path class="cls-34" d="M744.18,250.49l64.15-39.85c.57-.32,2-1.09,2.24-1.61.68-1.51-1.26-4.22-2.65-4.46l-185.6-8.07c-3.36-.41-10.6.62-12.06,1.42l-100,31.73a5.11,5.11,0,0,0-2.32,2,1.84,1.84,0,0,0,1.21,2.91L740.7,248.87S743.79,249.32,744.18,250.49Z"/><path class="cls-33" d="M744.41,303.53l64-41.33a5.82,5.82,0,0,0,2.64-4.74l-.19-49.53c0-1.81-1.2-2.63-2.66-1.83l-64,41.36a6.16,6.16,0,0,0-3.45,4.93l.21,49.51C740.94,303.72,742.5,304.44,744.41,303.53Z"/><path d="M729.58,247a.34.34,0,0,0,.17,0l68.46-42.1a.32.32,0,0,0,.11-.44.34.34,0,0,0-.45-.11l-68.46,42.1a.33.33,0,0,0,.17.6Z"/><path class="cls-33" d="M513.09,235.54,738.3,253.28c4.19.37,7.59-.32,7.58-1.52v-.34c0-1.21-3.41-2.48-7.6-2.85L513.07,230.82c-3.78-.83-5.16.36-5.15,1.57v.34C507.92,233.93,509.32,234.71,513.09,235.54Z"/><polygon class="cls-34" points="734.89 298.8 740.91 299.63 740.72 253.33 734.89 252.81 734.89 298.8"/><polygon class="cls-35" points="589.95 213.59 735.38 220.33 756.06 208.78 620.75 203.01 589.95 213.59"/><path class="cls-36" d="M715.69,113.67v76.78a10,10,0,0,0,10.49,10c74-3.69,132.44-46.08,132.44-97.82a67.65,67.65,0,0,0-.56-8.57,10.09,10.09,0,0,0-10-8.72C797.62,85,748,96.91,723,104.05A10,10,0,0,0,715.69,113.67Z"/><path class="cls-37" d="M801.19,112.64a1.82,1.82,0,0,1-.31-3.62c1.75-.31,35-6,58-6.76a67.11,67.11,0,0,0-.55-8.41,10.13,10.13,0,0,0-10-8.78c-50.58-.41-100.3,11.62-125.38,18.81a10.06,10.06,0,0,0-7.29,9.69v77.29a10.06,10.06,0,0,0,10.51,10.08c44.25-2.21,82.91-18.29,106.92-41.95-21.79,1.68-47.49,6.08-47.86,6.14a1.67,1.67,0,0,1-.31,0,1.82,1.82,0,0,1-.31-3.62c1.6-.28,29.83-5.1,52.26-6.48a88.25,88.25,0,0,0,15.76-23.72c-22.95.65-58,6.66-58.47,6.73a1.63,1.63,0,0,1-.31,0,1.83,1.83,0,0,1-.31-3.63c1.81-.31,37.57-6.43,60.6-6.82a71,71,0,0,0,4.61-21.71c-22.95.82-56.86,6.61-57.28,6.69Z"/><path class="cls-37" d="M598.36,65a113.5,113.5,0,0,0-17.06,60.3c0,32.06,13,60.83,33.48,80.54C662.08,133.76,617.5,82.31,598.36,65Z"/><path class="cls-38" d="M680.5,17.73c-.49,0-1,0-1.47.05-33.56.53-63.09,19.14-80.67,47.24,19.14,17.29,63.72,68.74,16.42,140.84,16.41,15.76,37.67,25.73,61.05,26.9,1.55.12,3.11.19,4.67.19,45.35,0,82.11-48.18,82.11-107.61S725.85,17.73,680.5,17.73Z"/><path class="cls-39" d="M635.19,119.23c0,.19.08.31.12.44l.11.39c.06.25.13.5.19.75q.18.73.33,1.47c.22,1,.4,2,.57,2.92.33,2,.58,3.89.79,5.83a100.77,100.77,0,0,1,.46,11.64,105.92,105.92,0,0,1-.88,11.55c-.14.95-.26,1.91-.42,2.85l-.5,2.84c-.39,1.89-.77,3.77-1.26,5.62-.23.93-.46,1.86-.74,2.78s-.52,1.84-.8,2.75c-.61,1.82-1.17,3.64-1.87,5.41l-.5,1.34-.25.67-.28.66-1.11,2.63c-.18.44-.38.87-.58,1.3l-.61,1.29c-.41.86-.78,1.73-1.24,2.57a115.09,115.09,0,0,1-12.2,19,113.3,113.3,0,0,0,10.42-19.86c.38-.85.67-1.74,1-2.61l.48-1.3c.16-.44.32-.88.46-1.32l.85-2.65.22-.66.18-.67.38-1.34c.53-1.78.92-3.59,1.35-5.38.19-.91.36-1.82.55-2.72s.33-1.82.47-2.73c.32-1.81.52-3.65.74-5.47l.24-2.75c.08-.91.11-1.83.16-2.74a97.86,97.86,0,0,0-.11-11A92.83,92.83,0,0,0,630.54,132c-.35-1.77-.73-3.53-1.18-5.27-.23-.86-.47-1.72-.73-2.56-.13-.42-.26-.84-.4-1.24q-.11-.32-.21-.6l-.11-.29a2.23,2.23,0,0,0-.09-.23Z"/><path d="M605.3,131c1.23,1.4,2.37,2.71,3.57,3.84a15.16,15.16,0,0,0,3.73,2.73,11.44,11.44,0,0,0,2,.78,13,13,0,0,0,2.23.36,33.31,33.31,0,0,0,5.15-.22l.15.3a9.55,9.55,0,0,1-5.07,2.81,9.07,9.07,0,0,1-6.11-.86,11,11,0,0,1-4.36-4.15,12.27,12.27,0,0,1-1.18-2.65,9.28,9.28,0,0,1-.47-2.83Z"/><path d="M593.21,143.11c1.23,1.4,2.37,2.7,3.57,3.83a15,15,0,0,0,3.73,2.74,11.4,11.4,0,0,0,2,.77,13,13,0,0,0,2.23.37,36,36,0,0,0,5.15-.22l.15.3a9.62,9.62,0,0,1-5.07,2.81,9.74,9.74,0,0,1-3.1.1,9.63,9.63,0,0,1-3-1,11,11,0,0,1-4.36-4.16,12,12,0,0,1-1.18-2.64,9.33,9.33,0,0,1-.47-2.83Z"/><path d="M585.86,121c1.23,1.4,2.37,2.71,3.57,3.84a15.35,15.35,0,0,0,3.73,2.73,11.44,11.44,0,0,0,2,.78,14,14,0,0,0,2.23.36,36,36,0,0,0,5.15-.22l.15.3a9.55,9.55,0,0,1-5.07,2.81,9.73,9.73,0,0,1-3.1.11,9.92,9.92,0,0,1-3-1,11,11,0,0,1-4.36-4.16,12,12,0,0,1-1.18-2.64,9.33,9.33,0,0,1-.47-2.83Z"/><path d="M650.49,176.58A57.84,57.84,0,0,0,656.8,179a23.4,23.4,0,0,0,6.18,1.14c.26,0,.51,0,.77,0s.51,0,.76,0,.51,0,.76,0L666,180a20.45,20.45,0,0,0,3-.67,36.66,36.66,0,0,0,6.07-2.76l.24.23a13.32,13.32,0,0,1-5.14,5.18,13.54,13.54,0,0,1-7.39,1.71,16.11,16.11,0,0,1-7.16-2.09,17.57,17.57,0,0,1-3-2.09,13.52,13.52,0,0,1-2.42-2.7Z"/><path d="M667.33,148.33a58,58,0,0,0,6.32,2.44,23.4,23.4,0,0,0,6.18,1.14,6.6,6.6,0,0,0,.77,0,4.83,4.83,0,0,0,.76,0c.25,0,.51,0,.76,0l.76-.09a20.32,20.32,0,0,0,3-.67,36,36,0,0,0,6.08-2.77l.24.24a13.39,13.39,0,0,1-5.14,5.18,14.37,14.37,0,0,1-3.56,1.38,14.53,14.53,0,0,1-3.83.33,16.19,16.19,0,0,1-7.17-2.09,17.89,17.89,0,0,1-3-2.09,13.52,13.52,0,0,1-2.42-2.7Z"/><path d="M638.06,148.33a57.07,57.07,0,0,0,6.31,2.44,23.4,23.4,0,0,0,6.18,1.14,6.6,6.6,0,0,0,.77,0,4.83,4.83,0,0,0,.76,0c.25,0,.51,0,.76,0l.76-.09a20,20,0,0,0,3-.67,36,36,0,0,0,6.08-2.77l.24.24a13.39,13.39,0,0,1-5.14,5.18,14.22,14.22,0,0,1-3.56,1.38,14.53,14.53,0,0,1-3.83.33,16.19,16.19,0,0,1-7.17-2.09,17.89,17.89,0,0,1-3-2.09,13.52,13.52,0,0,1-2.42-2.7Z"/><path d="M684.44,176.58a58.64,58.64,0,0,0,6.31,2.44,23.47,23.47,0,0,0,6.19,1.14c.25,0,.51,0,.76,0s.51,0,.77,0,.5,0,.76,0L700,180a20.45,20.45,0,0,0,3-.67,36.29,36.29,0,0,0,6.07-2.76l.24.23a13.3,13.3,0,0,1-5.13,5.18,14.52,14.52,0,0,1-3.56,1.38,14.16,14.16,0,0,1-3.83.33,16.19,16.19,0,0,1-7.17-2.09,18.4,18.4,0,0,1-3-2.09,13.79,13.79,0,0,1-2.41-2.7Z"/><path d="M696.87,148.33a58.64,58.64,0,0,0,6.31,2.44,23.55,23.55,0,0,0,6.19,1.14,6.45,6.45,0,0,0,.76,0,5,5,0,0,0,.77,0c.25,0,.51,0,.76,0l.76-.09a20.32,20.32,0,0,0,3-.67,36,36,0,0,0,6.08-2.77l.23.24a13.3,13.3,0,0,1-5.13,5.18,14.37,14.37,0,0,1-3.56,1.38,14.53,14.53,0,0,1-3.83.33,16.19,16.19,0,0,1-7.17-2.09,18.4,18.4,0,0,1-3-2.09,13.79,13.79,0,0,1-2.41-2.7Z"/><path class="cls-40" d="M660.51,217.78a4.3,4.3,0,0,0-4.29,4.28,4.29,4.29,0,0,0-4.28-4.28h0a4.3,4.3,0,0,0-4.29,4.28,4.29,4.29,0,0,0-4.28-4.28h0a4.29,4.29,0,0,0-4.28,4.28v10.88a4.29,4.29,0,0,0,4.28,4.29h0a4.29,4.29,0,0,0,4.28-4.29,4.3,4.3,0,0,0,4.29,4.29h0a4.29,4.29,0,0,0,4.28-4.29,4.29,4.29,0,1,0,8.57,0V222.06A4.29,4.29,0,0,0,660.51,217.78Z"/><path class="cls-40" d="M716.74,217.78h0a4.3,4.3,0,0,0-4.28,4.28,4.3,4.3,0,0,0-4.29-4.28h0a4.3,4.3,0,0,0-4.28,4.28,4.29,4.29,0,0,0-8.57,0v10.88a4.29,4.29,0,1,0,8.57,0,4.3,4.3,0,0,0,4.28,4.29h0a4.3,4.3,0,0,0,4.29-4.29,4.3,4.3,0,0,0,4.28,4.29h0a4.3,4.3,0,0,0,4.29-4.29V222.06A4.3,4.3,0,0,0,716.74,217.78Z"/><path class="cls-38" d="M740.76,24.05C716.54,1,680.86,1.59,680.24,1.6S643.94,1,619.72,24.05L644,59.74l36.06,19.88v.19l.18-.09.18.09v-.19l36.06-19.88Z"/><path class="cls-40" d="M688.8,106.28a.75.75,0,0,1-.15-.16c-.11-.14-.34-.42-.68-.79-2.88-3.26-5.68-4.33-8.14-4.28s-5.25,1-8.14,4.28c-.34.37-.57.65-.68.79a1.07,1.07,0,0,1-.14.16c-.83.72-8,7.89,8,29.07a1.2,1.2,0,0,0,1.91,0C696.77,114.17,689.62,107,688.8,106.28Z"/><path class="cls-36" d="M670.62,55s-6.15-27.27-52.29-32.06c0,0-19.33-2.1-37.9-19.62,0,0-4.39,19.15,26.87,33C607.3,36.29,645.6,19.59,670.62,55Z"/><path class="cls-36" d="M689.19,54.94s6.15-27.26,52.29-32.06c0,0,19.32-2.1,37.9-19.63,0,0,4.39,19.16-26.87,33C752.51,36.28,714.21,19.59,689.19,54.94Z"/><path class="cls-37" d="M681.89,57.83c7.57-20.2,27.08-35.16,50.63-37.52a1.93,1.93,0,0,0,1-3.5,94,94,0,0,0-107.32,0,1.93,1.93,0,0,0,1,3.5c23.55,2.35,43.06,17.31,50.64,37.51A2.15,2.15,0,0,0,681.89,57.83Z"/><path d="M675.79,76.52a46.07,46.07,0,1,1-46.07-46.07A46.13,46.13,0,0,1,675.79,76.52Zm-46.07,39.33a39.33,39.33,0,1,0-39.33-39.32A39.38,39.38,0,0,0,629.72,115.85Z"/><path class="cls-41" d="M669.05,76.52a39.33,39.33,0,1,1-39.33-39.33A39.38,39.38,0,0,1,669.05,76.52Z"/><path d="M684.06,76.52a46.07,46.07,0,1,0,46.07-46.07A46.12,46.12,0,0,0,684.06,76.52Zm46.07,39.33a39.33,39.33,0,1,1,39.33-39.32A39.38,39.38,0,0,1,730.13,115.85Z"/><path class="cls-41" d="M690.8,76.52a39.33,39.33,0,1,0,39.33-39.33A39.38,39.38,0,0,0,690.8,76.52Z"/><path d="M611.21,80.26C608.3,68.54,619.5,56.51,631.52,57c12-.44,23.22,11.59,20.3,23.31a1.26,1.26,0,0,1-2.44,0c-5.07-19.7-30.66-19.69-35.73,0a1.27,1.27,0,0,1-2.44,0Z"/><path d="M748.64,80.26c2.91-11.72-8.29-23.75-20.31-23.31-12-.44-23.22,11.59-20.3,23.31a1.26,1.26,0,0,0,2.44,0c5.07-19.7,30.66-19.69,35.73,0a1.27,1.27,0,0,0,2.44,0Z"/></g></g></svg>