<?xml version="1.0" encoding="UTF-8"?>
<svg id="Layer_2" data-name="Layer 2" xmlns="http://www.w3.org/2000/svg" viewBox="0 0 200 170">
  <defs>
    <style>
      .cls-1 {
        fill: #3c2822;
      }

      .cls-1, .cls-2, .cls-3, .cls-4, .cls-5, .cls-6, .cls-7 {
        stroke-width: 0px;
      }

      .cls-2 {
        fill: #ccc5be;
      }

      .cls-3 {
        fill: #010101;
      }

      .cls-4 {
        fill: #795941;
      }

      .cls-5 {
        fill: #cb8e3e;
      }

      .cls-6 {
        fill: #1d1d1b;
      }

      .cls-7 {
        fill: #fff;
      }
    </style>
  </defs>
  <g id="Layer_2-2" data-name="Layer 2">
    <path class="cls-1" d="M102.78,81.46v55.02c0,4.08-3.43,7.38-7.53,7.18C42.11,141.02.2,110.64.2,73.56c0-2.07.14-4.12.4-6.14.46-3.56,3.53-6.22,7.14-6.25,36.23-.29,71.84,8.28,89.81,13.4,3.1.88,5.22,3.69,5.22,6.89Z"/>
    <path class="cls-4" d="M41.42,80.72c.63,0,1.18-.45,1.29-1.09.12-.71-.36-1.39-1.07-1.51-1.25-.22-25.11-4.29-41.64-4.84,0-2.03.14-4.04.4-6.03.46-3.58,3.54-6.26,7.16-6.29,36.3-.29,71.99,8.33,89.99,13.48,3.1.89,5.23,3.72,5.23,6.94v55.39c0,4.11-3.43,7.43-7.54,7.22-31.76-1.59-59.5-13.11-76.73-30.06,15.64,1.21,34.08,4.36,34.35,4.4.08.01.15.02.22.02.63,0,1.18-.45,1.29-1.09.12-.71-.36-1.39-1.07-1.51-1.15-.2-21.41-3.65-37.51-4.64-4.8-5.24-8.63-10.95-11.31-17,16.47.47,41.65,4.77,41.96,4.83.08.01.15.02.22.02.63,0,1.18-.45,1.29-1.09.12-.71-.36-1.39-1.07-1.51-1.3-.22-26.96-4.6-43.49-4.89-1.91-4.99-3.04-10.2-3.31-15.56,16.47.59,40.8,4.74,41.11,4.79.08.01.15.02.22.02Z"/>
    <g>
      <g>
        <path class="cls-4" d="M186.98,46.6c7.72,12.32,12.24,27.19,12.24,43.21,0,22.98-9.29,43.6-24.02,57.72-33.95-51.66-1.95-88.54,11.78-100.92Z"/>
        <path class="cls-2" d="M128.03,12.71c.35,0,.7.03,1.06.03,24.09.38,45.28,13.72,57.9,33.86-13.74,12.39-45.73,49.26-11.78,100.92-11.78,11.29-27.04,18.44-43.82,19.28-1.11.08-2.23.13-3.35.13-32.54,0-58.93-34.53-58.93-77.11S95.48,12.71,128.03,12.71Z"/>
      </g>
      <path class="cls-6" d="M160.55,85.44c-.04.13-.06.22-.09.31l-.07.28c-.05.18-.09.36-.14.54-.09.36-.17.71-.24,1.06-.15.7-.28,1.4-.4,2.09-.24,1.39-.42,2.78-.57,4.18-.28,2.78-.38,5.57-.33,8.34.05,2.77.27,5.54.63,8.27.1.68.18,1.37.3,2.05l.36,2.04c.28,1.35.55,2.7.9,4.03.17.67.33,1.33.53,1.99.19.66.38,1.32.58,1.97.44,1.3.84,2.61,1.34,3.88l.36.96.18.48.2.47.79,1.89c.13.32.27.62.42.93l.43.92c.3.61.56,1.24.89,1.84,2.47,4.85,5.41,9.42,8.75,13.65-2.96-4.51-5.48-9.28-7.48-14.23-.27-.61-.48-1.25-.71-1.87l-.35-.94c-.12-.31-.23-.62-.33-.94l-.61-1.9-.15-.47-.13-.48-.27-.96c-.38-1.27-.66-2.57-.97-3.86-.14-.65-.26-1.3-.39-1.95-.14-.65-.24-1.3-.34-1.95-.23-1.3-.37-2.61-.53-3.92l-.17-1.97c-.06-.66-.08-1.31-.12-1.97-.12-2.63-.1-5.25.08-7.86.18-2.61.5-5.2.98-7.75.25-1.27.53-2.53.85-3.77.16-.62.34-1.23.52-1.84.09-.3.19-.6.29-.89.05-.15.1-.29.15-.43l.08-.21c.02-.06.05-.14.07-.17l-5.29-1.84Z"/>
    </g>
    <g>
      <path class="cls-3" d="M182,93.86c-.88,1-1.7,1.94-2.56,2.75-.85.81-1.74,1.5-2.68,1.96-.47.23-.96.42-1.46.56-.51.14-1.04.21-1.6.26-1.12.07-2.34-.04-3.7-.16l-.11.22c.94,1.01,2.2,1.7,3.63,2.01.72.14,1.47.17,2.23.07.75-.11,1.49-.35,2.16-.69,1.35-.69,2.4-1.78,3.13-2.98.36-.6.65-1.24.85-1.89.2-.66.34-1.33.33-2.03l-.23-.08Z"/>
      <path class="cls-3" d="M190.67,102.55c-.88,1-1.7,1.94-2.56,2.75-.85.81-1.74,1.5-2.68,1.96-.47.23-.96.42-1.46.56-.51.14-1.04.21-1.6.26-1.12.07-2.34-.04-3.7-.16l-.11.22c.94,1.01,2.2,1.7,3.63,2.01.72.14,1.47.17,2.23.07.75-.11,1.49-.35,2.16-.69,1.35-.69,2.4-1.78,3.13-2.98.36-.6.65-1.24.85-1.89.2-.66.34-1.33.33-2.03l-.23-.08Z"/>
      <path class="cls-3" d="M195.95,86.71c-.88,1-1.7,1.94-2.56,2.75-.85.81-1.74,1.5-2.68,1.96-.47.23-.96.42-1.46.56-.51.14-1.04.21-1.6.26-1.12.07-2.34-.04-3.7-.16l-.11.22c.94,1.01,2.2,1.7,3.63,2.01.72.14,1.47.17,2.23.07.75-.11,1.49-.35,2.16-.69,1.35-.69,2.4-1.78,3.13-2.98.36-.6.65-1.24.85-1.89.2-.66.34-1.33.33-2.03l-.23-.08Z"/>
    </g>
    <g>
      <path class="cls-3" d="M149.57,126.54c-1.54.68-3.03,1.29-4.53,1.75-1.49.46-2.97.77-4.44.82-.18.01-.37,0-.55,0-.18,0-.37,0-.55-.01-.18-.02-.37,0-.55-.03l-.54-.06c-.72-.1-1.44-.27-2.17-.48-1.44-.46-2.85-1.17-4.36-1.98l-.17.17c.82,1.52,2.11,2.81,3.69,3.71.79.44,1.66.77,2.56.99.9.2,1.83.28,2.75.24,1.84-.08,3.6-.65,5.14-1.5.77-.43,1.49-.93,2.14-1.5.65-.58,1.25-1.2,1.73-1.93l-.16-.18Z"/>
      <g>
        <path class="cls-3" d="M137.48,106.29c-1.54.68-3.03,1.29-4.53,1.75-1.49.46-2.97.77-4.44.82-.18.01-.37,0-.55,0-.18,0-.37,0-.55-.01-.18-.02-.37,0-.55-.03l-.54-.06c-.72-.1-1.44-.27-2.17-.48-1.44-.46-2.85-1.17-4.36-1.98l-.17.17c.82,1.52,2.11,2.81,3.69,3.71.79.44,1.66.77,2.56.99.9.2,1.83.28,2.75.24,1.84-.08,3.6-.65,5.14-1.5.77-.43,1.49-.93,2.14-1.5.65-.58,1.25-1.2,1.73-1.93l-.16-.18Z"/>
        <path class="cls-3" d="M158.49,106.29c-1.54.68-3.03,1.29-4.53,1.75-1.49.46-2.97.77-4.44.82-.18.01-.37,0-.55,0-.18,0-.37,0-.55-.01-.18-.02-.37,0-.55-.03l-.54-.06c-.72-.1-1.44-.27-2.17-.48-1.44-.46-2.85-1.17-4.36-1.98l-.17.17c.82,1.52,2.11,2.81,3.69,3.71.79.44,1.66.77,2.56.99.9.2,1.83.28,2.75.24,1.84-.08,3.6-.65,5.14-1.5.77-.43,1.49-.93,2.14-1.5.65-.58,1.25-1.2,1.73-1.93l-.16-.18Z"/>
        <path class="cls-3" d="M125.2,126.54c-1.54.68-3.03,1.29-4.53,1.75-1.49.46-2.97.77-4.44.82-.18.01-.37,0-.55,0-.18,0-.37,0-.55-.01-.18-.02-.37,0-.55-.03l-.54-.06c-.72-.1-1.44-.27-2.17-.48-1.44-.46-2.85-1.17-4.36-1.98l-.17.17c.82,1.52,2.11,2.81,3.69,3.71.79.44,1.66.77,2.56.99.9.2,1.83.28,2.75.24,1.84-.08,3.6-.65,5.14-1.5.77-.43,1.49-.93,2.14-1.5.65-.58,1.25-1.2,1.73-1.93l-.16-.18Z"/>
        <path class="cls-3" d="M116.28,106.29c-1.54.68-3.03,1.29-4.53,1.75-1.49.46-2.97.77-4.44.82-.18.01-.37,0-.55,0-.18,0-.37,0-.55-.01-.18-.02-.37,0-.55-.03l-.54-.06c-.72-.1-1.44-.27-2.17-.48-1.44-.46-2.85-1.17-4.36-1.98l-.17.17c.82,1.52,2.11,2.81,3.69,3.71.79.44,1.66.77,2.56.99.9.2,1.83.28,2.75.24,1.84-.08,3.6-.65,5.14-1.5.77-.43,1.49-.93,2.14-1.5.65-.58,1.25-1.2,1.73-1.93l-.16-.18Z"/>
      </g>
    </g>
    <path class="cls-5" d="M142.38,156.06c1.69,0,3.08,1.38,3.08,3.07,0-1.69,1.38-3.07,3.08-3.07h0c1.69,0,3.08,1.38,3.08,3.07,0-1.69,1.38-3.07,3.08-3.07h0c1.69,0,3.08,1.38,3.08,3.07v7.8c0,1.69-1.38,3.07-3.08,3.07h0c-1.69,0-3.08-1.38-3.08-3.07,0,1.69-1.38,3.07-3.08,3.07h0c-1.69,0-3.08-1.38-3.08-3.07,0,1.69-1.38,3.07-3.08,3.07s-3.08-1.38-3.08-3.07v-7.8c0-1.69,1.38-3.07,3.08-3.07Z"/>
    <path class="cls-5" d="M102.02,156.06h0c1.69,0,3.08,1.38,3.08,3.07,0-1.69,1.38-3.07,3.08-3.07h0c1.69,0,3.08,1.38,3.08,3.07,0-1.69,1.38-3.07,3.08-3.07s3.08,1.38,3.08,3.07v7.8c0,1.69-1.38,3.07-3.08,3.07s-3.08-1.38-3.08-3.07c0,1.69-1.38,3.07-3.08,3.07h0c-1.69,0-3.08-1.38-3.08-3.07,0,1.69-1.38,3.07-3.08,3.07h0c-1.69,0-3.08-1.38-3.08-3.07v-7.8c0-1.69,1.38-3.07,3.08-3.07Z"/>
    <path class="cls-2" d="M84.78,17.23C102.16.73,127.77,1.14,128.21,1.15c.44,0,26.05-.42,43.43,16.09l-17.42,25.57-25.88,14.25v.14s-.13-.07-.13-.07l-.13.07v-.14s-25.88-14.25-25.88-14.25l-17.42-25.57Z"/>
    <path class="cls-5" d="M122.07,76.16s.07-.07.11-.11c.08-.1.24-.31.49-.57,2.07-2.34,4.08-3.1,5.84-3.07,1.77-.04,3.77.73,5.84,3.07.24.26.41.47.49.57.03.04.07.08.11.11.59.52,5.72,5.65-5.75,20.83-.34.45-1.03.45-1.37,0-11.47-15.18-6.34-20.32-5.75-20.83Z"/>
    <g>
      <path class="cls-1" d="M135.12,39.37s4.41-19.54,37.53-22.97c0,0,13.87-1.5,27.2-14.06,0,0,3.15,13.73-19.29,23.66,0,0-27.48-11.97-45.44,13.37Z"/>
      <path class="cls-1" d="M121.79,39.37s-4.41-19.54-37.52-22.98c0,0-13.87-1.5-27.2-14.07,0,0-3.15,13.73,19.28,23.67,0,0,27.49-11.96,45.44,13.38Z"/>
    </g>
    <path class="cls-4" d="M127.03,41.44c-5.44-14.48-19.44-25.2-36.34-26.88-1.35-.13-1.83-1.74-.75-2.51C99.8,5.05,113.42,0,128.46,0s28.66,5.06,38.51,12.05c1.08.77.6,2.37-.75,2.51-16.9,1.68-30.9,12.4-36.34,26.88-.47,1.26-2.37,1.26-2.84,0Z"/>
    <g>
      <g>
        <path class="cls-3" d="M131.41,54.83c0,18.2,14.83,33.01,33.06,33.02,18.23,0,33.06-14.81,33.07-33.01,0-18.2-14.83-33.01-33.06-33.01-18.23,0-33.06,14.81-33.07,33.01ZM164.47,83.02c-15.56,0-28.22-12.64-28.22-28.18,0-15.54,12.66-28.18,28.23-28.18,15.56,0,28.22,12.64,28.22,28.18,0,15.54-12.66,28.18-28.23,28.18Z"/>
        <path class="cls-7" d="M136.25,54.84c0,15.54,12.66,28.18,28.22,28.18s28.22-12.64,28.23-28.18c0-15.54-12.66-28.18-28.22-28.18-15.56,0-28.22,12.64-28.23,28.18Z"/>
      </g>
      <g>
        <path class="cls-3" d="M125.47,54.83c0,18.2-14.83,33.01-33.06,33.02-18.23,0-33.06-14.81-33.07-33.01,0-18.2,14.83-33.01,33.06-33.01,18.23,0,33.06,14.81,33.07,33.01ZM92.41,83.02c15.56,0,28.22-12.64,28.22-28.18,0-15.54-12.66-28.18-28.23-28.18-15.56,0-28.22,12.64-28.22,28.18,0,15.54,12.66,28.18,28.23,28.18Z"/>
        <path class="cls-7" d="M120.63,54.84c0,15.54-12.66,28.18-28.22,28.18s-28.22-12.64-28.23-28.18c0-15.54,12.66-28.18,28.22-28.18,15.56,0,28.22,12.64,28.23,28.18Z"/>
      </g>
    </g>
    <path class="cls-3" d="M177.75,57.51c2.09-8.39-5.95-17.01-14.57-16.7-8.62-.31-16.67,8.31-14.57,16.7.19.9,1.56.89,1.75,0,3.64-14.12,22.01-14.11,25.65,0,.18.9,1.57.89,1.75,0h0Z"/>
    <path class="cls-3" d="M79.13,57.51c-2.09-8.39,5.95-17.01,14.57-16.7,8.62-.31,16.67,8.31,14.57,16.7-.19.9-1.56.89-1.75,0-3.64-14.12-22.01-14.11-25.65,0-.18.9-1.57.89-1.75,0h0Z"/>
  </g>
</svg>