<svg xmlns="http://www.w3.org/2000/svg" width="17.206" height="15.453" viewBox="0 0 17.206 15.453">
  <g id="그룹_2059" data-name="그룹 2059" transform="translate(-288.474 56.24)">
    <g id="그룹_404" data-name="그룹 404" transform="translate(288.474 -56.24)">
      <path id="패스_936" data-name="패스 936" d="M297.2-40.787a.569.569,0,0,1-.08-.006.525.525,0,0,1-.434-.415l-1.718-8.517-6.315-5.6a.526.526,0,0,1-.143-.579A.525.525,0,0,1,289-56.24h16.157a.525.525,0,0,1,.452.258.525.525,0,0,1,.007.52l-4.855,8.789h0l-3.1,5.615A.524.524,0,0,1,297.2-40.787Zm-6.818-14.4,5.412,4.8a.528.528,0,0,1,.166.289l1.47,7.289,6.837-12.375Zm9.92,8.265h0Z" transform="translate(-288.474 56.24)"/>
    </g>
    <g id="그룹_405" data-name="그룹 405" transform="translate(294.921 -56.24)">
      <path id="패스_937" data-name="패스 937" d="M307.435-49.475a.524.524,0,0,1-.452-.258.525.525,0,0,1,.186-.718l9.71-5.715a.526.526,0,0,1,.718.186.525.525,0,0,1-.186.718l-9.71,5.715A.524.524,0,0,1,307.435-49.475Z" transform="translate(-306.91 56.239)"/>
    </g>
  </g>
</svg>
