<svg xmlns="http://www.w3.org/2000/svg" width="17.731" height="15.291" viewBox="0 0 17.731 15.291">
  <path id="패스_934" data-name="패스 934" d="M176.939-59.982a4.229,4.229,0,0,1,2.262.669,5.425,5.425,0,0,1,1.695,7.026c-.926,1.758-4.781,5.05-8.08,7.544a.249.249,0,0,1-.152.052.25.25,0,0,1-.152-.052c-3.3-2.494-7.154-5.786-8.08-7.544a5.426,5.426,0,0,1,1.694-7.026,4.23,4.23,0,0,1,2.261-.669,4.483,4.483,0,0,1,3.566,1.279l.711.969.711-.969a4.328,4.328,0,0,1,3.566-1.279" transform="translate(-163.797 59.982)" fill="#f05161"/>
</svg>
