<svg xmlns="http://www.w3.org/2000/svg" width="13.899" height="18.547" viewBox="0 0 13.899 18.547">
  <path id="패스_938" data-name="패스 938" d="M423.546-37.3a1.24,1.24,0,0,1-.5-.108,1.215,1.215,0,0,1-.731-1.124V-54.62a1.231,1.231,0,0,1,1.229-1.23h11.441a1.231,1.231,0,0,1,1.229,1.23v16.086a1.215,1.215,0,0,1-.731,1.124,1.214,1.214,0,0,1-1.324-.213l-4.894-4.434-4.895,4.434A1.216,1.216,0,0,1,423.546-37.3Zm.047-17.266v15.916l4.842-4.387a1.226,1.226,0,0,1,1.652,0l4.842,4.387V-54.568Zm11.388,0h0Z" transform="translate(-422.312 55.85)"/>
</svg>
