<svg xmlns="http://www.w3.org/2000/svg" width="16.427" height="16.428" viewBox="0 0 16.427 16.428">
  <g id="그룹_507" data-name="그룹 507" transform="translate(-230.178 59.982)">
    <g id="그룹_402" data-name="그룹 402" transform="translate(230.178 -59.982)">
      <path id="패스_935" data-name="패스 935" d="M238.391-43.554a8.223,8.223,0,0,1-8.213-8.214,8.223,8.223,0,0,1,8.213-8.214,8.223,8.223,0,0,1,8.214,8.214,8.2,8.2,0,0,1-.984,3.887l.7,4.229-4-.912A8.2,8.2,0,0,1,238.391-43.554Zm0-15.142a6.936,6.936,0,0,0-6.929,6.929,6.936,6.936,0,0,0,6.929,6.929,6.918,6.918,0,0,0,3.505-.96l.22-.13,2.627.6-.465-2.788.115-.2a6.92,6.92,0,0,0,.926-3.45A6.937,6.937,0,0,0,238.391-58.7Z" transform="translate(-230.178 59.982)" fill="#1d1d1b"/>
    </g>
  </g>
</svg>
