<svg xmlns="http://www.w3.org/2000/svg" xmlns:xlink="http://www.w3.org/1999/xlink" width="1920" height="610.216" viewBox="0 0 1920 610.216">
  <defs>
    <clipPath id="clip-path">
      <rect id="사각형_589" data-name="사각형 589" width="1920" height="610.216" fill="none"/>
    </clipPath>
  </defs>
  <g id="그룹_1587" data-name="그룹 1587" transform="translate(789.696 344)">
    <g id="그룹_1586" data-name="그룹 1586" transform="translate(-789.696 -344)" clip-path="url(#clip-path)">
      <g id="그룹_1585" data-name="그룹 1585" transform="translate(-112.358 10.734)">
        <path id="패스_2308" data-name="패스 2308" d="M-748.707-248.159c23.447-6.72,6.748-112.256,478.421,54.218S526.365-121.119,767.167-213.6s514.342-64.691,592.865,12.293,29.791,495.8,29.791,495.8l-2223.409-1.615Z" transform="translate(833.586 421.717)" fill="#d8bc9c"/>
        <g id="그룹_1584" data-name="그룹 1584" transform="translate(26.89)">
          <g id="그룹_1541" data-name="그룹 1541" transform="translate(628.052 116.98)">
            <path id="패스_2309" data-name="패스 2309" d="M-455.373-43.8s5.12,12.675,30.08,9.475,23.04-25.6,23.04-25.6l-2.519-162.481a5.418,5.418,0,0,0-2.148-4.234l-88.1-66.685a3.852,3.852,0,0,0-4.124-.338l-1.331.7a3.528,3.528,0,0,0-1.733,4.147l30.835,72.732-83.2-47.36h-3.415l-15.145-12.16s-5.548-.745-4.48,3.84S-455.373-43.8-455.373-43.8Z" transform="translate(577.749 294.112)" fill="#3d3636"/>
            <path id="패스_2310" data-name="패스 2310" d="M-454.7-53.9s3.633,9,21.348,6.723S-417-65.345-417-65.345l-4.242-156.964-94.293-70.825s-7.467,3.412-8,3.412,26.509,37.12,26.509,37.12-41.124-31.573-42.4-31.573a37.783,37.783,0,0,0-5.972,1.28c-1.708.425-6.4.853-5.548,2.133s6.828,7.468,6.828,7.468l-12.8-4.48-16.318,6.206,8.21,6.595,78.08,58.88Z" transform="translate(584.788 295.637)" fill="#fff"/>
            <path id="패스_2311" data-name="패스 2311" d="M-489.532-214.674a6.31,6.31,0,0,0-2.286-3.638l-44.124-34.463L-577.7-285.384l30.08,129.28,92.16,98.685Z" transform="translate(577.832 307.727)" fill="#604d4d"/>
            <path id="패스_2312" data-name="패스 2312" d="M-548.707-187.274-568-270.2l36.306,28.356,18.187,92.262Z" transform="translate(592.953 331.413)" fill="#a9b8b3"/>
            <path id="패스_2313" data-name="패스 2313" d="M-473.576-236.968l-47.787,16.213,1.387,11.84,48.32-12.48Z" transform="translate(665.712 383.256)" fill="#a9b8b3"/>
          </g>
          <g id="그룹_1542" data-name="그룹 1542" transform="translate(1786.459 227.413)">
            <path id="패스_2314" data-name="패스 2314" d="M-102.006-227.518s-13.642-.827-21.489,23.081,13.2,31.811,13.2,31.811L37.476-105.019a5.421,5.421,0,0,0,4.746-.118l98.094-50.854a3.863,3.863,0,0,0,2.079-3.579l-.061-1.5a3.527,3.527,0,0,0-3-3.348l-78.925-3.443,78.541-54.743,1.467-3.082,17.492-8.443s3.057-4.687-1.541-5.7S-102.006-227.518-102.006-227.518Z" transform="translate(125.246 268.275)" fill="#3d3636"/>
            <path id="패스_2315" data-name="패스 2315" d="M-104.391-222.728s-9.682-.586-15.25,16.384,9.37,22.577,9.37,22.577L33.257-120.09l104.5-54.666s.131-8.21.358-8.691S93.2-175.478,93.2-175.478s46.19-23.547,46.74-24.7a37.832,37.832,0,0,0,1.413-5.944c.351-1.723,1.984-6.144.461-5.924s-9.677,2.952-9.677,2.952l9.549-9.628,1.413-17.4-9.482,4.577L46.879-186.384Z" transform="translate(132.051 274.135)" fill="#fff"/>
            <path id="패스_2316" data-name="패스 2316" d="M40.455-173.347a6.325,6.325,0,0,0,4.268-.5l50.092-25.014,47.4-23.67L12.562-250.974l-128.73,40.758Z" transform="translate(139.409 250.974)" fill="#604d4d"/>
            <path id="패스_2317" data-name="패스 2317" d="M-35.642-244.769l83.165,18.245L6.309-205.943-84.806-229.2Z" transform="translate(188.334 260.654)" fill="#a9b8b3"/>
            <path id="패스_2318" data-name="패스 2318" d="M-82.134-160.1l5.915-50.115-11.286-3.84-9.515,48.99Z" transform="translate(169.281 308.572)" fill="#a9b8b3"/>
          </g>
          <g id="그룹_1543" data-name="그룹 1543" transform="translate(407.977 167.326)">
            <path id="패스_2319" data-name="패스 2319" d="M-663.211-206.471l2.053,18.043,27.52,2.56-25.92,2.24a25.05,25.05,0,0,1,.96,4.48,52.632,52.632,0,0,0,.96,5.76h80.32l-77.44,13.44s2.56,8.64,2.88,9.92a16.544,16.544,0,0,0,1.92,4.16c.64.96-.64,2.88.32,3.84a57.58,57.58,0,0,1,3.75,5.473l21.53-2.913,82.88-27.52,4.8-4.526v-10.514l-7.04-10.88-106.56-15.04Z" transform="translate(664.503 378.182)" fill="#fff"/>
            <path id="패스_2320" data-name="패스 2320" d="M-608.186-76.911c2.094-7.327-.62-13.9-3.131-18.872a37.543,37.543,0,0,0-4.342-6.794l13.829-108.111,7.291-57.009a34.923,34.923,0,0,1,7.4,26.24l-7.291,57.009L-607.715-77.487Z" transform="translate(738.685 284.972)" fill="#7c6e6e"/>
            <path id="패스_2321" data-name="패스 2321" d="M-520.356-257.173l-117.761-17.272-25.094,164.537,60.441,8.865,61.294,8.99Z" transform="translate(664.503 274.445)" fill="#a9b8b3"/>
            <path id="패스_2322" data-name="패스 2322" d="M-655.85-184.225l9.564-59.854,87.731,12.87-6.326,60.326Z" transform="translate(675.987 321.818)" fill="#cbd4d1"/>
            <path id="패스_2323" data-name="패스 2323" d="M-543.022-165.084c-2.424.837-20.375,6.6-40.6,12.913-28.513,8.9-61.476,19.087-61.476,19.087s-3.43,4.127,1.69,6.367c0,0,32.965-10.186,61.476-19.087,20.227-6.315,38.213-11.983,40.6-12.913a15.522,15.522,0,0,0,8.043-7.36l.072-.573c2.094-7.327-.62-13.9-3.131-18.872a37.543,37.543,0,0,0-4.342-6.794l-61.292-8.991-60.442-8.865s-2.908,3.96,0,7.173l115.758,16.98h1.446a25.944,25.944,0,0,1,2.982,4.669c1.723,3.418,3.292,8.323,1.854,13.358A3.792,3.792,0,0,1-543.022-165.084Z" transform="translate(663.716 374.711)" fill="#7c6e6e"/>
            <circle id="타원_133" data-name="타원 133" cx="7.04" cy="7.04" r="7.04" transform="translate(110.393 29.219)" fill="#cbd4d1"/>
          </g>
          <g id="그룹_1544" data-name="그룹 1544" transform="translate(677.735 438.667)">
            <path id="패스_2324" data-name="패스 2324" d="M-473.991-156.124l-17.475-4.943-12.808,24.492,7.762-24.832a25.006,25.006,0,0,1-4.511-.812,53.026,53.026,0,0,0-5.693-1.3L-537.185-89.2l16.942-76.751s-8.965-.909-10.271-1.1a16.566,16.566,0,0,0-4.58.2c-1.129.228-2.422-1.687-3.674-1.162a57.325,57.325,0,0,1-6.487,1.393l-5.471,21.028L-556.7-58.465l2.365,6.157,9.731,3.988,12.736-2.386,54.339-92.89Z" transform="translate(560.9 169)" fill="#fff"/>
            <path id="패스_2325" data-name="패스 2325" d="M-556.677-122.111c5.985,4.718,13.092,4.7,18.65,4.265a37.769,37.769,0,0,0,7.933-1.439l94.787,53.8,49.981,28.372a34.913,34.913,0,0,1-27.085-3.108l-49.984-28.372-93.929-52.867Z" transform="translate(560.939 240.746)" fill="#7c6e6e"/>
            <path id="패스_2326" data-name="패스 2326" d="M-401.526,25.681l60.653-102.407-142.72-85.634-31.13,52.561-31.569,53.3Z" transform="translate(577.139 177.957)" fill="#a9b8b3"/>
            <path id="패스_2327" data-name="패스 2327" d="M-486.3-151.556-434.551-120l-45.188,76.292-53.417-28.737Z" transform="translate(597.631 194.811)" fill="#cbd4d1"/>
            <path id="패스_2328" data-name="패스 2328" d="M-551.809-59.485c.146-2.557,1.625-21.353,3.453-42.463,2.58-29.76,5.66-64.123,5.66-64.123s-2.517-4.739-6.531-.85c0,0-3.082,34.363-5.66,64.12-1.83,21.11-3.407,39.9-3.453,42.465A15.506,15.506,0,0,0-554.581-50.1l.5.284c5.985,4.718,13.092,4.7,18.65,4.265a37.769,37.769,0,0,0,7.933-1.439l31.57-53.3,31.132-52.559s-2.563-4.193-6.638-2.721L-531.055-54.91l-.548,1.336a25.922,25.922,0,0,1-5.453.988c-3.817.3-8.95-.11-13.064-3.351A3.8,3.8,0,0,1-551.809-59.485Z" transform="translate(558.342 168.453)" fill="#7c6e6e"/>
            <path id="패스_2329" data-name="패스 2329" d="M-491.026-90.571a7.035,7.035,0,0,0,9.183-3.843,7.037,7.037,0,0,0-3.843-9.183,7.037,7.037,0,0,0-9.183,3.843A7.037,7.037,0,0,0-491.026-90.571Z" transform="translate(656.535 268.803)" fill="#cbd4d1"/>
          </g>
          <g id="그룹_1546" data-name="그룹 1546" transform="translate(1083.889 251.569)">
            <path id="패스_2330" data-name="패스 2330" d="M-297.643-238.816s.5,16.858,15.921,26.77c13.44,8.64,20.951,4.9,20.951,4.9v21.714l-18.437,62.953-18.435,11.83-32.8-25.27-3.413-49.513Z" transform="translate(502.389 245.784)" fill="#fff"/>
            <path id="패스_2331" data-name="패스 2331" d="M-185.073-156.568c-16.031-4.508-26.048-13.46-32.3-22.687A62.618,62.618,0,0,1-227.74-208.62l-85.583,36.1-86.364,36.431a62.609,62.609,0,0,0,10.363,29.366c6.257,9.229,16.274,18.179,32.3,22.689l171.948-72.535" transform="translate(399.688 292.89)" fill="#93a6a0"/>
            <path id="패스_2332" data-name="패스 2332" d="M-298.949-238.021l-9.876,32.4-14.444,47.383-.169.678A50.989,50.989,0,0,0-315-133.642c5.094,7.514,9.746,13.683,22.8,17.354,0,0,5.332.832,7.467-5.568s25.172-93.44,25.172-93.44,6.828-2.132,7.68,3.628c0,0-23.468,90.667-26.453,97.067s-11.52,9.385-11.52,9.385c-16.031-4.508-26.048-13.46-32.3-22.687a62.618,62.618,0,0,1-10.363-29.366l14.441-47.38,11.162-36.616S-300.362-242.934-298.949-238.021Z" transform="translate(504.469 241.538)" fill="#7c6e6e"/>
            <path id="패스_2333" data-name="패스 2333" d="M-373.937-169l86.363-36.431,85.584-36.1-.147.273L-213.3-204.65l-14.443,47.381-85.584,36.1-86.363,36.431v-.838l25.01-82.05Z" transform="translate(399.688 241.538)" fill="#cbd4d1"/>
            <g id="그룹_1545" data-name="그룹 1545" transform="translate(17.505 105.526)">
              <path id="패스_2334" data-name="패스 2334" d="M-345.281-141.086l72.187-30.451a70.554,70.554,0,0,1-10.278-12.05,76.783,76.783,0,0,1-8.517-16.73l-68.746,29-4.9,2.063C-360.523-151.331-350.46-143.846-345.281-141.086Z" transform="translate(435.465 200.317)" fill="#cbd4d1"/>
              <path id="패스_2335" data-name="패스 2335" d="M-336-186.027l-56.847,23.979a46.446,46.446,0,0,0,5.573,11.461,40.017,40.017,0,0,0,18.941,14.912l53.481-22.561A45.4,45.4,0,0,1-336-186.027Z" transform="translate(392.85 222.609)" fill="#cbd4d1"/>
            </g>
            <path id="패스_2336" data-name="패스 2336" d="M-315.854-205.568l3.28-12.393,43.653,12.393-12.069,5.652,5.669,13.975Z" transform="translate(530.468 278.318)" fill="#cbd4d1"/>
          </g>
          <g id="그룹_1547" data-name="그룹 1547" transform="translate(1543.564 444.91)">
            <path id="패스_2337" data-name="패스 2337" d="M-216.378-81.787s13.652-9.9,13.169-28.227c-.417-15.972-7.731-20.081-7.731-20.081l17.951-12.216,62.415-20.18,20.155,8.586-2.437,41.331-39.012,30.682Z" transform="translate(225.976 171.51)" fill="#fff"/>
            <path id="패스_2338" data-name="패스 2338" d="M-165.181-162.584c5.292,15.788,3.528,29.107-.581,39.47a62.618,62.618,0,0,1-18.445,25.091l78,50.437,78.71,50.9A62.617,62.617,0,0,0-9.049-21.779c4.106-10.365,5.87-23.683.579-39.473l-156.71-101.332" transform="translate(276.163 171.365)" fill="#cbd4d1"/>
            <path id="패스_2339" data-name="패스 2339" d="M-213.819-77.661l32.348-10.069,47.293-14.72.658-.241A50.968,50.968,0,0,0-118.5-123.119c3.343-8.44,5.827-15.757,1.518-28.613,0,0-2.314-4.879-8.8-3.041s-91.41,31.764-91.41,31.764-5.6-4.442-1.323-8.389c0,0,88.156-31.616,95.127-32.747s14.244,4.242,14.244,4.242c5.292,15.788,3.528,29.107-.581,39.47a62.618,62.618,0,0,1-18.445,25.091l-47.3,14.72-36.549,11.377S-217.085-73.729-213.819-77.661Z" transform="translate(220.127 168.685)" fill="#7c6e6e"/>
            <path id="패스_2340" data-name="패스 2340" d="M-60.369-9.9l-78.71-50.9-78-50.437.309-.032,36.549-11.376,47.3-14.72,78,50.437,78.71,50.9-.693.472-81.9,25.491Z" transform="translate(224.882 210.707)" fill="#93a6a0"/>
            <path id="패스_2341" data-name="패스 2341" d="M-181.212-121.463-193.3-117.2l-14.317-43.06,11.463,6.8,8.363-12.549Z" transform="translate(239.638 166.014)" fill="#93a6a0"/>
          </g>
          <g id="그룹_1548" data-name="그룹 1548" transform="translate(186.361 89.954)">
            <path id="패스_2342" data-name="패스 2342" d="M-625.066-204.573c-7.964-1.992-15.3,21.181-15.3,21.181,3.023-12.229,2.322-56.1-5.245-58.122s-14,27.825-14,27.825.056-54.641-8.845-55-12.9,21.816-12.9,21.816-32.481-61.256-46.531-57.646c-13,6.441,2.4,74.045,2.4,74.045s-17.5-14.185-24.013-8.1,29.21,47.432,29.21,47.432-24.356-18.409-28.769-11.937,23.7,40.159,33.979,47.447c0,0-20.682-12.764-25.416-6.057-4.708,6.671,29.1,47.4,85.576,54.715,0,0,.351.182.456.067.154.018.3-.346.3-.346C-616.157-149.669-617.145-202.594-625.066-204.573Z" transform="translate(750.285 304.669)" fill="#c6be8b"/>
            <path id="패스_2343" data-name="패스 2343" d="M-662.143-186.423a1.287,1.287,0,0,0-1.69.653c-.095.218-9.2,20.628-18.667,30.477-2.683-7.122-5.652-15.037-8.768-23.365,9.577-11.656,15.053-34.532,15.286-35.515a1.283,1.283,0,0,0-.955-1.541,1.286,1.286,0,0,0-1.539.952c-.054.23-5.194,21.74-13.842,33.3-4.15-11.09-8.52-22.8-12.777-34.227,6.677-8.653,10.2-30.973,10.353-31.944a1.279,1.279,0,0,0-1.07-1.459,1.277,1.277,0,0,0-1.459,1.07c-.033.218-3.218,20.454-8.9,29.437-13.23-35.51-25.078-67.466-25.3-68.073a1.289,1.289,0,0,0-1.646-.755,1.284,1.284,0,0,0-.755,1.646c.225.607,12.07,32.556,25.3,68.063-10.176-3.08-25.818-16.264-25.987-16.41a1.282,1.282,0,0,0-1.8.151,1.284,1.284,0,0,0,.148,1.8c.748.632,18,15.168,28.721,17.349,4.26,11.43,8.632,23.142,12.782,34.237-14.1-3.077-32.079-15.962-32.269-16.1a1.281,1.281,0,0,0-1.787.287,1.281,1.281,0,0,0,.289,1.787c.819.594,19.942,14.3,34.816,16.829,3.123,8.343,6.1,16.274,8.783,23.406-13.612-1.2-33.964-10.708-34.179-10.808a1.282,1.282,0,0,0-1.7.609,1.283,1.283,0,0,0,.614,1.7c.917.433,22.182,10.371,36.262,11.128,2.726,7.237,5.12,13.55,7,18.46,14.065,36.746,16.353,42.138,16.443,42.35a1.284,1.284,0,0,0,1.495.737,1.578,1.578,0,0,0,.184-.064,1.283,1.283,0,0,0,.676-1.682c-.023-.051-2.4-5.65-16.407-42.255-1.884-4.915-4.278-11.238-7.012-18.488,10.107-9.836,19.612-31.145,20.022-32.072A1.279,1.279,0,0,0-662.143-186.423Z" transform="translate(771.523 331.478)" fill="#958f68"/>
          </g>
          <g id="그룹_1549" data-name="그룹 1549" transform="translate(1038.309 472.378)">
            <path id="패스_2344" data-name="패스 2344" d="M-375.477-38.142c7.831-2.47,1.958-26.056,1.958-26.056,3.82,12.006,27.364,49.032,34.872,46.8s-2.627-31.037-2.627-31.037,28.531,46.6,36.3,42.248-.417-25.339-.417-25.339,59.722,35.22,69.809,24.794c7.711-12.285-40.771-61.855-40.771-61.855s22.339,2.936,24.7-5.652-49.7-25.147-49.7-25.147,30.387,2.949,30.764-4.874-41.206-21.829-53.778-22.666c0,0,24.307.061,24.832-8.133.522-8.148-49.6-25.18-101.555-1.876,0,0-.394.033-.422.184-.141.064-.077.453-.077.453C-411.787-80.279-383.264-35.687-375.477-38.142Z" transform="translate(438.912 165.5)" fill="#c6be8b"/>
            <path id="패스_2345" data-name="패스 2345" d="M-364.072-74.531a1.284,1.284,0,0,0,1.1-1.439c-.031-.236-2.949-22.392-.026-35.74,6.008,4.667,12.682,9.861,19.694,15.327-2.068,14.945,5.23,37.307,5.548,38.267a1.282,1.282,0,0,0,1.618.814,1.284,1.284,0,0,0,.811-1.618c-.074-.223-6.94-21.245-5.619-35.622,9.336,7.283,19.185,14.976,28.792,22.49-1.167,10.867,7.5,31.734,7.882,32.637a1.281,1.281,0,0,0,1.677.686,1.28,1.28,0,0,0,.684-1.674c-.084-.2-7.954-19.118-7.811-29.747,29.85,23.347,56.66,44.385,57.17,44.785a1.286,1.286,0,0,0,1.8-.218,1.28,1.28,0,0,0-.218-1.8c-.507-.4-27.313-21.432-57.162-44.777,10.284-2.7,30.513.358,30.73.394a1.281,1.281,0,0,0,1.462-1.07,1.282,1.282,0,0,0-1.07-1.462c-.968-.148-23.281-3.512-33.554.233-9.61-7.514-19.461-15.212-28.8-22.495,13.627-4.754,35.686-3.174,35.919-3.159a1.279,1.279,0,0,0,1.375-1.178,1.281,1.281,0,0,0-1.183-1.372c-1.009-.077-24.474-1.756-38.474,3.866-7.027-5.476-13.711-10.68-19.73-15.355,12.227-6.1,34.55-8.637,34.785-8.663a1.287,1.287,0,0,0,1.134-1.413,1.282,1.282,0,0,0-1.416-1.132c-1.006.11-24.33,2.762-36.726,9.482-6.111-4.744-11.451-8.87-15.621-12.073-31.209-23.962-35.978-27.361-36.168-27.494a1.274,1.274,0,0,0-1.656.154,1.19,1.19,0,0,0-.125.151,1.278,1.278,0,0,0,.3,1.784c.046.033,5,3.566,36.086,27.433,4.175,3.208,9.523,7.342,15.644,12.093-3.469,13.668-.425,36.8-.289,37.806A1.279,1.279,0,0,0-364.072-74.531Z" transform="translate(417.492 155.284)" fill="#958f68"/>
          </g>
          <g id="그룹_1550" data-name="그룹 1550" transform="translate(1654.537 73.345)">
            <path id="패스_2346" data-name="패스 2346" d="M-55.487-169.19c-5.107-6.426-25.032,7.5-25.032,7.5,9.846-7.862,36-43.1,31.222-49.306s-28.042,13.555-28.042,13.555,33.308-43.315,26.463-49.016S-74.39-237-74.39-237s11.523-68.37-1.823-74.061c-14.234-2.8-43.174,60.2-43.174,60.2s-5.251-21.908-14.116-21.046-5.7,55.409-5.7,55.409-8.115-29.43-15.557-26.982-5.642,46.29-1.928,58.327c0,0-8.637-22.717-16.476-20.278-7.8,2.427-5.77,55.324,34.583,95.506,0,0,.169.356.323.328.11.108.448-.092.448-.092C-81.845-120.207-50.408-162.8-55.487-169.19Z" transform="translate(176.779 311.156)" fill="#c6be8b"/>
            <path id="패스_2347" data-name="패스 2347" d="M-108.122-170.348a1.287,1.287,0,0,0-1.738-.509c-.207.115-19.853,10.767-33.364,12.813,2.209-7.281,4.672-15.37,7.268-23.875,14.7-3.415,32.965-18.23,33.748-18.87a1.286,1.286,0,0,0,.182-1.8,1.288,1.288,0,0,0-1.8-.179c-.179.151-17.354,14.083-31.252,17.994,3.459-11.325,7.119-23.276,10.7-34.934,10.565-2.8,26.949-18.36,27.658-19.039a1.279,1.279,0,0,0,.041-1.81,1.279,1.279,0,0,0-1.81-.038c-.161.154-15,14.267-24.983,17.935,11.121-36.227,21.176-68.79,21.366-69.409a1.286,1.286,0,0,0-.845-1.6,1.285,1.285,0,0,0-1.6.845c-.189.62-10.243,33.178-21.361,69.4-6.2-8.637-10.58-28.621-10.627-28.838a1.283,1.283,0,0,0-1.523-.98,1.283,1.283,0,0,0-.98,1.523c.207.955,5.048,22.994,12.221,31.247-3.579,11.661-7.24,23.616-10.7,34.944-9.313-11.029-15.734-32.192-15.8-32.415a1.282,1.282,0,0,0-1.592-.86,1.281,1.281,0,0,0-.858,1.595c.287.97,7.117,23.48,17.375,34.545-2.6,8.52-5.069,16.625-7.281,23.916-10.068-9.234-20.426-29.171-20.536-29.381a1.281,1.281,0,0,0-1.723-.553,1.282,1.282,0,0,0-.55,1.725c.463.9,11.284,21.732,21.993,30.9-2.24,7.4-4.186,13.865-5.683,18.906-11.21,37.714-12.677,43.387-12.736,43.61a1.279,1.279,0,0,0,.737,1.492,1.455,1.455,0,0,0,.187.064,1.28,1.28,0,0,0,1.556-.924c.013-.054,1.541-5.942,12.708-43.512,1.5-5.046,3.448-11.52,5.693-18.936,14.006-1.649,34.519-12.769,35.407-13.253A1.284,1.284,0,0,0-108.122-170.348Z" transform="translate(189.478 338.342)" fill="#958f68"/>
          </g>
          <g id="그룹_1552" data-name="그룹 1552" transform="translate(538.821 338.622)">
            <g id="그룹_1551" data-name="그룹 1551">
              <path id="패스_2348" data-name="패스 2348" d="M-573.367-145.961a52.762,52.762,0,0,1-21.179-16.118c-9.157-11.758-5.793-27.812,2.867-31.913s22.362,26.035,21.586,40.207Z" transform="translate(632.278 228.065)" fill="#c0977e"/>
              <path id="패스_2349" data-name="패스 2349" d="M-589.6-160.934a52.729,52.729,0,0,0,26.335,3.845c14.807-1.69,23.921-15.327,20.785-24.384s-34.245,2.253-43.825,12.726Z" transform="translate(648.491 243.028)" fill="#c0977e"/>
              <path id="패스_2350" data-name="패스 2350" d="M-578.075-129.319a52.755,52.755,0,0,1-22.336-14.472c-10.02-11.031-7.88-27.295.448-32.038s24.264,24.271,24.561,38.461Z" transform="translate(621.19 256.182)" fill="#c0977e"/>
              <path id="패스_2351" data-name="패스 2351" d="M-595.772-141.614a52.752,52.752,0,0,0,26.552,1.843c14.636-2.806,22.692-17.093,18.883-25.887s-33.979,4.833-42.739,16Z" transform="translate(638.864 268.469)" fill="#c0977e"/>
              <path id="패스_2352" data-name="패스 2352" d="M-580.365-112.281a52.751,52.751,0,0,1-23.7-12.1c-11.1-9.946-10.642-26.342-2.844-31.915s26.627,21.652,28.38,35.738Z" transform="translate(612.605 286.304)" fill="#c0977e"/>
              <path id="패스_2353" data-name="패스 2353" d="M-600.02-120.766a52.737,52.737,0,0,0,26.6-.891c14.272-4.291,20.818-19.331,16.128-27.686s-33.3,8.294-40.87,20.3Z" transform="translate(632.237 294.785)" fill="#c0977e"/>
              <path id="패스_2354" data-name="패스 2354" d="M-581.906-177.1s38.661.878,35.136-18.5c-3.026-16.632-30,9.3-30,9.3Z" transform="translate(660.495 217.458)" fill="#c0977e"/>
              <path id="패스_2355" data-name="패스 2355" d="M-575.863-167.226s-20.762-32.622-2.358-39.636c15.8-6.021,7.572,30.482,7.572,30.482Z" transform="translate(654.373 207.533)" fill="#c0977e"/>
            </g>
            <path id="패스_2356" data-name="패스 2356" d="M-526.648-190.224a93.288,93.288,0,0,1-12.181,4.984c.643-1.129,1.257-2.258,1.912-3.387a1.155,1.155,0,0,0-.417-1.582,1.146,1.146,0,0,0-1.584.417c-.668,1.147-1.293,2.3-1.946,3.446a92.463,92.463,0,0,1-2.056-13.056,1.159,1.159,0,0,0-1.252-1.055,1.157,1.157,0,0,0-1.06,1.252c.041.458.94,10.857,2.829,15.578a416.234,416.234,0,0,0-20.186,41.449,146.86,146.86,0,0,1-11.287-15.4,1.159,1.159,0,0,0-1.6-.361,1.165,1.165,0,0,0-.364,1.6,141.693,141.693,0,0,0,12.257,16.533c-6.062,14.628-11.057,28.884-15.16,42.4A146.074,146.074,0,0,1-591.237-112a1.157,1.157,0,0,0-1.62-.241,1.166,1.166,0,0,0-.241,1.623,140.565,140.565,0,0,0,13.6,15.68c-4.815,16.174-8.358,31.2-10.967,44.416a148.133,148.133,0,0,1-13.668-13.01,1.155,1.155,0,0,0-1.636-.074,1.158,1.158,0,0,0-.074,1.636A142.025,142.025,0,0,0-590.96-47.957c-5.9,30.794-6.664,51.075-6.676,51.515a1.157,1.157,0,0,0,1.121,1.193,1.15,1.15,0,0,0,1-.512,1.148,1.148,0,0,0,.2-.609c.013-.438.766-20.506,6.6-51.005a141.088,141.088,0,0,0,19.6-6.4,1.156,1.156,0,0,0,.517-.422,1.158,1.158,0,0,0,.11-1.091,1.159,1.159,0,0,0-1.513-.63,146.681,146.681,0,0,1-18.24,6.06c2.606-13.228,6.149-28.291,10.99-44.523A142.576,142.576,0,0,0-557.4-98.7a1.141,1.141,0,0,0,.63-.463,1.146,1.146,0,0,0,.149-.978,1.157,1.157,0,0,0-1.441-.778,147.668,147.668,0,0,1-18.44,4.109c4.081-13.427,9.047-27.6,15.076-42.14a141.9,141.9,0,0,0,20.288-2.811,1.153,1.153,0,0,0,.714-.486,1.149,1.149,0,0,0,.174-.891,1.161,1.161,0,0,0-1.38-.888,147.363,147.363,0,0,1-18.806,2.711,414.809,414.809,0,0,1,20.065-41.188c5.028-.845,14.346-5.437,14.756-5.64a1.137,1.137,0,0,0,.445-.389,1.16,1.16,0,0,0,.079-1.165A1.159,1.159,0,0,0-526.648-190.224Z" transform="translate(622.678 218.566)" fill="#90715f"/>
          </g>
          <g id="그룹_1554" data-name="그룹 1554" transform="translate(1670.832 340.078)">
            <g id="그룹_1553" data-name="그룹 1553" transform="translate(0)">
              <path id="패스_2357" data-name="패스 2357" d="M-128.941-153.716a52.742,52.742,0,0,0,8.476-25.229c.975-14.871-10.821-26.268-20.291-24.8s-3.886,34.1,4.713,45.391Z" transform="translate(208.972 211.79)" fill="#c0977e"/>
              <path id="패스_2358" data-name="패스 2358" d="M-108.274-181.02a52.76,52.76,0,0,1-19.633,17.969c-13.2,6.915-28.4.745-30.892-8.507s29.6-17.364,43.41-14.077Z" transform="translate(188.318 239.074)" fill="#c0977e"/>
              <path id="패스_2359" data-name="패스 2359" d="M-115.729-142.313a52.735,52.735,0,0,0,10.358-24.517c2.1-14.753-8.8-27.011-18.358-26.26s-6.454,33.708,1.27,45.619Z" transform="translate(233.963 228.556)" fill="#c0977e"/>
              <path id="패스_2360" data-name="패스 2360" d="M-93.044-169.254a52.738,52.738,0,0,1-20.936,16.435c-13.686,5.9-28.372-1.4-30.159-10.819s30.83-15.078,44.352-10.755Z" transform="translate(211.291 255.476)" fill="#c0977e"/>
              <path id="패스_2361" data-name="패스 2361" d="M-103.939-129.137a52.758,52.758,0,0,0,12.82-23.324c3.6-14.461-5.985-27.771-15.567-28.006s-9.876,32.868-3.418,45.509Z" transform="translate(257.652 248.298)" fill="#c0977e"/>
              <path id="패스_2362" data-name="패스 2362" d="M-79.03-155.012a52.75,52.75,0,0,1-22.513,14.2c-14.218,4.462-28.081-4.306-28.89-13.855s32.215-11.835,45.22-6.147Z" transform="translate(232.76 274.156)" fill="#c0977e"/>
              <path id="패스_2363" data-name="패스 2363" d="M-130.108-189.8s-31.5,22.433-39.46,4.421c-6.835-15.462,30.044-9.152,30.044-9.152Z" transform="translate(170.413 224.373)" fill="#c0977e"/>
              <path id="패스_2364" data-name="패스 2364" d="M-139.068-172.473s-1.137-38.653-20.3-34.122c-16.451,3.886,10.847,29.473,10.847,29.473Z" transform="translate(179.413 206.964)" fill="#c0977e"/>
            </g>
            <path id="패스_2365" data-name="패스 2365" d="M-162.331-182.269a93.2,93.2,0,0,0,12.877-2.716c-1.165-.573-2.307-1.162-3.482-1.725a1.159,1.159,0,0,1-.545-1.546,1.147,1.147,0,0,1,1.546-.543c1.2.573,2.36,1.173,3.546,1.756A92.462,92.462,0,0,0-154.018-199a1.159,1.159,0,0,1,.443-1.577,1.157,1.157,0,0,1,1.579.443c.225.4,5.32,9.508,6.408,14.477a417.262,417.262,0,0,1,39.974,22.963,146.494,146.494,0,0,0,.694-19.08,1.16,1.16,0,0,1,1.119-1.2,1.168,1.168,0,0,1,1.2,1.121,141.614,141.614,0,0,1-.86,20.559c13.23,8.7,25.37,17.7,36.349,26.57A146.666,146.666,0,0,0-64.958-153.8a1.159,1.159,0,0,1,1.206-1.108,1.164,1.164,0,0,1,1.108,1.206,140.376,140.376,0,0,1-2.45,20.613c13.069,10.68,24.438,21.125,34.017,30.595a148.712,148.712,0,0,0,4-18.44,1.159,1.159,0,0,1,1.313-.98,1.165,1.165,0,0,1,.98,1.313,142.067,142.067,0,0,1-4.454,19.95C-7.056-78.489,4.958-62.133,5.216-61.775a1.158,1.158,0,0,1-.256,1.618,1.158,1.158,0,0,1-1.114.136,1.148,1.148,0,0,1-.507-.394c-.256-.356-12.145-16.54-34.1-38.5a141.221,141.221,0,0,1-19.814,5.709,1.148,1.148,0,0,1-.666-.059,1.164,1.164,0,0,1-.7-.842,1.16,1.16,0,0,1,.9-1.37,146.061,146.061,0,0,0,18.5-5.228c-9.582-9.482-20.974-19.958-34.092-30.671a142.713,142.713,0,0,1-18.849,7.57,1.148,1.148,0,0,1-.781-.028,1.154,1.154,0,0,1-.673-.727,1.16,1.16,0,0,1,.755-1.454,147.524,147.524,0,0,0,17.567-6.953c-10.916-8.819-22.984-17.756-36.137-26.4a141.842,141.842,0,0,1-18.365,9.062,1.162,1.162,0,0,1-.865,0,1.149,1.149,0,0,1-.643-.643,1.158,1.158,0,0,1,.64-1.508,146.623,146.623,0,0,0,17.085-8.315A414.482,414.482,0,0,0-146.64-183.59c-4.634,2.122-14.922,3.553-15.375,3.617a1.14,1.14,0,0,1-.589-.074,1.158,1.158,0,0,1-.717-.916A1.16,1.16,0,0,1-162.331-182.269Z" transform="translate(181.459 216.697)" fill="#90715f"/>
          </g>
          <g id="그룹_1556" data-name="그룹 1556" transform="translate(354.495 62.985)">
            <g id="그룹_1555" data-name="그룹 1555">
              <path id="패스_2366" data-name="패스 2366" d="M-671.069-294.1l2.88,17.28c.96,5.76,2.88,13.12,14.72,8.32s7.68-10.56,5.76-13.76-14.72-16.64-14.72-16.64Z" transform="translate(705.727 340.635)" fill="#d8bc9c"/>
              <path id="패스_2367" data-name="패스 2367" d="M-666.82-287.791l17.157,3.533c5.719,1.175,13.279,2.033,13.061-10.742s-7.091-10.965-10.767-10.325-20.821,7.747-20.821,7.747Z" transform="translate(710.218 329.886)" fill="#d8bc9c"/>
              <path id="패스_2368" data-name="패스 2368" d="M-661.7-283.146s5.87-10.1,8.8-15.145,6.152-11.942-6.029-15.8-12.651,3.233-13.215,6.922.722,22.205.722,22.205Z" transform="translate(703.842 315.203)" fill="#d8bc9c"/>
              <path id="패스_2369" data-name="패스 2369" d="M-652.578-292.491l-11.891-12.864c-3.963-4.291-9.608-9.388-16.87,1.124s-.625,13.041,2.737,14.664,21.438,5.829,21.438,5.829Z" transform="translate(684.607 322.636)" fill="#d8bc9c"/>
              <path id="패스_2370" data-name="패스 2370" d="M-659.668-299.9l-15.849,7.46c-5.284,2.488-11.848,6.333-4.014,16.425s12.247,4.526,14.807,1.81,12.022-18.683,12.022-18.683Z" transform="translate(686.887 339.082)" fill="#d8bc9c"/>
            </g>
            <path id="패스_2371" data-name="패스 2371" d="M-656.891-295.182a8.535,8.535,0,0,0-8.535-8.532,8.533,8.533,0,0,0-8.532,8.532,8.534,8.534,0,0,0,8.532,8.535A8.536,8.536,0,0,0-656.891-295.182Z" transform="translate(701.219 333.127)" fill="#fff"/>
          </g>
          <g id="그룹_1558" data-name="그룹 1558" transform="translate(303.965 366.318)">
            <g id="그룹_1557" data-name="그룹 1557">
              <path id="패스_2372" data-name="패스 2372" d="M-684.358-184.059s-8.369,4.531-12.554,6.8-9.349,5.7-2.511,13.548,10.173,3.123,12.129.794,8.924-15.754,8.924-15.754Z" transform="translate(706.836 216.456)" fill="#f4d9ca"/>
              <path id="패스_2373" data-name="패스 2373" d="M-693.324-179.662s1.216,9.439,1.825,14.159,1.951,10.772,11.738,7.219,6.572-8.369,5.1-11.034-11.487-14-11.487-14Z" transform="translate(721.539 217.62)" fill="#f4d9ca"/>
              <path id="패스_2374" data-name="패스 2374" d="M-689.716-174.276l14.006,2.772c4.669.924,10.834,1.574,10.578-8.835s-5.845-8.891-8.837-8.348-16.922,6.441-16.922,6.441Z" transform="translate(725.335 208.608)" fill="#f4d9ca"/>
              <path id="패스_2375" data-name="패스 2375" d="M-685.295-170.686s4.508-8.381,6.764-12.572,4.687-9.892-5.338-12.705-10.217,2.975-10.575,6,1.188,18.066,1.188,18.066Z" transform="translate(719.708 196.714)" fill="#f4d9ca"/>
              <path id="패스_2376" data-name="패스 2376" d="M-678.173-178.4l-9.951-10.24c-3.315-3.412-8.018-7.45-13.722,1.26s-.243,10.639,2.527,11.891,17.585,4.314,17.585,4.314Z" transform="translate(704.346 203.115)" fill="#f4d9ca"/>
            </g>
            <path id="패스_2377" data-name="패스 2377" d="M-686.362-173.79a6.953,6.953,0,0,0,4.316-8.837,6.954,6.954,0,0,0-8.837-4.316,6.954,6.954,0,0,0-4.316,8.837A6.953,6.953,0,0,0-686.362-173.79Z" transform="translate(718.021 211.364)" fill="#fff"/>
          </g>
          <g id="그룹_1560" data-name="그룹 1560" transform="translate(1355.766 353.619)">
            <g id="그룹_1559" data-name="그룹 1559" transform="translate(0)">
              <path id="패스_2378" data-name="패스 2378" d="M-265.91-189.656l-16.9.33c-5.635.113-12.931.914-10,12.892s9.009,8.812,12.332,7.427,17.951-11.727,17.951-11.727Z" transform="translate(293.486 220.423)" fill="#f4d9ca"/>
              <path id="패스_2379" data-name="패스 2379" d="M-277.164-186.154s-3.848,10.593-5.773,15.89-3.8,12.4,8.428,13.975,11.464-5.235,11.366-8.837-4.483-20.966-4.483-20.966Z" transform="translate(307.754 225.887)" fill="#f4d9ca"/>
              <path id="패스_2380" data-name="패스 2380" d="M-277.724-180.573l13.23,10.527c4.411,3.51,10.542,7.544,15.928-3.546s-1.318-12.534-4.762-13.586-21.3-2.419-21.3-2.419Z" transform="translate(318.075 220.515)" fill="#f4d9ca"/>
              <path id="패스_2381" data-name="패스 2381" d="M-271.754-171.384l13.947-9.554c4.649-3.185,10.309-7.859,1.288-16.266s-12.365-2.422-14.385.561-8.568,19.653-8.568,19.653Z" transform="translate(315.348 201.934)" fill="#f4d9ca"/>
              <path id="패스_2382" data-name="패스 2382" d="M-263.235-176.982s-3.272-10.785-4.9-16.179-4.39-12.2-15.125-6.131-6.036,11.062-3.8,13.885,16.156,14.093,16.156,14.093Z" transform="translate(298.871 201.675)" fill="#f4d9ca"/>
            </g>
            <path id="패스_2383" data-name="패스 2383" d="M-275.749-175.6a8.239,8.239,0,0,0,9.344-6.956,8.235,8.235,0,0,0-6.956-9.341,8.232,8.232,0,0,0-9.341,6.953A8.235,8.235,0,0,0-275.749-175.6Z" transform="translate(310.171 216.797)" fill="#fff"/>
          </g>
          <g id="그룹_1562" data-name="그룹 1562" transform="translate(1942.622 112.393)">
            <g id="그룹_1561" data-name="그룹 1561">
              <path id="패스_2384" data-name="패스 2384" d="M-42.479-280.16s-8.174,7.759-12.26,11.64-8.934,9.393,1.3,16.266,12.593.433,14.113-2.831,5.35-20.762,5.35-20.762Z" transform="translate(71.589 320.464)" fill="#f4d9ca"/>
              <path id="패스_2385" data-name="패스 2385" d="M-49.643-274.477s4.3,10.419,6.449,15.629,5.55,11.715,15.647,4.639,4.936-11.594,2.437-14.19-17.446-12.462-17.446-12.462Z" transform="translate(87.025 319.369)" fill="#f4d9ca"/>
              <path id="패스_2386" data-name="패스 2386" d="M-44.457-266.855-27.589-268c5.622-.381,12.872-1.536,9.372-13.358s-9.423-8.369-12.677-6.825S-48.256-275.6-48.256-275.6Z" transform="translate(89.189 305.321)" fill="#f4d9ca"/>
              <path id="패스_2387" data-name="패스 2387" d="M-38.1-266.559s2.573-10.975,3.858-16.461,2.314-12.754-10.015-12.882S-55.02-289.353-54.5-285.79s6.922,20.293,6.922,20.293Z" transform="translate(78.893 295.904)" fill="#f4d9ca"/>
              <path id="패스_2388" data-name="패스 2388" d="M-33.279-277.134s-9.687-5.76-14.531-8.643-11.466-6.049-15.3,5.668,3,12.239,6.554,12.818,21.435-.486,21.435-.486Z" transform="translate(64.245 307.518)" fill="#f4d9ca"/>
            </g>
            <path id="패스_2389" data-name="패스 2389" d="M-40.321-269.776a8.236,8.236,0,0,0,2.212-11.436,8.236,8.236,0,0,0-11.436-2.212,8.236,8.236,0,0,0-2.212,11.436A8.238,8.238,0,0,0-40.321-269.776Z" transform="translate(81.523 313.169)" fill="#fff"/>
          </g>
          <g id="그룹_1564" data-name="그룹 1564" transform="translate(940.752 467.579)">
            <g id="그룹_1563" data-name="그룹 1563">
              <path id="패스_2390" data-name="패스 2390" d="M-430.247-143.349l-13.479-4.708c-4.493-1.569-10.506-3.077-11.712,7.265s4.541,9.623,7.58,9.5S-430.2-135.3-430.2-135.3Z" transform="translate(455.601 169.609)" fill="#f4d9ca"/>
              <path id="패스_2391" data-name="패스 2391" d="M-438.131-143.782s-6.159,7.252-9.242,10.88-6.651,8.7,2.565,13.54,10.614-.773,11.594-3.651,2.616-17.917,2.616-17.917Z" transform="translate(463.233 178.027)" fill="#f4d9ca"/>
              <path id="패스_2392" data-name="패스 2392" d="M-442.8-138.8l7.378,12.224c2.46,4.076,6.126,9.073,13.652,1.876s2.639-10.309.223-12.155-16.154-8.179-16.154-8.179Z" transform="translate(475.57 176.077)" fill="#f4d9ca"/>
              <path id="패스_2393" data-name="패스 2393" d="M-438-131.719s9.234-2.307,13.85-3.461,10.473-3.192,5.8-12.5-9.078-5.553-11.553-3.784-12.562,13.041-12.562,13.041Z" transform="translate(476.097 162.515)" fill="#f4d9ca"/>
              <path id="패스_2394" data-name="패스 2394" d="M-431.984-133.338s.581-9.5.873-14.251.11-10.944-10.171-9.3-8.031,6.981-7.091,9.874,8.648,15.908,8.648,15.908Z" transform="translate(465.504 157.159)" fill="#f4d9ca"/>
            </g>
            <path id="패스_2395" data-name="패스 2395" d="M-442.575-134.932a6.954,6.954,0,0,0,9.439-2.76,6.951,6.951,0,0,0-2.757-9.439,6.954,6.954,0,0,0-9.441,2.757A6.958,6.958,0,0,0-442.575-134.932Z" transform="translate(470.281 171.466)" fill="#fff"/>
          </g>
          <g id="그룹_1566" data-name="그룹 1566" transform="translate(272.919)">
            <g id="그룹_1565" data-name="그룹 1565">
              <path id="패스_2396" data-name="패스 2396" d="M-693.913-322.447s-3.914-7.276-5.873-10.913-4.923-8.128-11.755-2.212-2.732,8.824-.717,10.529,13.655,7.782,13.655,7.782Z" transform="translate(718.256 341.936)" fill="#d8bc9c"/>
              <path id="패스_2397" data-name="패스 2397" d="M-696.969-330.254l-12.3,1.554c-4.1.517-9.354,1.669-6.293,10.173s7.25,5.724,9.567,4.457,12.173-9.94,12.173-9.94Z" transform="translate(716.473 354.71)" fill="#d8bc9c"/>
              <path id="패스_2398" data-name="패스 2398" d="M-705.887-327.127s-1.626,8.1-2.44,12.15-1.393,9.4,7.644,9.2,7.734-5.053,7.268-7.652-5.553-14.7-5.553-14.7Z" transform="translate(728.522 358.022)" fill="#d8bc9c"/>
              <path id="패스_2399" data-name="패스 2399" d="M-704.815-323.3l10.9,5.9c3.633,1.969,8.576,4.093,11.041-4.6s-2.56-8.875-5.181-9.2-15.685.991-15.685.991Z" transform="translate(734.659 353.162)" fill="#d8bc9c"/>
              <path id="패스_2400" data-name="패스 2400" d="M-700.546-317.092l8.911-8.617c2.97-2.87,6.487-6.943-1.062-11.914s-9.234-.235-10.327,2.168S-706.81-320.2-706.81-320.2Z" transform="translate(731.547 339.807)" fill="#d8bc9c"/>
            </g>
            <path id="패스_2401" data-name="패스 2401" d="M-708.529-324.218a6.038,6.038,0,0,0,7.662,3.766,6.037,6.037,0,0,0,3.766-7.662,6.034,6.034,0,0,0-7.662-3.766A6.036,6.036,0,0,0-708.529-324.218Z" transform="translate(728.359 351.666)" fill="#fff"/>
          </g>
          <g id="그룹_1568" data-name="그룹 1568" transform="translate(1344.535 156.83)">
            <g id="그룹_1567" data-name="그룹 1567" transform="translate(0)">
              <path id="패스_2402" data-name="패스 2402" d="M-279-256.92s2.076-8,3.113-12,1.917-9.308-7.117-9.615-8,4.613-7.685,7.235,4.723,14.991,4.723,14.991Z" transform="translate(308.761 278.545)" fill="#d8bc9c"/>
              <path id="패스_2403" data-name="패스 2403" d="M-275.04-264.077l-10.071-7.222c-3.356-2.406-7.995-5.138-11.533,3.18s1.426,9.129,3.986,9.774,15.685.988,15.685.988Z" transform="translate(297.873 286.053)" fill="#d8bc9c"/>
              <path id="패스_2404" data-name="패스 2404" d="M-281.018-267.286s-6.7,4.833-10.051,7.253-7.411,5.944-.65,11.945,9.106,1.551,10.532-.671,5.926-14.556,5.926-14.556Z" transform="translate(301.769 296.11)" fill="#d8bc9c"/>
              <path id="패스_2405" data-name="패스 2405" d="M-287.428-263.025l3.981,11.738c1.326,3.914,3.5,8.832,11.226,4.132s4.157-8.248,2.452-10.263-12.175-9.94-12.175-9.94Z" transform="translate(314.167 295.996)" fill="#d8bc9c"/>
              <path id="패스_2406" data-name="패스 2406" d="M-283.686-257.53l12.393-.258c4.129-.087,9.477-.681,7.322-9.459s-6.61-6.451-9.047-5.432-13.148,8.612-13.148,8.612Z" transform="translate(316.134 286.046)" fill="#d8bc9c"/>
            </g>
            <path id="패스_2407" data-name="패스 2407" d="M-289.336-266.836a6.038,6.038,0,0,0,3.057,7.972,6.037,6.037,0,0,0,7.972-3.059,6.036,6.036,0,0,0-3.057-7.969A6.036,6.036,0,0,0-289.336-266.836Z" transform="translate(310.374 291.226)" fill="#fff"/>
          </g>
          <g id="그룹_1570" data-name="그룹 1570" transform="translate(1620.824 2.513)">
            <g id="그룹_1569" data-name="그룹 1569">
              <path id="패스_2408" data-name="패스 2408" d="M-167.413-321.608s-4.18-7.127-6.272-10.691-5.22-7.941-11.83-1.777-2.4,8.919-.328,10.55,13.934,7.273,13.934,7.273Z" transform="translate(191.294 341.417)" fill="#d8bc9c"/>
              <path id="패스_2409" data-name="패스 2409" d="M-170.718-329.08l-12.232,2c-4.076.668-9.288,2.012-5.914,10.4s7.455,5.453,9.723,4.1,11.8-10.383,11.8-10.383Z" transform="translate(189.948 354.029)" fill="#d8bc9c"/>
              <path id="패스_2410" data-name="패스 2410" d="M-179.725-325.846l-1.989,12.232c-.663,4.078-1.044,9.446,7.977,8.914s7.542-5.335,6.981-7.913-6.09-14.49-6.09-14.49Z" transform="translate(202.319 357.113)" fill="#d8bc9c"/>
              <path id="패스_2411" data-name="패스 2411" d="M-178.322-321.919s7.406,3.661,11.108,5.494,8.722,3.773,10.865-5.007-2.885-8.776-5.514-9-15.639,1.567-15.639,1.567Z" transform="translate(208.083 351.892)" fill="#d8bc9c"/>
              <path id="패스_2412" data-name="패스 2412" d="M-174.089-316.043l8.586-8.934c2.862-2.98,6.226-7.181-1.5-11.868s-9.237.1-10.24,2.545-3.22,15.386-3.22,15.386Z" transform="translate(204.743 338.826)" fill="#d8bc9c"/>
            </g>
            <path id="패스_2413" data-name="패스 2413" d="M-182.023-322.923a6.041,6.041,0,0,0,7.8,3.482,6.039,6.039,0,0,0,3.482-7.8,6.039,6.039,0,0,0-7.8-3.482A6.038,6.038,0,0,0-182.023-322.923Z" transform="translate(201.686 350.849)" fill="#fff"/>
          </g>
          <g id="그룹_1572" data-name="그룹 1572" transform="translate(858.221 65.759)">
            <g id="그룹_1571" data-name="그룹 1571">
              <path id="패스_2414" data-name="패스 2414" d="M-465.587-301.607l-11.446-4.754c-3.814-1.585-8.95-3.195-10.511,5.709s3.453,8.568,6.1,8.617,15.5-2.588,15.5-2.588Z" transform="translate(487.839 324.289)" fill="#d8bc9c"/>
              <path id="패스_2415" data-name="패스 2415" d="M-472.207-302.562s-5.7,5.978-8.553,8.968-6.2,7.2,1.544,11.863,9.236-.141,10.232-2.586,3.161-15.4,3.161-15.4Z" transform="translate(493.845 332.151)" fill="#d8bc9c"/>
              <path id="패스_2416" data-name="패스 2416" d="M-476.851-298.249l5.781,10.962c1.928,3.656,4.856,8.169,11.738,2.309s2.806-8.8.8-10.522-13.591-7.9-13.591-7.9Z" transform="translate(504.981 330.851)" fill="#d8bc9c"/>
              <path id="패스_2417" data-name="패스 2417" d="M-472.77-292.247l12.178-2.307c4.058-.771,9.234-2.245,5.653-10.542s-7.59-5.266-9.823-3.858-11.538,10.67-11.538,10.67Z" transform="translate(505.841 319.499)" fill="#d8bc9c"/>
              <path id="패스_2418" data-name="패스 2418" d="M-467.746-293.143s.978-8.2,1.469-12.306.645-9.482-8.348-8.568-7.309,5.647-6.641,8.2,6.7,14.218,6.7,14.218Z" transform="translate(497.199 314.12)" fill="#d8bc9c"/>
            </g>
            <path id="패스_2419" data-name="패스 2419" d="M-476.822-294.939a6.035,6.035,0,0,0,8.32-1.917,6.04,6.04,0,0,0-1.917-8.32,6.037,6.037,0,0,0-8.32,1.92A6.034,6.034,0,0,0-476.822-294.939Z" transform="translate(500.6 326.64)" fill="#fff"/>
          </g>
          <g id="그룹_1574" data-name="그룹 1574" transform="translate(1024.827 211.014)">
            <g id="그룹_1573" data-name="그룹 1573">
              <path id="패스_2420" data-name="패스 2420" d="M-393.749-244.67l-17.623-.2c-5.873-.069-13.5.53-10.842,13.1s9.1,9.475,12.605,8.138,19.082-11.633,19.082-11.633Z" transform="translate(422.759 276.882)" fill="#d8bc9c"/>
              <path id="패스_2421" data-name="패스 2421" d="M-405.315-241.11s-4.355,10.913-6.533,16.369-4.362,12.787,8.325,14.833,12.114-5.082,12.129-8.835-3.986-21.99-3.986-21.99Z" transform="translate(437.174 282.761)" fill="#d8bc9c"/>
              <path id="패스_2422" data-name="패스 2422" d="M-406.345-235.232l13.443,11.4c4.48,3.8,10.737,8.2,16.709-3.174s-.965-13.1-4.518-14.31-22.116-3.213-22.116-3.213Z" transform="translate(448.365 277.421)" fill="#d8bc9c"/>
              <path id="패스_2423" data-name="패스 2423" d="M-400.118-225.7l14.845-9.5c4.946-3.167,11-7.854,1.871-16.906s-12.805-2.926-15.007.115-9.567,20.2-9.567,20.2Z" transform="translate(445.822 258.205)" fill="#d8bc9c"/>
              <path id="패스_2424" data-name="패스 2424" d="M-391.341-231.232s-3.057-11.346-4.585-17.016S-400.1-261.1-411.48-255.13s-6.648,11.328-4.413,14.344,16.376,15.209,16.376,15.209Z" transform="translate(428.944 257.38)" fill="#d8bc9c"/>
            </g>
            <path id="패스_2425" data-name="패스 2425" d="M-404.46-230.081a8.585,8.585,0,0,0,9.958-6.943,8.581,8.581,0,0,0-6.94-9.958,8.585,8.585,0,0,0-9.961,6.94A8.588,8.588,0,0,0-404.46-230.081Z" transform="translate(440.264 273.389)" fill="#fff"/>
          </g>
          <g id="그룹_1575" data-name="그룹 1575" transform="translate(887.397 284.789)">
            <path id="패스_2426" data-name="패스 2426" d="M-465.956-183.12l-3.144-31.744s-3.146-11.722,12.58-13.2,23.145-.049,22.938,9.531,0,35.412,0,35.412l21.617-34.888s5.765-6.29,12.58-2.621,22.016,20.966,23.588,23.063,5.24,8.179-9.961,17.457-18.87,12.421-18.87,12.421l23.588-2.1s19.156-6.815,20.585,4.718,1.956,18.345-11.674,20.442-59.231,4.193-59.231,4.193l-19.19-11.758Z" transform="translate(487.497 228.561)" fill="#e2a89f"/>
            <path id="패스_2427" data-name="패스 2427" d="M-445.484-132.754s59.231.225,77.576-8.686c0,0,6.815-5.765,6.29-9.434s1.05-20.442-5.24-20.442h-15.2l11.53-9.961s4.193-4.4,0-10.324-12.055-13.263-13.627-13.788-9.429-2.9-13.627,2.217-17.692,14.034-17.692,14.034-2.752-27.387-3.8-28.895-4.718-3.6-11.53-3.08-12.58,3.668-14.677,8.911-2.1,23.063-2.1,23.063-13.176-27.63-18.872-26.732c-3.965.625-12.122,3.471-8.909,15.068C-467.991-174.175-445.484-132.754-445.484-132.754Z" transform="translate(476.986 240.053)" fill="#f1cfbd"/>
            <path id="패스_2428" data-name="패스 2428" d="M-459.315-165.813s-7.514-21.724-7.514-25.393-2.291-6.812,4.106-8.64,8.852,12.767,8.852,12.767,5.56-14,9.231-12.767,5.7,6.495,3.538,8.051-5.9,8.886-5.9,8.886,10.222-6.789,12.319-6.267,5.22,7.864,2.348,8.911a71.821,71.821,0,0,0-8.768,4.718s9.83-2.1,11.794,0,1.408,8.8-3.026,9.009S-459.315-165.813-459.315-165.813Z" transform="translate(490.817 273.111)" fill="#373f3c"/>
            <path id="패스_2429" data-name="패스 2429" d="M-474.867-148.377a1.571,1.571,0,0,1-1.206-.561,1.572,1.572,0,0,1,.192-2.217c.207-.174,20.805-17.623,29.53-35.231a1.569,1.569,0,0,1,2.109-.712,1.573,1.573,0,0,1,.709,2.107c-9.019,18.207-29.458,35.515-30.326,36.245A1.558,1.558,0,0,1-474.867-148.377Z" transform="translate(476.443 292.987)" fill="#333"/>
          </g>
          <g id="그룹_1576" data-name="그룹 1576" transform="translate(1873.955 461.422)">
            <path id="패스_2430" data-name="패스 2430" d="M-47.468-56.757l-31.9-.451s-12,1.8-11.7-13.988,2.56-23,12.055-21.719,35.187,3.991,35.187,3.991l-32.23-25.411s-5.6-6.438-1.185-12.795,23.314-19.512,25.574-20.838,8.717-4.285,16.223,11.863,10.217,20.152,10.217,20.152l.573-23.675s-4.611-19.8,7.009-19.922,18.447.125,19,13.9S-1.153-86.317-1.153-86.317L-15-68.576Z" transform="translate(91.068 159.564)" fill="#e2a89f"/>
            <path id="패스_2431" data-name="패스 2431" d="M2.913-68s6.9-58.829.115-78.062c0,0-4.961-7.421-8.666-7.314s-20.2-3.346-20.9,2.9-1.713,15.1-1.713,15.1l-8.6-12.58s-3.9-4.662-10.26-1.165-14.536,10.486-15.232,11.988-3.95,9.042.666,13.788,11.95,19.162,11.95,19.162-27.525-.351-29.14.52-4.111,4.283-4.36,11.113,2.227,12.913,7.2,15.588,22.679,4.682,22.679,4.682-28.941,9.976-28.69,15.736c.174,4.012,2.084,12.436,13.97,10.552C-40.781-50.306,2.913-68,2.913-68Z" transform="translate(103.272 167.884)" fill="#f1cfbd"/>
            <path id="패스_2432" data-name="패스 2432" d="M-28.713-101.262s-22.431,5.015-26.079,4.6-7.027,1.51-8.123-5.051,13.686-7.36,13.686-7.36-13.289-7.1-11.645-10.609,7.094-4.931,8.4-2.609,8.166,6.861,8.166,6.861-5.6-10.921-4.838-12.946,8.4-4.3,9.119-1.329a71.884,71.884,0,0,0,3.7,9.244s-.975-10,1.331-11.72,8.9-.407,8.609,4.022S-28.713-101.262-28.713-101.262Z" transform="translate(134.898 201.149)" fill="#373f3c"/>
            <path id="패스_2433" data-name="패스 2433" d="M-14.931-85.646a1.575,1.575,0,0,1-.691,1.134,1.572,1.572,0,0,1-2.181-.44c-.151-.225-15.165-22.661-31.677-33.313a1.57,1.57,0,0,1-.471-2.176,1.574,1.574,0,0,1,2.173-.469c17.073,11.016,31.969,33.275,32.594,34.217A1.558,1.558,0,0,1-14.931-85.646Z" transform="translate(154.816 219.473)" fill="#333"/>
          </g>
          <g id="그룹_1577" data-name="그룹 1577" transform="translate(29.003 199.448)">
            <path id="패스_2434" data-name="패스 2434" d="M-770.634-237.758l21.294-20.552s6.723-9.032,16.842,1.562,13.35,16.817,6.262,22.18S-752.01-214.2-752.01-214.2l37.827-4.339s7.9.579,9.144,7.649-2.6,28.083-3.218,30.433-2.934,8.52-18.432,2.793-19.9-6.587-19.9-6.587l15.1,15.962s15.977,10.02,8.407,17.695-12.227,11.976-21.594,3.264-37.125-40.7-37.125-40.7l-2.481-20.731Z" transform="translate(854.608 261.898)" fill="#e2a89f"/>
            <path id="패스_2435" data-name="패스 2435" d="M-794.3-195.31s33.907,43.238,50.947,51.464c0,0,8.118,1.641,10.486-.85s15.48-11,11.863-15.575-8.745-11.064-8.745-11.064l13.883,2.665s5.617.517,7.514-5.942,2.716-16.4,2.194-17.848-3.31-8.533-9.452-8.64S-736-205.906-736-205.906s18.347-17.759,18.842-19.389-.09-5.5-4.393-10.163-9.907-7.045-14.927-5.555-17.992,11.74-17.992,11.74,12.531-25.482,8.6-29.11c-2.739-2.527-9.5-6.825-16.095,2.184C-777.1-235.517-794.3-195.31-794.3-195.31Z" transform="translate(838.983 262.281)" fill="#f1cfbd"/>
            <path id="패스_2436" data-name="패스 2436" d="M-794.3-221.344s11.489-17.964,14.159-20.076,3.64-5.586,8.648-1.981-4.2,13.788-4.2,13.788,13.391-4.009,14.6-.627-1.449,7.882-3.825,7.206-9.859.819-9.859.819,10.821,3.533,11.645,5.361-2.719,8.323-5.133,6.835a66.6,66.6,0,0,0-8.479-3.669s7.181,5.949,6.784,8.584-5.594,6.085-8.3,2.982S-794.3-221.344-794.3-221.344Z" transform="translate(838.983 288.315)" fill="#373f3c"/>
            <path id="패스_2437" data-name="패스 2437" d="M-811.436-234.42a1.455,1.455,0,0,1-.287-1.2A1.46,1.46,0,0,1-810-236.755c.248.051,24.8,5,42.629,1.226a1.455,1.455,0,0,1,1.731,1.124,1.459,1.459,0,0,1-1.124,1.731c-18.44,3.907-42.8-1.011-43.822-1.221A1.443,1.443,0,0,1-811.436-234.42Z" transform="translate(811.753 301.074)" fill="#333"/>
          </g>
          <g id="그룹_1578" data-name="그룹 1578" transform="translate(72.165 361.902)">
            <path id="패스_2438" data-name="패스 2438" d="M-625.7-153.5s.622,12.214,0,14.134a5.667,5.667,0,0,0,0,3.52l-30.7,3.84h30.981a31.33,31.33,0,0,0,0,6.08c.379,1.6-3.141,2.24-3.141,2.24l1.28,10.56-81.28,1.92,79.68,12.48s-2.88,8.32-2.88,9.28-1.6.64-1.28,2.88-2.56,11.2-2.56,11.2l-119.68-20.8-2.56-11.2,3.52-15.04,13.76-12.8Z" transform="translate(852.682 268.541)" fill="#fff"/>
            <path id="패스_2439" data-name="패스 2439" d="M-702.618-37.167c-2.109-11.18-1.021-19.809,1.385-26.358,4.9-13.317,15.255-18.015,15.255-18.015l-36.641-43.3-54.51-64.428s-11.22,5.089-15.826,19.7c-1.994,6.321-2.747,14.428-.814,24.676Z" transform="translate(794.893 212.74)" fill="#604d4d"/>
            <path id="패스_2440" data-name="패스 2440" d="M-747.181-153.9s-11.53,4.477-15.828,20.593c-1.708,6.405-1.357,15.176.576,25.423l-7.757-8.755c-1.935-10.248-1.18-18.353.812-24.676,4.605-14.6,15.864-20.068,15.864-20.068Z" transform="translate(831.675 256.24)" fill="#cbd4d1"/>
            <path id="패스_2441" data-name="패스 2441" d="M-787.954-174.973l119.311-23.466h-1.246l54.511,64.428,36.639,43.3-68.043,13.524L-696.8-67.239Z" transform="translate(805.717 198.439)" fill="#7c6e6e"/>
            <path id="패스_2442" data-name="패스 2442" d="M-707.577-92.383a1.27,1.27,0,0,1-.975-.453l-68.426-80.876a1.29,1.29,0,0,1-.23-1.252,1.279,1.279,0,0,1,.96-.832l83.743-16.471a1.29,1.29,0,0,1,1.226.43l68.3,80.727a1.272,1.272,0,0,1,.23,1.249,1.268,1.268,0,0,1-.957.832l-83.62,16.62A1.178,1.178,0,0,1-707.577-92.383Zm-66.04-81.318,66.532,78.635,80.75-16.049-66.414-78.495Z" transform="translate(822.369 208.033)" fill="#cbd4d1"/>
            <path id="패스_2443" data-name="패스 2443" d="M-741.523-132.888l50.02-9.943,68.045-13.525s3.182,3.891,0,7.306l-65.9,13.1-50.022,9.943a22.746,22.746,0,0,0-10.634,12.559c-1.677,4.564-2.437,10.583-.968,18.376l.819,1.759,117.652,20.362a4.389,4.389,0,0,1-.916,6.559l-94.638-16.783-30.1-5.338c-2.109-11.18-1.021-19.809,1.385-26.358,4.9-13.317,15.255-18.015,15.255-18.015" transform="translate(850.437 264.088)" fill="#3d3636"/>
            <path id="패스_2444" data-name="패스 2444" d="M-780.389-129.318c-1.935-10.248-2.283-19.018-.576-25.423,4.3-16.115,15.826-20.593,15.826-20.593l-6.044-7.145s-11.546,5.123-16.151,19.73c-1.994,6.323-2.747,14.428-.814,24.676Z" transform="translate(803.661 223.337)" fill="#cbd4d1"/>
          </g>
          <g id="그룹_1579" data-name="그룹 1579" transform="translate(1459.878 164.569)">
            <path id="패스_2445" data-name="패스 2445" d="M-117.532-151.608s-8.046,9.208-9.83,10.153a5.675,5.675,0,0,0-2.45,2.529l-24.73-18.6,22.259,21.55a31.307,31.307,0,0,0-4.229,4.37c-.842,1.411-3.817-.579-3.817-.579l-6.426,8.479-59.73-55.16,48.563,64.392s-7.854,3.973-8.522,4.664-1.595-.653-2.924,1.178S-179-102.363-179-102.363l-71.514-98.194,5.952-9.828,12.992-8.356,18.788.376Z" transform="translate(256.414 364.101)" fill="#fff"/>
            <path id="패스_2446" data-name="패스 2446" d="M-252.817-113.24c6.262-9.5,13.048-14.943,19.331-17.971C-220.7-137.374-210-133.544-210-133.544l3.8-56.6,5.652-84.2s-11.6-4.15-25.07,3.141c-5.832,3.156-12.012,8.456-17.751,17.162Z" transform="translate(252.817 275.522)" fill="#604d4d"/>
            <path id="패스_2447" data-name="패스 2447" d="M-208.917-228.2s-11.4-4.8-25.695,3.786c-5.683,3.412-11.533,9.958-17.272,18.665l.517-11.686c5.74-8.707,11.919-14.006,17.748-17.162,13.468-7.291,25.357-3.382,25.357-3.382Z" transform="translate(254.272 332.455)" fill="#cbd4d1"/>
            <path id="패스_2448" data-name="패스 2448" d="M-226.635-275.063-124.6-208.93l-.895-.867-5.654,84.205-3.8,56.6-58.291-37.615-42.853-27.652Z" transform="translate(278.911 276.238)" fill="#7c6e6e"/>
            <path id="패스_2449" data-name="패스 2449" d="M-229.978-157.076a1.286,1.286,0,0,1-.387-1.006l7.1-105.7a1.287,1.287,0,0,1,.7-1.06,1.279,1.279,0,0,1,1.27.072l71.621,46.418a1.291,1.291,0,0,1,.581,1.16l-7.084,105.508a1.279,1.279,0,0,1-.7,1.057,1.274,1.274,0,0,1-1.267-.067l-71.636-46.226A1.321,1.321,0,0,1-229.978-157.076Zm9.121-104.361-6.9,102.774,69.176,44.639,6.889-102.587Z" transform="translate(287.839 291.973)" fill="#cbd4d1"/>
            <path id="패스_2450" data-name="패스 2450" d="M-210-219.345l42.852,27.651,58.291,37.617s-.417,5.01-5.082,5.248l-56.453-36.429-42.854-27.653a22.731,22.731,0,0,0-16.376,1.626c-4.38,2.112-9.111,5.906-13.476,12.529l-.637,1.833,70.362,96.468a4.387,4.387,0,0,1-5.22,4.073l-56.317-77.888-17.91-24.771c6.262-9.5,13.048-14.943,19.331-17.971C-220.7-223.175-210-219.345-210-219.345" transform="translate(252.817 361.324)" fill="#3d3636"/>
            <path id="패스_2451" data-name="패스 2451" d="M-250.021-233.61c5.739-8.709,11.587-15.253,17.27-18.665,14.3-8.589,25.695-3.786,25.695-3.786l.627-9.339s-11.858-4.349-25.326,2.941c-5.832,3.154-12.012,8.453-17.751,17.162Z" transform="translate(257.179 289.304)" fill="#cbd4d1"/>
          </g>
          <g id="그룹_1580" data-name="그룹 1580" transform="translate(337.743 445.141)">
            <path id="패스_2452" data-name="패스 2452" d="M-577.731-149.18S-639-124.461-669.891-59.764s-25.892,110.876,1.654,121.756,71.455-41.044,85.829-80.451C-557.258-87.4-577.731-149.18-577.731-149.18Z" transform="translate(691.313 192.045)" fill="#af7868"/>
            <path id="패스_2453" data-name="패스 2453" d="M-552.394-165.924c-13.56,19.487-26.66,42.232-38.884,65.953l-53.9,26.634,1.106,2.243,50.88-25.137c-3.692,7.252-7.3,14.579-10.813,21.924L-664.45-45.886l1.062,2.263L-605.7-70.746c-3.825,8.069-7.531,16.141-11.1,24.136l-60.467,27.725,1.042,2.273,57.887-26.534c-3.5,7.9-6.876,15.716-10.1,23.355L-684.859,2.8l.932,2.324L-629.8-16.551c-3.213,7.665-6.267,15.137-9.152,22.336L-690.16,26.611l.944,2.319,48.973-19.919c-3.2,8.041-6.182,15.708-8.922,22.889l-41.987,16.21.9,2.335,39.887-15.4c-3.546,9.347-6.653,17.795-9.272,25.05l-26.432,9.725.863,2.348,24.464-9c-5.374,14.991-8.4,24.166-8.525,24.545l2.381.781c.123-.374,3.09-9.37,8.356-24.079l10.422,22.633,2.273-1.047-11.487-24.95c2.519-6.976,5.5-15.073,8.878-24.01l16.62,39.729,2.312-.968-17.641-42.161c2.726-7.163,5.7-14.822,8.9-22.863l21.875,51.1,2.3-.983L-636.943,7.493c2.893-7.224,5.952-14.723,9.172-22.423l25.277,59.059,2.3-.983-26.23-61.286c3.254-7.729,6.661-15.636,10.207-23.639l25.687,65.948,2.332-.906L-614.784-45c3.63-8.138,7.4-16.358,11.295-24.573l23.542,67.226,2.36-.829L-601.96-72.791c3.627-7.593,7.357-15.168,11.177-22.659L-572.518-40.5l2.376-.788-19.044-57.28c12.209-23.716,25.3-46.459,38.845-65.925Z" transform="translate(691.151 165.924)" fill="#d8a5a1"/>
          </g>
          <g id="그룹_1581" data-name="그룹 1581" transform="translate(1277.216 459.198)">
            <path id="패스_2454" data-name="패스 2454" d="M-110.421-49.32s-25.554-60.928-90.668-90.931-111.219-24.374-121.72,3.318,42.017,70.889,81.615,84.723C-171.912-28.006-110.421-49.32-110.421-49.32Z" transform="translate(324.169 160.552)" fill="#af7868"/>
            <path id="패스_2455" data-name="패스 2455" d="M-67.82-24.615C-87.486-37.906-110.411-50.7-134.3-62.592l-27.369-53.532-2.227,1.137,25.83,50.532c-7.3-3.592-14.679-7.1-22.07-10.514l-29.245-60.05-2.248,1.093,27.909,57.311c-8.12-3.712-16.243-7.309-24.287-10.772l-28.547-60.083-2.258,1.073,27.323,57.521c-7.951-3.4-15.811-6.661-23.493-9.779l-23.36-56.1-2.312.963,22.413,53.824c-7.708-3.105-15.219-6.057-22.459-8.845l-21.522-50.918-2.307.975,20.585,48.7c-8.085-3.092-15.79-5.967-23.007-8.609l-16.783-41.759-2.319.932,15.939,39.672c-9.4-3.415-17.884-6.41-25.175-8.927l-10.086-26.3-2.335.893,9.329,24.34c-15.063-5.169-24.279-8.069-24.66-8.189l-.747,2.391c.376.118,9.411,2.962,24.192,8.028l-22.487,10.726L-321-114.6l24.788-11.825c7.012,2.422,15.15,5.289,24.131,8.548l-39.5,17.162,1,2.3,41.917-18.217c7.2,2.632,14.9,5.5,22.981,8.586l-50.8,22.569,1.014,2.286,53.092-23.588c7.263,2.793,14.8,5.75,22.546,8.865l-58.708,26.081,1.016,2.289L-216.6-96.615c7.772,3.149,15.724,6.446,23.775,9.882l-65.592,26.586.94,2.319,67.9-27.517c8.184,3.52,16.456,7.178,24.725,10.959l-66.9,24.458.863,2.348L-161.618-72.9c7.642,3.525,15.268,7.15,22.81,10.867L-193.5-43.024l.822,2.365,57.014-19.825c23.882,11.886,46.8,24.663,66.45,37.942Z" transform="translate(324.771 160.433)" fill="#d8a5a1"/>
          </g>
          <g id="그룹_1582" data-name="그룹 1582" transform="translate(1830.853 8.627)">
            <path id="패스_2456" data-name="패스 2456" d="M-99.205-213.485s40.256-9.057,65.815-45.821,27.136-65.728,11.254-75.213-48.179,18.1-61.01,40.937C-105.6-253.623-99.205-213.485-99.205-213.485Z" transform="translate(120.164 336.437)" fill="#af7868"/>
            <path id="패스_2457" data-name="패스 2457" d="M-106.784-189.943a369.061,369.061,0,0,0,30.612-36.731l35.909-10.982-.458-1.5-33.892,10.365c3.005-4.1,5.97-8.251,8.876-12.424l40.118-11.425-.425-1.5-38.29,10.9c3.169-4.588,6.269-9.19,9.275-13.757l40.064-10.993-.412-1.505-38.354,10.519c2.957-4.518,5.824-9,8.579-13.379l37.051-8.238-.34-1.526-35.546,7.9c2.752-4.4,5.389-8.7,7.892-12.844l33.661-7.672-.348-1.526L-35-288.91c2.783-4.634,5.394-9.057,7.805-13.207l27.512-5.76-.32-1.528-26.138,5.468c3.128-5.4,5.9-10.3,8.241-14.5l17.272-3.331-.294-1.533-15.987,3.077c4.823-8.7,7.613-14.047,7.729-14.267l-1.388-.722c-.113.218-2.849,5.463-7.578,14l-4.142-15-1.505.417,4.562,16.535c-2.253,4.045-4.9,8.737-7.89,13.9l-6.241-26.163-1.521.363,6.623,27.766c-2.4,4.14-5.007,8.561-7.788,13.194l-8.33-33.7-1.518.374,8.707,35.223c-2.509,4.16-5.151,8.474-7.913,12.895l-9.628-38.948-1.516.374,9.989,40.417c-2.785,4.437-5.683,8.968-8.673,13.542l-9.185-43.236-1.528.323,9.505,44.756c-3.057,4.649-6.211,9.336-9.439,14.008l-7.734-43.809-1.539.274,8.008,45.361c-3,4.314-6.065,8.607-9.172,12.841l-5.719-35.712-1.544.248,5.962,37.225A368.5,368.5,0,0,1-107.9-191.029Z" transform="translate(107.905 336.778)" fill="#d8a5a1"/>
          </g>
          <g id="그룹_1583" data-name="그룹 1583" transform="translate(0 0.512)">
            <path id="패스_2458" data-name="패스 2458" d="M-813.452-330.865s10.657,39.864,48.41,63.939,66.757,24.494,75.6,8.248-20-47.419-43.333-59.331C-773.6-338.85-813.452-330.865-813.452-330.865Z" transform="translate(838.105 350.9)" fill="#af7868"/>
            <path id="패스_2459" data-name="패스 2459" d="M-823.082-338.44a369.888,369.888,0,0,0,37.921,29.125l12.406,35.441,1.474-.517-11.707-33.454q6.321,4.263,12.767,8.374l13.015,39.634,1.482-.486-12.421-37.824c4.711,2.982,9.434,5.9,14.116,8.719l12.582,39.593,1.487-.471L-752-288.21c4.634,2.772,9.219,5.458,13.709,8.038l9.708,36.693,1.513-.4-9.316-35.2c4.508,2.573,8.906,5.035,13.151,7.373l9.009,33.329,1.51-.41-8.62-31.875c4.741,2.6,9.267,5.03,13.509,7.273l6.851,27.261,1.516-.379-6.505-25.9c5.525,2.911,10.524,5.481,14.822,7.654l4.014,17.126,1.523-.353-3.714-15.852c8.883,4.472,14.341,7.048,14.566,7.153l.666-1.416c-.225-.1-5.573-2.629-14.29-7.014l14.823-4.736-.476-1.487-16.34,5.22c-4.132-2.091-8.927-4.557-14.208-7.332l25.894-7.278-.425-1.505-27.479,7.724c-4.232-2.235-8.752-4.662-13.494-7.255l33.342-9.667-.435-1.5-34.847,10.1c-4.257-2.342-8.673-4.81-13.2-7.393l38.536-11.172-.435-1.5L-737.112-281.3c-4.544-2.606-9.185-5.322-13.878-8.128l42.839-10.9-.387-1.513-44.342,11.282c-4.767-2.872-9.577-5.837-14.372-8.876l43.464-9.472-.333-1.526-45.007,9.807c-4.429-2.826-8.842-5.716-13.194-8.653l35.453-7.14-.31-1.531-36.956,7.442a368.07,368.07,0,0,1-37.906-29.1Z" transform="translate(823.082 339.607)" fill="#d8a5a1"/>
          </g>
        </g>
      </g>
    </g>
  </g>
</svg>
