<?xml version="1.0" encoding="UTF-8"?>
<svg xmlns="http://www.w3.org/2000/svg" xmlns:xlink="http://www.w3.org/1999/xlink" viewBox="0 0 406 137">
  <defs>
    <style>
      .cls-1 {
        fill: #785840;
      }

      .cls-1, .cls-2, .cls-3, .cls-4, .cls-5, .cls-6, .cls-7, .cls-8, .cls-9, .cls-10, .cls-11, .cls-12, .cls-13, .cls-14, .cls-15, .cls-16 {
        stroke-width: 0px;
      }

      .cls-2 {
        fill: #593b26;
      }

      .cls-3 {
        fill: #f3cf6e;
      }

      .cls-4 {
        fill: #99887c;
      }

      .cls-5 {
        fill: #faf1b8;
      }

      .cls-17 {
        isolation: isolate;
      }

      .cls-6 {
        fill: #ee8955;
      }

      .cls-7 {
        fill: #d3a243;
      }

      .cls-8 {
        fill: none;
      }

      .cls-18 {
        clip-path: url(#clippath-1);
      }

      .cls-9 {
        fill: #c16b38;
      }

      .cls-10 {
        fill: #cb6750;
      }

      .cls-11 {
        fill: #bac084;
      }

      .cls-12 {
        fill: #d3c5ab;
      }

      .cls-19 {
        opacity: .19;
      }

      .cls-19, .cls-20 {
        mix-blend-mode: multiply;
      }

      .cls-21 {
        clip-path: url(#clippath);
      }

      .cls-13 {
        fill: #ffebc0;
      }

      .cls-14 {
        fill: #702d9b;
      }

      .cls-15 {
        fill: #9e442c;
      }

      .cls-22 {
        opacity: .61;
      }

      .cls-23 {
        opacity: .25;
      }

      .cls-20 {
        opacity: .46;
      }

      .cls-16 {
        fill: #bf8686;
      }
    </style>
    <clipPath id="clippath">
      <path class="cls-8" d="M155.56,24.42h14.13c1.6,0,2.9,1.3,2.9,2.9v59.86c0,1.6-1.3,2.9-2.9,2.9h-14.13c-1.6,0-2.9-1.3-2.9-2.9V27.32c0-1.6,1.3-2.9,2.9-2.9Z" transform="translate(-9.03 73.37) rotate(-24.76)"/>
    </clipPath>
    <clipPath id="clippath-1">
      <rect class="cls-8" x="350.73" width="19.93" height="90.08" rx="3.13" ry="3.13"/>
    </clipPath>
  </defs>
  <g class="cls-17">
    <g id="Layer_2" data-name="Layer 2">
      <g id="OBJECTS">
        <g>
          <g>
            <g class="cls-19">
              <rect class="cls-14" x="11.34" y="99.74" width="381.54" height="20.34"/>
            </g>
            <g>
              <path class="cls-15" d="M13.16,133.64c1.21,2.02,3.55,4.25,5.54,3,1.18-.75,1.42-2.34,1.54-3.74.64-8.05.78-16.13.43-24.2-.4-9.32-10.95-19.36-16.59-7.21-3.97,8.55,4.92,25.17,9.09,32.14Z"/>
              <path class="cls-15" d="M395.92,133.64c-1.21,2.02-3.55,4.25-5.54,3-1.18-.75-1.42-2.34-1.54-3.74-.64-8.05-.78-16.13-.43-24.2.4-9.32,10.95-19.36,16.59-7.21,3.97,8.55-4.92,25.17-9.09,32.14Z"/>
              <rect class="cls-15" x="0" y="87.48" width="405" height="14.01" rx="7.01" ry="7.01"/>
              <g class="cls-20">
                <path class="cls-14" d="M3.84,112.51h16.93c-.03-1.27-.05-2.54-.11-3.81-.11-2.5-.95-5.05-2.23-7.21H4.07c-1.37,2.95-1.2,6.87-.23,11.02Z"/>
              </g>
              <g class="cls-20">
                <path class="cls-14" d="M388.41,108.7c-.05,1.27-.08,2.54-.11,3.81h16.93c.97-4.15,1.14-8.07-.23-11.02h-14.36c-1.28,2.16-2.12,4.71-2.23,7.21Z"/>
              </g>
            </g>
          </g>
          <g>
            <rect class="cls-6" x="7.52" y="9.21" width="19.93" height="80.87" rx="3.13" ry="3.13"/>
            <g class="cls-22">
              <circle class="cls-5" cx="17.49" cy="21.1" r="6.15"/>
              <rect class="cls-5" x="12.05" y="31.15" width="1.89" height="21.77"/>
              <rect class="cls-5" x="16.19" y="31.15" width="1.89" height="21.77"/>
              <rect class="cls-5" x="21.03" y="31.15" width="1.89" height="21.77"/>
            </g>
          </g>
          <g>
            <rect class="cls-5" x="27.45" y="24.41" width="19.93" height="65.67" rx="3.13" ry="3.13"/>
            <g>
              <path class="cls-7" d="M34.37,56.85s.03,0,.04,0c0,0,.01.02.03.03.02,0,.04,0,.06,0,.02,0,.04,0,.06,0h0c.09-.03.17-.03.24,0h0s.1.01.17.05c.06.04.12.07.16.09.05.02.11.04.17.06.06.02.11.05.16.08.09.06.18.14.27.22.05.05.08.09.11.15.03.05.06.1.1.15.05.06.1.11.16.16.05.05.09.11.12.19,0,0,0,.02,0,.02,0,0,0,.01-.02.02.03.05.07.12.1.21.03.09.05.17.06.23,0,.05.01.09,0,.14,0,.05,0,.1.02.14.02.02.04.03.07.03.02,0,.01.03-.03.07-.03.08-.05.17-.04.25,0,.09.02.17.03.26,0,.03.01.06.01.08,0,0,.01,0,.02.01,0,0,0,0,0,.01,0,.02.02.04.05.06.03.02.06.04.09.06.04.02.07.04.1.05.03.01.06.02.08.03.01-.02.03-.03.06-.03,0,0,.04.01.08.03.05.02.1.04.15.07.05.02.11.05.16.07.05.02.08.04.09.04.05.02.1.05.14.08.04.03.09.06.13.09.05.02.1.05.15.07.05.02.1.04.15.07.15.08.28.17.38.27.1.1.19.22.29.37,0,.02.02.03.02.04,0,.01.01.03.01.04.02,0,.03,0,.03,0,.02,0,.04,0,.07.02.03.01.04.03.05.05,0,.02,0,.04,0,.06-.01.02-.05.04-.11.06,0,.03,0,.07,0,.1-.01.03-.03.06-.04.09.02.05.02.09,0,.12-.02.03-.04.04-.06.02h-.02s-.02.02-.03.03c0,.01-.01.03-.02.04h0c-.05.06-.09.11-.13.15-.04.04-.1.06-.19.06-.03.05-.06.07-.1.08-.04,0-.07.01-.11,0-.04,0-.07,0-.1-.02-.03,0-.06,0-.09,0-.05,0-.1,0-.15,0-.05,0-.09,0-.14,0,0,0-.01.02-.02.02,0,0-.01.01-.03.01-.05,0-.09-.01-.13-.03-.04-.02-.09-.04-.13-.06-.02,0-.04,0-.06.02-.02.01-.04.02-.06.02,0,0-.02,0-.05,0-.02,0-.05,0-.07,0-.02,0-.04,0-.06,0-.02,0-.03,0-.04,0,0,0-.02-.01-.05-.02-.02,0-.04-.01-.05-.02,0,0-.02,0-.05,0h0s-.02,0-.04,0c-.02,0-.03,0-.03,0-.02.02-.05.04-.06.03s-.03-.01-.04-.02c-.01-.01-.02-.03-.03-.04,0-.02-.01-.03-.02-.03-.02-.02-.06-.03-.12-.03-.06,0-.1,0-.12,0-.01.02-.04.02-.07.02-.03,0-.07-.02-.11-.03-.04-.01-.07-.03-.11-.05-.04-.02-.06-.03-.07-.04h0s-.06,0-.08,0c-.02,0-.04,0-.06,0-.08,0-.16-.02-.22-.05-.06-.04-.13-.06-.21-.08-.08-.02-.16-.05-.23-.07-.07-.02-.14-.06-.22-.1-.02-.01-.05-.03-.08-.04-.03-.02-.06-.03-.09-.03-.12-.02-.23-.07-.32-.16-.04,0-.09-.02-.15-.03-.06-.01-.11-.03-.14-.05-.03-.02-.06-.04-.09-.07-.03-.02-.06-.04-.1-.06-.02.02-.03.02-.04.02-.05-.02-.08-.05-.1-.1-.02-.04-.05-.08-.09-.1-.04-.02-.08-.05-.12-.07-.05-.02-.09-.05-.12-.09-.07-.06-.15-.12-.23-.18-.08-.06-.15-.13-.21-.21-.03-.04-.06-.09-.08-.13-.02-.05-.04-.09-.06-.14-.02-.04-.04-.08-.06-.12-.02-.04-.04-.08-.06-.12-.02-.05-.04-.09-.06-.13-.02-.04-.04-.09-.06-.13-.02-.05-.04-.09-.07-.13-.03-.04-.04-.09-.05-.14,0-.05-.01-.1,0-.15,0-.05,0-.1,0-.14,0-.05,0-.1.03-.15.02-.05.03-.09.04-.14,0-.01,0-.03,0-.05,0-.02,0-.03,0-.04,0-.12.04-.22.08-.3,0-.04,0-.08.02-.12.02-.04.03-.08.05-.12,0-.02.01-.03.04-.04h.01c.03-.05.07-.09.1-.13.03-.04.07-.08.12-.12l.12-.12s.08-.07.14-.11c.07-.05.13-.09.18-.12s.11-.09.17-.14c.02-.02.04-.01.06,0,0,0,.01-.01.02-.01.06-.03.12-.05.18-.07.06-.02.13-.04.19-.04.07,0,.13-.02.18-.02.05,0,.11-.03.17-.06.02-.01.03-.02.03-.02,0,0,.02,0,.04,0ZM34.3,57.38s-.02.02-.04.02c-.01,0-.02.01-.03.02-.04,0-.08.01-.13.02-.04,0-.09,0-.13,0-.04.02-.08.05-.11.08-.03.03-.07.05-.11.07-.04.02-.09.04-.13.05-.05.01-.09.03-.12.06-.03.02-.05.04-.07.06-.02.02-.04.04-.06.07-.02.02-.04.04-.06.06-.02.02-.05.03-.08.05-.02.02-.05.02-.07,0h-.01s0,.07-.04.11c-.03.04-.06.06-.08.07-.03.03-.06.07-.07.12-.01.05-.02.09-.02.14v.02s0,.06,0,.09c0,.03,0,.06-.02.09.02,0,.03,0,.05,0,.02,0,.03.02.04.04,0,0,0,.02,0,.03-.01.01-.02.03-.04.04-.02.01-.03.03-.05.04-.02.01-.03.02-.04.03h0c.04.05.06.08.07.1.01.01,0,.05,0,.11,0,.02,0,.04,0,.05s0,.02-.02.03c0,0,0,.02,0,.02,0,0,0,.01-.01.02h0c.02.06.04.11.06.17.02.06.04.11.07.16.03.05.05.11.06.17.01.06.04.11.07.16.03.05.07.09.12.12.05.03.09.07.13.11.07.02.14.06.21.12.06.06.12.12.16.18,0,0,.01,0,.01.02s0,.01,0,.02c.03,0,.08,0,.13.02.05.01.1.03.13.05.04.02.07.05.1.08.03.03.06.06.09.08l.02.02s.04.04.06.07c.02.02.04.04.06.06.02.01.04.02.06.02.02,0,.04,0,.06,0,0,0,.02-.01.02-.02,0,0,.02-.01.03-.01.03.02.06.04.09.06.03.02.06.04.1.04.07.02.14.04.21.07.07.02.14.05.19.09.07.02.13.03.18.04.04,0,.09.02.13.02.04,0,.07.01.08.02.06.01.11.03.16.05.05.02.11.04.17.05.06.02.12.02.19.02.06,0,.12,0,.18,0,.05,0,.08.03.1.06,0,0,0,.02,0,.02,0,0,.01.02.02.02.02,0,.03,0,.05,0,.02.01.03.01.05,0,.02,0,.05-.01.07-.02.02,0,.04,0,.08,0h.01s.06,0,.08,0c.02,0,.05,0,.07,0,.03,0,.07,0,.1.01.03,0,.06.01.1.02.02,0,.05,0,.07,0s.05,0,.08,0c.15.03.28.03.4.01.12-.02.25-.05.4-.1,0-.05.03-.08.06-.11.03-.03.07-.05.11-.06-.03-.04-.07-.07-.1-.11-.03-.04-.07-.07-.11-.11-.04-.03-.09-.06-.14-.07-.05-.02-.1-.04-.15-.08-.09-.07-.18-.13-.26-.18-.09-.05-.19-.09-.3-.13-.02.02-.03.02-.04.02h0s0,0,0,0c-.01,0-.03,0-.05-.02-.02-.02-.03-.04-.04-.04-.03-.03-.05-.05-.08-.07-.02-.01-.04-.03-.07-.03-.02,0-.04-.02-.07-.03-.03,0-.06-.02-.09-.03-.04,0-.06-.02-.06-.05,0-.02-.03-.02-.08-.02-.04,0-.08,0-.11-.04-.01.04-.03.07-.04.11-.01.03-.03.07-.03.1-.03.12-.08.21-.13.26-.05.05-.14.1-.25.16,0,.02,0,.04-.02.05-.01.01-.03,0-.04-.02-.03.02-.06.06-.08.09-.02.04-.06.04-.1.03-.02-.02-.04-.04-.04-.08-.01,0-.03,0-.05.01-.02,0-.04,0-.05,0-.02.02-.03.02-.04,0-.01-.01-.02-.02-.03-.04h0s-.04-.04-.07-.06c-.03-.02-.05-.05-.05-.07,0-.03,0-.07.03-.12.02-.05.05-.07.09-.07,0-.03.02-.06.04-.09.02-.03.04-.06.08-.07h.01s.03.02.03.04c0-.03.02-.06.04-.07.01-.03.03-.06.05-.09.02-.02.04-.05.06-.07.02-.03.04-.05.06-.08.02-.03.03-.06.03-.1-.07-.02-.14-.05-.22-.09-.08-.03-.16-.07-.24-.1-.08-.03-.16-.06-.25-.08-.08-.02-.16-.03-.23-.03-.03.02-.05.01-.07-.01-.02,0-.04,0-.06,0-.02,0-.04,0-.06,0-.01,0-.02-.01-.02-.02h0s-.02.01-.02,0c0,0-.02,0-.02,0l-.02-.02s-.03,0-.04-.02c-.02,0-.03-.02-.03-.05h-.02s-.04,0-.04,0c0,0-.02-.01-.04-.02-.02,0-.03.01-.05.02-.02,0-.03.01-.05.02,0,0-.02.01-.02,0,0,0-.02,0-.02-.02h-.02c-.03.06-.05.08-.07.06-.02-.02-.04-.05-.07-.07,0,0-.02.01-.03.01h-.04s-.06,0-.12.02c-.05.01-.08,0-.08-.02h-.02s-.06,0-.07,0c-.01,0-.04,0-.07-.02-.08-.02-.13-.05-.14-.1,0-.05.04-.09.13-.12-.03-.03-.05-.06-.04-.09,0-.04.03-.07.06-.1.03-.03.06-.06.1-.07.04-.02.07-.02.1,0,.02,0,.02,0,.02.02.02,0,.04.02.05.03.02-.03.04-.06.08-.07.04-.02.07-.03.11-.03.04,0,.08,0,.12,0,.04,0,.08,0,.11,0h.01s.04,0,.07,0c.03-.01.05-.01.06,0,.01,0,.02,0,.03.01.02,0,.05,0,.09,0,.05,0,.07,0,.09-.02h.07s.04.02.06.04c.02.02.04.04.06.06s.04.04.06.05c.02.01.04.02.05.02.02-.02.03-.04.04-.07,0-.03.03-.04.07-.04.04,0,.06.01.07.04,0,.03.02.05.04.08.08.08.16.13.24.15.08.02.17.03.27.05.03,0,.06.01.09.02.03,0,.06.01.08.03h0s0-.08-.02-.15c-.01-.07-.03-.11-.05-.14-.01,0-.02-.01-.02-.03,0-.07-.01-.15-.02-.22,0-.07-.02-.14-.03-.22-.01-.07-.03-.13-.04-.17-.01-.04-.03-.08-.04-.11-.02-.03-.04-.06-.06-.1-.02-.04-.06-.08-.11-.15-.04-.05-.07-.1-.1-.16-.03-.06-.06-.1-.11-.15-.07-.02-.12-.04-.17-.08-.05-.04-.09-.08-.13-.12-.02.02-.06.03-.11,0-.05-.02-.08-.04-.1-.07-.02,0-.05,0-.07-.02-.02-.01-.05-.02-.09-.02,0,0-.01,0-.03,0-.01.01-.02.01-.03,0,0-.01-.02-.02-.02-.03h0s-.02.02-.03.04c-.01.03-.03.03-.05,0h0s0,0,0,0c-.02,0-.05,0-.07,0s-.04,0-.06-.02c0,0-.01,0-.02-.02,0-.01-.01-.02-.02-.02l-.05.02Z"/>
              <path class="cls-7" d="M36.35,52.85c.06-.02.12,0,.16.02.04.03.08.07.12.12.03.05.06.1.09.16.03.06.06.1.09.14.04.19.07.36.09.51.02.15.04.32.07.5,0,.05,0,.1,0,.15-.01.05-.01.1,0,.15,0,.03,0,.06,0,.08,0,.02,0,.05,0,.08,0,.1.04.16.1.19.06.03.12.05.19.07.07.02.14.04.21.07.06.03.11.08.13.17.02,0,.04,0,.06,0,.02-.01.03-.03.04-.03.02.07.06.12.11.14.05.02.11.04.16.06.05.02.1.04.14.07s.05.09.04.18c.14.13.25.28.33.46.08.17.14.36.16.54-.02.03-.04.07-.06.1-.02.03-.05.06-.07.09s-.04.06-.05.1-.01.08,0,.12c-.09,0-.17.02-.24.05-.07.03-.15.07-.21.12-.08,0-.14,0-.21-.03-.06-.03-.13-.06-.19-.08-.06-.03-.13-.05-.19-.07-.06-.02-.14-.02-.22,0-.02-.04-.05-.07-.09-.08-.03-.01-.07-.02-.1-.03-.04,0-.07-.02-.1-.03-.03-.01-.06-.04-.08-.09-.1.03-.17.03-.22-.02-.05-.04-.09-.1-.13-.16-.04-.06-.08-.12-.12-.17-.05-.05-.11-.07-.21-.06-.02-.02-.05-.05-.06-.09-.02-.03-.03-.07-.05-.1-.01-.03-.03-.06-.05-.09-.02-.03-.04-.06-.07-.08-.02.03-.04.04-.06.04-.02,0-.04,0-.07-.02-.02,0-.05-.02-.07-.03-.02-.01-.05,0-.07,0,.02-.11,0-.21-.05-.3-.05-.09-.1-.17-.15-.24-.05-.08-.08-.15-.11-.23-.02-.08,0-.17.08-.27.03,0,.07-.02.13-.04.06-.02.11-.04.17-.06.06-.02.11-.04.17-.05.05-.02.09-.03.12-.03h.5c.07-.12.11-.24.13-.36.01-.12-.01-.24-.08-.36.04-.05.05-.09.03-.13-.02-.04-.04-.08-.07-.12-.03-.04-.04-.08-.04-.12,0-.04.03-.08.1-.12-.05-.06-.09-.12-.1-.18s-.02-.13-.02-.19c0-.07,0-.13-.02-.2,0-.06-.04-.13-.08-.19ZM36.45,55.24c-.06,0-.13-.01-.2-.03-.07-.02-.14-.04-.21-.05-.07-.01-.13-.01-.2,0-.06.01-.12.06-.17.12.03.05.06.08.1.11.04.03.09.06.13.09.04.03.08.06.11.1.03.04.04.09.02.15.05.02.09.02.12,0,.03-.02.06-.05.09-.08.03-.03.06-.06.08-.08.03-.03.07-.04.11-.03.01-.02.02-.04.03-.07.01-.03.02-.06.02-.09,0-.03,0-.06,0-.09,0-.03-.02-.05-.04-.06ZM36.95,55.29c0,.08-.02.16-.06.22-.04.06-.08.12-.13.18-.05.06-.1.12-.14.19-.04.06-.07.14-.08.23.05.04.1.08.14.13.04.05.09.09.14.13.05.04.1.06.16.08.06.01.12,0,.2-.03.05.1.11.16.2.19.09.03.18.06.28.07.1.01.2.02.3.03.1,0,.19.04.27.08l-.09-.14s.02-.03.04-.04c.02-.01.04-.01.06,0-.03-.03-.06-.07-.08-.11-.02-.04-.03-.08-.04-.13-.01-.04-.02-.09-.03-.13,0-.04-.02-.09-.04-.13.06-.1.07-.18.04-.22-.03-.05-.08-.08-.15-.11-.07-.03-.14-.06-.21-.09-.07-.03-.12-.09-.13-.16l-.04.04c-.09-.07-.18-.13-.27-.19-.09-.06-.2-.08-.31-.08Z"/>
              <path class="cls-7" d="M36.4,48.98s.07.07.09.08c.02.02.04.04.06.05.02.01.04.03.06.05.02.02.05.05.09.08.03.03.07.06.11.09.04.03.07.06.1.1-.01.05,0,.09.02.12.02.03.05.05.08.08.03.02.06.04.09.06.03.02.04.04.03.07.05.1.1.2.14.3.04.1.1.2.17.29l-.05.05.31.65s.02.04.04.06c.02.02.03.04.04.06.05.09.09.19.13.28.04.1.08.19.11.29l.03.08c.08-.03.14-.03.17,0,.03.03.06.08.07.14.01.06.02.13.03.21,0,.07.02.13.04.17,0,.05-.01.1,0,.15,0,.05,0,.1.02.16,0,.06.01.11.01.16s0,.1-.02.16h0c.03.08.04.14.02.2-.02.05-.05.1-.09.14-.04.04-.1.08-.16.12-.06.04-.12.07-.17.11-.03.02-.08.06-.14.09-.06.04-.13.07-.2.1-.07.03-.14.04-.22.05-.07,0-.14,0-.19-.05-.05-.04-.11-.07-.17-.09-.06-.02-.13-.03-.22-.03-.03,0-.06,0-.08,0-.02,0-.05,0-.08,0,0-.02,0-.04,0-.07,0-.02,0-.05,0-.07,0-.02-.01-.04-.02-.06s-.04-.02-.08-.02c-.02,0-.04,0-.05.02-.01.01-.02.02-.04.03-.04-.02-.07-.05-.09-.07-.02-.02-.05-.04-.07-.06-.02-.02-.05-.03-.08-.04-.03,0-.07,0-.13,0-.09-.05-.17-.11-.23-.18-.07-.07-.13-.14-.19-.21-.06-.08-.12-.15-.18-.23-.06-.08-.12-.15-.19-.22.03-.08.03-.14,0-.19-.03-.05-.07-.09-.11-.13-.04-.04-.07-.08-.1-.11-.02-.04-.01-.09.03-.15h.01c-.11-.12-.16-.24-.15-.35.01-.11.05-.21.11-.29s.13-.13.22-.16c.08-.03.14,0,.17.07.05-.05.1-.07.16-.07s.12.02.16.05c.05.04.1.07.15.1.05.03.11.06.17.08.1.04.19.09.27.14.08.05.16.12.21.21-.02.07-.01.13.02.15.04.03.08.05.12.06.04.01.08.03.1.04.02.02.02.05-.02.11h-.01s.01.02.01.02c.03.03.07.06.11.08.04.02.07.04.09.08-.01.04-.02.08-.03.12,0,.04-.02.08-.02.12.09,0,.16.02.21.05.05.03.09.08.12.13.03.05.06.11.07.18.02.07.04.13.07.2.03.06.06.12.1.18.04.06.09.1.17.13.05-.04.07-.09.08-.16,0-.06,0-.13,0-.19,0-.07,0-.13,0-.2s.02-.12.05-.17h0s0-.01,0-.01c-.01-.1-.04-.2-.07-.29-.04-.09-.07-.18-.11-.27-.04-.09-.08-.18-.11-.27-.04-.09-.06-.19-.08-.29.03-.02.05-.05.06-.08s0-.07,0-.1h-.01s-.05-.02-.08-.03c-.02,0-.05-.02-.08-.04-.05-.03-.08-.06-.11-.11-.02-.04-.04-.09-.06-.13-.01-.05-.02-.1-.02-.15,0-.05-.01-.11-.02-.16h0s-.02-.02-.02-.02c-.05-.02-.08-.04-.1-.07-.02-.03-.03-.06-.04-.09s-.01-.06-.02-.1c0-.04-.02-.07-.04-.1.02-.07.02-.14-.02-.19-.04-.05-.09-.1-.13-.14l.06-.05-.02-.02c-.06-.06-.1-.11-.13-.14-.03-.03-.06-.06-.08-.09-.02-.03-.05-.06-.07-.1-.02-.04-.06-.09-.1-.17-.04-.06-.07-.12-.11-.17-.04-.06-.08-.11-.12-.17,0-.02.02-.03.05-.03h.07s.02,0,.04,0c.02,0,.03,0,.04,0ZM35.62,51.56s0,0,0,0c0,0,0,0,0,0-.05.09-.07.16-.07.22,0,.06.02.11.05.16.03.05.07.09.12.13.05.04.09.08.13.12.04.04.07.09.09.15.02.06.02.13,0,.21.07.01.13.02.2.03.06.01.13.02.2.02.02.07.06.13.11.17.05.04.1.07.15.1.05.03.11.05.17.07.06.02.12.05.17.09l.03-.02s0-.04.02-.06l.04-.04c-.07-.05-.12-.11-.17-.18-.05-.08-.09-.16-.13-.24-.04-.08-.08-.16-.13-.23-.05-.07-.11-.13-.18-.17-.04-.13-.11-.23-.22-.3-.11-.07-.23-.12-.35-.17-.02,0-.06-.02-.11-.05-.05-.02-.08-.04-.1-.04Z"/>
              <path class="cls-7" d="M33.8,45.37c.06.06.09.12.1.19,0,.07,0,.14-.02.21-.01.07-.02.14-.02.2,0,.06.04.12.1.17-.02.07-.02.13,0,.21.01.07.02.14.04.22.02.08.04.15.05.22.02.07.02.15.02.22l-.11.11s.07.07.08.12c.01.05,0,.1-.03.15.06.09.08.17.08.26,0,.09,0,.17,0,.26,0,.08.01.16.05.23.04.07.12.13.26.18.1.04.19.07.29.11.1.03.19.07.29.1.25.09.5.18.74.28.24.09.48.2.72.31.19,0,.38,0,.57-.01.19-.02.38-.04.57-.06.05.02.1.02.16.02.05,0,.11-.02.16-.04.05-.02.1-.05.15-.07.05-.03.09-.06.13-.09l-.11-.11.22-.16c-.05-.04-.11-.09-.17-.15-.06-.06-.12-.12-.17-.18-.05-.06-.1-.13-.13-.2-.04-.07-.06-.14-.07-.21-.03-.03-.06-.06-.09-.08-.03-.02-.06-.05-.08-.08-.02-.03-.04-.06-.05-.1s0-.08,0-.13c-.07-.13-.17-.25-.28-.36-.11-.1-.23-.21-.34-.31s-.22-.21-.32-.33c-.1-.11-.16-.25-.2-.4.24.1.47.23.7.38.23.15.43.33.61.52.06.05.11.11.16.19.02.03.04.07.07.11.02.04.04.07.07.11.07.11.15.22.24.32.09.1.18.2.28.3-.02.01-.04.03-.05.05,0,.02-.01.04-.01.07s0,.05,0,.08c0,.03,0,.05,0,.07.06.08.1.18.14.31.04.13.04.24.02.34,0,.03-.02.07-.05.12-.02.05-.04.09-.06.11-.11.16-.24.28-.4.37-.16.08-.34.13-.53.13l-.05.05c-.05-.05-.1-.09-.15-.1-.05-.01-.1-.02-.15-.01-.05,0-.11.02-.16.03-.06.01-.11.02-.17.03-.04,0-.07,0-.09,0-.02,0-.05-.01-.09-.02-.13-.03-.26-.06-.39-.09-.13-.03-.25-.06-.38-.09-.32-.08-.63-.18-.94-.29-.31-.11-.62-.23-.92-.35-.02.07-.04.13-.05.2,0,.07,0,.13,0,.2s0,.14,0,.21c0,.07-.02.14-.04.2-.01.03-.02.04-.02.04s0,.02,0,.05c0,.02,0,.05,0,.09,0,.04,0,.08,0,.11s0,.07-.01.1c0,.03-.03.05-.06.05h-.06c-.07,0-.11-.02-.13-.04-.02-.02-.04-.06-.04-.09,0-.04-.01-.08-.01-.12,0-.05-.02-.09-.04-.13.02-.12.04-.23.05-.33.01-.1,0-.2,0-.3s-.04-.19-.08-.29c-.04-.09-.1-.19-.19-.28-.13-.07-.27-.12-.41-.15-.15-.03-.29-.07-.44-.12-.14-.04-.28-.1-.4-.17-.12-.07-.23-.18-.31-.32,0-.07,0-.12.02-.17.02-.05.05-.1.08-.15.06.02.12.04.18.05.06.01.12.03.19.04.06.01.12.03.18.05.06.02.11.05.16.09.02-.05.05-.09.07-.09.03,0,.06,0,.09.01.03.02.07.04.11.06.04.02.07.04.1.04,0,.05.03.08.09.12.05.03.1.06.12.1.07.03.13.03.18-.02s.1-.09.14-.12c.01-.04.01-.07,0-.11-.01-.04-.02-.07-.03-.1-.01-.03-.02-.06-.02-.09s.02-.06.05-.08c-.05-.04-.07-.08-.06-.12,0-.04.02-.08.03-.12.01-.04.02-.08.02-.12,0-.04-.03-.08-.1-.12-.02-.05-.03-.1-.02-.14.01-.04.03-.08.05-.12.02-.04.03-.07.04-.11.01-.04,0-.07-.02-.11,0-.06.01-.13,0-.21s-.01-.15-.02-.23c-.01-.08-.03-.15-.05-.23-.02-.08-.03-.15-.05-.21.04-.06.07-.1.1-.11.03-.01.06-.02.09,0,.03,0,.06.01.1.02.04.01.08,0,.13,0Z"/>
              <path class="cls-7" d="M37.07,42.39c.05.1.1.16.17.19.07.03.14.06.21.08.07.02.14.04.2.07.06.03.12.08.16.17.07.02.13.06.16.12.03.06.06.12.08.19.02.07.05.13.09.18.04.05.1.08.19.08.05.08.09.17.12.27.04.1.07.2.08.31.02.11.03.21.02.31,0,.1-.03.2-.06.29-.03.06-.07.12-.11.18-.02.02-.03.04-.04.06s-.03.04-.05.06c-.05.05-.11.09-.17.12-.07.03-.14.06-.21.08-.07.02-.15.04-.22.05-.07.01-.15.02-.21.03l-.62-.23c-.1.12-.21.22-.33.29-.13.08-.24.17-.35.27.03.02.05.05.07.08.02.03.05.05.1.04l.06-.06c.15.14.32.28.51.41.19.14.38.25.57.33,0,.09.02.16.07.19.05.04.1.07.16.09.06.03.12.06.17.09.05.04.07.1.06.19.05.02.09.04.15.06.05.02.1.05.15.07.05.03.08.06.12.11s.05.09.05.16c-.03.03-.07.05-.11.06-.04,0-.08,0-.12-.01-.04-.01-.08-.03-.12-.05-.04-.02-.08-.04-.12-.04-.12-.03-.23-.09-.33-.18-.1-.09-.2-.17-.29-.26-.1-.09-.2-.16-.31-.22-.11-.06-.23-.09-.38-.08,0-.05-.02-.11-.03-.17-.02-.06-.04-.11-.07-.16s-.07-.09-.12-.11c-.05-.03-.1-.04-.17-.03-.02.03-.04.05-.07.06s-.06,0-.1,0c-.03-.09-.08-.17-.15-.22-.07-.06-.15-.11-.23-.15-.08-.05-.17-.09-.25-.13-.09-.04-.16-.1-.22-.17.03-.06.06-.12.08-.17.02-.06.05-.11.09-.17.05.04.1.06.14.07.05,0,.09.01.14.01h.14s.09.01.14.04c.06-.07.13-.12.21-.17.08-.05.15-.1.2-.17-.04-.05-.06-.11-.06-.17,0-.06,0-.13,0-.19,0-.06,0-.13-.01-.18-.01-.06-.04-.11-.1-.14.02-.02.02-.04.02-.07v-.1s0-.06.02-.09c.01-.02.03-.04.06-.04.03,0,.06,0,.07,0,.01,0,.03.01.06.02.03,0,.05.01.05,0,0,0,.01,0,.04.01.05.02.1.06.14.1.04.05.07.1.11.14.04.05.08.09.12.13.04.04.1.06.17.06.03.09.08.16.15.19.06.04.14.06.22.07.08.01.16.02.25.02.08,0,.16.02.23.04l.06-.06-.06-.05c.08-.06.14-.13.16-.21.02-.08.03-.17.02-.25-.06-.04-.11-.09-.15-.15-.04-.06-.07-.12-.09-.18-.02-.06-.05-.13-.07-.2-.02-.07-.05-.13-.07-.2-.02-.05-.05-.09-.08-.13-.03-.04-.06-.07-.1-.12-.12-.12-.23-.25-.34-.37-.11-.12-.23-.25-.34-.37,0-.03.01-.04.04-.05.02,0,.05-.01.08-.01s.06,0,.09,0c.03,0,.06,0,.07,0Z"/>
              <path class="cls-7" d="M38.17,39.12s.03-.04.04-.03c.01,0,.02.01.04.03.01.01.02.03.03.05,0,.02.01.04.02.05l.04.19c.03.16.08.31.14.45.06.14.12.29.18.43-.02.02-.04.04-.04.07,0,.03,0,.05.02.07.01,0,.03,0,.06,0,.05,0,.09,0,.12,0s.06.01.08.02c.02.01.05.03.07.05.02.02.05.05.08.08.04.04.06.04.06-.02.04.03.06.06.06.09,0,0,0,.02,0,.04,0,0,0,.02,0,.02,0,0,.03,0,.05-.01.03-.01.04-.02.05-.02,0,0,.01,0,.03.02.02.01.03.02.05.04.02.01.04.02.06.03.02,0,.03,0,.05,0h.05s.02-.02.02,0c0,.02,0,.03,0,.03,0,0,0,.02.03.04.02.02.03.03.03.03,0,0,.01.02.02.03s0,.02.02.03c0,0,0,0,.02.02.01,0,.03.01.05.02s.03,0,.05.01c.02,0,.03,0,.03,0,.05,0,.1,0,.14.02.04.01.08.02.14.03.07.02.11.04.14.07.03.03.05.06.07.1.02.03.05.07.08.1.03.03.08.06.14.07.02,0,.03,0,.04.01,0,0,.02,0,.03,0h.01s.05.03.07.04c.02.01.04.02.05.03.02,0,.04.01.06.02.02,0,.05,0,.07,0,.01,0,.03,0,.06,0,.02,0,.05.02.08.03.02.01.05.03.07.04.02.01.04.03.06.03.02.01.04.03.06.04.02.02.04.03.06.05.12.09.24.16.36.22.17.09.34.19.5.32.03.02.06.05.09.08.03.03.07.06.1.07h.04c.08,0,.15.02.19.07.04.05.08.1.12.17.02.02.03.04.05.07.02.02.04.05.06.06.03.02.07.06.12.1.05.04.08.08.11.12,0,0,0,.04,0,.08,0,.05,0,.07,0,.08,0,0,.01.02.02.04.01.02.02.04.04.06.01.02.02.04.03.06,0,.02.01.03,0,.04-.01.02-.02.05-.02.06,0,0,0,.02.02.03,0,.01.02.02.03.03,0,.03-.01.06-.01.07,0,0,0,.02-.02.04-.02.02-.04.04-.06.06-.02.02-.04.04-.07.05s-.04.02-.04.03c-.05.03-.1.05-.16.05-.06,0-.13,0-.2,0-.07,0-.14-.02-.2-.03-.07-.01-.12-.02-.17-.04-.08-.02-.17-.04-.25-.06-.09-.02-.17-.02-.25-.02-.02,0-.04,0-.05-.01-.01,0-.02-.02-.04-.02,0,0-.02-.01-.03,0-.01,0-.02,0-.03.01-.01,0-.04,0-.07-.01-.04-.01-.08-.03-.12-.05-.04-.02-.09-.04-.12-.06-.04-.02-.07-.03-.08-.04-.15-.08-.31-.16-.47-.23-.17-.07-.32-.16-.45-.27-.08-.06-.15-.12-.22-.19-.07-.06-.15-.12-.24-.18-.03-.02-.06-.05-.07-.06-.03-.02-.06-.06-.08-.11-.02-.05-.03-.1-.02-.14,0,0-.01-.02-.04-.06-.02-.04-.04-.06-.04-.06-.05-.02-.11-.04-.17-.08-.06-.04-.11-.08-.16-.11-.03-.02-.05-.06-.06-.1-.01-.04-.02-.09-.04-.13-.01-.05-.03-.09-.05-.14s-.05-.09-.1-.12c-.03-.03-.07-.07-.12-.12-.05-.05-.08-.09-.09-.14,0-.04,0-.1-.02-.17-.02-.07-.05-.12-.09-.15-.03-.02-.08-.03-.14-.03-.03,0-.08-.01-.12-.04s-.09-.05-.11-.07c-.03-.02-.07-.04-.1-.05-.03-.01-.07-.02-.1-.04-.02,0-.04-.01-.06-.02-.02,0-.04,0-.06-.01,0,0-.02-.01-.04-.02-.02-.01-.05-.03-.08-.04-.02-.01-.05-.03-.07-.04s-.04-.01-.04,0c0,0,0,.01-.01.04,0,.02,0,.05,0,.08,0,.03,0,.05,0,.08,0,.03,0,.04,0,.04,0,.02,0,.04.02.07.01.03.03.06.04.1.02.04.03.07.05.09.02.02.03.04.04.04.05.13.07.27.07.4,0,.13.03.27.08.4.03.08.05.17.07.26.01.09.02.18.02.27,0,0,0,.02,0,.04,0,.02-.01.04-.02.07-.01.02-.02.05-.03.07,0,.02-.01.03-.01.04,0,.02-.02.04-.05.06-.02.02-.05.04-.07.05-.03.01-.05.03-.08.04-.03.01-.05.02-.07.03-.05.02-.09.04-.14.05-.05.01-.09.03-.14.03,0,0-.02,0-.05,0-.02,0-.03,0-.04,0-.11.02-.24.03-.37.03-.14,0-.26-.02-.36-.08-.03-.02-.06-.04-.1-.06-.04-.02-.07-.04-.09-.06-.02-.02-.04-.03-.05-.04-.01-.01-.03-.03-.05-.04,0,0-.02-.01-.03-.02-.01-.01-.02-.02-.02-.02-.05-.05-.09-.09-.14-.12-.05-.04-.1-.07-.15-.11-.01,0-.03-.02-.05-.04-.02-.02-.04-.03-.06-.05-.02-.02-.03-.04-.04-.06s-.01-.04,0-.06v-.06s0-.04,0-.06c.03-.02.06-.04.08-.05.02-.01.04-.02.07-.02.02,0,.05,0,.07,0,.03,0,.06,0,.1,0,.02.02.03.04.05.07.02.02.03.05.05.07,0,0,.04.02.08.04s.1.04.15.06c.06.02.11.04.16.05.05.01.08.02.1.03.11.03.22.07.32.13.11.06.2.13.28.2h.02s.06-.05.08-.07c.03-.02.05-.05.08-.07,0-.05,0-.1-.02-.14.02-.02.03-.04.05-.07.02-.02.04-.04.06-.06v-.15s0-.09,0-.12c0-.04-.01-.08-.02-.12-.01-.04-.03-.09-.06-.13,0-.02-.02-.04-.05-.08-.02-.03-.03-.06-.03-.08l-.04-.22s-.04-.07-.06-.11c-.02-.04-.04-.07-.07-.1-.01-.02-.02-.04-.03-.07s-.02-.05-.03-.07c-.06-.13-.14-.24-.23-.33-.1-.09-.19-.19-.29-.29-.07-.08-.16-.16-.26-.23-.1-.07-.19-.13-.29-.18-.07-.03-.14-.06-.22-.1-.07-.04-.14-.08-.2-.12-.04-.03-.07-.08-.09-.14-.02-.06-.04-.12-.05-.17,0-.03,0-.06.03-.09.03-.03.06-.04.09-.04.08,0,.15,0,.2,0,.05,0,.1.02.15.04.04.02.09.05.13.08.04.03.1.07.16.12l.19.14s.01,0,.02,0c0,0,.01-.01.02-.02,0,0,.02,0,.04,0s.04.01.07.02c.02,0,.05.02.07.03.02,0,.03.01.04.02,0,0,0,0,.02.01.01,0,.02.01.03.02l.04.02c.08.05.16.1.23.13.08.04.16.05.26.04.04,0,.07,0,.1.03.03.02.06.04.09.07.03.02.07.05.11.08.04.02.1.04.17.05.02,0,.03,0,.04,0,0,0,.01,0,.02,0,0,0,0,0,.01,0h.01c.08.02.16.04.22.07.06.02.13.05.22.09,0,0-.01-.02-.03-.04-.02-.02-.04-.05-.06-.08-.02-.03-.04-.06-.06-.1s-.02-.07,0-.1c0-.02.01-.05,0-.09,0-.03,0-.07-.02-.1,0-.03-.02-.06-.02-.08,0-.02,0-.03,0-.04v-.11s0-.07,0-.1c0,0,0-.02,0-.04s0-.05,0-.08c0-.03,0-.06.01-.09,0-.03.01-.05.02-.07ZM39.02,41s.04.04.07.07c.04.03.07.07.11.11.04.04.06.08.09.12.02.04.03.06.02.08l.03.05s.05.07.09.08c.04.01.08.02.12.03.04.01.08.02.12.04.04.01.07.04.09.09-.02.05-.04.09-.06.12-.01.02-.02.04-.01.06s.02.04.05.06c.03.02.07.06.12.11.13.12.26.23.4.35.13.12.26.24.4.36.08.03.17.07.26.11.09.04.17.09.26.13.09.05.19.09.3.13.11.04.23.07.35.1.12.03.24.05.36.07.12.02.23.03.34.05,0,0,.01-.02,0-.04,0-.02,0-.05-.01-.08,0-.03-.01-.05-.02-.08,0-.03-.01-.04-.02-.05,0,0,0-.01-.02-.03-.02-.02-.04-.03-.06-.05-.02-.02-.04-.04-.06-.05-.02-.01-.03-.02-.03-.02,0-.02-.02-.05-.04-.09-.02-.04-.03-.07-.03-.09,0,0-.02-.01-.05-.02-.03,0-.05,0-.06,0h-.11s-.03.01-.07,0c-.04,0-.06,0-.07,0-.02-.05-.04-.09-.06-.13-.02-.04-.04-.09-.07-.13-.04-.01-.08-.03-.12-.04-.04-.02-.08-.04-.12-.06-.16-.08-.32-.16-.47-.24-.16-.07-.31-.16-.47-.26-.12-.07-.23-.14-.35-.2-.12-.06-.24-.13-.36-.2,0,0-.02-.01-.05-.03-.02-.01-.05-.03-.07-.05-.03-.02-.05-.04-.07-.06-.02-.02-.03-.03-.03-.05,0-.02-.02-.03-.05-.04s-.05,0-.07,0c-.02,0-.05-.01-.1-.03-.05-.02-.11-.05-.16-.07-.06-.03-.11-.05-.15-.08-.05-.02-.07-.03-.07-.03Z"/>
            </g>
            <rect class="cls-7" x="34.58" y="67.22" width="1.18" height="17.15"/>
            <rect class="cls-7" x="37.41" y="63.91" width="1.18" height="17.15"/>
            <rect class="cls-7" x="34.14" y="29.86" width="4.4" height="4.4" transform="translate(-12.02 35.07) rotate(-44.98)"/>
          </g>
          <g>
            <rect class="cls-4" x="45.24" y="15.77" width="19.93" height="74.31" rx="3.13" ry="3.13"/>
            <path class="cls-2" d="M57.91,75.14c.66-.05,1.31.14,1.91.42,1.51.71,2.73,2.1,3.01,3.75.04.23.06.47-.03.68-.32.75-1.48.41-2.2.78-.67.34-.84,1.21-.79,1.96.04.75.22,1.52-.06,2.22-.24.6-.83,1.06-1.47,1.13-.99.12-1.89-.58-2.87-.79-1.34-.29-2.84.35-4.05-.3-1.03-.56-1.41-1.83-1.61-2.99-.06-.37-.11-.77.06-1.1.95-1.81,4.11-.19,5.23-1.73.51-.7.16-1.75.61-2.54.46-.81,1.33-1.41,2.27-1.48Z"/>
            <path class="cls-12" d="M59.3,67.49c.55.35.97.89,1.28,1.47.79,1.47.95,3.32.2,4.8-.1.2-.23.41-.43.53-.7.41-1.43-.55-2.24-.68-.74-.12-1.39.48-1.8,1.11-.41.63-.73,1.36-1.36,1.75-.55.34-1.29.36-1.86.03-.87-.5-1.17-1.59-1.83-2.34-.91-1.03-2.49-1.41-3.07-2.65-.5-1.06-.05-2.31.48-3.36.17-.33.37-.68.7-.85,1.84-.9,3.42,2.29,5.23,1.72.82-.26,1.17-1.31,2-1.68.85-.38,1.91-.35,2.7.16Z"/>
            <g>
              <path class="cls-1" d="M49.27,57.15h.15v.42h5.06v-.42h.15v2.33h-.15v-.42h-4.78v.03l4.92,1.15v.96l-4.94,1.35v.03h4.8v-.42h.15v1.04h-.15v-.42h-5.06v.42h-.15v-2.06l3.94-1.02-3.94-.92v-2.04Z"/>
              <path class="cls-1" d="M50.91,54.84c0-1.28.6-1.9,1.84-1.9s1.95.58,1.95,1.94c0,1.29-.69,1.94-1.88,1.94-1.25,0-1.91-.75-1.91-1.98ZM52.46,54.42c-.82,0-1.42.02-1.42.45,0,.47.6.49,1.46.49h.6c.89,0,1.46-.02,1.46-.48,0-.44-.45-.46-1.44-.46h-.65Z"/>
              <path class="cls-1" d="M54.08,50.22c.38.16.61.46.61,1.06,0,.85-.6,1.38-1.89,1.38s-1.9-.54-1.9-1.51c0-.47.14-.75.37-.89h-2.25v.47h-.14v-1.91h5.59v-.37h.14v1.7l-.53.08ZM53.58,50.23h-1.67c-.41,0-.79.16-.79.5,0,.37.45.45,1.51.45h.4c1.08,0,1.33-.09,1.33-.42,0-.22-.21-.53-.79-.53Z"/>
              <path class="cls-1" d="M50.91,46.24c0-1.2.6-1.71,1.74-1.67v2.16h.3c.9,0,1.51-.16,1.51-.9,0-.57-.36-.95-.95-1.12l.02-.14c.66.18,1.16.57,1.16,1.66,0,1.36-.78,1.97-1.89,1.97-1.32,0-1.9-.9-1.9-1.96ZM52.49,45.93h-.37c-.8,0-1.07.06-1.07.37,0,.27.26.41,1.07.41h.37v-.79Z"/>
              <path class="cls-1" d="M52.43,42.45h2.05v-.54h.14v2.39h-.14v-.42h-3.36v.42h-.14v-1.84h.73c-.54-.14-.81-.57-.81-1.03s.24-.81.82-.81c.44,0,.73.23.73.64,0,.51-.32.76-.86.6v-.28c-.31-.15-.39,0-.39.16,0,.37.55.71,1.24.71Z"/>
              <path class="cls-1" d="M50.98,38.66h.7c-.38-.13-.78-.38-.78-1.14,0-.71.35-1.19,1.28-1.19h2.3v-.43h.14v2.16h-.14v-.31h-2.48c-.65,0-.73.09-.73.28,0,.32.48.62,1.1.62h2.11v-.33h.14v2.17h-.14v-.42h-3.36v.42h-.14v-1.84Z"/>
            </g>
            <g>
              <path class="cls-1" d="M60.08,60.64v1.51l1.65.59v-.57h.15v1.17h-.15v-.36l-5.25-1.95v-.63l5.25-1.93v-.35h.15v2.5h-.15v-.54l-1.65.56ZM59.91,62.08v-1.38l-2,.67,2,.72Z"/>
              <path class="cls-1" d="M59.69,56.16h2.05v-.54h.14v2.39h-.14v-.42h-3.36v.42h-.14v-1.84h.73c-.54-.14-.81-.57-.81-1.02s.24-.81.82-.81c.44,0,.73.23.73.64,0,.51-.32.76-.86.6v-.28c-.31-.15-.39,0-.39.16,0,.37.55.71,1.24.71Z"/>
              <path class="cls-1" d="M58.38,53.84v.42h-.14v-.42h-.99l-.35-1.42h1.34v-.99h.14v.99h2.58c.45,0,.7-.07.7-.34,0-.37-.34-.6-.86-.67l.02-.13c.6.07,1.15.32,1.15,1.25,0,.76-.22,1.3-1.17,1.3h-2.41Z"/>
            </g>
          </g>
          <g>
            <rect class="cls-9" x="65.17" y="24.41" width="19.93" height="65.67" rx="3.13" ry="3.13"/>
            <path class="cls-7" d="M85.09,28.27c-5.28,2.39-11.39,2.92-17,1.42-1.02-.27-2.02-.64-2.93-1.16v6.51c2.22,1.23,4.73,1.76,7.37,1.9,4.26.23,8.55-.42,12.56-1.89v-6.78Z"/>
            <path class="cls-7" d="M75.13,46.28c-1.84,0-3.33-1.5-3.33-3.33s1.49-3.33,3.33-3.33,3.33,1.5,3.33,3.33-1.49,3.33-3.33,3.33ZM75.13,40.54c-1.33,0-2.41,1.08-2.41,2.41s1.08,2.41,2.41,2.41,2.41-1.08,2.41-2.41-1.08-2.41-2.41-2.41Z"/>
            <path class="cls-7" d="M75.13,57.79l-4.87-4.87,4.87-4.87,4.87,4.87-4.87,4.87ZM71.57,52.92l3.56,3.56,3.56-3.56-3.56-3.56-3.56,3.56Z"/>
          </g>
          <g>
            <rect class="cls-7" x="95.29" y="13.22" width="25.33" height="76.86" rx="3.13" ry="3.13"/>
            <g>
              <rect class="cls-13" x="100.24" y="24.41" width="14.34" height="10.52"/>
              <rect class="cls-3" x="101.82" y="26.42" width="11.03" height="6.94"/>
              <path class="cls-13" d="M106.37,25.4c-.7-1.45-1.27-2.97-1.7-4.52l.89-.25c.41,1.5.97,2.97,1.64,4.37l-.83.4Z"/>
              <rect class="cls-13" x="106.79" y="22.4" width="4.74" height=".93" transform="translate(58.81 122.38) rotate(-74.99)"/>
            </g>
            <rect class="cls-13" x="104.23" y="36.98" width="3.63" height="46.05"/>
            <rect class="cls-13" x="108.97" y="36.98" width="1.2" height="46.05"/>
          </g>
          <g>
            <rect class="cls-1" x="120.93" y="24.41" width="19.93" height="65.67" rx="3.13" ry="3.13"/>
            <g>
              <path class="cls-11" d="M129.27,38.39c-1.69-.13-3.02-1.55-3.78-3.07-.76-1.52-1.15-3.21-2-4.68.97,1,2.23,1.27,3.4,2.02,1.74,1.13,1.99,3.69,2.38,5.73Z"/>
              <path class="cls-11" d="M130.17,37.51c-.9-3.48.69-7.45,3.74-9.35.21,2.54.47,5.57-1.23,7.48-.7.79-1.63,1.32-2.55,1.84.27.23-.28.19.04.03Z"/>
              <path class="cls-11" d="M128.58,33.18c-1.22-1.47-1.75-3.49-1.39-5.37,1.59,1.47,1.77,3.24,1.39,5.37Z"/>
              <path class="cls-11" d="M137.81,34.83c-2.24.32-4.36,1.47-5.83,3.19,2.33.53,5.3-.86,5.83-3.19Z"/>
            </g>
            <g>
              <path class="cls-11" d="M126.93,53.85c.04-.33.14-.62.27-.87.14-.25.31-.46.51-.63.2-.17.42-.3.66-.39.24-.09.49-.13.75-.13.34,0,.66.06.95.18.29.12.55.3.77.52.22.23.39.5.52.83.13.33.19.71.19,1.13,0,.5-.12.89-.37,1.19,1,.44,1.73.97,2.19,1.58.46.61.69,1.28.69,2.01,0,.28-.05.53-.14.74-.09.21-.21.39-.36.53-.15.14-.32.25-.52.32-.2.07-.4.11-.61.11-.14,0-.28-.02-.43-.06-.14-.04-.28-.1-.41-.17-.13-.07-.25-.16-.36-.26-.11-.1-.19-.22-.25-.34-.01-.07.01-.1.08-.07.12.21.28.38.48.48.2.11.42.16.64.16.22,0,.42-.04.6-.12.19-.08.35-.19.49-.34.14-.15.25-.33.33-.54.08-.21.12-.46.12-.74,0-.34-.04-.65-.13-.94-.09-.29-.24-.55-.46-.79-.22-.24-.51-.46-.88-.67-.37-.21-.83-.41-1.38-.6-.12.08-.25.15-.39.21-.14.06-.3.11-.47.14-.03,0-.05-.02-.06-.04-.01-.02,0-.04.02-.06.29-.07.53-.17.72-.31-.23-.07-.48-.15-.77-.23-.63-.17-1.17-.36-1.63-.56-.46-.2-.83-.45-1.12-.73,0,.04-.01.09-.01.14v.15c0,.79.19,1.45.57,2,.38.54.94.92,1.68,1.14.02.02.02.04,0,.07-.02.02-.06.03-.12.03-.74-.25-1.33-.67-1.76-1.26-.43-.59-.64-1.36-.64-2.32v-.13s0-.08.01-.12c-.19-.25-.33-.55-.41-.88,0-.04.01-.06.03-.06.02,0,.04.01.06.05.04.13.08.24.14.34.06.1.12.2.21.3ZM131.32,54.39c0-.31-.05-.59-.16-.85-.1-.26-.25-.47-.43-.66-.18-.18-.39-.32-.64-.42-.24-.1-.51-.14-.79-.14-.26,0-.51.04-.74.12-.23.08-.44.19-.62.34-.18.15-.34.34-.47.57-.13.23-.22.48-.27.77.24.2.55.38.91.53.36.16.79.3,1.27.42.59.16,1.13.33,1.61.53.21-.3.32-.7.32-1.22Z"/>
              <path class="cls-11" d="M125.8,47.92c0-.19.09-.32.27-.37.18-.06.37-.03.57.07.01.01.01.03,0,.06-.01.02-.03.04-.06.04-.09-.01-.16.02-.22.09-.06.08-.09.2-.09.36,0,.32.13.63.4.94.27.31.61.61,1.04.9.43.29.9.56,1.43.81.53.25,1.05.46,1.57.64.52.18,1.01.32,1.48.43.46.1.84.16,1.13.16.22,0,.33-.06.33-.19,0-.09-.04-.18-.11-.26-.07-.09-.18-.18-.33-.29-.01-.02-.01-.04,0-.06.02-.02.04-.02.07-.02.23.15.42.31.56.49.14.18.22.33.22.46,0,.1-.04.17-.12.23-.08.06-.18.09-.32.09-.21,0-.48-.04-.81-.11-.33-.07-.7-.18-1.11-.31-.41-.13-.83-.29-1.28-.48s-.89-.39-1.33-.62c-.44-.22-.86-.46-1.26-.71-.4-.25-.75-.5-1.06-.77-.3-.26-.54-.53-.72-.79-.18-.27-.27-.53-.27-.79Z"/>
              <path class="cls-11" d="M133.36,48.34s-.01-.03,0-.06c.01-.02.04-.03.07-.02.22.16.37.31.48.46.1.15.16.28.16.38,0,.07-.03.12-.1.16-.07.04-.16.07-.27.08-.11.01-.24,0-.39-.01-.14-.02-.29-.05-.45-.09.31.2.58.41.81.63.23.22.36.44.41.64,0,.13-.06.25-.19.34s-.33.14-.61.14c-.24,0-.49-.05-.73-.15-.24-.1-.46-.24-.66-.41-.2-.17-.35-.37-.47-.59-.12-.22-.18-.46-.18-.7,0-.13.01-.25.04-.34.03-.1.07-.19.13-.27-.04-.04-.07-.11-.11-.18-.03-.08-.05-.15-.05-.22,0-.04.02-.05.06-.03.21.17.44.32.69.44.25.12.5.22.73.28.24.07.45.11.63.13.18.02.31,0,.37-.04.05-.04.05-.1,0-.2-.05-.1-.17-.22-.37-.38ZM133.68,50.28c0-.08-.06-.19-.17-.32-.11-.13-.26-.26-.45-.41-.18-.14-.39-.28-.63-.42-.23-.14-.47-.26-.71-.36-.1.03-.17.1-.23.21-.06.11-.09.23-.09.37,0,.16.04.32.13.46.09.14.2.27.36.38.15.11.33.2.54.27.21.07.44.1.69.1.16,0,.3-.03.41-.08.11-.06.16-.12.16-.21Z"/>
              <path class="cls-11" d="M133.34,44.94s-.01-.04,0-.07.04-.03.07-.02c.17.13.32.27.45.42.13.15.19.29.19.43,0,.23-.15.34-.44.34-.25,0-.53-.04-.84-.13-.31-.09-.62-.21-.93-.37-.05-.03-.1-.04-.16-.04-.08,0-.12.04-.12.11,0,.27.19.58.57.91.38.33.97.64,1.78.92.04.01.08.06.11.12.03.07.04.13.04.19,0,.08-.03.11-.1.09-.32-.13-.68-.26-1.08-.39-.4-.14-.8-.26-1.19-.36-.14-.03-.21,0-.21.08,0,.07.04.15.11.22.07.07.17.15.29.23.01.01.01.03-.01.05-.02.02-.04.02-.07.02-.13-.08-.26-.19-.39-.33-.13-.14-.2-.29-.2-.46,0-.18.13-.25.38-.19.16.03.34.07.52.12.18.05.36.11.54.17-.2-.1-.39-.23-.57-.37-.18-.14-.33-.29-.46-.44-.13-.15-.23-.3-.3-.46-.07-.15-.11-.29-.11-.43,0-.09.02-.16.07-.21.04-.05.1-.07.16-.07.1,0,.19.02.29.07.28.16.58.29.88.39.31.11.59.16.85.16.19,0,.28-.06.28-.18,0-.16-.13-.33-.39-.52Z"/>
              <path class="cls-11" d="M131.26,42.55s.04-.05.07-.04c.03,0,.05.04.06.1,0,.12.01.25.02.39,0,.14.02.29.03.44.37.15.73.27,1.07.37.34.1.62.14.84.14.25,0,.38-.1.38-.29s-.17-.4-.51-.63c-.01-.02-.01-.04,0-.07.02-.02.05-.03.08-.02.1.07.2.14.29.23.09.09.17.17.24.26.07.09.12.17.16.26.04.08.06.15.06.2,0,.16-.05.28-.15.36-.1.08-.22.12-.36.12-.24,0-.55-.05-.92-.16-.37-.1-.75-.23-1.14-.39.01.1.03.19.04.28.01.09.03.17.04.26,0,.04-.03.05-.06.03-.03-.02-.06-.05-.09-.1-.03-.05-.06-.11-.08-.17-.03-.07-.04-.13-.04-.19,0-.04-.01-.07-.01-.09v-.08c-.23-.1-.45-.21-.66-.31-.21-.1-.41-.21-.58-.31-.04-.04-.08-.09-.12-.15-.03-.06-.06-.11-.07-.16-.01-.05-.01-.09-.01-.12,0-.03.02-.04.04-.03.19.13.41.25.64.37.24.12.48.24.73.35,0-.13,0-.27,0-.4,0-.13,0-.27,0-.42Z"/>
              <path class="cls-11" d="M131.21,41.39c0-.15.02-.27.07-.37.05-.1.1-.15.16-.15.08,0,.17.02.28.05.1.03.19.07.26.11.01.02.02.04,0,.06-.01.03-.03.04-.05.03-.05-.02-.11-.04-.18-.04-.07,0-.13,0-.18.01-.15.04-.22.14-.22.31,0,.13.04.23.11.31.07.08.19.12.33.12.12,0,.23-.03.34-.09.11-.06.21-.13.32-.21.11-.08.22-.15.34-.21.12-.06.26-.09.41-.09.24,0,.44.08.6.25.16.17.24.42.24.75,0,.23-.04.42-.12.57-.08.15-.17.22-.26.22-.07,0-.17-.04-.3-.12-.13-.08-.24-.17-.32-.28-.01-.02-.01-.04.01-.06s.04-.02.07,0c.06.06.13.1.21.13.08.03.15.04.21.02.13-.02.22-.08.28-.17.06-.09.09-.2.09-.33,0-.19-.05-.34-.16-.45-.1-.11-.24-.16-.4-.16-.14,0-.27.03-.39.1-.12.07-.24.14-.36.22-.11.08-.23.15-.34.21-.11.06-.24.09-.37.09-.19,0-.36-.07-.49-.22-.13-.14-.2-.34-.2-.58Z"/>
            </g>
          </g>
          <g>
            <path class="cls-5" d="M155.56,24.42h14.13c1.6,0,2.9,1.3,2.9,2.9v59.86c0,1.6-1.3,2.9-2.9,2.9h-14.13c-1.6,0-2.9-1.3-2.9-2.9V27.32c0-1.6,1.3-2.9,2.9-2.9Z" transform="translate(-9.03 73.37) rotate(-24.76)"/>
            <g class="cls-21">
              <g>
                <path class="cls-7" d="M144.24,44.02c4.68.73,9.39-.91,13.71-2.87,2.82-1.28,5.83-3.09,6.76-6.05-.96-2.43-2.65-4.46-4.03-6.67-4.5,5.97-12.07,9.49-19.54,9.08,1.28,2.11,2.18,4.22,3.1,6.51Z"/>
                <path class="cls-7" d="M148.03,47.74c-1.04,0-2.08-.11-3.11-.39l-1.6-.43,2.3-.67.1.33c2.62.54,5.37,0,7.76-.6,2.25-.57,5.16-1.45,7.59-3.12,2.42-1.66,4.09-3.99,4.58-6.39l.91.18c-.54,2.67-2.3,5.15-4.96,6.97-2.56,1.75-5.56,2.66-7.89,3.25-1.75.45-3.7.85-5.67.85Z"/>
              </g>
            </g>
            <rect class="cls-7" x="170.68" y="75.14" width="3.78" height="5.92" transform="translate(-16.84 79.46) rotate(-24.76)"/>
          </g>
          <g>
            <rect class="cls-6" x="246.58" y="31.53" width="24.47" height="92.64" rx="3.13" ry="3.13" transform="translate(180.97 336.66) rotate(-90)"/>
            <g>
              <path class="cls-5" d="M305.92,87.21h-37.41c-.62-.21-1.23-.5-1.79-.84-1.5-.91-1.11-.65-1.64-1.24-.62-.67-1.07-1.49-1.31-2.37-.66-2.44-.88-5.08-.13-7.5.68-2.22,2.14-4.69,4.29-5.55h37.53l.47,17.5Z"/>
              <g class="cls-23">
                <path class="cls-15" d="M269.72,73.96c11.85-.47,23.71-.47,35.56,0-11.85.47-23.71.47-35.56,0h0Z"/>
              </g>
              <g class="cls-23">
                <path class="cls-15" d="M269.72,78.1c11.85-.47,23.71-.47,35.56,0-11.85.47-23.71.47-35.56,0h0Z"/>
              </g>
              <g class="cls-23">
                <path class="cls-15" d="M269.72,82.23c11.85-.47,23.71-.47,35.56,0-11.85.47-23.71.47-35.56,0h0Z"/>
              </g>
            </g>
            <g>
              <path class="cls-10" d="M215.45,73.39h1.51v3.92h1.62v-3.92h1.51v9.64h-1.51v-4.34h-1.62v4.34h-1.51v-9.64Z"/>
              <path class="cls-10" d="M221.23,73.39h1.51v9.64h-1.51v-9.64Z"/>
              <path class="cls-10" d="M224.17,82.54c-.38-.42-.56-1.02-.56-1.8v-.55h1.43v.66c0,.62.26.94.78.94.26,0,.45-.08.58-.23.13-.15.2-.4.2-.74,0-.4-.09-.76-.27-1.07-.18-.31-.52-.68-1.02-1.11-.62-.55-1.06-1.05-1.31-1.49-.25-.45-.37-.95-.37-1.51,0-.76.19-1.35.58-1.77.39-.42.94-.63,1.68-.63s1.27.21,1.64.63c.37.42.56,1.02.56,1.8v.4h-1.43v-.5c0-.33-.06-.57-.19-.72-.13-.15-.32-.23-.56-.23-.5,0-.76.31-.76.92,0,.35.09.67.28.98.19.3.53.67,1.03,1.1.63.55,1.07,1.05,1.31,1.5.24.45.36.98.36,1.58,0,.79-.19,1.4-.58,1.82-.39.42-.96.63-1.7.63s-1.29-.21-1.67-.63Z"/>
              <path class="cls-10" d="M230.17,74.77h-1.58v-1.38h4.68v1.38h-1.58v8.26h-1.51v-8.26Z"/>
              <path class="cls-10" d="M234.43,82.53c-.4-.42-.59-1.02-.59-1.79v-5.07c0-.77.2-1.37.59-1.79.39-.42.96-.63,1.71-.63s1.31.21,1.71.63c.39.42.59,1.02.59,1.79v5.07c0,.77-.2,1.37-.59,1.79-.4.42-.96.63-1.71.63s-1.31-.21-1.71-.63ZM236.92,80.84v-5.26c0-.63-.26-.95-.78-.95s-.78.32-.78.95v5.26c0,.63.26.95.78.95s.78-.32.78-.95Z"/>
              <path class="cls-10" d="M239.45,73.39h2.24c.78,0,1.35.18,1.71.54.36.36.54.92.54,1.67v.59c0,1-.33,1.63-.99,1.9v.03c.37.11.63.34.78.67.15.34.23.79.23,1.36v1.69c0,.28,0,.5.03.67.02.17.06.34.14.5h-1.54c-.06-.16-.09-.3-.11-.44-.02-.14-.03-.39-.03-.74v-1.76c0-.44-.07-.75-.21-.92-.14-.17-.39-.26-.74-.26h-.52v4.13h-1.51v-9.64ZM241.51,77.52c.3,0,.53-.08.68-.23.15-.16.23-.42.23-.78v-.74c0-.35-.06-.6-.19-.76-.12-.16-.32-.23-.59-.23h-.69v2.75h.55Z"/>
              <path class="cls-10" d="M246.16,78.92l-1.83-5.54h1.61l1.03,3.54h.03l1.03-3.54h1.47l-1.83,5.54v4.1h-1.51v-4.1Z"/>
            </g>
            <path class="cls-10" d="M259.16,78.46c0,1.8-1.46,3.25-3.25,3.25s-3.25-1.46-3.25-3.25,1.46-3.25,3.25-3.25,3.25,1.46,3.25,3.25Z"/>
          </g>
          <g>
            <g>
              <rect class="cls-16" x="253.23" y="17.68" width="17.12" height="79.13" rx="3.13" ry="3.13" transform="translate(204.54 319.04) rotate(-90)"/>
              <g>
                <path class="cls-5" d="M222.24,63.2l24.64.09c.04-.11.13-.19.21-.26.52-.46.95-1.03,1.24-1.66.31-.68.47-1.42.56-2.16.27-2.12,0-4.42-1.33-6.09-.35-.45-.91-.82-1.38-1.15h-23.98l.03,11.23Z"/>
                <g class="cls-23">
                  <path class="cls-15" d="M223.07,54.61c7.82-.47,15.67-.47,23.49,0-7.82.47-15.67.47-23.49,0h0Z"/>
                </g>
                <g class="cls-23">
                  <path class="cls-15" d="M223.07,57.25c7.82-.47,15.67-.47,23.49,0-7.82.47-15.67.47-23.49,0h0Z"/>
                </g>
                <g class="cls-23">
                  <path class="cls-15" d="M223.07,59.89c7.82-.47,15.67-.47,23.49,0-7.82.47-15.67.47-23.49,0h0Z"/>
                </g>
              </g>
            </g>
            <rect class="cls-13" x="251.64" y="53.5" width="41.13" height="3.74"/>
            <rect class="cls-13" x="262.4" y="58.92" width="29.41" height="1.87"/>
          </g>
          <g>
            <rect class="cls-7" x="186.96" y="9.21" width="19.93" height="80.87" rx="3.13" ry="3.13"/>
            <path class="cls-5" d="M201.58,21.1c0,2.56-2.08,4.64-4.64,4.64s-4.64-2.08-4.64-4.64,2.08-4.64,4.64-4.64,4.64,2.08,4.64,4.64Z"/>
            <rect class="cls-5" x="191.18" y="30.5" width="11.51" height="1.56"/>
          </g>
          <g>
            <path class="cls-4" d="M305.4,12.28h4.95c1.6,0,2.9,1.3,2.9,2.9v74.59c0,1.6-1.3,2.9-2.9,2.9h-4.94c-1.6,0-2.9-1.3-2.9-2.9V15.18c0-1.6,1.3-2.9,2.9-2.9Z" transform="translate(6.32 133.76) rotate(-24.76)"/>
            <rect class="cls-5" x="309.29" y="27.63" width="1.89" height="60" transform="translate(4.39 135.24) rotate(-24.76)"/>
          </g>
          <g>
            <rect class="cls-10" x="327.35" y="15.77" width="19.93" height="74.31" rx="3.13" ry="3.13"/>
            <polygon class="cls-6" points="337.32 24.63 339.17 30.34 345.17 30.34 340.32 33.87 342.17 39.59 337.32 36.06 332.46 39.59 334.31 33.87 329.46 30.34 335.46 30.34 337.32 24.63"/>
            <rect class="cls-6" x="331.88" y="45.04" width="10.87" height="2.2"/>
          </g>
          <g>
            <rect class="cls-1" x="350.73" width="19.93" height="90.08" rx="3.13" ry="3.13"/>
            <g class="cls-18">
              <g>
                <path class="cls-5" d="M363.65,9.75c-1.41,0-2.44-1.03-3.45-2.02-.8-.79-1.63-1.61-2.6-1.84-.9-.21-1.92.15-2.48.87-.15.2-.28.42-.41.63-.18.31-.37.63-.63.92-1.18,1.29-3.19,1.13-4.48.32-1.31-.82-2.12-2.21-2.75-3.47-.1-.2-.31-.62-.13-1.05.12-.3.46-.49.8-.47.3.02.54.22.6.5l-.9.21c.03.12.14.2.23.21.07.01.12-.07.13-.1,0,.02,0,.08.1.28.6,1.2,1.3,2.4,2.41,3.09.98.62,2.49.72,3.3-.16.2-.21.35-.48.51-.76.15-.25.3-.51.48-.74.8-1.01,2.17-1.49,3.43-1.2,1.23.29,2.15,1.2,3.04,2.09,1.02,1.01,1.9,1.88,3.06,1.74.97-.12,1.72-.96,2.51-1.85.97-1.09,1.98-2.2,3.49-2.03,1.22.15,2.01,1.12,2.71,1.98.17.2.33.41.5.6.52.58,1.34.99,1.95.96.29-.01.51-.13.67-.34l.06-.09c.14-.2.34-.51.74-.56.26-.03.5.1.63.34.12.21.16.53-.03.76-.14.18-.37.25-.6.18l.09-.32s-.05.08-.07.12l-.08.12c-.32.45-.8.7-1.38.73-1.03.06-2.09-.6-2.68-1.26-.18-.2-.35-.41-.53-.63-.65-.79-1.26-1.54-2.11-1.65-1.03-.13-1.8.73-2.69,1.72-.87.97-1.77,1.98-3.08,2.15-.13.02-.26.02-.38.02ZM376.73,7.84c-.11,0-.22.05-.3.14-.06.07-.1.19-.05.27.04.08.16.15.28.13h0s.15-.53.15-.53c-.03,0-.06-.01-.09-.01Z"/>
                <path class="cls-5" d="M361.12,17.19c-1.77,0-3.54-.88-4.5-2.4l-.09-.14c-.48-.76-.9-1.38-1.35-1.24-.19.06-.36.27-.54.5l-.14.17c-1.03,1.23-2.78,1.81-4.34,1.44-1.56-.37-2.87-1.67-3.24-3.24l.9-.21c.29,1.23,1.32,2.26,2.55,2.55,1.23.29,2.61-.17,3.42-1.14l.12-.15c.25-.31.52-.65.97-.8,1.17-.37,1.92.83,2.42,1.63l.09.14c1.09,1.72,3.57,2.46,5.41,1.6.32-.15.63-.34.96-.54.58-.36,1.19-.73,1.91-.88.97-.2,1.91.06,2.81.32.43.12.83.23,1.23.3.75.12,1.6-.08,2.08-.5.25-.22.38-.48.37-.78l-.08-3.46,1.29,4.32-.58.17c-.1.16-.24.31-.4.45-.68.59-1.82.88-2.84.71-.46-.07-.9-.2-1.33-.32-.83-.23-1.62-.45-2.38-.3-.56.11-1.07.43-1.61.76-.34.21-.69.42-1.06.59-.66.3-1.37.45-2.09.45Z"/>
                <path class="cls-5" d="M374.88,29.15c-.8,0-1.61-.21-2.28-.63-.7-.44-1.26-1.05-1.8-1.65-.77-.85-1.49-1.65-2.48-1.78-1.13-.15-2.18.62-3.29,1.44-1.29.95-2.62,1.93-4.21,1.47-.99-.29-1.64-1.05-2.27-1.78-.18-.21-.35-.41-.54-.6-.6-.63-1.76-1.27-2.45-.71-.27.22-.43.59-.59.99-.12.29-.24.6-.43.88-.43.66-1.15,1.1-2.01,1.22-1.11.16-2.33-.19-3.19-.93-1.44-1.23-2.03-3.14-2.5-4.67l.88-.27c.44,1.42.98,3.19,2.21,4.24.65.55,1.61.84,2.45.71.42-.06,1-.25,1.37-.81.14-.21.24-.46.35-.72.19-.46.41-.99.86-1.36,1.1-.88,2.69-.27,3.7.79.19.2.38.42.57.64.57.66,1.1,1.28,1.82,1.49,1.15.33,2.24-.47,3.4-1.32,1.21-.89,2.46-1.81,3.96-1.61,1.32.18,2.2,1.14,3.04,2.07.5.55,1.02,1.12,1.6,1.49,1.24.78,3.01.63,4.1-.34l.61.69c-.79.7-1.86,1.06-2.92,1.06Z"/>
              </g>
            </g>
          </g>
        </g>
      </g>
    </g>
  </g>
</svg>