<?xml version="1.0" encoding="UTF-8"?>
<svg xmlns="http://www.w3.org/2000/svg" viewBox="0 0 309 172">
  <defs>
    <style>
      .cls-1 {
        fill: #785840;
      }

      .cls-1, .cls-2, .cls-3, .cls-4, .cls-5, .cls-6, .cls-7, .cls-8, .cls-9, .cls-10, .cls-11, .cls-12, .cls-13, .cls-14 {
        stroke-width: 0px;
      }

      .cls-2 {
        fill: #f3cf6e;
      }

      .cls-3 {
        fill: #faf1b8;
      }

      .cls-15 {
        isolation: isolate;
      }

      .cls-4 {
        fill: #ee8955;
      }

      .cls-5 {
        fill: #d3a243;
      }

      .cls-6 {
        fill: #c16b38;
      }

      .cls-7 {
        fill: #cb6750;
      }

      .cls-8 {
        fill: #934842;
      }

      .cls-16 {
        opacity: .16;
      }

      .cls-17 {
        opacity: .19;
      }

      .cls-17, .cls-18 {
        mix-blend-mode: multiply;
      }

      .cls-9 {
        fill: #ffebc0;
      }

      .cls-19 {
        opacity: .53;
      }

      .cls-10 {
        fill: #702d9b;
      }

      .cls-20 {
        opacity: .73;
      }

      .cls-11 {
        fill: #6c8f6f;
      }

      .cls-12 {
        fill: #fff;
      }

      .cls-13 {
        fill: #42201c;
      }

      .cls-14 {
        fill: #9e442c;
      }

      .cls-21 {
        opacity: .59;
      }

      .cls-18 {
        opacity: .46;
      }
    </style>
  </defs>
  <g class="cls-15">
    <g id="Layer_2" data-name="Layer 2">
      <g id="OBJECTS">
        <g>
          <g>
            <g class="cls-17">
              <rect class="cls-10" x="11.96" y="135.62" width="276.7" height="19.8"/>
            </g>
            <g>
              <rect class="cls-14" x="0" y="123.89" width="309" height="14.01" rx="7.01" ry="7.01"/>
              <path class="cls-14" d="M11.07,168.64c1.2,2.02,3.54,4.25,5.53,3,1.18-.75,1.42-2.34,1.53-3.73.64-8.05.78-16.13.43-24.2-.4-9.32-10.93-19.36-16.56-7.21-3.96,8.55,4.92,25.17,9.07,32.14Z"/>
              <path class="cls-14" d="M295.5,168.64c-1.2,2.02-3.54,4.25-5.53,3-1.18-.75-1.42-2.34-1.53-3.73-.64-8.05-.78-16.13-.43-24.2.4-9.32,10.93-19.36,16.56-7.21,3.96,8.55-4.92,25.17-9.07,32.14Z"/>
              <g class="cls-18">
                <path class="cls-10" d="M1.77,147.52h16.9c-.03-1.27-.05-2.54-.11-3.81-.11-2.5-.95-5.04-2.22-7.21H2c-1.37,2.95-1.2,6.87-.23,11.02Z"/>
              </g>
              <g class="cls-18">
                <path class="cls-10" d="M288.01,143.7c-.05,1.27-.08,2.54-.11,3.81h16.9c.97-4.15,1.14-8.07-.23-11.02h-14.34c-1.27,2.16-2.11,4.71-2.22,7.21Z"/>
              </g>
            </g>
          </g>
          <g>
            <g>
              <polygon class="cls-3" points="257.55 124.46 218.78 124.46 213.72 56.09 262.6 56.09 257.55 124.46"/>
              <g class="cls-19">
                <path class="cls-2" d="M218.78,124.46h38.5c-2.8-3.62-8.09-3.78-12.67-3.89-6.76-.16-14.1-1.19-18.83-6.04-5.06-5.19-5.66-13.12-6.38-20.34-.84-8.55-2.25-17.03-3.82-25.46-.63-3.35-.3-8.81-1.29-12.64h-.56l5.06,68.37Z"/>
              </g>
              <g class="cls-19">
                <path class="cls-2" d="M227.33,80.75s.03.06.04.09c1.53-2.65,3.35-5.13,5.41-7.39-1.6,3.63-3.22,7.53-2.8,11.42,2.28,2.77,5.24,4.96,8.55,6.61.72-2.04,1.81-3.83,3.35-5.39-.66,2.29-.48,4.81.46,7,3.12,1.11,6.41,1.81,9.66,2.13,2.62-3.46,3.93-8.31,3.86-12.66-.04-2.04-.32-4.06-.78-6.04-2.03-1.72-4.37-3.08-6.88-3.96-.44-.16-.92-.3-1.37-.18,1.74-1.57,4.32-2.07,6.56-1.41-.13-.36-.27-.71-.41-1.07-.93-2.35-2.02-4.67-3.6-6.64-4.97-6.21-14.87-6.02-22.72-7.21-1.66,8.22-2.99,17.15.67,24.69ZM242.32,65.73c.76-.14,1.55,0,2.3.19.52.13,1.07.29,1.43.68.37.39.46,1.09.05,1.44-.15-.07-.3-.14-.45-.2-1.68.58-3.63.3-5.07-.74.23-.74.97-1.24,1.73-1.38ZM236.14,76.26c.19-.22.4-.43.67-.51.76-.22,1.35.71,1.47,1.49.19,1.32-.16,2.7-.95,3.77-.07.67-.83,1.19-1.51,1.06-.75-.14-1.29-.87-1.4-1.63-.11-.76.12-1.52.44-2.21.33-.71.76-1.37,1.27-1.97Z"/>
              </g>
            </g>
            <g>
              <path class="cls-11" d="M239.19,58.56l-2.27-.63c1.81-6.55,7.75-11.85,14.46-12.87l1.97-.3-1.05,2.82-.58-.21v.02c-5.82.89-10.98,5.48-12.55,11.17Z"/>
              <path class="cls-11" d="M232.67,64.19c-.26-8.53,1.65-17.06,5.54-24.66l1.54-3,1.03,5.14-1.11.22c-3.28,6.91-4.88,14.56-4.65,22.22l-2.35.07Z"/>
              <g>
                <path class="cls-11" d="M223.72,30.02s-.05-.04-.08-.06c-.21,3.05-.75,6.08-1.61,9.02-.16-3.96-.42-8.18-2.51-11.49-3.27-1.48-6.89-2.14-10.58-2.16.25,2.15.06,4.23-.64,6.32-.41-2.35-1.69-4.53-3.49-6.08-3.29.38-6.55,1.2-9.61,2.35-.83,4.27.12,9.19,2.1,13.07.93,1.81,2.07,3.5,3.35,5.08,2.58.65,5.28.83,7.92.52.47-.06.96-.14,1.31-.44-.88,2.18-2.97,3.76-5.27,4.16.28.26.55.52.83.78,1.87,1.7,3.87,3.3,6.16,4.37,7.18,3.38,16-1.16,23.57-3.55-2.12-8.12-4.85-16.72-11.45-21.87ZM216.86,50.12c-.62.46-1.39.68-2.15.84-.52.11-1.08.21-1.59.02-.5-.19-.89-.78-.68-1.27.16,0,.33-.01.49-.02,1.25-1.26,3.12-1.87,4.87-1.57.12.77-.33,1.54-.95,2ZM217.79,37.93c-.07.28-.17.56-.38.75-.59.53-1.53-.04-1.97-.69-.75-1.1-1.04-2.49-.81-3.8-.23-.63.22-1.43.89-1.61.74-.2,1.54.22,1.97.84.43.63.56,1.42.57,2.18.01.78-.08,1.57-.28,2.33Z"/>
                <g class="cls-16">
                  <path class="cls-2" d="M197.18,30.06c5.6,4.35,11.35,9.03,17.54,12.49,3.12,1.76,6.39,3.23,9.82,4.29,1.71.54,3.45,1.03,5.12,1.73,1.66.71,3.27,1.62,4.5,2.95-2.69-2.49-6.34-3.26-9.76-4.25-3.48-.98-6.81-2.47-9.97-4.21-6.28-3.59-11.86-8.21-17.25-13h0Z"/>
                  <path class="cls-2" d="M209.63,39.65c-.09-2.34-.32-4.48-.7-6.79,1.16,2.01,1.42,4.58.7,6.79h0Z"/>
                  <path class="cls-2" d="M207.1,37.76c-2.27,2.2-6.03,2.88-8.92,1.58,3.12.44,6.14-.09,8.92-1.58h0Z"/>
                  <path class="cls-2" d="M213.78,42.44c0-.98.19-1.73.65-2.59.36.91.09,1.96-.65,2.59h0Z"/>
                  <path class="cls-2" d="M216.11,43.97c-.93,1.37-2.66,2.19-4.31,2.05,1.51-.69,2.82-1.31,4.31-2.05h0Z"/>
                  <path class="cls-2" d="M222.81,46.26c-.44-1.53-.29-3.18.4-4.61.1,1.59-.03,3.06-.4,4.61h0Z"/>
                  <path class="cls-2" d="M226.8,47.86c-.31-2.83-.5-5.58-.57-8.43.87,2.71,1.06,5.63.57,8.43h0Z"/>
                  <path class="cls-2" d="M224.58,47.23c-.63,1.24-1.8,2.16-3.15,2.46.96-1.02,1.93-1.78,3.15-2.46h0Z"/>
                </g>
              </g>
              <g>
                <path class="cls-11" d="M246.64,29.64c1.15-.51,2.9-.25,4.23-.41,1.68-.19,3.36-.56,4.98-1.06.04-.09.08-.18.11-.27.67-1.8,1.06-3.65,1.23-5.51-2.73-.44-7.56-1.96-8.12-2.3,2.84-.51,5.5-.82,8.1-1.95-.6-6.48-3.68-12.92-7.74-18.14-3.23.36-6.52,1.79-9.26,3.77,1.82,1.44.56,6.94,3.69,8.83-2.34-1.41-5.49-3.26-7.08-5.8-1.31,1.42-2.47,2.98-3.5,4.63,1.44,1.33,1.57,6.49,3.78,7.02-1.41-.34-2.62-1.29-3.52-2.43-.29-.37-.92-1.56-1.36-2.7-.62,1.12-1.19,2.26-1.73,3.42-.49,1.06-.95,2.15-1.33,3.25,1.04,2.52,2.15,5.01,3.64,7.29,1.81,2.76,4.24,5.21,7.28,6.5-1.99.35-3.17-.1-4.83-1.25-2.72-1.89-5.11-4.43-7.18-7.14-.1,7.3,6.29,13.9,10.55,20.02,6.36-4,12.93-8.59,16.33-15.16-2.27.07-6.54.7-8.27-.61ZM247.4,13.13c.52-1,2.05-1.29,2.89-.53.12.11.23.24.27.39.08.28-.08.58-.27.8-.6.7-1.64.98-2.51.68l.1-.04c-.22,0-.45-.12-.56-.32-.16-.3-.09-.68.06-.98ZM240.81,27.09c-.29.19-.68.12-1.01.03-1.23-.34-2.46-1.15-2.96-2.27l.08.36c-.34-.7-.69-1.46-.61-2.23.08-.78.8-1.54,1.56-1.37.34.08.62.32.89.55,1.21,1.07,2.53,2.37,2.48,3.99-.01.36-.12.75-.42.94Z"/>
                <g>
                  <g class="cls-16">
                    <path class="cls-2" d="M237.19,44.24c8.98-11.75,6.79-27.37,10.18-41.01.14-.58.31-1.15.47-1.73.09-.28.46-.51.74-.4.05.05.01.12-.01.17.02-.05.05-.12,0-.16-.04-.03-.11-.03-.16-.02-.41.09-.52.38-.58.77-.1.46-.22.93-.3,1.39-2.78,13.7-.67,29.63-10.33,40.97h0Z"/>
                  </g>
                  <g class="cls-16">
                    <path class="cls-2" d="M245.26,21.17c-1.62-1.93-3.17-3.72-4.83-5.6,2.18,1.24,3.93,3.27,4.83,5.6h0Z"/>
                  </g>
                  <g class="cls-16">
                    <path class="cls-2" d="M242.01,35.84c2.19.27,4.19.14,6.33-.37-1.78,1.3-4.41,1.45-6.33.37h0Z"/>
                  </g>
                  <g class="cls-16">
                    <path class="cls-2" d="M244.62,27.15c1.72-.42,3.26-.78,4.99-1.16-1.36,1.12-3.28,1.57-4.99,1.16h0Z"/>
                  </g>
                </g>
              </g>
              <g>
                <path class="cls-11" d="M285.4,27.23c-1.74.46-3.46,1.02-5.04,1.88-2.35,1.27-4.42,3.29-5.16,5.86.14-2.19.72-4.39,1.94-6.22.82-1.22,1.86-2.2,3.02-2.87-2.98-.46-6.03-.5-9.05-.3-2.52.16-5.06.49-7.42,1.39-7.42,2.82-10.3,12.32-13.86,19.43,5.28,2.99,10.97,5.91,16.85,6.86-1.58-2.01-2.36-4.65-2.03-7.19.65,1.85,1.31,3.28,2.08,5.09.39.92.91,1.69,1.57,2.31,1.71.16,3.42.16,5.16-.09,3.19-.45,6.13-1.64,8.78-3.36-4.28-.26-8.4-2.97-10.14-6.92,1.66,1.98,4.35,2.58,6.9,2.98,2.55.41,5.15.2,7.73,0,.03.08.04.17.06.26,3.4-3.38,6.12-7.61,8.03-12-2.2-3.17-5.75-5.69-9.43-7.1ZM267.89,35.86c-.48.62-1.11,1.13-1.5,1.81-.58.99-.69,2.34-1.65,2.97-.37-.18-.36-.72-.12-1.02l-.03.02c.31-1.9,1.11-3.72,2.3-5.24.36-.46.92-.94,1.46-.73.33.71.01,1.57-.47,2.19ZM286.99,42.36c-2.28.4-6.32.88-8.28-.47.99-.82,8.4-1.27,9.08-.47.33.38-.31.85-.8.94Z"/>
                <g>
                  <g class="cls-16">
                    <path class="cls-2" d="M250,46.39c15.24,1.68,26.92-14.26,39.73-13.49,2.03.2,4.06.91,5.6,2.26-1.62-1.24-3.62-1.86-5.62-1.97-12.54-.38-24.45,15.68-39.7,13.2h0Z"/>
                  </g>
                  <g class="cls-16">
                    <path class="cls-2" d="M270.98,39.64c-.4-2.5.29-5.22,1.83-7.23-.81,2.41-1.4,4.72-1.83,7.23h0Z"/>
                  </g>
                  <g class="cls-16">
                    <path class="cls-2" d="M259.11,45.44c-.05-2.53,1.3-5.21,3.47-6.55.09-.03.25,0,.29.12.03.09-.05.24-.14.19.1.02.09-.11.06-.16-.17-.12-.33.22-.46.35-1.51,1.78-2.52,3.8-3.21,6.05h0Z"/>
                  </g>
                  <g class="cls-16">
                    <path class="cls-2" d="M267.11,41.98c1.5,2.62,3.09,5.33,6.18,6.2-3.3.02-5.51-3.29-6.18-6.2h0Z"/>
                  </g>
                </g>
              </g>
              <g>
                <path class="cls-11" d="M235.19,78.92s.04.05.06.08c1.09-2.86,2.49-5.6,4.18-8.15-1,3.84-1.99,7.95-.96,11.72,2.69,2.38,5.96,4.07,9.48,5.17.39-2.13,1.18-4.07,2.46-5.85-.29,2.37.29,4.82,1.56,6.84,3.25.6,6.62.77,9.87.58,2.04-3.84,2.57-8.83,1.81-13.11-.36-2.01-.96-3.95-1.72-5.84-2.28-1.38-4.8-2.34-7.42-2.82-.46-.08-.95-.15-1.38.04,1.47-1.82,3.94-2.73,6.26-2.43-.19-.33-.37-.66-.57-.99-1.29-2.17-2.74-4.29-4.61-5.99-5.88-5.34-15.63-3.58-23.57-3.52-.35,8.38-.25,17.4,4.56,24.27ZM247.62,61.71c.73-.26,1.53-.24,2.3-.17.53.04,1.1.12,1.52.45s.62,1,.28,1.42c-.16-.04-.32-.09-.48-.13-1.56.84-3.53.88-5.12.08.11-.77.76-1.38,1.49-1.64ZM243.18,73.1c.15-.24.32-.49.58-.61.72-.34,1.45.48,1.68,1.24.39,1.27.26,2.69-.34,3.87.04.67-.63,1.3-1.32,1.28-.76-.02-1.41-.66-1.64-1.39-.23-.73-.12-1.52.09-2.26.22-.75.54-1.48.95-2.14Z"/>
                <g class="cls-16">
                  <path class="cls-2" d="M260.58,86.67c-4.09-5.8-8.21-11.97-13.12-17.09-2.46-2.6-5.17-4.97-8.13-6.98-1.47-1.02-3-2-4.39-3.16-1.38-1.16-2.66-2.51-3.44-4.15,1.84,3.17,5.11,4.98,8.09,6.93,3.04,1.96,5.79,4.36,8.31,6.95,4.96,5.27,8.94,11.34,12.7,17.49h0Z"/>
                  <path class="cls-2" d="M251.48,73.85c-.59,2.26-1.01,4.38-1.31,6.7-.52-2.27-.02-4.8,1.31-6.7h0Z"/>
                  <path class="cls-2" d="M253.35,76.4c2.81-1.44,6.61-.98,8.99,1.1-2.86-1.34-5.9-1.71-8.99-1.1h0Z"/>
                  <path class="cls-2" d="M248.32,69.96c-.29.94-.68,1.6-1.38,2.29-.07-.97.49-1.9,1.38-2.29h0Z"/>
                  <path class="cls-2" d="M246.55,67.82c1.29-1.03,3.18-1.32,4.72-.7-1.65.21-3.08.42-4.72.7h0Z"/>
                  <path class="cls-2" d="M240.81,63.66c-.03,1.59-.65,3.13-1.73,4.29.37-1.55.92-2.92,1.73-4.29h0Z"/>
                  <path class="cls-2" d="M237.46,60.95c-.53,2.8-1.15,5.48-1.92,8.22-.04-2.84.63-5.69,1.92-8.22h0Z"/>
                  <path class="cls-2" d="M239.4,62.21c.96-1,2.35-1.53,3.73-1.43-1.21.7-2.37,1.13-3.73,1.43h0Z"/>
                </g>
              </g>
            </g>
          </g>
          <g>
            <polygon class="cls-13" points="145.04 78.37 139.07 124.17 147.58 124.17 149.87 90.59 145.04 78.37"/>
            <g>
              <polygon class="cls-8" points="184.15 125.3 147.29 125.3 140.75 65.3 177.62 65.3 184.15 125.3"/>
              <polygon class="cls-3" points="181.28 121.99 150.3 121.99 144.72 68.75 175.7 68.75 181.28 121.99"/>
            </g>
            <g class="cls-19">
              <path class="cls-2" d="M173.48,107.99c-1.3-.7-2.39-2.01-2.36-3.48.02-.98.52-1.88.87-2.8,1.18-3.05.69-6.77-1.46-9.23-2.8-3.21-8.24-3.63-11.5-.88s-3.77,8.19-1.1,11.5c1.24,1.54,3.15,3.54,1.92,5.09-.7.88-2.01.88-3.13.93-2.22.11-5.17,1.08-7.49,2.7l1.07,10.17h30.98l-1.27-12.11c-.76-.24-1.54-.45-2.31-.63-1.44-.32-2.92-.56-4.22-1.26Z"/>
            </g>
            <g class="cls-21">
              <polygon class="cls-12" points="144.72 68.75 179.76 107.48 177.88 89.49 153.63 68.47 144.72 68.75"/>
            </g>
          </g>
          <g>
            <rect class="cls-7" x="21.01" y="50.78" width="19.89" height="74.3" rx="3.13" ry="3.13"/>
            <ellipse class="cls-4" cx="30.96" cy="87.93" rx="7.35" ry="7.37"/>
            <g class="cls-20">
              <polygon class="cls-3" points="30.96 66.4 32.26 70.43 36.48 70.43 33.07 72.92 34.37 76.94 30.96 74.45 27.54 76.94 28.84 72.92 25.43 70.43 29.65 70.43 30.96 66.4"/>
            </g>
            <g class="cls-20">
              <rect class="cls-3" x="30.71" y="88.59" width="1.9" height="23.65"/>
            </g>
          </g>
          <g>
            <rect class="cls-1" x="46.44" y="35.02" width="19.89" height="90.07" rx="3.13" ry="3.13"/>
            <rect class="cls-9" x="53.68" y="44.3" width="2.7" height="53.57"/>
            <rect class="cls-9" x="60" y="44.3" width="2.7" height="53.57"/>
          </g>
          <g>
            <rect class="cls-5" x="66.33" y="48.24" width="25.29" height="76.85" rx="3.13" ry="3.13"/>
            <g>
              <path class="cls-7" d="M75.04,56.74c0-.19.03-.39.17-.52.29-.27.74.03.99.33.48.59.84,1.26,1.08,1.98-.18-.69-.25-1.45.07-2.08.33-.63,1.18-1.01,1.77-.63.61.4.6,1.29.46,2.01.44-1.02,1.53-1.71,2.64-1.66.47.02.98.21,1.15.65.18.47-.12.99-.49,1.33-.39.36-.87.62-1.38.75.81-.27,1.76-.33,2.47.15.71.48.96,1.63.32,2.2-.25.22-.6.32-.93.32-.54.01-1.09-.21-1.48-.59.6.56.96,1.38.96,2.21,0,.49-.16,1.03-.59,1.27-.52.28-1.19-.04-1.51-.54-.32-.5-.36-1.11-.41-1.7.27.95-.03,2.05-.75,2.73-.23.22-.51.4-.82.47-.61.14-1.31-.2-1.56-.77-.26-.58-.05-1.32.46-1.69-.67.34-1.46.53-2.19.34s-1.37-.84-1.38-1.6c.53-.35,1.21-.45,1.82-.28-1.1.33-2.39-.49-2.57-1.62-.02-.12-.03-.25.03-.37.33-.66,1.4-.04,1.76-.45.38-.43-.11-1.69-.09-2.24Z"/>
              <path class="cls-5" d="M80.65,60.57c0,.92-.74,1.66-1.66,1.66s-1.66-.74-1.66-1.66.74-1.66,1.66-1.66,1.66.74,1.66,1.66Z"/>
            </g>
            <g>
              <path class="cls-7" d="M72.04,95.23c0,.81.02,1.72.09,2.59.62.04,1.76.05,2.37.07-.1-.74-.18-1.43-.18-2.22l1.35-.25c.02.81.07,1.65.17,2.48,1.07,0,2.29-.01,3.38-.05l-.18,1.66c-1,.01-2.11.03-3.11.03-1.45,0-3.69-.1-5.08-.2-.26-1.7-.32-3.08-.32-4.12h1.51Z"/>
              <path class="cls-7" d="M70.11,92.8c1.87.11,3.9.19,5.99.19,1.05,0,2.11,0,3.12-.06l-.14,1.45c-.96.04-1.99.05-2.99.05-2.09,0-4.24-.07-6.1-.18l.11-1.44Z"/>
              <path class="cls-7" d="M73.18,89.82c0-1.53,1.55-1.96,2.72-1.96,1.6,0,3.42.67,3.42,2.08,0,1.06-.53,2.06-2.64,2.06-1.33,0-3.49-.57-3.49-2.18ZM78.17,89.95c0-.38-1.38-.64-2.4-.64-.63,0-1.45.11-1.45.52,0,.49,1.62.74,2.46.74,1.12,0,1.39-.31,1.39-.62Z"/>
              <path class="cls-7" d="M79.04,84c-.9.21-1.73.39-2.51.56.79.22,1.62.48,2.64.81l-.14,1.28c-2.32.48-4.21.8-5.74.92l.14-1.41c1.51-.11,2.78-.21,4.11-.39-1.32-.33-2.57-.6-4.01-.89l.09-.95c1.32-.1,2.43-.23,3.61-.46-1.41-.36-2.79-.64-4.38-.95l.12-1.33c1.76.37,3.91.95,6.16,1.64l-.1,1.16Z"/>
              <path class="cls-7" d="M77.02,79.63c.68-.05,1.08-.26,1.08-.49,0-.42-.5-.76-.9-1l.55-.94c.64.36,1.49.92,1.49,2.06,0,.99-.89,1.84-2.43,1.84s-3.69-.52-3.69-2.23c0-1.8,2.47-1.77,3.41-1.79.17.62.38,1.75.49,2.55ZM76.13,79.6c-.07-.37-.16-.76-.26-1.13-.77,0-1.54.11-1.54.39,0,.38.89.69,1.8.74Z"/>
              <path class="cls-7" d="M74.69,73.44c-.09.12-.13.3-.13.49,0,.38.54.63,1.3.78.43-.01.86-.02,1.3-.02.69,0,1.38.01,2.11.05l-.12,1.43c-.6-.01-1.19-.04-1.99-.04-1.3,0-2.55.05-3.48.22l.1-.92c.25-.06.44-.12.63-.2-.79-.37-1.29-.81-1.29-1.22,0-.36.2-.68.44-.89l1.13.32Z"/>
              <path class="cls-7" d="M75.12,70.24c-.55,0-.74.2-.74.37,0,.25.26.49.6.49.48,0,.66-.11.98-.6.28-.51.79-1.37,1.67-1.37,1.07,0,1.61.9,1.61,1.72,0,.89-.58,1.6-1.23,2l-.75-.66c.44-.26.85-.64.85-1.04,0-.22-.13-.46-.39-.46s-.54.25-.73.57c-.36.65-.81,1.29-1.83,1.29-1.09,0-1.99-1.03-1.99-1.95s.69-1.53,1.8-1.53c.22,0,.46.02.71.07l-.1,1.12c-.18-.02-.34-.04-.47-.04Z"/>
            </g>
            <rect class="cls-7" x="83.43" y="68.75" width="1.18" height="31.67"/>
          </g>
          <g>
            <path class="cls-6" d="M125.19,121.11l-13.57,3.86c-1.54.44-3.14-.46-3.57-2l-16.32-57.58c-.44-1.54.46-3.15,1.99-3.58l13.57-3.86c1.54-.44,3.14.46,3.57,2l16.32,57.58c.44,1.54-.46,3.15-1.99,3.58Z"/>
            <g class="cls-20">
              <path class="cls-3" d="M105.98,68.45c-.46.1-.88.23-1.3.37-.37.12-.72.25-1.09.38l.04.14c.25.76.55,1.61.85,2.42l-1.51.39c-.3-.81-.57-1.57-.82-2.33l-.02-.05c-.06.03-.11.05-.17.07-.64.26-1.32.53-2.02.79l-.48-1.25c.7-.25,1.34-.51,1.97-.78.09-.03.19-.07.28-.11-.27-.94-.51-1.83-.69-2.66l1.52-.36c.17.77.38,1.6.64,2.45.37-.13.72-.26,1.07-.37.51-.17.99-.31,1.45-.42l.27,1.32Z"/>
            </g>
            <g class="cls-20">
              <path class="cls-3" d="M117.62,112.17c-.4-.25-.79-.46-1.19-.65-.35-.17-.69-.33-1.04-.49l-.06.13c-.36.72-.74,1.53-1.09,2.32l-1.35-.78c.36-.79.69-1.52,1.05-2.23l.02-.05c-.06-.02-.11-.04-.16-.07-.63-.27-1.31-.55-1.99-.85l.53-1.22c.67.31,1.31.58,1.95.83.09.04.18.08.28.11.46-.86.92-1.66,1.37-2.38l1.33.81c-.42.67-.85,1.41-1.26,2.2.35.16.69.32,1.02.48.48.24.93.48,1.32.72l-.73,1.12Z"/>
            </g>
            <g class="cls-20">
              <path class="cls-3" d="M109.49,83.01c-.38.09-.76.19-1.11.3-1.05.35-2.18.9-3.31,1.27l-.88-1.93c1.2-.39,2.38-.97,3.53-1.34.37-.12.71-.21,1.03-.28l.73,1.97Z"/>
            </g>
            <g class="cls-20">
              <path class="cls-3" d="M107.46,97.32c2.58-1.32,5.06-2.45,7.4-3.06l.32.69c-2.41.65-4.68,1.71-7.24,3.04l-.49-.66ZM111.42,92.29c.79.51.64,1.4.11,2.21-.52.81-1.56,1.19-2.11.83-.7-.46-.79-1.24-.31-1.98.55-.85,1.59-1.53,2.31-1.06ZM109.92,94.57c.17.11.58-.15.86-.57.27-.41.39-.81.16-.96-.23-.15-.74.33-1.05.81-.19.28-.18.58.04.72ZM112.86,96.86c.79.51.64,1.4.11,2.21-.52.81-1.56,1.19-2.11.83-.7-.46-.79-1.25-.31-1.98.55-.85,1.59-1.53,2.31-1.06ZM111.36,99.14c.17.11.58-.15.86-.57.27-.41.39-.81.16-.96-.23-.15-.74.33-1.05.81-.19.29-.18.57.04.72Z"/>
            </g>
          </g>
        </g>
      </g>
    </g>
  </g>
</svg>