<svg xmlns="http://www.w3.org/2000/svg" viewBox="0 0 514.04 214.98"><defs><style>.cls-1{fill:#d89e8c;}.cls-2{fill:#fff;}.cls-3{fill:#f4e9e5;}.cls-4{fill:#eedfd6;}.cls-5{fill:#645880;}.cls-6{fill:#bc7b72;}</style></defs><title>Asset 34</title><g id="Layer_2" data-name="Layer 2"><g id="Layer_1-2" data-name="Layer 1"><path class="cls-1" d="M505.1,12.59H4.72V25.78A10.54,10.54,0,0,1,15.23,36.29,10.5,10.5,0,0,1,4.72,46.8V56.91A10.5,10.5,0,0,1,15.23,67.42,10.41,10.41,0,0,1,12.9,74a10.48,10.48,0,0,1-8.18,3.92V88a10.52,10.52,0,0,1,10.35,8.72,10.57,10.57,0,0,1,.16,1.8A10.52,10.52,0,0,1,4.72,109.07v10.09a10.5,10.5,0,0,1,10.21,8h0a10.66,10.66,0,0,1,.3,2.48A10.49,10.49,0,0,1,12.3,137h0a10.47,10.47,0,0,1-6.57,3.18c-.33,0-.67,0-1,0v10.09a10.39,10.39,0,0,1,3.79.72,10.52,10.52,0,0,1-3.79,20.32v10.1a10.5,10.5,0,0,1,9.9,7,10.31,10.31,0,0,1,.61,3.48A10.51,10.51,0,0,1,4.72,202.46V215H514V202.46a10.52,10.52,0,0,1,0-21v-10.1a10.38,10.38,0,0,1-5.44-1.53,10.49,10.49,0,0,1-5.08-9l0-.33a10.51,10.51,0,0,1,10.32-10.19H514V140.2a10.4,10.4,0,0,1-5.72-1.7,9.07,9.07,0,0,1-1-.77,10.22,10.22,0,0,1-3.81-8A10.52,10.52,0,0,1,514,119.16V109.07a10.5,10.5,0,0,1-10.39-9,9.29,9.29,0,0,1-.13-1.5,10.49,10.49,0,0,1,2.3-6.55,6.4,6.4,0,0,1,.42-.49A10.48,10.48,0,0,1,514,88V77.93a10,10,0,0,1-3.59-.65c-.2-.07-.39-.17-.59-.26a10.42,10.42,0,0,1-6.24-8.36c0-.41-.1-.82-.1-1.24A10.51,10.51,0,0,1,514,56.91V46.8a10.51,10.51,0,1,1,0-21v-.23h0v-13Z"/><polygon class="cls-2" points="118.16 137.03 140.32 143.01 140.32 143 140.32 143.01 146.3 120.84 124.14 114.86 118.16 137.03"/><path class="cls-2" d="M103.49,109.29l20.65,5.57Z"/><polygon class="cls-2" points="178.5 83.61 157.85 78.03 163.43 57.39 163.42 57.39 157.85 78.04 178.5 83.61"/><path class="cls-2" d="M317.53,167.05l8.94,2.41Z"/><polygon class="cls-2" points="340.63 81.43 343.49 70.84 340.63 81.43 355.49 85.44 340.63 81.43"/><polygon class="cls-2" points="318.47 75.45 318.47 75.45 312.49 97.62 334.65 103.6 340.63 81.43 318.47 75.45"/><polygon class="cls-2" points="146.3 120.84 151.87 100.2 151.87 100.2 146.3 120.84 166.95 126.41 166.95 126.41 146.3 120.84"/><polygon class="cls-2" points="91.94 152.1 69.78 146.12 63.8 168.28 85.96 174.26 91.94 152.1 91.94 152.1"/><rect class="cls-2" x="346.34" y="132.41" width="22.96" height="22.96" transform="translate(125.67 451.85) rotate(-74.9)"/><polygon class="cls-2" points="383.44 92.99 383.44 92.99 361.28 87 355.3 109.17 377.46 115.15 383.44 92.99"/><polygon class="cls-2" points="237.49 123.3 237.49 123.3 258.13 128.87 252.56 149.52 258.13 128.87 237.49 123.3"/><polygon class="cls-2" points="323.1 146.4 323.1 146.4 343.74 151.97 338.17 172.62 343.74 151.97 323.1 146.4"/><polygon class="cls-2" points="97.51 131.45 97.51 131.45 118.16 137.03 112.59 157.67 112.59 157.67 118.16 137.03 97.51 131.45"/><rect class="cls-2" x="132.3" y="74.65" width="22.96" height="22.96" transform="translate(23.17 202.51) rotate(-74.9)"/><path class="cls-2" d="M274.72,155.5l8.95,2.41Z"/><polygon class="cls-2" points="225.94 166.11 231.91 143.95 209.75 137.97 203.77 160.13 225.93 166.11 225.93 166.11 225.94 166.11"/><path class="cls-2" d="M200,174.25l3.81-14.12Z"/><polygon class="cls-2" points="86.9 82.67 86.9 82.67 109.07 88.65 115.05 66.48 92.88 60.5 86.9 82.67"/><rect class="cls-2" x="272.28" y="66.5" width="22.96" height="22.96" transform="translate(134.54 331.61) rotate(-74.9)"/><polygon class="cls-2" points="129.71 94.22 126.8 105.01 129.71 94.22 109.07 88.65 129.71 94.22"/><polygon class="cls-2" points="303.4 49.24 324.04 54.81 324.04 54.81 303.4 49.24 297.82 69.88 303.4 49.24"/><polygon class="cls-2" points="60.69 97.74 66.26 77.1 66.26 77.1 60.69 97.74 81.33 103.31 81.33 103.31 60.69 97.74"/><polygon class="cls-2" points="81.33 103.31 75.35 125.47 75.35 125.47 75.35 125.47 97.51 131.45 103.5 109.29 81.33 103.31"/><polygon class="cls-2" points="280.29 134.85 280.29 134.85 300.94 140.42 295.37 161.07 295.37 161.07 300.94 140.42 280.29 134.85"/><polygon class="cls-2" points="221.3 95.16 221.3 95.16 200.66 89.59 206.23 68.94 206.23 68.94 200.66 89.59 221.3 95.16"/><polygon class="cls-2" points="160.96 148.58 155.39 169.22 155.4 169.22 160.97 148.58 146.76 144.74 160.96 148.58"/><rect class="cls-2" x="163.56" y="129.01" width="22.96" height="22.95" transform="translate(-6.2 272.88) rotate(-74.9)"/><polygon class="cls-2" points="226.88 74.51 249.04 80.49 255.02 58.33 232.86 52.35 232.86 52.35 226.87 74.51 226.88 74.51 226.88 74.51"/><rect class="cls-2" x="392.41" y="70.99" width="21.38" height="21.38" transform="matrix(0.26, -0.97, 0.97, 0.26, 219.22, 449.58)"/><polygon class="cls-2" points="183.13 154.56 179.05 169.67 183.13 154.56 183.13 154.56"/><rect class="cls-2" x="432.43" y="92.86" width="21.38" height="21.38" transform="translate(227.7 504.39) rotate(-74.9)"/><polygon class="cls-2" points="458.44 67.3 463.31 49.24 458.44 67.3 458.44 67.3"/><polygon class="cls-2" points="260.59 37.69 260.59 37.69 255.63 56.06 260.59 37.69"/><polygon class="cls-2" points="281.23 43.26 262.15 38.11 281.23 43.26 281.23 43.26"/><polygon class="cls-2" points="469.05 116.09 469.05 116.09 478 118.5 469.05 116.09"/><polygon class="cls-2" points="463.07 138.25 463.07 138.25 463.07 138.25 469.05 116.09 446.89 110.11 440.91 132.27 463.07 138.25"/><rect class="cls-2" x="400.7" y="101.15" width="22.96" height="22.96" transform="translate(196.06 481.23) rotate(-74.9)"/><rect class="cls-2" x="437.28" y="59.92" width="2.67" height="2.67" transform="translate(265.21 468.77) rotate(-74.9)"/><path class="cls-2" d="M135.69,72.06l-2.58-.7Z"/><polygon class="cls-2" points="184.07 62.96 184.07 62.96 206.23 68.94 212.21 46.78 190.05 40.8 184.07 62.96 184.07 62.96"/><rect class="cls-2" x="369.44" y="46.79" width="22.96" height="22.96" transform="translate(225.43 410.86) rotate(-74.9)"/><rect class="cls-2" x="283.83" y="23.69" width="22.96" height="22.96" transform="translate(184.42 311.11) rotate(-74.9)"/><path class="cls-2" d="M355.79,25.27l-3.61,13.36Z"/><polygon class="cls-2" points="394.99 50.18 394.99 50.18 402.47 52.2 394.99 50.18"/><polygon class="cls-2" points="377.46 115.15 377.46 115.15 398.1 120.72 392.53 141.36 392.53 141.36 398.1 120.72 377.46 115.15"/><path class="cls-2" d="M372.83,44.2l2.51-9.31Z"/><path class="cls-2" d="M461.43,46l-18.06-4.87Z"/><polygon class="cls-2" points="330.02 32.65 324.04 54.81 346.2 60.79 346.2 60.79 346.2 60.79 352.18 38.63 330.02 32.65 330.02 32.65"/><polygon class="cls-2" points="415.63 55.75 415.63 55.75 421.2 35.1 400.56 29.53 421.2 35.1 415.63 55.75"/><polygon class="cls-2" points="449.35 18.92 449.35 18.92 458.29 21.34 449.35 18.92"/><polygon class="cls-2" points="334.65 103.6 334.65 103.6 355.3 109.17 349.72 129.81 349.73 129.81 355.3 109.17 334.65 103.6"/><polygon class="cls-2" points="44.1 71.12 66.26 77.1 72.24 54.93 50.08 48.95 44.1 71.11 44.1 71.12"/><polygon class="cls-2" points="243.47 101.14 243.47 101.14 246.78 88.85 243.47 101.14"/><polygon class="cls-2" points="169.4 35.23 169.4 35.23 169.4 35.23 147.24 29.25 141.26 51.41 163.42 57.39 169.4 35.23"/><polygon class="cls-2" points="286.27 112.69 286.27 112.69 264.11 106.71 258.13 128.87 280.29 134.85 286.27 112.69 286.27 112.69"/><polygon class="cls-2" points="221.3 95.16 215.32 117.32 215.32 117.32 215.32 117.32 237.49 123.3 243.47 101.14 221.3 95.16"/><rect class="cls-2" x="35.14" y="94.35" width="22.96" height="22.96" transform="translate(-67.71 123.26) rotate(-74.9)"/><polygon class="cls-2" points="291.84 92.05 291.84 92.05 312.49 97.62 306.92 118.26 306.92 118.26 312.49 97.62 291.84 92.05"/><polygon class="cls-2" points="69.78 146.12 49.14 140.55 54.71 119.9 54.71 119.9 49.14 140.55 69.78 146.12 69.78 146.12"/><polygon class="cls-2" points="264.11 106.71 264.11 106.71 268.32 91.09 264.11 106.71"/><polygon class="cls-2" points="269.68 86.07 269.68 86.06 249.04 80.49 249.04 80.5 269.68 86.07"/><path class="cls-2" d="M443,86.9l-11.14-3Z"/><path class="cls-2" d="M371.89,135.79l8.94,2.42Z"/><rect class="cls-2" x="126.17" y="45.35" width="18.71" height="18.71" transform="translate(47.4 171.3) rotate(-74.9)"/><rect class="cls-2" x="412.25" y="58.34" width="22.96" height="22.96" transform="translate(245.92 460.72) rotate(-74.9)"/><polygon class="cls-2" points="92.88 60.5 92.88 60.5 72.24 54.93 77.81 34.29 77.81 34.29 72.24 54.93 92.88 60.5"/><polygon class="cls-2" points="178.5 83.61 172.52 105.77 172.52 105.77 172.52 105.77 194.68 111.75 200.66 89.59 178.5 83.61"/><polygon class="cls-2" points="329.08 124.24 329.08 124.24 306.92 118.26 300.94 140.42 323.1 146.4 329.08 124.24 329.08 124.24"/><polygon class="cls-2" points="189.11 132.39 194.68 111.75 194.68 111.75 189.11 132.4 209.75 137.97 189.11 132.39"/><polygon class="cls-2" points="120.62 45.84 120.62 45.84 119.92 48.42 120.62 45.84"/><path class="cls-2" d="M361.28,87l5.57-20.65Z"/><polygon class="cls-2" points="223.76 3.97 224.84 0 224.83 0 223.76 3.97"/><polygon class="cls-2" points="7.27 37.4 0 35.44 0 35.44 7.27 37.4"/><polygon class="cls-2" points="152.81 8.61 152.81 8.61 174.97 14.59 178.91 0 155.13 0 152.81 8.6 152.81 8.61"/><polygon class="cls-2" points="266.57 15.53 270.76 0 266.57 15.52 266.57 15.53"/><path class="cls-2" d="M292.78.45,291.11,0Z"/><polygon class="cls-2" points="217.78 26.14 223.76 3.97 209.04 0 201.06 0 195.62 20.16 217.78 26.14"/><polygon class="cls-2" points="12.84 16.76 12.84 16.76 35 22.74 40.98 0.58 38.85 0 17.36 0 12.84 16.76"/><polygon class="cls-2" points="132.99 0 120.93 0 132.17 3.03 132.99 0"/><polygon class="cls-2" points="61.63 6.15 61.63 6.15 40.99 0.57 41.14 0 41.14 0 40.98 0.58 61.63 6.15"/><polygon class="cls-2" points="104.43 17.7 104.43 17.7 83.79 12.13 87.06 0 87.06 0 83.79 12.13 104.43 17.7"/><polygon class="cls-2" points="314.95 6.43 316.68 0 292.91 0 292.78 0.45 314.95 6.43"/><path class="cls-2" d="M486.17,52.64l12.73,3.43Z"/><polygon class="cls-2" points="501.25 78.85 505.14 64.43 501.25 78.85 501.25 78.85"/><polygon class="cls-2" points="414.69 147.34 414.69 147.34 392.53 141.36 386.55 163.53 408.71 169.51 414.69 147.34 414.69 147.34"/><path class="cls-2" d="M483.72,143.82l15.1,4.08a10.51,10.51,0,0,1,10.32-10.19l.18-.65v-9.45a10.4,10.4,0,0,1-5.72-1.7,9.07,9.07,0,0,1-1-.77l-12.91-3.48Z"/><path class="cls-2" d="M501.1,79.41a6.4,6.4,0,0,1,.42-.49l-.27-.07Z"/><path class="cls-2" d="M509.32,104.81V96.48a10.5,10.5,0,0,1-10.39-9L495.27,101Z"/><path class="cls-2" d="M406.54,7.37l2-7.37Z"/><polygon class="cls-2" points="497.73 9.83 500.38 0 476.6 0 475.56 3.85 497.73 9.83"/><polygon class="cls-2" points="384.75 0 384.75 0 384.38 1.39 379.22 0 384.38 1.39 384.75 0"/><polygon class="cls-2" points="469.99 24.49 469.99 24.49 475.56 3.85 461.3 0 461.3 0 475.56 3.85 469.99 24.49"/><polygon class="cls-2" points="497.73 9.83 509.32 12.96 509.32 12.96 497.73 9.83 497.73 9.83"/><path class="cls-2" d="M29.43,43.38l-22.16-6L5.05,45.61a10.49,10.49,0,0,1,5.46,9.22,10.41,10.41,0,0,1-2.33,6.59l15.27,4.12Z"/><path class="cls-2" d="M354.36,200.76l6.05,1.63Z"/><polygon class="cls-2" points="403.14 190.15 403.14 190.15 380.98 184.17 376.06 202.4 399.84 202.4 403.14 190.15"/><polygon class="cls-2" points="268.74 177.66 268.74 177.66 289.38 183.23 284.21 202.4 284.21 202.4 289.39 183.23 268.74 177.66"/><polygon class="cls-2" points="263.17 198.3 263.17 198.3 241.01 192.32 238.29 202.4 262.07 202.4 263.17 198.3"/><polygon class="cls-2" points="451.52 181.06 451.52 181.06 472.16 186.63 467.91 202.4 472.17 186.63 451.52 181.06"/><polygon class="cls-2" points="509.32 196.65 509.32 196.65 494.33 192.61 509.32 196.65"/><polygon class="cls-2" points="445.95 201.7 445.95 201.7 423.79 195.72 421.99 202.4 445.76 202.4 445.95 201.7 445.95 201.7"/><polygon class="cls-2" points="491.69 202.4 491.69 202.4 494.33 192.61 491.69 202.4"/><polygon class="cls-2" points="198.2 180.77 192.37 202.4 216.14 202.4 220.36 186.75 198.2 180.77"/><polygon class="cls-2" points="307.99 202.4 307.99 202.4 310.77 192.09 307.99 202.4"/><polygon class="cls-2" points="15.42 177.37 9.9 175.88 9.9 175.88 15.42 177.37"/><path class="cls-2" d="M1,127.56c-.33,0-.67,0-1,0V137.7a10.39,10.39,0,0,1,3.79.72L6.33,129Z"/><polygon class="cls-2" points="26.97 134.57 26.97 134.57 6.33 129 7.58 124.38 7.58 124.38 6.33 129 26.97 134.57"/><path class="cls-2" d="M17.88,86.19l-7.53-2a10.57,10.57,0,0,1,.16,1.8A10.52,10.52,0,0,1,0,96.48v8.66l11.9,3.21Z"/><path class="cls-2" d="M171.58,197.36l-1.36,5Z"/><polygon class="cls-2" points="11.9 108.35 10.21 114.62 10.21 114.62 11.9 108.35 11.9 108.35"/><polygon class="cls-2" points="100.52 202.4 108.14 202.4 101.04 200.48 100.52 202.4"/><path class="cls-2" d="M149.41,191.38l-3,11Z"/><polygon class="cls-2" points="37.59 183.35 37.59 183.35 15.42 177.37 9.44 199.54 9.44 199.54 9.44 199.54 20.04 202.4 32.45 202.4 37.59 183.35"/><polygon class="cls-2" points="58.23 188.93 54.59 202.4 78.37 202.4 80.39 194.91 58.23 188.93"/><polygon class="cls-2" points="357.75 17.98 362.61 0 338.83 0 335.59 12 357.75 17.98"/><polygon class="cls-2" points="48.37 164.12 63.8 168.28 58.23 188.93 63.8 168.28 48.37 164.12"/><polygon class="cls-2" points="378.4 23.55 378.4 23.55 357.75 17.98 357.75 17.98 378.4 23.55"/><polygon class="cls-2" points="500.31 170.45 478.15 164.47 472.17 186.63 494.33 192.61 500.31 170.45 500.31 170.45"/><polygon class="cls-2" points="43.16 162.71 43.16 162.71 49.14 140.55 26.97 134.57 20.99 156.73 43.16 162.71"/><path class="cls-2" d="M23.6,111.51l8.94,2.41Z"/><polygon class="cls-2" points="85.96 174.26 85.96 174.26 80.39 194.91 101.04 200.48 101.04 200.48 80.39 194.91 85.96 174.26"/><polygon class="cls-2" points="106.61 179.83 106.61 179.83 97.66 177.42 106.61 179.83"/><rect class="cls-2" x="380.99" y="3.98" width="22.96" height="22.96" transform="translate(275.29 390.35) rotate(-74.9)"/><polygon class="cls-2" points="50.08 48.95 29.43 43.38 35 22.74 35 22.74 29.43 43.38 50.08 48.95 50.08 48.95"/><path class="cls-2" d="M287.21,21.1l-19.78-5.34Z"/><polygon class="cls-2" points="147.24 29.25 126.6 23.68 132.17 3.03 132.17 3.03 126.6 23.68 147.24 29.25 147.24 29.25"/><polygon class="cls-2" points="195.62 20.16 190.05 40.8 190.05 40.8 195.62 20.16 174.97 14.59 195.62 20.16"/><polygon class="cls-2" points="98.45 39.86 98.45 39.86 120.62 45.84 126.6 23.68 104.43 17.7 98.45 39.86 98.45 39.86"/><polygon class="cls-2" points="38.52 91.76 17.88 86.19 23.45 65.55 23.45 65.55 17.88 86.19 38.52 91.76"/><polygon class="cls-2" points="309.38 27.08 314.95 6.43 335.59 12 335.59 12 314.95 6.43 309.38 27.08"/><polygon class="cls-2" points="55.65 28.31 55.65 28.31 77.81 34.29 83.79 12.13 61.63 6.15 55.65 28.31"/><polygon class="cls-2" points="134.75 163.65 134.75 163.65 112.59 157.67 106.61 179.83 128.77 185.81 128.77 185.81 134.75 163.65"/><polygon class="cls-2" points="260.59 37.69 266.57 15.52 244.41 9.54 244.41 9.55 238.43 31.71 260.59 37.69"/><polygon class="cls-2" points="478.15 164.47 478.15 164.47 483.72 143.82 478.15 164.47"/><polygon class="cls-2" points="495.27 101.02 489.7 121.66 489.7 121.66 495.27 101.01 474.62 95.44 495.27 101.02"/><polygon class="cls-2" points="365.91 157.96 365.91 157.96 386.55 163.53 380.98 184.17 380.98 184.17 386.55 163.53 365.91 157.96"/><rect class="cls-2" x="334.79" y="175.21" width="22.96" height="22.96" transform="translate(75.81 472.36) rotate(-74.9)"/><polygon class="cls-2" points="408.71 169.51 408.71 169.51 429.36 175.08 423.79 195.72 423.79 195.72 429.36 175.08 408.71 169.51"/><polygon class="cls-2" points="460.36 148.3 457.5 158.9 472.36 162.91 457.5 158.9 460.36 148.3"/><rect class="cls-2" x="152.01" y="171.81" width="22.96" height="22.96" transform="translate(-56.07 293.38) rotate(-74.9)"/><polygon class="cls-2" points="420.27 126.7 420.27 126.7 440.91 132.27 435.34 152.91 440.91 132.27 420.27 126.7"/><rect class="cls-2" x="431.95" y="155.51" width="22.96" height="22.95" transform="translate(166.7 551.61) rotate(-74.9)"/><polygon class="cls-2" points="212.21 46.78 217.78 26.14 238.43 31.71 238.43 31.71 217.78 26.14 212.21 46.78"/><polygon class="cls-2" points="246.58 171.68 241.01 192.32 220.36 186.75 220.36 186.75 241.01 192.32 246.58 171.68 246.58 171.68"/><rect class="cls-2" x="291.98" y="163.66" width="22.95" height="22.96" transform="translate(55.31 422.49) rotate(-74.9)"/><rect class="cls-2" x="249.17" y="152.11" width="22.96" height="22.96" transform="translate(34.81 372.62) rotate(-74.9)"/><polygon class="cls-2" points="177.56 175.2 177.56 175.2 198.2 180.77 198.2 180.77 177.56 175.2"/><polygon class="cls-2" points="452.46 89.46 474.62 95.44 480.6 73.28 480.6 73.28 480.6 73.28 458.44 67.3 452.46 89.46"/><polygon class="cls-2" points="443.37 41.09 449.35 18.92 427.19 12.94 427.19 12.94 421.2 35.1 443.37 41.09"/><polygon class="cls-2" points="464.01 46.66 464.01 46.66 486.17 52.64 492.15 30.48 492.15 30.47 469.99 24.49 464.01 46.66"/><polygon class="cls-3" points="449.35 18.92 449.35 18.92 449.35 18.92 454.45 0 430.68 0 427.19 12.94 449.35 18.92"/><polygon class="cls-3" points="406.54 7.37 408.53 0 384.75 0 384.38 1.39 406.54 7.37"/><polygon class="cls-3" points="497.73 9.83 497.73 9.83 497.73 9.83 475.56 3.85 469.99 24.49 492.15 30.47 497.73 9.83"/><polygon class="cls-3" points="266.57 15.52 270.76 0 246.98 0 244.41 9.54 266.57 15.52"/><polygon class="cls-3" points="224.83 0 209.04 0 223.76 3.97 224.83 0"/><rect class="cls-3" x="290.39" y="2.29" width="21.38" height="22.96" transform="translate(209.35 300.86) rotate(-74.9)"/><polygon class="cls-3" points="335.59 12 330.02 32.65 352.18 38.63 355.79 25.27 357.75 17.98 357.75 17.98 335.59 12 335.59 12"/><polygon class="cls-3" points="378.4 23.55 375.34 34.89 372.83 44.2 394.99 50.18 400.56 29.53 378.4 23.55 378.4 23.55"/><path class="cls-3" d="M501.52,78.92a10.48,10.48,0,0,1,7.8-3.48V65.34a10.2,10.2,0,0,1-3.59-.64c-.21-.08-.39-.18-.59-.27l-3.89,14.42Z"/><polygon class="cls-3" points="463.31 49.24 458.44 67.3 480.6 73.28 486.17 52.64 464.01 46.66 463.31 49.24"/><polygon class="cls-3" points="437.8 61.73 438.49 59.15 443.37 41.09 421.2 35.1 415.63 55.75 437.8 61.73"/><rect class="cls-3" x="450.07" y="91.3" width="21.38" height="22.96" transform="translate(241.49 520.84) rotate(-74.9)"/><polygon class="cls-3" points="104.43 17.7 104.43 17.7 126.6 23.68 132.17 3.03 120.93 0 109.21 0 104.44 17.7 104.43 17.7"/><polygon class="cls-3" points="383.44 92.99 389.01 72.34 389.01 72.34 366.85 66.36 361.28 87 383.44 92.99"/><polygon class="cls-3" points="41.14 0 38.85 0 40.98 0.58 41.14 0"/><polygon class="cls-3" points="61.63 6.15 61.63 6.15 83.79 12.13 87.06 0 63.29 0 61.63 6.15 61.63 6.15"/><polygon class="cls-3" points="147.24 29.25 147.24 29.25 169.4 35.23 174.97 14.59 152.81 8.61 147.24 29.25 147.24 29.25"/><path class="cls-3" d="M489.7,121.66l12.91,3.48a10,10,0,0,1-1.73-1.78,10.51,10.51,0,0,1,8.44-16.79v-1.76L495.27,101Z"/><polygon class="cls-3" points="232.86 52.35 255.02 58.33 255.63 56.06 260.59 37.69 238.43 31.71 238.43 31.71 232.86 52.35"/><rect class="cls-3" x="193.22" y="21.99" width="21.38" height="22.95" transform="matrix(0.26, -0.97, 0.97, 0.26, 118.49, 221.63)"/><polygon class="cls-3" points="324.04 54.81 318.47 75.45 340.63 81.43 343.49 70.84 346.2 60.79 324.04 54.81 324.04 54.81"/><polygon class="cls-3" points="426.25 104.54 426.25 104.54 431.82 83.89 409.65 77.91 404.08 98.56 426.25 104.54"/><polygon class="cls-3" points="281.23 43.26 275.66 63.9 297.82 69.88 303.4 49.24 281.23 43.26 281.23 43.26"/><polygon class="cls-3" points="77.81 34.29 55.65 28.31 50.08 48.95 50.08 48.95 50.08 48.95 72.24 54.93 77.81 34.29"/><polygon class="cls-3" points="291.84 92.05 291.84 92.05 269.68 86.06 269.68 86.07 268.32 91.09 264.11 106.71 286.27 112.69 291.84 92.05"/><path class="cls-3" d="M478.15,164.47l22.16,6,3.57-13.24a10.49,10.49,0,0,1-5.08-9l0-.33-15.1-4.08Z"/><polygon class="cls-3" points="463.07 138.25 440.91 132.27 435.34 152.91 457.5 158.9 460.36 148.3 463.07 138.25"/><rect class="cls-3" x="10.44" y="18.59" width="21.38" height="22.96" transform="matrix(0.26, -0.97, 0.97, 0.26, -13.4, 42.64)"/><polygon class="cls-3" points="178.5 83.61 178.5 83.61 200.66 89.59 206.23 68.94 184.07 62.96 178.5 83.61 178.5 83.61"/><polygon class="cls-3" points="135.69 72.06 135.69 72.06 157.85 78.04 163.42 57.39 141.26 51.41 136.39 69.47 135.69 72.06"/><polygon class="cls-3" points="249.04 80.5 249.04 80.5 249.04 80.49 226.88 74.51 221.31 95.16 221.3 95.16 221.3 95.16 243.47 101.14 246.78 88.85 249.04 80.5"/><polygon class="cls-3" points="392.53 141.36 414.69 147.34 420.26 126.7 420.27 126.7 398.1 120.72 392.53 141.36"/><polygon class="cls-3" points="371.89 135.79 377.46 115.15 377.46 115.15 377.46 115.15 355.3 109.17 349.73 129.81 371.89 135.79 371.89 135.79"/><polygon class="cls-3" points="92.88 60.5 92.88 60.5 115.05 66.48 119.92 48.42 120.62 45.84 98.45 39.86 92.88 60.51 92.88 60.5"/><rect class="cls-3" x="310.09" y="99.45" width="21.38" height="22.95" transform="translate(130.11 391.73) rotate(-74.9)"/><polygon class="cls-3" points="338.17 172.62 360.33 178.6 365.9 157.96 365.91 157.96 343.74 151.97 338.17 172.62"/><polygon class="cls-3" points="103.5 109.29 103.5 109.29 109.07 88.65 86.9 82.67 81.33 103.31 81.33 103.31 81.33 103.31 103.5 109.29"/><path class="cls-3" d="M23.45,65.54,8.18,61.42A10.48,10.48,0,0,1,0,65.34v10.1a10.52,10.52,0,0,1,10.35,8.72l7.53,2Z"/><polygon class="cls-3" points="408.71 169.51 408.71 169.51 386.55 163.53 380.98 184.17 403.14 190.15 408.71 169.51"/><rect class="cls-3" x="426.96" y="176.91" width="21.38" height="22.95" transform="translate(141.74 561.84) rotate(-74.9)"/><polygon class="cls-3" points="129.71 94.22 126.8 105.01 124.14 114.86 146.3 120.84 151.87 100.2 129.71 94.22"/><polygon class="cls-3" points="274.72 155.5 280.29 134.85 280.29 134.85 280.29 134.85 258.13 128.87 252.56 149.52 274.72 155.5 274.72 155.5"/><rect class="cls-3" x="41.7" y="72.95" width="21.38" height="22.95" transform="translate(-42.77 113.02) rotate(-74.9)"/><polygon class="cls-3" points="472.17 186.63 467.91 202.4 491.69 202.4 494.33 192.61 472.17 186.63"/><polygon class="cls-3" points="172.52 105.77 166.95 126.41 166.95 126.41 166.95 126.41 189.11 132.4 194.68 111.75 172.52 105.77"/><polygon class="cls-3" points="209.75 137.97 209.75 137.97 231.91 143.95 237.48 123.3 237.49 123.3 215.32 117.32 209.75 137.97"/><rect class="cls-3" x="298.54" y="142.26" width="21.38" height="22.96" transform="translate(80.24 412.23) rotate(-74.9)"/><polygon class="cls-3" points="241.01 192.32 263.17 198.3 268.74 177.66 268.74 177.66 246.58 171.68 241.01 192.32"/><polygon class="cls-3" points="220.36 186.75 225.93 166.11 203.77 160.13 199.96 174.25 198.2 180.77 198.2 180.77 220.36 186.75 220.36 186.75"/><rect class="cls-3" x="115.76" y="138.86" width="21.38" height="22.95" transform="translate(-51.63 233.27) rotate(-74.9)"/><polygon class="cls-3" points="311.55 189.21 289.39 183.23 284.21 202.4 307.99 202.4 310.77 192.09 311.55 189.21"/><path class="cls-3" d="M7.58,124.38A10.49,10.49,0,0,1,1,127.56L6.33,129Z"/><path class="cls-3" d="M0,105.14v1.43a10.52,10.52,0,0,1,10.21,8.05l1.69-6.27Z"/><polygon class="cls-3" points="177.56 175.2 179.05 169.67 183.13 154.56 160.97 148.58 155.4 169.22 177.56 175.2 177.56 175.2"/><polygon class="cls-3" points="69.78 146.12 69.78 146.12 69.78 146.12 91.94 152.1 97.51 131.45 75.35 125.47 69.78 146.12"/><polygon class="cls-3" points="54.71 119.9 32.54 113.92 32.55 113.92 26.97 134.57 26.97 134.57 49.14 140.55 54.71 119.9"/><polygon class="cls-3" points="354.36 200.76 354.36 200.76 332.19 194.78 330.14 202.4 353.92 202.4 354.36 200.76"/><rect class="cls-3" x="61.4" y="170.12" width="21.38" height="22.96" transform="translate(-122.01 203.89) rotate(-74.9)"/><rect class="cls-3" x="18.6" y="158.56" width="21.38" height="22.96" transform="translate(-142.51 154.02) rotate(-74.9)"/><polygon class="cls-3" points="149.41 191.38 146.44 202.4 170.22 202.4 171.58 197.36 149.41 191.38"/><polygon class="cls-3" points="106.61 179.83 106.61 179.83 106.61 179.83 101.04 200.48 101.04 200.48 101.04 200.48 108.14 202.4 124.29 202.4 128.77 185.81 106.61 179.83"/><polygon class="cls-3" points="8.67 202.4 20.04 202.4 9.44 199.54 8.67 202.4"/><path class="cls-3" d="M502.8,171.12l-2.49-.67-6,22.16,15,4v-6.78a10.5,10.5,0,0,1-6.52-18.75Z"/><polygon class="cls-3" points="509.32 137.7 509.32 137.06 509.14 137.71 509.32 137.7"/><path class="cls-4" d="M500.31,170.45h0l2.49.67a10.45,10.45,0,0,1,6.52-2.28v-10.1a10.38,10.38,0,0,1-5.44-1.53l-3.57,13.24Z"/><polygon class="cls-4" points="491.69 202.4 509.32 202.4 509.32 196.65 494.33 192.61 491.69 202.4"/><polygon class="cls-3" points="489.7 121.66 478 118.5 469.05 116.09 463.07 138.25 483.72 143.82 489.7 121.66 489.7 121.66 489.7 121.66"/><polygon class="cls-3" points="478.15 164.47 478.15 164.47 472.36 162.91 457.5 158.9 451.52 181.06 472.17 186.63 478.15 164.47"/><path class="cls-3" d="M486.17,52.64l12.73,3.43a10.2,10.2,0,0,1-.1-1.24,10.51,10.51,0,0,1,10.52-10.51V35.11l-17.16-4.64Z"/><path class="cls-3" d="M501.25,78.85h0L480.6,73.28l-6,22.16L495.27,101l3.66-13.55a9.29,9.29,0,0,1-.13-1.5,10.49,10.49,0,0,1,2.3-6.55l.15-.56Z"/><polygon class="cls-3" points="445.76 202.4 448.52 202.4 445.95 201.7 445.76 202.4"/><polygon class="cls-3" points="509.32 12.96 509.32 0 500.38 0 497.73 9.83 509.32 12.96"/><path class="cls-4" d="M497.72,9.83l-5.57,20.64h0l17.16,4.64v-.9a10.51,10.51,0,1,1,0-21V13L497.73,9.83Z"/><path class="cls-4" d="M486.17,52.64,480.6,73.28h0l20.65,5.57,3.89-14.42a10.42,10.42,0,0,1-6.24-8.36Z"/><polygon class="cls-4" points="489.7 121.66 489.7 121.66 495.27 101.02 474.62 95.44 469.05 116.09 478 118.5 489.7 121.66"/><polygon class="cls-4" points="483.72 143.82 463.07 138.25 463.07 138.25 463.07 138.25 460.36 148.3 457.5 158.9 472.36 162.91 478.15 164.47 483.72 143.82"/><polygon class="cls-4" points="451.52 181.06 451.52 181.06 445.95 201.7 445.95 201.7 448.52 202.4 467.91 202.4 472.16 186.63 451.52 181.06"/><polygon class="cls-3" points="458.44 67.3 440.38 62.43 437.8 61.73 431.82 83.89 442.96 86.9 452.46 89.46 458.44 67.3 458.44 67.3 458.44 67.3"/><rect class="cls-3" x="422.1" y="107.71" width="22.96" height="21.38" transform="translate(206.3 506.16) rotate(-74.9)"/><polygon class="cls-3" points="435.34 152.91 414.69 147.34 408.71 169.51 429.36 175.08 435.34 152.91 435.34 152.91"/><polygon class="cls-3" points="423.79 195.72 423.79 195.72 403.14 190.15 399.84 202.4 421.99 202.4 423.79 195.72 423.79 195.72"/><polygon class="cls-3" points="461.43 45.96 464.01 46.66 469.99 24.49 469.99 24.49 469.99 24.49 458.29 21.34 449.35 18.92 443.37 41.09 461.43 45.96"/><polygon class="cls-3" points="476.6 0 461.3 0 475.56 3.85 476.6 0"/><polygon class="cls-4" points="449.35 18.92 458.29 21.34 469.99 24.49 469.99 24.49 475.56 3.85 461.3 0 454.45 0 449.35 18.92 449.35 18.92"/><polygon class="cls-4" points="443.37 41.09 438.49 59.15 437.8 61.73 440.38 62.43 458.44 67.3 458.44 67.3 463.31 49.24 464.01 46.66 461.43 45.96 443.37 41.09"/><polygon class="cls-4" points="431.82 83.89 426.25 104.54 446.89 110.11 452.46 89.46 442.96 86.9 431.82 83.89"/><polygon class="cls-4" points="414.69 147.34 414.69 147.34 414.69 147.34 435.34 152.91 435.34 152.91 440.91 132.27 420.27 126.7 420.26 126.7 414.69 147.34"/><polygon class="cls-4" points="408.71 169.51 408.71 169.51 403.14 190.15 423.79 195.72 429.36 175.08 408.71 169.51"/><polygon class="cls-3" points="421.2 35.1 427.19 12.94 406.54 7.37 406.54 7.37 400.56 29.53 421.2 35.1"/><rect class="cls-3" x="379.29" y="96.16" width="22.95" height="21.38" transform="translate(185.81 456.29) rotate(-74.9)"/><polygon class="cls-3" points="409.65 77.91 415.63 55.75 402.47 52.2 394.99 50.18 389.01 72.34 409.65 77.91"/><polygon class="cls-3" points="392.53 141.36 392.53 141.36 380.83 138.21 371.89 135.79 365.91 157.96 386.55 163.53 392.53 141.36 392.53 141.36"/><polygon class="cls-3" points="380.98 184.17 380.98 184.17 360.33 178.6 354.36 200.76 360.41 202.4 376.06 202.4 380.98 184.17 380.98 184.17"/><polygon class="cls-4" points="406.54 7.37 427.19 12.94 427.19 12.94 430.68 0 408.53 0 406.54 7.37 406.54 7.37"/><polygon class="cls-4" points="415.63 55.75 415.63 55.75 421.2 35.1 400.56 29.53 394.99 50.18 402.47 52.2 415.63 55.75"/><polygon class="cls-4" points="383.44 92.99 404.08 98.56 409.65 77.91 389.01 72.34 389.01 72.34 383.44 92.99"/><polygon class="cls-4" points="377.46 115.15 377.46 115.15 371.89 135.79 371.89 135.79 380.83 138.21 392.53 141.36 392.53 141.36 398.1 120.72 377.46 115.15"/><polygon class="cls-4" points="365.91 157.96 365.9 157.96 360.33 178.6 380.98 184.17 380.98 184.17 386.55 163.53 365.91 157.96"/><polygon class="cls-4" points="354.36 200.76 353.92 202.4 360.41 202.4 354.36 200.76"/><polygon class="cls-3" points="338.17 172.62 338.17 172.62 326.48 169.46 317.53 167.05 311.55 189.21 332.19 194.78 338.17 172.62"/><polygon class="cls-3" points="378.4 23.55 384.38 1.39 379.22 0 362.61 0 357.75 17.98 378.4 23.55"/><polygon class="cls-3" points="361.28 87 361.28 87 355.49 85.44 340.63 81.43 334.65 103.6 355.3 109.17 361.28 87"/><polygon class="cls-3" points="366.85 66.36 366.85 66.36 372.83 44.2 372.83 44.2 352.18 38.63 346.2 60.79 366.85 66.36"/><polygon class="cls-3" points="349.72 129.81 329.08 124.24 323.1 146.4 343.74 151.97 349.73 129.81 349.72 129.81"/><polygon class="cls-4" points="384.75 0 379.22 0 384.38 1.39 384.75 0"/><polygon class="cls-4" points="352.18 38.63 372.83 44.2 372.83 44.2 375.34 34.89 378.4 23.55 357.75 17.98 355.79 25.27 352.18 38.63"/><polygon class="cls-4" points="340.63 81.43 355.49 85.44 361.28 87 366.85 66.36 346.2 60.79 346.2 60.79 346.2 60.79 343.49 70.84 340.63 81.43"/><polygon class="cls-4" points="329.08 124.24 329.08 124.24 329.08 124.24 349.72 129.81 355.3 109.17 334.65 103.6 329.08 124.24"/><polygon class="cls-4" points="323.1 146.4 323.1 146.4 317.53 167.05 326.48 169.46 338.17 172.62 343.74 151.97 323.1 146.4"/><polygon class="cls-4" points="332.19 194.78 332.19 194.78 311.55 189.21 310.77 192.09 307.99 202.4 330.14 202.4 332.19 194.78"/><polygon class="cls-3" points="324.04 54.81 330.02 32.65 309.38 27.08 309.38 27.08 303.4 49.24 324.04 54.81"/><polygon class="cls-3" points="335.59 12 338.83 0 316.68 0 314.95 6.43 335.59 12"/><polygon class="cls-3" points="262.07 202.4 278.33 202.4 263.17 198.3 262.07 202.4"/><polygon class="cls-3" points="295.37 161.07 295.37 161.07 283.67 157.91 274.72 155.5 268.74 177.66 289.39 183.23 295.37 161.07 295.37 161.07"/><polygon class="cls-3" points="306.92 118.26 306.92 118.26 286.27 112.69 280.29 134.85 300.94 140.42 306.92 118.26 306.92 118.26"/><polygon class="cls-3" points="312.49 97.62 318.47 75.45 297.82 69.88 297.82 69.88 291.84 92.05 312.49 97.62"/><polygon class="cls-4" points="330.02 32.65 330.02 32.65 330.02 32.65 335.59 12 314.95 6.43 309.38 27.08 309.38 27.08 330.02 32.65"/><polygon class="cls-4" points="318.47 75.45 324.04 54.81 303.4 49.24 297.82 69.88 297.82 69.88 318.47 75.45 318.47 75.45"/><polygon class="cls-4" points="291.84 92.05 291.84 92.05 286.27 112.69 286.27 112.69 306.92 118.26 312.49 97.62 291.84 92.05"/><polygon class="cls-4" points="280.29 134.85 280.29 134.85 274.72 155.5 274.72 155.5 283.67 157.91 295.37 161.07 295.37 161.07 300.94 140.42 280.29 134.85"/><polygon class="cls-4" points="268.74 177.66 268.74 177.66 263.17 198.3 278.33 202.4 284.21 202.4 289.38 183.23 268.74 177.66"/><polygon class="cls-3" points="292.91 0 291.11 0 292.78 0.45 292.91 0"/><rect class="cls-3" x="250.87" y="61.51" width="22.96" height="21.38" transform="translate(124.28 306.67) rotate(-74.9)"/><polygon class="cls-3" points="264.11 106.71 264.11 106.71 243.47 101.14 243.47 101.14 237.49 123.3 258.13 128.87 264.11 106.71 264.11 106.71"/><polygon class="cls-3" points="252.56 149.52 231.91 143.95 225.94 166.11 246.58 171.68 246.58 171.68 246.58 171.68 252.56 149.52"/><polygon class="cls-3" points="220.36 186.75 216.14 202.4 238.29 202.4 241.01 192.32 220.36 186.75"/><polygon class="cls-3" points="260.59 37.69 260.59 37.69 262.15 38.11 281.23 43.26 287.21 21.09 267.43 15.76 266.57 15.53 266.57 15.52 260.59 37.69 260.59 37.69"/><polygon class="cls-4" points="266.57 15.53 267.43 15.76 287.21 21.09 292.78 0.45 291.11 0 270.76 0 266.57 15.53"/><polygon class="cls-4" points="255.02 58.33 255.02 58.33 275.66 63.9 281.23 43.26 262.15 38.11 260.59 37.69 255.63 56.06 255.02 58.33"/><polygon class="cls-4" points="269.68 86.07 269.68 86.07 249.04 80.5 246.78 88.85 243.47 101.14 243.47 101.14 264.11 106.71 264.11 106.71 268.32 91.09 269.68 86.07"/><polygon class="cls-4" points="231.91 143.95 231.91 143.95 252.56 149.52 258.13 128.87 237.49 123.3 237.48 123.3 231.91 143.95"/><polygon class="cls-4" points="225.94 166.11 225.93 166.11 225.93 166.11 220.36 186.75 241.01 192.32 246.58 171.68 246.58 171.68 225.94 166.11"/><polygon class="cls-3" points="244.41 9.55 223.76 3.98 223.76 3.97 217.78 26.14 238.43 31.71 244.41 9.55"/><polygon class="cls-3" points="189.11 132.4 183.13 154.56 183.13 154.56 183.13 154.56 203.77 160.13 203.77 160.13 209.75 137.97 189.11 132.4"/><polygon class="cls-3" points="194.68 111.75 194.68 111.75 194.68 111.75 215.32 117.32 221.3 95.16 200.66 89.59 194.68 111.75"/><polygon class="cls-3" points="206.23 68.94 206.23 68.94 226.87 74.51 232.86 52.35 212.21 46.78 212.21 46.78 206.23 68.94 206.23 68.94"/><polygon class="cls-3" points="177.56 175.2 171.58 197.36 171.58 197.36 190.22 202.4 192.37 202.4 198.2 180.77 177.56 175.2"/><polygon class="cls-4" points="223.76 3.98 244.41 9.55 244.41 9.54 246.98 0 224.84 0 223.76 3.97 223.76 3.98"/><polygon class="cls-4" points="232.86 52.35 232.86 52.35 232.86 52.35 238.43 31.71 217.78 26.14 212.21 46.78 212.21 46.78 232.86 52.35"/><polygon class="cls-4" points="221.3 95.16 221.31 95.16 226.88 74.51 226.88 74.51 226.87 74.51 206.23 68.94 206.23 68.94 200.66 89.59 221.3 95.16"/><polygon class="cls-4" points="194.68 111.75 189.11 132.39 209.75 137.97 209.75 137.97 215.32 117.32 215.32 117.32 215.32 117.32 194.68 111.75 194.68 111.75"/><polygon class="cls-4" points="203.77 160.13 183.13 154.56 183.13 154.56 179.05 169.67 177.56 175.2 198.2 180.77 199.96 174.25 203.77 160.13 203.77 160.13"/><polygon class="cls-4" points="171.58 197.36 170.22 202.4 190.22 202.4 171.58 197.36 171.58 197.36"/><polygon class="cls-3" points="169.4 35.23 163.42 57.39 163.43 57.39 163.43 57.39 184.07 62.96 190.05 40.8 190.05 40.8 169.4 35.23"/><polygon class="cls-3" points="195.62 20.16 201.06 0 178.91 0 174.97 14.59 195.62 20.16"/><polygon class="cls-3" points="155.39 169.22 155.39 169.22 134.75 163.65 128.77 185.81 149.41 191.38 149.41 191.38 155.4 169.22 155.39 169.22"/><polygon class="cls-3" points="146.3 120.84 140.32 143.01 146.76 144.74 160.97 148.58 166.95 126.41 146.3 120.84"/><polygon class="cls-3" points="151.87 100.2 151.87 100.2 172.52 105.77 178.5 83.61 157.85 78.04 151.87 100.2 151.87 100.2"/><polygon class="cls-4" points="169.4 35.23 190.05 40.8 195.62 20.16 174.97 14.59 169.4 35.23 169.4 35.23"/><polygon class="cls-4" points="178.5 83.61 178.5 83.61 184.07 62.96 184.07 62.96 184.07 62.96 163.43 57.39 163.43 57.39 157.85 78.03 178.5 83.61"/><polygon class="cls-4" points="172.52 105.77 151.87 100.2 146.3 120.84 166.95 126.41 166.95 126.41 172.52 105.77 172.52 105.77 172.52 105.77"/><polygon class="cls-4" points="146.76 144.74 140.32 143.01 140.32 143 140.32 143.01 134.75 163.65 155.39 169.22 160.96 148.58 146.76 144.74"/><polygon class="cls-4" points="149.41 191.38 128.77 185.81 128.77 185.81 124.29 202.4 146.44 202.4 149.41 191.38 149.41 191.38"/><rect class="cls-3" x="99.35" y="112.47" width="22.96" height="21.38" transform="translate(-36.96 198.07) rotate(-74.9)"/><polygon class="cls-3" points="120.62 45.84 120.62 45.84 123.2 46.54 141.26 51.41 147.24 29.25 126.6 23.68 120.62 45.84"/><polygon class="cls-3" points="112.59 157.67 112.59 157.67 91.94 152.1 85.96 174.26 85.96 174.26 85.96 174.26 97.66 177.42 106.61 179.83 112.59 157.67 112.59 157.67"/><polygon class="cls-3" points="80.39 194.91 78.37 202.4 100.52 202.4 101.04 200.48 80.39 194.91"/><polygon class="cls-3" points="132.17 3.03 132.17 3.03 152.81 8.6 155.13 0 132.99 0 132.17 3.03 132.17 3.03"/><polygon class="cls-3" points="129.71 94.22 135.69 72.06 133.11 71.36 115.05 66.48 109.07 88.65 129.71 94.22"/><polygon class="cls-4" points="147.24 29.25 147.24 29.25 152.81 8.61 152.81 8.61 152.81 8.6 132.17 3.03 126.6 23.68 147.24 29.25"/><polygon class="cls-4" points="115.05 66.48 115.05 66.48 133.11 71.36 135.69 72.06 136.39 69.47 141.26 51.41 123.2 46.54 120.62 45.84 119.92 48.42 115.05 66.48"/><polygon class="cls-4" points="109.07 88.65 103.5 109.29 124.14 114.86 126.8 105.01 129.71 94.22 109.07 88.65"/><polygon class="cls-4" points="97.51 131.45 97.51 131.45 91.94 152.1 91.94 152.1 112.59 157.67 118.16 137.03 97.51 131.45"/><polygon class="cls-4" points="85.96 174.26 85.96 174.26 80.39 194.91 101.04 200.48 101.04 200.48 106.61 179.83 106.61 179.83 97.66 177.42 85.96 174.26"/><polygon class="cls-3" points="49.14 140.55 43.16 162.71 48.37 164.12 63.8 168.28 69.78 146.12 49.14 140.55"/><polygon class="cls-3" points="58.23 188.93 58.23 188.93 37.59 183.35 32.45 202.4 54.59 202.4 58.23 188.93"/><polygon class="cls-3" points="66.26 77.1 86.9 82.67 92.88 60.5 72.24 54.93 66.26 77.1 66.26 77.1 66.26 77.1"/><polygon class="cls-3" points="54.71 119.9 75.35 125.47 81.33 103.31 60.69 97.74 54.71 119.9 54.71 119.9"/><polygon class="cls-3" points="77.81 34.29 77.81 34.29 98.45 39.86 104.43 17.7 83.79 12.13 77.81 34.29 77.81 34.29"/><polygon class="cls-4" points="104.43 17.7 104.44 17.7 109.21 0 87.06 0 83.79 12.13 104.43 17.7"/><polygon class="cls-4" points="92.88 60.5 92.88 60.51 98.45 39.86 98.45 39.86 77.81 34.29 77.81 34.29 72.24 54.93 92.88 60.5"/><polygon class="cls-4" points="86.9 82.67 66.26 77.1 66.26 77.1 60.69 97.74 81.33 103.31 81.33 103.31 86.9 82.67"/><polygon class="cls-4" points="75.35 125.47 75.35 125.47 75.35 125.47 54.71 119.9 49.14 140.55 69.78 146.12 69.78 146.12 75.35 125.47"/><polygon class="cls-4" points="48.37 164.12 43.16 162.71 37.59 183.35 58.23 188.93 63.8 168.28 48.37 164.12"/><polygon class="cls-3" points="23.45 65.55 44.1 71.11 50.08 48.95 29.43 43.38 23.45 65.55 23.45 65.55"/><path class="cls-3" d="M15.42,177.37,9.9,175.89a10.21,10.21,0,0,1,.61,3.47A10.51,10.51,0,0,1,0,189.87V197l9.44,2.55Z"/><polygon class="cls-3" points="35 22.74 55.65 28.31 61.63 6.15 40.98 0.58 35 22.74 35 22.74 35 22.74"/><polygon class="cls-3" points="38.52 91.76 17.88 86.19 11.9 108.35 11.9 108.35 23.6 111.51 32.54 113.92 38.52 91.76"/><path class="cls-3" d="M27,134.57,6.33,129l-2.54,9.42a10.52,10.52,0,0,1,6.72,9.81,10.48,10.48,0,0,1-1.43,5.28L21,156.73Z"/><polygon class="cls-4" points="61.63 6.15 61.63 6.15 63.29 0 41.14 0 40.99 0.57 61.63 6.15"/><polygon class="cls-4" points="55.65 28.31 55.65 28.31 35 22.74 35 22.74 29.43 43.38 50.08 48.95 50.08 48.95 55.65 28.31"/><polygon class="cls-4" points="44.1 71.12 44.1 71.12 44.1 71.11 23.45 65.55 17.88 86.19 38.52 91.76 44.1 71.12"/><path class="cls-4" d="M27,134.57h0l5.58-20.65h0l-8.94-2.41-11.7-3.16-1.69,6.27a10.66,10.66,0,0,1,.3,2.48,10.49,10.49,0,0,1-2.93,7.28L6.33,129Z"/><path class="cls-4" d="M15.42,177.37,21,156.73,9.08,153.51A10.48,10.48,0,0,1,0,158.74v10.1a10.51,10.51,0,0,1,4.17.87,10.48,10.48,0,0,1,5.73,6.17Z"/><polygon class="cls-3" points="9.44 199.54 9.44 199.54 0 196.99 0 202.4 8.67 202.4 9.44 199.54 9.44 199.54"/><path class="cls-3" d="M0,35.44v8.88a10.5,10.5,0,0,1,5.05,1.29L7.27,37.4Z"/><path class="cls-3" d="M17.36,0H0V13.19A10.4,10.4,0,0,1,5.57,14.8l7.27,2Z"/><path class="cls-4" d="M7.27,37.4l5.57-20.64-7.27-2a10.46,10.46,0,0,1,4.94,8.9A10.5,10.5,0,0,1,0,34.21v1.23Z"/><rect class="cls-2" x="408.34" y="32.33" width="65.2" height="139.69"/><rect class="cls-5" x="416.12" y="150.21" width="32.08" height="8.79"/><rect class="cls-5" x="416.12" y="113.84" width="32.08" height="8.79"/><rect class="cls-5" x="416.12" y="86.8" width="32.08" height="8.79"/><rect class="cls-5" x="416.12" y="55.66" width="32.08" height="8.79"/><rect class="cls-5" x="416.12" y="142.48" width="32.08" height="4.57"/><rect class="cls-5" x="416.12" y="125.37" width="32.08" height="4.57"/><rect class="cls-5" x="416.12" y="100.99" width="32.08" height="4.57"/><rect class="cls-5" x="416.12" y="70.2" width="32.08" height="4.57"/><rect class="cls-5" x="416.12" y="66.73" width="32.08" height="2.29"/><rect class="cls-5" x="416.12" y="45.11" width="32.08" height="2.29"/><rect class="cls-5" x="416.12" y="137.56" width="32.08" height="1.06"/><rect class="cls-5" x="416.12" y="134.74" width="32.08" height="1.06"/><rect class="cls-5" x="416.12" y="131.93" width="32.08" height="1.06"/><rect class="cls-5" x="416.12" y="111.34" width="32.08" height="1.05"/><rect class="cls-5" x="416.12" y="108.06" width="32.08" height="1.06"/><rect class="cls-5" x="416.12" y="97.71" width="32.08" height="1.06"/><rect class="cls-5" x="416.12" y="83.76" width="32.08" height="1.06"/><rect class="cls-5" x="416.12" y="52.29" width="32.08" height="1.06"/><rect class="cls-5" x="416.12" y="48.95" width="32.08" height="1.05"/><rect class="cls-5" x="416.12" y="42.8" width="32.08" height="1.06"/><rect class="cls-5" x="416.12" y="80.6" width="32.08" height="1.06"/><rect class="cls-5" x="416.12" y="77.43" width="32.08" height="1.06"/><path class="cls-6" d="M376.56,140.42a.44.44,0,0,1,.41.3l0,.11c0,.17-.11.3-.33.38l-.1,0c-.28,0-.42-.19-.42-.4h0c0-.18.11-.31.33-.38Z"/></g></g></svg>