<svg xmlns="http://www.w3.org/2000/svg" viewBox="0 0 514.04 214.99"><defs><style>.cls-1{fill:#d89e8c;}.cls-2{fill:#e2bda3;}.cls-3{fill:#f2d5a9;}.cls-4{fill:#fff;}.cls-5{fill:#ac9581;}.cls-6{fill:#fce0cd;}.cls-7{fill:#fffcec;}.cls-8{fill:#645880;}</style></defs><title>Asset 35</title><g id="Layer_2" data-name="Layer 2"><g id="Layer_1-2" data-name="Layer 1"><path class="cls-1" d="M4.72,25.78a10.51,10.51,0,0,1,0,21V56.91a10.51,10.51,0,0,1,0,21V88a10.52,10.52,0,0,1,0,21v10.09a10.52,10.52,0,0,1,0,21v10.09a10.52,10.52,0,0,1,0,21v10.1a10.52,10.52,0,0,1,0,21V215H514V202.46a10.52,10.52,0,1,1,0-21v-10.1a10.52,10.52,0,1,1,0-21V140.2a10.4,10.4,0,0,1-5.72-1.7A9.87,9.87,0,0,1,505.6,136,10.51,10.51,0,0,1,514,119.16V109.07a10.52,10.52,0,1,1,0-21V77.93a10.2,10.2,0,0,1-3.59-.64A10.5,10.5,0,0,1,514,56.91V46.8a10.51,10.51,0,1,1,0-21V12.59H4.72Z"/><path class="cls-2" d="M498.8,23.7a10.51,10.51,0,0,0,10.52,10.51V44.32a10.5,10.5,0,0,0-3.59,20.38,10.2,10.2,0,0,0,3.59.64v10.1a10.52,10.52,0,1,0,0,21v10.09a10.51,10.51,0,0,0-8.44,16.79,9.87,9.87,0,0,0,2.72,2.55,10.4,10.4,0,0,0,5.72,1.7V137.7a10.52,10.52,0,1,0,0,21v10.1a10.52,10.52,0,1,0,0,21V202.4H0V189.87a10.51,10.51,0,0,0,10.51-10.51,10.49,10.49,0,0,0-6.34-9.65A10.51,10.51,0,0,0,0,168.84v-10.1a10.5,10.5,0,0,0,10.51-10.51A10.52,10.52,0,0,0,0,137.7V127.61A10.5,10.5,0,0,0,10.51,117.1,10.51,10.51,0,0,0,0,106.57V96.48A10.52,10.52,0,0,0,10.51,86,10.51,10.51,0,0,0,0,75.44V65.34a10.51,10.51,0,0,0,0-21V34.21a10.51,10.51,0,0,0,0-21V0H509.32V13.19A10.51,10.51,0,0,0,498.8,23.7Z"/><path class="cls-3" d="M231,101.25a85.62,85.62,0,1,1-85.61-85.62A85.61,85.61,0,0,1,231,101.25Z"/><path class="cls-4" d="M509.32,13.19V0H404.94c-3.46,0-4,10.14-3.61,12.12,1.06,5.55,5.4,10.05,4.9,16-.59,7-7.13,11.68-6.31,18.9s7.83,13.13,6.65,20.41a18.66,18.66,0,0,1-2.36,5.7c-3.46,6.31-6.72,13.5-4.95,20.48s8.26,12.77,7.11,19.81c-.51,3.15-2.52,5.81-4.4,8.39-3.61,5-7.11,11.09-5.17,16.91,1.67,5,7,8.32,7.94,13.5,1.43,7.87-7.44,15.44-9.7,22.62-3.36,10.7,5.41,15,7.43,24.65a8.31,8.31,0,0,1,.11,2.92H509.32V189.87a10.52,10.52,0,1,1,0-21v-10.1a10.52,10.52,0,1,1,0-21V127.61a10.4,10.4,0,0,1-5.72-1.7,9.87,9.87,0,0,1-2.72-2.55,10.51,10.51,0,0,1,8.44-16.79V96.48a10.52,10.52,0,1,1,0-21V65.34a10.2,10.2,0,0,1-3.59-.64,10.5,10.5,0,0,1,3.59-20.38V34.21a10.51,10.51,0,1,1,0-21Z"/><path class="cls-5" d="M82.89,30.21a7.54,7.54,0,1,1-7.54-7.54A7.54,7.54,0,0,1,82.89,30.21Z"/><path class="cls-5" d="M252.67,160a7.55,7.55,0,1,1-7.55-7.54A7.54,7.54,0,0,1,252.67,160Z"/><path class="cls-5" d="M308.14,152.44a7.54,7.54,0,1,1-7.54-7.54A7.54,7.54,0,0,1,308.14,152.44Z"/><path class="cls-5" d="M323.24,28.73a7.54,7.54,0,1,1-7.54-7.54A7.54,7.54,0,0,1,323.24,28.73Z"/><path class="cls-6" d="M388.37,144.71a7.54,7.54,0,1,1-7.54-7.54A7.54,7.54,0,0,1,388.37,144.71Z"/><path class="cls-5" d="M155,162.17a7.54,7.54,0,1,1-7.54-7.54A7.54,7.54,0,0,1,155,162.17Z"/><path class="cls-6" d="M244.48,94.84a15.09,15.09,0,1,1-15.09-15.08A15.09,15.09,0,0,1,244.48,94.84Z"/><circle class="cls-6" cx="280.79" cy="54.51" r="12.09" transform="translate(219.29 333.85) rotate(-88.57)"/><path class="cls-6" d="M56.68,108.23a7.54,7.54,0,1,1-7.54-7.54A7.55,7.55,0,0,1,56.68,108.23Z"/><path class="cls-6" d="M98.25,165.34a7.54,7.54,0,1,1-7.54-7.54A7.53,7.53,0,0,1,98.25,165.34Z"/><circle class="cls-6" cx="138.29" cy="38.54" r="11.84" transform="translate(72.58 166.17) rotate(-78.33)"/><path class="cls-6" d="M59.18,59.53A15.09,15.09,0,1,1,44.1,44.45,15.08,15.08,0,0,1,59.18,59.53Z"/><path class="cls-7" d="M207,32.42a10.55,10.55,0,1,1-10.55-10.55A10.54,10.54,0,0,1,207,32.42Z"/><path class="cls-7" d="M206.64,178.37a16,16,0,1,1-16-16A16,16,0,0,1,206.64,178.37Z"/><path class="cls-7" d="M377.63,38.54a16,16,0,1,1-16-16A16,16,0,0,1,377.63,38.54Z"/><path class="cls-7" d="M351.47,178.37a9.29,9.29,0,1,1-9.28-9.29A9.28,9.28,0,0,1,351.47,178.37Z"/><path class="cls-7" d="M56.27,173.6a10.55,10.55,0,1,1-10.55-10.55A10.55,10.55,0,0,1,56.27,173.6Z"/><rect class="cls-8" x="438.71" y="96.89" width="29.74" height="5.7"/><rect class="cls-8" x="438.71" y="73.31" width="29.74" height="5.7"/><rect class="cls-8" x="438.71" y="55.77" width="29.74" height="5.7"/><rect class="cls-8" x="438.71" y="35.58" width="29.74" height="5.7"/><rect class="cls-8" x="438.71" y="91.88" width="29.74" height="2.96"/><rect class="cls-8" x="438.71" y="80.78" width="29.74" height="2.96"/><rect class="cls-8" x="438.71" y="64.97" width="29.74" height="2.96"/><rect class="cls-8" x="438.71" y="45" width="29.74" height="2.96"/><rect class="cls-8" x="438.71" y="42.76" width="29.74" height="1.48"/><rect class="cls-8" x="438.71" y="28.73" width="29.74" height="1.48"/><rect class="cls-8" x="438.71" y="88.69" width="29.74" height="0.68"/><rect class="cls-8" x="438.71" y="86.86" width="29.74" height="0.68"/><rect class="cls-8" x="438.71" y="85.04" width="29.74" height="0.68"/><rect class="cls-8" x="438.71" y="71.69" width="29.74" height="0.68"/><rect class="cls-8" x="438.71" y="69.56" width="29.74" height="0.68"/><rect class="cls-8" x="438.71" y="62.84" width="29.74" height="0.68"/><rect class="cls-8" x="438.71" y="53.8" width="29.74" height="0.68"/><rect class="cls-8" x="438.71" y="33.39" width="29.74" height="0.68"/><rect class="cls-8" x="438.71" y="31.23" width="29.74" height="0.68"/><rect class="cls-8" x="438.71" y="27.24" width="29.74" height="0.68"/><rect class="cls-8" x="438.71" y="51.75" width="29.74" height="0.68"/><rect class="cls-8" x="438.71" y="49.7" width="29.74" height="0.68"/></g></g></svg>