<?xml version="1.0" encoding="utf-8"?>
<!-- Generator: Adobe Illustrator 22.1.0, SVG Export Plug-In . SVG Version: 6.00 Build 0)  -->
<svg version="1.1" id="Layer_1" xmlns="http://www.w3.org/2000/svg" xmlns:xlink="http://www.w3.org/1999/xlink" x="0px" y="0px"
	 viewBox="0 0 1920 400" style="enable-background:new 0 0 1920 400;" xml:space="preserve">
<style type="text/css">
	.st0{fill:#F5DECB;}
	.st1{fill:#CFB08C;}
	.st2{fill:#C46332;}
	.st3{fill:#FFAE91;}
	.st4{fill:#7F5B5B;}
	.st5{fill:#F0D582;}
	.st6{fill:#DEC079;}
	.st7{fill:#EED380;}
	.st8{fill:#F7E4C0;}
	.st9{fill:#F08966;}
	.st10{fill:#FCF4E1;}
	.st11{fill:#EFB283;}
	.st12{fill:#B97F71;}
	.st13{fill:#875240;}
	.st14{fill:#2E4673;}
	.st15{fill:#D5A799;}
	.st16{fill:#461603;}
	.st17{fill:#B29580;}
	.st18{fill:#88562F;}
	.st19{fill:#E15B2B;}
	.st20{fill:#825330;}
	.st21{fill:#FFFFFF;}
	.st22{fill:#BDAA8A;}
	.st23{fill:#E6E2DB;}
	.st24{fill:#907868;}
	.st25{fill:#C4B2AC;}
	.st26{fill:#B98000;}
	.st27{fill:#F9F5C3;}
	.st28{fill:#B37B57;}
	.st29{fill:#D1C878;}
	.st30{fill:#6F5427;}
	.st31{opacity:0.5;}
	.st32{clip-path:url(#SVGID_2_);}
	.st33{clip-path:url(#SVGID_4_);}
	.st34{fill:#B28C8C;}
	.st35{fill:#97D39C;}
	.st36{fill:#FFF4C0;}
	.st37{fill:#557C61;}
	.st38{fill:#6DA36F;}
	.st39{fill:#B79D69;}
	.st40{fill:#ACE5BD;}
	.st41{fill:#F98C8C;}
	.st42{fill:#C96363;}
</style>
<title>Asset 1</title>
<g id="Layer_2_1_">
	<g id="Layer_1-2">
		<rect class="st0" width="1920" height="400"/>
		<path class="st1" d="M1729.9,167.8c0-0.8,0-1.6,0.2-2.3c0.1-0.3,0.1-0.6,0.2-0.9c0.1-0.5,0.3-0.9,0.6-1.3c0.2-0.3,0.6-0.5,1-0.5
			h0.2c0.4,0.1,0.8,0.3,1.1,0.7c0.3,0.3,0.6,0.7,0.9,1.1c0.2,0.3,0.4,0.6,0.6,1c0.8,1.4,1.7,2.9,2.5,4.3c0.4,0.7,0.8,1.4,1.1,2.1
			s0.7,1.5,1.1,2.2s0.6,1.4,0.9,2.1c0.1,0.1,0.1,0.2,0.1,0.4v0.1c0,0,0,0.1,0,0.1l0,0v0.1c0.5,1.4,1,2.7,1.5,4.1
			c0.2,0.7,0.4,1.4,0.7,2.1s0.4,1.5,0.6,2.2v-0.1c0.2,0.8,0.4,1.6,0.5,2.4s0.3,1.5,0.4,2.3s0.3,1.6,0.4,2.5s0.2,1.7,0.3,2.6
			c0.1,1.6,0.2,3.1,0.2,4.7s-0.1,3.1-0.2,4.7c-0.1,1.4-0.3,2.7-0.5,4.1l-0.2,0.7c0.6-0.6,1.1-1.2,1.7-1.8c1.8-2,3.6-4.1,5.3-6.2
			c0.7-0.8,1.3-1.7,2-2.5c0,0-0.1-0.1-0.1-0.1c0,0,0-0.1,0-0.1c-0.3-0.8-0.7-1.5-1-2.3c-0.2-0.6-0.5-1.2-0.7-1.7s-0.5-1.3-0.8-1.9
			l0,0l0,0l-0.1-0.2l0,0c-0.3-0.7-0.6-1.5-0.8-2.2s-0.6-1.6-0.8-2.4c-0.5-1.6-1-3.2-1.4-4.8s-0.9-3.3-1.3-5
			c-0.2-0.8-0.4-1.6-0.6-2.4s-0.3-1.7-0.5-2.5s-0.3-1.6-0.4-2.4s-0.3-1.7-0.5-2.6c-0.3-1.7-0.6-3.4-0.9-5c-0.3-1.7-0.4-3.4-0.5-5.1
			c0-0.8,0-1.7,0-2.5c0-0.4,0.1-0.8,0.1-1.2c0.1-0.6,0.2-1.2,0.5-1.7c0.2-0.3,0.4-0.6,0.7-0.7c0.2-0.1,0.3-0.1,0.5-0.1
			c0.1,0,0.2,0,0.3,0c0.1,0,0.2,0,0.3,0.1c0.4,0.1,0.7,0.3,1,0.6c0.2,0.1,0.3,0.3,0.5,0.4c0.6,0.6,1.1,1.2,1.6,1.9
			c1.1,1.3,2.1,2.7,3,4.2c0.9,1.7,1.8,3.4,2.4,5.2c0,0,0-0.1,0-0.1c0,0.1,0,0.1,0.1,0.2l0,0c0,0,0,0,0,0.1v0.1v0.1v0.1v-0.1
			c0,0.1,0,0.1,0.1,0.2l0,0c0.6,1.6,1.1,3.3,1.5,5.1c0.4,1.7,0.7,3.4,0.9,5.1c0.3,1.7,0.4,3.5,0.4,5.3c0,1.8,0,3.6-0.2,5.4
			c-0.1,0.9-0.2,1.8-0.3,2.7s-0.3,1.8-0.4,2.7s-0.3,1.7-0.5,2.5s-0.3,1.6-0.5,2.4c-0.1,0.5-0.3,1-0.4,1.5c0.5-0.7,1-1.3,1.5-2
			c0.8-1.1,1.6-2.2,2.3-3.3s1.5-2.3,2.3-3.4c0.5-0.8,1-1.6,1.5-2.3c0.7-1.1,1.3-2.1,1.9-3.2c0.2-0.3,0.3-0.5,0.5-0.8
			c-0.1,0-0.2-0.1-0.2-0.2c-0.1-0.1-0.1-0.1-0.1-0.2c-0.1-0.1-0.1-0.2-0.1-0.4c0-0.1-0.1-0.3-0.1-0.4c-0.1-0.4-0.2-0.7-0.3-1.1
			l-0.5-2.2v-0.1c-0.1-0.6-0.3-1.1-0.4-1.7s-0.3-1.2-0.5-1.8s-0.3-1.2-0.5-1.8s-0.3-1.2-0.5-1.8c-0.3-1.2-0.7-2.5-1.1-3.7
			s-0.7-2.4-1.1-3.6c-0.8-2.4-1.6-4.9-2.3-7.3c-0.7-2.1-1.3-4.3-1.8-6.5v0.1c-0.3-1.3-0.6-2.6-0.8-3.8c-0.2-1.3-0.4-2.6-0.4-3.9
			c0-0.4,0-0.7,0-1c0-0.4,0.1-0.8,0.2-1.3c0.1-0.4,0.3-0.7,0.5-1c0.2-0.2,0.5-0.3,0.8-0.3h0.1c0.3,0.1,0.6,0.2,0.9,0.4
			c0.4,0.3,0.7,0.7,1,1.1c0.4,0.5,0.7,1,1.1,1.5s0.7,1,1,1.6s0.5,0.9,0.8,1.4c0.4,0.8,0.8,1.6,1.2,2.4s0.7,1.6,1,2.4l0.1,0.2
			c0,0.1,0.1,0.2,0.1,0.4l0,0l0,0c1,2.4,1.8,4.9,2.4,7.5c0.7,2.5,1.1,5,1.4,7.6c0.1,1.3,0.3,2.6,0.3,3.9s0,2.6,0,3.9
			c-0.1,1.8-0.3,3.6-0.6,5.4v0.1l-0.1,0.4c-0.1,0.4-0.1,0.9-0.2,1.3c0,0.2-0.1,0.4-0.1,0.6c0,0.1,0,0.1,0,0.2
			c0.1-0.2,0.3-0.4,0.4-0.7c0.7-1.2,1.3-2.4,1.9-3.6s1.3-2.5,1.8-3.8c0.3-0.7,0.7-1.5,1-2.2c0.2-0.5,0.4-1,0.7-1.5
			c0.5-1.1,1-2.2,1.4-3.3l0,0c-0.1-0.1-0.1-0.1-0.2-0.2c-0.1-0.1-0.2-0.3-0.3-0.4l-0.3-0.4c-0.2-0.2-0.3-0.5-0.4-0.7
			c-0.3-0.6-0.7-1.1-1-1.7s-0.7-1.3-1.1-1.9s-0.7-1.3-1.1-2c-0.5-0.9-0.9-1.7-1.3-2.6s-0.9-2-1.3-3.1c-0.6-1.4-1.1-2.8-1.6-4.2
			s-1-2.9-1.4-4.4s-0.9-2.9-1.4-4.4s-0.9-2.8-1.3-4.3s-1-3-1.4-4.5s-0.9-2.9-1.3-4.4c-0.2-0.8-0.4-1.5-0.5-2.3
			c-0.1-0.4-0.1-0.8-0.2-1.1c-0.1-0.6-0.1-1.2,0.1-1.8c0.2-0.3,0.5-0.5,0.8-0.5h0.2c0,0,0.1,0,0.1,0c0.1,0,0.1,0,0.2,0.1
			c0.2,0.1,0.4,0.2,0.5,0.4c0.3,0.3,0.5,0.6,0.8,0.9c0.4,0.6,0.8,1.2,1.3,1.8c0.8,1.2,1.7,2.5,2.5,3.7c0.8,1.3,1.6,2.7,2.4,4.1
			s1.5,2.8,2.2,4.2s1.3,2.8,1.8,4.1s1.1,3,1.6,4.4s0.9,2.9,1.3,4.4c0.3,1,0.5,2,0.7,3s0.4,2.1,0.5,3.1c0.1,0.7,0.2,1.5,0.2,2.2
			s0.1,1.4,0.1,2.1s0,1.4-0.1,2c0,0.2,0,0.5,0,0.7c0.1,0,0.2,0,0.3,0.1c0.4-1,0.7-2,1-3s0.7-2.1,1-3.1c0.1-0.3,0.2-0.6,0.3-0.9
			c0-0.1,0-0.2,0-0.3c0-0.3,0-0.5,0-0.8c0-0.5,0.1-1,0.1-1.5v-1.3c0-0.6,0-1.1-0.1-1.7s-0.1-1-0.1-1.5c-0.1-0.8-0.2-1.6-0.3-2.4
			s-0.3-1.6-0.4-2.5s-0.3-1.6-0.4-2.4s-0.3-1.6-0.4-2.4s-0.2-1.7-0.3-2.5s-0.2-1.8-0.2-2.6c-0.1-1.7-0.2-3.5-0.3-5.2
			c0-0.9,0-1.8,0-2.8l0,0c0-1.8,0.1-3.5,0.2-5.3c0.1-0.8,0.1-1.7,0.2-2.5s0.2-1.8,0.4-2.7c0.3-1.7,0.7-3.4,1.1-5.1s1-3.4,1.5-5.1
			s1-3.3,1.5-5c0.2-0.8,0.5-1.6,0.8-2.3c0.1-0.3,0.3-0.5,0.5-0.7c0.2-0.1,0.4-0.2,0.6-0.1c0.2,0,0.3,0.1,0.5,0.2
			c0.3,0.3,0.4,0.7,0.5,1.2l0.1,0.5c0.1,0.2,0.1,0.4,0.1,0.6s0.1,0.7,0.2,1.1c0.1,0.8,0.3,1.6,0.4,2.4s0.3,1.7,0.5,2.5l0.5,2.6
			c0.2,0.8,0.3,1.7,0.5,2.5s0.3,1.7,0.5,2.6c0.3,1.7,0.5,3.5,0.6,5.2c0.1,1.8,0.2,3.6,0.1,5.4c-0.1,1.7-0.3,3.5-0.5,5.2
			c0,0.2-0.1,0.5-0.1,0.7c-0.3,1.8-0.6,3.5-0.9,5.2s-0.7,3.5-1.2,5.2c-0.5,1.9-1,3.9-1.6,5.8c-0.8,2.9,0,0,0,0.1l0,0
			c-0.2,0.8-0.5,1.6-0.8,2.4l0,0l-0.1,0.8c-0.2,1.2-0.4,2.5-0.7,3.7c-0.2,0.7-0.3,1.4-0.5,2.1s-0.3,1.3-0.5,2
			c-0.2,0.9-0.5,1.8-0.8,2.7l0.7-1c0.3-0.5,0.6-1,0.9-1.4c0.6-1,1.3-2,1.9-2.9s1.4-2,2-3c0.2-0.3,0.4-0.7,0.7-1c0.6-1,1.2-2,1.7-3
			s1.1-2.1,1.6-3.1c0.3-0.7,0.7-1.4,1.1-2.1s0.8-1.4,1.2-2.1l0,0l0,0c0.3-0.5,0.6-1,0.9-1.4s0.7-1,1-1.5c0.7-1,1.4-1.9,2.1-2.9
			l2.2-2.9c0.7-0.9,1.4-1.9,2.1-2.8l1.1-1.5l0.5-0.7c0.1-0.2,0.3-0.3,0.4-0.4c0.1-0.1,0.2-0.2,0.4-0.2c0.1,0,0.2,0,0.3,0
			c0.1,0,0.2,0,0.2,0.1c0.3,0.2,0.5,0.5,0.5,0.8c0,0.2,0,0.3,0,0.5s0,0.6,0,0.8c0,0.6,0,1.1,0,1.7c0,0.2,0,0.4,0,0.7
			c0,1.6-0.1,3.3-0.3,4.9l0,0l0,0c0,0,0,0,0,0.1c-0.1,0.6-0.2,1.2-0.3,1.8c-0.2,0.6-0.3,1.2-0.5,1.8c-0.4,1.2-0.9,2.3-1.4,3.4
			c-0.2,0.4-0.4,0.7-0.6,1.1s-0.4,0.7-0.6,1.1l-0.1,0.1l0,0l-0.1,0.2c-1.3,2.1-2.8,4.1-4.3,5.9c-1.4,1.7-3,3.3-4.6,4.8l0,0l-0.1,0.1
			l0,0c-0.9,0.8-1.8,1.6-2.7,2.4s-1.8,1.5-2.7,2.2s-2,1.5-3.1,2.1s-2,1.2-3,1.8l-0.7,0.4c-0.5,1.4-1,2.7-1.6,4.1
			c-0.5,1.2-1,2.4-1.5,3.6c-0.5,1-0.9,2-1.4,3l0.2-0.2c0.3-0.3,0.6-0.5,0.9-0.8c0.3-0.2,0.6-0.4,1-0.6s0.6-0.4,0.9-0.6
			s0.9-0.5,1.4-0.8s0.9-0.4,1.4-0.6c1-0.4,2-0.8,3.1-1.2l0.2-0.1c0.5-0.2,1-0.4,1.5-0.6s1-0.5,1.5-0.8c1.5-0.9,3-1.9,4.4-2.9l0,0
			l0.2-0.1c1-0.7,1.9-1.4,2.8-2.2s1.9-1.7,2.8-2.5l1.6-1.6c0.5-0.6,1.1-1.1,1.6-1.7c1.1-1.1,2.3-2.3,3.5-3.4c1.2-1.1,2.4-2,3.7-2.9
			c0.3-0.2,0.7-0.4,1-0.6c0.3-0.2,0.7-0.3,1.1-0.3c0.1,0,0.3,0.1,0.4,0.2c0.7,0.5,0.2,1.4-0.1,2c-0.2,0.3-0.4,0.7-0.6,1
			s-0.4,0.7-0.6,1c-0.4,0.7-0.8,1.4-1.2,2.1l0,0l0,0l-0.1,0.1c-0.8,1.4-1.7,2.7-2.7,3.9c-1,1.2-2.1,2.4-3.3,3.6
			c-2.3,2.3-4.8,4.5-7.4,6.5l-1.7,1.2l-0.2,0.1h-0.1c-1.3,0.9-2.6,1.8-3.9,2.7s-2.8,1.8-4.2,2.7l-1,0.6l-0.1,0.1l-0.3,0.2
			c-0.9,0.5-1.9,1-2.8,1.5s-2,0.9-3,1.3c-1.1,0.5-2.3,0.8-3.5,1.1c-0.5,0.1-1.1,0.2-1.6,0.4c-0.4,0.1-0.9,0.1-1.3,0.2
			c-0.4,0.6-0.7,1.3-1.1,1.9c-0.7,1.1-1.3,2.2-2,3.4c-0.3,0.5-0.7,1-1,1.6s-0.7,1.1-1,1.6l-1,1.4c0.3-0.2,0.6-0.4,1-0.6
			c0.7-0.4,1.3-0.8,2-1.1c1.3-0.7,2.8-1.3,4.2-1.8c2-0.7,4.1-1.1,6.2-1.6c1.5-0.4,2.9-0.7,4.4-1.2s2.9-1,4.3-1.6l1.4-0.6
			c2.8-1.1,5.5-2.3,8.2-3.6c1.2-0.6,2.4-1.2,3.6-1.8c0,0,0.1-0.1,0.2-0.1c1-0.5,1.9-1,2.9-1.6l0.2-0.1l0,0l0,0
			c1.3-0.7,2.5-1.5,3.8-2.2c0.3-0.2,0.7-0.4,1-0.5c0.2-0.1,0.5-0.2,0.7-0.2l0,0c0.4,0.1,0.6,0.4,0.7,0.7c0,0.3-0.1,0.5-0.2,0.7
			c-0.1,0.2-0.2,0.3-0.3,0.5l-0.6,0.9c-0.8,1.2-1.7,2.4-2.6,3.6c-0.5,0.6-1,1.2-1.6,1.9s-1,1.1-1.6,1.7c-1.1,1.1-2.3,2.1-3.6,3
			c-1.3,0.8-2.6,1.6-4,2.2c-0.9,0.4-1.9,0.8-2.8,1.2l-0.3,0.1l-0.1,0.1h0.1l-4.4,1.7c-1.4,0.6-2.9,1.1-4.3,1.6s-3,1-4.5,1.5
			s-3,0.9-4.6,1.3l-2.3,0.5l-2.3,0.5l-2.3,0.5l-2.1,0.5c-1.2,0.3-2.4,0.5-3.7,0.6c-0.5,0.1-1,0.1-1.6,0.1l-0.1,0.1
			c-0.1,0-0.1,0.1-0.2,0.1l-1,1.2c-0.9,1.1-1.8,2.1-2.7,3.2s-1.8,2-2.7,3l-0.8,0.9l1.3-0.6c0.5-0.2,1-0.5,1.5-0.7s1.1-0.5,1.6-0.7
			c1.1-0.4,2.2-0.8,3.3-1.2s2.2-0.7,3.3-1s2.3-0.6,3.4-0.9c2.3-0.6,4.6-1.2,6.9-1.9s4.7-1.4,7-2.1l6.8-2l7-2c2.3-0.7,4.6-1.3,7-1.8
			c0.6-0.1,1.1-0.3,1.7-0.4c0.3,0,0.6-0.1,0.9-0.1h0.7h0.2c0.2,0,0.4,0.1,0.6,0.3c0.2,0.2,0.3,0.4,0.3,0.7c-0.1,0.3-0.2,0.6-0.5,0.9
			c-0.2,0.2-0.4,0.4-0.6,0.6c-0.4,0.4-0.9,0.8-1.4,1.1l-2.3,1.8c-0.7,0.6-1.4,1.1-2.2,1.7c-1,0.7-2,1.4-3,2.1s-2,1.3-3,1.9
			c-0.8,0.5-1.7,0.9-2.6,1.4c-0.4,0.2-0.8,0.4-1.3,0.6s-0.9,0.4-1.3,0.6c-1.1,0.4-2.2,0.9-3.4,1.2s-2.3,0.7-3.5,1l-0.6,0.1
			c-2.3,0.6-4.7,1-7.1,1.4c-1.2,0.2-2.3,0.4-3.5,0.6s-2.4,0.4-3.6,0.6c-0.9,0.1-1.8,0.3-2.8,0.4l-0.6,0.1h0.1
			c-1.2,0.1-2.4,0.3-3.6,0.4s-2.4,0.2-3.6,0.2s-2.4,0-3.6,0c-0.6,0-1.2,0-1.8-0.1c-0.6,0-1.2-0.1-1.7-0.3c-0.4,0.4-0.8,0.8-1.2,1.2
			l-1.3,1.3c-0.5,0.5-1,0.9-1.4,1.4c-1,0.9-1.9,1.8-2.8,2.6c-2,1.8-4,3.6-6,5.3c-1.5,1.2-3,2.4-4.5,3.6c-0.7,0.6-1.4,1.1-2.2,1.6
			c-0.3,0.2-0.7,0.5-1,0.7c-0.2,0.1-0.3,0.2-0.5,0c-0.1-0.1-0.1-0.3,0-0.4c0,0,0.1-0.1,0.1-0.1l0,0l0.1-0.1c0.4-0.3,0.8-0.6,1.2-1
			s0.9-0.8,1.3-1.2l2.7-2.3c1.8-1.6,3.6-3.2,5.3-4.9s3.6-3.6,5.4-5.4c0.7-0.7,1.4-1.5,2.1-2.2c-0.5-0.6-0.8-1.3-1.2-1.9
			c-0.4-0.8-0.7-1.6-1.1-2.5l0,0c-0.6-1.4-1-2.8-1.5-4.2s-1-2.9-1.4-4.4c-1-3.1-1.9-6.2-2.8-9.3c-0.4-1.5-0.8-3-1.3-4.5
			s-0.8-3.1-1.2-4.6s-0.8-3.1-1.1-4.7c-0.3-1.6-0.6-3.1-0.7-4.7C1730,169.5,1730,168.7,1729.9,167.8"/>
		<path class="st2" d="M1500,281.5c-0.4-0.7-0.8-1.3-1.3-1.9c-0.2-0.2-0.4-0.5-0.6-0.7c-0.3-0.4-0.7-0.6-1.2-0.8
			c-0.4-0.1-0.8-0.1-1.1,0.1l-0.2,0.1c-0.3,0.3-0.5,0.7-0.6,1.1c-0.1,0.5-0.2,0.9-0.2,1.4c0,0.4,0,0.8,0,1.1c0,1.6,0,3.3,0,4.9
			c0,0.8,0,1.6,0.1,2.4s0.1,1.6,0.2,2.5s0.2,1.5,0.3,2.2l0.1,0.4c0,0,0,0,0,0.1v0.1l0,0c0,0,0,0.1,0,0.1c0.2,1.5,0.5,2.9,0.8,4.3
			c0.2,0.7,0.3,1.5,0.5,2.2s0.4,1.5,0.6,2.2v0c0.2,0.8,0.5,1.5,0.7,2.3s0.5,1.5,0.8,2.2s0.6,1.5,0.9,2.3s0.7,1.6,1.1,2.4
			c0.7,1.4,1.4,2.8,2.2,4.2s1.6,2.7,2.5,4c0.8,1.1,1.6,2.2,2.5,3.3l0.5,0.5l-2.4-0.8c-2.6-0.8-5.2-1.8-7.7-2.7l-3-1.2
			c0,0,0-0.1,0-0.1c0,0,0-0.1,0-0.1c-0.1-0.8-0.2-1.6-0.3-2.5c-0.1-0.6-0.2-1.3-0.2-1.9s-0.2-1.3-0.3-2l0,0l0,0V313l0,0
			c-0.1-0.8-0.3-1.6-0.4-2.4s-0.3-1.6-0.5-2.5c-0.3-1.6-0.7-3.3-1.2-4.9c-0.4-1.7-0.9-3.3-1.4-5c-0.2-0.8-0.5-1.6-0.7-2.4
			s-0.5-1.6-0.8-2.4s-0.6-1.5-0.8-2.3s-0.6-1.6-0.9-2.5c-0.6-1.6-1.1-3.2-1.8-4.8c-0.6-1.6-1.3-3.2-2.1-4.7
			c-0.4-0.7-0.8-1.5-1.3-2.2c-0.2-0.3-0.4-0.7-0.7-1c-0.4-0.5-0.8-0.9-1.3-1.2c-0.3-0.2-0.6-0.3-1-0.3c-0.2,0-0.3,0.1-0.5,0.2
			c-0.1,0-0.2,0.1-0.2,0.1c-0.1,0.1-0.1,0.1-0.2,0.2c-0.3,0.3-0.4,0.6-0.6,1c-0.1,0.2-0.1,0.4-0.2,0.6c-0.2,0.8-0.3,1.6-0.5,2.5
			c-0.3,1.7-0.4,3.4-0.4,5.1c0,1.9,0.2,3.9,0.5,5.8c0,0,0-0.1,0-0.1v0.2v0.1c0,0,0,0.1,0,0.1c0,0,0,0,0,0.1l0,0c0,0.1,0,0.1,0,0.2
			l0,0c0.3,1.7,0.7,3.4,1.2,5.1c0.5,1.7,1.1,3.3,1.7,4.9c0.7,1.6,1.4,3.2,2.3,4.8c0.9,1.6,1.8,3.1,2.8,4.6c0.5,0.7,1,1.5,1.6,2.2
			s1.1,1.4,1.7,2.1s1.1,1.3,1.7,1.9s1.1,1.2,1.6,1.8c0.3,0.4,0.7,0.7,1.1,1.1l-2.3-1c-1.2-0.5-2.4-1.1-3.6-1.7s-2.4-1.2-3.6-1.8
			c-0.8-0.4-1.6-0.9-2.5-1.3c-1.1-0.6-2.2-1.2-3.3-1.8l-0.8-0.5c0.1-0.1,0.1-0.2,0.1-0.3v-0.2c0-0.1,0-0.3-0.1-0.4
			c0-0.1-0.1-0.3-0.1-0.4l-0.3-1.1c-0.2-0.7-0.4-1.5-0.7-2.2v-0.1c-0.2-0.6-0.3-1.1-0.5-1.7s-0.3-1.2-0.5-1.8s-0.3-1.2-0.5-1.8
			s-0.3-1.2-0.5-1.8c-0.3-1.3-0.6-2.5-0.9-3.8s-0.6-2.5-0.8-3.7c-0.5-2.5-1.1-5-1.7-7.5c-0.5-2.2-1.1-4.3-1.7-6.5v0.1
			c-0.3-1.3-0.8-2.5-1.2-3.7c-0.4-1.2-1-2.4-1.6-3.6c-0.2-0.3-0.3-0.6-0.5-0.9c-0.2-0.4-0.5-0.7-0.8-1c-0.3-0.3-0.6-0.5-1-0.6
			c-0.3-0.1-0.6,0-0.9,0.1l-0.1,0.1c-0.2,0.2-0.4,0.5-0.6,0.8c-0.2,0.5-0.3,1-0.3,1.5c-0.1,0.6-0.1,1.2-0.2,1.8s-0.1,1.2-0.1,1.9
			s0,1,0,1.6c0,0.9,0.1,1.8,0.2,2.7s0.2,1.7,0.3,2.6v0.2c0,0.1,0,0.3,0,0.4l0,0l0,0c0.4,2.6,1,5.2,1.7,7.7c0.7,2.5,1.5,4.9,2.6,7.3
			c0.5,1.2,1.1,2.4,1.7,3.5s1.3,2.2,2,3.3c1,1.5,2.1,3,3.2,4.4l0.1,0.1c0.1,0.1,0.2,0.2,0.2,0.3c0.3,0.3,0.6,0.7,0.8,1l0.4,0.5
			l0.1,0.1l-0.7-0.4c-1.2-0.7-2.3-1.4-3.5-2.2s-2.3-1.5-3.5-2.3c-0.7-0.5-1.3-0.9-2-1.4l-1.3-1c-1-0.7-1.9-1.4-2.9-2.2l0,0
			c0-0.1,0.1-0.2,0.1-0.3c0-0.2,0-0.3,0-0.5l0.1-0.5c0-0.3,0-0.6,0-0.8c0-0.7,0-1.3,0-2s0-1.5,0-2.2s0-1.5,0-2.2c0-1-0.1-2-0.2-2.9
			s-0.3-2.2-0.4-3.3c-0.2-1.5-0.5-3-0.8-4.5s-0.6-3-0.9-4.5s-0.7-3-1-4.5s-0.7-2.9-1-4.4s-0.7-3-1-4.6s-0.7-3-1.1-4.5
			c-0.2-0.7-0.4-1.5-0.7-2.2c-0.1-0.4-0.3-0.7-0.4-1.1c-0.2-0.6-0.5-1.1-1-1.5c-0.3-0.2-0.6-0.2-0.9,0l-0.1,0.1l-0.1,0.1l-0.1,0.2
			c-0.1,0.2-0.2,0.4-0.2,0.6c-0.1,0.4-0.2,0.8-0.2,1.2c-0.1,0.7-0.1,1.5-0.2,2.2c-0.1,1.5-0.2,3-0.3,4.5s-0.1,3.1,0,4.7
			s0.1,3.1,0.2,4.7s0.3,3,0.5,4.5s0.5,3.1,0.8,4.7s0.7,3,1,4.4c0.3,1,0.5,2,0.9,2.9s0.7,2,1.1,2.9c0.3,0.7,0.6,1.4,0.9,2
			s0.6,1.2,1,1.8s0.7,1.2,1.1,1.7l0.4,0.6c-0.1,0.1-0.2,0.1-0.2,0.2c-0.8-0.7-1.6-1.4-2.4-2.1s-1.6-1.5-2.4-2.2l-0.7-0.7
			c0-0.1-0.1-0.2-0.1-0.3c-0.1-0.2-0.3-0.4-0.4-0.6c-0.3-0.4-0.6-0.8-0.8-1.3l-0.7-1.1c-0.3-0.5-0.5-1-0.8-1.5s-0.4-0.9-0.6-1.4
			c-0.3-0.7-0.6-1.5-0.9-2.2s-0.6-1.6-0.9-2.4s-0.6-1.5-0.8-2.3s-0.5-1.6-0.8-2.3s-0.6-1.6-1-2.4s-0.7-1.6-1.1-2.4
			c-0.8-1.6-1.5-3.1-2.4-4.6c-0.5-0.8-0.9-1.6-1.4-2.4l0,0c-0.9-1.5-1.9-3-2.8-4.5c-0.5-0.7-1-1.4-1.4-2.1s-1.1-1.4-1.7-2.1
			c-1.1-1.3-2.3-2.6-3.5-3.9s-2.6-2.5-3.9-3.7s-2.5-2.4-3.8-3.5c-0.6-0.6-1.2-1.1-1.8-1.6c-0.2-0.2-0.5-0.3-0.8-0.4
			c-0.2,0-0.4,0.1-0.6,0.2c-0.1,0.1-0.2,0.3-0.3,0.4c-0.1,0.4,0,0.9,0.2,1.3c0.1,0.2,0.1,0.3,0.2,0.5s0.1,0.4,0.2,0.6l0.4,1
			c0.3,0.8,0.6,1.5,0.8,2.3s0.6,1.6,0.8,2.4s0.6,1.6,0.8,2.5s0.6,1.6,0.8,2.4s0.6,1.6,0.9,2.5c0.6,1.6,1.3,3.3,2.1,4.8
			c0.8,1.6,1.7,3.2,2.7,4.7c0.9,1.5,2,2.9,3.1,4.2l0.5,0.6c1.1,1.4,2.2,2.8,3.4,4.1s2.4,2.6,3.6,3.9c1.4,1.4,2.8,2.9,4.3,4.2l0,0
			l0,0c0.6,0.6,1.2,1.1,1.9,1.7l0,0l0.5,0.6c0.8,1,1.6,1.9,2.4,2.9c0.5,0.5,1,1.1,1.5,1.6s0.9,1,1.4,1.5c0.7,0.7,1.3,1.3,2,2
			l-1.1-0.5c-0.5-0.3-1-0.5-1.5-0.8c-1-0.5-2.1-1.1-3.1-1.6s-2.2-1-3.3-1.6c-0.4-0.2-0.7-0.4-1.1-0.5c-1-0.6-2-1.2-3-1.8
			s-2-1.3-2.9-1.9c-0.7-0.4-1.3-0.9-2-1.3s-1.4-0.8-2.1-1.2l0,0l0,0l-1.5-0.8c-0.5-0.3-1.1-0.6-1.6-0.8c-1.1-0.5-2.2-1-3.3-1.5
			l-3.4-1.4c-1.1-0.5-2.2-1-3.2-1.4l-1.7-0.7l-0.8-0.3c-0.2-0.1-0.4-0.1-0.6-0.2c-0.1,0-0.3,0-0.4,0c-0.1,0-0.2,0.1-0.3,0.1
			c-0.1,0.1-0.1,0.1-0.2,0.2c-0.1,0.3-0.1,0.6,0,0.9c0.1,0.1,0.1,0.3,0.2,0.4c0.1,0.2,0.3,0.5,0.4,0.7c0.3,0.5,0.6,1,0.8,1.5
			l0.3,0.6c0.8,1.4,1.7,2.7,2.8,4l0,0l0,0v0.1c0.4,0.5,0.8,0.9,1.2,1.4s0.9,0.9,1.4,1.3c0.9,0.8,1.9,1.6,2.9,2.3
			c0.3,0.2,0.7,0.5,1,0.7l1.1,0.6l0.2,0.1l0,0l0.2,0.1c2.2,1.2,4.4,2.2,6.7,3c2.1,0.7,4.2,1.4,6.4,1.9l0,0h0.1l0,0
			c1.2,0.3,2.3,0.5,3.5,0.8s2.3,0.4,3.5,0.6s2.5,0.3,3.7,0.3s2.3,0.1,3.5,0h0.8c1.1,0.9,2.3,1.9,3.4,2.7s2.1,1.6,3.1,2.3
			c0.9,0.6,1.8,1.3,2.7,1.9l-0.3-0.1c-0.4-0.1-0.8-0.1-1.2-0.2s-0.8-0.1-1.1-0.1h-1.1c-0.5,0-1.1,0-1.6,0s-1,0.1-1.5,0.2
			c-1.1,0.1-2.2,0.3-3.3,0.5h-0.2c-0.5,0.1-1,0.1-1.6,0.2s-1.1,0.1-1.7,0.1c-1.8,0-3.5-0.1-5.3-0.3l0,0h-0.2
			c-1.2-0.1-2.4-0.3-3.6-0.5s-2.5-0.5-3.7-0.8l-1.9-0.5c-0.8-0.2-1.5-0.4-2.3-0.6c-1.6-0.4-3.1-0.8-4.7-1.1
			c-1.5-0.4-3.1-0.6-4.7-0.7c-0.4,0-0.7,0-1.1,0c-0.4,0-0.8,0.1-1.1,0.3c-0.1,0.1-0.2,0.2-0.3,0.4c-0.3,0.8,0.5,1.3,1.1,1.7
			c0.3,0.2,0.7,0.4,1,0.6l1,0.6c0.7,0.4,1.4,0.8,2.1,1.2l0,0l0,0l0.1,0c1.4,0.8,2.8,1.5,4.3,2.1c1.5,0.6,3.1,1,4.6,1.5
			c3.2,0.9,6.4,1.5,9.6,1.9l2.1,0.2h0.2h0.1c1.6,0.2,3.1,0.3,4.7,0.4s3.3,0.2,5,0.2c0.4,0,0.8,0,1.1,0h0.5c1.1,0,2.1-0.1,3.2-0.1
			s2.2-0.2,3.3-0.4c1.2-0.2,2.4-0.4,3.6-0.8c0.5-0.1,1-0.3,1.6-0.5s0.8-0.3,1.3-0.5l1.9,1.1c1.1,0.7,2.3,1.3,3.4,1.9
			c0.6,0.3,1.1,0.6,1.7,0.9l1.7,0.9l1.6,0.8c-0.4,0-0.8-0.1-1.2-0.1c-0.8,0-1.5,0-2.3,0c-1.5,0.1-3.1,0.2-4.6,0.5
			c-2.1,0.4-4.2,1.1-6.2,1.7c-1.4,0.4-2.9,0.8-4.4,1.1s-3,0.5-4.5,0.8l-1.5,0.3c-3,0.4-6,0.8-8.9,1c-1.3,0.1-2.7,0.2-4,0.2h-0.2
			c-1.1,0-2.2,0.1-3.3,0.1h-0.3c-1.5,0-2.9,0-4.4,0c-0.4,0-0.8,0-1.1,0c-0.3,0-0.5,0.1-0.7,0.2l0,0c-0.3,0.2-0.4,0.6-0.2,1
			c0.1,0.2,0.3,0.4,0.6,0.5c0.2,0.1,0.3,0.2,0.5,0.3l1,0.5c1.3,0.6,2.7,1.2,4.1,1.8c0.8,0.3,1.5,0.6,2.3,0.8s1.5,0.5,2.2,0.7
			c1.5,0.4,3,0.7,4.6,0.8c1.5,0.1,3.1,0.1,4.6-0.1c1-0.1,2-0.2,3-0.4l0.3,0h0.2h-0.1c1.6-0.2,3.1-0.5,4.6-0.7s3.1-0.5,4.6-0.8
			s3.1-0.6,4.7-1s3.1-0.8,4.6-1.2l2.2-0.7l2.2-0.7l2.2-0.7c0.7-0.2,1.4-0.4,2.1-0.6c1.2-0.4,2.4-0.8,3.5-1.3c0.5-0.2,1-0.4,1.4-0.7
			h0.1h0.2l1.5,0.6c1.3,0.5,2.6,1,3.9,1.4s2.6,0.8,3.9,1.3l1.2,0.4l-1.4,0.1l-1.7,0.2l-1.8,0.2c-1.2,0.2-2.3,0.4-3.5,0.6
			s-2.3,0.5-3.4,0.8s-2.3,0.6-3.4,0.9c-2.3,0.6-4.6,1.2-6.9,1.8s-4.8,1.1-7.1,1.7l-6.9,1.7l-7.1,1.7c-2.3,0.6-4.7,1.2-7,1.9
			c-0.6,0.2-1.1,0.4-1.7,0.5c-0.3,0.1-0.6,0.2-0.9,0.4c-0.2,0.1-0.4,0.2-0.6,0.3l-0.2,0.1c-0.2,0.1-0.3,0.3-0.4,0.6
			c-0.1,0.2,0,0.5,0.1,0.7c0.2,0.3,0.5,0.4,0.9,0.5c0.3,0.1,0.6,0.2,0.8,0.2c0.6,0.1,1.2,0.2,1.8,0.3c1,0.1,1.9,0.3,2.8,0.4
			s1.8,0.3,2.7,0.4c1.2,0.1,2.4,0.3,3.7,0.3s2.4,0.1,3.6,0.1c1,0,1.9,0,2.9-0.1c0.5,0,0.9-0.1,1.4-0.1s1-0.1,1.4-0.2
			c1.2-0.2,2.4-0.4,3.5-0.6s2.3-0.5,3.5-0.9l0.6-0.2c2.3-0.6,4.6-1.5,6.8-2.3l3.3-1.3l3.4-1.3c0.9-0.3,1.7-0.7,2.6-1.1l0.6-0.2h-0.1
			c1.1-0.5,2.2-1,3.3-1.5s2.2-1,3.2-1.6s2.1-1.2,3.1-1.8c0.5-0.3,1-0.6,1.5-1c0.5-0.3,0.9-0.7,1.3-1.1l1.6,0.4l1.8,0.5l2,0.5
			c1.3,0.3,2.5,0.6,3.8,0.9c2.6,0.6,5.2,1.1,7.8,1.6c1.9,0.3,3.8,0.6,5.7,0.9c0.9,0.1,1.8,0.2,2.7,0.3c0.4,0.1,0.8,0.1,1.2,0.1
			c0.2,0,0.4,0,0.4-0.2c0-0.2-0.1-0.3-0.2-0.4c0,0-0.1,0-0.1,0h-0.1c-0.5-0.1-1-0.2-1.5-0.3l-1.7-0.4l-3.5-0.7c-2.3-0.5-4.7-1-7-1.5
			c-2.5-0.6-4.9-1.3-7.4-2l-2.9-0.9c0.1-0.8,0.1-1.5,0-2.3c-0.1-0.9-0.2-1.8-0.3-2.7l0,0c-0.2-1.5-0.5-2.9-0.8-4.4s-0.6-3-1-4.5
			c-0.7-3.1-1.4-6.3-2.2-9.4c-0.4-1.5-0.8-3-1.2-4.6s-0.8-3.1-1.3-4.6s-0.9-3.1-1.4-4.6c-0.5-1.5-1.1-3-1.8-4.4
			c-0.3-0.7-0.7-1.5-1.1-2.2"/>
		<path class="st3" d="M1677.5,216.5c0.4,0,0.6,0.3,0.6,0.6c0,0.3-0.2,0.5-0.5,0.6h-0.2l-3.6-0.1h-1.9h-2c-2.6,0-5.2-0.1-7.8-0.3
			s-5.3-0.5-7.9-0.9s-5.3-0.8-7.9-1.4c-1.7-0.4-3.3-0.8-4.9-1.3s-3.3-1.1-4.9-1.6c-2.2-0.8-4.3-1.6-6.4-2.6c0,0,0,0,0,0.1
			c0.2,0.3,0.2,0.7,0,1.1l-0.1,0.2c0,0.1-0.1,0.1-0.2,0.2l-0.1,0.2l-0.4,0.5c-0.9,1.2-1.7,2.5-2.6,3.7c-0.9,1.3-1.8,2.7-2.7,4
			c-1,1.4-2,2.7-3.1,4c-1.1,1.3-2.4,2.5-3.8,3.5c-1.3,1-2.7,1.9-4.2,2.6c-0.8,0.4-1.5,0.7-2.3,1.1s-1.6,0.6-2.4,0.8l-0.2,0.1
			c-0.8,0.2-1.5,0.4-2.3,0.6s-1.7,0.3-2.5,0.4c-0.8,0.1-1.7,0.1-2.5,0.1c-0.4,0-0.8,0-1.3-0.1c-0.4,0-0.8-0.1-1.2-0.1
			c-0.8-0.1-1.6-0.3-2.4-0.6c-0.8-0.3-1.5-0.5-2.3-0.9c-1.6-0.7-3.1-1.5-4.6-2.3c-1.2-0.7-2.5-1.3-3.7-2s-2.6-1.4-3.8-2.1l-0.5-0.3
			c-0.7-0.4-1.4-0.7-2.1-1.1s-1.5-0.6-2.2-1s-1.5-0.6-2.2-1c-0.3-0.2-0.7-0.4-1-0.6c-0.1-0.1-0.3-0.2-0.4-0.3
			c-0.1-0.1-0.1-0.2-0.2-0.3c0-0.1,0-0.2,0.1-0.3c0.1-0.1,0.2-0.2,0.3-0.3c0.4-0.1,0.8-0.2,1.3-0.1l1.2,0.1l2.3,0.2
			c1.7,0.1,3.3,0.3,5,0.4c1.2,0.1,2.4,0.3,3.6,0.5s2.6,0.3,3.9,0.5l0.6,0.1l0,0c1,0.1,2,0.2,3,0.2s2,0.1,3.1,0
			c0.6,0,1.3-0.1,1.9-0.1s1.2-0.2,1.8-0.3s1-0.2,1.6-0.3s1-0.3,1.5-0.4c0.9-0.3,1.8-0.6,2.7-1c0.8-0.3,1.5-0.7,2.2-1.1
			s1.4-0.8,2.1-1.3c1.4-0.8,2.8-1.6,4.2-2.5l0.9-0.5h0.1l0.2-0.1l0,0c1.8-1.1,3.5-2.3,5.2-3.6c1-0.8,1.9-1.7,2.8-2.6l0.5-0.5
			c-1-0.5-1.9-1.1-2.9-1.6c-2.3-1.4-4.5-2.9-6.6-4.4l-1.3-0.9c0,0-0.1,0.1-0.1,0.1l-0.5,0.9c-0.8,1.3-1.6,2.6-2.4,3.8
			c-0.4,0.6-0.9,1.2-1.3,1.8c-0.5,0.6-1,1.2-1.6,1.7c-0.5,0.5-1.1,1-1.6,1.4c-0.6,0.5-1.2,0.9-1.9,1.4l-0.4,0.3l0,0
			c-0.7,0.4-1.4,0.9-2.2,1.2s-1.4,0.6-2.1,0.9c-0.4,0.1-0.8,0.3-1.2,0.4c-1.1,0.3-2.1,0.5-3.2,0.6c-1.5,0.1-3.1,0.1-4.6,0
			c-1.5-0.1-3-0.4-4.5-0.8c-2.2-0.5-4.3-1.2-6.4-2c-2.4-0.9-4.7-1.8-7-2.7l-4.3-1.5c-1.4-0.5-2.7-1-4.1-1.5
			c-0.4-0.1-0.8-0.3-1.2-0.4c-0.2,0-0.4-0.1-0.7-0.2c-0.2,0-0.3-0.2-0.3-0.3c0-0.2,0.1-0.3,0.3-0.3c0.2,0,0.4,0,0.6,0.1l0.6,0.1
			l1,0.2l2.2,0.4c1.5,0.3,3,0.5,4.4,0.6c0.6,0.1,1.3,0.2,1.9,0.2l0,0c2.2,0.2,4.4,0.3,6.7,0.2c0.6,0,1.3,0,1.9-0.1s1.3-0.1,2-0.3
			c0.5-0.1,1-0.2,1.5-0.3s0.9-0.2,1.4-0.4s1-0.3,1.5-0.5s1-0.4,1.5-0.6c0.7-0.3,1.3-0.6,1.9-0.9s1.3-0.7,1.9-1.1
			c1.3-0.7,2.5-1.5,3.8-2.2c1-0.6,2.1-1.1,3.2-1.6c0.6-0.3,1.1-0.5,1.7-0.7s1.2-0.4,1.7-0.6c0.7-0.2,1.4-0.4,2.1-0.5
			c0.4-0.1,0.8-0.1,1.2-0.1s0.7,0,1.1-0.1s0.9,0,1.3,0l-1.1-0.9c-1.1-0.9-2.1-1.8-3.2-2.7c-0.4-0.4-0.8-0.8-1.3-1.1
			c-0.1,0.1-0.2,0.2-0.3,0.3c-0.3,0.2-0.6,0.5-0.9,0.7c-0.3,0.2-0.7,0.4-1,0.6c-0.4,0.2-0.7,0.3-1.1,0.5c-0.3,0.1-0.7,0.3-1.1,0.4
			l-0.3,0.1c-0.7,0.2-1.3,0.3-2,0.4c-1.6,0.2-3.2,0.3-4.8,0.3c-1.6,0-3.1-0.2-4.6-0.6c-3-0.8-5.9-2.1-8.6-3.8
			c-0.9-0.6-1.9-1.2-2.8-1.9c-2.5-1.8-5-3.7-7.5-5.5c-1-0.8-2.1-1.5-3.1-2.3l0,0c-1.3-0.9-2.5-1.8-3.8-2.6l-2.1-1.4
			c-0.6-0.3-1.1-0.5-1.7-0.8s-1.1-0.6-1.6-0.9c-0.2-0.1-0.5-0.3-0.7-0.4s-0.2-0.2-0.3-0.3c-0.2-0.1-0.4-0.4-0.4-0.6
			c-0.1-0.2,0.1-0.5,0.3-0.5c0.2,0,0.5,0,0.7,0.1l0.5,0.2c0.3,0.2,0.7,0.4,1,0.6c0.7,0.4,1.3,0.8,1.9,1.1l0.9,0.6
			c0.9,0.4,1.8,0.7,2.7,1.1c1.3,0.5,2.7,0.9,4.1,1.3s2.8,0.8,4.2,1.1c1.1,0.2,2.2,0.5,3.3,0.6s2.3,0.3,3.5,0.4h0.1h0.3h0.2
			c1.5,0.1,3.1,0.2,4.6,0.3s3.1,0.1,4.6,0.3c1.3,0.1,2.6,0.4,3.9,0.8c1.3,0.4,2.5,0.9,3.6,1.5c0.4,0.2,0.9,0.5,1.3,0.7l-0.3-0.4
			c-1.7-2.1-3.3-4.3-4.9-6.5c-0.4-0.6-0.8-1.1-1.1-1.7l-0.1,0.1c-0.2,0.1-0.4,0.2-0.6,0.3c-0.2,0.1-0.4,0.2-0.6,0.2l-0.4,0.1
			c-0.8,0.2-1.5,0.3-2.3,0.3c-1.6,0-3.1-0.1-4.7-0.4c-0.4-0.1-0.8-0.2-1.2-0.3l-1-0.3c-0.8-0.2-1.5-0.5-2.3-0.7
			c-1.5-0.5-2.9-1.2-4.3-1.9c-1.4-0.7-2.8-1.6-4.1-2.5c-0.6-0.4-1.2-0.9-1.8-1.4s-1.3-1-1.9-1.6c-2.4-2.1-4.6-4.3-6.8-6.6
			c-1.1-1.1-2.1-2.3-3.2-3.4s-2-2.2-3.1-3.3l-2-2.3c-0.7-0.7-1.3-1.4-2-2.1c-0.2-0.2-0.4-0.4-0.6-0.5c-0.1-0.1-0.2-0.2-0.3-0.3l0,0
			c-0.1-0.1-0.1-0.3-0.1-0.4c0.1-0.2,0.3-0.4,0.5-0.3c0.2,0.1,0.4,0.1,0.6,0.3l0.5,0.3l1,0.6l2,1.2c1.3,0.8,2.7,1.6,4,2.4
			c0.9,0.5,1.8,1,2.7,1.5s1.7,0.9,2.6,1.3s1.9,0.8,2.9,1.2l0.5,0.2c1.4,0.5,2.9,1,4.3,1.5s2.9,0.9,4.4,1.5c0.7,0.3,1.4,0.5,2.1,0.8
			s1.3,0.6,2,0.9c1.4,0.7,2.8,1.5,4.1,2.4c0.9,0.6,1.7,1.2,2.6,1.9c0.8,0.7,1.6,1.4,2.4,2.1l0.3,0.3c-1-2-1.9-4-2.7-6.1
			c-0.1-0.3-0.3-0.6-0.4-0.9h-0.6c-0.7,0-1.4,0-2.1-0.1c-1.4-0.2-2.9-0.6-4.2-1.1c-0.5-0.2-1-0.4-1.5-0.6c-0.5-0.2-1-0.5-1.5-0.8
			c-1.3-0.7-2.6-1.6-3.7-2.5c-0.6-0.5-1.2-1-1.7-1.5s-1-1-1.4-1.5c-2-2.3-3.8-4.7-5.4-7.2c-1.6-2.5-3-5-4.4-7.6
			c-0.7-1.3-1.3-2.5-2-3.8s-1.3-2.6-2-3.8c-0.4-0.9-0.9-1.7-1.3-2.6s-0.9-1.6-1.4-2.4l-0.2-0.4c-0.1-0.2-0.2-0.4-0.3-0.6
			c-0.1-0.3,0-0.6,0.3-0.8c0.1-0.1,0.3-0.1,0.4-0.1c0.1,0,0.3,0.1,0.4,0.2c0.1,0.1,0.3,0.2,0.4,0.3l0.8,0.7l1.6,1.4
			c1.1,0.9,2.3,1.9,3.5,2.7l0.5,0.4c2.1,1.5,4.3,2.9,6.4,4.4l0,0l0.2,0.1l0.1,0.1h0.1l0,0l0,0c1.2,0.8,2.3,1.7,3.4,2.7
			c0.6,0.5,1.1,1,1.6,1.6s1,1.1,1.4,1.6c1.8,2.2,3.4,4.6,4.8,7.1l1.5,2.6c0.5,0.8,0.9,1.6,1.4,2.4s1.1,1.8,1.7,2.6
			c0.3,0.4,0.6,0.8,0.9,1.2s0.6,0.8,0.9,1.1l0,0l0,0l0,0c0.1,0.1,0.2,0.3,0.3,0.4c-0.4-1.1-0.7-2.2-1-3.4c-0.7-2.6-1.4-5.2-1.9-7.8
			l-0.3-0.3c-0.5-0.6-0.9-1.2-1.3-1.8c-0.4-0.6-0.7-1.3-1-1.9s-0.6-1.4-0.9-2.1c-0.5-1.4-0.9-2.9-1.2-4.4c-0.3-1.5-0.6-3-0.7-4.5
			c-0.1-0.7-0.2-1.5-0.2-2.2s-0.1-1.5-0.1-2.3c-0.1-1.5-0.1-3-0.1-4.5s0.1-3.2,0.3-4.7v-0.1c0-0.3,0-0.6,0.1-0.9l0,0l0,0
			c0.3-3,0.8-5.9,1.3-8.8c0.3-1.5,0.6-3,0.8-4.5c0.1-0.7,0.2-1.4,0.4-2.1l0.1-0.5c0-0.3,0.2-0.6,0.4-0.8c0.2-0.2,0.6-0.2,0.8,0
			c0.2,0.2,0.4,0.4,0.5,0.6c0.4,0.6,0.7,1.3,0.9,2c0.3,0.7,0.5,1.4,0.8,2.2c0.5,1.4,0.9,2.9,1.3,4.4c0.8,2.9,1.4,5.9,1.9,8.9
			c0.2,1.5,0.4,3,0.6,4.5s0.3,3.1,0.3,4.7c0.1,1.6,0,3,0,4.5s-0.2,3-0.3,4.5s-0.2,2.9-0.3,4.3s-0.3,2.9-0.6,4.3
			c0,0.2-0.1,0.4-0.1,0.6c-0.1,0.3-0.3,0.5-0.6,0.5h-0.1c0.2,0.9,0.4,1.7,0.6,2.6c0.1,0.6,0.3,1.1,0.4,1.6c0,0,0-0.1,0-0.1
			c0.1-0.4,0.1-0.7,0.2-1.1s0.2-0.8,0.2-1.1c0.2-0.6,0.3-1.3,0.5-1.9c0.1-0.3,0.2-0.6,0.3-0.9s0.2-0.6,0.3-1c0.5-1.3,1-2.6,1.6-3.9
			s1.2-2.6,1.9-3.8c1.3-2.4,2.7-4.8,4.2-7.2s2.9-4.6,4.3-6.9c0.3-0.6,0.7-1.2,1-1.7c0.1-0.2,0.2-0.4,0.4-0.6
			c0.2-0.2,0.4-0.3,0.7-0.2c0.2,0.1,0.4,0.4,0.3,0.6c0,0.2,0,0.4,0,0.7c-0.1,1.4-0.2,2.7-0.4,4.1c-0.3,2.7-0.7,5.4-1.2,8.1l-0.2,0.8
			c-0.3,1.3-0.6,2.7-0.9,4c-0.2,0.7-0.4,1.4-0.6,2.1s-0.4,1.3-0.6,1.9c-0.4,1.2-0.8,2.3-1.2,3.5c-0.1,0.2-0.2,0.4-0.2,0.6
			c-0.5,1.2-0.9,2.5-1.4,3.7l-0.8,1.9c-0.3,0.6-0.6,1.3-0.8,1.9l-0.3,0.7c-0.2,0.5-0.3,1.1-0.5,1.6s-0.3,1-0.4,1.5s-0.2,1-0.3,1.5
			s-0.2,1-0.2,1.5s-0.2,1.1-0.3,1.6c0,0.3-0.1,0.5-0.1,0.8l-0.2,0.7c-0.1,0.3-0.1,0.7-0.2,1c0.3,0.7,0.7,1.5,1,2.2l0.9,1.9
			c0.3,0.6,0.7,1.3,1,1.9s0.7,1.3,1.1,1.9c0-0.1,0.1-0.2,0.2-0.3c0.1,0,0.3,0.1,0.3,0.2c0,0.1,0,0.3-0.2,0.3c-0.1,0-0.1,0-0.2,0
			c0.3,0.5,0.6,1,0.9,1.5l0.1,0.1c-0.1-1-0.2-1.9-0.3-2.9c0-0.7,0-1.4,0-2s0-1.3,0.1-1.9l0.1-0.8l0,0c0-0.6,0.1-1.1,0.2-1.7
			s0.2-1.3,0.3-2s0.3-1.3,0.4-1.9s0.3-1.2,0.5-1.7c0.3-0.9,0.5-1.7,0.8-2.6l0,0V157c0.1-0.1,0.1-0.3,0.2-0.4c0.9-2.4,1.9-4.7,3.1-7
			c0.6-1.1,1.1-2.3,1.7-3.4l0,0c0,0,0-0.1,0-0.1c0,0,0-0.1,0.1-0.1c0,0,0-0.1,0-0.1c0.1-0.1,0.1-0.2,0.2-0.3l0,0l0,0l0,0l0,0l0,0
			l0.4-0.8c0.1-0.3,0.3-0.5,0.4-0.8c0.7-1.2,1.3-2.5,2-3.7l0.1-0.2l0.3-0.5v-0.1c0.6-1.1,1.1-2.3,1.7-3.4s1.1-2.2,1.6-3.4
			c0.3-0.6,0.6-1.3,0.9-2l0.4-1c0.1-0.1,0.1-0.3,0.2-0.5s0.1-0.2,0.1-0.3c0.1-0.1,0.2-0.2,0.3-0.3c0.2-0.1,0.3,0,0.5,0.1
			c0.1,0.2,0.2,0.4,0.2,0.6c0,0.2,0,0.3,0,0.5c0,0.3,0,0.6,0,0.9c0,0.6,0,1.2,0,1.8c0,1.2,0,2.5,0,3.7s-0.1,2.5-0.2,3.8
			s-0.2,2.5-0.4,3.8s-0.3,2.5-0.6,3.7s-0.4,2.5-0.6,3.7c-0.1,0.5-0.2,1-0.3,1.6s-0.3,1.3-0.4,1.9s-0.3,1.2-0.5,1.8
			c-0.3,1.2-0.8,2.4-1.2,3.6s-0.9,2.4-1.4,3.6s-1.1,2.2-1.7,3.3s-1.2,2.1-1.8,3.2s-1.3,2-2,3l-1.3,2c-0.2,0.3-0.4,0.7-0.7,1
			s-0.4,0.6-0.6,1v0.1c-0.1,0.3-0.3,0.6-0.4,0.8l0.4,0.6c1.1,1.4,2.2,2.8,3.3,4.2c0.6,0.7,1.3,1.5,1.9,2.2s1.4,1.5,2.1,2.2
			s1.3,1.3,2,2c-0.1-0.3-0.3-0.5-0.3-0.8c-0.2-0.7-0.4-1.4-0.6-2.1c-0.1-0.8-0.3-1.5-0.3-2.3c0-0.3,0-0.6-0.1-0.9c0-0.1,0-0.2,0-0.4
			c0-0.4,0-0.8,0-1.1s0-0.7,0-1.1c0-0.8,0.1-1.5,0.1-2.3c0.1-1.5,0.3-3,0.7-4.5c0.2-0.8,0.3-1.6,0.5-2.4s0.3-1.4,0.6-2.1
			s0.4-1.4,0.7-2.2s0.5-1.5,0.8-2.3c1-2.9,2.2-5.7,3.4-8.5c1.2-2.7,2.6-5.4,4.2-7.9c1.6-2.5,3.5-4.9,5.3-7.2
			c0.7-0.8,1.3-1.7,1.9-2.6c0.1-0.2,0.2-0.3,0.3-0.5c0.1-0.2,0.2-0.4,0.3-0.6c0.1-0.2,0.2-0.3,0.3-0.4c0.3-0.2,0.7-0.2,0.9,0
			c0.2,0.2,0.2,0.4,0.2,0.6l0,0c0,0.2-0.1,0.4-0.2,0.5l-0.2,0.5c-0.1,0.4-0.3,0.8-0.4,1.2c-0.2,0.8-0.4,1.5-0.6,2.3c0,0,0,0,0,0.1
			l0,0v0.1l0,0c0,0.1-0.1,0.3-0.1,0.4c-0.3,1.4-0.6,2.9-0.9,4.3s-0.6,3-1,4.5s-0.6,3-1,4.4s-0.6,2.9-0.9,4.4s-0.7,3.1-1,4.7
			c0,0,0,0.1,0,0.1l0,0v0.1l0,0c0,0.1,0,0.1,0,0.2v0.1c-0.3,1.4-0.7,2.9-1.1,4.3c-0.2,0.7-0.4,1.4-0.6,2s-0.5,1.4-0.7,2.2
			s-0.5,1.4-0.8,2.1s-0.6,1.4-1,2.1c-0.7,1.3-1.3,2.6-2.1,3.9c-0.6,1.1-1.3,2.2-1.9,3.3c-0.3,0.6-0.6,1.2-0.8,1.9v0.1l-0.2,0.7
			c-0.1,0.4-0.3,0.7-0.4,1.1c-0.1,0.3-0.2,0.6-0.4,0.9c-0.1,0.2-0.2,0.4-0.4,0.5c-0.1,0-0.1,0.1-0.2,0.1l0,0l0.7,0.6
			c1.7,1.5,3.4,2.9,5.2,4.3c1.2,0.9,2.4,1.8,3.6,2.7c0-0.2,0-0.3-0.1-0.5c-0.1-0.4-0.1-0.8-0.2-1.1c-0.1-0.8-0.1-1.6-0.1-2.4
			c0-1.7,0.1-3.5,0.2-5.2c0,0,0,0,0-0.1c0.1-0.8,0.2-1.7,0.2-2.5c0.1-0.8,0.2-1.5,0.3-2.3c0.2-1.6,0.4-3.2,0.8-4.8s0.7-3.2,1.1-4.8
			s0.9-3,1.4-4.5c0.1-0.2,0.1-0.4,0.2-0.6l0,0l0,0l0,0l0,0l0,0c1.1-3,2.3-6,3.6-8.9c1.3-2.9,2.6-5.8,4-8.7c0.6-1.2,1.2-2.4,1.8-3.6
			s1.1-2.3,1.5-3.5c0-0.2,0.1-0.3,0.2-0.4c0.2-0.2,0.4-0.2,0.6-0.1c0.4,0.2,0.5,0.7,0.6,1.1s0.1,0.8,0.1,1.1
			c0.1,0.8,0.2,1.6,0.3,2.4c0.2,1.5,0.4,3.1,0.5,4.6c0,0.4,0.1,0.9,0.1,1.3v0.1c0.1,1.6,0.1,3.1,0,4.7c-0.1,1.6-0.3,3.2-0.6,4.8
			c-0.3,1.6-0.6,3.2-1,4.8s-0.7,3.1-1.2,4.6s-0.9,3.1-1.5,4.6s-1.2,3.1-1.9,4.6s-1.4,2.8-2.2,4.2c-0.4,0.7-0.7,1.4-1.1,2
			s-0.8,1.3-1.2,2c-0.9,1.6-1.9,3.1-2.8,4.8c-0.2,0.4-0.4,0.7-0.5,1.1s-0.3,0.8-0.5,1.3c-0.1,0.2-0.2,0.5-0.2,0.7
			c0,0.2-0.1,0.3-0.2,0.5l-0.1,0.1c1.2,0.8,2.4,1.6,3.6,2.3c1.4,0.9,2.8,1.6,4.3,2.4c0.8,0.4,1.6,0.8,2.5,1.2c0,0,0-0.1,0-0.1
			c-0.2-0.8-0.3-1.5-0.3-2.3c0-0.8,0-1.6,0-2.4c0-0.8,0.1-1.6,0.2-2.5c0.1-1,0.3-2,0.5-3c0-0.1,0-0.1,0-0.2c0-0.1,0-0.1,0.1-0.2
			c0-0.1,0-0.1,0-0.2c0.2-0.8,0.4-1.6,0.6-2.4s0.4-1.5,0.7-2.3s0.5-1.5,0.8-2.3s0.7-1.6,1-2.3c1.3-2.9,2.8-5.8,4.4-8.6
			c1.6-2.8,3.4-5.5,5.1-8.3c0.9-1.4,1.8-2.8,2.6-4.3s1.6-2.8,2.4-4.2c0.2-0.4,0.4-0.8,0.6-1.2c0.8-1.4,1.5-2.9,2.1-4.4
			c0.3-0.7,0.6-1.4,0.9-2.1s0.6-1.5,0.9-2.2c0.1-0.2,0.2-0.4,0.2-0.6c0.2-0.4,0.3-0.8,0.4-1.2l0.2-0.6c0-0.1,0.1-0.2,0.1-0.3
			c0-0.2,0.1-0.3,0.2-0.4c0.2-0.2,0.4-0.3,0.7-0.2c0.1,0.1,0.2,0.1,0.3,0.3c0.1,0.1,0.1,0.2,0.1,0.4c0,0.2,0.1,0.4,0.1,0.6
			c0.1,0.4,0.1,0.8,0.2,1.1c0.1,0.8,0.2,1.6,0.2,2.3c0.2,1.6,0.4,3.2,0.6,4.8c0.1,0.8,0.1,1.6,0.2,2.4c0,0.4,0,0.8,0,1.2
			s0,0.9,0,1.4c0,0.8-0.2,1.7-0.2,2.5c0,0.4-0.1,0.8-0.2,1.2s-0.2,0.8-0.3,1.3c-0.2,0.8-0.4,1.6-0.6,2.4s-0.5,1.5-0.8,2.3
			c-0.6,1.6-1.2,3.1-2,4.5l-0.4,0.8c0,0,0,0.1,0,0.1l0,0c-0.5,0.9-1,1.9-1.6,2.8s-1.1,1.8-1.7,2.6c-0.9,1.3-1.8,2.6-2.8,3.9
			s-2,2.6-3,3.9c-0.6,0.8-1.3,1.7-1.9,2.5s-1.2,1.6-1.8,2.5c-0.7,1-1.4,2.1-2.1,3.2s-1.3,2.1-1.8,3.1v0.1l0,0l0,0l0,0l0,0l-0.1,0.1
			c-0.8,1.4-1.5,2.9-2.1,4.4c-0.2,0.4-0.3,0.8-0.4,1.3l0.3,0.1c1.8,0.7,3.7,1.4,5.5,2.1c2.4,0.9,4.8,1.7,7.3,2.4
			c1.2,0.3,2.4,0.6,3.7,0.9l3.6,0.9l1.9,0.4c0.7,0.1,1.3,0.2,2,0.3c1.3,0.2,2.6,0.3,3.9,0.5l3.8,0.5c1.3,0.2,2.6,0.3,3.9,0.5l2,0.2
			l1.8,0.2h0.3c1.7,0.1,3.4,0.2,5.1,0.2"/>
		<path class="st4" d="M1672,67.3c17.6-5.4,36.6-5.2,53.7,1.7c15.5,6.3,28.5,17.4,37.3,31.7c9.7,15.9,12.6,34.3,11.7,52.7
			c-0.5,9.7-1.7,19.3-3.4,28.9c-1.6,9.2-3.3,18.5-5.7,27.5c-2.6,10.5-6.9,20.6-12.6,29.8c-5.7,9-12.8,16.9-19.5,25.1
			c-0.1,0.2,0.1,0.4,0.2,0.2c6.5-6.8,12.6-14.1,18-21.8c5.4-7.9,9.6-16.6,12.5-25.7c3.2-9.7,5.2-19.7,7-29.6
			c1.9-9.6,3.3-19.3,4.1-29.1c1.5-18.5-0.3-37.6-9.1-54.3c-18-34-58-50-94.4-37.6C1671.6,67,1671.7,67.4,1672,67.3"/>
		<path class="st5" d="M1474.9,116.8c-24.5,2.4-50.1,12.2-66.4,31.3c-4,4.7-7.2,9.6-8.9,15.5c-1.8,6.3-2.8,12.8-2.8,19.3
			c-0.2,13.2,2.8,26.2,8.6,38.1c4.8,9.7,12.1,17.9,21,24c8.7,5.9,19.7,10,30.2,6.7c3-1,5.5-2.3,7-5.3s1.8-6.9-0.2-9.7
			c-2.9-4.2-10.1-3.7-13.7-0.9c-4.2,3.2-4.2,9.1-2.9,13.8c1.2,4,3.4,7.7,6.3,10.7c7.6,7.9,18.8,12.3,29.5,13.8
			c11.3,1.5,23.5-0.2,32.7-7.4c0.1-0.1,0.3-0.1,0.4,0.1c0.1,0.1,0.1,0.3-0.1,0.4c-16.5,13.4-44,9.6-59.8-3.2
			c-6.7-5.4-12.5-14.4-10.2-23.4c2.1-8.2,16.7-11.2,19.4-1.9c1.3,4.6-0.8,10.5-5.2,12.6c-4.9,2.3-10.3,3-15.6,2.3
			c-11.3-1.6-21.4-8.7-29.1-16.8c-18.3-19.2-24.1-50.4-16-75.4c2.1-6.4,6.5-11.9,11-16.6c4.7-4.9,10-9.2,15.8-12.7
			c11.8-7.3,25-12.3,38.7-14.6c3.3-0.6,6.6-1,9.9-1.2c0.4,0,0.5,0.6,0.1,0.7"/>
		<path class="st6" d="M1488.4,121.5c0.8-0.6,1.5-1.1,2.3-1.7c2.1-1.6,4.2-3.2,6.3-4.8c4.4-3.1,8.6-6.4,12.7-9.9
			c0.8-0.6,1.6-1.3,2.3-1.9c0.2-0.3,1.2-0.8,0.6-1c-0.1-0.4-0.5-0.3-0.8-0.3l0,0c-0.8,0.1-1.7,0.2-2.5,0.5c-2.5,0.4-4.9,1-7.3,1.7
			c-2.5,0.8-5,1.7-7.5,2.4c-3,0.8-6.1,1.5-9.2,1.8c-0.9-1-0.4,3.5-0.5,3.9c0,0.9-0.2,1.8-0.2,2.7c-0.1,0.6-0.1,1.3,0,1.9
			c-0.2,0.3,0.2,0.7,0.2,1c0.5,1.1,1,2.2,1.7,3.3C1487.4,122.3,1487.9,121.9,1488.4,121.5"/>
		<path class="st7" d="M1475.8,121.5c0.8,0.3,2-0.2,2.8-0.4l0,0c6.2-2.1,11.7-5.7,17.4-8.9c3.9-2.3,8-4.3,11.9-6.7
			c1.3-0.8,2.5-1.7,3.8-2.4c0.4-0.1,1.7-0.5,0.8-1c-1.6-0.2-3.2-0.4-4.8-0.6c-1.9-0.2-3.8-0.5-5.7-0.7c-3.2-0.4-6.4-0.7-9.7-1
			c-2.4-0.2-4.8-0.3-7.2-0.6c-1.9-0.3-3.8-0.4-5.7-0.5c-0.6,0-1.6-0.1-2,0.2c-0.1,0.2,4.3,5.7,6.2,8.5l0,0c0.3,0.4,0.6,0.9,1,1.3
			c0.3,0.6,1.3,0.3,1.8,0.3c1.8-0.3,3.6-0.8,5.4-1.3c4.8-1.3,9.6-2.4,14.4-3.4c-6.8,2.1-21.1,5.9-21.2,6c-0.6,0.6-1.2,1.3-1.8,1.9
			c-1.3,1.4-2.5,2.8-3.8,4.3c-0.9,1.1-1.8,2.2-2.8,3.3c-0.3,0.3-0.6,0.7-0.8,1.1c-0.2,0.1-0.2,0.4-0.1,0.5
			C1475.8,121.4,1475.8,121.4,1475.8,121.5"/>
		<path class="st8" d="M1781.1,278.7c2.2-1.1,0.9-19.2,0-20.1s-115.2,0-115.2,0s-2,21.5,0,21.5S1779.9,279.2,1781.1,278.7"/>
		<path class="st9" d="M1783.4,280c0.1-0.9,0.3-3,0-3.2s-119.1,1.6-119.1,1.6v3L1783.4,280z"/>
		<path class="st9" d="M1664.4,258.6c-0.1,0.9-0.3,3,0,3.2s117.8-1.6,117.8-1.6v-3L1664.4,258.6z"/>
		<path class="st10" d="M1780.8,270.7c0,0-113,2.4-113.2,1.8S1780.8,270.7,1780.8,270.7"/>
		<path class="st10" d="M1780.2,268.2c0,0-113,2.4-113.2,1.8S1780.2,268.2,1780.2,268.2"/>
		<path class="st10" d="M1780.8,266.1c-3.8-0.1-113.5,1.9-113.2,0.7S1780.8,266.1,1780.8,266.1"/>
		<path class="st10" d="M1667.6,276c3.8,0.1,113.5-1.9,113.2-0.7S1667.6,276,1667.6,276"/>
		<path class="st8" d="M1774.1,175.1c2.2-1.1,0.9-19.2,0-20.1s-115.2,0-115.2,0s-2,21.5,0,21.5S1772.9,175.7,1774.1,175.1"/>
		<path class="st11" d="M1776.4,176.4c0.1-0.9,0.3-3,0-3.2s-119.1,1.6-119.1,1.6v3L1776.4,176.4z"/>
		<path class="st11" d="M1657.5,155c-0.1,0.9-0.3,3,0,3.2s117.8-1.6,117.8-1.6v-3L1657.5,155z"/>
		<path class="st10" d="M1773.8,167.1c0,0-113,2.4-113.2,1.8S1773.8,167.1,1773.8,167.1"/>
		<path class="st10" d="M1773.2,164.6c0,0-113,2.4-113.2,1.8S1773.2,164.6,1773.2,164.6"/>
		<path class="st10" d="M1773.8,162.5c-3.8-0.1-113.5,1.9-113.2,0.7S1773.8,162.5,1773.8,162.5"/>
		<path class="st10" d="M1660.6,172.4c3.8,0.1,113.5-1.9,113.2-0.7S1660.6,172.4,1660.6,172.4"/>
		<path class="st10" d="M1780.4,204.1c1.8-2.1,0.2-24.4-0.9-24.8s-115.8,1.1-115.8,1.1s0.4,24,1.3,24.7S1779.1,205.8,1780.4,204.1"
			/>
		<path class="st12" d="M1781.9,205.6c0,0,0.8-4,0-4.5s-118.1,1.6-118.1,1.6s-0.6,4.2,0,4.2L1781.9,205.6"/>
		<path class="st12" d="M1781.2,177.8c0,0,0.8,4,0,4.5s-118.1-0.2-118.1-0.2s-0.7-4.2,0-4.2L1781.2,177.8"/>
		<path class="st8" d="M1780.6,196.4c0,0-114.9,2.4-115,1.8S1780.6,196.4,1780.6,196.4"/>
		<path class="st8" d="M1780.6,191.7c-3.9-0.1-115.3,1.9-115,0.7S1780.6,191.7,1780.6,191.7"/>
		<path class="st8" d="M1665.5,187.8c1.9-0.1,113.3-1.7,113.3-1.7v1.7H1665.5z"/>
		<path class="st10" d="M1781.1,233.3c0.1-1.2,1-11.6,0-12s-108.5,0.3-108.5,0.7v12.8C1672.5,234.9,1780.9,234.3,1781.1,233.3"/>
		<path class="st11" d="M1782,234.9c0.1-0.9,0.3-3,0-3.2s-110.1,1.6-110.1,1.6v3L1782,234.9z"/>
		<path class="st11" d="M1672.1,221.5c-0.1,0.9-0.3,3,0,3.2s110-1.6,110-1.6v-3L1672.1,221.5z"/>
		<path class="st8" d="M1780.7,231.2c-3.6-0.1-105.9,1.9-105.6,0.7S1780.7,231.2,1780.7,231.2"/>
		<path class="st8" d="M1675,227.3c1.7-0.1,104-1.7,104-1.7v1.7H1675z"/>
		<path class="st10" d="M1775,341.4c0.1-1.2,1-11.5,0-12s-108.5,0.3-108.5,0.7V343C1666.5,343,1774.9,342.4,1775,341.4"/>
		<path class="st12" d="M1775.9,343c0.1-0.9,0.3-3,0-3.2s-110,1.6-110,1.6v3L1775.9,343z"/>
		<path class="st12" d="M1666,329.6c-0.1,0.9-0.3,3,0,3.2s110-1.6,110-1.6v-3L1666,329.6z"/>
		<path class="st8" d="M1774.6,339.4c-3.6-0.1-105.9,1.9-105.6,0.7S1774.6,339.4,1774.6,339.4"/>
		<path class="st8" d="M1668.9,335.5c1.7-0.1,104-1.7,104-1.7v1.7H1668.9z"/>
		<path class="st13" d="M1772.9,220.5c-0.1-2.4,0-12.3-0.7-13.2s-106.3,0-106.3,0v13.2C1665.9,220.5,1772.9,221.2,1772.9,220.5"/>
		<path class="st14" d="M1678,219.8c0,0,0.4-11.5,0-11.5s-3.9-0.4-3.9,0s-0.4,11.8,0,11.5S1678,219.8,1678,219.8"/>
		<path class="st14" d="M1683.5,219.7c0,0,0.4-11.5,0-11.5s-3.9-0.4-3.9,0s-0.4,11.8,0,11.5S1683.5,219.7,1683.5,219.7"/>
		<path class="st15" d="M1767.6,219.8c0.3-1.1,0-11.8,0-11.8h-1.7v11.7L1767.6,219.8z"/>
		<path class="st15" d="M1759.3,213.9c0,0-26.9,3.3-35.8,3.1s-33.8-2.6-34.1-3.1s33.6-2.1,34.3-2.2S1759.3,213.9,1759.3,213.9"/>
		<path class="st16" d="M1779.6,256.7c2.2-1.1,0.9-19.2,0-20.1s-115.2,0-115.2,0s-2,21.5,0,21.5S1778.5,257.3,1779.6,256.7"/>
		<path class="st17" d="M1751.2,248.3v-1c0,0-63.5,0.1-63.6,0.2c0,0.3,0,0.6,0,0.9L1751.2,248.3z"/>
		<path class="st18" d="M1764.3,252.8c0,0,0.4-11.5,0-11.5s-3.8-0.4-3.8,0s-0.4,11.8,0,11.5S1764.3,252.8,1764.3,252.8"/>
		<path class="st19" d="M1680,257.6c0,0,0.3-20.3-0.3-20.5c-0.7-0.1-1.4-0.2-2.1-0.1l0.1,20.5L1680,257.6z"/>
		<path class="st9" d="M1671.8,257.3c0,0,0.3-20.3-0.3-20.5c-0.7-0.1-1.3-0.2-2-0.1l0.1,20.5L1671.8,257.3z"/>
		<path class="st19" d="M1683.5,257.6c0,0,0.3-20.3-0.3-20.5c-0.7-0.1-1.4-0.2-2.1-0.1l0.1,20.5L1683.5,257.6z"/>
		<path class="st17" d="M1776.9,247c0,3.9-5.4,6.9-7.9,4.6s-2.4-7.4,1.5-8.8C1773,241.9,1776.9,243.6,1776.9,247"/>
		<path class="st20" d="M1784.2,307c6.6-4,1.2-26,0-26.4s-115.2,1.8-115.2,1.8s-1.8,24.1-0.9,24.8S1782.3,308.1,1784.2,307"/>
		<path class="st21" d="M1759.6,297.8v-1.9c0,0-72.2,0.2-72.3,0.4c0,0.6,0,1.2,0,1.8L1759.6,297.8z"/>
		<path class="st21" d="M1759.9,293.8v-1.9c0,0-72.2,0.2-72.3,0.4c0,0.6,0,1.2,0,1.8L1759.9,293.8z"/>
		<path class="st5" d="M1780,305.9c0,0,0.5-23.4-0.2-23.6c-0.7-0.1-1.3-0.2-2-0.1l-0.1,23.6L1780,305.9z"/>
		<path class="st5" d="M1765.2,305.7c0,0,0.4-23.4-0.2-23.6c-0.7-0.1-1.4-0.2-2.1-0.1l-0.1,23.6L1765.2,305.7z"/>
		<path class="st5" d="M1682,306.9c0,0,0.5-23.4-0.2-23.6c-0.7-0.1-1.4-0.2-2.1-0.1l-0.1,23.6L1682,306.9z"/>
		<path class="st5" d="M1685.4,306.9c0,0,0.5-23.4-0.2-23.6c-0.7-0.1-1.3-0.2-2-0.1l-0.1,23.6L1685.4,306.9z"/>
		<path class="st22" d="M1786.5,327.3c2.2-1.1,0.9-19.2,0-20.1s-115.2,0-115.2,0s-2,21.5,0,21.5S1785.4,327.9,1786.5,327.3"/>
		<path class="st23" d="M1758.1,318.9V318c0,0-63.5,0.1-63.6,0.2c0,0.3,0,0.6,0,0.9L1758.1,318.9z"/>
		<path class="st16" d="M1771.2,323.4c0,0,0.4-11.5,0-11.5s-3.9-0.4-3.9,0s-0.4,11.8,0,11.5S1771.2,323.4,1771.2,323.4"/>
		<path class="st19" d="M1686.9,328.1c0,0,0.3-20.3-0.3-20.5c-0.7-0.1-1.3-0.2-2-0.1l0.1,20.5L1686.9,328.1z"/>
		<path class="st9" d="M1678.7,327.9c0,0,0.3-20.3-0.3-20.5c-0.7-0.1-1.4-0.2-2.1-0.1l0.1,20.5L1678.7,327.9z"/>
		<path class="st19" d="M1690.3,328.2c0,0,0.3-20.3-0.3-20.5c-0.7-0.1-1.4-0.2-2.1-0.1l0.1,20.5L1690.3,328.2z"/>
		<path class="st23" d="M1783.8,317.6c0,3.9-5.4,6.9-7.9,4.6s-2.4-7.4,1.5-8.8C1779.9,312.5,1783.8,314.2,1783.8,317.6"/>
		<path class="st10" d="M1490.7,287.5c-0.1,1.1-0.9,10.5,0,10.9s98.9-0.3,98.9-0.7V286C1589.5,286,1490.8,286.5,1490.7,287.5"/>
		<path class="st24" d="M1489.8,286c-0.1,0.8-0.3,2.7,0,2.9s100.3-1.5,100.3-1.5v-2.7L1489.8,286z"/>
		<path class="st24" d="M1589.9,298.3c0.1-0.8,0.3-2.7,0-2.9s-100.3,1.5-100.3,1.5v2.7L1589.9,298.3z"/>
		<path class="st8" d="M1491,289.4c3.3,0.1,96.5-1.7,96.2-0.6S1491,289.4,1491,289.4"/>
		<path class="st8" d="M1587.2,292.9c-1.6,0.1-94.8,1.6-94.8,1.6v-1.6H1587.2z"/>
		<path class="st8" d="M1487.8,254.7c-2,1-0.8,17.5,0,18.3s105,0,105,0s1.8-19.6,0-19.6S1488.9,254.1,1487.8,254.7"/>
		<path class="st24" d="M1485.7,253.5c-0.1,0.8-0.3,2.7,0,2.9s108.5-1.4,108.5-1.4v-2.7L1485.7,253.5z"/>
		<path class="st24" d="M1594,272.9c0.1-0.8,0.3-2.7,0-2.9s-107.3,1.5-107.3,1.5v2.7L1594,272.9z"/>
		<path class="st10" d="M1488.1,261.9c0,0,103-2.2,103.1-1.6S1488.1,261.9,1488.1,261.9"/>
		<path class="st10" d="M1488.6,264.2c0,0,103-2.2,103.1-1.6S1488.6,264.2,1488.6,264.2"/>
		<path class="st10" d="M1488.1,266.1c3.5,0.1,103.4-1.7,103.1-0.6S1488.1,266.1,1488.1,266.1"/>
		<path class="st10" d="M1591.2,257.1c-3.5-0.1-103.4,1.7-103.1,0.6S1591.2,257.1,1591.2,257.1"/>
		<path class="st12" d="M1492.8,274.1c-0.1,1-0.9,10.5,0,10.9s98.9-0.3,98.9-0.6v-11.7C1591.6,272.6,1492.9,273.1,1492.8,274.1"/>
		<path class="st21" d="M1496,277.5v3.5c0,0,76.8-0.4,76.9-0.7s0-3.4,0-3.4L1496,277.5z"/>
		<path class="st21" d="M1575.6,276.8v3.5c0,0,6.5,0.2,6.5-0.1v-3.4L1575.6,276.8z"/>
		<path class="st12" d="M1487.3,298.4c-6,3.6-1.1,23.7,0,24s104.9-1.7,104.9-1.7s1.7-21.9,0.9-22.6S1489.1,297.4,1487.3,298.4"/>
		<path class="st25" d="M1509.7,306.8v1.7c0,0,65.8-0.2,65.8-0.3c0-0.6,0-1.1,0-1.7L1509.7,306.8z"/>
		<path class="st25" d="M1509.5,310.4v1.7c0,0,65.8-0.2,65.8-0.3c0-0.6,0-1.1,0-1.7L1509.5,310.4z"/>
		<path class="st5" d="M1491.2,299.4c0,0-0.4,21.3,0.2,21.5c0.6,0.1,1.2,0.2,1.9,0.1l0.1-21.5L1491.2,299.4z"/>
		<path class="st5" d="M1504.6,299.6c0,0-0.4,21.3,0.2,21.5c0.6,0.1,1.2,0.2,1.9,0.1l0.1-21.5L1504.6,299.6z"/>
		<path class="st5" d="M1580.4,298.5c0,0-0.4,21.3,0.2,21.5c0.6,0.1,1.2,0.2,1.9,0.1l0.1-21.5L1580.4,298.5z"/>
		<path class="st5" d="M1577.3,298.5c0,0-0.4,21.3,0.2,21.5c0.6,0.1,1.2,0.2,1.9,0.1l0.1-21.5L1577.3,298.5z"/>
		<path class="st25" d="M1494.3,301.8c0.8-0.1,9.4-0.3,9.4,0v3.9c0,0-9.6,0.3-9.4,0C1494.4,304.4,1494.4,303.1,1494.3,301.8"/>
		<path class="st25" d="M1494.3,308.1c0.8-0.1,9.4-0.3,9.4,0v3.9c0,0-9.6,0.3-9.4,0C1494.4,310.7,1494.4,309.4,1494.3,308.1"/>
		<path class="st25" d="M1494.3,314.5c0.8-0.1,9.4-0.3,9.4,0v3.9c0,0-9.6,0.3-9.4,0C1494.4,317,1494.4,315.7,1494.3,314.5"/>
		<path class="st5" d="M1491.8,323.3c-2,1-0.8,17.5,0,18.3s105,0,105,0s1.8-19.6,0-19.6S1492.9,322.8,1491.8,323.3"/>
		<path class="st26" d="M1505.8,326.9c0,0-0.4,10.5,0,10.5s3.5,0.4,3.5,0s0.4-10.8,0-10.5S1505.8,326.9,1505.8,326.9"/>
		<path class="st19" d="M1582.5,322.5c0,0-0.3,18.5,0.3,18.7c0.6,0.1,1.2,0.1,1.9,0.1l-0.1-18.7L1582.5,322.5z"/>
		<path class="st19" d="M1590,322.8c0,0-0.3,18.5,0.3,18.7c0.6,0.1,1.3,0.1,1.9,0.1l-0.1-18.7L1590,322.8z"/>
		<path class="st19" d="M1579.4,322.5c0,0-0.3,18.5,0.3,18.7c0.6,0.1,1.2,0.1,1.9,0.1l-0.1-18.7L1579.4,322.5z"/>
		<path class="st26" d="M1494.3,332.2c0-3.5,4.9-6.3,7.2-4.2s2.2,6.7-1.4,8C1497.8,336.8,1494.3,335.3,1494.3,332.2"/>
		<path class="st13" d="M1480.3,241.8c-0.1,1.1-0.9,10.5,0,10.9s98.9-0.3,98.9-0.7v-11.7C1579.2,240.3,1480.4,240.9,1480.3,241.8"/>
		<path class="st15" d="M1483.6,245.2v3.5c0,0,76.8-0.4,76.9-0.7s0-3.4,0-3.4L1483.6,245.2z"/>
		<path class="st15" d="M1563.2,244.6v3.4c0,0,6.5,0.2,6.5-0.1s0-3.4,0-3.4L1563.2,244.6z"/>
		<path class="st8" d="M1573.4,292.1c-2.3,1.2-1,20.2,0,21.1s121.1,0,121.1,0s2.1-22.6,0-22.6S1574.6,291.5,1573.4,292.1"/>
		<path class="st9" d="M1571,290.8c-0.1,0.9-0.4,3.1,0,3.3s125.1-1.7,125.1-1.7v-3.1L1571,290.8z"/>
		<path class="st9" d="M1696,313.2c0.1-0.9,0.4-3.1,0-3.3s-123.8,1.7-123.8,1.7v3.1L1696,313.2z"/>
		<path class="st10" d="M1573.7,300.5c0,0,118.8-2.5,118.9-1.9S1573.7,300.5,1573.7,300.5"/>
		<path class="st10" d="M1574.3,303.1c0,0,118.8-2.5,118.9-1.9S1574.3,303.1,1574.3,303.1"/>
		<path class="st10" d="M1573.7,305.3c4,0.1,119.2-2,118.9-0.8S1573.7,305.3,1573.7,305.3"/>
		<path class="st10" d="M1692.7,295c-4-0.2-119.2,1.9-118.9,0.7S1692.7,295,1692.7,295"/>
		<path class="st10" d="M1573.4,339.8c-0.1,1.2-1.1,12.1,0,12.6s114-0.3,114-0.8v-13.5C1687.4,338.1,1573.5,338.7,1573.4,339.8"/>
		<path class="st11" d="M1572.5,338.1c-0.1,0.9-0.3,3.1,0,3.3s115.6-1.7,115.6-1.7v-3.1L1572.5,338.1z"/>
		<path class="st11" d="M1688,352.2c0.1-1,0.3-3.1,0-3.3s-115.6,1.7-115.6,1.7v3.1L1688,352.2z"/>
		<path class="st8" d="M1573.9,342c3.8,0.1,111.3-2,111-0.7S1573.9,342,1573.9,342"/>
		<path class="st8" d="M1684.9,346.1c-1.8,0.1-109.3,1.8-109.3,1.8v-1.8H1684.9z"/>
		<path class="st10" d="M1579.8,226.2c-0.1,1.2-1.1,12.1,0,12.6s114-0.3,114-0.8v-13.5C1693.8,224.5,1579.9,225.1,1579.8,226.2"/>
		<path class="st8" d="M1580.3,228.4c3.8,0.1,111.3-2,111-0.8S1580.3,228.4,1580.3,228.4"/>
		<path class="st8" d="M1691.3,232.4c-1.8,0.1-109.3,1.8-109.3,1.8v-1.8H1691.3z"/>
		<path class="st16" d="M1575,315.2c-2.3,1.2-0.9,20.2,0,21.1s121.1,0,121.1,0s2.1-22.6,0-22.6S1576.2,314.6,1575,315.2"/>
		<path class="st17" d="M1604.8,324v1c0,0,66.7-0.1,66.8-0.2c0-0.3,0-0.7,0-1L1604.8,324z"/>
		<path class="st18" d="M1591.1,319.3c0,0-0.4,12.1,0,12.1s4.1,0.5,4.1,0s0.4-12.4,0-12.1S1591.1,319.3,1591.1,319.3"/>
		<path class="st18" d="M1679.6,314.3c0,0-0.3,21.3,0.3,21.6c0.7,0.1,1.4,0.2,2.2,0.1l-0.1-21.5L1679.6,314.3z"/>
		<path class="st17" d="M1688.2,314.5c0,0-0.3,21.3,0.3,21.6c0.7,0.1,1.4,0.2,2.2,0.1l-0.1-21.5L1688.2,314.5z"/>
		<path class="st18" d="M1676,314.3c0,0-0.3,21.3,0.3,21.6c0.7,0.1,1.4,0.2,2.2,0.1l-0.1-21.5L1676,314.3z"/>
		<path class="st17" d="M1577.8,325.4c0-4.1,5.7-7.2,8.3-4.9s2.5,7.7-1.6,9.2C1581.9,330.8,1577.8,329,1577.8,325.4"/>
		<path class="st20" d="M1570.2,262.4c-6.9,4.2-1.2,27.3,0,27.7s121-2,121-2s1.9-25.3,1-26S1572.2,261.2,1570.2,262.4"/>
		<path class="st21" d="M1596,272v2c0,0,75.8-0.2,75.9-0.4c0.1-0.6,0.1-1.3,0-1.9L1596,272z"/>
		<path class="st21" d="M1595.7,276.2v2c0,0,75.8-0.2,75.9-0.4c0.1-0.6,0.1-1.3,0-1.9L1595.7,276.2z"/>
		<path class="st5" d="M1574.6,263.5c0,0-0.5,24.6,0.2,24.8c0.7,0.2,1.4,0.2,2.2,0.1l0.1-24.8L1574.6,263.5z"/>
		<path class="st5" d="M1590.1,263.7c0,0-0.5,24.6,0.2,24.8c0.7,0.2,1.4,0.2,2.2,0.1l0.1-24.8L1590.1,263.7z"/>
		<path class="st5" d="M1677.5,262.5c0,0-0.5,24.6,0.2,24.8c0.7,0.2,1.4,0.2,2.2,0.1l0.1-24.8L1677.5,262.5z"/>
		<path class="st5" d="M1673.9,262.5c0,0-0.5,24.6,0.2,24.8c0.7,0.2,1.4,0.2,2.2,0.1l0.1-24.8L1673.9,262.5z"/>
		<path class="st22" d="M1567.7,241c-2.3,1.2-0.9,20.2,0,21.1s121.1,0,121.1,0s2.1-22.6,0-22.6S1568.9,240.4,1567.7,241"/>
		<path class="st23" d="M1597.6,249.8v1c0,0,66.7-0.1,66.8-0.2c0-0.3,0-0.6,0-0.9L1597.6,249.8z"/>
		<path class="st16" d="M1583.8,245.1c0,0-0.4,12.1,0,12.1s4.1,0.5,4.1,0s0.4-12.4,0-12.1S1583.8,245.1,1583.8,245.1"/>
		<path class="st16" d="M1672.4,240.1c0,0-0.3,21.3,0.3,21.6c0.7,0.1,1.4,0.2,2.2,0.1l-0.1-21.6L1672.4,240.1z"/>
		<path class="st23" d="M1681,240.4c0,0-0.3,21.3,0.3,21.6c0.7,0.1,1.4,0.2,2.2,0.1l-0.1-21.6L1681,240.4z"/>
		<path class="st16" d="M1668.7,240.1c0,0-0.3,21.3,0.3,21.6c0.7,0.1,1.4,0.2,2.2,0.1l-0.1-21.6L1668.7,240.1z"/>
		<path class="st23" d="M1570.6,251.2c0-4.1,5.7-7.3,8.3-4.9s2.5,7.7-1.6,9.2C1574.6,256.6,1570.6,254.8,1570.6,251.2"/>
		<path class="st27" d="M1685.3,116.3c0,0.1,0,0.3-0.1,0.4c-0.6,8.8-1.6,17.6-2.1,26.4c-0.7,11.4-1.2,22.8-2.3,34.1
			c0.7,1.4-4,2.3-5,2.6c-4.2,1.3-8.6,1.5-12.8,0.6c-2.9-0.6-5.9-1.3-8.4-3c-0.7,0.2-0.6-0.9-0.7-1.3c-0.1-0.9-0.2-1.8-0.3-2.6
			c-0.3-3.7-0.6-7.4-0.9-11.2c-1.3-15.1-2.4-30.3-3.9-45.4c-1.4-1.1,4.7-0.7,5.2-0.8c6.4-0.2,12.7-0.1,19.1-0.3h-0.1
			c1.5,0,3,0,4.5,0l0,0c1.9,0,3.7,0,5.6,0C1683.7,115.9,1685.1,115.4,1685.3,116.3"/>
		<path class="st28" d="M1682.8,106.5L1682.8,106.5L1682.8,106.5 M1689.9,114.7c-0.1,1.3-0.2,2.6-0.4,3.9c-0.1,0.4,0,1.1-0.4,1.4
			c-0.3,0.9-5.9,0.9-7,1.1c-6.2,0.4-12.3,0.3-18.5,0.1h-0.3h-0.9l0,0c-5.1-0.2-15.4-0.6-15.4-0.6c-0.2,0-1,0.1-1.1,0l0,0
			c-0.1-0.1-0.1-0.2-0.1-0.3c-0.9-2.1-1.4-9.3-1.4-9.3s4.3-0.3,6.2-0.3c-0.2-1.7-0.2-3.3-0.2-5c0,0,2.2,0,2.3,0
			c-0.1-1.7-0.9-5.9-0.7-6.1s2.7-0.1,3.7,0c2.6,0,2.4,1.4,3.4,2.8c1.2,1.5,2.7,2.7,4.6,3.3c2.1,0,4.2,0.1,6.3,0.1
			c3.8,0,7.7,0,11.5,0.2l0,0c0.8,0,1.7,0,2.5,0.2c0,0,0,2.8-0.2,4.3c2.5,0.1,6.2,0.3,6.2,0.3C1690,112,1690,113.4,1689.9,114.7"/>
		<path class="st29" d="M1676.5,142.9c0.3,4.7-3.8,9.5-8.5,9.7c-1.8,0-3.5-0.2-5.3-0.7c-6.3-2-7.2-10.4-2.5-14.5
			C1665.5,132.7,1675.4,135.8,1676.5,142.9"/>
		<path class="st29" d="M1660.4,160.9L1660.4,160.9 M1675.3,160.8c0.4,3-8.4,2.7-10.3,2.5l0,0c-1.5-0.1-3-0.5-4.4-1.1
			c-2.3-1.5,1.5-3.1,5.5-3.2C1668.8,158.9,1673.7,157.9,1675.3,160.8"/>
		<path class="st29" d="M1659.3,130.6L1659.3,130.6L1659.3,130.6L1659.3,130.6 M1659.3,130.6L1659.3,130.6L1659.3,130.6
			L1659.3,130.6 M1675.2,130.9c0,2.3-7.3,1.6-9,1.7c-2,0-3.9-0.1-5.9-0.6c-1.9-0.4-2.5-2.1-0.3-2.7l0,0
			C1662.4,128.6,1675,127.5,1675.2,130.9"/>
		<path class="st8" d="M1569.1,196.4c0.1,2.7,0,13.7,0.8,14.6s118.5,0,118.5,0v-14.6C1688.3,196.4,1569,195.6,1569.1,196.4"/>
		<path class="st12" d="M1568.1,196.1c0-0.1,0.8,3.2,0.8,3.2l119.4-0.8l1.4-3.4L1568.1,196.1z"/>
		<path class="st12" d="M1568.1,211.8c0,0.1,0.8-3.2,0.8-3.2l119.4,0.8l1.4,3.4L1568.1,211.8z"/>
		<path class="st10" d="M1570.8,202.2c0,0,113.8-2.7,113.9-2S1570.8,202.2,1570.8,202.2"/>
		<path class="st10" d="M1685.4,203.1c0,0-113.8,2.2-113.9,1.6S1685.4,203.1,1685.4,203.1"/>
		<path class="st10" d="M1570.8,207.3c3.9,0.2,114.2-2.1,113.9-0.8S1570.8,207.3,1570.8,207.3"/>
		<path class="st10" d="M1564.7,214.1c-2,2.4-0.3,27,1,27.5s128.3-1.3,128.3-1.3s-0.5-26.6-1.4-27.4S1566.2,212.2,1564.7,214.1"/>
		<path class="st5" d="M1563.1,212.5c0,0-0.9,4.5,0,5s130.9-1.8,130.9-1.8s0.7-4.6,0-4.6L1563.1,212.5"/>
		<path class="st5" d="M1563.9,243.3c0,0-0.9-4.5-0.1-5s131,0.2,131,0.2s0.7,4.6,0.1,4.6L1563.9,243.3"/>
		<path class="st8" d="M1564.5,222.8c0,0,127.4-2.7,127.5-2S1564.5,222.8,1564.5,222.8"/>
		<path class="st8" d="M1564.5,227.9c4.3,0.2,127.9-2.1,127.5-0.8S1564.5,227.9,1564.5,227.9"/>
		<path class="st8" d="M1692.1,232.2c-2.1,0.2-125.6,1.9-125.6,1.9v-1.9H1692.1z"/>
		<path class="st10" d="M1568.6,180.4c-0.1,1.3-1.1,12.8,0,13.3s120.3-0.3,120.3-0.8v-14.2C1688.9,178.6,1568.7,179.3,1568.6,180.4"
			/>
		<path class="st24" d="M1567.6,178.6c-0.1,1-0.4,3.3,0,3.5s122-1.8,122-1.8v-3.3L1567.6,178.6z"/>
		<path class="st24" d="M1689.4,193.5c0.1-1,0.4-3.3,0-3.5s-122,1.8-122,1.8v3.3L1689.4,193.5z"/>
		<path class="st8" d="M1569.1,182.7c4,0.2,117.4-2,117.1-0.8S1569.1,182.7,1569.1,182.7"/>
		<path class="st8" d="M1686.2,187c-1.9,0.2-115.3,1.9-115.3,1.9V187H1686.2z"/>
		<path class="st30" d="M1637.1,178.6c-0.5-0.1-0.9-0.6-0.8-1.1c0.1-0.3,0.3-0.6,0.6-0.7c1.8-0.5,6.3-2.6,6.3-5.5
			c0-4.2-5.6-5.5-6.7-5.7c-14.9-2.9-60.7-6.6-61.1-6.6c-0.5-0.1-0.9-0.5-0.9-1.1c0.1-0.5,0.5-0.9,1-0.9c0.5,0,46.4,3.7,61.3,6.6
			c4,0.8,8.2,3.2,8.2,7.6c0,5-7.4,7.3-7.7,7.4C1637.2,178.5,1637.2,178.5,1637.1,178.6"/>
		<path class="st30" d="M1584.7,178.6c-0.1,0-0.2,0-0.3,0c-0.3-0.1-7.7-2.4-7.7-7.4c0-4.4,4.3-6.9,8.2-7.6c15-3,60.9-6.6,61.3-6.6
			c0.5,0,0.9,0.4,1,0.9c0,0.5-0.4,1-0.9,1.1c-0.5,0-46.3,3.6-61.1,6.6c-1.1,0.2-6.7,1.5-6.7,5.7c0,3.5,6.3,5.5,6.3,5.5
			c0.5,0.2,0.7,0.8,0.5,1.3C1585.3,178.4,1585,178.6,1584.7,178.6"/>
		<g class="st31">
			<g>
				<defs>
					<rect id="SVGID_1_" x="1576.7" y="147.6" width="28.8" height="28.8"/>
				</defs>
				<clipPath id="SVGID_2_">
					<use xlink:href="#SVGID_1_"  style="overflow:visible;"/>
				</clipPath>
				<g class="st32">
					<path class="st21" d="M1605.5,162c0,8-6.4,14.4-14.4,14.4c-8,0-14.4-6.4-14.4-14.4c0-8,6.4-14.4,14.4-14.4c0,0,0,0,0,0
						C1599,147.6,1605.5,154.1,1605.5,162"/>
				</g>
			</g>
		</g>
		<g class="st31">
			<g>
				<defs>
					<rect id="SVGID_3_" x="1616.7" y="147.6" width="28.8" height="28.8"/>
				</defs>
				<clipPath id="SVGID_4_">
					<use xlink:href="#SVGID_3_"  style="overflow:visible;"/>
				</clipPath>
				<g class="st33">
					<path class="st21" d="M1645.5,162c0,8-6.4,14.4-14.4,14.4c-8,0-14.4-6.4-14.4-14.4c0-8,6.4-14.4,14.4-14.4c0,0,0,0,0,0
						C1639.1,147.6,1645.5,154.1,1645.5,162"/>
				</g>
			</g>
		</g>
		<path class="st30" d="M1591.1,177.4c-8.5,0-15.3-6.9-15.3-15.4c0-8.5,6.9-15.3,15.4-15.3c8.4,0,15.3,6.9,15.3,15.3
			C1606.4,170.5,1599.5,177.3,1591.1,177.4 M1591.1,148.6c-7.4,0-13.4,6-13.4,13.4c0,7.4,6,13.4,13.4,13.4c7.4,0,13.4-6,13.4-13.4
			C1604.5,154.6,1598.5,148.6,1591.1,148.6"/>
		<path class="st30" d="M1631.1,177.4c-8.5,0-15.3-6.9-15.3-15.4c0-8.5,6.9-15.3,15.4-15.3c8.4,0,15.3,6.9,15.3,15.3
			C1646.5,170.5,1639.6,177.3,1631.1,177.4 M1631.1,148.6c-7.4,0-13.4,6-13.4,13.4c0,7.4,6,13.4,13.4,13.4c7.4,0,13.4-6,13.4-13.4
			C1644.5,154.6,1638.5,148.6,1631.1,148.6"/>
		<path class="st30" d="M1604.4,157.6h-0.1l-0.6-0.1l-0.2-0.5l0.9-0.4l0.2-0.9c-0.3-0.1-0.6,0.1-0.8,0.3c0,0,0-0.1,0.1-0.1
			c1.7-2.1,4.1-3.2,7.3-3c5.8,0.3,7.4,3.2,7.4,3.3l-1.7,0.9c0-0.1-1.3-2.1-5.8-2.3c-3.8-0.2-5.3,1.7-5.7,2.3
			C1605.2,157.3,1604.8,157.5,1604.4,157.6"/>
		<path class="st4" d="M1660.2,84.3c-0.9-0.2-1.9-0.3-2.8-0.4c-2.6-0.5-5.2-0.9-7.8-1.4c-5.3-0.8-10.6-1.8-15.8-3
			c-1-0.2-2-0.4-3-0.7c-0.3-0.1-1.4-0.1-1-0.6c-0.1-0.4,0.3-0.5,0.6-0.6l0,0c0.8-0.3,1.6-0.6,2.4-0.7c2.4-0.8,4.8-1.4,7.2-1.8
			c2.6-0.5,5.2-0.8,7.8-1.3c3.1-0.6,6.1-1.5,9-2.6c0.3-1.3,2,2.9,2.2,3.2c0.4,0.8,0.9,1.5,1.4,2.3c0.3,0.5,0.8,1.1,0.8,1.7
			c0.3,0.1,0.2,0.7,0.2,1c0.1,1.2,0.1,2.4,0,3.7C1661.4,84.5,1660.7,84.4,1660.2,84.3"/>
		<path class="st34" d="M1671.4,78.4c-0.6,0.7-1.9,0.7-2.7,0.9l0,0c-6.5,0.9-13,0.3-19.5,0c-4.5-0.3-9.1-0.2-13.6-0.5
			c-1.5-0.1-3-0.4-4.4-0.4c-0.4,0.1-1.8,0.3-1.2-0.5c1.3-0.9,2.7-1.8,4-2.7c1.6-1,3.1-2.2,4.7-3.2c2.7-1.8,5.4-3.6,8.2-5.3
			c2.1-1.2,4.2-2.4,6.1-3.8c1.6-1.1,3.2-2.1,4.9-3.1c0.5-0.2,1.4-0.8,1.9-0.7c0.1,0.1-1.3,7-1.7,10.4l0,0c0,0.4-0.3,1.7-0.3,1.6
			c0,0.6-1,0.9-1.4,1.1c-1.8,0.6-3.6,0.9-5.4,1.3c-4.8,1-9.6,2.2-14.4,3.5c7.1-1.2,21.5-4.3,21.7-4.3c0.8,0.3,1.6,0.6,2.4,0.9
			c1.8,0.7,3.5,1.4,5.3,2.1c1.3,0.5,2.6,1.1,3.9,1.7c0.4,0.2,0.8,0.4,1.2,0.6C1671.3,78,1671.4,78.2,1671.4,78.4
			C1671.4,78.4,1671.4,78.4,1671.4,78.4"/>
		<path class="st35" d="M404,219.3c0.4,0,0.7,0.3,0.7,0.7c0,0.3-0.2,0.6-0.5,0.6c-0.1,0-0.1,0-0.2,0c-1.3,0-2.6-0.1-3.9-0.1h-2h-2.1
			c-2.8,0-5.6-0.1-8.5-0.3s-5.8-0.5-8.6-0.9s-5.7-0.9-8.5-1.6c-1.8-0.4-3.6-0.9-5.4-1.4s-3.6-1.1-5.3-1.8c-2.3-0.9-4.7-1.8-6.9-2.8
			v0.1c0.2,0.4,0.2,0.8,0,1.2c0,0.1-0.1,0.1-0.1,0.2c0,0.1-0.1,0.2-0.2,0.2l-0.1,0.2l-0.4,0.6c-0.9,1.3-1.9,2.7-2.8,4
			s-1.9,2.9-2.9,4.4c-1.1,1.5-2.2,3-3.4,4.4c-1.2,1.4-2.6,2.7-4.1,3.8c-1.4,1.1-2.9,2.1-4.5,2.9c-0.8,0.4-1.7,0.8-2.5,1.1
			s-1.7,0.6-2.6,0.9l-0.3,0.1c-0.8,0.2-1.6,0.4-2.5,0.6c-0.9,0.2-1.8,0.3-2.7,0.4c-0.9,0.1-1.8,0.1-2.7,0.1c-0.5,0-0.9,0-1.4-0.1
			c-0.5,0-0.9-0.1-1.3-0.2c-0.9-0.1-1.8-0.4-2.6-0.6c-0.8-0.3-1.7-0.6-2.5-0.9c-1.7-0.8-3.3-1.7-5-2.5c-1.3-0.7-2.7-1.4-4-2.2
			s-2.8-1.6-4.2-2.3l-0.5-0.3c-0.8-0.4-1.5-0.8-2.3-1.1s-1.6-0.7-2.4-1s-1.6-0.7-2.4-1.1c-0.4-0.2-0.8-0.4-1.1-0.6
			c-0.2-0.1-0.3-0.2-0.4-0.4c-0.1-0.1-0.2-0.2-0.2-0.4c0-0.1,0-0.2,0.1-0.4c0.1-0.1,0.2-0.2,0.3-0.3c0.4-0.1,0.9-0.2,1.4-0.1
			l1.3,0.1l2.5,0.2c1.8,0.1,3.6,0.3,5.4,0.5c1.3,0.1,2.6,0.3,3.9,0.5s2.8,0.4,4.2,0.5l0.6,0.1h0c1.1,0.1,2.2,0.2,3.3,0.2
			s2.2,0.1,3.3,0c0.7,0,1.4-0.1,2.1-0.2s1.3-0.2,2-0.3s1.1-0.2,1.7-0.3s1.1-0.3,1.7-0.4c1-0.3,2-0.7,3-1.1c0.8-0.4,1.6-0.8,2.4-1.2
			s1.5-0.9,2.3-1.4c1.5-0.9,3-1.8,4.5-2.7c0.3-0.2,0.6-0.4,1-0.6h0.1l0.2-0.1l0,0c2-1.2,3.8-2.5,5.6-3.9c1.1-0.9,2.1-1.8,3.1-2.8
			l0.5-0.5c-1-0.6-2.1-1.1-3.1-1.8c-2.5-1.5-4.9-3.1-7.2-4.8l-1.4-1c0,0-0.1,0.1-0.1,0.1l-0.6,1c-0.8,1.4-1.7,2.8-2.6,4.1
			c-0.5,0.7-0.9,1.3-1.4,1.9c-0.5,0.7-1.1,1.3-1.7,1.9c-0.6,0.5-1.2,1-1.8,1.5c-0.7,0.5-1.3,1-2,1.5l-0.4,0.3l0,0
			c-0.8,0.5-1.5,0.9-2.4,1.3c-0.8,0.4-1.5,0.7-2.3,1c-0.4,0.2-0.8,0.3-1.3,0.4c-1.2,0.3-2.3,0.6-3.5,0.7c-1.7,0.2-3.3,0.2-5,0
			c-1.7-0.2-3.3-0.4-4.9-0.8c-2.4-0.6-4.7-1.3-7-2.2c-2.6-0.9-5.1-2-7.6-2.9l-4.5-1.7c-1.5-0.5-3-1.1-4.5-1.6
			c-0.4-0.1-0.8-0.3-1.3-0.4c-0.2-0.1-0.5-0.1-0.7-0.2c-0.2,0-0.3-0.2-0.3-0.4c0-0.2,0.1-0.3,0.3-0.4c0.2,0,0.4,0,0.6,0.1l0.6,0.1
			l1.1,0.2c0.8,0.2,1.6,0.3,2.4,0.4c1.6,0.3,3.2,0.5,4.8,0.7l2,0.2l0,0c2.4,0.2,4.8,0.3,7.2,0.2c0.7,0,1.4-0.1,2.1-0.1
			s1.5-0.2,2.2-0.3c0.5-0.1,1.1-0.2,1.6-0.3s1-0.3,1.5-0.4s1.1-0.3,1.6-0.5s1.1-0.4,1.6-0.6c0.7-0.3,1.4-0.7,2.1-1s1.4-0.8,2.1-1.1
			c1.4-0.8,2.7-1.6,4.1-2.4c1.1-0.6,2.3-1.2,3.4-1.8c0.6-0.3,1.2-0.6,1.9-0.8s1.3-0.4,1.9-0.6c0.7-0.2,1.5-0.4,2.3-0.5
			c0.4-0.1,0.8-0.1,1.3-0.2s0.8,0,1.2-0.1s1,0,1.5,0l-1.2-1c-1.2-1-2.3-2-3.5-3l-1.4-1.2c-0.1,0.1-0.2,0.2-0.3,0.3
			c-0.3,0.3-0.6,0.5-1,0.7c-0.4,0.2-0.7,0.4-1.1,0.6c-0.4,0.2-0.8,0.4-1.2,0.5c-0.4,0.2-0.8,0.3-1.2,0.4l-0.4,0.1
			c-0.7,0.2-1.4,0.4-2.2,0.5c-1.7,0.3-3.5,0.4-5.2,0.3c-1.7,0-3.4-0.3-5-0.7c-3.3-0.9-6.5-2.3-9.3-4.2c-1-0.6-2-1.3-3-2
			c-2.7-2-5.4-4-8.1-6l-3.4-2.5l0,0c-1.4-1-2.8-1.9-4.1-2.9c-0.7-0.5-1.5-1-2.2-1.6l-1.8-0.9c-0.6-0.3-1.2-0.6-1.8-0.9
			c-0.3-0.1-0.5-0.3-0.8-0.5l-0.4-0.3c-0.2-0.2-0.4-0.4-0.5-0.7c-0.1-0.3,0.1-0.5,0.4-0.6c0.3,0,0.5,0,0.8,0.1l0.5,0.3
			c0.4,0.2,0.8,0.4,1.1,0.6c0.7,0.4,1.4,0.8,2.1,1.3l1,0.6c1,0.4,2,0.8,3,1.2c1.5,0.5,2.9,1,4.4,1.5s3,0.8,4.6,1.2
			c1.2,0.3,2.4,0.5,3.6,0.7s2.5,0.4,3.8,0.5h0.1h0.3h0.2c1.6,0.1,3.3,0.2,5,0.3s3.3,0.1,5,0.3c1.4,0.2,2.9,0.4,4.3,0.9
			c1.4,0.4,2.7,1,4,1.7c0.5,0.3,0.9,0.5,1.4,0.8l-0.4-0.5c-1.9-2.3-3.6-4.7-5.3-7.1c-0.4-0.6-0.8-1.2-1.2-1.9l-0.1,0.1
			c-0.2,0.1-0.4,0.2-0.6,0.3c-0.2,0.1-0.4,0.2-0.6,0.2c-0.1,0.1-0.3,0.1-0.5,0.1c-0.8,0.2-1.7,0.3-2.5,0.3c-1.7,0-3.4-0.1-5.1-0.4
			c-0.4-0.1-0.9-0.2-1.3-0.3l-1.1-0.3c-0.8-0.2-1.7-0.5-2.5-0.8c-1.6-0.6-3.2-1.3-4.6-2.1c-1.5-0.8-3-1.7-4.4-2.7
			c-0.7-0.5-1.3-1-2-1.5s-1.4-1.1-2-1.7c-2.6-2.3-5-4.7-7.4-7.2c-1.2-1.2-2.3-2.5-3.4-3.7s-2.2-2.4-3.3-3.6l-2.2-2.4
			c-0.7-0.8-1.4-1.5-2.1-2.3c-0.2-0.2-0.4-0.4-0.6-0.6l-0.3-0.3l0,0c-0.1-0.1-0.2-0.3-0.1-0.5c0.1-0.2,0.3-0.4,0.6-0.4
			c0.2,0.1,0.4,0.2,0.6,0.3l0.5,0.3l1,0.6l2.1,1.3c1.4,0.9,2.9,1.8,4.4,2.7c1,0.6,1.9,1.1,2.9,1.6s1.9,1,2.9,1.4s2.1,0.9,3.1,1.3
			l0.6,0.2c1.6,0.6,3.1,1.1,4.7,1.6s3.2,1,4.8,1.6c0.8,0.3,1.5,0.6,2.3,0.9s1.5,0.7,2.2,1c1.5,0.8,3,1.6,4.4,2.6
			c1,0.7,1.9,1.4,2.8,2.1s1.7,1.5,2.6,2.3l0.4,0.3c-1-2.2-2-4.4-2.9-6.6l-0.4-1c-0.2,0-0.5,0-0.7,0c-0.8,0-1.5,0-2.3-0.1
			c-1.6-0.2-3.1-0.6-4.6-1.2c-0.5-0.2-1.1-0.4-1.6-0.6s-1.1-0.5-1.7-0.8c-1.4-0.8-2.7-1.7-4-2.7c-0.6-0.5-1.3-1.1-1.8-1.6
			s-1.1-1.1-1.6-1.6c-2.1-2.5-4.1-5.1-5.8-7.8c-1.7-2.7-3.3-5.5-4.8-8.3c-0.7-1.3-1.5-2.7-2.2-4.1c-0.7-1.4-1.5-2.8-2.2-4.2
			c-0.5-0.9-1-1.9-1.5-2.8s-1-1.8-1.5-2.7c-0.1-0.1-0.2-0.3-0.3-0.4c-0.1-0.2-0.3-0.4-0.4-0.6c-0.1-0.3,0-0.7,0.3-0.8
			c0.1-0.1,0.3-0.1,0.5-0.1c0.2,0,0.3,0.1,0.5,0.2c0.2,0.1,0.3,0.2,0.5,0.3s0.6,0.5,0.9,0.7l1.8,1.6c1.2,1,2.5,2,3.8,3l0.5,0.4
			c2.3,1.6,4.7,3.1,7,4.7l0,0l0.2,0.1l0.1,0.1l0.1,0.1l0,0l0,0c1.3,0.9,2.5,1.9,3.7,2.9c0.6,0.6,1.2,1.1,1.8,1.7s1,1.2,1.5,1.8
			c2,2.5,3.7,5.1,5.3,7.8c0.5,0.9,1.1,1.9,1.6,2.8s1,1.7,1.5,2.6s1.2,1.9,1.8,2.8c0.3,0.4,0.6,0.9,1,1.3s0.6,0.8,1,1.2l0,0l0,0l0,0
			l0.4,0.4c-0.4-1.2-0.8-2.4-1.1-3.6c-0.8-2.8-1.5-5.6-2.1-8.5c-0.1-0.1-0.2-0.2-0.3-0.4c-0.5-0.6-1-1.3-1.4-2
			c-0.4-0.7-0.8-1.4-1.1-2.1c-0.4-0.8-0.7-1.5-1-2.3c-0.6-1.5-1-3.1-1.4-4.7c-0.4-1.6-0.6-3.3-0.8-4.9c-0.1-0.8-0.2-1.6-0.2-2.4
			s-0.1-1.7-0.2-2.5c-0.1-1.7-0.1-3.3-0.1-4.9s0.1-3.4,0.3-5.2c0,0,0,0,0-0.1c0-0.3,0-0.6,0.1-1l0,0l0,0c0.3-3.2,0.8-6.4,1.4-9.6
			c0.3-1.6,0.6-3.3,0.9-4.9c0.1-0.8,0.3-1.6,0.4-2.3c0-0.2,0.1-0.4,0.1-0.6c0-0.3,0.2-0.7,0.4-0.9c0.3-0.2,0.6-0.2,0.9,0
			c0.2,0.2,0.4,0.4,0.6,0.7c0.4,0.7,0.7,1.5,1,2.2c0.3,0.8,0.6,1.6,0.8,2.4c0.5,1.6,1,3.2,1.4,4.8c0.9,3.2,1.5,6.5,2.1,9.7
			c0.3,1.6,0.5,3.2,0.6,4.8s0.3,3.4,0.3,5.1s0.1,3.3,0,4.9s-0.2,3.3-0.3,4.9s-0.2,3.1-0.4,4.7s-0.3,3.1-0.6,4.6l-0.1,0.6
			c-0.1,0.3-0.3,0.5-0.6,0.5H301c0.2,0.9,0.4,1.9,0.7,2.8c0.1,0.6,0.3,1.2,0.5,1.8v-0.2c0.1-0.4,0.1-0.8,0.2-1.2s0.2-0.8,0.3-1.2
			c0.1-0.7,0.4-1.4,0.5-2.1c0.1-0.3,0.2-0.7,0.3-1s0.2-0.7,0.4-1c0.5-1.4,1.1-2.8,1.7-4.2s1.3-2.8,2-4.2c1.4-2.7,2.9-5.2,4.5-7.8
			s3.1-5,4.6-7.5c0.4-0.6,0.7-1.3,1.1-1.9c0.1-0.2,0.2-0.4,0.4-0.6c0.2-0.2,0.5-0.3,0.7-0.2c0.2,0.1,0.4,0.4,0.4,0.7
			c0,0.2,0,0.5,0,0.7c-0.1,1.5-0.3,3-0.4,4.4c-0.3,3-0.7,5.9-1.4,8.8c-0.1,0.3-0.1,0.6-0.2,0.9c-0.3,1.5-0.6,2.9-1,4.4
			c-0.2,0.8-0.4,1.6-0.6,2.3s-0.4,1.4-0.6,2c-0.4,1.3-0.9,2.5-1.3,3.8c-0.1,0.2-0.2,0.5-0.3,0.7c-0.5,1.4-1,2.7-1.5,4
			c-0.3,0.7-0.6,1.4-0.9,2s-0.6,1.4-0.9,2.1l-0.3,0.8c-0.2,0.6-0.4,1.1-0.6,1.7s-0.3,1.1-0.4,1.7s-0.2,1.1-0.3,1.6s-0.2,1.1-0.2,1.6
			l-0.3,1.8c0,0.3-0.1,0.6-0.1,0.8s-0.1,0.5-0.2,0.8s-0.1,0.7-0.2,1.1c0.4,0.8,0.7,1.6,1.1,2.4l1,2c0.4,0.7,0.7,1.4,1.1,2.1
			s0.8,1.4,1.2,2.1c0-0.1,0.1-0.3,0.2-0.3c0.1,0,0.3,0,0.3,0.2c0,0.1,0,0.3-0.2,0.4c-0.1,0-0.1,0-0.2,0c0.3,0.5,0.7,1.1,1,1.6
			l0.1,0.1c-0.2-1-0.3-2.1-0.3-3.1c0-0.7,0-1.5,0-2.2s0.1-1.4,0.1-2.1c0-0.3,0-0.6,0.1-0.9l0,0c0-0.6,0.1-1.3,0.2-1.9
			s0.2-1.4,0.3-2.1s0.3-1.4,0.4-2.1s0.3-1.3,0.5-1.9c0.3-0.9,0.6-1.9,0.9-2.8l0,0c0,0,0,0,0-0.1l0.2-0.5c1-2.6,2.1-5.1,3.3-7.6
			c0.6-1.2,1.2-2.5,1.9-3.7l0,0v-0.1l0.1-0.1l0.1-0.1l0.2-0.3l0,0l0,0l0,0l0,0l0,0l0.4-0.8c0.1-0.3,0.3-0.5,0.4-0.8
			c0.7-1.4,1.4-2.7,2.1-4c0-0.1,0.1-0.1,0.1-0.2c0.1-0.2,0.2-0.4,0.3-0.5c0,0,0-0.1,0-0.1c0.6-1.2,1.2-2.4,1.8-3.7s1.2-2.4,1.7-3.6
			c0.3-0.7,0.6-1.4,1-2.2c0.1-0.3,0.3-0.7,0.4-1.1l0.2-0.5l0.1-0.3c0.1-0.1,0.2-0.2,0.3-0.3c0.2-0.1,0.4,0,0.5,0.1
			c0.1,0.2,0.2,0.4,0.2,0.6c0,0.2,0,0.4,0,0.5c0,0.3,0,0.7,0,1c0,0.7,0,1.3,0,1.9c0,1.3,0,2.7,0,4s-0.1,2.7-0.2,4.1
			s-0.2,2.8-0.4,4.1s-0.4,2.7-0.6,4s-0.4,2.7-0.7,4c-0.1,0.6-0.2,1.1-0.3,1.7s-0.3,1.4-0.5,2s-0.4,1.3-0.6,2
			c-0.4,1.3-0.8,2.6-1.3,3.9s-1,2.6-1.6,3.9s-1.2,2.4-1.8,3.6s-1.3,2.3-2,3.5s-1.4,2.2-2.1,3.3c-0.5,0.7-1,1.4-1.5,2.2
			c-0.3,0.4-0.5,0.7-0.7,1.1s-0.4,0.7-0.6,1.1v0.1c-0.1,0.3-0.3,0.6-0.4,0.9c0.1,0.2,0.3,0.4,0.5,0.6c1.2,1.6,2.4,3.1,3.6,4.6
			c0.7,0.8,1.4,1.6,2.1,2.4s1.5,1.6,2.3,2.4s1.4,1.4,2.2,2.2c-0.1-0.3-0.3-0.6-0.4-0.9c-0.3-0.8-0.5-1.5-0.6-2.3
			c-0.1-0.8-0.3-1.6-0.3-2.4c0-0.3,0-0.7-0.1-1v-0.4c0-0.4,0-0.8,0-1.3s0-0.8,0-1.2c0-0.8,0.1-1.6,0.1-2.5c0.1-1.6,0.4-3.3,0.7-4.9
			c0.2-0.9,0.4-1.7,0.6-2.6s0.4-1.5,0.6-2.3s0.5-1.6,0.7-2.4s0.5-1.7,0.8-2.5c1.1-3.1,2.4-6.2,3.7-9.2c1.3-3,2.8-5.9,4.6-8.6
			c1.8-2.7,3.8-5.3,5.8-7.9c0.7-0.9,1.4-1.8,2.1-2.8l0.4-0.6c0.1-0.2,0.2-0.4,0.3-0.7c0.1-0.2,0.2-0.3,0.3-0.5c0.3-0.3,0.7-0.3,1,0
			c0.2,0.2,0.2,0.4,0.2,0.7l0,0c-0.1,0.2-0.1,0.4-0.2,0.6c-0.1,0.2-0.1,0.4-0.2,0.6c-0.1,0.4-0.3,0.9-0.4,1.3
			c-0.3,0.8-0.5,1.7-0.7,2.5c0,0,0,0,0,0.1l0,0v0.1l0,0c0,0.2-0.1,0.3-0.1,0.5c-0.3,1.6-0.7,3.1-1,4.7c-0.3,1.6-0.7,3.2-1,4.8
			s-0.7,3.2-1,4.8s-0.7,3.2-1,4.8s-0.7,3.4-1.1,5.1v0.1l0,0v0.1l0,0l0,0l-0.1,0.3v0.2c-0.4,1.6-0.7,3.1-1.1,4.7
			c-0.2,0.7-0.4,1.5-0.6,2.2s-0.5,1.6-0.8,2.4s-0.6,1.5-0.9,2.3s-0.7,1.5-1,2.3c-0.7,1.4-1.5,2.8-2.3,4.2c-0.7,1.2-1.4,2.4-2,3.6
			c-0.3,0.6-0.6,1.3-0.9,2v0.1c-0.1,0.3-0.2,0.5-0.3,0.7l-0.4,1.1c-0.1,0.3-0.3,0.7-0.4,1c-0.1,0.2-0.3,0.4-0.5,0.5
			c-0.1,0-0.2,0.1-0.2,0.1l0,0l0.7,0.7c1.8,1.6,3.7,3.2,5.6,4.7c1.3,1,2.6,2,3.9,2.9l-0.1-0.5c-0.1-0.4-0.1-0.8-0.2-1.3
			c-0.1-0.9-0.1-1.7-0.1-2.6c0-1.9,0.1-3.8,0.2-5.6v-0.1c0.1-0.9,0.2-1.8,0.3-2.7s0.2-1.6,0.3-2.4c0.2-1.7,0.5-3.5,0.8-5.2
			s0.7-3.4,1.2-5.2s1-3.3,1.5-4.9l0.2-0.6l0,0l0,0l0,0l0,0l0,0c1.2-3.3,2.5-6.5,3.9-9.7s2.8-6.3,4.3-9.5l1.9-3.9
			c0.6-1.2,1.2-2.5,1.7-3.8c0-0.2,0.1-0.3,0.2-0.4c0.2-0.2,0.4-0.2,0.7-0.1c0.5,0.2,0.5,0.8,0.6,1.2s0.1,0.8,0.1,1.2
			c0.1,0.9,0.2,1.7,0.3,2.6c0.2,1.7,0.4,3.4,0.6,5c0,0.5,0.1,0.9,0.1,1.4l0,0c0,0,0,0,0,0.1l0,0c0.1,1.7,0.1,3.4,0,5.1
			c-0.1,1.8-0.3,3.5-0.6,5.3c-0.3,1.7-0.7,3.5-1.1,5.2c-0.4,1.7-0.8,3.4-1.3,5s-1,3.3-1.6,4.9s-1.3,3.4-2,5s-1.6,3.1-2.4,4.6
			c-0.4,0.7-0.8,1.5-1.2,2.2l-1.3,2.1c-1,1.7-2.1,3.4-3,5.2c-0.2,0.4-0.4,0.8-0.6,1.1s-0.4,0.9-0.5,1.4l-0.3,0.8
			c0,0.2-0.1,0.3-0.2,0.5c0,0.1,0,0.1-0.1,0.1c1.3,0.9,2.6,1.7,3.9,2.5c1.5,0.9,3.1,1.8,4.7,2.6l2.7,1.3c0,0,0-0.1,0-0.1
			c-0.2-0.8-0.3-1.7-0.3-2.5c0-0.9-0.1-1.7,0-2.6s0.1-1.8,0.2-2.7c0.1-1.1,0.3-2.1,0.6-3.2c0-0.1,0-0.1,0-0.2l0.1-0.2
			c0-0.1,0-0.1,0-0.2c0.2-0.9,0.4-1.8,0.7-2.6s0.5-1.6,0.7-2.4s0.6-1.7,0.9-2.5s0.7-1.7,1.1-2.5c1.4-3.2,3-6.3,4.8-9.3
			c1.8-3,3.7-6,5.5-9c1-1.5,1.9-3.1,2.8-4.6s1.8-3,2.6-4.6c0.2-0.4,0.5-0.9,0.7-1.3c0.8-1.6,1.6-3.2,2.3-4.8c0.3-0.8,0.6-1.6,1-2.3
			s0.7-1.6,1-2.4l0.2-0.6c0.2-0.4,0.3-0.9,0.5-1.3c0.1-0.2,0.1-0.5,0.2-0.7l0.1-0.3c0-0.2,0.1-0.3,0.2-0.5c0.2-0.2,0.5-0.3,0.7-0.2
			c0.1,0.1,0.2,0.2,0.3,0.3c0.1,0.1,0.1,0.3,0.2,0.4c0,0.2,0.1,0.4,0.1,0.6c0.1,0.4,0.1,0.8,0.2,1.2c0.1,0.9,0.2,1.7,0.3,2.6
			c0.2,1.8,0.4,3.5,0.6,5.3c0.1,0.9,0.2,1.8,0.2,2.6c0,0.4,0,0.9,0,1.3s0,1,0,1.5c0,0.9-0.2,1.8-0.3,2.7c0,0.4-0.1,0.9-0.2,1.3
			s-0.2,0.9-0.3,1.4c-0.2,0.9-0.4,1.8-0.7,2.6s-0.5,1.7-0.8,2.5c-0.6,1.7-1.4,3.3-2.2,4.9c-0.1,0.3-0.3,0.6-0.4,0.8l0,0.1l0,0
			c-0.5,1-1.1,2-1.7,3s-1.2,1.9-1.8,2.8c-1,1.4-2,2.8-3,4.2s-2.2,2.8-3.3,4.2c-0.7,0.9-1.4,1.8-2,2.8s-1.3,1.8-2,2.7
			c-0.8,1.1-1.5,2.3-2.3,3.4s-1.4,2.2-2,3.4v0.1l0,0l0,0l0,0l0,0l-0.1,0.1c-0.8,1.5-1.6,3.1-2.2,4.8c-0.2,0.4-0.3,0.9-0.4,1.4
			l0.3,0.1c2,0.8,4,1.6,6,2.3c2.6,0.9,5.2,1.8,7.9,2.6c1.3,0.4,2.7,0.7,4,1s2.6,0.6,3.9,0.9c0.7,0.1,1.4,0.3,2,0.4s1.5,0.2,2.2,0.3
			c1.4,0.2,2.8,0.4,4.3,0.6s2.7,0.4,4.1,0.6s2.8,0.4,4.2,0.5c0.7,0.1,1.5,0.2,2.2,0.2l2,0.2h0.4c1.8,0.1,3.7,0.2,5.5,0.2"/>
		<path class="st36" d="M443.7,277.7c-0.4-0.1-0.7,0.2-0.8,0.6c0,0.3,0.1,0.6,0.4,0.7c0.1,0,0.1,0.1,0.2,0.1
			c1.3,0.2,2.6,0.4,3.9,0.5c0.7,0.1,1.3,0.2,2,0.3l2.1,0.4c2.8,0.5,5.6,0.8,8.4,1.1s5.8,0.4,8.6,0.5s5.8,0.1,8.7-0.1
			c1.9-0.1,3.7-0.3,5.5-0.5s3.7-0.5,5.5-0.9c2.5-0.5,4.9-1,7.3-1.6c0,0,0,0,0,0.1c-0.2,0.4-0.3,0.8-0.1,1.2c0,0.1,0,0.1,0.1,0.2
			s0.1,0.2,0.1,0.3l0.1,0.2c0.1,0.2,0.2,0.4,0.3,0.6c0.7,1.5,1.4,3,2.1,4.4s1.4,3.2,2.2,4.8c0.8,1.7,1.7,3.3,2.6,4.9
			c1,1.6,2.1,3.1,3.4,4.5c1.2,1.3,2.5,2.5,4,3.6c0.8,0.5,1.5,1.1,2.3,1.5s1.6,0.9,2.4,1.3l0.3,0.1c0.8,0.4,1.5,0.7,2.3,1
			c0.9,0.3,1.7,0.6,2.6,0.8c0.9,0.2,1.7,0.4,2.6,0.5c0.5,0.1,0.9,0.1,1.4,0.1s0.9,0.1,1.3,0.1c0.9,0,1.8-0.1,2.7-0.2
			c0.9-0.1,1.7-0.3,2.6-0.5c1.8-0.5,3.5-1.1,5.3-1.7c1.4-0.5,2.9-1,4.3-1.5s3-1.1,4.5-1.6l0.5-0.2c0.8-0.3,1.7-0.5,2.5-0.8
			s1.7-0.4,2.5-0.6s1.7-0.4,2.5-0.6c0.4-0.1,0.8-0.2,1.2-0.4c0.2-0.1,0.3-0.2,0.5-0.3c0.1-0.1,0.2-0.2,0.2-0.3c0-0.1,0-0.2,0-0.4
			c0-0.1-0.1-0.3-0.3-0.3c-0.4-0.2-0.9-0.3-1.3-0.3l-1.3-0.1l-2.5-0.2c-1.8-0.2-3.6-0.3-5.4-0.4c-1.3-0.1-2.6-0.1-3.9-0.2
			s-2.8-0.1-4.2-0.2h-0.6h-0.1c-1.1-0.1-2.2-0.2-3.3-0.3s-2.2-0.3-3.3-0.5c-0.7-0.1-1.3-0.3-2-0.5s-1.3-0.4-1.9-0.6
			s-1.1-0.4-1.6-0.6s-1.1-0.5-1.6-0.7c-0.9-0.5-1.8-1-2.8-1.6c-0.7-0.5-1.5-1-2.2-1.6s-1.4-1.1-2-1.7c-1.3-1.1-2.7-2.3-4-3.4
			l-0.9-0.7l-0.1-0.1l-0.2-0.2l0,0c-1.7-1.5-3.4-3.1-4.9-4.8c-0.9-1-1.8-2.1-2.6-3.3l-0.4-0.6c1.1-0.4,2.3-0.8,3.4-1.2
			c2.7-1,5.3-2.3,7.9-3.5l1.5-0.8l0.1,0.2c0.1,0.4,0.3,0.7,0.4,1.1c0.6,1.5,1.2,3,1.9,4.5c0.3,0.7,0.7,1.4,1.1,2.1
			c0.4,0.7,0.9,1.4,1.4,2.1c0.5,0.6,1,1.2,1.5,1.8c0.6,0.6,1.1,1.2,1.8,1.8l0.4,0.4l0,0c0.7,0.6,1.4,1.2,2.1,1.7s1.4,0.9,2.1,1.4
			c0.4,0.2,0.8,0.4,1.2,0.6c1.1,0.5,2.2,0.9,3.4,1.3c1.6,0.4,3.3,0.7,4.9,0.8c1.7,0.1,3.3,0.1,5,0c2.4-0.2,4.8-0.5,7.2-1
			c2.7-0.5,5.3-1.1,8-1.6l4.8-0.9l4.7-0.9c0.4-0.1,0.9-0.1,1.3-0.2l0.7-0.1c0.2,0,0.4-0.2,0.4-0.4c0-0.2-0.1-0.3-0.3-0.4
			c-0.2,0-0.4,0-0.7,0h-0.6h-1.1c-0.8,0-1.6,0-2.5,0c-1.6,0-3.3,0-4.9-0.1c-0.7,0-1.4-0.1-2.1-0.1l0,0c-2.4-0.2-4.8-0.5-7.2-1
			c-0.7-0.1-1.3-0.3-2-0.5s-1.4-0.4-2.1-0.6c-0.5-0.2-1-0.4-1.5-0.6s-1-0.4-1.4-0.6s-1-0.5-1.5-0.8s-1-0.6-1.5-0.9
			c-0.6-0.4-1.3-0.9-1.9-1.4s-1.2-1-1.8-1.5c-1.2-1-2.4-2-3.7-3c-1-0.8-2-1.6-3.1-2.3c-0.6-0.4-1.1-0.8-1.7-1.1
			c-0.6-0.3-1.2-0.7-1.8-0.9c-0.7-0.3-1.4-0.6-2.1-0.9c-0.4-0.1-0.8-0.3-1.2-0.4l-1.2-0.3c-0.5-0.1-1-0.2-1.4-0.2
			c0.4-0.3,0.9-0.5,1.3-0.8c1.3-0.8,2.6-1.6,3.9-2.4l1.5-1c0.1,0.1,0.2,0.3,0.3,0.4c0.3,0.3,0.6,0.6,0.9,0.9c0.3,0.3,0.7,0.6,1,0.8
			c0.3,0.3,0.7,0.5,1.1,0.7s0.7,0.4,1.1,0.6l0.3,0.2c0.6,0.3,1.3,0.6,2,0.8c1.7,0.5,3.4,0.9,5.1,1.2c1.7,0.2,3.4,0.3,5.1,0.2
			c3.4-0.3,6.7-1.2,9.9-2.5c1.1-0.5,2.2-1,3.3-1.5c3-1.5,6-3.1,9-4.6l3.8-1.9l0,0c1.5-0.7,3-1.5,4.5-2.2l2.5-1.2
			c0.7-0.2,1.3-0.3,2-0.5s1.3-0.4,1.9-0.6l0.8-0.4c0.1-0.1,0.3-0.1,0.4-0.2c0.3-0.1,0.5-0.3,0.6-0.6c0.1-0.2,0-0.5-0.3-0.6
			c-0.3-0.1-0.5-0.1-0.8,0l-0.6,0.2c-0.4,0.1-0.8,0.3-1.2,0.4c-0.8,0.3-1.5,0.6-2.3,0.9l-1.1,0.4c-1,0.2-2.1,0.5-3.1,0.7
			c-1.5,0.3-3.1,0.5-4.6,0.7s-3.1,0.3-4.7,0.4c-1.2,0.1-2.4,0.1-3.7,0.1s-2.5-0.1-3.8-0.1h-0.1h-0.3h-0.2c-1.7-0.1-3.3-0.3-5-0.5
			s-3.3-0.4-5-0.5c-1.5-0.1-2.9,0-4.3,0.2c-1.4,0.2-2.8,0.5-4.2,1c-0.5,0.2-1,0.4-1.5,0.6l0.5-0.4c2.2-1.9,4.3-4,6.4-6.1
			c0.5-0.5,1-1.1,1.5-1.6l0.1,0.1c0.2,0.1,0.4,0.3,0.6,0.4c0.2,0.1,0.4,0.2,0.6,0.3l0.4,0.2c0.8,0.3,1.6,0.6,2.4,0.8
			c1.7,0.3,3.4,0.5,5.1,0.4c0.4,0,0.9,0,1.3-0.1l1.1-0.1c0.9-0.1,1.7-0.2,2.6-0.4c1.7-0.3,3.3-0.7,4.9-1.3c1.6-0.6,3.3-1.2,4.8-2
			c0.8-0.4,1.5-0.8,2.2-1.1s1.5-0.9,2.3-1.3c2.9-1.8,5.7-3.8,8.5-5.9c1.3-1,2.7-2.1,4-3.1l3.9-3l2.6-2.1c0.8-0.6,1.6-1.3,2.5-1.9
			c0.2-0.2,0.5-0.3,0.7-0.5c0.1-0.1,0.3-0.1,0.4-0.2l0,0c0.1-0.1,0.2-0.3,0.2-0.4c0-0.2-0.2-0.4-0.5-0.4c-0.2,0-0.4,0.1-0.7,0.2
			l-0.6,0.2l-1.2,0.5l-2.3,1c-1.6,0.6-3.2,1.3-4.8,1.9c-1,0.4-2.1,0.8-3.2,1.1s-2,0.7-3.1,0.9s-2.2,0.6-3.3,0.8l-0.6,0.1
			c-1.6,0.3-3.3,0.6-4.9,0.8s-3.3,0.5-4.9,0.8c-0.8,0.2-1.6,0.3-2.4,0.5c-0.8,0.2-1.5,0.4-2.3,0.6c-1.6,0.5-3.2,1.1-4.8,1.8
			c-1,0.5-2.1,1-3.1,1.6s-2,1.2-2.9,1.9l-0.4,0.3c1.4-2,2.7-4,4-6.1l0.6-1l0.7,0.1c0.7,0.1,1.5,0.2,2.3,0.2c1.6,0,3.2-0.1,4.7-0.4
			c0.6-0.1,1.1-0.2,1.7-0.4s1.2-0.3,1.8-0.5c1.5-0.5,3-1.2,4.4-2c0.7-0.4,1.4-0.8,2.1-1.3s1.2-0.9,1.8-1.3c2.5-2.1,4.9-4.3,7.1-6.8
			c2.2-2.4,4.2-4.9,6.1-7.4c1-1.2,1.9-2.5,2.8-3.7l2.8-3.8c0.6-0.8,1.2-1.7,1.9-2.5s1.3-1.6,1.9-2.4l0.3-0.4
			c0.2-0.2,0.3-0.3,0.5-0.5c0.2-0.3,0.1-0.7-0.2-0.9c-0.1-0.1-0.3-0.2-0.4-0.2c-0.2,0-0.3,0-0.5,0.1c-0.2,0.1-0.3,0.2-0.5,0.3
			l-1,0.6c-0.7,0.4-1.3,0.8-2,1.2c-1.4,0.8-2.8,1.6-4.2,2.3l-0.6,0.3c-2.5,1.2-5.1,2.3-7.6,3.5l-0.2,0.1l-0.1,0.1h-0.1l0,0l0,0
			c-1.4,0.7-2.8,1.4-4.1,2.3c-0.7,0.4-1.4,0.9-2,1.4s-1.2,1-1.8,1.5c-2.3,2.1-4.5,4.4-6.5,6.8l-2.1,2.5c-0.6,0.8-1.3,1.5-1.9,2.3
			s-1.5,1.7-2.3,2.5c-0.4,0.4-0.8,0.8-1.2,1.1s-0.8,0.7-1.1,1l0,0l0,0l0,0l-0.4,0.4c0.6-1.1,1.2-2.3,1.7-3.4c1.3-2.6,2.4-5.3,3.5-8
			c0.1-0.1,0.3-0.2,0.4-0.3c0.6-0.5,1.2-1.1,1.8-1.8c0.5-0.6,1-1.2,1.4-1.9c0.5-0.7,0.9-1.4,1.3-2.1c0.8-1.4,1.5-2.9,2.1-4.4
			c0.6-1.6,1.1-3.1,1.6-4.7c0.2-0.8,0.4-1.6,0.6-2.4s0.4-1.6,0.6-2.4c0.3-1.6,0.6-3.2,0.9-4.9s0.5-3.4,0.6-5.1c0,0,0,0,0-0.1
			c0-0.3,0-0.6,0.1-1c0,0,0,0,0-0.1l0,0c0.3-3.2,0.3-6.5,0.2-9.7c0-1.6-0.1-3.3-0.1-5c0-0.8,0-1.6,0-2.4c0-0.2,0-0.4,0-0.6
			c0-0.3-0.1-0.7-0.3-0.9c-0.2-0.2-0.6-0.3-0.9-0.2c-0.3,0.1-0.5,0.3-0.7,0.6c-0.5,0.6-1,1.3-1.4,2c-0.4,0.7-0.8,1.4-1.2,2.2
			c-0.8,1.5-1.5,3-2.2,4.5c-1.4,3-2.6,6.1-3.6,9.3c-0.5,1.5-1,3.1-1.4,4.7c-0.4,1.6-0.8,3.2-1.2,5c-0.3,1.6-0.6,3.2-0.8,4.8
			s-0.4,3.2-0.5,4.9s-0.3,3.1-0.4,4.7s-0.2,3.1-0.2,4.7c0,0.2,0,0.4,0,0.6c0,0.3,0.2,0.6,0.5,0.6h0.1c-0.4,0.9-0.7,1.8-1.1,2.7
			l-0.8,1.7v-0.2c0-0.4,0-0.8,0-1.2s0-0.8-0.1-1.3c0-0.7-0.1-1.4-0.2-2.1c0-0.4-0.1-0.7-0.1-1s-0.1-0.7-0.2-1.1
			c-0.3-1.5-0.6-3-1-4.4s-0.8-3-1.3-4.4c-0.9-2.9-2-5.7-3.2-8.4s-2.2-5.4-3.3-8.2c-0.3-0.7-0.5-1.4-0.8-2.1
			c-0.1-0.2-0.2-0.5-0.3-0.7c-0.1-0.3-0.4-0.4-0.7-0.3c-0.3,0.1-0.5,0.3-0.5,0.6c-0.1,0.2-0.1,0.5-0.1,0.7c-0.1,1.5-0.2,3-0.3,4.4
			c-0.2,3-0.3,5.9-0.1,8.9c0,0.3,0,0.6,0,0.9c0.1,1.5,0.2,3,0.3,4.5c0.1,0.8,0.2,1.6,0.3,2.4s0.2,1.4,0.3,2.1c0.2,1.3,0.4,2.7,0.7,4
			c0,0.2,0.1,0.5,0.1,0.7c0.3,1.4,0.5,2.8,0.9,4.2c0.2,0.7,0.3,1.4,0.5,2.2s0.3,1.5,0.5,2.2c0.1,0.3,0.1,0.6,0.2,0.9
			c0.1,0.6,0.2,1.2,0.3,1.8s0.1,1.1,0.1,1.7s0,1.1,0,1.7s0,1.1,0,1.6s0,1.2,0,1.8c0,0.3,0,0.6,0,0.9l0.1,0.8c0,0.4,0,0.7,0,1.1
			c-0.5,0.7-1,1.5-1.5,2.2s-0.9,1.2-1.3,1.8s-1,1.2-1.5,1.9s-1,1.3-1.5,1.9c0-0.1,0-0.3-0.2-0.3c-0.1-0.1-0.3,0-0.4,0.1
			c-0.1,0.1,0,0.3,0.1,0.4c0,0,0,0,0,0c0.1,0,0.2,0,0.2,0c-0.4,0.5-0.8,0.9-1.3,1.4l-0.1,0.1c0.3-1,0.6-2,0.8-3
			c0.2-0.7,0.3-1.5,0.4-2.2s0.2-1.4,0.2-2.1c0-0.3,0-0.6,0.1-0.9l0,0l0,0l0,0c0-0.6,0.1-1.3,0.1-1.9s0-1.4,0-2.1s0-1.4-0.1-2.1
			s-0.1-1.3-0.2-1.9c-0.1-1-0.3-2-0.5-2.9l0,0c0,0,0,0,0-0.1l-0.1-0.5c-0.5-2.7-1.2-5.4-2-8c-0.4-1.3-0.8-2.6-1.2-4l0,0v-0.1v-0.1
			c0,0,0-0.1,0-0.1s-0.1-0.2-0.1-0.4l0,0l0,0l0,0l0,0l0,0c-0.1-0.3-0.2-0.6-0.3-0.9s-0.2-0.6-0.3-0.9c-0.5-1.4-1-2.9-1.4-4.3
			L536,209c-0.1-0.2-0.1-0.4-0.2-0.6v-0.1c-0.4-1.3-0.8-2.6-1.2-3.9s-0.8-2.6-1.1-3.9c-0.2-0.8-0.4-1.5-0.6-2.3
			c-0.1-0.4-0.2-0.7-0.3-1.1c0-0.2-0.1-0.4-0.1-0.5l-0.1-0.4c0-0.1-0.1-0.3-0.3-0.3c-0.2-0.1-0.4-0.1-0.5,0
			c-0.2,0.2-0.3,0.3-0.3,0.6l-0.1,0.5c-0.1,0.3-0.2,0.7-0.2,1c-0.1,0.6-0.3,1.3-0.4,1.9c-0.2,1.3-0.5,2.6-0.6,4s-0.4,2.7-0.5,4.1
			s-0.2,2.8-0.3,4.1s-0.1,2.7-0.1,4.1s0,2.7,0,4.1c0,0.6,0,1.1,0.1,1.7s0.1,1.4,0.1,2.1s0.1,1.4,0.2,2.1c0.2,1.4,0.4,2.7,0.6,4
			s0.5,2.7,0.9,4.1s0.8,2.6,1.2,3.8s0.9,2.5,1.4,3.8s1,2.4,1.5,3.6c0.3,0.8,0.7,1.6,1.1,2.4c0.2,0.4,0.4,0.8,0.5,1.2
			s0.3,0.8,0.4,1.1c0,0,0,0,0,0.1c0.1,0.3,0.2,0.6,0.3,0.9l-0.6,0.5c-1.4,1.3-2.9,2.6-4.3,3.9c-0.8,0.7-1.6,1.3-2.5,2
			s-1.8,1.4-2.7,2s-1.7,1.2-2.5,1.8c0.2-0.3,0.4-0.5,0.5-0.8c0.4-0.7,0.7-1.4,1-2.2c0.3-0.8,0.5-1.6,0.8-2.4c0.1-0.3,0.2-0.6,0.2-1
			l0.1-0.4c0.1-0.4,0.2-0.8,0.2-1.2s0.1-0.8,0.2-1.2c0.1-0.8,0.2-1.6,0.3-2.5c0.1-1.6,0.2-3.3,0.1-4.9c0-0.9-0.1-1.8-0.1-2.6
			s-0.1-1.6-0.2-2.3s-0.2-1.6-0.3-2.4s-0.3-1.7-0.4-2.6c-0.6-3.3-1.3-6.5-2.1-9.7c-0.8-3.1-1.8-6.2-3.1-9.1c-1.3-3-2.8-5.8-4.4-8.7
			c-0.5-1-1.1-2-1.6-3.1l-0.3-0.6c0-0.2-0.1-0.5-0.2-0.7c0-0.2-0.1-0.4-0.2-0.5c-0.2-0.3-0.7-0.4-1-0.2c-0.2,0.2-0.3,0.4-0.3,0.7
			l0,0c0,0.2,0.1,0.4,0.1,0.6s0.1,0.4,0.1,0.6c0.1,0.4,0.1,0.9,0.2,1.3c0.1,0.9,0.2,1.7,0.3,2.6c0,0,0,0,0,0.1l0,0v0.1l0,0v0.5
			c0.1,1.6,0.1,3.2,0.2,4.8s0.1,3.3,0.2,4.9s0.2,3.3,0.2,5s0.1,3.2,0.2,4.9s0.2,3.4,0.2,5.2c0,0,0,0.1,0,0.1l0,0v0.1
			c0,0.1,0,0.2,0,0.3v0.2c0.1,1.6,0.2,3.2,0.3,4.8c0.1,0.8,0.1,1.5,0.2,2.3s0.2,1.6,0.4,2.5s0.3,1.6,0.5,2.4s0.4,1.6,0.7,2.4
			c0.5,1.5,1,3,1.5,4.5c0.5,1.3,1,2.6,1.4,3.9c0.2,0.7,0.4,1.4,0.6,2.2c0,0,0,0.1,0,0.1c0,0.3,0.1,0.5,0.1,0.8s0.2,0.8,0.2,1.2
			s0.1,0.7,0.2,1.1c0.1,0.2,0.2,0.4,0.4,0.6c0.1,0.1,0.1,0.1,0.2,0.1l0,0l-0.8,0.5c-2.1,1.3-4.2,2.5-6.3,3.7
			c-1.4,0.8-2.8,1.5-4.3,2.2c0.1-0.2,0.1-0.3,0.2-0.5c0.1-0.4,0.3-0.8,0.4-1.2c0.2-0.8,0.4-1.7,0.5-2.5c0.3-1.9,0.5-3.7,0.7-5.6
			c0,0,0-0.1,0-0.1c0.1-0.9,0.1-1.8,0.2-2.7s0.1-1.6,0.1-2.5c0.1-1.7,0.1-3.5,0-5.2s-0.2-3.5-0.3-5.3s-0.4-3.4-0.7-5.1
			c0-0.2-0.1-0.4-0.1-0.6l0,0l0,0l0,0l0,0l0,0c-0.6-3.4-1.4-6.8-2.2-10.2c-0.9-3.4-1.7-6.7-2.7-10.1c-0.4-1.4-0.8-2.8-1.2-4.2
			s-0.8-2.7-1-4c0-0.2-0.1-0.3-0.1-0.5c-0.1-0.2-0.4-0.3-0.6-0.2c-0.5,0.1-0.7,0.7-0.8,1.1s-0.2,0.8-0.3,1.2
			c-0.3,0.8-0.5,1.7-0.8,2.5c-0.5,1.6-1,3.3-1.4,4.9c-0.1,0.4-0.2,0.9-0.3,1.4l0,0v0.1l0,0c-0.4,1.6-0.6,3.3-0.8,5
			c-0.2,1.8-0.3,3.5-0.3,5.3c0,1.8,0.1,3.5,0.2,5.3c0.1,1.7,0.2,3.4,0.4,5.2s0.4,3.4,0.7,5.1s0.7,3.5,1.2,5.3s1,3.3,1.6,4.9
			c0.3,0.8,0.5,1.6,0.9,2.4s0.6,1.5,0.9,2.3c0.7,1.9,1.5,3.7,2.1,5.6c0.1,0.4,0.3,0.8,0.4,1.2s0.2,1,0.3,1.4c0,0.3,0.1,0.5,0.1,0.8
			s0,0.4,0.1,0.5c0,0.1,0,0.1,0,0.2c-1.4,0.6-2.8,1.3-4.3,1.8c-1.6,0.7-3.3,1.3-5,1.8c-1,0.3-1.9,0.6-2.9,0.9c0,0,0-0.1,0-0.1
			c0.3-0.8,0.6-1.6,0.8-2.5c0.2-0.8,0.4-1.7,0.5-2.5c0.1-0.9,0.2-1.8,0.2-2.7c0-1.1,0-2.2,0-3.3V264c0-0.1,0-0.2,0-0.2v-0.2
			c0-0.9-0.1-1.8-0.2-2.7s-0.2-1.7-0.3-2.5s-0.3-1.7-0.5-2.6s-0.4-1.8-0.6-2.7c-0.9-3.4-2-6.7-3.2-10c-1.3-3.3-2.6-6.5-4-9.8
			c-0.7-1.7-1.4-3.3-2-5s-1.3-3.3-1.8-5c-0.1-0.5-0.3-0.9-0.5-1.4c-0.5-1.7-1.1-3.4-1.5-5.1c-0.2-0.8-0.4-1.6-0.6-2.5
			s-0.4-1.7-0.6-2.6c0-0.2-0.1-0.4-0.1-0.7c-0.1-0.5-0.2-0.9-0.2-1.4c0-0.2-0.1-0.5-0.1-0.7s0-0.2,0-0.3c0-0.2-0.1-0.4-0.1-0.5
			c-0.1-0.2-0.4-0.4-0.7-0.3c-0.1,0-0.3,0.1-0.4,0.2c-0.1,0.1-0.2,0.3-0.2,0.4c-0.1,0.2-0.2,0.4-0.2,0.6c-0.1,0.4-0.3,0.8-0.4,1.2
			c-0.2,0.8-0.5,1.6-0.7,2.5c-0.5,1.7-1,3.4-1.5,5.1c-0.2,0.8-0.4,1.7-0.6,2.6c-0.1,0.4-0.2,0.9-0.3,1.3s-0.1,1-0.2,1.4
			c-0.1,0.9-0.1,1.8-0.2,2.7c0,0.4,0,0.9,0,1.3s0,0.9,0,1.4c0.1,0.9,0.1,1.8,0.2,2.7s0.2,1.7,0.4,2.6c0.4,1.8,0.9,3.5,1.4,5.2
			c0.1,0.3,0.2,0.6,0.3,0.9c0,0,0,0.1,0,0.1l0,0c0.4,1.1,0.8,2.2,1.2,3.2s0.9,2.1,1.3,3.1c0.7,1.6,1.5,3.1,2.3,4.6
			c0.8,1.6,1.7,3.1,2.5,4.7c0.5,1,1,2,1.6,3.1s1,2,1.5,3c0.6,1.3,1.1,2.5,1.7,3.8s1,2.4,1.4,3.7c0,0,0,0,0,0.1l0,0l0,0
			c0,0,0,0,0,0.1l0,0c0,0,0,0.1,0,0.1c0.6,1.7,1,3.4,1.4,5.1c0.1,0.5,0.2,1,0.2,1.4L493,276c-2.1,0.5-4.2,0.9-6.3,1.3
			c-2.7,0.5-5.5,0.9-8.2,1.2c-1.4,0.1-2.7,0.2-4.1,0.3l-4,0.3c-0.7,0-1.4,0.1-2.1,0.1h-2.2c-1.4,0-2.9-0.1-4.3-0.2l-4.1-0.1
			c-1.4,0-2.8-0.1-4.2-0.2l-2.2-0.1l-2-0.1h-0.4c-1.8-0.2-3.6-0.4-5.5-0.7"/>
		<path class="st8" d="M279.9,240.1c-2.5,1.3-1,21.9,0,22.9s131.4,0,131.4,0s2.3-24.6,0-24.6S281.2,239.4,279.9,240.1"/>
		<path class="st37" d="M277.3,238.6c-0.1,1-0.4,3.4,0,3.6s135.8-1.8,135.8-1.8V237L277.3,238.6z"/>
		<path class="st37" d="M412.9,263c0.1-1,0.4-3.4,0-3.6s-134.3,1.8-134.3,1.8v3.4L412.9,263z"/>
		<path class="st10" d="M280.2,249.2c0,0,128.9-2.8,129-2S280.2,249.2,280.2,249.2"/>
		<path class="st10" d="M280.9,252c0,0,128.9-2.8,129-2S280.9,252,280.9,252"/>
		<path class="st10" d="M280.2,254.5c4.4,0.2,129.4-2.1,129-0.8S280.2,254.5,280.2,254.5"/>
		<path class="st10" d="M409.3,243.2c-4.4-0.2-129.4,2.1-129,0.8S409.3,243.2,409.3,243.2"/>
		<path class="st10" d="M279.9,292c-0.1,1.3-1.1,13.2,0,13.7s123.7-0.3,123.7-0.8v-14.7C403.7,290.1,280,290.8,279.9,292"/>
		<path class="st22" d="M278.9,290.1c-0.1,1-0.4,3.4,0,3.6s125.5-1.8,125.5-1.8v-3.4L278.9,290.1z"/>
		<path class="st22" d="M404.2,305.5c0.1-1,0.4-3.4,0-3.6s-125.5,1.8-125.5,1.8v3.4L404.2,305.5z"/>
		<path class="st8" d="M280.4,294.3c4.1,0.2,120.8-2.1,120.4-0.8S280.4,294.3,280.4,294.3"/>
		<path class="st8" d="M400.8,298.8c-2,0.2-118.6,2-118.6,2v-2H400.8z"/>
		<path class="st10" d="M286.9,168.4c-0.1,1.3-1.2,13.2,0,13.7s123.7-0.3,123.7-0.8v-14.7C410.6,166.5,287,167.2,286.9,168.4"/>
		<path class="st38" d="M285.8,166.5c-0.1,1-0.4,3.4,0,3.6s125.5-1.8,125.5-1.8V165L285.8,166.5z"/>
		<path class="st38" d="M411.1,181.9c0.1-1,0.4-3.4,0-3.6s-125.5,1.8-125.5,1.8v3.4L411.1,181.9z"/>
		<path class="st8" d="M287.3,170.7c4.1,0.2,120.7-2.1,120.4-0.8S287.3,170.7,287.3,170.7"/>
		<path class="st8" d="M407.8,175.2c-2,0.2-118.6,2-118.6,2v-2H407.8z"/>
		<path class="st16" d="M281.6,265.2c-2.5,1.3-1,21.9,0,22.9s131.4,0,131.4,0s2.3-24.6,0-24.6S282.9,264.5,281.6,265.2"/>
		<path class="st17" d="M314,274.8v1.1c0,0,72.4-0.1,72.5-0.2c0-0.3,0-0.7,0-1L314,274.8z"/>
		<path class="st19" d="M299.1,269.6c0,0-0.4,13.1,0,13.1s4.4,0.5,4.4,0s0.5-13.5,0-13.1S299.1,269.6,299.1,269.6"/>
		<path class="st18" d="M395.1,264.2c0,0-0.4,23.2,0.4,23.5c0.8,0.1,1.6,0.2,2.3,0.1l-0.1-23.4L395.1,264.2z"/>
		<path class="st17" d="M404.5,264.5c0,0-0.4,23.2,0.4,23.5c0.8,0.1,1.6,0.2,2.4,0.1l-0.1-23.4L404.5,264.5z"/>
		<path class="st18" d="M391.2,264.2c0,0-0.4,23.2,0.4,23.5c0.8,0.1,1.6,0.2,2.4,0.1l-0.1-23.5L391.2,264.2z"/>
		<path class="st9" d="M284.7,276.3c0-4.4,6.2-7.9,9-5.3s2.7,8.4-1.7,10C289,282.1,284.6,280.1,284.7,276.3"/>
		<path class="st20" d="M276.4,207.7c-7.5,4.6-1.3,29.7,0,30.2s131.3-2.1,131.3-2.1s2.1-27.5,1.1-28.3S278.5,206.5,276.4,207.7"/>
		<path class="st21" d="M304.4,218.2v2.2c0,0,82.3-0.3,82.4-0.4c0.1-0.7,0.1-1.4,0-2.1L304.4,218.2z"/>
		<path class="st21" d="M304.1,222.8v2.2c0,0,82.3-0.3,82.4-0.4c0.1-0.7,0.1-1.4,0-2.1L304.1,222.8z"/>
		<path class="st5" d="M281.2,208.9c0,0-0.5,26.7,0.2,27c0.8,0.2,1.6,0.2,2.4,0.1l0.1-27L281.2,208.9z"/>
		<path class="st5" d="M298,209.2c0,0-0.5,26.7,0.2,27c0.8,0.2,1.6,0.2,2.4,0.1l0.1-27L298,209.2z"/>
		<path class="st5" d="M392.9,207.8c0,0-0.5,26.7,0.2,27c0.8,0.2,1.6,0.2,2.4,0.1l0.1-27L392.9,207.8z"/>
		<path class="st5" d="M388.9,207.8c0,0-0.5,26.7,0.2,27c0.8,0.2,1.6,0.2,2.4,0.1l0.1-27L388.9,207.8z"/>
		<path class="st5" d="M273.7,184.5c-2.5,1.3-1,22,0,22.9s131.4,0,131.4,0s2.3-24.6,0-24.6S275,183.9,273.7,184.5"/>
		<path class="st39" d="M306.1,194.1v1.1c0,0,72.4-0.1,72.5-0.2c0-0.3,0-0.7,0-1L306.1,194.1z"/>
		<path class="st26" d="M291.2,189c0,0-0.4,13.1,0,13.1s4.4,0.5,4.4,0s0.5-13.5,0-13.1S291.2,189,291.2,189"/>
		<path class="st26" d="M387.3,183.5c0,0-0.4,23.2,0.4,23.4c0.8,0.2,1.6,0.2,2.4,0.1l-0.1-23.4L387.3,183.5z"/>
		<path class="st26" d="M396.6,183.8c0,0-0.4,23.2,0.4,23.5c0.8,0.1,1.6,0.2,2.3,0.1l-0.1-23.4L396.6,183.8z"/>
		<path class="st26" d="M383.3,183.5c0,0-0.4,23.2,0.4,23.5c0.8,0.1,1.6,0.2,2.4,0.1l0-23.4L383.3,183.5z"/>
		<path class="st26" d="M276.8,195.6c0-4.4,6.2-7.9,9-5.3s2.7,8.4-1.7,10C281.1,201.4,276.8,199.5,276.8,195.6"/>
		<path class="st10" d="M191.4,254.3c-0.1,1.2-1.1,12.2,0,12.7s114.7-0.3,114.7-0.8v-13.6C306.1,252.6,191.6,253.2,191.4,254.3"/>
		<path class="st24" d="M190.5,252.6c-0.1,1-0.3,3.1,0,3.4s116.3-1.7,116.3-1.7v-3.1L190.5,252.6z"/>
		<path class="st14" d="M306.6,266.8c0.1-1,0.3-3.1,0-3.4s-116.3,1.7-116.3,1.7v3.1L306.6,266.8z"/>
		<path class="st8" d="M191.9,256.4c3.8,0.2,111.9-2,111.6-0.8S191.9,256.4,191.9,256.4"/>
		<path class="st8" d="M303.5,260.6c-1.8,0.1-109.9,1.8-109.9,1.8v-1.8H303.5z"/>
		<path class="st8" d="M188.2,216.1c-2.4,1.2-0.9,20.3,0,21.3s121.7,0,121.7,0s2.1-22.8,0-22.8S189.4,215.5,188.2,216.1"/>
		<path class="st24" d="M185.7,214.7c-0.1,0.9-0.4,3.1,0,3.4s125.8-1.7,125.8-1.7v-3.1L185.7,214.7z"/>
		<path class="st24" d="M311.3,237.3c0.1-1,0.4-3.1,0-3.4s-124.5,1.7-124.5,1.7v3.1L311.3,237.3z"/>
		<path class="st10" d="M188.4,224.5c0,0,119.4-2.5,119.6-1.9S188.4,224.5,188.4,224.5"/>
		<path class="st10" d="M189.1,227.2c0,0,119.4-2.6,119.6-1.9S189.1,227.2,189.1,227.2"/>
		<path class="st10" d="M188.4,229.4c4.1,0.1,119.9-2,119.6-0.8S188.4,229.4,188.4,229.4"/>
		<path class="st10" d="M308,219c-4.1-0.2-119.9,2-119.6,0.8S308,219,308,219"/>
		<path class="st38" d="M193.9,238.6c-0.1,1.2-1.1,12.2,0,12.7s114.7-0.3,114.7-0.8V237C308.5,237,194,237.6,193.9,238.6"/>
		<path class="st21" d="M197.7,242.7v4.1c0,0,89.1-0.5,89.2-0.8s0-3.9,0-3.9L197.7,242.7z"/>
		<path class="st21" d="M290,241.9v4c0,0,7.5,0.2,7.5-0.1s0-3.9,0-3.9L290,241.9z"/>
		<path class="st12" d="M187.6,266.9c-6.9,4.2-1.2,27.5,0,28s121.7-2,121.7-2s1.9-25.5,1-26.3S189.6,265.8,187.6,266.9"/>
		<path class="st25" d="M213.5,276.7v2c0,0,76.3-0.2,76.4-0.4c0.1-0.6,0.1-1.3,0-2L213.5,276.7z"/>
		<path class="st25" d="M213.2,280.9v2c0,0,76.3-0.2,76.4-0.4c0.1-0.7,0.1-1.3,0-2L213.2,280.9z"/>
		<path class="st5" d="M192,268c0,0-0.5,24.8,0.2,25c0.7,0.2,1.4,0.2,2.2,0.1l0.1-25L192,268z"/>
		<path class="st5" d="M207.7,268.3c0,0-0.5,24.8,0.2,25c0.7,0.2,1.4,0.2,2.2,0.1l0.1-25L207.7,268.3z"/>
		<path class="st5" d="M295.5,267c0,0-0.5,24.8,0.2,25c0.7,0.1,1.4,0.2,2.2,0.1l0.1-25L295.5,267z"/>
		<path class="st5" d="M291.9,267c0,0-0.5,24.8,0.2,25c0.7,0.1,1.4,0.2,2.2,0.1l0.1-25L291.9,267z"/>
		<path class="st25" d="M195.6,271c0.9-0.1,10.9-0.4,10.9,0v4.5c0,0-11.1,0.4-10.9,0C195.7,274,195.7,272.5,195.6,271"/>
		<path class="st25" d="M195.6,278.3c0.9-0.1,10.9-0.4,10.9,0v4.5c0,0-11.1,0.3-10.9,0C195.7,281.3,195.7,279.8,195.6,278.3"/>
		<path class="st25" d="M195.6,285.6c0.9-0.1,10.9-0.4,10.9,0v4.5c0,0-11.1,0.3-10.9,0C195.7,288.6,195.7,287.1,195.6,285.6"/>
		<path class="st37" d="M192.8,295.9c-2.4,1.2-1,20.3,0,21.3s121.7,0,121.7,0s2.1-22.8,0-22.8S193.9,295.3,192.8,295.9"/>
		<path class="st40" d="M209,300c0,0-0.4,12.2,0,12.2s4.1,0.5,4.1,0s0.5-12.5,0-12.2S209,300,209,300"/>
		<path class="st40" d="M298,295c0,0-0.3,21.5,0.3,21.7c0.7,0.1,1.4,0.2,2.2,0.1l-0.1-21.7L298,295z"/>
		<path class="st40" d="M306.6,295.3c0,0-0.3,21.5,0.3,21.7c0.7,0.1,1.4,0.2,2.2,0.1l-0.1-21.7L306.6,295.3z"/>
		<path class="st40" d="M294.3,295c0,0-0.3,21.5,0.3,21.7c0.7,0.1,1.4,0.2,2.2,0.1l-0.1-21.7L294.3,295z"/>
		<path class="st40" d="M195.6,306.2c0-4.1,5.7-7.3,8.4-4.9s2.5,7.8-1.6,9.3C199.7,311.6,195.6,309.8,195.6,306.2"/>
		<path class="st13" d="M179.5,201.1c-0.1,1.2-1.1,12.2,0,12.7s114.7-0.3,114.7-0.8v-13.6C294.1,199.4,179.6,200,179.5,201.1"/>
		<path class="st15" d="M183.3,205.1v4c0,0,89.1-0.5,89.2-0.8s0-3.9,0-3.9L183.3,205.1z"/>
		<path class="st15" d="M275.5,204.3v4c0,0,7.5,0.2,7.5-0.1s0-3.9,0-3.9L275.5,204.3z"/>
		<path class="st10" d="M399.9,241.6c-1.9,2.3-0.3,26,1,26.4s123.2-1.2,123.2-1.2s-0.5-25.6-1.4-26.3S401.4,239.8,399.9,241.6"/>
		<path class="st5" d="M398.4,240.1c0,0-0.9,4.3,0,4.8s125.7-1.7,125.7-1.7s0.7-4.5,0-4.5L398.4,240.1"/>
		<path class="st5" d="M399.2,269.7c0,0-0.9-4.3,0-4.8s125.7,0.2,125.7,0.2s0.7,4.5,0,4.5L399.2,269.7"/>
		<path class="st8" d="M399.8,249.9c0,0,122.2-2.6,122.4-1.9S399.8,249.9,399.8,249.9"/>
		<path class="st8" d="M399.8,254.9c4.1,0.2,122.8-2,122.4-0.8S399.8,254.9,399.8,254.9"/>
		<path class="st8" d="M522.2,259c-2,0.2-120.6,1.9-120.6,1.9V259H522.2z"/>
		<path class="st16" d="M409.1,267c0.1,2.6,0,13.2,0.8,14.1s113.1,0,113.1,0V267C523,267,409.1,266.3,409.1,267"/>
		<path class="st5" d="M510.1,267.8c0,0-0.4,12.3,0,12.3s4.1,0.5,4.1,0s0.5-12.6,0-12.3S510.1,267.8,510.1,267.8"/>
		<path class="st5" d="M504.3,267.9c0,0-0.4,12.2,0,12.2s4.1,0.5,4.1,0s0.5-12.6,0-12.2S504.3,267.9,504.3,267.9"/>
		<path class="st5" d="M414.8,267.8c-0.3,1.2,0,12.6,0,12.6h1.9v-12.5L414.8,267.8z"/>
		<path class="st5" d="M423.7,274.1c0,0,28.6-3.5,38.1-3.3s36,2.8,36.2,3.3s-35.8,2.2-36.5,2.3S423.7,274.1,423.7,274.1"/>
		<path class="st20" d="M394.2,284.1c-7,4.3-1.2,27.7,0,28.2s122.6-2,122.6-2s1.9-25.7,1-26.4S396.2,282.9,394.2,284.1"/>
		<path class="st21" d="M420.3,293.9v2c0,0,76.8-0.2,76.9-0.4c0.1-0.7,0.1-1.3,0-2L420.3,293.9z"/>
		<path class="st21" d="M420,298.1v2c0,0,76.8-0.2,76.9-0.4c0.1-0.7,0.1-1.3,0-2L420,298.1z"/>
		<path class="st5" d="M398.7,285.3c0,0-0.5,25,0.2,25.2c0.7,0.2,1.5,0.2,2.2,0.1l0.1-25.2L398.7,285.3z"/>
		<path class="st5" d="M414.4,285.5c0,0-0.5,25,0.2,25.2c0.7,0.2,1.5,0.2,2.2,0.1l0.1-25.2L414.4,285.5z"/>
		<path class="st5" d="M503,284.2c0,0-0.5,25,0.2,25.2c0.7,0.2,1.5,0.2,2.2,0.1l0.1-25.2L503,284.2z"/>
		<path class="st5" d="M499.3,284.2c0,0-0.5,25,0.2,25.2c0.7,0.2,1.5,0.2,2.2,0.1l0.1-25.2L499.3,284.2z"/>
		<path class="st41" d="M126.5,268.8c-5.2,18.8,10.1,35.3,24.1,45.5c17.5,12.6,38.1,20.2,58.7,26.1c41.9,12,87.4,22.4,131,15.2
			c10.7-1.7,21.1-4.7,31-8.8c6.5-2.7,14.8-6.7,16-14.5c0.9-5.7-2.9-13.1-9.5-12.3s-9.5,8.5-7.6,14.3c6.2,18.6,35.5,16.1,50.5,15.5
			c22.6-0.9,45.1-4.5,67.1-9.7c51.9-12.1,101.3-32.5,152.1-48c2-0.6,1.2-3.9-0.9-3.2c-75.3,23-149.8,58.1-230.1,58
			c-9.1,0-18.9,0-27.1-4.4c-4.4-2.3-8.8-6.4-9.2-11.6c-0.6-8,9.6-11.2,11.9-2.9c2.9,10.5-11.8,15.6-19.1,18.3
			c-8.9,3.3-18.2,5.6-27.6,7.1c-38.7,6-78.3-2.1-115.7-11.8c-20.4-5.3-40.8-11.4-59.2-21.9c-17.8-10.1-39.4-27.4-35.4-50.6
			C127.8,268.4,126.7,268.1,126.5,268.8"/>
		<path class="st42" d="M649.4,300.9c0.7-0.7,1.5-1.4,2.2-2.2c2-2.1,4-4.1,6-6.1c4.1-4.1,8.1-8.4,12-12.8c0.7-0.8,1.5-1.6,2.2-2.5
			c0.2-0.3,1.2-1,0.5-1.1c-0.2-0.4-0.6-0.2-0.9-0.1l0,0c-0.9,0.2-1.7,0.5-2.6,0.9c-2.6,0.8-5.1,1.9-7.5,3.1
			c-2.6,1.2-5.1,2.6-7.6,3.9c-3.1,1.4-6.3,2.6-9.6,3.5c-1.1-1,0.2,3.8,0.2,4.2c0.1,1,0.1,1.9,0.2,2.9c0,0.7,0.1,1.4,0.3,2
			c-0.2,0.3,0.3,0.7,0.4,1c0.7,1.1,1.5,2.2,2.3,3.2C648.5,301.9,649,301.4,649.4,300.9"/>
		<path class="st41" d="M635.8,302.9c0.9,0.2,2.1-0.6,3-0.9l0,0c6.3-3.3,11.6-8.1,17.1-12.5c3.8-3.2,7.8-6,11.6-9.1
			c1.2-1,2.4-2.2,3.6-3.2c0.5-0.2,1.8-0.9,0.8-1.2c-1.8,0-3.5,0.1-5.3,0.2c-2.1,0.1-4.1,0.1-6.2,0.2c-3.5,0.1-7,0.3-10.5,0.6
			c-2.6,0.2-5.2,0.5-7.8,0.5c-2.1,0-4.2,0.2-6.2,0.4c-0.6,0.2-1.8,0.1-2.1,0.6c0,0.2,5.6,5.4,8.1,8.1l0,0c0.4,0.4,0.8,0.8,1.3,1.2
			c0.4,0.5,1.5,0.1,2,0c1.9-0.6,3.7-1.5,5.5-2.3c4.9-2.2,9.8-4.2,14.9-6.1c-7,3.4-21.6,9.9-21.8,10c-0.5,0.8-1,1.6-1.5,2.4
			c-1.1,1.7-2.3,3.5-3.3,5.2c-0.8,1.3-1.6,2.7-2.4,4c-0.3,0.4-0.5,0.9-0.7,1.3C635.6,302.5,635.6,302.7,635.8,302.9
			C635.8,302.9,635.8,302.9,635.8,302.9"/>
	</g>
</g>
</svg>
