<svg xmlns="http://www.w3.org/2000/svg" xmlns:xlink="http://www.w3.org/1999/xlink" viewBox="0 0 317 122.64"><defs><style>.cls-1{fill:none;}.cls-2{isolation:isolate;}.cls-3{fill:#664631;}.cls-11,.cls-12,.cls-14,.cls-15,.cls-3,.cls-4,.cls-5,.cls-6,.cls-7,.cls-8,.cls-9{fill-rule:evenodd;}.cls-4{fill:#9a7c5d;}.cls-5{fill:#3b2722;}.cls-6{fill:#785840;}.cls-7{fill:#f9e5d2;}.cls-8{fill:#fff1e1;}.cls-9{fill:#f9eacd;}.cls-10{opacity:0.65;}.cls-10,.cls-13{mix-blend-mode:multiply;}.cls-11{fill:#e5cea8;}.cls-12{fill:#e0c8a2;}.cls-13{opacity:0.45;}.cls-14,.cls-43{fill:#eaae4e;}.cls-15{fill:#fff1d2;}.cls-16{opacity:0.5;}.cls-17{fill:#fbb03b;}.cls-18{clip-path:url(#clip-path);}.cls-19{fill:#fff4d7;}.cls-20{fill:#fff3d6;}.cls-21{fill:#fff2d5;}.cls-22{fill:#fef1d4;}.cls-23{fill:#fef0d3;}.cls-24{fill:#feefd2;}.cls-25{fill:#feeed1;}.cls-26{fill:#fdedd0;}.cls-27{fill:#fdeccf;}.cls-28{fill:#fdebce;}.cls-29{fill:#fdeacd;}.cls-30{fill:#fde9cc;}.cls-31{fill:#fce8ca;}.cls-32{fill:#fce7c9;}.cls-33{fill:#fce6c8;}.cls-34{fill:#fce5c7;}.cls-35{fill:#fbe4c6;}.cls-36{fill:#fbe3c5;}.cls-37{fill:#fbe2c4;}.cls-38{fill:#fbe1c3;}.cls-39{fill:#fae0c2;}.cls-40{fill:#fadfc1;}.cls-41{fill:#fadec0;}.cls-42{clip-path:url(#clip-path-2);}</style><clipPath id="clip-path"><path class="cls-1" d="M142.63,17c.08,0,.09-.14,0-.14a.07.07,0,0,0,0,.14Z"/></clipPath><clipPath id="clip-path-2"><path class="cls-1" d="M174.66,26.71a.07.07,0,0,0,0-.14.07.07,0,0,0,0,.14Z"/></clipPath></defs><title>Asset 16</title><g class="cls-2"><g id="Layer_2" data-name="Layer 2"><g id="Layer_2-2" data-name="Layer 2"><path class="cls-3" d="M225.54,109.76l-.15-.08-2.62-1.32h0l-1.69-.86-1.34-.68h0l-5.36-2.71-1.22-.62-.77-.39-1.16,2,.26-2.4L142.75,67.91l-.71.39-.24.77-.11.32-.13.31-.14.31-.16.3-.15.25,0,0,0,.06h0l0,0-.12.17-.2.28-.22.28-.36.4-.39.4-.42.37-.45.35-.48.35-.5.32-.52.3-.54.29-.57.27-.58.25-.6.24-.61.22-.63.2-.64.18-.65.16-.66.15-.69.13-.69.11-.7.1-.7.07-.69,0-.7,0h-1.39l-.69,0-.67,0-.68-.07-.65-.09-.65-.1-.64-.13-.62-.14-.33-.09L117,73.48l-.62,0,3.57,1.8-.34-.13-.47-.22,8.53,4.31h0L155.74,93.4h0l1.75.89,1.32.66h0l7.54,3.82h0l4.11,2.07,14.44,7.31h0l10.78,5.45h0l4.15,2.09h0l2.69,1.36.22.11.2.09.07,0,.21.09.1,0,.05,0,.2.08h0l.13,0,.09,0h0l.42.15.53.17.54.14.08,0,.61.14.54.11h.18l.45.07h.17l.6.08.52,0h.16l.17,0,.5,0,.61,0h1.54l.62,0h0l.63,0h.16l.48,0h.31l.4,0,.19,0h0l.56-.09.69-.13.62-.14.15,0,.2,0h0l.1,0,.22,0,.18-.05h0l.45-.13.59-.18,0,0h0l.56-.2h0l.59-.24h0l.58-.25.57-.27h0l.54-.29h0l.52-.3.5-.33.42-.29.06,0,0,0,.08-.06.34-.27h0l.42-.38.39-.39.37-.4.16-.21a.36.36,0,0,0,.07-.1l.19-.25.19-.29h0l.17-.29h0l.16-.3h0l.15-.31h0l.12-.31h0l.11-.32.24-.77.72-.39ZM200,120.23l-.52-.31-.5-.33-9.62-4.87-4.35-2.2h0l-10.15-5.13h0l-17.28-8.73h0L154.25,97h0l-8.49-4.29h0l-28-14.15-2.39-1.21.5.33.52.31.55.3.51.25,27.86,14.09h0l8.56,4.32h0l3.34,1.69h0l17.34,8.77h0l10.13,5.12h0l4.35,2.2,10.12,4.56,1.43,1.28Z"/><path class="cls-4" d="M225.54,109.76l.86.43-.72.39-.24.77-.11.32-.12.31-.15.31-.16.3-.17.29-.19.29-.2.28-.22.27-.37.41-.39.39-.42.38-.45.36-.48.33-.5.33-.52.3-.54.29-.57.27-.58.25-.59.24-.62.21-.63.2-.64.19-.65.16-.66.15-.69.13-.69.11-.7.09-.69.08-.7,0-.7,0-.69,0h-.6a10.47,10.47,0,0,1,4.19-6.13C217.33,110.3,221.42,109.64,225.54,109.76Z"/><polygon class="cls-5" points="226.4 110.19 142.75 67.91 231.81 36.4 316.73 68.91 226.4 110.19"/><polygon class="cls-5" points="84.02 104.94 0.38 62.66 116.34 73.43 199.98 115.71 84.02 104.94"/><polygon class="cls-6" points="83.64 108.87 0 66.59 0.38 62.66 84.02 104.94 83.64 108.87"/><path class="cls-6" d="M84,104.94l116,10.77.62.05.47.38a11.08,11.08,0,0,0,3.68,1.79,23.14,23.14,0,0,0,10.76.25c3.55-.73,6.75-2.23,8.61-4.46a7,7,0,0,0,1.32-2.37l.24-.77.72-.39L316.73,68.9l.27,3.39-87.95,41a11.14,11.14,0,0,1-1.76,2.92c-2.48,3-6.54,4.93-10.93,5.84a27.45,27.45,0,0,1-12.78-.34,15.57,15.57,0,0,1-4.56-2.12L83.64,108.87Z"/><path class="cls-7" d="M31.53,48.76c41.33-1.14,81.75,3,103,18.64l76.72,36.75L93.06,83.43,29,50.31Z"/><polygon class="cls-8" points="94.53 78.9 93.15 83.44 87.84 100.86 87.29 102.68 11.43 63.84 11.62 63.7 21.57 56.12 22.58 55.35 22.87 55.13 23.83 54.4 29.12 50.37 30.03 49.68 30.04 49.67 30.88 49.03 30.99 49.09 74.61 69.55 74.61 69.55 94.07 78.68 94.53 78.9"/><path class="cls-9" d="M134.44,67.48c21.88-19,47.65-32.89,81.8-39.7L287.46,53.5l-76.12,51.25Z"/><g class="cls-10"><path class="cls-11" d="M134.35,67.5c21.88-19,47.74-32.91,81.89-39.72l44.26,16c-19.18,14.18-44.62,39.24-49.17,60.7l0,.2Z"/></g><path class="cls-12" d="M307,69.2l-82.56,39.52c-9.64-2.3-18-1.45-27.49,5l-109.64-11,6.82-24.14c47.39-2.25,85.63,8.74,117.21,26.16,17.44-25.48,42-41.7,76.14-51.2Z"/><g class="cls-13"><path class="cls-14" d="M201.38,111.47C169,98.53,129.24,95.56,94.22,94.78c35-.3,69.11-.49,106.45,13.2-3.65-3.5-11.53-7.87-49.5-14.89,6.07.47,22.12.57,54.1,13-8.25-6-25-13.86-62.84-22,24.63,3.37,46.33,9.75,69.42,22.68,17.63-18.87,30.75-29.07,51.61-39.65-17.3,10.64-34.27,23.07-46.13,37.93,16.94-16,23.09-20.35,47.41-29.39-24.71,11.88-37,20.93-43.64,29.74,23.74-17.84,51.71-30.08,76.58-38C274.31,77.53,247,90.72,224.07,107.61Z"/></g><path class="cls-5" d="M199.68,114.25a1.13,1.13,0,0,1-1.56-.27,1.11,1.11,0,0,1,.28-1.55,29.92,29.92,0,0,1,12.19-5.13,32.77,32.77,0,0,1,14.41.43,1.11,1.11,0,0,1,.8,1.36,1.14,1.14,0,0,1-1.38.79,30.54,30.54,0,0,0-13.45-.39A27.81,27.81,0,0,0,199.68,114.25Z"/><path class="cls-15" d="M134.35,67.5C142,38,157.06,13.11,182,0l85.41,31.06c-33.81,16.47-49.13,44-56.11,73.63Z"/><g class="cls-16"><path class="cls-17" d="M143.74,69.38c.16-.56.33-1.11.51-1.67.46-1.49.95-3,1.45-4.47.75-2.19,1.53-4.38,2.36-6.55q1.49-3.94,3.17-7.82c1.23-2.83,2.53-5.64,3.94-8.39s3-5.49,4.62-8.12a58.92,58.92,0,0,1,5.28-7.18,88.69,88.69,0,0,1,8.38-8.41c2.31-2,4.72-4,7.2-5.83,1.24-.92,2.5-1.81,3.8-2.65l.17-.11c.3-.19,0-.66-.27-.47-.92.57-1.81,1.2-2.69,1.83-2.27,1.61-4.47,3.33-6.6,5.12a94.74,94.74,0,0,0-8.31,7.84,63.69,63.69,0,0,0-6.13,7.6,89.16,89.16,0,0,0-4.82,8c-1.48,2.74-2.84,5.55-4.13,8.4q-1.8,4-3.39,8.09-1.36,3.47-2.59,7c-.59,1.68-1.15,3.38-1.69,5.08-.26.81-.53,1.63-.75,2.45l0,.11a.27.27,0,0,0,.52.14Z"/></g><g class="cls-16"><path class="cls-17" d="M148.77,71.57c.17-.56.35-1.12.52-1.68q.74-2.28,1.52-4.53c.77-2.22,1.59-4.41,2.44-6.59,1-2.66,2.13-5.3,3.29-7.9,1.27-2.85,2.62-5.66,4.08-8.42s3.07-5.57,4.81-8.22A60.59,60.59,0,0,1,170.94,27a92,92,0,0,1,8.61-8.38q3.57-3.06,7.38-5.79c1.27-.91,2.55-1.8,3.88-2.63l.17-.11c.3-.19,0-.66-.27-.48-.94.58-1.85,1.2-2.75,1.83q-3.47,2.4-6.73,5.07a100.92,100.92,0,0,0-8.57,7.84A63.54,63.54,0,0,0,166.31,32a86,86,0,0,0-5,8Q159,44.18,157,48.52c-1.25,2.68-2.41,5.39-3.52,8.13-.94,2.33-1.83,4.69-2.68,7.06q-.91,2.55-1.76,5.13c-.27.82-.55,1.64-.78,2.47l0,.11a.27.27,0,0,0,.52.15Z"/></g><g class="cls-16"><path class="cls-17" d="M154,73.84c.17-.57.35-1.13.53-1.7q.72-2.3,1.52-4.58,1.17-3.36,2.46-6.68c1-2.69,2.14-5.37,3.32-8,1.28-2.89,2.64-5.74,4.11-8.54s3.08-5.62,4.83-8.3a60.36,60.36,0,0,1,5.52-7.31A91.87,91.87,0,0,1,185,20.21q3.57-3.09,7.42-5.87c1.28-.93,2.58-1.83,3.92-2.68l.18-.11c.3-.19,0-.66-.28-.47-.94.58-1.85,1.2-2.76,1.84-2.33,1.62-4.59,3.34-6.78,5.14A99.59,99.59,0,0,0,178.05,26a65.12,65.12,0,0,0-6.41,7.75,89.38,89.38,0,0,0-5,8.14c-1.55,2.81-3,5.69-4.32,8.6-1.25,2.71-2.43,5.47-3.54,8.24q-1.42,3.56-2.71,7.16c-.61,1.73-1.21,3.46-1.77,5.21-.27.82-.55,1.65-.78,2.49l0,.11a.27.27,0,0,0,.52.14Z"/></g><g class="cls-16"><path class="cls-17" d="M159.59,76.31c.17-.57.35-1.14.53-1.71.48-1.53,1-3.06,1.51-4.58q1.17-3.37,2.46-6.71c1-2.7,2.13-5.38,3.3-8q1.92-4.35,4.1-8.59c1.48-2.83,3.06-5.62,4.8-8.3A61.53,61.53,0,0,1,181.83,31a93.09,93.09,0,0,1,8.66-8.54c2.38-2.07,4.86-4.05,7.42-5.9,1.28-.93,2.57-1.84,3.9-2.69l.19-.11c.29-.19,0-.66-.28-.47-.94.58-1.86,1.22-2.77,1.85-2.33,1.64-4.6,3.38-6.8,5.2a97.88,97.88,0,0,0-8.58,8,66.14,66.14,0,0,0-6.4,7.78,91.7,91.7,0,0,0-5,8.16c-1.55,2.82-3,5.71-4.31,8.64Q166,57,164.33,61.18c-.94,2.37-1.83,4.76-2.69,7.16-.61,1.73-1.2,3.46-1.76,5.21-.27.83-.55,1.66-.78,2.51l0,.11a.27.27,0,0,0,.52.14Z"/></g><g class="cls-16"><path class="cls-17" d="M165.05,79.4c.17-.58.35-1.16.53-1.73q.73-2.36,1.55-4.69,1.17-3.44,2.48-6.81c1-2.75,2.16-5.48,3.35-8.17,1.3-3,2.68-5.89,4.17-8.76s3.11-5.73,4.88-8.47a63.56,63.56,0,0,1,5.57-7.47,96,96,0,0,1,8.83-8.75q3.66-3.19,7.58-6.05c1.31-.95,2.63-1.89,4-2.75l.19-.12c.29-.19,0-.66-.28-.47-1,.6-1.9,1.25-2.83,1.9q-3.56,2.51-6.91,5.29a103.68,103.68,0,0,0-8.75,8.15,66.71,66.71,0,0,0-6.49,7.94,90.1,90.1,0,0,0-5.1,8.36c-1.56,2.86-3,5.79-4.36,8.76q-1.89,4.17-3.57,8.41-1.44,3.63-2.73,7.3-.94,2.64-1.8,5.31c-.27.85-.55,1.7-.79,2.56l0,.11a.27.27,0,0,0,.52.15Z"/></g><g class="cls-16"><path class="cls-17" d="M176,84.48c.17-.59.35-1.17.54-1.76q.75-2.37,1.56-4.72c.8-2.31,1.65-4.6,2.53-6.88q1.6-4.17,3.41-8.26c1.32-3,2.72-5.92,4.23-8.8s3.16-5.79,5-8.55A63.1,63.1,0,0,1,198.87,38a96.11,96.11,0,0,1,8.94-8.77q3.67-3.2,7.63-6.05c1.31-1,2.65-1.89,4-2.76l.18-.12c.3-.18,0-.66-.27-.47-1,.6-1.91,1.24-2.84,1.89q-3.6,2.52-7,5.31a100.75,100.75,0,0,0-8.86,8.17,66.27,66.27,0,0,0-6.59,8A91.14,91.14,0,0,0,189,51.56c-1.59,2.89-3.06,5.86-4.44,8.86-1.29,2.79-2.5,5.63-3.64,8.49q-1.45,3.66-2.78,7.38c-.63,1.78-1.24,3.56-1.82,5.36-.28.85-.57,1.71-.8,2.57,0,0,0,.07,0,.11a.28.28,0,0,0,.53.15Z"/></g><g class="cls-16"><path class="cls-17" d="M170.56,82.1c.18-.6.37-1.2.56-1.79q.76-2.41,1.61-4.81c.82-2.34,1.69-4.68,2.59-7,1.11-2.83,2.29-5.65,3.53-8.43q2-4.56,4.37-9c1.57-3,3.26-5.88,5.11-8.68a64.83,64.83,0,0,1,5.88-7.71,100.29,100.29,0,0,1,9.19-8.9q3.76-3.21,7.8-6.11c1.35-1,2.72-1.91,4.13-2.8a1.18,1.18,0,0,0,.19-.11c.3-.19,0-.66-.27-.47-1,.6-2,1.26-2.92,1.92q-3.66,2.54-7.12,5.36a106.73,106.73,0,0,0-9.11,8.29A68.88,68.88,0,0,0,189.29,40,92.72,92.72,0,0,0,184,48.55c-1.64,3-3.16,6-4.58,9q-2,4.29-3.76,8.67-1.5,3.7-2.85,7.47-1,2.73-1.88,5.49c-.29.87-.59,1.74-.83,2.62,0,0,0,.08,0,.12-.1.33.43.48.53.14Z"/></g><g class="cls-16"><path class="cls-17" d="M181.24,86.52c.18-.6.37-1.19.56-1.78.51-1.59,1.06-3.17,1.62-4.74.83-2.34,1.71-4.65,2.62-7q1.68-4.22,3.55-8.34c1.37-3,2.82-5.94,4.38-8.84s3.29-5.83,5.16-8.61a64.07,64.07,0,0,1,6-7.66,97.52,97.52,0,0,1,9.15-8.69q3.78-3.18,7.82-6c1.35-.95,2.72-1.88,4.12-2.74l.19-.11c.3-.18,0-.66-.27-.48-1,.6-2,1.24-2.91,1.89q-3.68,2.51-7.15,5.28A105.12,105.12,0,0,0,207,36.88a67.89,67.89,0,0,0-6.84,8,94.16,94.16,0,0,0-5.37,8.45q-2.48,4.38-4.61,8.93c-1.34,2.82-2.59,5.68-3.78,8.57q-1.51,3.68-2.88,7.41-1,2.69-1.89,5.4c-.28.86-.58,1.73-.83,2.61,0,0,0,.07,0,.11a.28.28,0,0,0,.53.15Z"/></g><g class="cls-16"><path class="cls-17" d="M186.46,88.79c.18-.59.37-1.18.56-1.77q.78-2.38,1.62-4.74c.83-2.34,1.71-4.65,2.62-7q1.68-4.22,3.55-8.34c1.37-3,2.82-5.94,4.38-8.84s3.29-5.83,5.16-8.61a63.28,63.28,0,0,1,6-7.66,99,99,0,0,1,9.15-8.7q3.78-3.16,7.83-6c1.34-1,2.71-1.88,4.12-2.74l.18-.12a.27.27,0,0,0-.27-.47c-1,.6-2,1.24-2.91,1.89-2.45,1.66-4.84,3.43-7.15,5.28a104.94,104.94,0,0,0-9.11,8.15,66.88,66.88,0,0,0-6.83,8A92.08,92.08,0,0,0,200,55.62c-1.65,2.91-3.18,5.9-4.61,8.93-1.34,2.82-2.59,5.68-3.78,8.57q-1.51,3.67-2.88,7.41-1,2.68-1.89,5.4c-.28.86-.58,1.73-.83,2.6,0,0,0,.08,0,.12a.27.27,0,0,0,.53.14Z"/></g><g class="cls-16"><path class="cls-17" d="M191.87,91.83c.18-.6.37-1.19.56-1.79q.78-2.4,1.64-4.79,1.26-3.52,2.64-7c1.12-2.81,2.3-5.61,3.56-8.37,1.37-3,2.83-6,4.4-8.91s3.32-5.89,5.2-8.69a64.54,64.54,0,0,1,6-7.69,99.56,99.56,0,0,1,9.23-8.79q3.79-3.18,7.83-6c1.36-.95,2.73-1.89,4.14-2.76l.19-.11a.27.27,0,0,0-.28-.47c-1,.59-2,1.24-2.92,1.9q-3.67,2.49-7.15,5.29a104.45,104.45,0,0,0-9.15,8.19,68.69,68.69,0,0,0-6.92,8.12,92.54,92.54,0,0,0-5.38,8.48c-1.66,2.94-3.2,6-4.65,9-1.34,2.84-2.6,5.73-3.8,8.64q-1.51,3.7-2.89,7.45c-.66,1.81-1.3,3.64-1.9,5.47-.29.86-.59,1.73-.84,2.61,0,0,0,.08,0,.12-.1.33.43.48.53.14Z"/></g><g class="cls-16"><path class="cls-17" d="M197.66,94.2c.18-.6.38-1.2.58-1.79.53-1.63,1.1-3.24,1.68-4.85.86-2.36,1.76-4.72,2.71-7q1.73-4.24,3.65-8.41c1.42-3,2.92-6.06,4.54-9s3.4-5.9,5.32-8.71a65,65,0,0,1,6.23-7.79,99.33,99.33,0,0,1,9.39-8.73q3.84-3.16,7.93-6c1.38-.95,2.78-1.88,4.21-2.75l.19-.12a.27.27,0,0,0-.27-.47c-1,.6-2,1.24-3,1.89q-3.74,2.49-7.27,5.27a107.35,107.35,0,0,0-9.29,8.14A69.91,69.91,0,0,0,217.17,52a93.85,93.85,0,0,0-5.54,8.55c-1.71,3-3.28,6-4.76,9q-2.07,4.29-3.91,8.69Q201.4,82,200,85.8q-1,2.74-2,5.5c-.29.88-.6,1.76-.86,2.64a.56.56,0,0,1,0,.12.27.27,0,0,0,.53.14Z"/></g><g class="cls-16"><path class="cls-17" d="M204.07,96.9c.18-.6.38-1.19.57-1.78q.8-2.43,1.67-4.83c.84-2.36,1.73-4.69,2.67-7,1.13-2.83,2.34-5.64,3.61-8.4q2.08-4.55,4.47-8.95c1.62-3,3.37-5.9,5.28-8.71a64,64,0,0,1,6.11-7.73,99.75,99.75,0,0,1,9.3-8.74q3.83-3.18,7.91-6c1.37-.95,2.75-1.88,4.17-2.75l.2-.12a.27.27,0,0,0-.28-.47c-1,.59-2,1.24-2.93,1.88-2.48,1.67-4.9,3.45-7.25,5.31a107.8,107.8,0,0,0-9.21,8.14,70,70,0,0,0-7,8.15,96,96,0,0,0-5.46,8.51q-2.52,4.41-4.7,9-2,4.29-3.86,8.68c-1,2.47-2,5-2.93,7.48q-1,2.73-1.94,5.49c-.29.87-.59,1.74-.85,2.62l0,.11a.27.27,0,0,0,.52.15Z"/></g><g class="cls-18"><rect class="cls-19" x="142.54" y="16.89" width="0.02" height="0.14"/><rect class="cls-19" x="142.56" y="16.89" width="0.01" height="0.14"/><rect class="cls-20" x="142.56" y="16.89" width="0.01" height="0.14"/><rect class="cls-21" x="142.57" y="16.89" width="0.01" height="0.14"/><rect class="cls-22" x="142.58" y="16.89" width="0.01" height="0.14"/><rect class="cls-23" x="142.58" y="16.89" width="0.01" height="0.14"/><rect class="cls-24" x="142.59" y="16.89" width="0.01" height="0.14"/><rect class="cls-25" x="142.59" y="16.89" width="0.01" height="0.14"/><rect class="cls-26" x="142.6" y="16.89" width="0.01" height="0.14"/><rect class="cls-27" x="142.6" y="16.89" width="0.01" height="0.14"/><rect class="cls-28" x="142.61" y="16.89" width="0.01" height="0.14"/><rect class="cls-29" x="142.62" y="16.89" width="0.01" height="0.14"/><rect class="cls-30" x="142.62" y="16.89" width="0.01" height="0.14"/><rect class="cls-31" x="142.63" y="16.89" width="0.01" height="0.14"/><rect class="cls-32" x="142.63" y="16.89" width="0.01" height="0.14"/><rect class="cls-33" x="142.64" y="16.89" width="0.01" height="0.14"/><rect class="cls-34" x="142.65" y="16.89" width="0.01" height="0.14"/><rect class="cls-35" x="142.65" y="16.89" width="0.01" height="0.14"/><rect class="cls-36" x="142.66" y="16.89" width="0.01" height="0.14"/><rect class="cls-37" x="142.66" y="16.89" width="0.01" height="0.14"/><rect class="cls-38" x="142.67" y="16.89" width="0.01" height="0.14"/><rect class="cls-39" x="142.68" y="16.89" width="0.01" height="0.14"/><rect class="cls-40" x="142.68" y="16.89" width="0.01" height="0.14"/><rect class="cls-41" x="142.69" y="16.89" width="0.01" height="0.14"/><rect class="cls-41" x="142.69" y="16.89" width="0.02" height="0.14"/></g><g class="cls-42"><rect class="cls-19" x="174.57" y="26.57" width="0.02" height="0.14"/><rect class="cls-19" x="174.59" y="26.57" width="0.01" height="0.14"/><rect class="cls-20" x="174.6" y="26.57" width="0.01" height="0.14"/><rect class="cls-21" x="174.61" y="26.57" width="0.01" height="0.14"/><rect class="cls-22" x="174.61" y="26.57" width="0.01" height="0.14"/><rect class="cls-23" x="174.62" y="26.57" width="0.01" height="0.14"/><rect class="cls-24" x="174.62" y="26.57" width="0.01" height="0.14"/><rect class="cls-25" x="174.63" y="26.57" width="0.01" height="0.14"/><rect class="cls-26" x="174.64" y="26.57" width="0.01" height="0.14"/><rect class="cls-27" x="174.64" y="26.57" width="0.01" height="0.14"/><rect class="cls-28" x="174.65" y="26.57" width="0.01" height="0.14"/><rect class="cls-29" x="174.65" y="26.57" width="0.01" height="0.14"/><rect class="cls-30" x="174.66" y="26.57" width="0.01" height="0.14"/><rect class="cls-31" x="174.67" y="26.57" width="0.01" height="0.14"/><rect class="cls-32" x="174.67" y="26.57" width="0.01" height="0.14"/><rect class="cls-33" x="174.68" y="26.57" width="0.01" height="0.14"/><rect class="cls-34" x="174.68" y="26.57" width="0.01" height="0.14"/><rect class="cls-35" x="174.69" y="26.57" width="0.01" height="0.14"/><rect class="cls-36" x="174.69" y="26.57" width="0.01" height="0.14"/><rect class="cls-37" x="174.7" y="26.57" width="0.01" height="0.14"/><rect class="cls-38" x="174.71" y="26.57" width="0.01" height="0.14"/><rect class="cls-39" x="174.71" y="26.57" width="0.01" height="0.14"/><rect class="cls-40" x="174.72" y="26.57" width="0.01" height="0.14"/><rect class="cls-41" x="174.72" y="26.57" width="0.01" height="0.14"/><rect class="cls-41" x="174.73" y="26.57" width="0.02" height="0.14"/></g><g class="cls-13"><path class="cls-14" d="M60,73,49.16,67.79l-1.54-.74L22.87,55.13l1-.73C31,58,41,63.16,48.7,67.15l1.59.82Z"/></g><g class="cls-13"><path class="cls-43" d="M84.72,90.43,60.24,79.81,27.38,63.56C28.78,64.23,72.69,84.69,84.72,90.43Z"/></g></g></g></g></svg>