<svg xmlns="http://www.w3.org/2000/svg" viewBox="0 0 60.58 54.7"><defs><style>.cls-1{isolation:isolate;}.cls-2,.cls-3{fill:#f06868;fill-rule:evenodd;}.cls-3{opacity:0.5;mix-blend-mode:multiply;}.cls-4{fill:#9e2828;}</style></defs><title>Asset 22</title><g class="cls-1"><g id="Layer_2" data-name="Layer 2"><g id="Layer_1-2" data-name="Layer 1"><path class="cls-2" d="M41.93,52.39a26,26,0,0,1,18.17,2l.42.35-.2-.23.26.16-.42-.35a26.07,26.07,0,0,1-5.35-17.47c.54-11.28-.67-24-11.82-31.74S12.66-2.47,9.22,12.23c-13.79,6.14-10.39,25-.68,34.51S31,55,41.93,52.39Z"/><path class="cls-3" d="M8.54,46.74C18.25,56.24,31,55,41.93,52.39a26,26,0,0,1,18.17,2l.42.35-.2-.23L9.22,12.23C-4.57,18.37-1.17,37.25,8.54,46.74Z"/><polygon class="cls-4" points="1.44 4.33 60.13 54.31 0 6.07 1.44 4.33"/><path class="cls-4" d="M50.74,33.66c-2.32.44-4.65.76-7,1.07s-4.68.54-7,.77l.51-.61c.2,2.36.4,4.72.52,7.09l.16,3.56c0,1.19.07,2.37,0,3.57-.23-1.17-.4-2.35-.6-3.52l-.48-3.53c-.31-2.35-.54-4.71-.77-7.07l-.06-.57.57,0c2.34-.2,4.69-.4,7-.51S48.38,33.64,50.74,33.66Z"/><path class="cls-4" d="M45.64,23.06c-3.47.55-7,1-10.45,1.4s-7,.76-10.47,1.1l.51-.61c.31,3.51.62,7,.84,10.55l.33,5.29c.07,1.77.18,3.53.21,5.3-.29-1.74-.5-3.5-.76-5.25l-.64-5.26c-.43-3.5-.77-7-1.11-10.53l-.05-.56.56,0c3.5-.31,7-.62,10.5-.84S42.12,23.15,45.64,23.06Z"/><path class="cls-4" d="M31,13.18c-3.07.51-6.15.91-9.23,1.28s-6.18.69-9.27,1l.51-.62c.28,3.11.55,6.23.73,9.35L14,28.86c.05,1.56.14,3.12.15,4.69-.27-1.54-.47-3.09-.7-4.64l-.59-4.65c-.39-3.1-.69-6.21-1-9.32l0-.57.56,0c3.09-.27,6.19-.54,9.29-.72S27.87,13.23,31,13.18Z"/></g></g></g></svg>