<svg xmlns="http://www.w3.org/2000/svg" viewBox="0 0 98.77 63.02"><defs><style>.cls-1{isolation:isolate;}.cls-2{fill:#c18343;}.cls-10,.cls-11,.cls-14,.cls-17,.cls-2,.cls-3,.cls-4,.cls-5,.cls-6,.cls-7,.cls-8{fill-rule:evenodd;}.cls-3{fill:#519032;}.cls-4{fill:#ffe161;}.cls-5{fill:#d8a980;}.cls-6{fill:#663f1f;}.cls-7{fill:#fff1e1;}.cls-8{fill:#995f2b;}.cls-13,.cls-9{opacity:0.5;}.cls-12,.cls-16,.cls-9{mix-blend-mode:multiply;}.cls-10{fill:#e5cea8;}.cls-11{fill:#f7ddba;}.cls-12{opacity:0.65;}.cls-13{mix-blend-mode:overlay;}.cls-14,.cls-15{fill:#fff;}.cls-16{opacity:0.45;}.cls-17,.cls-18{fill:#eaae4e;}</style></defs><title>Asset 20</title><g class="cls-1"><g id="Layer_2" data-name="Layer 2"><g id="Layer_2-2" data-name="Layer 2"><polygon class="cls-2" points="5.9 42.47 62.51 11.97 98.36 28.73 37.18 62.04 5.9 42.47"/><polygon class="cls-3" points="0.72 30.77 57.33 0.28 0.72 30.78 0.72 30.77"/><polygon class="cls-4" points="0.98 30.62 57.59 0.13 57.68 0.09 57.77 0.06 57.85 0.03 57.94 0.02 58.03 0 1.42 30.5 1.33 30.51 1.24 30.53 1.15 30.55 1.06 30.58 0.98 30.62"/><polygon class="cls-5" points="1.42 30.5 58.03 0 58.12 0 58.21 0 58.3 0.01 58.39 0.03 58.48 0.05 58.57 0.08 58.65 0.12 58.74 0.16 2.13 30.65 2.04 30.61 1.96 30.57 1.87 30.54 1.78 30.52 1.69 30.5 1.6 30.5 1.51 30.49 1.42 30.5"/><polygon class="cls-6" points="1.47 31.95 58.17 1.7 58.19 1.97 58.22 2.24 58.26 2.52 58.3 2.79 58.35 3.07 58.41 3.35 58.47 3.63 58.55 3.92 58.62 4.21 58.71 4.5 58.8 4.8 58.9 5.1 59 5.4 59.11 5.7 59.23 6 59.35 6.31 2.55 36.91 1.29 32.93 1.47 31.95"/><path class="cls-6" d="M59.35,6.31l.14.33.15.34.16.34.16.34.17.34.18.35.18.35.2.35.2.35.21.36.21.36.23.37.23.36.24.37.25.38.25.37L5.9,42.47a20.32,20.32,0,0,1-3.16-5.66Z"/><path class="cls-7" d="M36.57,60.05l-4.38-12.4L3.62,31.7a14.72,14.72,0,0,0,3.82,9.93Z"/><path class="cls-8" d="M3.66,32.42a14.47,14.47,0,0,0,3.51,8.89A92.07,92.07,0,0,1,3.66,32.42Z"/><g class="cls-9"><path class="cls-10" d="M34.7,54.75,32,47,3.62,31.7a35.09,35.09,0,0,0,1.14,5.72Z"/></g><polygon class="cls-11" points="95 28.48 36.57 60.05 32.19 47.66 90.9 15.98 93.21 23.02 93.36 23.46 95 28.48"/><g class="cls-12"><path class="cls-10" d="M92.28,20.16l-1.36-4.11L32.2,47.68l2.5,7.06A503.53,503.53,0,0,1,92.28,20.16Z"/></g><polygon class="cls-2" points="2.13 30.65 58.74 0.16 92.47 13.86 31.29 47.17 2.13 30.65"/><path class="cls-8" d="M37.48,63,4.82,43.51A3.36,3.36,0,0,1,4.43,43C2.22,39.71.22,35.79,0,32a1.7,1.7,0,0,1,.65-1.43,1.28,1.28,0,0,1,1.41-.12L31.22,47l.43,1.29L1.49,32a13.7,13.7,0,0,0,1.18,4.61,22.64,22.64,0,0,0,3.16,5.66L37.11,61.83Z"/><polygon class="cls-8" points="31.22 46.96 92.47 13.86 92.85 15.1 31.65 48.25 31.22 46.96"/><polygon class="cls-8" points="37.11 61.83 98.36 28.73 98.77 29.85 37.48 63.02 37.11 61.83"/><g class="cls-13"><path class="cls-14" d="M85.21,14,58.93,3.24,7.84,30.46,31.24,43.1Zm2-.1L31.14,44.45l-24.71-14L58.69,2.31Z"/></g><g class="cls-13"><path class="cls-14" d="M53.29,11.81c6.91-3.14,13.34-3.6,14.37-1S63.92,18,57,21.13s-13.34,3.6-14.37,1S46.39,15,53.29,11.81Z"/></g><g class="cls-13"><polygon class="cls-14" points="17.76 28.09 36.23 37.33 39.27 35.66 20.47 26.61 17.76 28.09"/></g><g id="_Group_" data-name="&lt;Group&gt;" class="cls-13"><path class="cls-15" d="M25.36,23.85l-1.47.73,19,9.09c.67-.32.76-.47,1.43-.79C38.05,29.84,31.63,26.89,25.36,23.85Z"/></g><g class="cls-16"><path class="cls-17" d="M94.2,26.3c-4.77,2.52-15.68,8-16,8.16l15.86-8.6Z"/></g><g class="cls-16"><path class="cls-17" d="M35.39,56.71c.38-.1,29.53-15.29,29.53-15.29L35.6,57.31Z"/></g><g class="cls-16"><path class="cls-17" d="M35.6,57.31c0-.07-6.85-4.56-6.85-4.56l6.64,4Z"/></g><g class="cls-16"><path class="cls-18" d="M82.69,28.12,68.75,35.75l-19.6,9.77C50,45.1,75.61,31.74,82.69,28.12Z"/></g><g class="cls-16"><path class="cls-18" d="M21,45l-6.08-3.28L7,36.68C7.33,36.89,18.07,43.25,21,45Z"/></g></g></g></g></svg>