<svg xmlns="http://www.w3.org/2000/svg" xmlns:xlink="http://www.w3.org/1999/xlink" viewBox="0 0 64.66 76.44"><defs><style>.cls-1{isolation:isolate;}.cls-2{fill:url(#linear-gradient);}.cls-3{fill:#d39985;}.cls-4{fill:#ededed;}.cls-5,.cls-7{fill:#eaeaea;}.cls-5{mix-blend-mode:multiply;}.cls-6{fill:url(#linear-gradient-2);}</style><linearGradient id="linear-gradient" x1="53.06" y1="33.77" x2="53.06" y2="88.88" gradientTransform="translate(5.19 -51.61) rotate(15.88)" gradientUnits="userSpaceOnUse"><stop offset="0.01" stop-color="#fff5e0"/><stop offset="0.5" stop-color="#f0e3c1"/><stop offset="1" stop-color="#edc080"/></linearGradient><linearGradient id="linear-gradient-2" x1="44.77" y1="33.77" x2="44.77" y2="88.88" gradientTransform="translate(5.19 -51.61) rotate(15.88)" gradientUnits="userSpaceOnUse"><stop offset="0" stop-color="#fbd395"/><stop offset="0.2" stop-color="#ebbd83"/><stop offset="0.63" stop-color="#c48554"/><stop offset="1" stop-color="#9d4e26"/></linearGradient></defs><title>Asset 18</title><g class="cls-1"><g id="Layer_2" data-name="Layer 2"><g id="Layer_1-2" data-name="Layer 1"><path class="cls-2" d="M21.33,3.39,4.54,62.4a2.38,2.38,0,0,0,1.63,2.94l38.68,11a2.39,2.39,0,0,0,2.93-1.65l16.79-59a2.38,2.38,0,0,0-1.64-2.93l-38.67-11A2.38,2.38,0,0,0,21.33,3.39Z"/><path class="cls-3" d="M62.93,12.76l-1.32-.38a2.38,2.38,0,0,1,1.64,2.93l-16.79,59A2.39,2.39,0,0,1,43.52,76l1.33.38a2.39,2.39,0,0,0,2.93-1.65l16.79-59A2.38,2.38,0,0,0,62.93,12.76Z"/><path class="cls-4" d="M18.19,3.5,1.93,60.66A2.4,2.4,0,0,0,3.56,63.6l38.68,11A2.39,2.39,0,0,0,45.18,73L61.45,15.81a2.39,2.39,0,0,0-1.65-2.94l-38.67-11A2.38,2.38,0,0,0,18.19,3.5Z"/><path class="cls-5" d="M22.44,3.7l-16.79,59a2.39,2.39,0,0,0,1.64,2.95L38,74.4l.27-.93h0a2.38,2.38,0,0,0,2.93-1.64L57.46,14.67a2.38,2.38,0,0,0-1.64-2.93l.27-.93L25.38,2.07A2.39,2.39,0,0,0,22.44,3.7Z"/><path class="cls-6" d="M50.87,9.33,18.09,0,0,63.59l32.78,9.32a2.38,2.38,0,0,0,2.94-1.64l16.79-59A2.38,2.38,0,0,0,50.87,9.33Z"/><path class="cls-3" d="M50.87,9.33,49.55,9a2.38,2.38,0,0,1,1.64,2.93l-16.79,59a2.38,2.38,0,0,1-2.94,1.65l1.32.37a2.38,2.38,0,0,0,2.94-1.64l16.79-59A2.38,2.38,0,0,0,50.87,9.33Z"/><path class="cls-7" d="M40.3,14,26.91,10.18a.61.61,0,0,1-.43-.76A.62.62,0,0,1,27.25,9l13.4,3.81A.63.63,0,0,1,40.3,14Z"/><path class="cls-7" d="M42.64,23.64l-22.8-6.49a1.25,1.25,0,1,1,.68-2.4l22.81,6.49a1.25,1.25,0,1,1-.69,2.4Z"/><path class="cls-7" d="M38.71,26.42l-17-4.83A1.26,1.26,0,0,1,20.86,20a1.24,1.24,0,0,1,1.54-.86L39.4,24a1.25,1.25,0,1,1-.69,2.41Z"/></g></g></g></svg>