<svg xmlns="http://www.w3.org/2000/svg" viewBox="0 0 93 88.24"><defs><style>.cls-1{fill:#f9eacd;}.cls-2{fill:#f1d3a9;}.cls-3{fill:#ab5555;}.cls-4{fill:#a87272;}.cls-5{fill:#6e3a3a;}.cls-6{fill:#915353;}.cls-7{opacity:0.7;}.cls-8{fill:#f8cece;}</style></defs><title>Asset 24</title><g id="Layer_2" data-name="Layer 2"><g id="Layer_2-2" data-name="Layer 2"><path class="cls-1" d="M20.42,33.45C19.85,32.13,6.65,10.17,6.52,10l9.32,11.42,5.28,12.18Z"/><path class="cls-2" d="M19.51,21.89,9.69,7.31c0-.06,10.74,25.81,11.45,26.43.07.07.29.32.27-.09C21.25,31.26,19.51,21.89,19.51,21.89Z"/><path class="cls-1" d="M20.7,16.08,14.21,6.83S21,32.91,21.41,33.76,20.7,16.08,20.7,16.08Z"/><path class="cls-2" d="M24,12.34,18.29,4.55S20.41,31.1,21.6,33.67a.2.2,0,0,0,.25.1C22.72,33.58,24,12.34,24,12.34Z"/><path class="cls-1" d="M29.63,9.12c-.21,0-5.23-7.48-5.23-7.48s-3.77,30.51-2.55,32.13Z"/><path class="cls-2" d="M35.42,7.19,30.74.3S21,32.52,21.85,33.77,35.42,7.19,35.42,7.19Z"/><path class="cls-1" d="M21.85,33.77S35.61,1.91,38,0L43,5.47S25.41,32.4,21.85,33.77Z"/><path class="cls-2" d="M22.28,33.79S38.45,4.37,43,.19l4.53,6.88S25,33.24,22.28,33.79Z"/><path class="cls-1" d="M23.22,33.42S36.82,11.75,49.37,1L55,8.71S25.56,32.11,23.22,33.42Z"/><path class="cls-2" d="M.71,14.19,3.5,12.44s14.12,15.1,17.15,20.91c.37.69-.48,0-.44.4L.71,14.19"/><path class="cls-2" d="M22.28,33.79s24.85-25.88,36-29l5.17,1.77L25.28,33.9Z"/><path class="cls-3" d="M.79,13.57s19,19.72,19.27,19.73l4.76.18L64,5.78l1.32.52L57.68,21l-34,16.34-8.56-3-14-18.57L0,14.07"/><polygon class="cls-4" points="24.77 34.71 65.27 6.3 93 62.69 55.18 88.25 24.77 34.71"/><polygon class="cls-5" points="50.1 86.47 36.21 70.47 1.1 15.79 20.01 34.73 50.1 86.47"/><polygon class="cls-6" points="20.01 34.73 24.77 34.71 55.18 88.25 50.1 86.47 20.01 34.73"/><g class="cls-7"><polygon class="cls-8" points="29.26 35.89 56.66 81.51 88.06 60.38 63.9 13.21 29.26 35.89"/></g><path class="cls-5" d="M58.15,76.91l-.12-.2L34.33,36.64,63.21,17,84.42,59.82l-.17.11ZM34.93,36.78,58.3,76.28,83.84,59.66,63,17.67Z"/><polygon class="cls-5" points="64.73 69.22 76.5 61.32 74.31 60.07 73.97 57.57 62.14 65.52 64.2 66.86 64.73 69.22"/><polygon class="cls-5" points="47.1 37.09 58.95 29.32 56.77 28.05 56.46 25.54 44.54 33.35 46.59 34.72 47.1 37.09"/><ellipse class="cls-1" cx="66.3" cy="57.63" rx="1.84" ry="2.33" transform="translate(-19.15 37.25) rotate(-27.58)"/><polygon class="cls-1" points="26.59 39.75 23.97 39.95 21.41 35.48 24.28 35.4 26.59 39.75"/><polygon class="cls-1" points="53.49 86.75 50.4 85.91 48.09 81.91 51.12 82.15 53.49 86.75"/></g></g></svg>