<svg xmlns="http://www.w3.org/2000/svg" viewBox="0 0 71.3 96.46"><defs><style>.cls-1{isolation:isolate;}.cls-2{fill:#8e5e30;}.cls-3{fill:#65411c;}.cls-4{fill:#cea76f;}.cls-5{fill:#fff5dc;}.cls-6{fill:#e5cea8;}.cls-7{fill:#ce9358;}.cls-8{fill:#b5793e;}.cls-9{fill:#efdbbd;}.cls-10{opacity:0.45;}.cls-10,.cls-17{mix-blend-mode:multiply;}.cls-11{fill:#eaae4e;}.cls-12{fill:#f7a11e;}.cls-13{opacity:0.2;}.cls-13,.cls-14,.cls-16{mix-blend-mode:overlay;}.cls-14,.cls-15{opacity:0.5;}.cls-16,.cls-19{opacity:0.25;}.cls-17{opacity:0.35;}.cls-18{fill:#3e9b94;}.cls-19{mix-blend-mode:soft-light;}.cls-20{fill:#fff;}</style></defs><title>Asset 21</title><g class="cls-1"><g id="Layer_2" data-name="Layer 2"><g id="Layer_2-2" data-name="Layer 2"><path class="cls-2" d="M70.16,22.22c-4-5.08-14.71-18.65-15.7-19.71a2,2,0,0,0-2-.5c-.41.15.11,1.07-.16,2.13-.54,2.1-16.73,65.32-16.9,66a2.55,2.55,0,0,0,.31,2.38c.67,1,16,21.87,16,21.87s15.08-53,19.6-70.64C71.39,23.34,70.45,22.59,70.16,22.22Z"/><path class="cls-3" d="M69.19,22.17C61.37,11.5,54.48,3.52,53.49,2.45S51.87,2,51.33,4.08,34.6,69.4,34.44,70.05a2.57,2.57,0,0,0,.3,2.39l16,21.86S65.35,43.5,70.54,23.53C70.67,23,69.38,22.43,69.19,22.17Z"/><path class="cls-4" d="M69.27,23.26l-1.28,5-8.53.17,1.5-6a23.58,23.58,0,0,1,4.49.22A37.63,37.63,0,0,1,69.27,23.26Z"/><path class="cls-5" d="M50.85,2.53,47.8,14.45l17.75,8.32a118.46,118.46,0,0,0-8.21-12.65A75,75,0,0,0,50.85,2.53Z"/><path class="cls-6" d="M65.55,22.77A41.64,41.64,0,0,0,61,22.39L19.71,1a17.19,17.19,0,0,0,6.2,1.21s4.8,3.27,18.5,8.47A75.92,75.92,0,0,1,65.55,22.77Z"/><path class="cls-6" d="M65.55,22.77a125.9,125.9,0,0,1-8.43-11.38c-3.47-5.33-6.27-8.86-6.27-8.86l2,.51S55.6,6.9,59.2,11.55A112.43,112.43,0,0,0,69.27,23.26Z"/><path class="cls-2" d="M69.19,22.17c.62.92,1.92,1.29.76,1.42s-4.51.33-6.67-.72S61.31,21.58,60,21,21.24.94,20,.27a1.51,1.51,0,0,0-2.35.82C17.25,1.93,58.7,24.41,63.12,26s6.87.76,7.31.08a6.51,6.51,0,0,0,.64-2.49C71.06,23.19,69.19,22.17,69.19,22.17Z"/><path class="cls-7" d="M17.23,2.32.08,69.28c-.17.64-.15,1.13.83,1.68l11,6.18,10.15,5.7.41.23,2.79,1.57.39.21,1.05.59.39.22,1.37.78c.13.06.25.13.37.2l1.75,1,.42.24.23.13,10.19,5.72L59.88,21.58,49.25,16.09l-.88-.45L20.75,1.4,19.38.69c-.8-.41-1.23-.49-1.58,0h0a1.57,1.57,0,0,0-.16.29l0,.07A8,8,0,0,0,17.23,2.32Z"/><path class="cls-8" d="M59.88,21.58,41.41,93.71c1.83,1,2.38,2.62,7.86,2.74.34,0,.65,0,.93,0,1.9-.12,2.65-.85,3.07-2.37.78-2.79,17.63-67.09,18-70.35-.05.32-.6.55-2.21.6H67.75C62.27,24.19,61.71,22.55,59.88,21.58Z"/><path class="cls-9" d="M57.85,29.52l.81-3.17c1.78,1,2.47,2.56,8,2.73,2.27.07,3.24-.1,3.53-.39-.24,1-.52,2.11-.82,3.33a10.84,10.84,0,0,1-3.4.19C60.47,32,59.54,30.54,57.85,29.52Z"/><path class="cls-9" d="M42.24,90.47l.81-3.18c1.78,1,2.48,2.57,8,2.73a8.15,8.15,0,0,0,3.4-.29c-.37,1.41-.67,2.53-.87,3.29a12.63,12.63,0,0,1-3.21.13C44.86,92.93,43.94,91.49,42.24,90.47Z"/><g class="cls-10"><path class="cls-11" d="M65.47,21.42l-6.72-8.93S62.94,19.14,65.47,21.42Z"/></g><g class="cls-10"><path class="cls-11" d="M63.76,18.08c.08.08-9.46-12.36-9.46-12.36S61.52,15.66,63.76,18.08Z"/></g><g class="cls-10"><path class="cls-11" d="M61.25,20.34s-13.74-8-19.42-10.09C41.83,10.25,49.55,12.51,61.25,20.34Z"/></g><g class="cls-10"><path class="cls-11" d="M55.4,17.84,29.62,5S47.85,13.66,55.4,17.84Z"/></g><path class="cls-12" d="M19.32,9,4.79,65.67l5,2.81L28.44,79l9.78,5.52,15-58.38-5.76-2.92-.87-.45Zm.49,1.21L46.33,23.62l.87.45,5,2.56L37.74,83.26l-9.67-5.45L9.5,67.34,5.72,65.21Z"/><g class="cls-13"><path d="M58.52,35c1.17.74,2.79,1.43,6.39,1.56,1.86.07,2.9-.22,3.53-.95C64.81,50,58.62,73.76,55.37,86.12c-.59.94-1.61,1.33-3.6,1.27-3.62-.1-5.13-.82-6.26-1.59Z"/></g><g class="cls-14"><g class="cls-15"><polygon points="44.72 40.95 45.43 38.32 19.36 25.15 18.73 27.67 44.72 40.95"/></g></g><g class="cls-16"><polygon points="43.18 47.03 43.87 44.23 17.82 30.97 17.18 33.54 43.18 47.03"/></g><g class="cls-15"><g class="cls-14"><polygon points="35.62 71.81 35.92 70.64 11.4 56.98 11.09 58.16 35.62 71.81"/></g></g><g class="cls-17"><path class="cls-18" d="M50.2,96.44c1.9-.12,2.65-.85,3.07-2.37.78-2.79,17.63-67.09,18-70.35-.05.32-.6.55-2.21.6h-.3Z"/></g><path class="cls-12" d="M48.7,27.44a1.16,1.16,0,0,0,.83,1.41A1.17,1.17,0,0,0,50.94,28a1.16,1.16,0,0,0-2.24-.57Z"/><circle class="cls-12" cx="36.2" cy="80" r="1.16"/><circle class="cls-12" cx="21.06" cy="13.23" r="1.07"/><circle class="cls-12" cx="8.08" cy="64.28" r="1.07"/><g class="cls-19"><polygon class="cls-20" points="11.55 24.48 5.13 49.55 6.99 57.11 7.38 58.71 9.5 67.34 9.78 68.48 11.9 77.14 22.05 82.84 22.46 83.07 25.25 84.64 25.64 84.85 26.69 85.44 27.08 85.66 28.45 86.44 28.82 86.64 30.57 87.62 30.99 87.86 31.22 87.99 28.44 79 28.07 77.81 14.07 32.6 13.63 31.18 11.55 24.48"/></g><path class="cls-12" d="M21.54,53.26a2.6,2.6,0,0,1-.47-.16,4.28,4.28,0,0,0,2.47,1.76c2.6.66,5.36-1.36,6.16-4.51s-.66-6.23-3.26-6.89a4.29,4.29,0,0,0-3,.37,2.64,2.64,0,0,1,.49.08c2.13.54,3.32,3.07,2.67,5.65S23.67,53.8,21.54,53.26Z"/></g></g></g></svg>