<svg xmlns="http://www.w3.org/2000/svg" viewBox="0 0 82.43 70.94"><defs><style>.cls-1{fill:#faa862;}.cls-1,.cls-2{fill-rule:evenodd;}.cls-2{fill:#f68038;}.cls-3{fill:#91511a;}</style></defs><title>Asset 26</title><g id="Layer_2" data-name="Layer 2"><g id="Layer_1-2" data-name="Layer 1"><path class="cls-1" d="M49.87,10.15c-9.61-.54-24.79,8.13-24.79,8.13a11.27,11.27,0,0,1,6.53,1.37c-4.6.11-15.92,8.84-15.92,8.84,1.78-1.06,8.19.18,8.19.18C15.86,32.37,6,43.87,6,43.87l8-1C9.54,44.88,1.49,58,1.49,58l6.28-3.11A171.82,171.82,0,0,1,0,70.41a169.21,169.21,0,0,1,16.58-5.17l-4.08,5.7s14.23-5.85,17-10l-2.31,7.77S40.1,60.86,45,53.54c0,0,.2,6.53-1.14,8.11,0,0,10.44-9.77,11.29-14.28A11.22,11.22,0,0,1,55.49,54s11-13.59,12-23.16c0,0,1.82,7.83,1,11a61.81,61.81,0,0,0,3.92-33A61.82,61.82,0,0,0,39.19,7.39C42.43,7.09,49.87,10.15,49.87,10.15Z"/><path class="cls-2" d="M31.61,19.65c-4.6.11-15.92,8.84-15.92,8.84,1.78-1.06,8.19.18,8.19.18C15.86,32.37,6,43.87,6,43.87l8-1C9.54,44.88,1.49,58,1.49,58l6.28-3.11A171.82,171.82,0,0,1,0,70.41L72.41,8.83A61.82,61.82,0,0,0,39.19,7.39c3.24-.3,10.68,2.76,10.68,2.76-9.61-.54-24.79,8.13-24.79,8.13A11.27,11.27,0,0,1,31.61,19.65Z"/><polygon class="cls-3" points="82.43 2.24 0 70.41 80.52 0 82.43 2.24"/><path class="cls-3" d="M23.43,59.91a63,63,0,0,1,.1-10.19l.67.79a62,62,0,0,1-10.07-1.57,63,63,0,0,1,10.19.1l.74.06-.06.74A63.1,63.1,0,0,1,23.43,59.91Z"/><path class="cls-3" d="M36.38,52.49a119.81,119.81,0,0,1,.42-14.06l.67.79a115.6,115.6,0,0,1-13.93-1.88,119.58,119.58,0,0,1,14.05.42l.74.05-.06.74A117.56,117.56,0,0,1,36.38,52.49Z"/><path class="cls-3" d="M50,42.66a154.18,154.18,0,0,1,.57-15.95l.67.79a151.2,151.2,0,0,1-15.81-2A151,151,0,0,1,51.37,26l.74.06-.06.73A154,154,0,0,1,50,42.66Z"/><path class="cls-3" d="M60.6,31.06a105,105,0,0,1,.34-13.16l.67.79a104.49,104.49,0,0,1-13-1.8,102.74,102.74,0,0,1,13.14.34l.74.05-.06.74A103,103,0,0,1,60.6,31.06Z"/></g></g></svg>