<svg xmlns="http://www.w3.org/2000/svg" xmlns:xlink="http://www.w3.org/1999/xlink" viewBox="0 0 114.46 62.41"><defs><style>.cls-1{isolation:isolate;}.cls-2{fill:url(#linear-gradient);}.cls-3{fill:#f5f5f5;}.cls-4{fill:url(#linear-gradient-2);}.cls-5{fill:#bf360b;}.cls-6{mix-blend-mode:multiply;fill:url(#linear-gradient-3);}.cls-7{fill:#001618;}.cls-8{fill:#c6c6c6;}.cls-9{fill:#878787;}</style><linearGradient id="linear-gradient" x1="22" y1="61.03" x2="22" y2="-10.93" gradientTransform="translate(67.85 7.38) rotate(90)" gradientUnits="userSpaceOnUse"><stop offset="0.01" stop-color="#fea23d"/><stop offset="0.35" stop-color="#fe9c5a"/><stop offset="0.99" stop-color="#ff8e9b"/></linearGradient><linearGradient id="linear-gradient-2" x1="2121.72" y1="1113.16" x2="2134.16" y2="1113.16" gradientTransform="matrix(-0.29, 0.96, -0.96, -0.29, 1770.17, -1666.39)" gradientUnits="userSpaceOnUse"><stop offset="0" stop-color="#ffb324"/><stop offset="0.93" stop-color="#ff9614"/><stop offset="0.99" stop-color="#ff9413"/></linearGradient><linearGradient id="linear-gradient-3" x1="59.96" y1="24.91" x2="3.19" y2="24.91" gradientTransform="translate(84.07 16.6) rotate(90)" gradientUnits="userSpaceOnUse"><stop offset="0" stop-color="#fff"/><stop offset="0.17" stop-color="#e8e2ef"/><stop offset="0.55" stop-color="#ae98c6"/><stop offset="0.99" stop-color="#633891"/></linearGradient></defs><title>Asset 23</title><g class="cls-1"><g id="Layer_2" data-name="Layer 2"><g id="Layer_1-2" data-name="Layer 1"><rect class="cls-2" x="43.08" y="-26.11" width="28.3" height="111" transform="translate(12.75 75.87) rotate(-73.44)"/><rect class="cls-3" x="4.41" y="6.59" width="8.84" height="1.11" transform="translate(-0.54 13.58) rotate(-73.44)"/><rect class="cls-3" x="9.38" y="5.91" width="5.63" height="1.11" transform="translate(2.51 16.31) rotate(-73.44)"/><rect class="cls-3" x="12.28" y="6.78" width="5.63" height="1.11" transform="translate(3.76 19.71) rotate(-73.44)"/><rect class="cls-3" x="15.19" y="7.64" width="5.63" height="1.12" transform="translate(5.01 23.11) rotate(-73.44)"/><rect class="cls-3" x="18.92" y="10.91" width="8.84" height="1.11" transform="translate(5.7 30.57) rotate(-73.44)"/><rect class="cls-3" x="23.89" y="10.23" width="5.63" height="1.12" transform="translate(8.75 33.31) rotate(-73.44)"/><rect class="cls-3" x="26.8" y="11.09" width="5.63" height="1.12" transform="matrix(0.29, -0.96, 0.96, 0.29, 10, 36.71)"/><rect class="cls-3" x="29.7" y="11.95" width="5.63" height="1.12" transform="translate(11.25 40.11) rotate(-73.44)"/><rect class="cls-3" x="18.09" y="8.5" width="5.63" height="1.11" transform="translate(6.26 26.51) rotate(-73.44)"/><rect class="cls-3" x="32.6" y="12.82" width="5.63" height="1.12" transform="translate(12.5 43.51) rotate(-73.44)"/><rect class="cls-3" x="33.43" y="15.22" width="8.84" height="1.12" transform="translate(11.94 47.57) rotate(-73.44)"/><rect class="cls-3" x="38.4" y="14.55" width="5.63" height="1.11" transform="translate(14.99 50.3) rotate(-73.44)"/><rect class="cls-3" x="41.31" y="15.41" width="5.63" height="1.11" transform="translate(16.24 53.7) rotate(-73.44)"/><rect class="cls-3" x="44.21" y="16.27" width="5.63" height="1.12" transform="translate(17.49 57.1) rotate(-73.44)"/><rect class="cls-3" x="47.95" y="19.54" width="8.84" height="1.11" transform="translate(18.18 64.57) rotate(-73.44)"/><rect class="cls-3" x="52.92" y="18.86" width="5.63" height="1.12" transform="matrix(0.29, -0.96, 0.96, 0.29, 21.23, 67.3)"/><rect class="cls-3" x="55.82" y="19.73" width="5.63" height="1.11" transform="translate(22.48 70.7) rotate(-73.44)"/><rect class="cls-3" x="58.72" y="20.59" width="5.63" height="1.11" transform="translate(23.73 74.1) rotate(-73.44)"/><rect class="cls-3" x="47.11" y="17.14" width="5.63" height="1.11" transform="translate(18.73 60.5) rotate(-73.44)"/><rect class="cls-3" x="61.63" y="21.45" width="5.63" height="1.12" transform="translate(24.97 77.5) rotate(-73.44)"/><rect class="cls-3" x="62.46" y="23.86" width="8.84" height="1.12" transform="translate(24.41 81.56) rotate(-73.44)"/><rect class="cls-3" x="67.43" y="23.18" width="5.63" height="1.12" transform="translate(27.47 84.3) rotate(-73.44)"/><rect class="cls-3" x="70.33" y="24.04" width="5.63" height="1.11" transform="translate(28.72 87.7) rotate(-73.44)"/><rect class="cls-3" x="73.23" y="24.9" width="5.63" height="1.11" transform="matrix(0.29, -0.96, 0.96, 0.29, 29.96, 91.1)"/><rect class="cls-3" x="76.97" y="28.17" width="8.84" height="1.11" transform="translate(30.65 98.56) rotate(-73.44)"/><rect class="cls-3" x="81.94" y="27.49" width="5.63" height="1.11" transform="translate(33.71 101.29) rotate(-73.44)"/><rect class="cls-3" x="84.85" y="28.36" width="5.63" height="1.12" transform="translate(34.96 104.69) rotate(-73.44)"/><rect class="cls-3" x="87.75" y="29.22" width="5.63" height="1.11" transform="translate(36.2 108.09) rotate(-73.44)"/><rect class="cls-3" x="76.14" y="25.77" width="5.63" height="1.12" transform="translate(31.21 94.5) rotate(-73.44)"/><rect class="cls-3" x="90.65" y="30.08" width="5.63" height="1.12" transform="translate(37.45 111.49) rotate(-73.44)"/><rect class="cls-3" x="91.49" y="32.49" width="8.84" height="1.12" transform="matrix(0.29, -0.96, 0.96, 0.29, 36.89, 115.56)"/><rect class="cls-3" x="96.46" y="31.81" width="5.63" height="1.11" transform="translate(39.95 118.29) rotate(-73.44)"/><rect class="cls-3" x="99.36" y="32.67" width="5.63" height="1.12" transform="translate(41.19 121.69) rotate(-73.44)"/><rect class="cls-3" x="102.26" y="33.54" width="5.63" height="1.11" transform="matrix(0.29, -0.96, 0.96, 0.29, 42.44, 125.09)"/><rect class="cls-3" x="106" y="36.81" width="8.84" height="1.11" transform="translate(43.13 132.55) rotate(-73.44)"/><rect class="cls-3" x="105.17" y="34.4" width="5.63" height="1.11" transform="translate(43.69 128.49) rotate(-73.44)"/><path class="cls-4" d="M90.54,60.62l5.6,1.67A3.08,3.08,0,0,0,100,60.22l1.8-6a3.1,3.1,0,0,0-2.07-3.83l-5.6-1.66Z"/><rect class="cls-5" x="52.81" y="12.85" width="12.7" height="64.05" transform="translate(-0.71 88.79) rotate(-73.44)"/><rect class="cls-6" x="56.66" y="12.85" width="5" height="64.05" transform="translate(-0.71 88.79) rotate(-73.44)"/><rect class="cls-7" x="83.93" y="52.19" width="14.24" height="4.33" transform="matrix(0.29, -0.96, 0.96, 0.29, 13, 126.13)"/><polygon class="cls-8" points="30.29 29.63 18.3 32.72 26.65 41.86 30.29 29.63"/><polygon class="cls-9" points="21.38 31.92 18.3 32.72 20.44 35.06 21.38 31.92"/></g></g></g></svg>